<svg xmlns="http://www.w3.org/2000/svg" viewBox="0 0 101.31 78.56"><defs><style>.cls-1{fill:black;}.cls-2{fill:#fff;}.cls-3{fill:none;stroke:black;stroke-linecap:round;stroke-linejoin:round;stroke-width:3px;}</style></defs><title>Asset 9</title><g id="Layer_2" data-name="Layer 2"><g id="Layer_1-2" data-name="Layer 1"><path class="cls-1" d="M41.68,38.89s-.29-6.39,8-6.78c0,0,6.61-.87,9.32,4.12a6.58,6.58,0,0,1,.49,2.89s-4.88,5.38-8.93-.32C50.52,38.8,45.39,45,41.68,38.89Z"/><path class="cls-2" d="M48.34,33.06a3.76,3.76,0,0,1,4.49,0,.69.69,0,0,1,.24.79,4.41,4.41,0,0,1-1,1.62,2.53,2.53,0,0,1-2.65.2,3.27,3.27,0,0,1-1.35-1.78A.67.67,0,0,1,48.34,33.06Z"/><path d="M50.8,40.07a.38.38,0,0,0-.25-.16.33.33,0,0,0-.28.11c-1.78,2-3.47,2.95-5,2.72-2.28-.35-3.55-3.07-3.57-3.1a.32.32,0,0,0-.44-.16.35.35,0,0,0-.16.45c.06.12,1.44,3.08,4.07,3.48a3.77,3.77,0,0,0,.58,0c1.53,0,3.13-.89,4.76-2.66a5.81,5.81,0,0,0,3.79,2.44c1.85.22,3.78-.7,5.74-2.75A.34.34,0,0,0,60,40a.32.32,0,0,0-.47,0S55,45.31,50.8,40.07Z"/><path d="M36.6,36.26a.22.22,0,0,1-.13,0l-5.59-2.63a.34.34,0,0,1-.16-.45.33.33,0,0,1,.44-.17l5.58,2.64a.35.35,0,0,1,.17.45A.35.35,0,0,1,36.6,36.26Z"/><path d="M31,42.32a.35.35,0,0,1-.31-.2.35.35,0,0,1,.18-.45l5.59-2.43a.33.33,0,0,1,.43.18.35.35,0,0,1-.18.45L31.15,42.3Z"/><path d="M71.12,36.65H65a.34.34,0,0,1-.33-.34A.34.34,0,0,1,65,36h6.1a.34.34,0,0,1,.33.34A.34.34,0,0,1,71.12,36.65Z"/><path d="M68.3,44.58a.29.29,0,0,1-.23-.1l-4.28-4.23a.34.34,0,0,1,0-.48.32.32,0,0,1,.47,0L68.53,44a.35.35,0,0,1-.23.59Z"/><path class="cls-3" d="M34.27,1.5s.73,14,16.38,14h0C66.31,15.54,67,1.5,67,1.5"/><polyline class="cls-3" points="15.54 10.86 1.5 28.34 15.78 43.63 24.3 37.51"/><polyline class="cls-3" points="85.76 10.86 99.81 28.34 85.53 43.63 77.01 37.51"/><path class="cls-3" d="M76.75,77.06H24.56C24.45,65.45,24.32,49,24.32,39a49.41,49.41,0,0,0-8.78-28.09C23.28,4.32,34.27,1.5,34.27,1.5H67s11,2.82,18.72,9.36A49.44,49.44,0,0,0,77,39c0,10-.14,26.5-.24,38.1"/></g></g></svg>