<svg xmlns="http://www.w3.org/2000/svg" viewBox="0 0 116.42 77.66"><defs><style>.cls-1,.cls-3{fill:none;stroke:currentColor;stroke-linecap:round;stroke-linejoin:round;}.cls-1{stroke-width:3.99px;}.cls-2{fill:currentColor;}.cls-3{stroke-width:3.81px;}</style></defs><title>Asset 7</title><g id="Layer_2" data-name="Layer 2"><g id="Layer_1-2" data-name="Layer 1"><path class="cls-1" d="M60.16,58.84A31.77,31.77,0,0,1,23.69,59"/><path class="cls-1" d="M10.91,21.91A34.12,34.12,0,0,0,7.76,36.27V57.22A18.82,18.82,0,0,0,21.51,75.28c.55.15,1.1.28,1.66.38V39.73l-.51-1.07A34.27,34.27,0,0,0,48.58,24.79a34.47,34.47,0,0,0,4-6.94"/><path class="cls-1" d="M64.84,10.68a34.3,34.3,0,0,0-46.92,1.23"/><path class="cls-1" d="M51.11,21.43A20,20,0,0,0,61.2,43.71l-.29.57V75.66a17.88,17.88,0,0,0,2.32-.58A18.82,18.82,0,0,0,76.31,57.22V36.27a34.09,34.09,0,0,0-5-17.75"/><path class="cls-2" d="M90.07,45.48a1.31,1.31,0,0,0-.6,1.72l2.88,6a6,6,0,0,0-1.16,1.69,9.68,9.68,0,0,0,.09,7.54,11,11,0,0,0,4,5.11,6.31,6.31,0,0,0,5.59,1,3.81,3.81,0,0,0,1.74-1.1,2.84,2.84,0,0,0,.44-.7c.78-1.69-.06-3.77-1.13-6.4l-.44-1.11L101,58.1a20.71,20.71,0,0,0-2.2-4.64,3.66,3.66,0,0,0-4.24-1.62l-2.77-5.76A1.29,1.29,0,0,0,90.07,45.48ZM98.6,59c.15.37.3.76.45,1.14s.3.77.45,1.13c.7,1.73,1.49,3.69,1.18,4.37a1.06,1.06,0,0,1-.67.44c-2.16.72-5.06-1.4-6.34-4.64A7.19,7.19,0,0,1,93.52,56a3.08,3.08,0,0,1,.51-.81,2.63,2.63,0,0,1,1.18-.82C96.26,54,96.9,54.6,98.6,59Z"/><path class="cls-2" d="M101.55,43.21A5.93,5.93,0,0,0,100,44.57L93.44,42.5a1.28,1.28,0,0,0-.78,2.44h0l6.29,2a3.41,3.41,0,0,0,1.66,3.73,15.35,15.35,0,0,0,4.23,1.42c.53.12,1.07.25,1.63.4h0c.55.14,1.1.3,1.62.45,2.74.76,5.11,1.43,6.75.43a3.24,3.24,0,0,0,.72-.61,3.48,3.48,0,0,0,.74-1.62,6.27,6.27,0,0,0-1.68-5.41,11.1,11.1,0,0,0-5.55-3.32A9.69,9.69,0,0,0,101.55,43.21Zm12.24,7.4c-.09.43-.24.52-.29.55-.69.42-2.92-.2-4.71-.71L107.12,50h0c-.59-.16-1.14-.29-1.67-.42-3.84-.92-4.18-1.26-4-2.32a3,3,0,0,1,1.41-1.87,7.27,7.27,0,0,1,5.52-.51c3.37.88,5.83,3.51,5.37,5.73Z"/><ellipse class="cls-2" cx="88.22" cy="42.15" rx="3.13" ry="3.33" transform="translate(-1.11 81.9) rotate(-49.53)"/><line class="cls-3" x1="85.19" y1="37.22" x2="78.97" y2="24.27"/><line class="cls-3" x1="82.81" y1="40" x2="69.05" y2="35.89"/><path class="cls-1" d="M19.82,13.24a15,15,0,0,0-5.22-1.83C13.23,11.2,7.39,10.32,4.16,14,2,16.45,1.23,20.61,2.85,22.12c1.19,1.11,3.4.49,7.05-.52A36.5,36.5,0,0,0,17,18.8"/><path class="cls-1" d="M71.52,18.42A37.53,37.53,0,0,1,67,17.75"/><path class="cls-1" d="M62.78,13.17A14.93,14.93,0,0,1,67.32,10c1.26-.57,6.65-3,10.76-.29,2.68,1.76,4.58,5.56,3.43,7.45-.85,1.39-3.14,1.39-6.93,1.39-1.09,0-2.11-.05-3.06-.13"/></g></g></svg>