<svg xmlns="http://www.w3.org/2000/svg" xmlns:xlink="http://www.w3.org/1999/xlink" viewBox="0 0 101.26 73.28"><defs><style>.cls-1,.cls-3{fill:none;}.cls-2{fill:black;}.cls-3{stroke:black;stroke-linecap:round;stroke-linejoin:round;stroke-width:3px;}.cls-4{clip-path:url(#clip-path);}.cls-5{fill:#fff;}</style><clipPath id="clip-path"><path class="cls-1" d="M71.07,35.61a33.82,33.82,0,0,1-2.57-8.28A27.65,27.65,0,0,1,69.65,11.6a24.69,24.69,0,0,1,4.72-7.39L86.11,13.7c1.3,1.56,2.61,3.11,3.91,4.66Z"/></clipPath></defs><title>Asset 10</title><g id="Layer_2" data-name="Layer 2"><g id="Layer_1-2" data-name="Layer 1"><path class="cls-2" d="M97.15,25.13a7.88,7.88,0,0,0-3.68-7.82,11.27,11.27,0,0,0-3.61-1.46C87.74,12.78,76.25-2.85,64.64.46l-.08,0C61.94,1.42,62,3.88,62,6.05c0,2.81.09,6-3.87,8.9-1.56,1.16-2.72.47-5-1.07-1.93-1.31-4.11-2.79-7-2.44-3.66.45-5.54,6.94-8.15,15.92-.14.5-.29,1-.44,1.53l-.05.06a1.26,1.26,0,0,0-.23.91c-1.72,5.84-3.68,12-6.27,15.83-2.93,4.37-7,5.58-11,6.74-4.38,1.29-8.92,2.63-10,8.69A4,4,0,0,0,11,64.34c1.71,2.58,6.19,5.74,12.73,7.25a44.72,44.72,0,0,0,9.48.92,53,53,0,0,0,8.85-.73c9-1.56,15.64-5.52,19.1-11.45,7.3-12.51,12.76-16,20.26-19.84l.33-.17C89,36.6,96.45,32.77,97.15,25.13ZM74.37,4.21A23.54,23.54,0,0,0,68.22,23.8a55.92,55.92,0,0,0,2.85,11.81c-4.84,4.24-10.28,9.53-14.43,15.94l0,0a25.37,25.37,0,0,1-6.45.64c3.52-6.38,3.57-12.86,3.6-17.74,0-4.51.14-7.1,1.91-7.89C62.5,23.75,66.9,18,68.36,9.86a35.05,35.05,0,0,0,.51-7.42A14.59,14.59,0,0,1,74.37,4.21ZM35.8,41.64a13.67,13.67,0,0,0,6,1.52h.36a1.31,1.31,0,1,0-.09-2.62,11.09,11.09,0,0,1-5.32-1.34q.48-1.31.93-2.64a12.34,12.34,0,0,0,5.36,1.33h.33a1.31,1.31,0,0,0-.09-2.62A9.73,9.73,0,0,1,38.51,34c.25-.81.5-1.62.74-2.43a11.86,11.86,0,0,0,5.17,1.29h.33A1.32,1.32,0,0,0,46,31.54a1.3,1.3,0,0,0-1.36-1.26A9.54,9.54,0,0,1,40,29.05l.3-1,.42-1.44a13.48,13.48,0,0,0,5.33,1.19h.32a1.31,1.31,0,0,0,0-2.62h0a11,11,0,0,1-4.82-1.1c.71-2.35,1.41-4.5,2.13-6.23,1.39-3.35,2.38-4,2.84-4a3.6,3.6,0,0,1,.56,0c1.75,0,3.24,1,4.81,2.08,2.12,1.44,4.76,3.23,7.75,1,5-3.63,4.89-8,4.84-10.85,0-2.31.08-2.95.93-3.28.31-.08.61-.15.92-.2a32.81,32.81,0,0,1-.48,6.93c-1.33,7.24-5.08,12.2-11.14,14.72-3.42,1.54-3.45,5.59-3.48,10.28,0,5.09-.08,11.35-3.8,17.42A13.14,13.14,0,0,1,42.9,50.1a22.92,22.92,0,0,0-9.5-3.72A34.34,34.34,0,0,0,35.8,41.64ZM12.44,61.51c.79-4.58,3.93-5.5,8.28-6.79,3.6-1.06,7.62-2.24,10.85-5.86,2.16,0,5.6.65,9.9,3.44a17.54,17.54,0,0,0,9.58,2.59,26.69,26.69,0,0,0,3.54-.25c-4.56,6.55-8.82,9.88-22.14,11-12.06,1-18.06-.87-19.64-3l-.15-.16A1.46,1.46,0,0,1,12.44,61.51ZM80.69,38.19l-.34.17c-7.63,3.93-13.61,7.72-21.22,20.77-3.91,6.69-11.64,9.29-17.44,10.29a48.53,48.53,0,0,1-17.39-.16,27.09,27.09,0,0,1-4-1.23,47.41,47.41,0,0,0,5.85.33c2,0,4.18-.1,6.49-.29,16.37-1.36,20.18-6.14,26-15.17,4.16-6.43,9.74-11.74,14.61-16h0l3.67-3.13,1.35-1.14c6.58-5.58,10.25-10,11.73-14.28a8.27,8.27,0,0,1,2.22,1,5.55,5.55,0,0,1,2.53,5.54C94.19,31.24,87.63,34.62,80.69,38.19Z"/><line class="cls-3" x1="99.76" y1="71.78" x2="1.5" y2="71.78"/><g class="cls-4"><path class="cls-5" d="M68.41,31.56s-3.76-3.57.83-8.43c0,0,3.37-4.22,7.75-2.83a5.41,5.41,0,0,1,1.91,1.41s.17,5.88-5.39,4.83C73.51,26.54,74,33,68.41,31.56Z"/><path class="cls-2" d="M69,24.41a3.06,3.06,0,0,1,2.61-2.53.55.55,0,0,1,.58.33,3.65,3.65,0,0,1,.34,1.49,2.06,2.06,0,0,1-1.44,1.6A2.59,2.59,0,0,1,69.32,25,.56.56,0,0,1,69,24.41Z"/><path class="cls-5" d="M77.25,10.33a3,3,0,1,1-4.31-.14A3,3,0,0,1,77.25,10.33Z"/><path class="cls-2" d="M77,10.56a.8.8,0,1,1-1.14,0A.8.8,0,0,1,77,10.56Z"/><path class="cls-5" d="M74.39,27.12a.29.29,0,0,0-.24.05.26.26,0,0,0-.1.22c.1,2.19-.37,3.67-1.41,4.41-1.52,1.08-3.79.2-3.82.19a.26.26,0,0,0-.34.16.27.27,0,0,0,.16.35c.1,0,2.56,1,4.32-.26a3.47,3.47,0,0,0,.37-.3c.89-.85,1.32-2.27,1.28-4.22A4.7,4.7,0,0,0,78.18,27c1.21-.9,1.82-2.53,1.81-4.82a.28.28,0,0,0-.27-.28.27.27,0,0,0-.27.27S79.76,27.84,74.39,27.12Z"/><path class="cls-5" d="M84.32,13.72l-3.56,3.42a.27.27,0,0,1-.38-.39l3.56-3.43a.28.28,0,0,1,.38.4Z"/><path class="cls-5" d="M87.12,19.93a.29.29,0,0,1-.19.07l-4.87-.07a.27.27,0,0,1-.27-.27.25.25,0,0,1,.26-.27l4.88.07a.27.27,0,0,1,.27.27A.28.28,0,0,1,87.12,19.93Z"/></g></g></g></svg>