<svg xmlns="http://www.w3.org/2000/svg" viewBox="0 0 103.4 113.13"><defs><style>.cls-1{fill:black;}.cls-2{fill:#fff;}</style></defs><title>Asset 5</title><g id="Layer_2" data-name="Layer 2"><g id="Layer_1-2" data-name="Layer 1"><path class="cls-1" d="M90.56,65.22H45a1.86,1.86,0,0,1,0-3.71h45.6a1.86,1.86,0,1,1,0,3.71Z"/><path class="cls-1" d="M73.36,113.13a1.85,1.85,0,0,1-1.75-1.26l-3.84-11.28L64,111.73a1.86,1.86,0,0,1-2.27,1.19l-24.49-7a1.85,1.85,0,0,1-1.32-2.11l1.78-10.1a1.86,1.86,0,0,1,3.66.65l-1.5,8.45,21.19,6.06L66,94.21A1.86,1.86,0,0,1,67.76,93h0a1.86,1.86,0,0,1,1.76,1.26l5,14.76,21-6.47L94.26,95a1.86,1.86,0,0,1,3.66-.65l1.61,9.12a1.86,1.86,0,0,1-1.28,2.1l-24.34,7.49A2.15,2.15,0,0,1,73.36,113.13Z"/><path class="cls-1" d="M90.17,71.21H80.49a1.86,1.86,0,1,1,0-3.71h9.68a1.86,1.86,0,1,1,0,3.71Z"/><path class="cls-1" d="M76,71.21H59.53a1.86,1.86,0,1,1,0-3.71H76a1.86,1.86,0,0,1,0,3.71Z"/><path class="cls-1" d="M55,71.21h-9.2a1.86,1.86,0,0,1,0-3.71H55a1.86,1.86,0,0,1,0,3.71Z"/><path class="cls-1" d="M67.76,96.66a1.85,1.85,0,0,1-1.85-1.86V84.32a1.86,1.86,0,0,1,3.71,0V94.8A1.86,1.86,0,0,1,67.76,96.66Z"/><path class="cls-1" d="M49.42,83A1.86,1.86,0,0,1,48,80a7.17,7.17,0,0,0,1.44-4.54,1.86,1.86,0,0,1,1.72-2,1.84,1.84,0,0,1,2,1.7,10.92,10.92,0,0,1-2.27,7.16A1.84,1.84,0,0,1,49.42,83Z"/><path class="cls-1" d="M86.36,83.34A1.88,1.88,0,0,1,85,82.73a10.88,10.88,0,0,1-2.59-7.53,1.85,1.85,0,0,1,3.7.27,7.16,7.16,0,0,0,1.64,4.77,1.86,1.86,0,0,1-1.37,3.1Z"/><path class="cls-1" d="M59.53,74.2H55a1.85,1.85,0,0,1-1.86-1.85v-9a1.86,1.86,0,0,1,3.71,0v7.13h.78V63.36a1.86,1.86,0,0,1,3.71,0v9A1.85,1.85,0,0,1,59.53,74.2Z"/><path class="cls-1" d="M80.49,74.2H76a1.85,1.85,0,0,1-1.86-1.85v-9a1.86,1.86,0,0,1,3.71,0v7.13h.78V63.36a1.86,1.86,0,0,1,3.71,0v9A1.85,1.85,0,0,1,80.49,74.2Z"/><path class="cls-1" d="M55,98.88c-1.74,0-3.8-1.07-5.46-2.15a14.18,14.18,0,0,1-5.75-8.4,1.86,1.86,0,0,1,3.6-.91,10.49,10.49,0,0,0,4.19,6.21,14.93,14.93,0,0,0,2.32,1.24c-.48-1-1.32-2.53-2-3.81-3.11-5.52-7.81-13.87-8.78-24.49a39.65,39.65,0,0,1,.53-10.81,1.85,1.85,0,1,1,3.64.68,35.4,35.4,0,0,0-.47,9.79c.89,9.84,5.35,17.77,8.31,23,2.48,4.41,4,7.08,2,8.9A3,3,0,0,1,55,98.88Z"/><path class="cls-1" d="M48.83,98.78a7.11,7.11,0,0,1-.92-.06,7.49,7.49,0,0,1-3.22-1.38,13.51,13.51,0,0,1-3.59-3.87,18.47,18.47,0,0,1-1.31-2.33,1.85,1.85,0,1,1,3.35-1.58,16.35,16.35,0,0,0,1,1.86,9.77,9.77,0,0,0,2.62,2.87,4,4,0,0,0,1.62.76,3.24,3.24,0,0,0,1.87-.34A1.86,1.86,0,0,1,52,98,7,7,0,0,1,48.83,98.78Z"/><path class="cls-1" d="M42.9,97.69h-.13a5.65,5.65,0,0,1-2-.45C39,96.5,34.86,92.62,33.05,87c-3-9.23,1.31-19.46,3.3-23.43a1.86,1.86,0,0,1,3.32,1.66c-1.4,2.78-5.73,12.48-3.09,20.63a15.78,15.78,0,0,0,5.67,7.94,2.06,2.06,0,0,0,.64.14,1.81,1.81,0,0,0,1-.34,1.85,1.85,0,1,1,2,3.11A5.61,5.61,0,0,1,42.9,97.69Z"/><path class="cls-1" d="M80.39,99.58a3,3,0,0,1-2.08-.75c-2-1.81-.51-4.48,2-8.89,2.95-5.25,7.41-13.17,8.3-23a35.4,35.4,0,0,0-.47-9.79,1.86,1.86,0,1,1,3.65-.69,39.67,39.67,0,0,1,.52,10.81c-1,10.63-5.66,19-8.77,24.5-.72,1.28-1.56,2.77-2,3.81a14.25,14.25,0,0,0,2.32-1.25A10.47,10.47,0,0,0,88,88.12a1.86,1.86,0,0,1,3.6.91,14.16,14.16,0,0,1-5.75,8.39C84.19,98.51,82.12,99.58,80.39,99.58Z"/><path class="cls-1" d="M86.6,99.48a7,7,0,0,1-3.13-.75,1.85,1.85,0,1,1,1.65-3.32,3.34,3.34,0,0,0,1.87.34A4.36,4.36,0,0,0,88.62,95a9.76,9.76,0,0,0,2.61-2.88,13.64,13.64,0,0,0,1-1.86,1.86,1.86,0,0,1,3.36,1.59,18.55,18.55,0,0,1-1.32,2.33A13.45,13.45,0,0,1,90.74,98a7.57,7.57,0,0,1-3.23,1.38A7,7,0,0,1,86.6,99.48Z"/><path class="cls-1" d="M92.48,98.39a5.51,5.51,0,0,1-3-1,1.85,1.85,0,1,1,2-3.1,1.64,1.64,0,0,0,1.69.19,15.68,15.68,0,0,0,5.66-7.94c2.65-8.14-1.69-17.84-3.08-20.62a1.85,1.85,0,1,1,3.31-1.66c2,4,6.3,14.2,3.3,23.43-1.81,5.58-6,9.46-7.72,10.2a5.8,5.8,0,0,1-2,.45Z"/><path class="cls-1" d="M35.72,33.35s-.25-5.45,6.79-5.78c0,0,5.62-.74,7.93,3.51a5.76,5.76,0,0,1,.42,2.47s-4.16,4.57-7.61-.28C43.25,33.27,38.88,38.53,35.72,33.35Z"/><path class="cls-2" d="M41.39,28.38a3.21,3.21,0,0,1,3.83,0,.57.57,0,0,1,.2.67,3.67,3.67,0,0,1-.83,1.38,2.16,2.16,0,0,1-2.26.17,2.8,2.8,0,0,1-1.15-1.52A.58.58,0,0,1,41.39,28.38Z"/><path class="cls-1" d="M43.49,34.35a.31.31,0,0,0-.21-.14.27.27,0,0,0-.24.1c-1.52,1.73-3,2.51-4.28,2.31-1.94-.29-3-2.61-3-2.64a.3.3,0,0,0-.38-.14.29.29,0,0,0-.13.39c0,.11,1.22,2.63,3.46,3a2.74,2.74,0,0,0,.5,0c1.3,0,2.66-.76,4-2.27A4.93,4.93,0,0,0,46.45,37c1.57.19,3.22-.59,4.89-2.34a.3.3,0,0,0,0-.41.28.28,0,0,0-.4,0S47,38.82,43.49,34.35Z"/><path class="cls-1" d="M31.4,31.1l-.12,0-4.76-2.25a.3.3,0,0,1-.14-.38.29.29,0,0,1,.38-.15l4.76,2.25a.3.3,0,0,1,.14.38A.28.28,0,0,1,31.4,31.1Z"/><path class="cls-1" d="M26.64,36.27a.29.29,0,0,1-.26-.18.3.3,0,0,1,.15-.38l4.76-2.07a.28.28,0,0,1,.37.16.29.29,0,0,1-.15.38l-4.76,2.07Z"/><path class="cls-1" d="M60.8,31.44H55.61a.29.29,0,0,1,0-.58H60.8a.29.29,0,0,1,0,.58Z"/><path class="cls-1" d="M58.39,38.19a.27.27,0,0,1-.19-.08L54.55,34.5a.3.3,0,0,1,0-.41.28.28,0,0,1,.4,0l3.64,3.6a.3.3,0,0,1,0,.41A.29.29,0,0,1,58.39,38.19Z"/><path class="cls-1" d="M43.37,15C28.78,15,27.92,1.71,27.91,1.58a1.5,1.5,0,1,1,3-.16c0,.43.76,10.54,12.46,10.54S55.8,1.85,55.82,1.42a1.5,1.5,0,1,1,3,.16C58.81,1.71,58,15,43.37,15Z"/><path class="cls-1" d="M13.66,38.88a1.53,1.53,0,0,1-1.1-.47L.4,25.38a1.49,1.49,0,0,1-.07-2l12-14.89A1.52,1.52,0,0,1,14.4,8.3a1.5,1.5,0,0,1,.23,2.11L3.48,24.29,13.86,35.4,20,31a1.5,1.5,0,1,1,1.75,2.43L14.53,38.6A1.48,1.48,0,0,1,13.66,38.88Z"/><path class="cls-1" d="M73.07,38.88a1.48,1.48,0,0,1-.87-.28l-7.26-5.21A1.5,1.5,0,1,1,66.69,31l6.19,4.44L83.25,24.29,72.1,10.41a1.5,1.5,0,0,1,.23-2.11,1.51,1.51,0,0,1,2.11.23l12,14.89a1.49,1.49,0,0,1-.07,2l-12.16,13A1.5,1.5,0,0,1,73.07,38.88Z"/><path class="cls-1" d="M65.59,67.35H21.14a1.5,1.5,0,0,1-1.5-1.48c-.09-10.11-.2-24-.2-32.47a41,41,0,0,0-7.16-23,1.5,1.5,0,0,1,.21-2.06C19.27,2.6,28.64.15,29,.05a1.5,1.5,0,0,1,.37,0H57.32a1.5,1.5,0,0,1,.37.05c.4.1,9.77,2.55,16.55,8.28a1.49,1.49,0,0,1,.21,2.06,41,41,0,0,0-7.16,23c0,8.47-.11,22.32-.2,32.46A1.5,1.5,0,0,1,65.59,67.35Zm-43-3H64.1c.09-10,.19-22.9.19-30.95A44.17,44.17,0,0,1,71.23,9.76,46.27,46.27,0,0,0,57.12,3H29.61A46.27,46.27,0,0,0,15.5,9.76,44.08,44.08,0,0,1,22.44,33.4C22.44,41.5,22.54,54.42,22.63,64.35Z"/></g></g></svg>