<svg xmlns="http://www.w3.org/2000/svg" viewBox="0 0 79.79 79.79"><defs><style>.cls-1{fill:black;}.cls-2{fill:#fff;}</style></defs><title>Asset 8</title><g id="Layer_2" data-name="Layer 2"><g id="Layer_1-2" data-name="Layer 1"><path class="cls-1" d="M65.29,14.5c.27.27.54.56.87.91a2,2,0,0,0,1.46.64A2,2,0,0,0,69,15.51a2,2,0,0,0,.1-2.82c-.36-.39-.67-.71-1-1s-.62-.6-1-1a2,2,0,1,0-2.72,2.92C64.74,14,65,14.24,65.29,14.5Z"/><path class="cls-1" d="M73.42,18.25a2,2,0,1,0-3.35,2.17,35.86,35.86,0,0,1-4.78,44.87A35.91,35.91,0,0,1,14.51,14.5,35.94,35.94,0,0,1,59.38,9.72a2,2,0,1,0,2.16-3.35A39.91,39.91,0,1,0,73.42,18.25Z"/><path class="cls-1" d="M30.31,45.62s-.72-7.55,9-8.5c0,0,7.76-1.41,11.26,4.33a7.88,7.88,0,0,1,.76,3.39s-5.46,6.65-10.59.15C40.76,45,35.07,52.6,30.31,45.62Z"/><path class="cls-1" d="M20.91,44.08c.09,1.77-2.73,3.34-6.3,3.52S8.08,46.49,8,44.73s2.73-3.34,6.3-3.52S20.82,42.32,20.91,44.08Z"/><path class="cls-1" d="M73.68,46.56c-.24,1.75-3.3,2.75-6.84,2.22s-6.21-2.36-6-4.11,3.3-2.75,6.84-2.22S73.92,44.81,73.68,46.56Z"/><path class="cls-2" d="M37.84,38.32A4.47,4.47,0,0,1,43.16,38a.8.8,0,0,1,.32.92,5.21,5.21,0,0,1-1,2,3,3,0,0,1-3.13.39,3.86,3.86,0,0,1-1.7-2A.82.82,0,0,1,37.84,38.32Z"/><path class="cls-1" d="M29.42,30.78A4.42,4.42,0,1,1,25,26.26,4.48,4.48,0,0,1,29.42,30.78Z"/><path class="cls-1" d="M61.1,31.7a4.41,4.41,0,1,1-4.41-4.52A4.47,4.47,0,0,1,61.1,31.7Z"/><path class="cls-2" d="M28.93,30.78a1.16,1.16,0,1,1-1.16-1.19A1.18,1.18,0,0,1,28.93,30.78Z"/><path class="cls-2" d="M60.61,31.7a1.16,1.16,0,1,1-1.16-1.19A1.17,1.17,0,0,1,60.61,31.7Z"/><path class="cls-1" d="M41,46.49a.45.45,0,0,0-.3-.19.35.35,0,0,0-.33.13c-2.11,2.41-4.12,3.5-6,3.22-2.7-.41-4.21-3.64-4.22-3.67a.39.39,0,0,0-.53-.19.41.41,0,0,0-.19.53c.07.15,1.7,3.65,4.82,4.12a4,4,0,0,0,.69.05c1.81,0,3.7-1.05,5.63-3.15a6.89,6.89,0,0,0,4.49,2.89c2.19.27,4.48-.83,6.8-3.25a.42.42,0,0,0,0-.57.39.39,0,0,0-.56,0S46,52.7,41,46.49Z"/><path class="cls-1" d="M24.22,42a.45.45,0,0,1-.16,0l-6.62-3.13a.4.4,0,0,1-.19-.53.39.39,0,0,1,.52-.2l6.62,3.12a.42.42,0,0,1,.19.54A.39.39,0,0,1,24.22,42Z"/><path class="cls-1" d="M17.6,49.16a.39.39,0,0,1-.36-.25.42.42,0,0,1,.21-.53l6.62-2.87a.38.38,0,0,1,.51.21.4.4,0,0,1-.2.53l-6.62,2.88A.41.41,0,0,1,17.6,49.16Z"/><path class="cls-1" d="M16.34,44.14a.38.38,0,0,1-.23-.37.41.41,0,0,1,.4-.4l7.22.07a.38.38,0,0,1,.38.4.4.4,0,0,1-.4.4l-7.22-.06A.42.42,0,0,1,16.34,44.14Z"/><path class="cls-1" d="M65.1,42.45H57.88a.41.41,0,0,1,0-.81H65.1a.41.41,0,0,1,0,.81Z"/><path class="cls-1" d="M61.75,51.83a.43.43,0,0,1-.27-.11l-5.07-5a.42.42,0,0,1,0-.57.4.4,0,0,1,.56,0l5.07,5a.42.42,0,0,1,0,.57A.4.4,0,0,1,61.75,51.83Z"/><path class="cls-1" d="M65.23,45.62a.34.34,0,0,1-.28.09l-7.1-.61a.41.41,0,0,1-.37-.43.39.39,0,0,1,.42-.37l7.1.62a.4.4,0,0,1,.37.43A.35.35,0,0,1,65.23,45.62Z"/></g></g></svg>