<svg xmlns="http://www.w3.org/2000/svg" viewBox="0 0 99.74 48.71"><defs><style>.cls-1{fill:black;}.cls-2{fill:#fff;}</style></defs><title>Asset 12</title><g id="Layer_2" data-name="Layer 2"><g id="Layer_1-2" data-name="Layer 1"><path id="Path" class="cls-1" d="M99.59,3.89a1.34,1.34,0,0,0-1-1.08A90,90,0,0,0,85.75.51,91.2,91.2,0,0,0,75.2,0,33.24,33.24,0,0,0,63.59,1.75L58.92,3.89c-1.67,1-2.61,1.75-4.34,2-.65.08-1.66.11-2.24.13-1,0-1.87,0-2.47,0s-1.44,0-2.46,0c-.59,0-1.6-.05-2.25-.13-1.72-.21-2.67-1-4.34-2L36.15,1.75A33.24,33.24,0,0,0,24.54,0,91.2,91.2,0,0,0,1.19,2.81a1.34,1.34,0,0,0-1,1.08A10.94,10.94,0,0,0,0,5.7,11.91,11.91,0,0,0,.19,7.82a1.32,1.32,0,0,0,.62.88q.25.17.54.39c.83.7,1.29,1.61,1.74,3.48a23.46,23.46,0,0,1,.59,4c0,.22,0,.43,0,.65v.15C4.5,27,13.54,33.53,24.54,33.53c7.88,0,19.77-6.5,20.8-16.19.11-1,.23-1.91.34-2.57a6.58,6.58,0,0,1,.65-2.42A3.29,3.29,0,0,1,47.62,11a4.17,4.17,0,0,1,4.5,0,3.39,3.39,0,0,1,1.3,1.39,6.65,6.65,0,0,1,.64,2.42c.11.66.23,1.53.34,2.57,1,9.69,12.92,16.19,20.8,16.19,11,0,20-6.51,20.81-16.19l0-.15,0-.65a23.46,23.46,0,0,1,.59-4c.45-1.87.92-2.78,1.74-3.48q.28-.23.54-.39a1.32,1.32,0,0,0,.62-.88,11,11,0,0,0,.19-2.12A10.94,10.94,0,0,0,99.59,3.89ZM24.28,30.39C14.7,30.39,6.94,24.57,6.94,16c0-12.14,7.76-12.9,17.34-12.9,12.46,0,17.34,4.38,17.34,12.9S30.78,30.39,24.28,30.39Zm51.19,0C69,30.39,58.13,24.57,58.13,16S63,3.14,75.47,3.14C85,3.14,92.8,3.9,92.8,16,92.8,24.57,85,30.39,75.47,30.39Z"/><path class="cls-1" d="M33.87,40.38S33.35,28.71,48.42,28c0,0,12-1.58,17,7.52,0,0,1.28,3.13.91,5.29,0,0-8.92,9.81-16.32-.59C50,40.22,40.66,51.49,33.87,40.38Z"/><path class="cls-2" d="M46,29.73a6.89,6.89,0,0,1,8.21,0,1.25,1.25,0,0,1,.43,1.44,8.16,8.16,0,0,1-1.78,2.95c-1.15,1.11-3.5,1.08-4.85.36a6,6,0,0,1-2.46-3.24A1.25,1.25,0,0,1,46,29.73Z"/><path class="cls-1" d="M50.53,42.54a.68.68,0,0,0-.46-.3.55.55,0,0,0-.51.2c-3.25,3.72-6.34,5.39-9.18,5-4.15-.62-6.48-5.6-6.51-5.65a.59.59,0,0,0-.8-.3.62.62,0,0,0-.29.82c.1.23,2.62,5.63,7.42,6.36a7.56,7.56,0,0,0,1.06.08c2.79,0,5.7-1.63,8.69-4.86a10.54,10.54,0,0,0,6.91,4.44c3.38.42,6.91-1.27,10.48-5a.64.64,0,0,0,0-.88.6.6,0,0,0-.86,0S58.12,52.1,50.53,42.54Z"/></g></g></svg>