<svg xmlns="http://www.w3.org/2000/svg" xmlns:xlink="http://www.w3.org/1999/xlink" viewBox="0 0 493.73 745"><defs><style>.cls-1{isolation:isolate;}.cls-2{fill:#ffe8d5;}.cls-3,.cls-5,.cls-8{fill:#f2b9aa;}.cls-16,.cls-3,.cls-5,.cls-6,.cls-7{opacity:0.5;}.cls-4{fill:#8c8c8c;opacity:0.09;}.cls-10,.cls-11,.cls-12,.cls-16,.cls-4,.cls-5,.cls-6,.cls-7,.cls-9{mix-blend-mode:multiply;}.cls-6{fill:#f5e6c4;}.cls-10,.cls-11,.cls-12,.cls-24,.cls-9{opacity:0.2;}.cls-9{fill:url(#radial-gradient);}.cls-10{fill:url(#radial-gradient-2);}.cls-11{fill:url(#radial-gradient-3);}.cls-12{fill:url(#radial-gradient-4);}.cls-13,.cls-25{fill:#fff;}.cls-14{fill:#bd2e2e;}.cls-15{fill:#f4f4f4;}.cls-16{fill:#bababa;}.cls-17{fill:#bd3533;}.cls-18{fill:#dd4a4a;}.cls-19{fill:#b31a16;}.cls-20{fill:#6d482f;}.cls-21{fill:#866a54;}.cls-22{fill:#755d49;}.cls-23{fill:#b5292a;}.cls-23,.cls-24,.cls-25{fill-rule:evenodd;}.cls-24{fill:#181714;}</style><radialGradient id="radial-gradient" cx="-83.95" cy="-852.5" r="9.64" gradientTransform="translate(284.75 2182.85) scale(1.43 1.97)" gradientUnits="userSpaceOnUse"><stop offset="0" stop-color="#ffc6bd"/><stop offset="0.12" stop-color="#ffc7be" stop-opacity="0.98"/><stop offset="0.25" stop-color="#ffcac1" stop-opacity="0.94"/><stop offset="0.38" stop-color="#ffcec6" stop-opacity="0.86"/><stop offset="0.5" stop-color="#ffd4ce" stop-opacity="0.75"/><stop offset="0.63" stop-color="#ffddd7" stop-opacity="0.6"/><stop offset="0.76" stop-color="#ffe7e3" stop-opacity="0.43"/><stop offset="0.88" stop-color="#fff2f0" stop-opacity="0.23"/><stop offset="1" stop-color="#fff" stop-opacity="0"/></radialGradient><radialGradient id="radial-gradient-2" cx="35.86" cy="-854.17" r="9.64" xlink:href="#radial-gradient"/><radialGradient id="radial-gradient-3" cx="-48.59" cy="-789.31" r="9.64" xlink:href="#radial-gradient"/><radialGradient id="radial-gradient-4" cx="2.66" cy="-789.31" r="9.64" xlink:href="#radial-gradient"/></defs><g class="cls-1"><g id="Layer_2" data-name="Layer 2"><g id="Layer_1-2" data-name="Layer 1"><path class="cls-2" d="M123.42,252.74a74.13,74.13,0,0,0-4.45,6.75,146.3,146.3,0,0,1-3-18.06A26.17,26.17,0,0,1,123.42,252.74Z"/><path class="cls-2" d="M363.06,241.24a1,1,0,0,1,0,.25.6.6,0,0,1-.08-.08A1.3,1.3,0,0,1,363.06,241.24Z"/><path class="cls-2" d="M363.06,241.24a1,1,0,0,1,0,.25.6.6,0,0,1-.08-.08A1.3,1.3,0,0,1,363.06,241.24Z"/><path class="cls-2" d="M424.14,270.79c-3.78,23.44-21.49,39-39.54,34.68l-.45-.12a62.93,62.93,0,0,0,1.6-14.11c0-.95,0-1.89-.07-2.83a65.89,65.89,0,0,0-13.12-36.26l-.44-.57a149.72,149.72,0,0,0,2.18-25c6.95-5.62,15.44-8,24-6C416.36,224.87,427.93,247.35,424.14,270.79Z"/><path class="cls-3" d="M411.93,267.89c-2.3,14.25-13.36,23.66-24.66,21-.54-.13-1.07-.28-1.59-.46a65.89,65.89,0,0,0-13.12-36.26c4-10.77,13.45-17.25,23.06-15C406.92,239.86,414.23,253.63,411.93,267.89Z"/><path class="cls-2" d="M110.13,288.39c-.07,1.23-.11,2.47-.11,3.72a62.91,62.91,0,0,0,1.41,13.29l-.25.06c-18.06,4.29-35.77-11.24-39.55-34.68s7.78-45.91,25.84-50.19a26.36,26.36,0,0,1,17.76,2c0,1.16,0,2.32,0,3.49a148.94,148.94,0,0,0,.78,15.32,26.17,26.17,0,0,1,7.45,11.31,74.13,74.13,0,0,0-4.45,6.75A64.93,64.93,0,0,0,110.13,288.39Z"/><path class="cls-3" d="M123.42,252.74a74.13,74.13,0,0,0-4.45,6.75,64.93,64.93,0,0,0-8.84,28.9,15.24,15.24,0,0,1-1.63.48c-11.3,2.68-22.35-6.73-24.66-21s5-28,16.31-30.71A17.67,17.67,0,0,1,116,241.43,26.17,26.17,0,0,1,123.42,252.74Z"/><path class="cls-2" d="M363.06,241.24a1,1,0,0,1,0,.25.6.6,0,0,1-.08-.08A1.3,1.3,0,0,1,363.06,241.24Z"/><path class="cls-2" d="M385.68,288.41a65.89,65.89,0,0,0-13.12-36.26l-.44-.57a149.72,149.72,0,0,0,2.18-25v-.49a144.39,144.39,0,0,0-26.79-84.44C328.33,115,300.25,96,268,89.69a122.2,122.2,0,0,0-46.58,0,126,126,0,0,0-63.64,33.6c-25.43,24.65-41.67,60-42.58,99.33,0,1.16,0,2.32,0,3.49a148.94,148.94,0,0,0,.78,15.32,26.17,26.17,0,0,1,7.45,11.31,74.13,74.13,0,0,0-4.45,6.75,64.93,64.93,0,0,0-8.84,28.9c-.07,1.23-.11,2.47-.11,3.72a62.91,62.91,0,0,0,1.41,13.29c7.55,35.09,44.44,61.73,88.82,61.73,1.48,0,3,0,4.42-.09h0l.47.11a160.86,160.86,0,0,0,22.59,3.46c7.12.62,14.6.91,22.45.91,7.18,0,14-.23,20.54-.73A152.31,152.31,0,0,0,299,366.25l.18-.06h0c42.39-1.4,77.26-27.12,85-60.84a62.93,62.93,0,0,0,1.6-14.11C385.75,290.29,385.73,289.35,385.68,288.41Zm-22.62-46.92a.6.6,0,0,1-.08-.08,1.3,1.3,0,0,1,.08-.17A1,1,0,0,1,363.06,241.49Z"/><ellipse class="cls-4" cx="247.89" cy="713.33" rx="222.4" ry="31.67"/><rect class="cls-2" x="213.88" y="392.08" width="73.85" height="156.61"/><polygon class="cls-2" points="281.34 415.34 319.22 499.94 326.92 496.5 351.05 485.72 305.44 401.79 289.94 410.51 281.34 415.34"/><path class="cls-2" d="M308.71,413.05a21,21,0,0,1-10,17.87,20.53,20.53,0,0,1-6,2.5,19.6,19.6,0,0,1-3.08.51c-.63.06-1.26.09-1.91.09a21,21,0,0,1-.85-41.92l.84,0h0a20.1,20.1,0,0,1,2.47.15,20.91,20.91,0,0,1,15.21,9.56.21.21,0,0,1,.06.08,20.3,20.3,0,0,1,1.31,2.43A20.66,20.66,0,0,1,308.71,413.05Z"/><polygon class="cls-5" points="281.34 415.34 319.22 499.94 326.92 496.5 289.94 410.51 281.34 415.34"/><path class="cls-2" d="M372.9,509.58c-6.25-3.92-12.52-7.59-18.43-11.94,6.14-1,25.2-4.87,20.62-11.95-2.44-3.77-8.63-1.82-12.33-1.35-3.94.5-7.9.88-11.86,1.11h0q-3.13.19-6.24.27a16.77,16.77,0,0,0-5.14-1,25.2,25.2,0,0,0-15.6,4.8h0c-.54.41-1.06.84-1.54,1.28a10.39,10.39,0,0,0-1.06,1.15h0l-.21.29-.2.3-.07.1a5.84,5.84,0,0,0-.33.53c-.12.21-.23.43-.33.65a10.84,10.84,0,0,0-.6,1.59c0,.09-.05.17-.07.26s-.05.19-.07.29a5.41,5.41,0,0,0-.12.58c-.05.23-.08.46-.12.7l-.06.61,0,.25a1.09,1.09,0,0,0,0,.18,1,1,0,0,0,0,.17,2.88,2.88,0,0,0,0,.41,4.56,4.56,0,0,0,0,.64v0c0,.34,0,.68.05,1a.22.22,0,0,0,0,.08c0,.36.06.73.1,1.1a.08.08,0,0,0,0,0,.06.06,0,0,1,0,0c0,.3.07.61.12.92a4.89,4.89,0,0,0,.09.53.4.4,0,0,0,0,.15,2,2,0,0,0,0,.24,27.8,27.8,0,0,0,.66,2.77l.21.72c.08.27.16.53.25.8l.15.45c.05.15.1.3.16.45l.3.86.42,1.09c.15.4.31.79.48,1.18s.32.78.5,1.16.23.51.34.76c.6,1.3,1.19,2.5,1.73,3.54h0a.52.52,0,0,0,.33.26c-.11.71-.21,1.42-.31,2.13,0,.21-.06.42-.08.62-.05.4-.11.81-.16,1.21,0,.12,0,.24,0,.36-.06.51-.12,1-.17,1.51s-.09,1-.13,1.42c0,.13,0,.25,0,.36,0,.55-.07,1.12-.1,1.67,0,.19,0,.39,0,.58,0,.93,0,1.85,0,2.77,0,.31,0,.61.05.91s.06.84.11,1.25.08.68.13,1l0,.23c.07.46.15,1,.25,1.56.07.38.15.77.25,1.17a3.74,3.74,0,0,0,.12.45c0,.13.07.26.11.39a.84.84,0,0,0,0,.17c0,.11.07.22.11.32s.1.29.16.43.08.19.11.28a5.52,5.52,0,0,0,.26.55c0,.09.11.17.15.26l.08.13a.75.75,0,0,0,.07.12c.11.16.22.32.34.47a3.88,3.88,0,0,0,.39.42,2.09,2.09,0,0,0,.28.24l.25.18a3.36,3.36,0,0,0,1.22.53,4.69,4.69,0,0,0,.94.11,2.69,2.69,0,0,0,.4,0h0l.24,0,.28-.08h.06a1.62,1.62,0,0,0,.42-.2l.24-.16.16-.12a2.44,2.44,0,0,0,.29-.27,1.59,1.59,0,0,0,.2-.24,1.83,1.83,0,0,1,.13-.16,4.15,4.15,0,0,0,.32-.53,3,3,0,0,0,.18-.36c.06-.12.11-.24.16-.37s0,0,0,0c.07-.19.14-.38.2-.57v0c.18-.53.33-1.07.47-1.59a82.9,82.9,0,0,0,2.63-14.84c.23,1.11.46,2.22.71,3.34h0c.1.46.21.91.32,1.37s.22.92.34,1.37.2.8.31,1.2.14.54.22.8.15.53.23.79.23.78.35,1.17l.22.7c.07.24.15.47.23.7s.25.76.39,1.14.32.9.49,1.34a0,0,0,0,0,0,0c.17.44.34.88.52,1.31,0,.09.07.18.11.27.13.32.26.64.4.95a2.8,2.8,0,0,0,.15.3c0,.09.09.18.14.27s.15.3.23.44l.21.36a2.64,2.64,0,0,0,.23.35c.13.19.26.36.39.53l0,0,0,0a6.64,6.64,0,0,0,.51.55h0a4.31,4.31,0,0,0,1,.73l.19.1a3.91,3.91,0,0,0,1.37.42h.06l.22,0a1.69,1.69,0,0,0,.39,0h.21l.22,0,.46-.08.25-.05.2-.06.18-.06.1,0a2.52,2.52,0,0,0,.33-.13L348,542h0a1,1,0,0,0,.23-.12l.06,0a2.61,2.61,0,0,0,.28-.17l.08,0,.29-.23.1-.09a1.94,1.94,0,0,0,.2-.21l.2-.25.17-.25,0,0,0,0a.93.93,0,0,0,.05-.1l.12-.22a.06.06,0,0,1,0-.05l.09-.23c0-.12.07-.25.11-.37s.08-.29.11-.45a13.79,13.79,0,0,0-.17-4.23,129.46,129.46,0,0,0-3.24-15.34c1.08,1.61,2.15,3.22,3.18,4.85v0q1.29,2,2.53,4.11c.22.36.43.73.64,1.11s.41.77.62,1.16l.62,1.18c.21.4.41.79.63,1.18l.48.88c.08.14.16.28.25.42l.26.42.21.32c.08.13.16.26.25.38s.27.39.42.58.37.49.57.73a7,7,0,0,0,.6.62l.42.37.46.36c.11.09.23.17.35.25l.15.09.32.2a3.62,3.62,0,0,0,.43.24l.4.2a3.05,3.05,0,0,0,.46.2l.18.06.42.14.38.1a3.4,3.4,0,0,0,.46.09l.43.06.45,0,.38,0,.39-.05a4.28,4.28,0,0,0,1.09-.33l.26-.13.33-.2h0l.38-.29a2.35,2.35,0,0,0,.33-.3,2,2,0,0,0,.2-.21s0,0,0,0v0l.13-.17a.92.92,0,0,0,.13-.19,1.57,1.57,0,0,0,.14-.25,2.14,2.14,0,0,0,.1-.22,1.17,1.17,0,0,0,.09-.24,2.24,2.24,0,0,0,.1-.37,2.2,2.2,0,0,0,.06-.37h0c.22-2.1-1.23-4.53-2.1-6.27a177.84,177.84,0,0,0-9.06-16.67c1.06.67,2.61,1.64,4.46,2.71h0c.86.49,1.77,1,2.73,1.54h0l1,.51a1.55,1.55,0,0,0,.22.12c.4.22.79.43,1.2.63l.6.3.38.19c.28.15.57.29.85.42l.62.29c.62.29,1.23.57,1.85.84s.94.4,1.41.59l.8.31.78.29,0,0,.73.25.44.14.44.13.44.12c.09,0,.17,0,.25.08l.55.13c.38.09.75.16,1.11.23l.22,0,.22,0,.2,0,.31,0,.24,0h.8l.37,0,.32,0h.13a3.26,3.26,0,0,0,.47-.09h.06l.05,0,.34-.1a3.52,3.52,0,0,0,.39-.16,2.87,2.87,0,0,0,.65-.41,3.45,3.45,0,0,0,.28-.26,1.94,1.94,0,0,0,.32-.42l.07-.11a0,0,0,0,0,0,0c.07-.14.14-.28.2-.43a3.37,3.37,0,0,0,.15-.48,2.21,2.21,0,0,0,.05-.25,2,2,0,0,0,0-.26h0a3.88,3.88,0,0,0,.06-.7C383.3,515,376.42,511.79,372.9,509.58Z"/><path class="cls-5" d="M349.76,501.13c-6.45,1.33-14.71,0-20-4.1-.64-.5,0-1.74.79-1.44,2.91,1.12,5.6,2.58,8.66,3.3a46.45,46.45,0,0,0,10.33.9C350.27,499.8,350.55,501,349.76,501.13Z"/><path class="cls-5" d="M349.62,505c-4.18,5.08-11.44,9.24-18.13,9.36-.82,0-1.09-1.36-.3-1.62,3-1,6-1.5,8.82-2.86a46.9,46.9,0,0,0,8.6-5.78C349.19,503.61,350.14,504.35,349.62,505Z"/><path class="cls-5" d="M357.78,511.08c1.08,1.69,2.1,3.42,3.08,5.17,8,4.66,21.36,11.28,22.3,4.22C378.31,523.63,362.73,514.2,357.78,511.08Z"/><path class="cls-5" d="M348.21,517.08q1,3.64,1.79,7.33,1.29,2,2.53,4.11c1.61,2.69,2.89,6,5,8.36,1.77,2.06,5.53,4.14,8.36,2.27a3.53,3.53,0,0,0,1.71-2.67,3.55,3.55,0,0,1-.31.23c-2.83,1.86-6.59-.22-8.36-2.28-2.06-2.4-3.35-5.67-4.95-8.36C352.11,523,350.19,520,348.21,517.08Z"/><path class="cls-5" d="M336.58,525.26a70,70,0,0,0,4.15,13.14c1.11,2.49,3,4.83,6.26,4a3.93,3.93,0,0,0,3.22-3.3,4.81,4.81,0,0,1-1.82.85c-3.25.84-5.16-1.49-6.26-4a77.24,77.24,0,0,1-4.86-16.49C337.12,521.4,336.88,523.33,336.58,525.26Z"/><path class="cls-5" d="M325,517.7c-.8,5.32-1.49,10.76-.69,16,.38,2.47,1,7,4.2,7.67,2.58.57,3.63-1.17,4.28-3.08a3,3,0,0,1-2.89.63c-3.2-.7-3.82-5.19-4.19-7.67-.8-5.28-.11-10.71.68-16a.52.52,0,0,1-.32-.27c-2.93-5.65-7.6-16-4.77-23-5.4,6.91.09,19.14,3.37,25.49A.52.52,0,0,0,325,517.7Z"/><polygon class="cls-2" points="220.95 415.31 183.07 499.91 175.37 496.47 151.24 485.69 196.85 401.76 212.35 410.48 220.95 415.31"/><path class="cls-2" d="M235.51,413a21,21,0,0,1-21,21c-.65,0-1.28,0-1.91-.09a19.85,19.85,0,0,1-3.72-.68,21,21,0,0,1-13.42-29,20.3,20.3,0,0,1,1.31-2.43.21.21,0,0,1,.06-.08,20.91,20.91,0,0,1,14.36-9.45,21.35,21.35,0,0,1,3.32-.26l1.08,0A21,21,0,0,1,235.51,413Z"/><polygon class="cls-5" points="220.95 415.31 183.07 499.91 175.37 496.47 212.35 410.48 220.95 415.31"/><path class="cls-2" d="M183.24,498.84a8.43,8.43,0,0,0-.06-1c0-.2,0-.4-.07-.6a10.8,10.8,0,0,0-.21-1.16c0-.11-.05-.23-.08-.34s-.09-.32-.14-.48a8.07,8.07,0,0,0-.55-1.44c-.1-.22-.21-.44-.33-.65h0c-.12-.21-.25-.41-.39-.62s-.28-.39-.42-.59v0a10.39,10.39,0,0,0-1.06-1.15,19.72,19.72,0,0,0-1.54-1.28h0a25.18,25.18,0,0,0-15.6-4.8,16.64,16.64,0,0,0-5.13,1c-2.08-.05-4.17-.14-6.25-.27h0c-4-.23-7.92-.61-11.86-1.11-3.7-.47-9.88-2.42-12.32,1.35-4.59,7.08,14.47,11,20.61,11.95-5.9,4.35-12.17,8-18.42,11.94-3.52,2.21-10.41,5.4-10.32,10.18a3.88,3.88,0,0,0,.06.7,2.6,2.6,0,0,0,.1.5,2.13,2.13,0,0,0,.07.27,1.72,1.72,0,0,0,.07.21.77.77,0,0,0,.07.16,2.75,2.75,0,0,0,.88,1.15l.21.15a1.38,1.38,0,0,0,.29.17,2,2,0,0,0,.36.16,4.39,4.39,0,0,0,.58.18l.11,0,.12,0,.23,0a7.67,7.67,0,0,0,1.86,0,2.78,2.78,0,0,0,.39,0h.11l.23,0,.27,0c.35-.06.7-.14,1.06-.22l.55-.13.56-.16.57-.17.44-.14.44-.15c.29-.1.58-.2.88-.32,1.2-.45,2.44-1,3.67-1.54l.62-.28.62-.3c.28-.13.57-.27.85-.42l.38-.19.6-.3.6-.31a3.07,3.07,0,0,1,.31-.17l.29-.15a1.55,1.55,0,0,0,.22-.12l.37-.2,1.15-.63q.86-.47,1.65-.93c.18-.09.35-.19.52-.29,1.84-1.08,3.41-2.05,4.48-2.72a177.93,177.93,0,0,0-9.07,16.67c-.87,1.74-2.32,4.17-2.1,6.27a3.47,3.47,0,0,0,.28,1,.8.8,0,0,0,.08.16,1.27,1.27,0,0,0,.12.23.25.25,0,0,0,0,.07,1.36,1.36,0,0,0,.12.17,3.23,3.23,0,0,0,.35.4,4,4,0,0,0,.72.6,4.51,4.51,0,0,0,3.33.65,6.34,6.34,0,0,0,.84-.19l.42-.13.38-.15.14-.06.29-.14.51-.27.34-.21.15-.09a.57.57,0,0,0,.13-.08c.12-.08.24-.16.35-.25a11,11,0,0,0,.88-.73l.07-.06c.1-.09.19-.19.28-.28l.25-.29c.2-.24.4-.48.58-.73s.45-.62.66-1l.21-.32.35-.58c.12-.2.24-.4.35-.6,1-1.73,1.83-3.56,2.8-5.18q1.25-2.07,2.53-4.11c1-1.64,2.11-3.26,3.19-4.88a129.46,129.46,0,0,0-3.24,15.34,13.71,13.71,0,0,0-.16,4.22,4.9,4.9,0,0,0,.13.55,4.6,4.6,0,0,0,.19.52s0,0,0,0a.75.75,0,0,0,.07.12,3.5,3.5,0,0,0,.36.58l.24.28a3.45,3.45,0,0,0,.28.26l.07.06.08,0,.16.13a2.61,2.61,0,0,0,.28.17l.06,0a1,1,0,0,0,.23.12l.33.14.21.09.14,0,.19.06.19.06.25,0,.19,0,.23,0,.32,0,.31,0,.45,0h.06a2.28,2.28,0,0,0,.39-.06l.29-.08h0l.07,0a2.26,2.26,0,0,0,.39-.15l.18-.09h0a2,2,0,0,0,.25-.14l.14-.08a2.6,2.6,0,0,0,.36-.25l0,0,.19-.16.07-.06.06-.06q.18-.16.36-.36a5.75,5.75,0,0,0,.54-.66c.16-.24.32-.48.47-.74s.28-.52.41-.78a2.87,2.87,0,0,0,.2-.39c.14-.31.28-.63.4-1,0-.09.08-.18.11-.27.23-.55.44-1.1.65-1.66.1-.25.19-.5.28-.76s.17-.48.25-.72c.17-.48.33-1,.48-1.45s.27-.85.4-1.27l.24-.83c.13-.44.25-.88.37-1.33l.3-1.15q.34-1.38.66-2.76c.25-1.12.49-2.23.71-3.34a82.9,82.9,0,0,0,2.63,14.84c.14.52.29,1.06.47,1.59v0c.08.25.17.48.26.71l.15.34a5.75,5.75,0,0,0,.36.65,4.75,4.75,0,0,0,.57.69,3.11,3.11,0,0,0,.28.23,4,4,0,0,0,.44.27l.21.09.07,0,.12,0H172l.34.07.12,0,.3,0H173a4,4,0,0,0,.74-.1,2.7,2.7,0,0,0,.57-.18,4,4,0,0,0,1.18-.77l.29-.31a4,4,0,0,0,.27-.34l.17-.24.08-.13c.08-.12.15-.25.22-.38s.17-.35.25-.53a.61.61,0,0,0,0-.12c.08-.18.15-.37.21-.55s.09-.25.13-.38a1,1,0,0,0,.05-.16l.12-.43c0-.14.08-.28.11-.42.1-.4.18-.79.25-1.17.1-.57.18-1.11.25-1.57a41.3,41.3,0,0,0,0-10.54c-.1-.92-.21-1.83-.33-2.74l-.21-1.48-.18-1.27a.44.44,0,0,0,.25-.17.36.36,0,0,0,.07-.1c.57-1.11,1.21-2.39,1.85-3.79.32-.7.64-1.43.94-2.18l.1-.27q.3-.72.57-1.47c.22-.59.43-1.19.63-1.79.09-.27.17-.52.25-.79l.12-.41h0c.24-.82.45-1.64.62-2.46s.31-1.65.41-2.46c.05-.41.09-.81.11-1.21h0c0-.35,0-.7,0-1.05v0A4.66,4.66,0,0,0,183.24,498.84Z"/><path class="cls-5" d="M152.53,501.1c6.44,1.33,14.71,0,20-4.1.65-.5,0-1.74-.78-1.44-2.91,1.12-5.6,2.58-8.66,3.3a46.45,46.45,0,0,1-10.33.9C152,499.77,151.74,500.93,152.53,501.1Z"/><path class="cls-5" d="M152.67,504.94c4.18,5.08,11.44,9.24,18.13,9.36.82,0,1.09-1.36.3-1.61-3-1-6-1.51-8.82-2.87a46.9,46.9,0,0,1-8.6-5.78C153.1,503.58,152.15,504.32,152.67,504.94Z"/><path class="cls-5" d="M144.51,511.05c-1.08,1.69-2.1,3.42-3.08,5.17-8,4.66-21.36,11.28-22.3,4.22C124,523.6,139.56,514.17,144.51,511.05Z"/><path class="cls-5" d="M154.08,517.05q-1,3.65-1.79,7.33-1.29,2-2.53,4.11c-1.61,2.69-2.89,6-4.95,8.36-1.77,2.06-5.53,4.14-8.36,2.27a3.53,3.53,0,0,1-1.71-2.67,3.55,3.55,0,0,0,.31.23c2.83,1.86,6.59-.22,8.36-2.28,2.06-2.4,3.35-5.67,5-8.36C150.18,523,152.1,520,154.08,517.05Z"/><path class="cls-5" d="M165.71,525.23a70,70,0,0,1-4.15,13.14c-1.11,2.49-3,4.83-6.26,4a3.93,3.93,0,0,1-3.22-3.3,4.81,4.81,0,0,0,1.82.85c3.25.84,5.16-1.49,6.26-4A77.24,77.24,0,0,0,165,519.44C165.17,521.37,165.41,523.3,165.71,525.23Z"/><path class="cls-5" d="M177.28,517.67c.8,5.32,1.49,10.76.69,16-.38,2.47-1,7-4.2,7.67-2.58.57-3.63-1.17-4.28-3.08a3,3,0,0,0,2.89.63c3.2-.7,3.82-5.19,4.19-7.67.8-5.28.11-10.71-.68-16a.52.52,0,0,0,.32-.27c2.93-5.65,7.6-16,4.77-23,5.4,6.91-.09,19.14-3.37,25.49A.52.52,0,0,1,177.28,517.67Z"/><polygon class="cls-2" points="232.26 682.65 232.25 682.65 232.25 682.6 232.26 682.65"/><polygon class="cls-2" points="244.6 526.77 244.59 528.43 244.45 547.88 244.44 548.69 244.3 569.83 244.24 579.54 243.96 622.74 244.07 569.83 244.12 548.69 244.12 547.25 244.16 528.43 244.16 526.77 244.6 526.77"/><polygon class="cls-2" points="232.26 682.65 232.25 682.65 232.25 682.6 232.26 682.65"/><path class="cls-2" d="M246.41,702.31l-2.58-18.48-.17-1.22h-.11v-.92l.4-58.46v-.49l.11-52.91.05-21.14v-1.44l0-18.82v-1.66H197.71c-.1.55-.21,1.1-.32,1.65h0q-1.87,9.71-4,18.61l-.09.37v.47l.62,22,.27,9.71,2.88,102.94V683l-4.92,15.47c-2.13,6.06.26,13.36,4.39,14.56a4.36,4.36,0,0,0,1.09.18l9.22.18h0l11.92.23,11.57.23h.44l9.66.19a4.23,4.23,0,0,0,2.46-.76c.18-.12.36-.27.53-.41C245.76,710.91,247.1,706.66,246.41,702.31Zm-14.15-19.65h0v0Z"/><polygon class="cls-6" points="232.26 682.65 232.25 682.65 232.25 682.6 232.26 682.65"/><polygon class="cls-6" points="243.96 623.23 243.83 683.82 243.66 682.6 243.55 682.6 243.56 682.13 243.96 623.23"/><g class="cls-7"><path class="cls-8" d="M228.31,702.14l-.34.57c-.21.36-.49.89-.82,1.52a21.15,21.15,0,0,0-.94,2.19c-.15.4-.26.82-.38,1.25a7,7,0,0,0-.18,1.3,4.09,4.09,0,0,0,.55,2.46,3.81,3.81,0,0,0,.4.5,2.69,2.69,0,0,0,.46.43,5,5,0,0,0,1.07.66,3.7,3.7,0,0,0,.54.24c.18.06.34.14.51.19.33.09.62.19.87.24.5.11.79.19.79.19l-.83-.08a8.48,8.48,0,0,1-.93-.14,8.21,8.21,0,0,1-1.18-.33,5.1,5.1,0,0,1-1.25-.64,4,4,0,0,1-1.08-1,3.57,3.57,0,0,1-.59-1.32,4.48,4.48,0,0,1-.13-1.41,10.43,10.43,0,0,1,1.89-4.85A15.19,15.19,0,0,1,228.31,702.14Z"/><path class="cls-8" d="M218.41,702.21l-.22.52c-.15.33-.32.8-.55,1.37a23.66,23.66,0,0,0-1.25,4.18,8.12,8.12,0,0,0-.11,2.24,4.57,4.57,0,0,0,.24,1,3.37,3.37,0,0,0,.47.83,1.81,1.81,0,0,0,.29.33,1.4,1.4,0,0,0,.32.28,4.16,4.16,0,0,0,.6.4l.61.28-.18,0c-.11,0-.3-.06-.51-.14a5.2,5.2,0,0,1-.72-.32,2.48,2.48,0,0,1-.4-.26,2.57,2.57,0,0,1-.4-.34,3.11,3.11,0,0,1-.64-.87,3.7,3.7,0,0,1-.37-1.09,4.63,4.63,0,0,1-.1-1.18,8.11,8.11,0,0,1,.11-1.2,13.32,13.32,0,0,1,1.62-4.22c.31-.55.62-1,.83-1.3A5.84,5.84,0,0,1,218.41,702.21Z"/><path class="cls-8" d="M208.81,702.3l-.26.48c-.18.29-.38.72-.65,1.24a25.21,25.21,0,0,0-1.57,3.81c-.1.35-.19.71-.26,1.06a7.48,7.48,0,0,0-.14,1,5.86,5.86,0,0,0,.14,1.82,5.35,5.35,0,0,0,.24.71,4.21,4.21,0,0,0,.29.53,4.78,4.78,0,0,0,.31.45l-.12-.1c-.07-.06-.2-.16-.33-.29a4.14,4.14,0,0,1-.83-1.21,4.65,4.65,0,0,1-.4-1.93,5.84,5.84,0,0,1,.08-1.09,11,11,0,0,1,.24-1.11,13.34,13.34,0,0,1,1.94-3.83A13,13,0,0,1,208.81,702.3Z"/><path class="cls-8" d="M200.3,703.14l-.33.39a13,13,0,0,0-.81,1,17,17,0,0,0-1,1.5c-.18.28-.32.58-.49.87s-.31.61-.41.92a5.91,5.91,0,0,0-.34.94l-.15.46-.09.46a4.72,4.72,0,0,0-.14.88,4.4,4.4,0,0,0-.06.79c0,.24,0,.47,0,.68s0,.37.06.52,0,.46,0,.46-.08-.16-.19-.44-.12-.32-.19-.52-.11-.43-.16-.68a3.14,3.14,0,0,1-.07-.83,3.19,3.19,0,0,1,0-.92,4.35,4.35,0,0,1,.19-1,5.32,5.32,0,0,1,.33-1,8.31,8.31,0,0,1,.46-.95,9.65,9.65,0,0,1,.56-.89,11.26,11.26,0,0,1,1.25-1.47A9.06,9.06,0,0,1,200.3,703.14Z"/></g><path class="cls-5" d="M230.79,713.88l9.69.19a4.23,4.23,0,0,0,2.46-.76,5,5,0,0,0,.53-.41c2.29-2,3.63-6.24,2.94-10.59l-2.58-18.48-.17-1.22h-.11v-.92l.4-58.46v-.49l.16-75.49,0-20.47h-11.9V682.66l.06.43.44,3.15.81,5.86,1.15,8.22a11,11,0,0,1,.42,2,.9.9,0,0,0,0,.16v0c0,.4.06.81.06,1.22a8.27,8.27,0,0,1,0,1,0,0,0,0,1,0,0v.13c0,.32,0,.64,0,1a9.39,9.39,0,0,1-3,6.89A8.5,8.5,0,0,1,230.79,713.88Z"/><polygon class="cls-2" points="269.35 682.66 269.36 682.66 269.36 682.61 269.35 682.66"/><polygon class="cls-2" points="257.65 622.74 257.37 579.54 257.31 569.83 257.17 548.69 257.16 547.88 257.02 528.43 257.01 526.78 257.45 526.78 257.45 528.43 257.49 547.25 257.49 548.69 257.54 569.83 257.65 622.74"/><polygon class="cls-2" points="269.35 682.66 269.36 682.66 269.36 682.61 269.35 682.66"/><path class="cls-2" d="M309.44,698.49,304.52,683v-.3l2.89-103.18.27-9.71.62-22v-.47l-.18-.75c-1.38-5.81-2.69-11.9-3.92-18.23-.11-.55-.21-1.1-.32-1.65H257.45v1.65l0,18.82v1.44l.05,21.14.11,52.91v.49l.4,58.46v.92H258l-.17,1.22-2.58,18.48c-.69,4.35.65,8.6,2.94,10.59a5,5,0,0,0,.53.41,4.23,4.23,0,0,0,2.46.76l9.67-.19h.43l11.57-.23,11.91-.23h0l9.23-.18C308.75,713.13,311.75,705.07,309.44,698.49Zm-40.08-15.83h0v0Z"/><polygon class="cls-6" points="269.35 682.66 269.36 682.66 269.36 682.61 269.35 682.66"/><polygon class="cls-6" points="257.65 623.23 257.78 683.83 257.95 682.61 258.06 682.61 258.05 682.14 257.65 623.23"/><g class="cls-7"><path class="cls-8" d="M273.31,702.14l.34.57c.21.36.49.89.81,1.52a19.13,19.13,0,0,1,1,2.19c.14.4.26.82.37,1.25A7,7,0,0,1,276,709a4.1,4.1,0,0,1-.56,2.46,3.07,3.07,0,0,1-.39.5,2.75,2.75,0,0,1-.46.44,5.37,5.37,0,0,1-1.07.65,3.7,3.7,0,0,1-.54.24c-.18.06-.34.14-.51.19-.34.09-.62.19-.88.24l-.78.19.82-.07c.26,0,.57-.09.93-.15a7.87,7.87,0,0,0,1.18-.33,5.16,5.16,0,0,0,1.26-.64,4,4,0,0,0,1.08-1,3.78,3.78,0,0,0,.59-1.31,4.89,4.89,0,0,0,.13-1.42,10.43,10.43,0,0,0-1.89-4.85A15.19,15.19,0,0,0,273.31,702.14Z"/><path class="cls-8" d="M283.2,702.21l.22.52c.15.33.33.81.55,1.37a23.62,23.62,0,0,1,1.26,4.18,8.11,8.11,0,0,1,.1,2.24,4.57,4.57,0,0,1-.24,1,3.34,3.34,0,0,1-.46.83,1.9,1.9,0,0,1-.3.33,1.6,1.6,0,0,1-.31.28,3.73,3.73,0,0,1-.61.4c-.37.18-.61.28-.61.28l.18,0a3.75,3.75,0,0,0,.51-.14,4.79,4.79,0,0,0,.73-.32,3.54,3.54,0,0,0,.79-.6,3.35,3.35,0,0,0,.65-.87,4,4,0,0,0,.37-1.09,5.09,5.09,0,0,0,.1-1.18,8.11,8.11,0,0,0-.11-1.2A13.57,13.57,0,0,0,284.4,704c-.31-.55-.63-1-.83-1.29S283.2,702.21,283.2,702.21Z"/><path class="cls-8" d="M292.81,702.31l.26.47c.17.29.38.72.64,1.24a23.94,23.94,0,0,1,1.58,3.82,9.43,9.43,0,0,1,.25,1,7.48,7.48,0,0,1,.14,1,5.55,5.55,0,0,1-.14,1.82,4.22,4.22,0,0,1-.24.71,4.26,4.26,0,0,1-.28.53c-.19.29-.31.45-.31.45l.11-.1a3.14,3.14,0,0,0,.34-.29,4.34,4.34,0,0,0,.83-1.21,4.8,4.8,0,0,0,.4-1.92,5.72,5.72,0,0,0-.08-1.09,10.66,10.66,0,0,0-.25-1.12,13.34,13.34,0,0,0-1.94-3.83A12.86,12.86,0,0,0,292.81,702.31Z"/><path class="cls-8" d="M301.32,703.14l.33.39c.21.24.49.6.81,1s.65.94,1,1.5c.17.28.32.58.49.88s.31.6.41.91a7.09,7.09,0,0,1,.34.94c.05.16.09.31.14.46l.09.46a4.77,4.77,0,0,1,.15.88,5.49,5.49,0,0,1,.05.79c0,.25,0,.48,0,.68s0,.37-.05.52,0,.46,0,.46.07-.16.18-.44.13-.32.2-.52.1-.43.15-.68a3.12,3.12,0,0,0,.08-.83,3.2,3.2,0,0,0,0-.92,5,5,0,0,0-.18-1,5.32,5.32,0,0,0-.33-1,10.4,10.4,0,0,0-.46-.95,9.7,9.7,0,0,0-.57-.89,10.39,10.39,0,0,0-1.24-1.46A9.51,9.51,0,0,0,301.32,703.14Z"/></g><path class="cls-5" d="M270.82,713.88l-9.69.19a4.23,4.23,0,0,1-2.46-.76,5,5,0,0,1-.53-.41c-2.29-2-3.63-6.24-2.94-10.59l2.58-18.48.17-1.22h.11v-.92l-.4-58.46v-.49l-.16-75.49,0-20.47h11.9V682.66l-.06.43-.44,3.15L268,692.1l-1.15,8.22a11,11,0,0,0-.42,2,.9.9,0,0,1,0,.16v0c0,.4-.06.81-.06,1.22a8.27,8.27,0,0,0,.05,1,0,0,0,0,0,0,0v.13c0,.32-.05.64-.05,1a9.39,9.39,0,0,0,3,6.89A8.5,8.5,0,0,0,270.82,713.88Z"/><rect class="cls-2" x="226.07" y="357.47" width="49.48" height="40.49"/><path class="cls-5" d="M275.55,370.44V383a201.25,201.25,0,0,1-22.71,1.18A192.72,192.72,0,0,1,227,382.59c-.31,0-.62-.09-.93-.14V370.11a194.39,194.39,0,0,0,25.84,1.61A202.82,202.82,0,0,0,275.55,370.44Z"/><ellipse class="cls-9" cx="164.54" cy="501.58" rx="16.37" ry="14.64"/><ellipse class="cls-10" cx="336.1" cy="498.27" rx="16.37" ry="14.64"/><ellipse class="cls-11" cx="215.17" cy="626.2" rx="16.37" ry="14.64"/><ellipse class="cls-12" cx="288.57" cy="626.2" rx="16.37" ry="14.64"/><polygon class="cls-2" points="304.22 528.43 197.39 528.43 203 482.02 207.41 445.54 208.91 433.22 211.22 414.09 211.35 413.02 211.39 412.72 211.7 410.11 213.88 392.08 287.73 392.08 289.96 410.5 289.97 410.6 290.21 412.61 290.26 413.02 292.73 433.42 293.95 443.53 298.61 482.02 304.22 528.43"/><polygon class="cls-13" points="298.61 482.02 203 482.02 211.35 413.02 290.26 413.02 298.61 482.02"/><path class="cls-13" d="M308.32,547.41v.47l-.62,22H257.31l-.14-21.14H244.44l-.14,21.14H193.92l-.62-22v-.47l.09-.37q2.13-8.89,4-18.61h0l2-15.48H302.51l1.71,15.49c1.23,6.33,2.54,12.42,3.92,18.23Z"/><g id="dress"><path class="cls-14" d="M298.5,476.83l-2-16.19-1.63-13.46-.72-5.95h0l-.44-3.61-.78-6.46-2.47-20.4h-.05V390a20.1,20.1,0,0,0-2.47-.15h-.85v20.94H214.78v-21a21.35,21.35,0,0,0-3.32.26v21.78L209.15,431l-1.5,12.32h0l-.44,3.67,0,.23-1.63,13.46-2,16.19-.35,2.92h95.61Z"/><polygon class="cls-14" points="346.09 573.45 158.22 573.45 203.24 479.75 298.85 479.75 346.09 573.45"/><ellipse class="cls-15" cx="219.97" cy="414.6" rx="13.88" ry="10.54"/><ellipse class="cls-15" cx="241.79" cy="414.6" rx="13.88" ry="10.54"/><ellipse class="cls-15" cx="264.79" cy="414.6" rx="13.88" ry="10.54"/><ellipse class="cls-15" cx="282.52" cy="414.6" rx="13.88" ry="10.54"/><path class="cls-16" d="M296.4,414.59c0,5.82-6.21,10.54-13.88,10.54a16.63,16.63,0,0,1-8.86-2.43,16.64,16.64,0,0,1-8.87,2.43,15.39,15.39,0,0,1-11.5-4.65,15.39,15.39,0,0,1-11.5,4.65,15.73,15.73,0,0,1-10.91-4,15.77,15.77,0,0,1-10.91,4c-7.67,0-13.89-4.72-13.89-10.54a2.44,2.44,0,0,1,0-.27c1.39,4.71,6.93,8.23,13.54,8.23a16.25,16.25,0,0,0,9.83-3.1,10.89,10.89,0,0,0,1.09-.93,10.72,10.72,0,0,0,1.51,1.24,16.37,16.37,0,0,0,9.39,2.79,16,16,0,0,0,10.62-3.75,10.68,10.68,0,0,0,.89-.89,10.7,10.7,0,0,0,1.33,1.27,16.1,16.1,0,0,0,10.17,3.37,17.15,17.15,0,0,0,7.11-1.49,14,14,0,0,0,1.76-.94,13.15,13.15,0,0,0,2.21,1.14,17.36,17.36,0,0,0,6.65,1.29c7.55,0,13.69-4.57,13.87-10.27A8.07,8.07,0,0,1,296.4,414.59Z"/><ellipse class="cls-15" cx="164.83" cy="569.66" rx="13.88" ry="10.54"/><ellipse class="cls-15" cx="186.65" cy="569.66" rx="13.88" ry="10.54"/><ellipse class="cls-15" cx="209.66" cy="569.66" rx="13.88" ry="10.54"/><ellipse class="cls-15" cx="227.38" cy="569.66" rx="13.88" ry="10.54"/><ellipse class="cls-15" cx="249.72" cy="570.95" rx="13.88" ry="10.54"/><ellipse class="cls-15" cx="271.54" cy="570.95" rx="13.88" ry="10.54"/><ellipse class="cls-15" cx="294.55" cy="570.95" rx="13.88" ry="10.54"/><ellipse class="cls-15" cx="312.27" cy="570.95" rx="13.88" ry="10.54"/><ellipse class="cls-15" cx="312.5" cy="570.95" rx="13.88" ry="10.54"/><ellipse class="cls-15" cx="335.51" cy="570.95" rx="13.88" ry="10.54"/><path class="cls-16" d="M349.4,570.94c0,5.83-6.22,10.54-13.89,10.54a15.42,15.42,0,0,1-11.5-4.64l-.11-.13A15.23,15.23,0,0,1,313,581.47h-.48c-.49,0-1,0-1.46-.05a16.26,16.26,0,0,1-7.52-2.45l-.12.08a16.74,16.74,0,0,1-8.86,2.42A15.49,15.49,0,0,1,283,576.85a15.45,15.45,0,0,1-11.5,4.63,15.78,15.78,0,0,1-10.91-4,15.78,15.78,0,0,1-10.91,4c-5,0-9.35-2-11.79-5a16,16,0,0,1-10.55,3.69,16.63,16.63,0,0,1-8.86-2.43,16.63,16.63,0,0,1-8.86,2.43,15.42,15.42,0,0,1-11.5-4.64,15.46,15.46,0,0,1-11.51,4.64,15.73,15.73,0,0,1-10.91-4,15.74,15.74,0,0,1-10.91,4c-7.67,0-13.89-4.72-13.89-10.54a8.19,8.19,0,0,1,.57-3c1,5.11,6.74,9,13.74,9a16.77,16.77,0,0,0,8.47-2.2,12.51,12.51,0,0,0,2.44-1.82A12.56,12.56,0,0,0,178,573.1a17.27,17.27,0,0,0,18.51-.18,12.67,12.67,0,0,0,2.12-1.86,11.12,11.12,0,0,0,1.45,1.37,16.18,16.18,0,0,0,10.05,3.27,17.69,17.69,0,0,0,5.28-.79,15.5,15.5,0,0,0,3.59-1.64,14.26,14.26,0,0,0,2.91,1.41,17.26,17.26,0,0,0,5.94,1,16.73,16.73,0,0,0,8.46-2.19,12,12,0,0,0,2.09-1.5,11.19,11.19,0,0,0,1.81,1.76h0a16.23,16.23,0,0,0,10,3.21,16.78,16.78,0,0,0,8.48-2.2,12.09,12.09,0,0,0,2.43-1.83,12,12,0,0,0,1.79,1.43,17.28,17.28,0,0,0,18.5-.17,11.66,11.66,0,0,0,2.13-1.87,10.6,10.6,0,0,0,1.46,1.37A16.15,16.15,0,0,0,295,577a17.57,17.57,0,0,0,5.27-.79l.18-.06a15.52,15.52,0,0,0,3.42-1.58,14.65,14.65,0,0,0,2.92,1.42,17.35,17.35,0,0,0,5.45,1h1.2a16.39,16.39,0,0,0,8.91-2.76,12.73,12.73,0,0,0,2.12-1.87,9.9,9.9,0,0,0,1.28,1.22h0l.17.14A16.18,16.18,0,0,0,335.94,577c6.3,0,11.63-3.19,13.32-7.57A8.6,8.6,0,0,1,349.4,570.94Z"/></g><g id="boot"><path class="cls-17" d="M305.17,688.65c0,4.59,1.9,11.23-2.6,11.59a5.85,5.85,0,0,1-.73,0H258.59l-4.2-56.9h54.37"/><path class="cls-18" d="M311,702.31a10.51,10.51,0,0,1-3.34,6.62,4.65,4.65,0,0,1-2.84,1.09l-33.29.65h0l-10.26.2a4.2,4.2,0,0,1-2.5-.77l-.21-.15a4.19,4.19,0,0,1-.33-.26c-1.76-1.53-3-4.38-3.16-7.58V702l2.61-18.73.17-1.24h.11v-.84h.1v10.06a7.94,7.94,0,0,0,7.95,7.94h31.27a4.79,4.79,0,0,0,.66,0,7.93,7.93,0,0,0,7.28-7.91v-8.8l5,15.74A14,14,0,0,1,311,702.31Z"/><path class="cls-19" d="M311,703.57a13.65,13.65,0,0,1-1.61,6.23,6.65,6.65,0,0,1-.39.63,7.37,7.37,0,0,1-1.23,1.46l-.28.23-.28.21a1.66,1.66,0,0,1-.3.19,1.61,1.61,0,0,1-.28.17h0l-.2.1a2.26,2.26,0,0,1-.33.13,4,4,0,0,1-1.07.26,2.22,2.22,0,0,1-.37,0l-33.29.64h0l-10.26.21a4.25,4.25,0,0,1-2.5-.77c-.19-.13-.37-.27-.55-.42l-.34-.33c-.11-.12-.23-.23-.34-.36a8.13,8.13,0,0,1-1-1.46c-.14-.26-.28-.53-.41-.82a13.9,13.9,0,0,1-1-6.62c0-.39.07-.78.13-1.18v0c.19,3.2,1.4,6,3.16,7.58a4.19,4.19,0,0,0,.33.26l.21.15a4.2,4.2,0,0,0,2.5.77l10.26-.2h0l33.29-.65a4.65,4.65,0,0,0,2.84-1.09,10.53,10.53,0,0,0,3.34-6.62C311,702.72,311,703.15,311,703.57Z"/><path class="cls-17" d="M196.38,688.65c0,4.59-1.9,11.23,2.6,11.59a5.85,5.85,0,0,0,.73,0H243l4.2-56.9H192.79"/><path class="cls-18" d="M190.59,702.31a10.51,10.51,0,0,0,3.34,6.62,4.65,4.65,0,0,0,2.84,1.09l33.29.65h0l10.26.2a4.2,4.2,0,0,0,2.5-.77L243,710a4.19,4.19,0,0,0,.33-.26c1.76-1.53,3-4.38,3.16-7.58V702l-2.61-18.73-.17-1.24h-.11v-.84h-.1v10.06a7.94,7.94,0,0,1-7.95,7.94H204.32a4.79,4.79,0,0,1-.66,0,7.93,7.93,0,0,1-7.28-7.91v-8.8l-5,15.74A14,14,0,0,0,190.59,702.31Z"/><path class="cls-19" d="M190.58,703.57a13.65,13.65,0,0,0,1.61,6.23,6.65,6.65,0,0,0,.39.63,7.37,7.37,0,0,0,1.23,1.46l.28.23.28.21a1.66,1.66,0,0,0,.3.19,1.61,1.61,0,0,0,.28.17h0l.2.1a2.26,2.26,0,0,0,.33.13,4,4,0,0,0,1.07.26,2.22,2.22,0,0,0,.37,0l33.29.64h0l10.26.21a4.25,4.25,0,0,0,2.5-.77c.19-.13.37-.27.55-.42l.34-.33c.11-.12.23-.23.34-.36a8.13,8.13,0,0,0,1-1.46c.14-.26.28-.53.41-.82a13.9,13.9,0,0,0,1-6.62c0-.39-.07-.78-.13-1.18v0c-.19,3.2-1.4,6-3.16,7.58a4.19,4.19,0,0,1-.33.26l-.21.15a4.2,4.2,0,0,1-2.5.77l-10.26-.2h0L196.77,710a4.65,4.65,0,0,1-2.84-1.09,10.53,10.53,0,0,1-3.34-6.62C190.57,702.72,190.56,703.15,190.58,703.57Z"/><path class="cls-19" d="M299.66,690.64a25.17,25.17,0,0,0-2.17-2.35,11.79,11.79,0,0,0-2.6-1.77,20.36,20.36,0,0,0-5.94-1.9,28,28,0,0,0-12.76,1.06,28.36,28.36,0,0,0-6.52,3,.93.93,0,0,0,0,1.55,1.81,1.81,0,0,0,2,0l.3-.19s.35-.21.16-.09.14-.09.19-.12l.35-.19c.4-.22.81-.43,1.22-.63a26.8,26.8,0,0,1,2.7-1.11l.32-.11c.1,0,.51-.14.1,0,.24-.06.48-.15.72-.22.47-.13.95-.26,1.43-.37a25.84,25.84,0,0,1,2.92-.52l.38,0c.1,0,.27,0-.12,0l.16,0,.77-.06c.49,0,1,0,1.48,0s1,0,1.47,0l.71.05H287l.41,0a20.81,20.81,0,0,1,2.85.56l.63.18.16,0c-.36-.08-.17-.06-.07,0l.38.13c.46.16.9.34,1.33.53s.95.47,1.42.72l.72.39-.07,0,.18.11.35.23c.48.3,1,.6,1.41.93a7,7,0,0,1,.66.53l.12.12.05.05c.11.11.22.22.32.34a1.27,1.27,0,0,0,1.41.28.7.7,0,0,0,.37-1.07Z"/><path class="cls-19" d="M204.65,689.37a6.05,6.05,0,0,0,1.27-.48c.4-.17.79-.34,1.2-.5s.8-.35,1.21-.51.85-.31,1.27-.47.84-.32,1.27-.46l.17-.06s-.29.09-.14.05l.33-.11.71-.2a25.3,25.3,0,0,1,2.75-.57l.67-.09.37-.05a.55.55,0,0,0,.18,0c-.12,0-.29,0-.06,0,.49,0,1-.08,1.48-.1a27.85,27.85,0,0,1,3,.05l.72.06c.18,0,0,0-.09,0a1.23,1.23,0,0,1,.19,0l.38.05c.52.06,1,.14,1.55.24a26.13,26.13,0,0,1,3.08.76l.19.06c.26.08-.16-.06,0,0l.43.14.86.32c.58.22,1.15.47,1.7.73s1.1.53,1.62.83l.42.23.18.11,0,0c.29.17.58.35.86.54a1.79,1.79,0,0,0,2,0,.94.94,0,0,0,0-1.55,29.59,29.59,0,0,0-13.23-4.66,28.29,28.29,0,0,0-12.44,1.52,15.73,15.73,0,0,0-2.89,1.48,6.22,6.22,0,0,0-.58.43c-.11.09-.23.17-.33.27-.27.27.09-.06,0,0l-.14.13a3.55,3.55,0,0,0-1,1.17c-.14.35.31.68.77.58Z"/></g><g id="eyes"><path class="cls-20" d="M281.12,256.51A48.51,48.51,0,0,1,299,246.21c5-1.57,13.44-3.7,18,.13,3.41,2.85,8.33-2.14,4.88-4.88-6.73-5.35-16.17-4-23.78-1.41-7.36,2.5-16.9,7-20,14.71-.72,1.81,1.8,2.81,3,1.75Z"/><path class="cls-20" d="M218.54,253.55c-3.39-6.89-11-11.71-17.91-14.5a42,42,0,0,0-29.06-1.34c-4.18,1.34-2.41,7.92,1.82,6.6a39.22,39.22,0,0,1,25.53,1c6.51,2.43,12.09,6.23,17.78,10.11,1.2.82,2.38-.73,1.84-1.84Z"/><path class="cls-20" d="M295.27,283.49c9.14-14,34.21-12.36,37.28,5.49,1,5.68,9.63,3.27,8.66-2.39-1.85-10.72-11.14-19.32-21.76-21.1-12-2-25.2,3.14-31.93,13.47-3.16,4.86,4.61,9.36,7.75,4.53Z"/><path class="cls-20" d="M293.61,280.2A23.85,23.85,0,0,1,315.5,269c8.37.62,17.13,5.93,18.48,14.72.37,2.41,3.37,3.7,5.52,3.13,2.56-.68,3.49-3.13,3.13-5.52-1.9-12.41-14.47-20.07-26.11-21.22-12.33-1.22-24.14,5.21-30.66,15.56-3.09,4.9,4.68,9.41,7.75,4.53Z"/><path class="cls-20" d="M214.82,278.55c-7.16-11.5-19.83-16.72-33.06-14.44-11.62,2-22.45,9.94-26.07,21.4-1.75,5.52,6.91,7.89,8.65,2.39,2.62-8.29,10.94-13.52,19.16-15a22.42,22.42,0,0,1,23.57,10.2c3,4.89,10.81.39,7.75-4.53Z"/><path class="cls-20" d="M161.67,284.73c2.14-10.07,11.22-16.89,20.9-19.18a23.18,23.18,0,0,1,25.6,11.86c2.59,5.17,10.33.63,7.75-4.53C209.6,260.29,194.54,254,181,256.72c-12.85,2.62-25.16,12.49-27.95,25.63-1.2,5.63,7.45,8,8.65,2.38Z"/><path class="cls-20" d="M352.26,290.36a25.8,25.8,0,0,1-14.1,3.28,5.77,5.77,0,0,1-3.83-1.59,5.43,5.43,0,0,1,0-7.66,5.4,5.4,0,0,1,3.83-1.59,21,21,0,0,0,4.19-.13l-1.44.19a20.87,20.87,0,0,0,5.13-1.4l-1.3.55a21.74,21.74,0,0,0,2.06-1,5.66,5.66,0,0,1,4.17-.55,5.55,5.55,0,0,1,3.24,2.49,5.48,5.48,0,0,1,.54,4.17,5.55,5.55,0,0,1-2.49,3.24Z"/><path class="cls-20" d="M145,288.72a25.82,25.82,0,0,0,14.1,3.28,5.77,5.77,0,0,0,3.83-1.59,5.41,5.41,0,0,0,0-7.66,5.42,5.42,0,0,0-3.83-1.59,20.86,20.86,0,0,1-4.18-.13l1.44.19a21.05,21.05,0,0,1-5.13-1.39l1.29.54a21.57,21.57,0,0,1-2.05-1,5.69,5.69,0,0,0-4.18-.55,5.56,5.56,0,0,0-3.23,2.49,5.46,5.46,0,0,0-.55,4.18,5.56,5.56,0,0,0,2.49,3.23Z"/></g><g id="mouth"><path class="cls-13" d="M278.66,305.13a20.31,20.31,0,0,0-4.74-7.79,9.84,9.84,0,0,0-4.19-2.59,10,10,0,0,0-5.08.11,32.56,32.56,0,0,0-5,2c-1.58.71-3.18,1.39-4.81,2-3.28,1.27-6.76,4.68-10.17,5.58a94.22,94.22,0,0,1-20.42,3.2c-1.71.08-3-.48-4.68-.49-1.36,0-2.37-.13-1.59.58a28.46,28.46,0,0,0-1.54,3.71c-.49,1.55-.92,3.12-1.26,4.7a39.15,39.15,0,0,0-.85,9.59,26.21,26.21,0,0,0,6.81,17.13c9.38,10,24.53,11.12,37.13,7.83,6.21-1.62,12-4.7,15.76-10.05,3.59-5.14,5-11.48,5.78-17.61C280.56,317.12,280.67,310.81,278.66,305.13Z"/><path class="cls-20" d="M217.42,307.2a41.66,41.66,0,0,0,11.43,1.53,49.41,49.41,0,0,0,11.39-1.65,84.56,84.56,0,0,0,11.19-3.66c3.66-1.46,7.13-3.31,10.74-4.85a11.28,11.28,0,0,1,5.13-1.13s.71.07.25,0l.51.09c.28.06.56.14.83.22l.48.17c-.39-.14.12.06.17.08a10.29,10.29,0,0,1,1,.58c.15.09.28.19.42.29.46.31-.26-.24.16.12.26.22.52.45.77.69s.49.5.72.76l.34.41,0,0,.21.29a16.86,16.86,0,0,1,1.16,1.85c.18.32.35.65.51,1l.24.5c0,.06.3.72.17.39A37.41,37.41,0,0,1,277.67,315a46.23,46.23,0,0,1-.22,11.47,33.85,33.85,0,0,1-3.17,10.73,23.21,23.21,0,0,1-5.26,6.63,31.91,31.91,0,0,1-15,7.13,41.07,41.07,0,0,1-16.71,0,26.16,26.16,0,0,1-13.54-7.38A27.24,27.24,0,0,1,219,337a28.9,28.9,0,0,1-2.78-7.78q-.12-.52-.21-1c0-.18,0-.36-.09-.53l0-.18c0,.27,0,.16-.05-.36,0,0-.09-.6,0-.24l-.06-.54c-.05-.42-.09-.85-.12-1.27a33.19,33.19,0,0,1,0-4.46,28.64,28.64,0,0,1,.66-4.49,34.69,34.69,0,0,1,1.47-4.85c.55-1.45,1.26-3,2-4.47a1.77,1.77,0,0,0-3.05-1.78,35.21,35.21,0,0,0-4.67,20.14,32.56,32.56,0,0,0,6.41,17.09,30.08,30.08,0,0,0,13.9,10.39,36.59,36.59,0,0,0,8.55,1.75,46.45,46.45,0,0,0,9,0,41.68,41.68,0,0,0,17.32-5.46,29.32,29.32,0,0,0,6.93-5.62,27.16,27.16,0,0,0,5.51-9.45,42.43,42.43,0,0,0,2.08-12.09,49.56,49.56,0,0,0-1.12-12.56,27.51,27.51,0,0,0-3.74-9.42c-1.82-2.7-4.38-5.09-7.64-5.83-4.19-1-8,.93-11.7,2.72s-7.2,3.38-10.91,4.81c-7.32,2.84-15.14,4.77-23,4.64a37.67,37.67,0,0,1-5.71-.54.84.84,0,0,0-.45,1.62Z"/><path class="cls-20" d="M253.86,325.46a37.92,37.92,0,0,0,5.19-.64,37.35,37.35,0,0,0,5.18-1.29,44.32,44.32,0,0,0,10.15-4.81,12,12,0,0,0,4.44-4.38c.48-.92-.34-2.39-1.5-1.94a19.79,19.79,0,0,0-4.36,2.48c-1.42,1-2.83,2-4.33,2.86a44.76,44.76,0,0,1-9.41,4.32,19.89,19.89,0,0,1-5.36.87c-1.62.06-1.63,2.58,0,2.53Z"/></g><g id="hair"><path class="cls-21" d="M178.64,185.83h-2.31l-7.89-39.2-14.27,39.2a25.21,25.21,0,0,1-13.33-3.78c-1.14,5.07-2.2,10.2-2.9,15.39-.88,4.37-1.58,8.76-2.14,13.15l-.91.18a76.68,76.68,0,0,1-10.58,1.2,76.12,76.12,0,0,1-45-12.32q-2-1.32-4-2.78A76.42,76.42,0,0,1,56.7,94.38l0,0h0A76.42,76.42,0,0,1,166,73.82a75.25,75.25,0,0,1,10.18,8.88c.3.3.58.6.86.91h0c.42.46.85.92,1.26,1.39.56.64,1.12,1.28,1.66,1.94s1.23,1.51,1.81,2.29c.15.18.29.37.43.56s.32.42.47.63l.37.51,0,.07c.5.69,1,1.4,1.47,2.11.07.11.15.22.22.34l.69,1,.16.25v0c.36.57.72,1.14,1.05,1.72a76.5,76.5,0,0,1-8.05,89.34Z"/><path class="cls-21" d="M131.29,296.37c-.15-.46-.29-.93-.43-1.41l1.22,2.52q2.47,4.25,4.56,8.41c.28.55.55,1.11.81,1.66,1,6.54,1.46,10.35,1.46,10.35s-1.41-3.56-3.67-9.94Z"/><path class="cls-21" d="M117.71,424.41C109.82,445.27,91,456.08,83,455.58a6.28,6.28,0,0,1-1.21-.18l-.29-.08c-1.87-.61-2.66-2.19-1.85-4.77l-.09.08a45.81,45.81,0,0,1-17.94,10c-1.87.58-3.84,1.1-5.92,1.53l-1.46.29c-1,.18-2,.34-3,.48a76.21,76.21,0,0,1-16.11.43l1.14-.19a18.52,18.52,0,0,0,3-.87c13-5,10.12-23.26,10.12-23.26l0,0C30.3,450,5.58,447.63,0,436c56.26,3.64,39.33-77.92,26.33-125.73s-16.06-143.49,19.05-200A143.1,143.1,0,0,1,56.7,94.38l0,0h0c32.62-39.5,68.19-34.83,68.19-34.83a168,168,0,0,0-13.43,37.81,215.39,215.39,0,0,0-4.12,23.85c-5,41.78,1.59,79,.4,89.72a8.81,8.81,0,0,1-.4,2,22.32,22.32,0,0,0-1.25,6.67,25.91,25.91,0,0,0-8.28.61,27.93,27.93,0,0,0-9.11,4,33.54,33.54,0,0,0-6.81,6.11c-.74.87-1.45,1.79-2.12,2.74-.34.47-.67,1-1,1.44C72.66,244,69.84,257,72,270.33c3.78,23.43,21.49,39,39.54,34.67l.26-.06c2.9,13.48,10.13,25.71,20.44,35.66a87.69,87.69,0,0,0,17.56,13l.12.07C152.38,397.71,126.72,427.1,117.71,424.41Z"/><path class="cls-22" d="M78.82,234.42c-.2-.72-.39-1.43-.58-2.15l1.56.71C79.46,233.45,79.13,233.93,78.82,234.42Z"/><path class="cls-22" d="M129.81,292.76l-.27-.55h0C129.64,292.39,129.73,292.57,129.81,292.76Z"/><path class="cls-22" d="M130.86,295s0,0,0-.06l1.11,2.29q2.55,4.4,4.69,8.7c.28.55.55,1.11.81,1.66,1,6.54,1.46,10.35,1.46,10.35s-1.41-3.56-3.67-9.94l-4-11.59C131.14,295.91,131,295.44,130.86,295Z"/><path class="cls-22" d="M117.61,424.35C109.75,445.2,91,456,83,455.58a6.28,6.28,0,0,1-1.21-.18c-2.08-.5-3-2.08-2.23-4.77l0-.1c-4.78,4.61-12.79,9.36-23.89,11.66l-1.46.29c-1,.18-2,.34-3,.48a76.21,76.21,0,0,1-16.11.43l1.14-.19c15.9-3.11,13.32-22.86,13.14-24.11a.28.28,0,0,1,0-.06c-17.89,10.27-40.72,8.83-48.12-1,49.24,13,59.38-54.15,52-107.39,20.61,36.66,18.53,89.83,4,114.48,22.91-10.84,38.6-42.62,33.9-88.43,9.4,22.27,17.44,46-1.62,80.11,48.24-33.75,5.62-120.61,5.62-120.61s38,29.59,36.07,68.59c8.37-13.91,7.25-28.25,1-44.19a87.69,87.69,0,0,0,17.56,13C152.21,397.66,126.61,427.05,117.61,424.35Z"/><path class="cls-22" d="M161.26,82.21a89.6,89.6,0,0,1,9.32.48H154L131.46,96.12l0,0c-.9.74-1.79,1.5-2.67,2.26v62a25.35,25.35,0,0,0,10.33,20.44,20.45,20.45,0,0,0,1.74,1.18c-1.14,5.07-2.2,10.2-2.9,15.39-.88,4.37-1.58,8.76-2.14,13.15-.39,3-.71,6-1,9.06-.68,5.29-1,10.53-1.29,15.68-.05,2.06-.07,4.13-.08,6.22v0a0,0,0,0,0,0,0l-.17-.39a.86.86,0,0,0,0,.16l0,.42c-.36,5.12-.29,10.1-.19,14.92a86.64,86.64,0,0,1-8.95-3.53,4.22,4.22,0,0,1-.53-.25.37.37,0,0,1-.16-.07l.14-.19q-.08-.69-.12-1.38a84.85,84.85,0,0,1-.31-10c0-4.59-.13-9.29,0-14a29.55,29.55,0,0,0-17-7.7,25.91,25.91,0,0,0-8.28.61,27.93,27.93,0,0,0-9.11,4,89.32,89.32,0,0,1-13.38-27.26A89.51,89.51,0,0,1,149.54,83,90.6,90.6,0,0,1,161.26,82.21Z"/><path class="cls-22" d="M227.41,111.42c-.26-.28-.52-.57-.79-.85h0C226.9,110.85,227.16,111.14,227.41,111.42Z"/><path class="cls-21" d="M446.62,155a76.09,76.09,0,0,1-28.26,41.93,75.13,75.13,0,0,1-6.37,4.26,76.44,76.44,0,0,1-26,9.74,76.33,76.33,0,0,1-23.87.41q-1.57-.23-3.15-.51c-.56-4.45-1.26-8.92-2.16-13.35-.85-6.34-2.26-12.59-3.68-18.76a25.32,25.32,0,0,1-17.68,7.15H315.09a76.5,76.5,0,0,1-8-89.34c.34-.58.69-1.15,1-1.72v0l.16-.25.69-1c.07-.12.15-.23.22-.34.48-.71,1-1.42,1.47-2.11l.05-.07c.27-.38.55-.77.84-1.14.14-.19.28-.38.43-.56q2.13-2.81,4.5-5.37l.23-.25h0c.28-.31.56-.61.86-.91s.42-.45.65-.67A76.42,76.42,0,0,1,437,94.3l0,0A76.19,76.19,0,0,1,446.62,155Z"/><path class="cls-21" d="M355.81,317.9s.43-3.87,1.48-10.5c.14-.88.29-1.8.45-2.77,1.2-2.36,2.51-4.75,3.91-7.15l1.8-3.74c.06-.14.13-.29.2-.43.48-1,.94-2,1.4-2.92-.5,2.11-1,4.11-1.63,6L359.48,308C357.21,314.34,355.81,317.9,355.81,317.9Z"/><path class="cls-21" d="M493.73,436c-5.58,11.63-30.3,14-49.41,3.09l0,0S441,460,457.46,463.2l1.14.19a76.21,76.21,0,0,1-16.11-.43c-1-.14-2-.3-3-.48l-1.46-.29c-11.07-2.28-19.06-7-23.86-11.56l-.09-.08c.85,2.71-.07,4.32-2.14,4.85a6.28,6.28,0,0,1-1.21.18c-8,.5-26.81-10.31-34.69-31.17-9,2.68-34.42-26.41-32.26-70l.13-.07a88.71,88.71,0,0,0,16.65-11.21c12.07-10.3,20.61-23.49,24-38.2l.44.11c18.06,4.29,35.76-11.24,39.55-34.67,2.94-18.17-3.35-35.76-14.74-44.75a30.83,30.83,0,0,0-3.92-2.63,27.46,27.46,0,0,0-7.18-2.82,25.7,25.7,0,0,0-11-.22,22.91,22.91,0,0,0-1.28-7.06,8.81,8.81,0,0,1-.4-2c-1.15-10.36,4.92-45.46.87-85.51a221.44,221.44,0,0,0-4.59-28.06,168,168,0,0,0-13.43-37.81S404.35,54.85,437,94.3l0,0a144.8,144.8,0,0,1,11.36,15.89c35.1,56.55,32,152.24,19,200S437.47,439.64,493.73,436Z"/><path class="cls-22" d="M365.35,289.75l-.3.64c-.5,2.11-1,4.11-1.63,6L359.48,308c-2.27,6.38-3.67,9.94-3.67,9.94s.43-3.87,1.48-10.5c.14-.88.29-1.8.45-2.77l-.33.62c.11-.22.21-.44.33-.65,1.25-2.45,2.59-4.92,4-7.41l1.67-3.45c.06-.14.13-.29.2-.43.48-1,1-2,1.42-3l.27-.57S365.34,289.75,365.35,289.75Z"/><path class="cls-22" d="M492.45,438c-7.39,9.82-30.23,11.26-48.12,1a.28.28,0,0,1,0,.06c-.18,1.25-2.76,21,13.14,24.11l1.14.19a76.21,76.21,0,0,1-16.11-.43c-1-.14-2-.3-3-.48l-1.46-.29c-11.1-2.3-19.11-7.05-23.89-11.66l0,.1c.8,2.69-.15,4.27-2.23,4.77a6.28,6.28,0,0,1-1.21.18c-8,.43-26.74-10.38-34.6-31.23C367.17,427,341.78,398,343.9,354.3a88.71,88.71,0,0,0,16.65-11.21c-5.36,15-5.95,28.52,2,41.7-1.95-39,36.07-68.59,36.07-68.59S356,403.06,404.22,436.81c-19.06-34.11-11-57.84-1.62-80.11-4.7,45.81,11,77.59,33.91,88.43-14.57-24.65-16.65-77.82,4-114.48C433.07,383.89,443.21,451,492.45,438Z"/><path class="cls-22" d="M269.19,108.42c.12-.13.25-.25.38-.37-.26.25-.51.5-.76.76l.19-.2Z"/><path class="cls-22" d="M422,171.71a89,89,0,0,1-3.6,25.17,87.77,87.77,0,0,1-7,17.08h0a90.24,90.24,0,0,1-5.52,9,27.46,27.46,0,0,0-7.18-2.82,25.7,25.7,0,0,0-11-.22,31.05,31.05,0,0,0-16,9c.07,4.17,0,8.31,0,12.37a81.89,81.89,0,0,1-.18,8.46h0c-.07.9-.14,1.8-.22,2.69a85.28,85.28,0,0,1-7.93,3.36c-.53.19-1,.38-1.59.56.07-3.68.13-7.45,0-11.31-.05-1.22-.11-2.45-.2-3.69,0-.72-.06-1.44-.1-2.17-.28-6.38-.63-12.91-1.47-19.51-.26-2.94-.57-5.9-.95-8.86-.56-4.45-1.26-8.92-2.16-13.35-.85-6.34-2.26-12.59-3.68-18.76a25.48,25.48,0,0,0,3.75-4.6,25,25,0,0,0,3.76-10.31h0a23.18,23.18,0,0,0,.23-3.35v-63l-.61-.5s0,0,0,0a191.66,191.66,0,0,0-24.06-14.15h-13a89.6,89.6,0,0,1,9.32-.48c2.68,0,5.34.12,8,.35h0A89.43,89.43,0,0,1,422,171.71Z"/><path class="cls-21" d="M226.62,110.57c.27.28.53.57.79.85-.25-.28-.51-.57-.78-.85Zm42.57-2.15-.19.19-.19.2c.25-.26.5-.51.76-.76C269.44,108.17,269.31,108.29,269.19,108.42Zm-42.57,2.15c.27.28.53.57.79.85-.25-.28-.51-.57-.78-.85ZM129.55,292.19h0l.27.55C129.73,292.56,129.64,292.38,129.55,292.19Zm97.08-181.62h0c.27.28.53.57.79.85C227.16,111.14,226.9,110.85,226.63,110.57Zm0,0c.27.28.53.57.79.85-.25-.28-.51-.57-.78-.85Zm146.23,141,.08.09a.52.52,0,0,1,.06-.16Zm33-89a135.33,135.33,0,0,0-19-37.24,156,156,0,0,0-26-28v63a23.18,23.18,0,0,1-.23,3.35h0a25,25,0,0,1-3.76,10.31,25.48,25.48,0,0,1-3.75,4.6c1.42,6.17,2.83,12.42,3.68,18.76.9,4.43,1.6,8.9,2.16,13.35.38,3,.69,5.92.95,8.86.84,6.6,1.19,13.13,1.47,19.51,0,.73.07,1.45.1,2.17.09,1.24.15,2.47.2,3.69.15,3.86.09,7.63,0,11.31,0,1.81-.08,3.59-.1,5.35a151.32,151.32,0,0,1-.9,17.55c0,.25-.05.49-.08.74-.58,5.26-.74,10.18-1.25,14.55a.06.06,0,0,1,0,0l-1.6,10c-.12.21-.22.43-.33.65l.33-.62c-.16,1-.31,1.89-.45,2.77-1.05,6.63-1.48,10.5-1.48,10.5s1.4-3.56,3.67-9.94l3.94-11.59c.6-1.87,1.13-3.87,1.63-6l.3-.64s0,0,0,0l-.1-.15c.64-2.73,1.25-5.64,1.91-8.67.62-2.85,1.24-5.83,1.93-8.92.33-3.15.69-6.36,1.06-9.7s.76-6.51,1.06-9.88c.08-.89.15-1.79.22-2.69h0a81.89,81.89,0,0,0,.18-8.46c0-4.06.1-8.2,0-12.37a31.05,31.05,0,0,1,16-9,25.7,25.7,0,0,1,11,.22,27.46,27.46,0,0,1,7.18,2.82,30.83,30.83,0,0,1,3.92,2.63c.37-2.17.71-4.35,1-6.56.23-1.69.43-3.37.59-5h0c.09-.83.16-1.65.22-2.48l.15-2.07c.17-2.78.26-5.54.25-8.27A125.53,125.53,0,0,0,405.85,162.61ZM352,90.4q-5.61-4.12-11.58-7.83h0c-2.62-.23-5.28-.35-8-.35a89.6,89.6,0,0,0-9.32.48h13A191.66,191.66,0,0,1,360.2,96.84Q356.23,93.48,352,90.4ZM319.6,83.13c1.18-.17,2.36-.32,3.55-.44h-4.1C319.24,82.83,319.42,83,319.6,83.13ZM269,108.61l-.19.2c.25-.26.5-.51.76-.76-.13.12-.26.24-.38.37Zm-28.09,22.24c-.59-1.17-1.22-2.32-1.87-3.46C239.69,128.53,240.31,129.68,240.91,130.85Zm-14.29-20.28c.27.28.53.57.79.85-.25-.28-.51-.57-.78-.85Zm-51-27.21a1.81,1.81,0,0,1,.23,0c.41.06.81.13,1.22.21h0c.8.14,1.6.29,2.4.46h0c.58-.47,1.17-.93,1.76-1.37H170.58C172.27,82.86,173.94,83.08,175.59,83.36ZM149.54,83q-5.88,3.72-11.41,7.87c-2.27,1.7-4.5,3.46-6.67,5.28L154,82.69h16.63a89.6,89.6,0,0,0-9.32-.48A90.6,90.6,0,0,0,149.54,83ZM133.26,241.32a.86.86,0,0,1,0-.16l.17.39a0,0,0,0,1,0,0v0c0-2.09,0-4.16.08-6.22.26-5.15.61-10.39,1.29-15.68.27-3,.59-6,1-9.06.56-4.39,1.26-8.78,2.14-13.15.7-5.19,1.76-10.32,2.9-15.39a20.45,20.45,0,0,1-1.74-1.18,25.35,25.35,0,0,1-10.33-20.44v-62a153.85,153.85,0,0,0-21.4,22.76c-17,22.19-27.37,48.91-28,78.48q-.11,4.11.07,8.29c0,1.4.12,2.8.22,4.21q.24,3.41.64,6.87c.39,3.22.84,6.41,1.36,9.55.09.56.18,1.12.29,1.67a33.54,33.54,0,0,1,6.81-6.11,27.93,27.93,0,0,1,9.11-4,25.91,25.91,0,0,1,8.28-.61,29.55,29.55,0,0,1,17,7.7c-.14,4.74,0,9.44,0,14a84.85,84.85,0,0,0,.31,10q0,.69.12,1.38l-.14.19a.37.37,0,0,0,.16.07c.3,3.2.69,6.34,1,9.4q.33,2.89.63,5.68c.15,1.36.3,2.69.44,4,.68,3.09,1.31,6.07,1.93,8.92.83,3.8,1.57,7.4,2.39,10.7.28,1.14.57,2.23.88,3.29,0,0,0,0,0,.06.14.48.28.95.43,1.41l4,11.59c2.26,6.38,3.67,9.94,3.67,9.94s-.42-3.81-1.46-10.35a.77.77,0,0,0,0-.15c-.53-3.31-1.2-7.29-2-11.91-.48-3.71-.67-7.86-1-12.29-.09-1.06-.19-2.14-.31-3.23a150,150,0,0,1-1-18.29c0-1.65-.07-3.32-.1-5-.1-4.82-.17-9.8.19-14.92Z"/><path class="cls-21" d="M360.23,96.87s0,0,0,0a191.66,191.66,0,0,0-24.06-14.15h-13c-1.19.12-2.37.27-3.55.44-.18-.15-.36-.3-.55-.44h4.1a89.6,89.6,0,0,1,9.32-.48c2.68,0,5.34.12,8,.35-3.64-2.25-7.36-4.39-11.18-6.38l-2.78-1.43A179.53,179.53,0,0,0,166,73.81q-2.35,1.16-4.66,2.37-6,3.16-11.8,6.79a90.6,90.6,0,0,1,11.72-.76,89.6,89.6,0,0,1,9.32.48h10.64c-.59.44-1.18.9-1.76,1.37h0c-.8-.17-1.6-.32-2.4-.46h0c-.41-.08-.81-.15-1.22-.21a1.81,1.81,0,0,0-.23,0c-1.65-.28-3.32-.5-5-.67H154L131.46,96.12l0,0c-.9.74-1.79,1.5-2.67,2.26v62a25.35,25.35,0,0,0,10.33,20.44,20.45,20.45,0,0,0,1.74,1.18,25.21,25.21,0,0,0,13.33,3.78l14.27-39.2,7.89,39.2H335.42a25.37,25.37,0,0,0,21.43-11.75,25,25,0,0,0,3.76-10.31h0a23.18,23.18,0,0,0,.23-3.35v-63Z"/><path class="cls-21" d="M128.77,97.73l2.67-1.59c-.9.74-1.79,1.5-2.67,2.26Z"/><path class="cls-21" d="M170.58,82.69h10.64c-.59.44-1.18.9-1.76,1.37h0c-.8-.17-1.6-.32-2.4-.46h0c-.41-.08-.81-.15-1.22-.21a1.81,1.81,0,0,0-.23,0C173.94,83.08,172.27,82.86,170.58,82.69Z"/><path class="cls-21" d="M319.05,82.69h4.1c-1.19.12-2.37.27-3.55.44C319.42,83,319.24,82.83,319.05,82.69Z"/><path class="cls-21" d="M360.84,97.28v.09l-.61-.5C360.44,97,360.64,97.14,360.84,97.28Z"/><path class="cls-21" d="M176.17,82.71c0,.05-.14.28-.35.69-.54,1-1.67,3.28-3.21,6.52l-1.08,2.31c-.64,1.29-1.32,2.72-2,4.26-2.58,5.62-5.58,12.85-8.87,21.17-.25.62-.51,1.25-.75,1.88-1.89,4.77-3.71,9.93-5.66,15.35-2.31,6.09-4,12.77-6.35,19.43-1.76,6.86-3.92,13.84-5.51,21.1-.5,2.2-1,4.41-1.52,6.63-1.14,5.07-2.2,10.2-2.9,15.39-.88,4.37-1.58,8.76-2.14,13.15-.39,3-.71,6-1,9.06-.68,5.29-1,10.53-1.29,15.68-.1,2-.18,3.91-.26,5.84a.86.86,0,0,0,0,.16l0,.42c-.36,5.12-.29,10.1-.19,14.92,0,1.69.07,3.36.1,5a150,150,0,0,0,1,18.29c.12,1.09.22,2.17.31,3.23.38,4.43.57,8.58,1,12.29.75,4.62,1.42,8.6,2,11.91a.77.77,0,0,1,0,.15c1,6.54,1.46,10.35,1.46,10.35s-1.41-3.56-3.67-9.94l-4-11.59c-.15-.46-.29-.93-.43-1.41,0,0,0,0,0-.06-.31-1.06-.6-2.15-.88-3.29-.82-3.3-1.56-6.9-2.39-10.7-.62-2.85-1.25-5.83-1.93-8.92-.14-1.33-.29-2.66-.44-4q-.3-2.79-.63-5.68c-.32-3.06-.71-6.2-1-9.4a2.28,2.28,0,0,1,0-.26q-.08-.69-.12-1.38a84.85,84.85,0,0,1-.31-10c0-4.59-.13-9.29,0-14a85.39,85.39,0,0,1,.63-8.56c.16-2.22.34-4.46.56-6.69.53-5.5,1.27-11,2.29-16.48,1.18-7.75,3.13-15.32,5-22.81,0-.14.06-.28.1-.42,1.7-7.32,4.49-14.24,6.58-21.1,2.67-6.79,5.09-13.44,8-19.47,2.73-6.11,5.55-11.75,8.41-16.84a227.43,227.43,0,0,1,14.94-23.79c2.84-4,5-6.55,6-7.69Z"/><path class="cls-21" d="M371.6,241.25a81.89,81.89,0,0,1-.18,8.46h0c-.07.9-.14,1.8-.22,2.69-.3,3.37-.71,6.67-1.06,9.88s-.73,6.55-1.06,9.7c-.69,3.09-1.31,6.07-1.93,8.92-.66,3-1.27,5.94-1.91,8.67-.05.24-.11.48-.17.72a.29.29,0,0,1,0,.09c-.5,2.11-1,4.11-1.63,6L359.48,308c-2.27,6.38-3.67,9.94-3.67,9.94s.43-3.87,1.48-10.5c.14-.88.29-1.8.45-2.77v0l1.6-10a.06.06,0,0,0,0,0c.51-4.37.67-9.29,1.25-14.55,0-.25.06-.49.08-.74a151.32,151.32,0,0,0,.9-17.55c0-1.76.06-3.54.1-5.35.07-3.68.13-7.45,0-11.31-.05-1.22-.11-2.45-.2-3.69,0-.72-.06-1.44-.1-2.17-.28-6.38-.63-12.91-1.47-19.51-.26-2.94-.57-5.9-.95-8.86-.56-4.45-1.26-8.92-2.16-13.35-.85-6.34-2.26-12.59-3.68-18.76l-.75-3.26c-1.58-7.26-3.74-14.24-5.51-21.1-2.33-6.66-4-13.34-6.35-19.43s-4.24-11.95-6.4-17.23c-2.87-7.26-5.53-13.69-7.87-18.94-.34-.77-.68-1.51-1-2.23-.71-1.54-1.39-3-2-4.26-.4-.87-.79-1.68-1.14-2.44l-.54-1.12h0c-1.3-2.71-2.24-4.56-2.67-5.41h0l-.27-.54.46.52c.93,1.06,3.14,3.7,6.1,7.83,1.11,1.61,2.38,3.42,3.74,5.43A193.5,193.5,0,0,1,340,114.85c2.86,5.09,5.69,10.73,8.42,16.84,2.9,6,5.32,12.68,8,19.47,1.27,4.15,2.78,8.33,4.16,12.6h0c.95,2.92,1.83,5.88,2.51,8.91,1.86,7.49,3.82,15.06,5,22.81,1,5.47,1.76,11,2.29,16.52q.33,3.33.55,6.65a90.37,90.37,0,0,1,.67,10.22C371.7,233.05,371.59,237.19,371.6,241.25Z"/><path class="cls-22" d="M361.32,144.37v17.21a23.49,23.49,0,0,1-23.48,23.49H258.26c28.62-1.85,72.9-7.11,91.18-21C356.31,158.77,358.41,153.06,361.32,144.37Z"/><path class="cls-22" d="M140.93,182.14a10.72,10.72,0,0,1-2.16-1.22,21.75,21.75,0,0,1-4.51-4.15,19.34,19.34,0,0,1-2.24-3.35,28.41,28.41,0,0,1-1.85-4.19,33.36,33.36,0,0,1-1.1-5,34.32,34.32,0,0,1-.26-5.72,35.48,35.48,0,0,1,.7-6.22,41.75,41.75,0,0,1,1.61-6.46,47.5,47.5,0,0,1,2.39-6.4c.45-1,.87-2,1.28-3,.56-1,1.07-2,1.58-2.95,1-1.9,1.91-3.61,2.92-5.19l2.68-4.11c1.43-2.13,2.31-3.4,2.42-3.55-.06.14-.56,1.32-1.52,3.31-.5,1.06-1.13,2.34-1.84,3.82s-1.14,3-1.88,4.78a44.32,44.32,0,0,0-2,5.5,56.18,56.18,0,0,0-1.64,5.9,51,51,0,0,0-1.14,6,34.7,34.7,0,0,0-.5,5.89,34.47,34.47,0,0,0,.08,5.59c.09,1.82.44,3.45.63,5.12.46,1.51.64,3.14,1.14,4.49a39.16,39.16,0,0,0,1.34,3.82,31.71,31.71,0,0,0,2.61,5.39C140.43,181.47,140.93,182.14,140.93,182.14Z"/></g><g id="cap"><path class="cls-23" d="M212.14,75.27C252.86-17.47,362.85-26.92,404.06,60.36c8.45,17.9,16.91,55.69,16.91,55.69l-8.46,7.45s-16.4-20.88-27.84-33.31A146,146,0,0,0,365,72.64c-2.88-2.14-4.69-3.33-4.69-3.33.92,13.66,1.91,70.44-10.45,65.13Z"/><path class="cls-24" d="M360.31,69.34a171.48,171.48,0,0,0-27-14.8c-5.85-2.3,22.52,22.63,1.45,73.41l15.11,6.49C362.21,139.75,361.23,83.07,360.31,69.34Z"/><path class="cls-24" d="M360.7,79c-.4,2.87-2.05,13.67-5,20-3.43,7.35-13.23,11.43-13.23,11.43s8.48,8.9,15.94,11.78C360.77,110,361,91.36,360.7,79Z"/><path class="cls-25" d="M363.86,113.43c9.94,10.87-4.77,44.84-20.62,42.23-39-6.4-107.84-26.74-139.63-47.7-16.51-10.89-6.56-47.23,10.44-54.16C230.62,47,346.65,94.58,363.86,113.43Z"/><path class="cls-24" d="M195.35,92.5c35.74,20.81,111.35,46.17,144.32,47.66,10.57.48,19.73-12.28,24-26.89a1.14,1.14,0,0,1,.15.16c9.94,10.87-4.77,44.84-20.62,42.23-39-6.4-107.84-26.74-139.63-47.7C198.59,104.65,196,99,195.35,92.5Z"/><path class="cls-25" d="M411,137.43c12.05,0,21.88-10.17,21.88-22.63S423.07,92.18,411,92.18s-21.88,10.16-21.88,22.62S399,137.43,411,137.43Z"/><path class="cls-24" d="M428.51,101.21a23,23,0,0,1,4.39,13.59c0,12.5-9.8,22.63-21.88,22.63a22.09,22.09,0,0,1-21.46-18.23,21.62,21.62,0,0,0,17.48,9c12.08,0,21.88-10.13,21.88-22.63A23.51,23.51,0,0,0,428.51,101.21Z"/><path class="cls-24" d="M364.6,136.28a33.29,33.29,0,0,1-20.18,11.36c-13.61,2.16-89.09-17.74-106.78-22.48,34.05,14.07,77.56,25.89,105.6,30.5C352.07,157.11,360.54,147.21,364.6,136.28Z"/></g></g></g></g></svg>