<svg xmlns="http://www.w3.org/2000/svg" xmlns:xlink="http://www.w3.org/1999/xlink" viewBox="0 0 444.8 772.66"><defs><style>.cls-1{isolation:isolate;}.cls-2{fill:#ffe8d5;}.cls-3,.cls-5,.cls-8{fill:#f2b9aa;}.cls-3,.cls-5,.cls-6,.cls-7{opacity:0.5;}.cls-4{fill:#8c8c8c;opacity:0.09;}.cls-10,.cls-11,.cls-12,.cls-4,.cls-5,.cls-6,.cls-7,.cls-9{mix-blend-mode:multiply;}.cls-6{fill:#f5e6c4;}.cls-10,.cls-11,.cls-12,.cls-9{opacity:0.2;}.cls-9{fill:url(#radial-gradient);}.cls-10{fill:url(#radial-gradient-2);}.cls-11{fill:url(#radial-gradient-3);}.cls-12{fill:url(#radial-gradient-4);}.cls-13{fill:#fff;}.cls-14{fill:#5571ad;}.cls-15{fill:#704f46;}.cls-16{fill:#c2a470;}.cls-17{fill:#866a54;}.cls-18{fill:#755d49;}.cls-19{fill:#62a97c;}.cls-20{fill:#58976a;}.cls-21{fill:none;stroke:#58976a;stroke-miterlimit:10;stroke-width:2px;}.cls-22{fill:#fee;}.cls-23{fill:#6d482f;}</style><radialGradient id="radial-gradient" cx="-108.71" cy="399.71" r="9.64" gradientTransform="translate(294.72 -259.06) scale(1.43 1.97)" gradientUnits="userSpaceOnUse"><stop offset="0" stop-color="#ffc6bd"/><stop offset="0.12" stop-color="#ffc7be" stop-opacity="0.98"/><stop offset="0.25" stop-color="#ffcac1" stop-opacity="0.94"/><stop offset="0.38" stop-color="#ffcec6" stop-opacity="0.86"/><stop offset="0.5" stop-color="#ffd4ce" stop-opacity="0.75"/><stop offset="0.63" stop-color="#ffddd7" stop-opacity="0.6"/><stop offset="0.76" stop-color="#ffe7e3" stop-opacity="0.43"/><stop offset="0.88" stop-color="#fff2f0" stop-opacity="0.23"/><stop offset="1" stop-color="#fff" stop-opacity="0"/></radialGradient><radialGradient id="radial-gradient-2" cx="11.1" cy="398.04" r="9.64" xlink:href="#radial-gradient"/><radialGradient id="radial-gradient-3" cx="-73.35" cy="462.9" r="9.64" xlink:href="#radial-gradient"/><radialGradient id="radial-gradient-4" cx="-22.1" cy="462.9" r="9.64" xlink:href="#radial-gradient"/></defs><g class="cls-1"><g id="Layer_2" data-name="Layer 2"><g id="Layer_1-2" data-name="Layer 1"><path class="cls-2" d="M97.93,280.4a74.13,74.13,0,0,0-4.45,6.75,146.3,146.3,0,0,1-3-18.06A26.17,26.17,0,0,1,97.93,280.4Z"/><path class="cls-2" d="M337.57,268.9a1,1,0,0,1,0,.25l-.08-.08A1.3,1.3,0,0,1,337.57,268.9Z"/><path class="cls-2" d="M337.57,268.9a1,1,0,0,1,0,.25l-.08-.08A1.3,1.3,0,0,1,337.57,268.9Z"/><path class="cls-2" d="M398.65,298.45c-3.78,23.44-21.49,39-39.54,34.68l-.45-.12a62.93,62.93,0,0,0,1.6-14.11c0-.95,0-1.89-.07-2.83a65.89,65.89,0,0,0-13.12-36.26l-.44-.57a149.72,149.72,0,0,0,2.18-25c6.95-5.62,15.44-8,24-6C390.87,252.53,402.44,275,398.65,298.45Z"/><path class="cls-3" d="M386.44,295.55c-2.3,14.25-13.36,23.66-24.66,21-.54-.13-1.07-.28-1.59-.46a65.89,65.89,0,0,0-13.12-36.26c4-10.77,13.45-17.25,23.06-15C381.43,267.52,388.74,281.29,386.44,295.55Z"/><path class="cls-2" d="M84.64,316.05c-.07,1.23-.11,2.47-.11,3.72a62.91,62.91,0,0,0,1.41,13.29l-.25.06c-18.06,4.29-35.77-11.24-39.55-34.68S53.92,252.53,72,248.25a26.36,26.36,0,0,1,17.76,2c0,1.16,0,2.32,0,3.49a148.94,148.94,0,0,0,.78,15.32,26.17,26.17,0,0,1,7.45,11.31,74.13,74.13,0,0,0-4.45,6.75A64.93,64.93,0,0,0,84.64,316.05Z"/><path class="cls-3" d="M97.93,280.4a74.13,74.13,0,0,0-4.45,6.75,64.93,64.93,0,0,0-8.84,28.9,15.24,15.24,0,0,1-1.63.48c-11.3,2.68-22.35-6.73-24.66-21s5-28,16.31-30.71a17.67,17.67,0,0,1,15.82,4.25A26.17,26.17,0,0,1,97.93,280.4Z"/><path class="cls-2" d="M337.57,268.9a1,1,0,0,1,0,.25l-.08-.08A1.3,1.3,0,0,1,337.57,268.9Z"/><path class="cls-2" d="M360.19,316.07a65.89,65.89,0,0,0-13.12-36.26l-.44-.57a149.72,149.72,0,0,0,2.18-25v-.49A144.39,144.39,0,0,0,322,169.33c-19.18-26.71-47.26-45.72-79.48-52a122.2,122.2,0,0,0-46.58,0A126,126,0,0,0,132.32,151c-25.43,24.65-41.67,60-42.58,99.33,0,1.16,0,2.32,0,3.49a148.94,148.94,0,0,0,.78,15.32,26.17,26.17,0,0,1,7.45,11.31,74.13,74.13,0,0,0-4.45,6.75,64.93,64.93,0,0,0-8.84,28.9c-.07,1.23-.11,2.47-.11,3.72a62.91,62.91,0,0,0,1.41,13.29c7.55,35.09,44.44,61.73,88.82,61.73,1.48,0,3,0,4.42-.09h0l.47.11a160.86,160.86,0,0,0,22.59,3.46c7.12.62,14.6.91,22.45.91,7.18,0,14-.23,20.54-.73a152.31,152.31,0,0,0,28.24-4.54l.18-.06h0c42.39-1.4,77.26-27.12,85-60.84a62.93,62.93,0,0,0,1.6-14.11C360.26,318,360.24,317,360.19,316.07Zm-22.62-46.92-.08-.08a1.3,1.3,0,0,1,.08-.17A1,1,0,0,1,337.57,269.15Z"/><ellipse class="cls-4" cx="222.4" cy="740.99" rx="222.4" ry="31.67"/><rect class="cls-2" x="188.39" y="419.74" width="73.85" height="156.61"/><polygon class="cls-2" points="255.85 443 293.73 527.6 301.43 524.16 325.56 513.38 279.95 429.45 264.45 438.17 255.85 443"/><path class="cls-2" d="M283.22,440.71a21,21,0,0,1-10,17.87,20.53,20.53,0,0,1-6,2.5,19.6,19.6,0,0,1-3.08.51c-.63.06-1.26.09-1.91.09a21,21,0,0,1-.85-41.92l.84,0h0a20.1,20.1,0,0,1,2.47.15,20.91,20.91,0,0,1,15.21,9.56.21.21,0,0,1,.06.08A20.3,20.3,0,0,1,281.3,432,20.66,20.66,0,0,1,283.22,440.71Z"/><polygon class="cls-5" points="255.85 443 293.73 527.6 301.43 524.16 264.45 438.17 255.85 443"/><path class="cls-2" d="M347.41,537.24c-6.25-3.92-12.52-7.59-18.43-11.94,6.14-1,25.2-4.87,20.62-11.95-2.44-3.77-8.63-1.82-12.33-1.35-3.94.5-7.9.88-11.86,1.11h0q-3.13.2-6.24.27a16.77,16.77,0,0,0-5.14-1,25.2,25.2,0,0,0-15.6,4.8h0c-.54.41-1.06.84-1.54,1.28a10.39,10.39,0,0,0-1.06,1.15h0l-.21.29-.2.3-.07.1a5.84,5.84,0,0,0-.33.53c-.12.21-.23.43-.33.65a10.84,10.84,0,0,0-.6,1.59c0,.09-.05.17-.07.26s-.05.19-.07.29a5.41,5.41,0,0,0-.12.58c-.05.23-.08.46-.12.7l-.06.61,0,.25a1.09,1.09,0,0,0,0,.18,1,1,0,0,0,0,.17,2.88,2.88,0,0,0,0,.41,4.56,4.56,0,0,0,0,.64v0c0,.34,0,.68.05,1a.22.22,0,0,0,0,.08c0,.36.06.73.1,1.1a.08.08,0,0,0,0,0,.06.06,0,0,1,0,0c0,.3.07.61.12.92a4.89,4.89,0,0,0,.09.53.4.4,0,0,0,0,.15,2,2,0,0,0,0,.24,27.8,27.8,0,0,0,.66,2.77l.21.72c.08.27.16.53.25.8l.15.45c.05.15.1.3.16.45l.3.86.42,1.09c.15.4.31.79.48,1.18s.32.78.5,1.16.23.51.34.76c.6,1.3,1.19,2.5,1.73,3.54h0a.52.52,0,0,0,.33.26c-.11.71-.21,1.42-.31,2.13,0,.21-.06.42-.08.62-.05.4-.11.81-.16,1.21,0,.12,0,.24,0,.36-.06.51-.12,1-.17,1.51s-.09.95-.13,1.42c0,.13,0,.25,0,.36,0,.55-.07,1.12-.1,1.67,0,.19,0,.39,0,.58,0,.93,0,1.85,0,2.77,0,.31,0,.61.05.91s.06.84.11,1.25.08.68.13,1l0,.23c.07.46.15,1,.25,1.56.07.38.15.77.25,1.17a3.74,3.74,0,0,0,.12.45c0,.13.07.26.11.39a.84.84,0,0,0,.05.17c0,.11.07.22.11.32s.1.29.16.43.08.19.11.28a5.52,5.52,0,0,0,.26.55c.05.09.11.17.15.26l.08.13a.75.75,0,0,0,.07.12c.11.16.22.32.34.47a3.88,3.88,0,0,0,.39.42,2.09,2.09,0,0,0,.28.24l.25.18a3.36,3.36,0,0,0,1.22.53,4.69,4.69,0,0,0,.94.11,2.69,2.69,0,0,0,.4,0h0l.24,0,.28-.08H305a1.62,1.62,0,0,0,.42-.2l.24-.16.16-.12a2.44,2.44,0,0,0,.29-.27,1.59,1.59,0,0,0,.2-.24,1.83,1.83,0,0,1,.13-.16,4.15,4.15,0,0,0,.32-.53,3,3,0,0,0,.18-.36c.06-.12.11-.24.16-.37s0,0,0,0c.07-.19.14-.38.2-.57v0c.18-.53.33-1.07.47-1.59a82.9,82.9,0,0,0,2.63-14.84c.23,1.11.46,2.22.71,3.34h0c.1.46.21.91.32,1.37s.22.92.34,1.37.2.8.31,1.2.14.54.22.8.15.53.23.79.23.78.35,1.17l.22.7c.07.24.15.47.23.7s.25.76.39,1.14.32.9.49,1.34a0,0,0,0,0,0,0c.17.44.34.88.52,1.31,0,.09.07.18.11.27.13.32.26.64.4.95a2.8,2.8,0,0,0,.15.3c0,.09.09.18.14.27s.15.3.23.44l.21.36a2.64,2.64,0,0,0,.23.35c.13.19.26.36.39.53,0,0,0,0,0,0l0,0a6.64,6.64,0,0,0,.51.55h0a4.31,4.31,0,0,0,1,.73l.19.1a3.91,3.91,0,0,0,1.37.42h.06l.22,0a1.69,1.69,0,0,0,.39,0h.21l.22,0,.46-.08.25-.05.2-.06.18-.06.1,0a2.52,2.52,0,0,0,.33-.13l.24-.11h0a1,1,0,0,0,.23-.12l.06,0a2.61,2.61,0,0,0,.28-.17l.08-.05.29-.23.1-.09a1.94,1.94,0,0,0,.2-.21l.2-.25.17-.25,0,0,0,0,0-.1.12-.22a.06.06,0,0,1,0-.05l.09-.23c0-.12.07-.25.11-.37s.08-.29.11-.45a13.79,13.79,0,0,0-.17-4.23,129.46,129.46,0,0,0-3.24-15.34c1.08,1.61,2.15,3.22,3.18,4.85,0,0,0,0,0,0q1.29,2,2.53,4.11c.22.36.43.73.64,1.11s.41.77.62,1.16l.62,1.18c.21.4.41.79.63,1.18l.48.88c.08.14.16.28.25.42l.26.42.21.32c.08.13.16.26.25.38s.27.39.42.58.37.49.57.73a7,7,0,0,0,.6.62l.42.37.46.36c.11.09.23.17.35.25l.15.09.32.2a3.62,3.62,0,0,0,.43.24l.4.2a3.05,3.05,0,0,0,.46.2l.18.06.42.14.38.1a3.4,3.4,0,0,0,.46.09l.43.06.45,0,.38,0,.39,0a4.28,4.28,0,0,0,1.09-.33L340,567l.33-.2h0l.38-.29a2.35,2.35,0,0,0,.33-.3,2,2,0,0,0,.2-.21s0,0,0,0v0l.13-.17a.92.92,0,0,0,.13-.19,1.57,1.57,0,0,0,.14-.25,2.14,2.14,0,0,0,.1-.22,1.17,1.17,0,0,0,.09-.24,2.24,2.24,0,0,0,.1-.37,2.2,2.2,0,0,0,.06-.37h0c.22-2.1-1.23-4.53-2.1-6.27a177.84,177.84,0,0,0-9.06-16.67c1.06.67,2.61,1.64,4.46,2.71h0c.86.49,1.77,1,2.73,1.54h0l.95.51a1.55,1.55,0,0,0,.22.12c.4.22.79.43,1.2.63l.6.3.38.19c.28.15.57.29.85.42l.62.29c.62.29,1.23.57,1.85.84s.94.4,1.41.59l.8.31.78.29,0,0,.73.25.44.14.44.13.44.12c.09,0,.17,0,.25.08l.55.13c.38.09.75.16,1.11.23l.22,0,.22,0,.2,0,.31,0,.24,0h.8l.37,0,.32,0h.13a3.26,3.26,0,0,0,.47-.09h.06l0,0,.34-.1a3.52,3.52,0,0,0,.39-.16,2.87,2.87,0,0,0,.65-.41,3.45,3.45,0,0,0,.28-.26,1.94,1.94,0,0,0,.32-.42l.07-.11a0,0,0,0,0,0,0c.07-.14.14-.28.2-.43a3.37,3.37,0,0,0,.15-.48,2.21,2.21,0,0,0,.05-.25,2,2,0,0,0,.05-.26h0a3.88,3.88,0,0,0,.06-.7C357.81,542.64,350.93,539.45,347.41,537.24Z"/><path class="cls-5" d="M324.27,528.79c-6.45,1.33-14.71,0-20-4.1-.65-.5,0-1.74.78-1.44,2.91,1.12,5.6,2.58,8.66,3.3a46.45,46.45,0,0,0,10.33.9C324.78,527.46,325.06,528.62,324.27,528.79Z"/><path class="cls-5" d="M324.13,532.63C320,537.71,312.69,541.87,306,542c-.82,0-1.09-1.36-.3-1.61,3-1,6-1.51,8.82-2.87a46.9,46.9,0,0,0,8.6-5.78C323.7,531.27,324.65,532,324.13,532.63Z"/><path class="cls-5" d="M332.29,538.74c1.08,1.69,2.1,3.42,3.08,5.17,8,4.66,21.36,11.28,22.3,4.22C352.82,551.29,337.24,541.86,332.29,538.74Z"/><path class="cls-5" d="M322.72,544.74q1,3.64,1.79,7.33,1.29,2,2.53,4.11c1.61,2.69,2.89,6,4.95,8.36,1.77,2.06,5.53,4.14,8.36,2.27a3.53,3.53,0,0,0,1.71-2.67,3.55,3.55,0,0,1-.31.23c-2.83,1.86-6.59-.22-8.36-2.28-2.06-2.4-3.35-5.67-4.95-8.36C326.62,550.68,324.7,547.69,322.72,544.74Z"/><path class="cls-5" d="M311.09,552.92a70,70,0,0,0,4.15,13.14c1.11,2.49,3,4.83,6.26,4a3.93,3.93,0,0,0,3.22-3.3,4.81,4.81,0,0,1-1.82.85c-3.25.84-5.16-1.49-6.26-4a77.24,77.24,0,0,1-4.86-16.49C311.63,549.06,311.39,551,311.09,552.92Z"/><path class="cls-5" d="M299.52,545.36c-.8,5.32-1.49,10.76-.69,16,.38,2.47,1,7,4.2,7.67,2.58.57,3.63-1.17,4.28-3.08a3,3,0,0,1-2.89.63c-3.2-.7-3.82-5.19-4.19-7.67-.8-5.28-.11-10.71.68-16a.52.52,0,0,1-.32-.27c-2.93-5.65-7.6-16-4.77-23-5.4,6.91.09,19.14,3.37,25.49A.52.52,0,0,0,299.52,545.36Z"/><polygon class="cls-2" points="195.46 442.97 157.58 527.57 149.88 524.13 125.75 513.35 171.36 429.42 186.86 438.14 195.46 442.97"/><path class="cls-2" d="M210,440.68a21,21,0,0,1-21,21c-.65,0-1.28,0-1.91-.09a19.85,19.85,0,0,1-3.72-.68A21,21,0,0,1,170,431.93a20.3,20.3,0,0,1,1.31-2.43.21.21,0,0,1,.06-.08A20.91,20.91,0,0,1,185.73,420a21.35,21.35,0,0,1,3.32-.26l1.08,0A21,21,0,0,1,210,440.68Z"/><polygon class="cls-5" points="195.46 442.97 157.58 527.57 149.88 524.13 186.86 438.14 195.46 442.97"/><path class="cls-2" d="M157.75,526.5a8.43,8.43,0,0,0-.06-1c0-.2,0-.4-.07-.6a10.8,10.8,0,0,0-.21-1.16c0-.11,0-.23-.08-.34s-.09-.32-.14-.48a8.07,8.07,0,0,0-.55-1.44c-.1-.22-.21-.44-.33-.65h0c-.12-.21-.25-.41-.39-.62s-.28-.39-.42-.59v0a10.39,10.39,0,0,0-1.06-1.15,19.72,19.72,0,0,0-1.54-1.28h0a25.18,25.18,0,0,0-15.6-4.8,16.64,16.64,0,0,0-5.13,1c-2.08-.05-4.17-.14-6.25-.27h0c-4-.23-7.92-.61-11.86-1.11-3.7-.47-9.88-2.42-12.32,1.35-4.59,7.08,14.47,11,20.61,11.95-5.9,4.35-12.17,8-18.42,11.94-3.52,2.21-10.41,5.4-10.32,10.18a3.88,3.88,0,0,0,.06.7,2.6,2.6,0,0,0,.1.5,2.13,2.13,0,0,0,.07.27,1.72,1.72,0,0,0,.07.21.77.77,0,0,0,.07.16,2.75,2.75,0,0,0,.88,1.15,1.37,1.37,0,0,0,.21.15,1.38,1.38,0,0,0,.29.17,2,2,0,0,0,.36.16,4.39,4.39,0,0,0,.58.18l.11,0,.12,0,.23,0a7.67,7.67,0,0,0,1.86,0,2.78,2.78,0,0,0,.39,0h.11l.23,0,.27,0c.35-.06.7-.14,1.06-.22l.55-.13.56-.16.57-.17.44-.14.44-.15c.29-.1.58-.2.88-.32,1.2-.45,2.44-1,3.67-1.54l.62-.28.62-.3c.28-.13.57-.27.85-.42l.38-.19.6-.3.6-.31a3.07,3.07,0,0,1,.31-.17l.29-.15a1.55,1.55,0,0,0,.22-.12l.37-.2,1.15-.63q.86-.47,1.65-.93c.18-.09.35-.19.52-.29,1.84-1.08,3.41-2,4.48-2.72a177.93,177.93,0,0,0-9.07,16.67c-.87,1.74-2.32,4.17-2.1,6.27a3.47,3.47,0,0,0,.28,1,.8.8,0,0,0,.08.16,1.27,1.27,0,0,0,.12.23.25.25,0,0,0,0,.07,1.36,1.36,0,0,0,.12.17,3.23,3.23,0,0,0,.35.4,4,4,0,0,0,.72.6,4.51,4.51,0,0,0,3.33.65,6.34,6.34,0,0,0,.84-.19l.42-.13.38-.15.14-.06.29-.14q.26-.12.51-.27l.34-.21.15-.09a.57.57,0,0,0,.13-.08c.12-.08.24-.16.35-.25a11,11,0,0,0,.88-.73l.07-.06.28-.28.25-.29c.2-.24.4-.48.58-.73s.45-.62.66-.95l.21-.32.35-.58c.12-.2.24-.4.35-.6,1-1.73,1.83-3.56,2.8-5.18q1.24-2.07,2.53-4.11c1-1.64,2.11-3.26,3.19-4.88a129.46,129.46,0,0,0-3.24,15.34,13.71,13.71,0,0,0-.16,4.22,4.9,4.9,0,0,0,.13.55,4.6,4.6,0,0,0,.19.52s0,0,0,0a.75.75,0,0,0,.07.12,3.5,3.5,0,0,0,.36.58l.24.28a3.45,3.45,0,0,0,.28.26l.07.06.08,0,.16.13a2.61,2.61,0,0,0,.28.17l.06,0a1,1,0,0,0,.23.12l.33.14a1.89,1.89,0,0,0,.21.09l.14,0,.19.06.19.06.25.05.19,0,.23,0,.32,0,.31,0a3.4,3.4,0,0,0,.45,0h.06a2.28,2.28,0,0,0,.39-.06l.29-.08h0l.07,0a2.26,2.26,0,0,0,.39-.15l.18-.09h0a2,2,0,0,0,.25-.14l.14-.08a2.6,2.6,0,0,0,.36-.25l0,0,.19-.16L134,569l.06-.06.36-.36A5.75,5.75,0,0,0,135,568c.16-.24.32-.48.47-.74s.28-.52.41-.78a2.87,2.87,0,0,0,.2-.39c.14-.31.28-.63.4-.95,0-.09.08-.18.11-.27.23-.55.44-1.1.65-1.66.1-.25.19-.5.28-.76s.17-.48.25-.72c.17-.48.33-1,.48-1.45s.27-.85.4-1.27l.24-.83c.13-.44.25-.88.37-1.33l.3-1.15q.34-1.38.66-2.76c.25-1.12.49-2.23.71-3.34a82.9,82.9,0,0,0,2.63,14.84c.14.52.29,1.06.47,1.59v0c.08.25.17.48.26.71l.15.34a5.75,5.75,0,0,0,.36.65,4.75,4.75,0,0,0,.57.69,3.11,3.11,0,0,0,.28.23,4,4,0,0,0,.44.27l.21.09.07,0,.12,0h.06l.34.07.12,0,.3,0h.23a4,4,0,0,0,.74-.1,2.7,2.7,0,0,0,.57-.18,4,4,0,0,0,1.18-.77l.29-.31a4,4,0,0,0,.27-.34l.17-.24.08-.13c.08-.12.15-.25.22-.38s.17-.35.25-.53a.61.61,0,0,0,.05-.12c.08-.18.15-.37.21-.55s.09-.25.13-.38a1,1,0,0,0,.05-.16l.12-.43c0-.14.08-.28.11-.42.1-.4.18-.79.25-1.17.1-.57.18-1.11.25-1.57a41.3,41.3,0,0,0,0-10.54c-.1-.92-.21-1.83-.33-2.74l-.21-1.48-.18-1.27a.44.44,0,0,0,.25-.17.36.36,0,0,0,.07-.1c.57-1.11,1.21-2.39,1.85-3.79.32-.7.64-1.43.94-2.18l.1-.27q.3-.72.57-1.47c.22-.59.43-1.19.63-1.79.09-.27.17-.52.25-.79l.12-.41h0c.24-.82.45-1.64.62-2.46s.31-1.65.41-2.46c0-.41.09-.81.11-1.21h0c0-.35.05-.7.05-1.05v0A4.66,4.66,0,0,0,157.75,526.5Z"/><path class="cls-5" d="M127,528.76c6.44,1.33,14.71,0,20-4.1.65-.5,0-1.74-.78-1.44-2.91,1.12-5.6,2.58-8.66,3.3a46.45,46.45,0,0,1-10.33.9C126.53,527.43,126.25,528.6,127,528.76Z"/><path class="cls-5" d="M127.18,532.6c4.18,5.08,11.44,9.24,18.13,9.36.82,0,1.09-1.36.3-1.61-3-1-6-1.51-8.82-2.87a46.9,46.9,0,0,1-8.6-5.78C127.61,531.24,126.66,532,127.18,532.6Z"/><path class="cls-5" d="M119,538.71c-1.08,1.69-2.1,3.42-3.08,5.17-8,4.66-21.36,11.28-22.3,4.22C98.49,551.26,114.07,541.83,119,538.71Z"/><path class="cls-5" d="M128.59,544.71q-1,3.64-1.79,7.33-1.29,2-2.53,4.11c-1.61,2.69-2.89,6-5,8.36-1.77,2.06-5.53,4.14-8.36,2.27a3.53,3.53,0,0,1-1.71-2.67,3.55,3.55,0,0,0,.31.23c2.83,1.86,6.59-.22,8.36-2.28,2.06-2.4,3.35-5.67,5-8.36C124.69,550.65,126.61,547.66,128.59,544.71Z"/><path class="cls-5" d="M140.22,552.89A70,70,0,0,1,136.07,566c-1.11,2.49-3,4.83-6.26,4a3.93,3.93,0,0,1-3.22-3.3,4.81,4.81,0,0,0,1.82.85c3.25.84,5.16-1.49,6.26-4a77.24,77.24,0,0,0,4.86-16.49C139.68,549,139.92,551,140.22,552.89Z"/><path class="cls-5" d="M151.79,545.33c.8,5.32,1.49,10.76.69,16-.38,2.47-1,7-4.2,7.67-2.58.57-3.63-1.17-4.28-3.08a3,3,0,0,0,2.89.63c3.2-.7,3.82-5.19,4.19-7.67.8-5.28.11-10.71-.68-16a.52.52,0,0,0,.32-.27c2.93-5.65,7.6-16,4.77-23,5.4,6.91-.09,19.14-3.37,25.49A.52.52,0,0,1,151.79,545.33Z"/><polygon class="cls-2" points="206.77 710.32 206.76 710.32 206.76 710.26 206.77 710.32"/><polygon class="cls-2" points="219.11 554.43 219.1 556.09 218.96 575.54 218.95 576.35 218.81 597.49 218.75 607.2 218.47 650.4 218.58 597.49 218.63 576.35 218.63 574.91 218.67 556.09 218.67 554.43 219.11 554.43"/><polygon class="cls-2" points="206.77 710.32 206.76 710.32 206.76 710.26 206.77 710.32"/><path class="cls-2" d="M220.92,730l-2.58-18.48-.17-1.22h-.11v-.92l.4-58.46v-.49l.11-52.91,0-21.14v-1.44l0-18.82v-1.66H172.22c-.1.55-.21,1.1-.32,1.65h0q-1.87,9.7-4,18.61l-.09.37v.47l.62,22,.27,9.71,2.88,102.94v.54l-4.92,15.47c-2.13,6.06.26,13.36,4.39,14.56a4.36,4.36,0,0,0,1.09.18l9.22.18h0l11.92.23,11.57.23h.44l9.66.19a4.23,4.23,0,0,0,2.46-.76c.18-.12.36-.27.53-.41C220.27,738.57,221.61,734.32,220.92,730Zm-14.15-19.65h0v0Z"/><polygon class="cls-6" points="206.77 710.32 206.76 710.32 206.76 710.26 206.77 710.32"/><polygon class="cls-6" points="218.47 650.88 218.34 711.49 218.18 710.26 218.06 710.26 218.07 709.79 218.47 650.88"/><g class="cls-7"><path class="cls-8" d="M202.82,729.8l-.34.57c-.21.36-.49.89-.82,1.52a21.15,21.15,0,0,0-.94,2.19c-.15.4-.26.82-.38,1.25a7,7,0,0,0-.18,1.3,4.09,4.09,0,0,0,.55,2.46,3.81,3.81,0,0,0,.4.5,2.35,2.35,0,0,0,.46.43,5,5,0,0,0,1.07.66,3.7,3.7,0,0,0,.54.24c.18.06.34.14.51.19.33.09.62.19.87.24.5.11.79.19.79.19l-.83-.07c-.26,0-.57-.09-.93-.15a8.59,8.59,0,0,1-1.18-.33,5.1,5.1,0,0,1-1.25-.64,4,4,0,0,1-1.08-1,3.6,3.6,0,0,1-.59-1.31,4.57,4.57,0,0,1-.13-1.42,10.43,10.43,0,0,1,1.89-4.85A15.19,15.19,0,0,1,202.82,729.8Z"/><path class="cls-8" d="M192.92,729.87l-.22.52c-.15.33-.32.8-.55,1.37a23.66,23.66,0,0,0-1.25,4.18,8.12,8.12,0,0,0-.11,2.24,5.22,5.22,0,0,0,.24,1,3.37,3.37,0,0,0,.47.83,1.81,1.81,0,0,0,.29.33,1.4,1.4,0,0,0,.32.28,4.16,4.16,0,0,0,.6.4l.61.28-.18,0c-.11,0-.3-.06-.51-.14a5.2,5.2,0,0,1-.72-.32,2.48,2.48,0,0,1-.4-.26,2.57,2.57,0,0,1-.4-.34,3.11,3.11,0,0,1-.64-.87,3.7,3.7,0,0,1-.37-1.09,4.63,4.63,0,0,1-.1-1.18,8.11,8.11,0,0,1,.11-1.2,13.32,13.32,0,0,1,1.62-4.22c.31-.55.62-1,.83-1.3S192.92,729.87,192.92,729.87Z"/><path class="cls-8" d="M183.32,730s-.1.17-.26.47-.38.72-.65,1.24a24.93,24.93,0,0,0-1.57,3.82c-.1.34-.19.7-.26,1a7.48,7.48,0,0,0-.14,1,5.83,5.83,0,0,0,.14,1.82,7.34,7.34,0,0,0,.24.71,4.21,4.21,0,0,0,.29.53c.19.29.31.45.31.45l-.12-.1c-.07-.06-.2-.16-.33-.29a4.34,4.34,0,0,1-.83-1.21,4.65,4.65,0,0,1-.4-1.93,5.67,5.67,0,0,1,.08-1.08,10.62,10.62,0,0,1,.24-1.12,13.6,13.6,0,0,1,1.94-3.83A12.32,12.32,0,0,1,183.32,730Z"/><path class="cls-8" d="M174.81,730.8l-.33.39c-.21.24-.49.6-.81,1a17,17,0,0,0-1,1.5c-.18.28-.32.58-.49.88s-.31.6-.41.91a5.91,5.91,0,0,0-.34.94l-.15.46-.09.46a4.72,4.72,0,0,0-.14.88,4.4,4.4,0,0,0-.06.79c0,.25,0,.47,0,.68s0,.37.06.52,0,.46,0,.46-.08-.16-.19-.44l-.19-.52a5.33,5.33,0,0,1-.15-.68,2.76,2.76,0,0,1-.08-.83,3.59,3.59,0,0,1,0-.92,4.35,4.35,0,0,1,.19-1,5.32,5.32,0,0,1,.33-1,8.31,8.31,0,0,1,.46-1,9.65,9.65,0,0,1,.56-.89,11.13,11.13,0,0,1,1.25-1.46A8.86,8.86,0,0,1,174.81,730.8Z"/></g><path class="cls-5" d="M205.3,741.54l9.69.19a4.23,4.23,0,0,0,2.46-.76,5,5,0,0,0,.53-.41c2.29-2,3.63-6.24,2.94-10.59l-2.58-18.48-.17-1.22h-.11v-.92l.4-58.46v-.49l.16-75.49,0-20.47h-11.9V710.32l.06.43.44,3.15.81,5.86,1.15,8.22a11,11,0,0,1,.42,2,.9.9,0,0,0,0,.16v0c0,.4.06.81.06,1.22a8.27,8.27,0,0,1-.05,1,0,0,0,0,1,0,0v.13c0,.32.05.64.05,1a9.39,9.39,0,0,1-3,6.89A8.5,8.5,0,0,1,205.3,741.54Z"/><polygon class="cls-2" points="243.86 710.32 243.87 710.32 243.87 710.27 243.86 710.32"/><polygon class="cls-2" points="232.16 650.4 231.88 607.2 231.82 597.49 231.68 576.35 231.67 575.54 231.53 556.09 231.52 554.44 231.96 554.44 231.96 556.09 232 574.91 232 576.35 232.05 597.49 232.16 650.4"/><polygon class="cls-2" points="243.86 710.32 243.87 710.32 243.87 710.27 243.86 710.32"/><path class="cls-2" d="M284,726.15,279,710.68v-.3l2.89-103.18.27-9.71.62-22v-.47l-.18-.75c-1.38-5.81-2.69-11.9-3.92-18.23-.11-.55-.21-1.1-.32-1.65H232v1.65l0,18.82v1.44l.05,21.14.11,52.91v.49l.4,58.46v.92h-.11l-.17,1.22L229.71,730c-.69,4.35.65,8.6,2.94,10.59a5,5,0,0,0,.53.41,4.23,4.23,0,0,0,2.46.76l9.67-.19h.43l11.57-.23,11.91-.23h0l9.23-.18C283.26,740.79,286.26,732.73,284,726.15Zm-40.08-15.83h0v0Z"/><polygon class="cls-6" points="243.86 710.32 243.87 710.32 243.87 710.27 243.86 710.32"/><polygon class="cls-6" points="232.16 650.89 232.29 711.49 232.46 710.27 232.57 710.27 232.56 709.8 232.16 650.89"/><g class="cls-7"><path class="cls-8" d="M247.82,729.8l.34.57c.21.36.49.89.81,1.52a19.13,19.13,0,0,1,.95,2.19c.14.4.26.82.37,1.25a7.15,7.15,0,0,1,.19,1.3,4.1,4.1,0,0,1-.56,2.46,3.07,3.07,0,0,1-.39.5,2.75,2.75,0,0,1-.46.44,5.37,5.37,0,0,1-1.07.65,3.7,3.7,0,0,1-.54.24c-.18.06-.34.14-.51.19-.34.09-.62.19-.88.25-.49.1-.78.18-.78.18l.82-.07c.26,0,.57-.09.93-.15a6.84,6.84,0,0,0,1.18-.33,5.16,5.16,0,0,0,1.26-.64,4,4,0,0,0,1.08-1,3.6,3.6,0,0,0,.59-1.31,4.86,4.86,0,0,0,.13-1.42,10.43,10.43,0,0,0-1.89-4.85A15.19,15.19,0,0,0,247.82,729.8Z"/><path class="cls-8" d="M257.71,729.87l.22.52c.15.33.33.81.55,1.37a23.62,23.62,0,0,1,1.26,4.18,8.53,8.53,0,0,1,.11,2.24,5.23,5.23,0,0,1-.25,1,3.17,3.17,0,0,1-.46.83,1.9,1.9,0,0,1-.3.33,1.6,1.6,0,0,1-.31.28,3.73,3.73,0,0,1-.61.4l-.6.28.17,0a3.75,3.75,0,0,0,.51-.14,4.79,4.79,0,0,0,.73-.32,2.48,2.48,0,0,0,.4-.26,2.07,2.07,0,0,0,.39-.34,3.35,3.35,0,0,0,.65-.87,4,4,0,0,0,.37-1.09,5.09,5.09,0,0,0,.1-1.18,8.11,8.11,0,0,0-.11-1.2,13.57,13.57,0,0,0-1.62-4.22c-.31-.55-.63-1-.83-1.29S257.71,729.87,257.71,729.87Z"/><path class="cls-8" d="M267.32,730l.26.47c.17.29.38.72.64,1.24a23.94,23.94,0,0,1,1.58,3.82,10,10,0,0,1,.25,1,9.47,9.47,0,0,1,.15,1,5.82,5.82,0,0,1-.15,1.82,4.22,4.22,0,0,1-.24.71,3.65,3.65,0,0,1-.28.53c-.19.29-.31.45-.31.45l.11-.1a3.14,3.14,0,0,0,.34-.29,4.34,4.34,0,0,0,.83-1.21,4.8,4.8,0,0,0,.4-1.92,5.72,5.72,0,0,0-.08-1.09,10.66,10.66,0,0,0-.25-1.12,13.34,13.34,0,0,0-1.94-3.83A12.86,12.86,0,0,0,267.32,730Z"/><path class="cls-8" d="M275.83,730.8l.33.39c.21.24.49.6.81,1s.65.94,1,1.5c.17.28.32.58.49.88s.31.6.41.91a7.64,7.64,0,0,1,.34.94c.05.16.09.31.14.46l.09.46a4.77,4.77,0,0,1,.15.88,4.36,4.36,0,0,1,.05.79c0,.25,0,.48,0,.68s0,.37-.06.52,0,.46,0,.46.07-.16.18-.44.13-.32.2-.51.1-.44.15-.69a3.12,3.12,0,0,0,.08-.83,3.2,3.2,0,0,0,0-.92,5,5,0,0,0-.18-1,5.57,5.57,0,0,0-.33-1,10.4,10.4,0,0,0-.46-1c-.17-.31-.38-.61-.57-.89a10.39,10.39,0,0,0-1.24-1.46A9.51,9.51,0,0,0,275.83,730.8Z"/></g><path class="cls-5" d="M245.33,741.54l-9.69.19a4.23,4.23,0,0,1-2.46-.76,5,5,0,0,1-.53-.41c-2.29-2-3.63-6.24-2.94-10.59l2.58-18.48.17-1.22h.11v-.92l-.4-58.46v-.49L232,574.91l0-20.47h11.9V710.32l-.06.43-.44,3.15-.81,5.86L241.4,728a11,11,0,0,0-.42,2,.9.9,0,0,1,0,.16v0c0,.4-.06.81-.06,1.22a8.27,8.27,0,0,0,.05,1,0,0,0,0,0,0,0v.13c0,.32-.05.64-.05,1a9.39,9.39,0,0,0,3,6.89A8.5,8.5,0,0,0,245.33,741.54Z"/><rect class="cls-2" x="200.58" y="385.13" width="49.48" height="40.49"/><path class="cls-5" d="M250.06,398.1v12.58a201.25,201.25,0,0,1-22.71,1.18,192.72,192.72,0,0,1-25.84-1.61c-.31,0-.62-.08-.93-.14V397.77a192.72,192.72,0,0,0,25.84,1.61A202.82,202.82,0,0,0,250.06,398.1Z"/><ellipse class="cls-9" cx="139.05" cy="529.24" rx="16.37" ry="14.64"/><ellipse class="cls-10" cx="310.61" cy="525.94" rx="16.37" ry="14.64"/><ellipse class="cls-11" cx="189.68" cy="653.86" rx="16.37" ry="14.64"/><ellipse class="cls-12" cx="263.08" cy="653.86" rx="16.37" ry="14.64"/><polygon class="cls-2" points="278.73 556.09 171.9 556.09 177.51 509.68 181.92 473.2 183.42 460.88 185.73 441.75 185.86 440.68 185.9 440.38 186.21 437.77 188.39 419.74 262.24 419.74 264.47 438.16 264.48 438.26 264.72 440.27 264.77 440.68 267.24 461.08 268.46 471.19 273.12 509.68 278.73 556.09"/><polygon class="cls-13" points="273.12 509.68 177.51 509.68 185.86 440.68 264.77 440.68 273.12 509.68"/><path class="cls-13" d="M282.83,575.07v.47l-.62,22H231.82l-.14-21.14H219l-.14,21.14H168.43l-.62-22v-.47l.09-.37q2.13-8.9,4-18.61h0l2-15.48H277l1.71,15.49c1.23,6.33,2.54,12.42,3.92,18.23Z"/><g id="shoes"><rect class="cls-13" x="235.61" y="697.9" width="40.96" height="29.15" rx="8.74" transform="translate(512.19 1424.96) rotate(-180)"/><path class="cls-14" d="M231.35,740.81a4.65,4.65,0,0,0,3.06,1.2l10.34-.21h0l33.56-.66a4.6,4.6,0,0,0,1.44-.27,5.12,5.12,0,0,0,.85-.41,5.79,5.79,0,0,0,.59-.42c.18-.14.36-.31.54-.48a7.27,7.27,0,0,0,.79-.94c.14-.2.27-.39.4-.61a8.91,8.91,0,0,0,.62-1.19c.1-.21.19-.44.28-.67a14.27,14.27,0,0,0,.79-3.23,15.17,15.17,0,0,0-.68-6.88l-5.05-15.86v-.29l0-1H231.25v.86h-.11L231,711l-2.63,18.89V730C227.63,734.41,229,738.77,231.35,740.81Zm40.82-28.71a18.64,18.64,0,0,1-34.34,0Z"/><path class="cls-15" d="M231.34,740.81c.18.15.36.29.55.42a4.36,4.36,0,0,0,2.52.78l10.34-.21h0l33.56-.65c3.93-.09,6.69-5.41,6.4-11-.67,4.25-3.06,7.69-6.23,7.77l-33.55.65h0l-10.35.21a4.36,4.36,0,0,1-2.52-.78,5.24,5.24,0,0,1-.54-.42c-1.78-1.55-3-4.45-3.18-7.7V730C227.62,734.41,229,738.77,231.34,740.81Z"/><rect class="cls-14" x="235.19" y="714.3" width="39.29" height="2.44" transform="translate(347.3 1469.42) rotate(-167.39)"/><rect class="cls-14" x="237.66" y="714.47" width="36.67" height="2.44" transform="translate(-148.12 71.92) rotate(-12.44)"/><path class="cls-13" d="M229.73,734.28a8.84,8.84,0,0,0,2.41,3.85,3.89,3.89,0,0,0,.52.41,4.23,4.23,0,0,0,2.46.76l10.09-.2h0l32.72-.63c2.11-.05,3.85-1.62,5-3.93a38.58,38.58,0,0,0-24-10.59,17.68,17.68,0,0,1-3.88.42,18.15,18.15,0,0,1-3.14-.28A38.61,38.61,0,0,0,229.73,734.28Z"/><rect class="cls-13" x="173.6" y="697.9" width="40.96" height="29.15" rx="8.74"/><path class="cls-14" d="M221.83,730v-.06L219.19,711l-.17-1.24h-.11v-.86H171.23l0,1v.29L166.23,726a15.32,15.32,0,0,0-.69,6.88,14.83,14.83,0,0,0,.8,3.23c.09.23.18.46.27.67a12.08,12.08,0,0,0,.62,1.19c.14.22.27.41.41.61a7.27,7.27,0,0,0,.79.94c.18.17.36.34.54.48a4.86,4.86,0,0,0,.59.42,5.12,5.12,0,0,0,.85.41,4.6,4.6,0,0,0,1.44.27l33.55.66h0l10.35.21a4.65,4.65,0,0,0,3.06-1.2C221.17,738.77,222.54,734.41,221.83,730Zm-9.49-17.85a18.64,18.64,0,0,1-34.34,0Z"/><path class="cls-15" d="M218.82,740.81c-.17.15-.36.29-.54.42a4.36,4.36,0,0,1-2.52.78l-10.35-.21h0l-33.55-.65c-3.94-.09-6.69-5.41-6.41-11,.68,4.25,3.07,7.69,6.24,7.77l33.55.65h0l10.34.21a4.37,4.37,0,0,0,2.53-.78,6.59,6.59,0,0,0,.54-.42c1.78-1.55,3-4.45,3.18-7.7V730C222.54,734.41,221.17,738.77,218.82,740.81Z"/><rect class="cls-14" x="175.69" y="714.3" width="39.29" height="2.44" transform="translate(-151.5 59.91) rotate(-12.61)"/><rect class="cls-14" x="175.84" y="714.47" width="36.67" height="2.44" transform="translate(229.67 1456.41) rotate(-167.56)"/><path class="cls-13" d="M220.43,734.28a8.73,8.73,0,0,1-2.4,3.85,3.42,3.42,0,0,1-.53.41,4.21,4.21,0,0,1-2.46.76L205,739.1h0l-32.72-.63c-2.11-.05-3.85-1.62-5-3.93a38.58,38.58,0,0,1,24-10.59,18,18,0,0,0,7,.14A38.55,38.55,0,0,1,220.43,734.28Z"/></g><path id="pant" class="cls-16" d="M282.79,575.08v.47l-.62,22-.27,9.71-2.33,83H232.2l-.08-39.33v-.49l-.28-43.2-.06-9.71-.14-21.14H218.91l-.14,21.14-.06,9.71-.28,43.2v.49l-.08,39.33H171l-2.32-83-.27-9.71-.62-22v-.47l.09-.37q2.13-8.9,4-18.61h0l0-.12,5-41.35.6-4.93.35-2.92h94.91l.35,2.92.6,4.93,3.14,26H277l1.71,15.49c1.23,6.33,2.54,12.42,3.92,18.23Z"/><g id="hair"><path class="cls-17" d="M278.14,67.3c0,.22-.05.43-.07.66A63.28,63.28,0,0,1,277,74.24q-.21.93-.45,1.83a61.83,61.83,0,0,1-5.78,14.61,61.62,61.62,0,0,1-13.67,16.72,171.12,171.12,0,0,0-34.87-3.71c-1.44,0-2.88,0-4.31,0-.66,0-1.32,0-2,.06-1,0-2,.09-3,.15l-.54,0q-6,.36-11.94,1.19c-.62.08-1.25.17-1.88.28s-1.3.19-1.95.3a140.1,140.1,0,0,0-16.46,3.7,62.53,62.53,0,0,1-6.59-5.89l0,0c-.4-.4-.77-.81-1.14-1.21a61.5,61.5,0,0,1-7-9.21,58,58,0,0,1-3.66-6.88h0l-.33-.72,0-.06c-.11-.28-.23-.55-.35-.83a60.83,60.83,0,0,1-3.29-36.76A60.81,60.81,0,0,1,193.46,4.91h0c.89-.39,1.78-.74,2.69-1.08a60.39,60.39,0,0,1,9.22-2.63h0c.29-.07.57-.12.85-.17a0,0,0,0,1,0,0A60.38,60.38,0,0,1,221,.1c.69,0,1.39.1,2.08.17s1.38.13,2.08.22c1,.12,2,.27,3,.45.84.14,1.68.31,2.53.51a60.84,60.84,0,0,1,36.93,24.74l.75,1.09c.74,1.13,1.45,2.28,2.11,3.45a60.51,60.51,0,0,1,5.68,13.4,58.48,58.48,0,0,1,1.67,7.58c.1.6.19,1.21.27,1.82A60.32,60.32,0,0,1,278.14,67.3Z"/><path class="cls-18" d="M278.14,67.3c0,.22-.05.43-.07.66A63.28,63.28,0,0,1,277,74.24q-.21.93-.45,1.83a61.83,61.83,0,0,1-5.78,14.61,61.62,61.62,0,0,1-13.67,16.72,171.12,171.12,0,0,0-34.87-3.71c-1.44,0-2.88,0-4.31,0-.66,0-1.32,0-2,.06-1,0-2,.09-3,.15l-.54,0q-6,.36-11.94,1.19c-.62.08-1.25.17-1.88.28s-1.3.19-1.95.3a140.1,140.1,0,0,0-16.46,3.7,62.53,62.53,0,0,1-6.59-5.89l0,0,.09,0,1.44-.23c2.09-.34,4.16-.74,6.23-1.2q5-1.08,9.94-2.56a132.56,132.56,0,0,0,13.6-4.88A128.63,128.63,0,0,0,226.42,83s0,0,0,0c1.41-.93,2.79-1.88,4.14-2.88l0,0A120.24,120.24,0,0,0,270.4,30.73a60.51,60.51,0,0,1,5.68,13.4,58.48,58.48,0,0,1,1.67,7.58c.1.6.19,1.21.27,1.82A60.32,60.32,0,0,1,278.14,67.3Z"/><path class="cls-17" d="M222,11.7a2.24,2.24,0,0,1-3.12.37c-.88-.68-1.78-1.33-2.72-1.94l-.67-.41h0s-.05,0-.08,0l-.08-.05,0,0h0a2,2,0,0,0-.25-.14c-.45-.26-.91-.5-1.39-.74a31.94,31.94,0,0,0-3.1-1.4c-1.06-.42-2.14-.79-3.23-1.11a1.92,1.92,0,0,0-.32-.09,0,0,0,0,0,0,0,0,0,0,0,0,0,0h0l-.11,0c-.26-.06-.52-.14-.77-.19-.52-.13-1-.24-1.54-.34a41.4,41.4,0,0,0-6.73-.76c-.25,0-.49,0-.74,0h0s0,0,0,0h-.68l-1.58.06c-.42,0-.84.05-1.25.1h0c-.69,0-1.38.13-2.08.23-1.13.16-2.26.36-3.37.62l-.91.22a.69.69,0,0,0-.18,0l-.24.06c-.54.15-1.08.32-1.61.49a42.06,42.06,0,0,0-6.17,2.57c-.29.15-.58.29-.86.45-.07,0-.29.17-.42.23-.46.26-.92.53-1.37.81-1,.61-1.93,1.24-2.85,1.91a50.57,50.57,0,0,0-5.14,4.29l0,0-.09.08-.37.38-.5.49c-.39.41-.77.82-1.14,1.24-.78.85-1.51,1.73-2.22,2.64a44.67,44.67,0,0,0-3.75,5.45s0,0,0,0a.13.13,0,0,0,0,0l0,.05-.11.17c-.07.13-.14.25-.21.39s-.23.4-.34.61c-.28.51-.55,1-.81,1.54-.45.92-.88,1.84-1.28,2.78a52.43,52.43,0,0,0-2,5.84.59.59,0,0,1-.05.14h0s0,0,0,0a.08.08,0,0,0,0,0l0,.07a.24.24,0,0,0,0,.08s0,.07,0,.07c-.05.24-.12.48-.18.7-.11.5-.23,1-.34,1.49-.22,1-.4,2-.56,3a50.92,50.92,0,0,0-.59,6.17c0,.52,0,1.05,0,1.59,0,0,0,0,0,0v.2a.41.41,0,0,1,0,.11c0,.27,0,.53,0,.8,0,1,.07,2,.16,3a49.94,49.94,0,0,0,.88,6.11c.1.53.21,1.05.34,1.57,0,.24.11.47.17.7v.06a.19.19,0,0,1,0,.07.14.14,0,0,1,0,.06v0s0,0,0,0v0l0,.1c.26,1,.56,1.95.88,2.91s.73,2,1.15,3,.79,1.82,1.24,2.72c.23.47.48.94.73,1.41.07.13.14.28.22.42-.12-.18.23.39.28.47q.77,1.32,1.62,2.55a38,38,0,0,0,3.23,4.14c.2.26.43.5.65.74a1.9,1.9,0,0,1,.39,1.78,2.57,2.57,0,0,1-.84,1.33,2.19,2.19,0,0,1-2.86-.19h0c-.09-.07-.17-.16-.26-.24a3.58,3.58,0,0,1-.26-.29c-.34-.38-.67-.76-1-1.15s-.53-.62-.77-.93a49.5,49.5,0,0,1-10-23.81,55.22,55.22,0,0,1,2.58-25.91,53.08,53.08,0,0,1,16.06-22.94A45.13,45.13,0,0,1,194.31.39a43.32,43.32,0,0,1,11.07.81h0a38.8,38.8,0,0,1,16.26,7.38A2.25,2.25,0,0,1,222,11.7Z"/><path class="cls-17" d="M380.73,190.71C373,167,358.55,146,339.65,128.91q-6.07-5.49-12.75-10.41l-.51-.37a174.75,174.75,0,0,0-22.25-13.85,178.86,178.86,0,0,0-19.48-8.8q-6.84-2.62-13.91-4.71a182.22,182.22,0,0,0-19.4-4.57q-2.7-.48-5.42-.87-6.47-1-13-1.43c-2.42-.17-4.83-.3-7.26-.37-1.75,0-3.5-.08-5.26-.08a176.76,176.76,0,0,0-22,1.37q-5.76.71-11.43,1.78-6.76,1.28-13.39,3.06h0c-2.9.77-5.78,1.62-8.62,2.54l-1.2.39c-2,.65-3.92,1.33-5.85,2-2.56.93-5.09,1.93-7.59,3q-7.22,3-14.09,6.66A169.24,169.24,0,0,0,113,118.94c-19.24,14.42-35,32.71-45.35,53.82l0,0a130.82,130.82,0,0,0-13.46,57.42q0,5,.32,10c.16,2.27.37,4.56.65,6.87q.33,2.71.72,5.38c.19,1.4.41,2.79.63,4.17.09.56.19,1.11.29,1.67a30.27,30.27,0,0,1,15.92-10.11c14.37-3.41,28.52,5.73,35.61,21.43q0-5.2.19-10.33c.81-25.64,4.34-49.77,10.42-71.41a216.13,216.13,0,0,1,8.72-25.24,169.29,169.29,0,0,1,14-26.77s0,.09,0,.14a66.81,66.81,0,0,0,1.06,7.47q.54,2.64,1.27,5.23a76.75,76.75,0,0,0,7.82,18c17.89,30.38,57.34,54.58,106,62.85,2.11.36,4.22.7,6.37,1l1.55.2c3.67.5,7.41.89,11.19,1.19q4.71.38,9.36.54h0c1.86.07,3.7.11,5.56.13h.72c.33,0,.67,0,1,0a204.85,204.85,0,0,0,25.91-1.54l.91-.13,1.35-.18q4.83-.65,9.52-1.54c1.07-.19,2.15-.4,3.2-.62l1.42-.3,0,.25c.91,8,1.56,16.11,2,24.42.05.9.09,1.81.12,2.72.19,4.32.29,8.7.31,13.11a39.72,39.72,0,0,1,14.51-17,26.86,26.86,0,0,1,20.74-3.69,28.43,28.43,0,0,1,11.1,5.46c.38-2.17.71-4.36,1-6.57.35-2.53.62-5,.82-7.53,0-.69.1-1.38.14-2.07q.24-3.8.25-7.54A125.29,125.29,0,0,0,380.73,190.71Z"/><path class="cls-17" d="M338.3,269.11a.89.89,0,0,0,0-.23.8.8,0,0,0-.08.16S338.27,269.08,338.3,269.11Z"/><path class="cls-18" d="M127.66,162.67a216.13,216.13,0,0,0-8.72,25.24c-6.08,21.64-9.61,45.77-10.42,71.41q-.18,5.13-.19,10.33c-7.09-15.7-21.24-24.84-35.61-21.43A30.27,30.27,0,0,0,56.8,258.33c-.1-.56-.2-1.11-.29-1.67-.22-1.38-.44-2.77-.63-4.17,14.69-9.24,27.13-22.32,37.55-36.35C106,199.14,116.24,180.5,127.66,162.67Z"/><path class="cls-18" d="M352.81,251.91a39.72,39.72,0,0,0-14.51,17c0-4.41-.12-8.79-.31-13.11a267.83,267.83,0,0,0-2.08-27.14l0-.25a216.93,216.93,0,0,0-5-26C338.36,218.85,344.84,235.74,352.81,251.91Z"/><path class="cls-18" d="M94.67,317.07a25.37,25.37,0,0,1,.65-2.49c.93-3,2-5.93,3-8.93.76-2.24,1.53-4.5,2.23-6.8.15-.5.31-1,.46-1.5a158,158,0,0,0,5.21-21.14l.12-.76.21-1.43c.28-2.06.52-4.18.68-6.37,0-.19,0-.38.05-.57.1-1.4.17-2.83.22-4.3,0-.24,0-.49,0-.74,0-.54,0-1.09,0-1.64,0-.18,0-.35,0-.53v-.24c0-.58,0-1.16,0-1.73s0-1.35,0-2c.07.52.13,1,.2,1.59l0,.21c.08.75.16,1.5.23,2.23l0,.39c.07.74.13,1.47.17,2.19v.07c0,.57.07,1.13.1,1.69s.06,1.4.08,2.11c.05,1.76.06,3.5,0,5.22,0,.44,0,.87,0,1.31-.09,2.58-.27,5.11-.51,7.64-.49,5-1.23,9.93-2.06,15.1-.44,2.78-1,5.54-1.48,8.29-.35,1.85-.71,3.69-1,5.53a1.55,1.55,0,0,0,0,.21c-.14.78-.28,1.55-.41,2.33l-.36,2.27c0,.12,0,.24,0,.37-.18,1.23-.34,2.46-.47,3.68,0,.31-.07.62-.1.94v.15c0,.07,0,.14,0,.21-.1,1.15-.18,2.28-.22,3.41s0,2.29,0,3.42c0,.89.09,1.78.17,2.65s.23,2,.4,3c.07.4.15.79.24,1.19s.24,1,.38,1.57c0,0,0,0,0,.06.19.67.39,1.34.62,2l.18.49c.18.51.39,1,.61,1.54q.19.47.42.93c.21.44.43.87.66,1.3a11.7,11.7,0,0,1-4-1.42c-1.84-1.16-3.35-3.43-4.62-6.27A26.93,26.93,0,0,1,94.67,317.07Z"/><path class="cls-18" d="M352.06,317.07a25.29,25.29,0,0,0-.64-2.49c-.94-3-2-5.93-3-8.93-.77-2.24-1.53-4.5-2.24-6.8l-.45-1.5a156.47,156.47,0,0,1-5.21-21.14c0-.25-.09-.51-.12-.76-.08-.48-.15-.95-.21-1.43q-.44-3.09-.69-6.37c0-.19,0-.38,0-.57-.1-1.4-.18-2.83-.22-4.3,0-.24,0-.49,0-.74,0-.54,0-1.09,0-1.64,0-.18,0-.35,0-.53v-.24c0-.58,0-1.16,0-1.73s0-1.35,0-2c-.07.52-.14,1-.21,1.59,0,.07,0,.13,0,.21-.09.75-.17,1.5-.24,2.23l0,.39c-.06.74-.12,1.47-.17,2.19v.07c0,.57-.07,1.13-.1,1.69s-.06,1.4-.08,2.11c-.05,1.76-.06,3.5,0,5.22,0,.44,0,.87,0,1.31.09,2.58.27,5.11.52,7.64.48,5,1.22,9.93,2.05,15.1.44,2.78,1,5.54,1.48,8.29q.54,2.77,1,5.53a1.55,1.55,0,0,0,0,.21c.14.78.27,1.55.4,2.33s.25,1.52.36,2.27c0,.12,0,.24.05.37.18,1.23.34,2.46.47,3.68,0,.31.07.62.1.94v.15a1.49,1.49,0,0,1,0,.21c.11,1.15.18,2.28.22,3.41s.05,2.29,0,3.42c0,.89-.08,1.78-.17,2.65s-.22,2-.4,3c-.07.4-.15.79-.24,1.19s-.23,1-.38,1.57c0,0,0,0,0,.06-.18.67-.39,1.34-.62,2-.05.16-.11.32-.17.49-.19.51-.4,1-.62,1.54-.13.31-.27.62-.41.93s-.44.87-.67,1.3a11.63,11.63,0,0,0,4-1.42c1.85-1.16,3.36-3.43,4.62-6.27A26.85,26.85,0,0,0,352.06,317.07Z"/><path class="cls-18" d="M355.75,212.42a40.28,40.28,0,0,1-6.84,5.9c-4.59,3-11.14,7.55-19.79,10.33a67,67,0,0,1-14.23,3.55c-5.09,1.1-10.78,1-16.61,1.2-6-.88-12.07-.49-18.57-2.43-6.51-1.66-13.09-3.15-19.91-6.12a126.3,126.3,0,0,1-20.44-10.08c-6.76-3.21-13.57-8.76-20.16-13.47-6.52-4.29-12.92-10.54-19-16.07-3-2.79-5.9-5.47-8.77-8.07-2.83-3.2-5.56-6.16-8.18-9.06-5.22-5.83-10-11-14.18-16.4s-7.81-10.3-10.77-14.23c-5.56-7.53-8.81-12.1-9.2-12.66.42.36,3.84,3.55,9.49,9.27,3,3,6.63,6.74,10.83,11,4.19,4,8.9,7.63,14,12.33a161,161,0,0,0,16.44,13.52c5.82,4.34,12,9.24,18.19,12.88a183,183,0,0,0,19.25,11.31,124,124,0,0,0,19.57,9c6.55,3.1,12.95,4.77,19.25,6.6s12.36,2.74,18.31,4.17c5.74.27,11.53,1.67,16.78,1.62a140.45,140.45,0,0,0,14.74.09c9.07-.34,16.62-1,21.66-2.28C352.84,213.31,355.75,212.42,355.75,212.42Z"/><path class="cls-18" d="M253.36,220.43c-16,9-36.56,7-52.82-1.54s-28.83-22.77-39.2-37.92a147.6,147.6,0,0,1-15-27,94.15,94.15,0,0,1-4.72-14.66c-.58-2.5-1-5-1.37-7.57-.16-1.27-.29-2.55-.39-3.83,0-.2-.19-1.42.24-1,.25.26.19,1.6.25,2,1.54,10.31,6.85,19.62,12.6,28.14l.35.51c11.54,16.95,25.54,32.43,42.51,43.92S232.87,220.31,253.36,220.43Z"/><path class="cls-18" d="M161.29,94.22c13-13,33.29-16.64,51.26-12.85s33.92,14.1,48,25.87a147.64,147.64,0,0,1,21.77,22A94.72,94.72,0,0,1,290.87,142c1.23,2.24,2.35,4.55,3.36,6.91.51,1.18,1,2.38,1.42,3.58.07.19.57,1.32,0,1-.31-.19-.62-1.49-.78-1.85-4.28-9.51-11.91-17-19.76-23.66l-.48-.4c-15.7-13.18-33.37-24.3-52.83-30.75S181.05,88.77,161.29,94.22Z"/></g><g id="shirt"><path class="cls-19" d="M214.15,418.13,157.82,526.47,147,522l-21.89-9.09c12.92-69.22,37.71-91.61,58-97.33C198.43,411.19,211.2,416.48,214.15,418.13Z"/><path class="cls-20" d="M214.15,418.13,157.82,526.47,147,522c2.83-59.73,27.15-95.3,36.07-106.42C198.43,411.19,211.2,416.48,214.15,418.13Z"/><path class="cls-19" d="M236.63,418.13,293,526.47,303.81,522l21.89-9.09c-12.92-69.22-37.71-91.61-58-97.33C252.35,411.19,239.58,416.48,236.63,418.13Z"/><path class="cls-20" d="M236.63,418.13,293,526.47,303.81,522c-2.83-59.73-27.15-95.3-36.07-106.42C252.35,411.19,239.58,416.48,236.63,418.13Z"/><path class="cls-19" d="M288.36,514.29a275.78,275.78,0,0,1-2,28.36c-63.21,18.64-123.83-.24-123.83-.24a231.87,231.87,0,0,1-3.17-31.94c-1.73-62.47,24.66-96,24.66-96l79.29-3.09C285.9,438.58,289,484.6,288.36,514.29Z"/><path class="cls-19" d="M263,402.43v12.72a12,12,0,0,1-12,12h-55.3a12,12,0,0,1-12-12V402.43a11.92,11.92,0,0,1,2.62-7.46,165.17,165.17,0,0,0,16.7,2.23c7.12.63,14.6.91,22.45.91,7.18,0,14-.22,20.54-.72q7.77-.58,14.89-1.72A12,12,0,0,1,263,402.43Z"/><path class="cls-19" d="M263,405.9v9.25a12,12,0,0,1-12,12h-55.3a12,12,0,0,1-12-12V405.9c0,7.93,5.4,14.42,12,14.42H251C257.63,420.32,263,413.83,263,405.9Z"/><path class="cls-21" d="M185.85,415.09s37.94,15.42,75.07-1.93"/><path class="cls-22" d="M288.36,514.29a275.78,275.78,0,0,1-2,28.36c-63.21,18.64-123.83-.24-123.83-.24a231.87,231.87,0,0,1-3.17-31.94l.27-.46c3.78-6.25,10.64-10.45,17.57-9.95,6.71.49,12.47,5,18.15,8.82s12.43,7.26,18.91,5.35c3.69-1.09,6.75-3.78,10-5.92a38.92,38.92,0,0,1,26.46-6.17,18.8,18.8,0,0,1,6,1.68c2.47,1.25,4.49,3.32,6.53,5.27,4.5,4.3,10,8.42,16,7.74,2.62-.3,5.07-1.52,7.63-2.22A12.75,12.75,0,0,1,288.36,514.29Z"/><path class="cls-13" d="M238.25,471.87c-4.38-7.87-15.06-6.5-15.06-6.5-10.78.49-12.55,7.16-12.83,9.71a6.61,6.61,0,0,0-.05,1c6,9.61,14.3-.14,14.3-.14,6.55,9,14.45.51,14.45.51a5.32,5.32,0,0,0,.06-.81A12.17,12.17,0,0,0,238.25,471.87Zm-16.95-2.74a6.21,6.21,0,0,1,7.27,0,1.07,1.07,0,0,1,.38,1.25,7.16,7.16,0,0,1-1.57,2.55,4.2,4.2,0,0,1-4.3.31,5.16,5.16,0,0,1-2.18-2.8A1.05,1.05,0,0,1,221.3,469.13Z"/><path class="cls-13" d="M210.31,458.35a6,6,0,1,1-6-6A6,6,0,0,1,210.31,458.35Z"/><path class="cls-13" d="M252.24,458.35a6,6,0,1,1-6-6A6,6,0,0,1,252.24,458.35Z"/><path class="cls-13" d="M209.65,458.35a1.59,1.59,0,1,1-1.59-1.59A1.59,1.59,0,0,1,209.65,458.35Z"/><path class="cls-13" d="M251.58,458.35a1.59,1.59,0,1,1-1.59-1.59A1.58,1.58,0,0,1,251.58,458.35Z"/><path class="cls-13" d="M217.41,481.12c-.32,0-1.41,0-1.72-.07-4.25-.63-6.48-5.3-6.58-5.5a.54.54,0,0,1,.26-.71.53.53,0,0,1,.71.26s2.09,4.35,5.77,4.89c2.52.37,5.25-1.08,8.14-4.29a.5.5,0,0,1,.45-.18.57.57,0,0,1,.41.26s2.13,3.49,5.74,3.92c2.64.31,5.46-1,8.38-4a.55.55,0,0,1,.76,0,.54.54,0,0,1,0,.76c-3.17,3.23-5.76,4.73-8.75,4.37a10.93,10.93,0,0,1-6.67-3.88C221.68,479.71,219.88,481.12,217.41,481.12Z"/><path class="cls-13" d="M201.89,472a.59.59,0,0,1-.23-.05l-9-4.16a.55.55,0,0,1-.27-.71.55.55,0,0,1,.72-.27l9,4.17a.53.53,0,0,1,.26.71A.54.54,0,0,1,201.89,472Z"/><path class="cls-13" d="M202,474.64h-.07l-10,0a.53.53,0,0,1-.53-.53.54.54,0,0,1,.54-.54l10,0a.53.53,0,0,1,.53.53A.55.55,0,0,1,202,474.64Z"/><path class="cls-13" d="M192.85,481.61a.52.52,0,0,1-.49-.32.54.54,0,0,1,.28-.71l9-3.83a.54.54,0,0,1,.42,1l-9,3.83A.52.52,0,0,1,192.85,481.61Z"/><path class="cls-13" d="M254.81,468.36l-9.23,3.47a.53.53,0,1,1-.38-1l9.23-3.47a.53.53,0,0,1,.38,1Z"/><path class="cls-13" d="M255.87,474.42h-.07l-10,.4a.54.54,0,0,1-.56-.51.54.54,0,0,1,.52-.56l10-.4a.54.54,0,0,1,.11,1.07Z"/><path class="cls-13" d="M254.94,481.67a.53.53,0,0,1-.41,0l-8.82-3.82a.53.53,0,0,1,.42-1l8.83,3.82a.53.53,0,0,1,0,1Z"/><path class="cls-13" d="M207.7,487.21s17.34,8.63,33.2,0C240.9,487.21,227.43,501.42,207.7,487.21Z"/></g><g id="eyes"><path class="cls-23" d="M119.3,310.36a115.51,115.51,0,0,1,29.12-8.7c10.05-1.43,20.29-.87,30.32.41,2.76.35,5.08-2.6,5.11-5.12,0-3.05-2.39-4.76-5.11-5.11a120.66,120.66,0,0,0-33,0c-11,1.62-21.4,5.35-31.56,9.73-2.56,1.1-3.08,4.81-1.84,7,1.5,2.64,4.48,2.92,7,1.83Z"/><path class="cls-23" d="M328.59,303.15C318.43,298.77,308,295,297,293.42a120.2,120.2,0,0,0-33,0c-2.76.35-5.08,2.09-5.11,5.11,0,2.49,2.37,5.46,5.11,5.11,10-1.28,20.27-1.84,30.31-.4a115.05,115.05,0,0,1,29.13,8.7c2.55,1.1,5.45.73,7-1.84,1.29-2.14.7-5.9-1.83-7Z"/><path class="cls-23" d="M337.72,309.24a25.82,25.82,0,0,1-14.1,3.27,5.77,5.77,0,0,1-3.83-1.59,5.43,5.43,0,0,1,0-7.66,5.37,5.37,0,0,1,3.83-1.58,20.86,20.86,0,0,0,4.18-.14l-1.44.2a21.07,21.07,0,0,0,5.13-1.4l-1.29.54a19.41,19.41,0,0,0,2.05-1,5.64,5.64,0,0,1,4.18-.54,5.43,5.43,0,0,1,3.78,6.66,5.58,5.58,0,0,1-2.49,3.24Z"/></g><g id="mouth"><path class="cls-23" d="M195.84,356c4.38,7.78,13.53,11,21.91,12a44,44,0,0,0,13-.47,29.82,29.82,0,0,0,11.05-4.19c3.65-2.42,6.78-6,7.59-10.41a4.46,4.46,0,0,0-.42-3.18,4.17,4.17,0,0,0-2.47-1.9c-2-.46-4.67.61-5.09,2.89a10.59,10.59,0,0,1-.65,2.19l.42-1a12.37,12.37,0,0,1-1.35,2.34c-.32.45.75-.93.38-.49-.08.08-.14.17-.22.25s-.29.34-.44.5a13.58,13.58,0,0,1-1,1L238,356c-.33.27,1-.76.47-.36l-.34.24c-.39.28-.79.54-1.21.79a22.41,22.41,0,0,1-2.81,1.42l1-.42a33,33,0,0,1-8.22,2.17l1.1-.15a41,41,0,0,1-10.79,0l1.1.15a34.12,34.12,0,0,1-8.49-2.25l1,.41a27.3,27.3,0,0,1-2.82-1.39c-.43-.25-.86-.52-1.27-.8l-.63-.44a3.55,3.55,0,0,0-.31-.23c1.2.86.7.54.44.33a17.62,17.62,0,0,1-2.07-2c-.16-.18-.31-.38-.47-.56-.39-.46.69.94.35.44l-.22-.29c-.28-.4-.54-.82-.78-1.24a4.13,4.13,0,1,0-7.14,4.17Z"/><path class="cls-5" d="M236.86,331.79c-1.64-1.94-3-3.76-5.09-5a16.17,16.17,0,0,0-11.24-2.39,13.64,13.64,0,0,0-3.86,1.3,16.77,16.77,0,0,0-2.12,1.06c-2.08,1.21-3.5,3-5.18,4.84a1.63,1.63,0,0,0-.22,1.5.61.61,0,0,0,0,.18.54.54,0,0,0,.1.2.25.25,0,0,0,.07.12,1.15,1.15,0,0,0,.14.17,1.19,1.19,0,0,0,1.84-.12l.25-.28.1-.1h0l0,0,0,0h0l.12-.12.29-.29c.34-.33.69-.65,1.05-1a20.26,20.26,0,0,1,2.35-1.73l.28-.18.14-.07h0c.19-.1.37-.22.57-.32.41-.22.83-.43,1.26-.61a16.72,16.72,0,0,1,2.6-.91l.23-.06c.17,0,.22,0,.22-.05l.62-.12c.44-.07.89-.12,1.33-.16s.84-.05,1.25,0l.62.11.61.13h.13l.07,0,.25.07a17.71,17.71,0,0,1,2.6,1c.42.2.84.42,1.25.65.21.12.42.27.63.37l.09.06.27.18a20.09,20.09,0,0,1,2.32,1.81c.36.32.7.65,1,1l.29.3.12.13,0,0,.06.06.1.11.25.29a1.19,1.19,0,0,0,1.84.17A1.81,1.81,0,0,0,236.86,331.79Zm-19.34-3.55.09,0h0C217.74,328.17,217.76,328.18,217.52,328.24Z"/></g></g></g></g></svg>