<svg xmlns="http://www.w3.org/2000/svg" xmlns:xlink="http://www.w3.org/1999/xlink" viewBox="0 0 453.83 714.76"><defs><style>.cls-1,.cls-20,.cls-21{isolation:isolate;}.cls-2{fill:#ffe8d5;}.cls-3,.cls-5,.cls-8{fill:#f2b9aa;}.cls-27,.cls-3,.cls-5,.cls-6,.cls-7{opacity:0.5;}.cls-4{fill:#8c8c8c;opacity:0.09;}.cls-10,.cls-11,.cls-12,.cls-27,.cls-4,.cls-5,.cls-6,.cls-7,.cls-9{mix-blend-mode:multiply;}.cls-6{fill:#f5e6c4;}.cls-10,.cls-11,.cls-12,.cls-9{opacity:0.2;}.cls-9{fill:url(#radial-gradient);}.cls-10{fill:url(#radial-gradient-2);}.cls-11{fill:url(#radial-gradient-3);}.cls-12{fill:url(#radial-gradient-4);}.cls-13{fill:#fff;}.cls-14{fill:#c8a02b;}.cls-15{fill:#e8bb41;}.cls-16{fill:#be920d;}.cls-17{fill:#866a54;}.cls-18{fill:#755d49;}.cls-19{fill:#fde41b;}.cls-20,.cls-21{fill:#ffad12;}.cls-20{opacity:0.38;}.cls-21{opacity:0.59;}.cls-22{fill:#6d482f;}.cls-23{fill:#fd8780;}.cls-24{fill:#fd615d;}.cls-25{fill:#bd2e2e;}.cls-26{fill:#f4f4f4;}.cls-27{fill:#bababa;}</style><radialGradient id="radial-gradient" cx="92.23" cy="-53.33" r="9.64" gradientTransform="translate(8.58 576.52) scale(1.43 1.97)" gradientUnits="userSpaceOnUse"><stop offset="0" stop-color="#ffc6bd"/><stop offset="0.12" stop-color="#ffc7be" stop-opacity="0.98"/><stop offset="0.25" stop-color="#ffcac1" stop-opacity="0.94"/><stop offset="0.38" stop-color="#ffcec6" stop-opacity="0.86"/><stop offset="0.5" stop-color="#ffd4ce" stop-opacity="0.75"/><stop offset="0.63" stop-color="#ffddd7" stop-opacity="0.6"/><stop offset="0.76" stop-color="#ffe7e3" stop-opacity="0.43"/><stop offset="0.88" stop-color="#fff2f0" stop-opacity="0.23"/><stop offset="1" stop-color="#fff" stop-opacity="0"/></radialGradient><radialGradient id="radial-gradient-2" cx="212.03" cy="-55.01" r="9.64" xlink:href="#radial-gradient"/><radialGradient id="radial-gradient-3" cx="127.58" cy="9.86" r="9.64" xlink:href="#radial-gradient"/><radialGradient id="radial-gradient-4" cx="178.84" cy="9.86" r="9.64" xlink:href="#radial-gradient"/></defs><g class="cls-1"><g id="Layer_2" data-name="Layer 2"><g id="Layer_1-2" data-name="Layer 1"><path class="cls-2" d="M334.55,321.19a1,1,0,0,1,0,.25.3.3,0,0,1-.08-.08A1.3,1.3,0,0,1,334.55,321.19Z"/><path class="cls-2" d="M334.55,321.19a1,1,0,0,1,0,.25.3.3,0,0,1-.08-.08A1.3,1.3,0,0,1,334.55,321.19Z"/><path class="cls-2" d="M334.55,321.19a1,1,0,0,1,0,.25.3.3,0,0,1-.08-.08A1.3,1.3,0,0,1,334.55,321.19Z"/><path class="cls-2" d="M105.22,222.5a74.13,74.13,0,0,0-4.45,6.75,146.3,146.3,0,0,1-3-18.06A26.17,26.17,0,0,1,105.22,222.5Z"/><path class="cls-2" d="M344.86,211a1,1,0,0,1,0,.25.6.6,0,0,1-.08-.08A1.3,1.3,0,0,1,344.86,211Z"/><path class="cls-2" d="M344.86,211a1,1,0,0,1,0,.25.6.6,0,0,1-.08-.08A1.3,1.3,0,0,1,344.86,211Z"/><path class="cls-2" d="M405.94,240.55c-3.78,23.44-21.49,39-39.54,34.68l-.45-.12a62.93,62.93,0,0,0,1.6-14.11c0-.95,0-1.89-.07-2.83a65.89,65.89,0,0,0-13.12-36.26l-.44-.57a149.72,149.72,0,0,0,2.18-25c6.95-5.62,15.44-8,24-6C398.16,194.63,409.73,217.11,405.94,240.55Z"/><path class="cls-3" d="M393.73,237.65c-2.3,14.25-13.36,23.66-24.66,21-.54-.13-1.07-.28-1.59-.46a65.89,65.89,0,0,0-13.12-36.26c4-10.77,13.45-17.25,23.06-15C388.72,209.62,396,223.39,393.73,237.65Z"/><path class="cls-2" d="M91.93,258.15c-.07,1.23-.11,2.47-.11,3.72a62.91,62.91,0,0,0,1.41,13.29l-.25.06C74.92,279.51,57.21,264,53.43,240.54s7.78-45.91,25.84-50.19a26.36,26.36,0,0,1,17.76,2c0,1.16,0,2.32,0,3.49a148.94,148.94,0,0,0,.78,15.32,26.17,26.17,0,0,1,7.45,11.31,74.13,74.13,0,0,0-4.45,6.75A64.93,64.93,0,0,0,91.93,258.15Z"/><path class="cls-3" d="M105.22,222.5a74.13,74.13,0,0,0-4.45,6.75,64.93,64.93,0,0,0-8.84,28.9,15.24,15.24,0,0,1-1.63.48c-11.3,2.68-22.35-6.73-24.66-21s5-28,16.31-30.71a17.67,17.67,0,0,1,15.82,4.25A26.17,26.17,0,0,1,105.22,222.5Z"/><path class="cls-2" d="M344.86,211a1,1,0,0,1,0,.25.6.6,0,0,1-.08-.08A1.3,1.3,0,0,1,344.86,211Z"/><path class="cls-2" d="M367.48,258.17a65.89,65.89,0,0,0-13.12-36.26l-.44-.57a149.72,149.72,0,0,0,2.18-25v-.49a144.39,144.39,0,0,0-26.79-84.44c-19.18-26.71-47.26-45.72-79.48-52a122.2,122.2,0,0,0-46.58,0,126,126,0,0,0-63.64,33.6C114.18,117.7,97.94,153,97,192.38c0,1.16,0,2.32,0,3.49a148.94,148.94,0,0,0,.78,15.32,26.17,26.17,0,0,1,7.45,11.31,74.13,74.13,0,0,0-4.45,6.75,64.93,64.93,0,0,0-8.84,28.9c-.07,1.23-.11,2.47-.11,3.72a62.91,62.91,0,0,0,1.41,13.29c7.55,35.09,44.44,61.73,88.82,61.73,1.48,0,3,0,4.42-.09h0l.47.11a160.86,160.86,0,0,0,22.59,3.46c7.12.62,14.6.91,22.45.91,7.18,0,14-.23,20.54-.73A152.31,152.31,0,0,0,280.78,336L281,336h0c42.39-1.4,77.26-27.12,85-60.84a62.93,62.93,0,0,0,1.6-14.11C367.55,260.05,367.53,259.11,367.48,258.17Zm-22.62-46.92a.6.6,0,0,1-.08-.08,1.3,1.3,0,0,1,.08-.17A1,1,0,0,1,344.86,211.25Z"/><ellipse class="cls-4" cx="223.99" cy="683.09" rx="222.4" ry="31.67"/><rect class="cls-2" x="189.99" y="361.85" width="73.85" height="156.61"/><polygon class="cls-2" points="257.44 385.11 295.32 469.7 303.02 466.26 327.15 455.49 281.54 371.56 266.04 380.27 257.44 385.11"/><path class="cls-2" d="M284.82,382.82a21,21,0,0,1-10,17.87,20.53,20.53,0,0,1-6,2.5,19.6,19.6,0,0,1-3.08.51c-.63.06-1.26.09-1.91.09a21,21,0,0,1-.85-41.92l.84,0h0a20.1,20.1,0,0,1,2.47.15,20.91,20.91,0,0,1,15.21,9.56.21.21,0,0,1,.06.08,20.3,20.3,0,0,1,1.31,2.43A20.66,20.66,0,0,1,284.82,382.82Z"/><polygon class="cls-5" points="257.44 385.11 295.32 469.7 303.02 466.26 266.04 380.27 257.44 385.11"/><path class="cls-2" d="M349,479.35c-6.25-3.92-12.52-7.59-18.43-11.94,6.14-1,25.2-4.87,20.62-12-2.44-3.77-8.63-1.82-12.33-1.35-3.94.5-7.9.88-11.86,1.11h0q-3.13.19-6.24.27a16.77,16.77,0,0,0-5.14-1,25.2,25.2,0,0,0-15.6,4.8h0c-.54.41-1.06.84-1.54,1.28a10.39,10.39,0,0,0-1.06,1.15h0l-.21.29-.2.3-.07.1a5.84,5.84,0,0,0-.33.53c-.12.21-.23.43-.33.65a10.84,10.84,0,0,0-.6,1.59c0,.09-.05.17-.07.26s0,.19-.07.29a5.41,5.41,0,0,0-.12.58c0,.23-.08.46-.12.7l-.06.61,0,.25a1.09,1.09,0,0,0,0,.18,1,1,0,0,0,0,.17,2.88,2.88,0,0,0,0,.41,4.56,4.56,0,0,0,0,.64v0c0,.34,0,.68.05,1a.22.22,0,0,0,0,.08c0,.36.06.73.1,1.1a.08.08,0,0,0,0,0,.06.06,0,0,1,0,0c0,.3.07.61.12.92a4.89,4.89,0,0,0,.09.53.4.4,0,0,0,0,.15,2,2,0,0,0,0,.24,27.8,27.8,0,0,0,.66,2.77l.21.72c.08.27.16.53.25.8l.15.45c0,.15.1.3.16.45l.3.86.42,1.09c.15.4.31.79.48,1.18s.32.78.5,1.16.23.51.34.76c.6,1.3,1.19,2.5,1.73,3.54h0a.52.52,0,0,0,.33.26c-.11.71-.21,1.42-.31,2.13,0,.21-.06.42-.08.62-.05.4-.11.81-.16,1.21,0,.12,0,.24,0,.36-.06.51-.12,1-.17,1.51s-.09.95-.13,1.42c0,.13,0,.25,0,.36,0,.55-.07,1.12-.1,1.67,0,.19,0,.39,0,.58,0,.93,0,1.85,0,2.77,0,.31,0,.61,0,.91s.06.84.11,1.25.08.68.13,1l0,.23c.07.46.15,1,.25,1.56.07.38.15.77.25,1.17a3.74,3.74,0,0,0,.12.45c0,.13.07.26.11.39a.84.84,0,0,0,.05.17c0,.11.07.22.11.32s.1.29.16.43.08.19.11.28a5.52,5.52,0,0,0,.26.55c.05.09.11.17.15.26l.08.13a.75.75,0,0,0,.07.12c.11.16.22.32.34.47a3.88,3.88,0,0,0,.39.42,2.09,2.09,0,0,0,.28.24l.25.18a3.36,3.36,0,0,0,1.22.53,4.69,4.69,0,0,0,.94.11,2.69,2.69,0,0,0,.4,0h0l.24,0,.28-.08h.06a1.62,1.62,0,0,0,.42-.2l.24-.16.16-.12a2.44,2.44,0,0,0,.29-.27,1.59,1.59,0,0,0,.2-.24A1.83,1.83,0,0,1,308,510a4.15,4.15,0,0,0,.32-.53,3,3,0,0,0,.18-.36c.06-.12.11-.24.16-.37s0,0,0,0c.07-.19.14-.38.2-.57v0c.18-.53.33-1.07.47-1.59A82.9,82.9,0,0,0,312,491.68c.23,1.11.46,2.22.71,3.34h0c.1.46.21.91.32,1.37s.22.92.34,1.37.2.8.31,1.2.14.54.22.8.15.53.23.79.23.78.35,1.17l.22.7c.07.24.15.47.23.7s.25.76.39,1.14.32.9.49,1.34a0,0,0,0,0,0,0c.17.44.34.88.52,1.31,0,.09.07.18.11.27.13.32.26.64.4.95a2.8,2.8,0,0,0,.15.3c0,.09.09.18.14.27s.15.3.23.44l.21.36a2.64,2.64,0,0,0,.23.35c.13.19.26.36.39.53l0,0,0,0a6.64,6.64,0,0,0,.51.55h0a4.31,4.31,0,0,0,1,.73l.19.1a3.91,3.91,0,0,0,1.37.42h.06l.22,0a1.69,1.69,0,0,0,.39,0h.21l.22,0,.46-.08.25-.05.2-.06.18-.06.1,0a2.52,2.52,0,0,0,.33-.13l.24-.11h0a1,1,0,0,0,.23-.12l.06,0a2.61,2.61,0,0,0,.28-.17l.08-.05.29-.23.1-.09a1.94,1.94,0,0,0,.2-.21l.2-.25.17-.25,0,0,0,0,.05-.1L326,510a.06.06,0,0,1,0,0l.09-.23c0-.12.07-.25.11-.37s.08-.29.11-.45a13.79,13.79,0,0,0-.17-4.23,129.46,129.46,0,0,0-3.24-15.34c1.08,1.61,2.15,3.22,3.18,4.85v0q1.29,2,2.53,4.11c.22.36.43.73.64,1.11s.41.77.62,1.16l.62,1.18c.21.4.41.79.63,1.18l.48.88c.08.14.16.28.25.42l.26.42.21.32c.08.13.16.26.25.38s.27.39.42.58.37.49.57.73a7,7,0,0,0,.6.62l.42.37.46.36c.11.09.23.17.35.25l.15.09.32.2a3.62,3.62,0,0,0,.43.24l.4.2a3.05,3.05,0,0,0,.46.2l.18.06.42.14.38.1a3.4,3.4,0,0,0,.46.09l.43.06.45,0,.38,0,.39-.05a4.28,4.28,0,0,0,1.09-.33l.26-.13.33-.2h0l.38-.29a2.35,2.35,0,0,0,.33-.3,2,2,0,0,0,.2-.21s0,0,0,0v0l.13-.17a.92.92,0,0,0,.13-.19,1.57,1.57,0,0,0,.14-.25,2.14,2.14,0,0,0,.1-.22,1.17,1.17,0,0,0,.09-.24,2.24,2.24,0,0,0,.1-.37,2.2,2.2,0,0,0,.06-.37h0c.22-2.1-1.23-4.53-2.1-6.27a177.84,177.84,0,0,0-9.06-16.67c1.06.67,2.61,1.64,4.46,2.71h0c.86.49,1.77,1,2.73,1.54h0l.95.51a1.55,1.55,0,0,0,.22.12c.4.22.79.43,1.2.63l.6.3.38.19c.28.15.57.29.85.42l.62.29c.62.29,1.23.57,1.85.84.47.21.94.4,1.41.59l.8.31.78.29,0,0,.73.25.44.14.44.13.44.12c.09,0,.17.05.25.08l.55.13c.38.09.75.16,1.11.23l.22,0,.22,0,.2,0,.31,0,.24,0h.8l.37,0,.32,0h.13a3.26,3.26,0,0,0,.47-.09h.06l.05,0,.34-.1a3.52,3.52,0,0,0,.39-.16,2.87,2.87,0,0,0,.65-.41,3.45,3.45,0,0,0,.28-.26,1.94,1.94,0,0,0,.32-.42l.07-.11a0,0,0,0,0,0,0c.07-.14.14-.28.2-.43a3.37,3.37,0,0,0,.15-.48,2.21,2.21,0,0,0,0-.25,2,2,0,0,0,.05-.26h0a3.88,3.88,0,0,0,.06-.7C359.41,484.75,352.53,481.56,349,479.35Z"/><path class="cls-5" d="M325.87,470.89c-6.45,1.34-14.71,0-20-4.09-.64-.5,0-1.74.79-1.44,2.91,1.11,5.59,2.57,8.66,3.3a47,47,0,0,0,10.33.9C326.38,469.57,326.66,470.73,325.87,470.89Z"/><path class="cls-5" d="M325.73,474.74c-4.18,5.08-11.45,9.24-18.14,9.36-.82,0-1.08-1.36-.29-1.62,3-1,6-1.51,8.81-2.87a46.47,46.47,0,0,0,8.61-5.78C325.29,473.38,326.24,474.11,325.73,474.74Z"/><path class="cls-5" d="M333.88,480.84c1.08,1.69,2.1,3.42,3.08,5.17,8,4.66,21.36,11.28,22.3,4.22C354.41,493.39,338.83,484,333.88,480.84Z"/><path class="cls-5" d="M324.31,486.84q1,3.65,1.79,7.33,1.29,2,2.53,4.11c1.61,2.69,2.89,6,4.95,8.36,1.77,2.06,5.53,4.14,8.36,2.27a3.53,3.53,0,0,0,1.71-2.67,3.55,3.55,0,0,1-.31.23c-2.83,1.86-6.59-.22-8.36-2.28-2.06-2.4-3.35-5.67-5-8.36C328.21,492.78,326.29,489.79,324.31,486.84Z"/><path class="cls-5" d="M312.68,495a70,70,0,0,0,4.15,13.14c1.11,2.49,3,4.83,6.26,4a3.93,3.93,0,0,0,3.22-3.3,4.81,4.81,0,0,1-1.82.85c-3.25.84-5.16-1.49-6.26-4a77.24,77.24,0,0,1-4.86-16.49C313.22,491.16,313,493.09,312.68,495Z"/><path class="cls-5" d="M301.11,487.46c-.8,5.32-1.49,10.76-.69,16,.38,2.47,1,7,4.2,7.67,2.58.57,3.63-1.17,4.28-3.08a3,3,0,0,1-2.89.63c-3.2-.7-3.82-5.19-4.19-7.67-.8-5.28-.11-10.71.68-16a.52.52,0,0,1-.32-.27c-2.93-5.65-7.6-16-4.77-23-5.4,6.91.09,19.14,3.37,25.49A.52.52,0,0,0,301.11,487.46Z"/><polygon class="cls-2" points="197.06 385.08 159.18 469.68 151.48 466.24 127.35 455.46 172.96 371.53 188.46 380.25 197.06 385.08"/><path class="cls-2" d="M211.62,382.79a21,21,0,0,1-21,21c-.65,0-1.28,0-1.91-.09A19.85,19.85,0,0,1,185,403,21,21,0,0,1,171.6,374a20.3,20.3,0,0,1,1.31-2.43.21.21,0,0,1,.06-.08,20.91,20.91,0,0,1,14.36-9.45,21.35,21.35,0,0,1,3.32-.26q.54,0,1.08,0A21,21,0,0,1,211.62,382.79Z"/><polygon class="cls-5" points="197.06 385.08 159.18 469.68 151.48 466.24 188.46 380.25 197.06 385.08"/><path class="cls-2" d="M159.35,468.61a8.43,8.43,0,0,0-.06-1c0-.2,0-.4-.07-.6a10.8,10.8,0,0,0-.21-1.16c0-.11,0-.23-.08-.34s-.09-.32-.14-.48a8.07,8.07,0,0,0-.55-1.44c-.1-.22-.21-.44-.33-.65h0c-.12-.21-.25-.41-.39-.62s-.28-.39-.42-.59v0a10.39,10.39,0,0,0-1.06-1.15,19.72,19.72,0,0,0-1.54-1.28h0a25.18,25.18,0,0,0-15.6-4.8,16.64,16.64,0,0,0-5.13,1c-2.08-.05-4.17-.14-6.25-.27h0c-4-.23-7.92-.61-11.86-1.11-3.7-.47-9.88-2.42-12.32,1.35-4.59,7.08,14.47,11,20.61,11.95-5.9,4.35-12.17,8-18.42,11.94-3.52,2.21-10.41,5.4-10.32,10.18a3.88,3.88,0,0,0,.06.7,2.6,2.6,0,0,0,.1.5,2.13,2.13,0,0,0,.07.27,1.72,1.72,0,0,0,.07.21.77.77,0,0,0,.07.16,2.75,2.75,0,0,0,.88,1.15,1.37,1.37,0,0,0,.21.15,1.38,1.38,0,0,0,.29.17,2,2,0,0,0,.36.16,4.39,4.39,0,0,0,.58.18l.11,0,.12,0,.23,0a7.67,7.67,0,0,0,1.86,0,2.78,2.78,0,0,0,.39-.05h.11l.23,0,.27-.05c.35-.06.7-.14,1.06-.22l.55-.13.56-.16.57-.17.44-.14.44-.15c.29-.1.58-.2.88-.32,1.2-.45,2.44-1,3.67-1.54L110,490l.62-.3c.28-.13.57-.27.85-.42l.38-.19.6-.3.6-.31a3.07,3.07,0,0,1,.31-.17l.29-.15a1.55,1.55,0,0,0,.22-.12l.37-.2,1.15-.63q.85-.47,1.65-.93c.18-.09.35-.19.52-.29,1.84-1.08,3.41-2.05,4.48-2.72A177.93,177.93,0,0,0,113,500c-.87,1.74-2.32,4.17-2.1,6.27a3.47,3.47,0,0,0,.28,1,.8.8,0,0,0,.08.16,1.27,1.27,0,0,0,.12.23.25.25,0,0,0,0,.07,1.36,1.36,0,0,0,.12.17,3.23,3.23,0,0,0,.35.4,4,4,0,0,0,.72.6,4.51,4.51,0,0,0,3.33.65,6.34,6.34,0,0,0,.84-.19l.42-.13.38-.15.14-.06.29-.14.51-.27.34-.21.15-.09a.57.57,0,0,0,.13-.08c.12-.08.24-.16.35-.25a11,11,0,0,0,.88-.73l.07-.06.28-.28.25-.29c.2-.24.4-.48.58-.73s.45-.62.66-.95l.21-.32.35-.58c.12-.2.24-.4.35-.6,1-1.73,1.83-3.56,2.8-5.18q1.25-2.07,2.53-4.11c1-1.64,2.11-3.26,3.19-4.88a129.46,129.46,0,0,0-3.24,15.34,13.71,13.71,0,0,0-.16,4.22,4.9,4.9,0,0,0,.13.55,4.6,4.6,0,0,0,.19.52s0,0,0,0a.75.75,0,0,0,.07.12,3.5,3.5,0,0,0,.36.58l.24.28a3.45,3.45,0,0,0,.28.26l.07.06.08.05.16.13a2.61,2.61,0,0,0,.28.17l.06,0a1,1,0,0,0,.23.12l.33.14.21.09.14,0,.19.06.19.06.25.05.19,0,.23,0,.32,0,.31,0,.45,0h.06a2.28,2.28,0,0,0,.39-.06l.29-.08h0l.07,0a2.26,2.26,0,0,0,.39-.15,1.51,1.51,0,0,0,.18-.09h0a2,2,0,0,0,.25-.14l.14-.08a2.6,2.6,0,0,0,.36-.25l0,0,.19-.16.07-.06.06-.06q.18-.16.36-.36a5.75,5.75,0,0,0,.54-.66c.16-.24.32-.48.47-.74s.28-.52.41-.78a2.87,2.87,0,0,0,.2-.39c.14-.31.28-.63.4-.95,0-.09.08-.18.11-.27.23-.55.44-1.1.65-1.66.1-.25.19-.5.28-.76s.17-.48.25-.72c.17-.48.33-1,.48-1.45s.27-.85.4-1.27l.24-.83c.13-.44.25-.88.37-1.33l.3-1.15q.34-1.38.66-2.76c.25-1.12.49-2.23.71-3.34a82.9,82.9,0,0,0,2.63,14.84c.14.52.29,1.06.47,1.59v0c.08.25.17.48.26.71l.15.34a5.75,5.75,0,0,0,.36.65,4.75,4.75,0,0,0,.57.69,3.11,3.11,0,0,0,.28.23,4,4,0,0,0,.44.27,1,1,0,0,0,.21.09l.07,0,.12,0h.06l.34.07.12,0,.3,0h.23a4,4,0,0,0,.74-.1,2.7,2.7,0,0,0,.57-.18,4,4,0,0,0,1.18-.77l.29-.31a4,4,0,0,0,.27-.34l.17-.24.08-.13c.08-.12.15-.25.22-.38s.17-.35.25-.53a.61.61,0,0,0,.05-.12c.08-.18.15-.37.21-.55s.09-.25.13-.38a1,1,0,0,0,0-.16l.12-.43c0-.14.08-.28.11-.42.1-.4.18-.79.25-1.17.1-.57.18-1.11.25-1.57a41.3,41.3,0,0,0,0-10.54c-.1-.92-.21-1.83-.33-2.74l-.21-1.48-.18-1.27a.44.44,0,0,0,.25-.17.36.36,0,0,0,.07-.1c.57-1.11,1.21-2.39,1.85-3.79.32-.7.64-1.43.94-2.18l.1-.27q.3-.72.57-1.47c.22-.59.43-1.19.63-1.79.09-.27.17-.52.25-.79l.12-.41h0c.24-.82.45-1.64.62-2.46s.31-1.65.41-2.46c0-.41.09-.81.11-1.21h0c0-.35.05-.7.05-1.05v0A4.66,4.66,0,0,0,159.35,468.61Z"/><path class="cls-5" d="M128.64,470.86c6.44,1.34,14.71,0,20-4.09.65-.5,0-1.74-.79-1.44-2.91,1.12-5.59,2.57-8.66,3.3a47,47,0,0,1-10.32.9C128.12,469.54,127.84,470.7,128.64,470.86Z"/><path class="cls-5" d="M128.77,474.71c4.18,5.08,11.45,9.24,18.14,9.36.82,0,1.08-1.36.29-1.62-3-1-6-1.5-8.81-2.87a46.92,46.92,0,0,1-8.61-5.77C129.21,473.35,128.26,474.08,128.77,474.71Z"/><path class="cls-5" d="M120.62,480.82c-1.08,1.69-2.1,3.42-3.08,5.17-8,4.66-21.36,11.28-22.3,4.22C100.09,493.37,115.67,483.94,120.62,480.82Z"/><path class="cls-5" d="M130.19,486.82q-1,3.65-1.79,7.33-1.29,2-2.53,4.11c-1.61,2.69-2.89,5.95-5,8.36-1.77,2.06-5.53,4.14-8.36,2.27a3.53,3.53,0,0,1-1.71-2.67,3.55,3.55,0,0,0,.31.23c2.83,1.86,6.59-.22,8.36-2.28,2.06-2.4,3.35-5.67,5-8.36C126.29,492.76,128.21,489.77,130.19,486.82Z"/><path class="cls-5" d="M141.82,495a70,70,0,0,1-4.15,13.14c-1.11,2.49-3,4.83-6.26,4a3.93,3.93,0,0,1-3.22-3.3,4.81,4.81,0,0,0,1.82.85c3.25.84,5.16-1.49,6.26-4a77.24,77.24,0,0,0,4.86-16.49C141.28,491.14,141.52,493.07,141.82,495Z"/><path class="cls-5" d="M153.39,487.44c.8,5.32,1.49,10.76.69,16-.38,2.47-1,7-4.2,7.67-2.58.57-3.63-1.17-4.28-3.08a3,3,0,0,0,2.89.63c3.2-.7,3.82-5.19,4.19-7.67.8-5.28.11-10.71-.68-16a.52.52,0,0,0,.32-.27c2.93-5.65,7.6-16,4.77-23,5.4,6.91-.09,19.14-3.37,25.49A.52.52,0,0,1,153.39,487.44Z"/><polygon class="cls-2" points="208.37 652.42 208.36 652.42 208.36 652.37 208.37 652.42"/><polygon class="cls-2" points="220.71 496.54 220.7 498.2 220.56 517.65 220.55 518.46 220.41 539.6 220.35 549.31 220.07 592.51 220.18 539.6 220.23 518.46 220.23 517.02 220.27 498.2 220.27 496.54 220.71 496.54"/><polygon class="cls-2" points="208.37 652.42 208.36 652.42 208.36 652.37 208.37 652.42"/><path class="cls-2" d="M222.52,672.08l-2.58-18.48-.17-1.22h-.11v-.92l.4-58.46v-.49l.11-52.91,0-21.14V517l0-18.82v-1.66H173.82c-.1.55-.21,1.1-.32,1.65h0q-1.87,9.71-4,18.61l-.09.37v.47l.62,22,.27,9.71,2.88,102.94v.54l-4.92,15.47c-2.13,6.06.26,13.36,4.39,14.56a4.36,4.36,0,0,0,1.09.18l9.22.18h0l11.92.23,11.57.23h.44l9.66.19a4.23,4.23,0,0,0,2.46-.76c.18-.12.36-.27.53-.41C221.87,680.68,223.21,676.43,222.52,672.08Zm-14.15-19.65h0v0Z"/><polygon class="cls-6" points="208.37 652.42 208.36 652.42 208.36 652.37 208.37 652.42"/><polygon class="cls-6" points="220.07 592.99 219.94 653.59 219.77 652.37 219.66 652.37 219.67 651.9 220.07 592.99"/><g class="cls-7"><path class="cls-8" d="M204.42,671.91s-.13.2-.34.57-.49.89-.82,1.52a19.78,19.78,0,0,0-.94,2.18,12.3,12.3,0,0,0-.38,1.26,7,7,0,0,0-.19,1.3,4.07,4.07,0,0,0,.56,2.45,2.69,2.69,0,0,0,.39.5,2.4,2.4,0,0,0,.46.44,5,5,0,0,0,1.07.66,3.35,3.35,0,0,0,.55.23,3.41,3.41,0,0,0,.5.19c.34.1.62.2.88.25l.78.18-.82-.07c-.26,0-.57-.09-.93-.15a6.84,6.84,0,0,1-1.18-.33,5.3,5.3,0,0,1-1.26-.63,4.37,4.37,0,0,1-1.08-1,3.91,3.91,0,0,1-.59-1.32,4.79,4.79,0,0,1-.13-1.41,10.52,10.52,0,0,1,1.89-4.86A14.12,14.12,0,0,1,204.42,671.91Z"/><path class="cls-8" d="M194.52,672l-.22.52c-.15.32-.33.8-.55,1.36a23.88,23.88,0,0,0-1.26,4.18,8.2,8.2,0,0,0-.1,2.25,4.35,4.35,0,0,0,.24,1,3.49,3.49,0,0,0,.46.83,2,2,0,0,0,.3.34,2,2,0,0,0,.31.28,3.4,3.4,0,0,0,.61.39c.37.19.61.29.61.29l-.18,0a3.46,3.46,0,0,1-.51-.13,4.87,4.87,0,0,1-.72-.33,2.57,2.57,0,0,1-.41-.26,2.44,2.44,0,0,1-.39-.33,3.41,3.41,0,0,1-.65-.88,3.94,3.94,0,0,1-.37-1.08,5.13,5.13,0,0,1-.1-1.18c0-.4.06-.81.11-1.21a13.85,13.85,0,0,1,1.62-4.21c.32-.55.63-1,.84-1.3A4.17,4.17,0,0,1,194.52,672Z"/><path class="cls-8" d="M184.91,672.07l-.26.47c-.17.3-.38.73-.64,1.24a23.07,23.07,0,0,0-1.57,3.82,8.46,8.46,0,0,0-.26,1,7.69,7.69,0,0,0-.14,1,5.55,5.55,0,0,0,.14,1.82,4.34,4.34,0,0,0,.24.72,3.49,3.49,0,0,0,.28.52l.31.46-.11-.1c-.07-.07-.21-.16-.34-.29a4.93,4.93,0,0,1-.83-1.21,5.07,5.07,0,0,1-.4-1.93,5.84,5.84,0,0,1,.08-1.09,11.07,11.07,0,0,1,.25-1.11,13.34,13.34,0,0,1,1.94-3.83A13.57,13.57,0,0,1,184.91,672.07Z"/><path class="cls-8" d="M176.4,672.91l-.32.38c-.22.25-.5.61-.82,1s-.65.95-1,1.51c-.17.28-.32.57-.48.87a6.29,6.29,0,0,0-.41.92,4.82,4.82,0,0,0-.34.94l-.15.46-.09.46a3.94,3.94,0,0,0-.14.87,4.51,4.51,0,0,0-.06.8c0,.24,0,.47,0,.67s0,.38,0,.52,0,.46,0,.46-.07-.15-.18-.43l-.2-.52c-.06-.2-.1-.44-.15-.69a3.09,3.09,0,0,1-.08-.82,3.57,3.57,0,0,1,0-.92,4.91,4.91,0,0,1,.18-1,7.66,7.66,0,0,1,.33-1,10.59,10.59,0,0,1,.46-1c.17-.31.38-.6.57-.89a11,11,0,0,1,1.24-1.46A9.55,9.55,0,0,1,176.4,672.91Z"/></g><path class="cls-5" d="M206.9,683.64l9.69.19a4.23,4.23,0,0,0,2.46-.76,5,5,0,0,0,.53-.41c2.29-2,3.63-6.24,2.94-10.59l-2.58-18.48-.17-1.22h-.11v-.92l.4-58.46v-.49l.16-75.49,0-20.47h-11.9V652.42l.06.43.44,3.15.81,5.86,1.15,8.22a11,11,0,0,1,.42,2,.9.9,0,0,0,0,.16v0c0,.4.06.81.06,1.22a8.27,8.27,0,0,1-.05,1,0,0,0,0,1,0,0v.13c0,.32.05.64.05,1a9.39,9.39,0,0,1-3,6.89A8.5,8.5,0,0,1,206.9,683.64Z"/><polygon class="cls-2" points="245.46 652.42 245.47 652.42 245.47 652.37 245.46 652.42"/><polygon class="cls-2" points="233.76 592.51 233.48 549.31 233.42 539.6 233.28 518.46 233.27 517.65 233.13 498.2 233.12 496.55 233.56 496.55 233.56 498.2 233.6 517.02 233.6 518.46 233.65 539.6 233.76 592.51"/><polygon class="cls-2" points="245.46 652.42 245.47 652.42 245.47 652.37 245.46 652.42"/><path class="cls-2" d="M285.55,668.26l-4.92-15.47v-.3l2.89-103.18.27-9.71.62-22v-.47l-.18-.75c-1.38-5.81-2.69-11.9-3.92-18.23-.11-.55-.21-1.1-.32-1.65H233.56v1.65l0,18.82v1.44l.05,21.14.11,52.91V593l.4,58.46v.92h-.11l-.17,1.22-2.58,18.48c-.69,4.35.65,8.6,2.94,10.59a5,5,0,0,0,.53.41,4.23,4.23,0,0,0,2.46.76l9.67-.19h.43l11.57-.23,11.91-.23h0l9.23-.18C284.86,682.9,287.86,674.84,285.55,668.26Zm-40.08-15.83h0v0Z"/><polygon class="cls-6" points="245.46 652.42 245.47 652.42 245.47 652.37 245.46 652.42"/><polygon class="cls-6" points="233.76 592.99 233.89 653.59 234.06 652.37 234.17 652.37 234.16 651.9 233.76 592.99"/><g class="cls-7"><path class="cls-8" d="M249.41,671.91l.34.57c.22.36.49.89.82,1.52a19.78,19.78,0,0,1,.94,2.18,12.3,12.3,0,0,1,.38,1.26,8,8,0,0,1,.19,1.3,4.11,4.11,0,0,1-.56,2.46,3,3,0,0,1-.39.49,2.4,2.4,0,0,1-.46.44,5.24,5.24,0,0,1-1.07.66,3.35,3.35,0,0,1-.55.23c-.18.07-.34.15-.51.2-.33.09-.62.19-.87.24l-.79.18.83-.07c.26,0,.57-.09.93-.15a7.09,7.09,0,0,0,1.18-.33,5.3,5.3,0,0,0,1.26-.63,4.16,4.16,0,0,0,1.07-1,3.85,3.85,0,0,0,.6-1.32,4.78,4.78,0,0,0,.12-1.41,10.32,10.32,0,0,0-1.88-4.85A14.81,14.81,0,0,0,249.41,671.91Z"/><path class="cls-8" d="M259.31,672l.22.52c.15.32.33.8.55,1.36a24.77,24.77,0,0,1,1.26,4.18,8.61,8.61,0,0,1,.1,2.25,4.35,4.35,0,0,1-.24,1,3.2,3.2,0,0,1-.47.83,1.58,1.58,0,0,1-.29.34,1.6,1.6,0,0,1-.31.28,4.2,4.2,0,0,1-.61.4l-.61.28.18,0a3.8,3.8,0,0,0,.51-.13,4.36,4.36,0,0,0,.72-.33,4.5,4.5,0,0,0,.41-.25,2.5,2.5,0,0,0,.39-.34,3.16,3.16,0,0,0,.64-.88,3.37,3.37,0,0,0,.37-1.08,5.14,5.14,0,0,0,.11-1.18c0-.4-.06-.81-.11-1.21a13.85,13.85,0,0,0-1.62-4.21c-.32-.55-.63-1-.84-1.3A4.17,4.17,0,0,0,259.31,672Z"/><path class="cls-8" d="M268.92,672.07l.25.47c.18.3.38.73.65,1.24a24,24,0,0,1,1.57,3.82,10.23,10.23,0,0,1,.26,1.06,7.48,7.48,0,0,1,.14,1,5.89,5.89,0,0,1-.14,1.82,4.55,4.55,0,0,1-.24.71,4.74,4.74,0,0,1-.28.52c-.19.29-.32.46-.32.46a.71.71,0,0,0,.12-.1c.07-.07.2-.16.33-.29a4.5,4.5,0,0,0,.84-1.21,5,5,0,0,0,.4-1.93,6.83,6.83,0,0,0-.08-1.09c-.07-.37-.15-.74-.25-1.11a13.34,13.34,0,0,0-1.94-3.83A13.57,13.57,0,0,0,268.92,672.07Z"/><path class="cls-8" d="M277.43,672.91l.32.38c.22.25.49.61.81,1s.66.95,1,1.51c.17.28.32.57.48.87a6.81,6.81,0,0,1,.41.92,5.58,5.58,0,0,1,.34.94l.15.46.09.46a4.62,4.62,0,0,1,.14.87,4.51,4.51,0,0,1,.06.8c0,.24,0,.47,0,.67s0,.38-.06.52,0,.46,0,.46a4.52,4.52,0,0,0,.19-.43c.05-.15.12-.32.19-.52a5.05,5.05,0,0,0,.16-.69,6.21,6.21,0,0,0,0-1.74,4.91,4.91,0,0,0-.18-1,6.45,6.45,0,0,0-.34-1,7.65,7.65,0,0,0-.46-1c-.17-.31-.37-.6-.56-.89a11.83,11.83,0,0,0-1.25-1.46A9.27,9.27,0,0,0,277.43,672.91Z"/></g><path class="cls-5" d="M246.93,683.64l-9.69.19a4.23,4.23,0,0,1-2.46-.76,5,5,0,0,1-.53-.41c-2.29-2-3.63-6.24-2.94-10.59l2.58-18.48.17-1.22h.11v-.92l-.4-58.46v-.49L233.6,517l0-20.47h11.9V652.42l-.06.43L245,656l-.81,5.86L243,670.08a11,11,0,0,0-.42,2,.9.9,0,0,1,0,.16v0c0,.4-.06.81-.06,1.22a8.27,8.27,0,0,0,0,1,0,0,0,0,0,0,0v.13c0,.32,0,.64,0,1a9.39,9.39,0,0,0,3,6.89A8.5,8.5,0,0,0,246.93,683.64Z"/><rect class="cls-2" x="202.17" y="327.24" width="49.48" height="40.49"/><path class="cls-5" d="M251.66,340.2v12.59A203.62,203.62,0,0,1,229,354a194.39,194.39,0,0,1-25.84-1.61l-.93-.14V339.87A192.72,192.72,0,0,0,228,341.48,200.65,200.65,0,0,0,251.66,340.2Z"/><ellipse class="cls-9" cx="140.65" cy="471.35" rx="16.37" ry="14.64"/><ellipse class="cls-10" cx="312.21" cy="468.04" rx="16.37" ry="14.64"/><ellipse class="cls-11" cx="191.27" cy="595.96" rx="16.37" ry="14.64"/><ellipse class="cls-12" cx="264.67" cy="595.96" rx="16.37" ry="14.64"/><polygon class="cls-2" points="280.33 498.2 173.5 498.2 179.11 451.79 183.52 415.31 185.02 402.99 187.33 383.86 187.46 382.79 187.5 382.49 187.81 379.88 189.99 361.85 263.84 361.85 266.07 380.27 266.08 380.37 266.32 382.38 266.37 382.79 268.84 403.19 270.06 413.3 274.72 451.79 280.33 498.2"/><polygon class="cls-13" points="274.72 451.79 179.11 451.79 187.46 382.79 266.37 382.79 274.72 451.79"/><path class="cls-13" d="M284.43,517.18v.47l-.62,22H233.42l-.14-21.14H220.55l-.14,21.14H170l-.62-22v-.47l.09-.37q2.13-8.89,4-18.61h0l2-15.48H278.62l1.71,15.49c1.23,6.33,2.54,12.42,3.92,18.23Z"/><g id="boots"><path class="cls-14" d="M281.31,658.4c0,4.59,1.9,11.23-2.6,11.6h-44l-4.21-56.9h54.37"/><path class="cls-15" d="M287.1,672.07a10.66,10.66,0,0,1-3.34,6.62,4.75,4.75,0,0,1-2.84,1.08l-33.29.65h0l-10.26.2a4.29,4.29,0,0,1-2.5-.77l-.21-.15c-.12-.08-.23-.17-.34-.26a10.93,10.93,0,0,1-3.15-7.58v-.06l2.61-18.74.17-1.24h.11V651h.1V661a8,8,0,0,0,7.88,8h32a7.93,7.93,0,0,0,7.28-7.91v-8.8l5,15.74A13.91,13.91,0,0,1,287.1,672.07Z"/><path class="cls-16" d="M287.11,673.32a13.58,13.58,0,0,1-1.61,6.23c-.13.23-.25.44-.39.64a7.44,7.44,0,0,1-1.24,1.45l-.27.23-.28.22-.3.19-.28.16h0l-.2.1-.35.2a4.81,4.81,0,0,1-1.06.25h-.37l-33.29.64h0l-10.26.21a4.29,4.29,0,0,1-2.5-.77,5.7,5.7,0,0,1-.55-.42l-.34-.33c-.11-.11-.23-.23-.34-.36a8.91,8.91,0,0,1-1-1.45c-.15-.27-.28-.54-.41-.83a13.78,13.78,0,0,1-1-6.62,8.07,8.07,0,0,1,.14-1.18h0a11.21,11.21,0,0,0,3.15,7.58c.11.09.22.18.34.26l.21.15a4.29,4.29,0,0,0,2.5.77l10.26-.2h0l33.29-.65a4.75,4.75,0,0,0,2.84-1.08,10.56,10.56,0,0,0,3.34-6.63A10.23,10.23,0,0,1,287.11,673.32Z"/><path class="cls-14" d="M172.52,658.4c0,4.59-1.9,11.23,2.6,11.6h44l4.2-56.9H168.93"/><path class="cls-15" d="M166.73,672.07a10.58,10.58,0,0,0,3.34,6.62,4.75,4.75,0,0,0,2.84,1.08l33.28.65h0l10.27.2a4.29,4.29,0,0,0,2.5-.77l.23-.11.33-.26a10.93,10.93,0,0,0,3.16-7.58v-.06l-2.61-18.74-.17-1.24h-.11V651h-.1v10a8,8,0,0,1-8,8H179.8a7.93,7.93,0,0,1-7.28-7.91v-8.8l-5,15.74A13.93,13.93,0,0,0,166.73,672.07Z"/><path class="cls-16" d="M166.72,673.32a13.73,13.73,0,0,0,1.6,6.23c.13.23.26.44.4.64a7.74,7.74,0,0,0,1.23,1.45l.27.23a2,2,0,0,1,.29.22l.3.19.28.16h0l.2.1.33.14a4.9,4.9,0,0,0,1.07.25,2.29,2.29,0,0,0,.37,0l33.29.64h0l10.26.21a4.29,4.29,0,0,0,2.5-.77,5.56,5.56,0,0,0,.54-.42c.12-.1.23-.21.35-.33s.23-.23.34-.36a8.91,8.91,0,0,0,1-1.45c.14-.27.28-.54.41-.83a14,14,0,0,0,1-6.62,8,8,0,0,0-.13-1.18h0a11.17,11.17,0,0,1-3.16,7.58l-.27.34-.21.15a4.29,4.29,0,0,1-2.5.77l-10.27-.2h0l-33.3-.72a4.75,4.75,0,0,1-2.84-1.08,10.62,10.62,0,0,1-3.35-6.63C166.71,672.48,166.7,672.91,166.72,673.32Z"/><path class="cls-16" d="M275.79,660.39a24,24,0,0,0-2.16-2.34,11.17,11.17,0,0,0-2.6-1.77,19.52,19.52,0,0,0-5.95-1.9,28.68,28.68,0,0,0-19.27,4.07.93.93,0,0,0-.27,1.27.87.87,0,0,0,.27.27,1.82,1.82,0,0,0,2,0l.3-.18s.35-.21.15-.1l.2-.12.35-.19c.4-.22.8-.43,1.22-.63a24.66,24.66,0,0,1,2.7-1.11l.32-.11c.1,0,.51-.14.1,0,.24-.06.48-.15.72-.22.47-.14.95-.27,1.43-.38a26.25,26.25,0,0,1,2.92-.52h.42l.76-.06h3l.71,0c.11,0,.54.06.08,0h.41a19.91,19.91,0,0,1,2.85.55l.63.18h.15c-.35-.08-.17-.06-.06,0l.38.13c.45.17.9.34,1.33.54s1,.47,1.42.71l.72.39c.14.09-.21-.12-.07,0l.18.11.35.22c.48.31,1,.61,1.41.94a6.66,6.66,0,0,1,.66.53l.12.11.05,0,.32.34a1.26,1.26,0,0,0,1.41.28.68.68,0,0,0,.36-1.07Z"/><path class="cls-16" d="M180.78,659.13a7.34,7.34,0,0,0,1.28-.49c.39-.17.79-.34,1.2-.49s.8-.35,1.21-.52l1.27-.46c.42-.16.84-.33,1.27-.47l.16-.05H187l.33-.1.71-.2a25.84,25.84,0,0,1,2.75-.58l.67-.09H192c.49,0,1-.08,1.48-.09a25,25,0,0,1,3,0l.72.06h.48c.52.07,1,.15,1.55.24a27.14,27.14,0,0,1,3.08.76l.19.06h0l.43.15.86.31c.58.23,1.14.47,1.7.73s1.1.54,1.62.83l.42.23.18.11c-.16-.09-.08,0,0,0l.86.54a1.78,1.78,0,0,0,2,0,.93.93,0,0,0,.27-1.28,1,1,0,0,0-.27-.26,29.31,29.31,0,0,0-13.22-4.66,28.28,28.28,0,0,0-12.44,1.51A15.76,15.76,0,0,0,182,656.4a4.83,4.83,0,0,0-.58.43l-.33.27c-.27.27.09-.06,0,0l-.13.12a3.65,3.65,0,0,0-1,1.17c-.14.35.31.68.76.59Z"/></g><g id="hair"><path class="cls-2" d="M343.47,211.44a.81.81,0,0,1,0,.22l-.07-.07A1,1,0,0,1,343.47,211.44Z"/><path class="cls-17" d="M453.71,112.79a54.93,54.93,0,0,1-54.8,51.32,53.07,53.07,0,0,1-5.91-.32,8.57,8.57,0,0,1-1.24-.15,122,122,0,0,0-1.63-13.47,125,125,0,0,0-4.22-16.93,130.09,130.09,0,0,0-6.58-16.37A145.1,145.1,0,0,0,353,79.33c.75-1.17,1.56-2.32,2.41-3.43a54.84,54.84,0,0,1,76.87-10.27c.82.63,1.63,1.28,2.41,2a52.23,52.23,0,0,1,6.59,6.71h0a54.31,54.31,0,0,1,7.13,11.15q.42.84.78,1.71c.26.56.49,1.14.73,1.73.34.83.65,1.67.94,2.53s.49,1.46.71,2.21A54.48,54.48,0,0,1,453.71,112.79Z"/><path class="cls-18" d="M453.71,112.79a54.93,54.93,0,0,1-54.8,51.32,53.07,53.07,0,0,1-5.91-.32,8.57,8.57,0,0,1-1.24-.15,122,122,0,0,0-1.63-13.47q4.19-1,8.3-2.29a123.2,123.2,0,0,0,55.23-35.21Z"/><path class="cls-17" d="M358.45,78.13a40.93,40.93,0,0,1,2.07-5.21c.4-.82.82-1.62,1.27-2.41.06-.09.43-.79.17-.3.09-.16.2-.32.3-.49q.38-.6.78-1.2a42.87,42.87,0,0,1,3.4-4.42c.6-.68,1.23-1.34,1.87-2l.12-.12.13-.12.47-.45,1.06-1A46.7,46.7,0,0,1,374.47,57c.75-.52,1.52-1,2.31-1.49l.62-.38c.08,0,.16-.1.25-.14-.43.22-.12.07,0,0l1.27-.7A46.89,46.89,0,0,1,384,52.05c.86-.33,1.72-.64,2.6-.91l1.32-.4.62-.18s.5-.13.16,0l.23-.06a45.93,45.93,0,0,1,5.48-1q1.36-.16,2.73-.24.78,0,1.56-.06h1.22a41.61,41.61,0,0,1,6,.49c1,.15,2,.33,3.06.55l1.47.34.62.16.46.13h.11A45.72,45.72,0,0,1,417.3,53c.94.42,1.86.88,2.77,1.37.44.24.87.49,1.3.74l.31.19.73.47a38.51,38.51,0,0,1,4.77,3.67c.38.33.74.68,1.1,1l.28.28c-.3-.29-.09-.09,0,0l.6.64c.7.75,1.37,1.54,2,2.35s1.2,1.62,1.75,2.46c.26.4.51.8.76,1.21l.24.41h0c.16.24.28.51.42.76a35.43,35.43,0,0,1,2.41,5.59c.15.45.3.9.43,1.36l.21.76c0,.09.12.37,0-.07a1.92,1.92,0,0,0,.11.46c.24,1,.43,2,.58,3s.25,2,.3,3v1.73h0v.87c-.05,1-.14,2-.29,3a2,2,0,1,0,4,.59,36.71,36.71,0,0,0-5.84-25,40.49,40.49,0,0,0-19.91-15.64,47.56,47.56,0,0,0-25.06-2.26,49.6,49.6,0,0,0-21.37,9.57,44.55,44.55,0,0,0-14.18,18.42c-.34.87-.66,1.76-.94,2.65a2,2,0,0,0,1,2.63,2,2,0,0,0,2.63-1Z"/><path class="cls-17" d="M99.73,77.61a145,145,0,0,0-27.6,39.18,131.51,131.51,0,0,0-10.37,31.44A129.79,129.79,0,0,0,59.69,164h-.21c-1.5.12-3,.19-4.56.19A54.83,54.83,0,0,1,2.29,93.63c.22-.75.45-1.49.71-2.21a56.67,56.67,0,0,1,2.44-6,54,54,0,0,1,7.14-11.13h0a54.25,54.25,0,0,1,6.6-6.7h0a54.88,54.88,0,0,1,77.38,6c.39.46.77.92,1.15,1.39A33,33,0,0,1,99.73,77.61Z"/><path class="cls-18" d="M61.76,148.2a129.79,129.79,0,0,0-2.07,15.72h-.21c-1.5.12-3,.19-4.56.19A55,55,0,0,1,.15,113.3L.28,113A113.47,113.47,0,0,0,51.06,145.4C54.58,146.5,58.16,147.43,61.76,148.2Z"/><path class="cls-17" d="M97.9,73A43.38,43.38,0,0,0,82.72,55.42a49.54,49.54,0,0,0-21.93-8.16A47.7,47.7,0,0,0,36.17,51,41.35,41.35,0,0,0,17,67.56a37.47,37.47,0,0,0-4.88,25.15c.17,1,.4,2,.67,3a2,2,0,0,0,3.85-1.07q-.41-1.48-.66-3a4.08,4.08,0,0,0-.11-.7c-.08-.51,0,.31,0,0v-.39c-.06-.52-.1-1-.14-1.56a33.41,33.41,0,0,1,.16-6,3.75,3.75,0,0,1,0-.47c0,.07-.06.44,0,.07s.07-.47.11-.7c.09-.52.18-1,.29-1.56.21-1,.46-2,.76-3a28,28,0,0,1,1-2.84c.09-.25.18-.5.29-.74-.19.42.09-.19.15-.32.21-.48.43-1,.67-1.44a37.76,37.76,0,0,1,3.07-5.2l.42-.57h0c.06-.09.13-.17.19-.25.33-.42.67-.82,1-1.22.67-.78,1.38-1.53,2.12-2.25s1.5-1.41,2.29-2.07l.49-.4c.09-.08.72-.57.34-.28.42-.32.84-.63,1.28-.94a43.84,43.84,0,0,1,5.22-3.15c.91-.47,1.85-.93,2.8-1.31-.43.17.2-.08.33-.14l.67-.26q.75-.29,1.5-.54A45.24,45.24,0,0,1,47,51.79l1.41-.26.71-.11.39-.06c.13,0,.58-.14.1,0A13,13,0,0,1,51,51.14c.51,0,1-.09,1.55-.12a44.22,44.22,0,0,1,5.64,0c.91.06,1.82.15,2.73.26h.29c-.5-.09-.16,0,0,0l.65.09,1.42.25A47.24,47.24,0,0,1,68.76,53c.87.27,1.74.58,2.6.9l1.21.48.16.07.16.07.66.29a46.59,46.59,0,0,1,5,2.62c.78.47,1.55,1,2.3,1.49.36.24.71.49,1.06.75l.58.43.22.17c-.4-.34,0,0,.11.08A42.27,42.27,0,0,1,86.93,64c.63.64,1.25,1.31,1.84,2l.87,1a3.9,3.9,0,0,0,.4.51c-.28-.25-.14-.19-.05-.07l.3.4a39.19,39.19,0,0,1,3,4.65c.43.8.84,1.62,1.22,2.45a2,2,0,0,0,2.73.72A2.06,2.06,0,0,0,98,73Z"/><path class="cls-17" d="M393,163.79c0,2.65-.17,5.31-.38,8L391.8,180c-.05.69-.09,1.38-.15,2.07-.19,2.5-.46,5-.81,7.53-.3,2.21-.64,4.39-1,6.56a28.48,28.48,0,0,0-11.1-5.45c-14.14-3.36-28.06,5.44-35.25,20.67V208q-.11-6.27-.4-12.4c-.5-10.4-1.4-20.55-2.72-30.36a285,285,0,0,0-6.8-35c-.2-.81-.41-1.61-.63-2.41v20.4a23.49,23.49,0,0,1-23.48,23.49h-147L156,140h0l-.3-1.5-.21-1-.39-1.94-2.64,7.25-2.74,7.51-7.81,21.45a23.49,23.49,0,0,1-23-18.94,319.88,319.88,0,0,0-5.22,49.1q-.18,5.13-.19,10.33h0c-.28-.62-.57-1.23-.87-1.82a41.14,41.14,0,0,0-10.15-13.12h0a31.74,31.74,0,0,0-7-4.52h0a27.26,27.26,0,0,0-7.42-2.33,25.12,25.12,0,0,0-4.5-.34,26.43,26.43,0,0,0-5.67.71,30.23,30.23,0,0,0-15.89,10c-.11-.55-.2-1.11-.29-1.67-.52-3.14-1-6.33-1.35-9.55-.28-2.31-.49-4.6-.65-6.87a136.37,136.37,0,0,1-.16-16.3v-2.54a118.22,118.22,0,0,1,9.68-47.38,125.49,125.49,0,0,1,7.27-14.3A138.84,138.84,0,0,1,97.8,74.94a158.14,158.14,0,0,1,20.74-17.49A173.1,173.1,0,0,1,141.8,43.54a189.36,189.36,0,0,1,168.33,0c.34.17.67.36,1,.52,1.67.84,3.29,1.7,4.93,2.57A182.62,182.62,0,0,1,333,57,162.84,162.84,0,0,1,355.43,75.9a138.59,138.59,0,0,1,21.69,28.21,123.21,123.21,0,0,1,6.36,12.56A113.48,113.48,0,0,1,393,163.79Z"/><path class="cls-18" d="M332.89,131V148.2a23.49,23.49,0,0,1-23.48,23.49H229.83c28.62-1.85,72.9-7.11,91.18-21.05C327.88,145.4,330,139.69,332.89,131Z"/><path class="cls-18" d="M130.55,168.79a11.76,11.76,0,0,1-2.16-1.22,22,22,0,0,1-4.5-4.16,18.52,18.52,0,0,1-2.25-3.35,27.82,27.82,0,0,1-1.85-4.18,33,33,0,0,1-1.09-5,34,34,0,0,1-.27-5.71,35.17,35.17,0,0,1,.71-6.22,39,39,0,0,1,1.61-6.47,44.37,44.37,0,0,1,2.39-6.4c.44-1,.86-2,1.27-3,.56-1,1.07-2,1.58-3,1-1.89,1.91-3.61,2.92-5.19s1.94-3,2.68-4.11c1.43-2.13,2.31-3.4,2.42-3.55a36,36,0,0,1-1.52,3.31c-.5,1.06-1.12,2.34-1.84,3.83s-1.14,3-1.88,4.77a43.16,43.16,0,0,0-2,5.51,58,58,0,0,0-1.64,5.9,51.13,51.13,0,0,0-1.13,6,33.33,33.33,0,0,0-.5,5.9,32.49,32.49,0,0,0,.08,5.58c.08,1.82.44,3.45.62,5.12.46,1.51.64,3.14,1.14,4.49a36.83,36.83,0,0,0,1.35,3.82,32.62,32.62,0,0,0,2.6,5.39A23,23,0,0,0,130.55,168.79Z"/><path class="cls-18" d="M112.62,210.37a41.14,41.14,0,0,0-10.15-13.12h0a31.74,31.74,0,0,0-7-4.52h0a27.26,27.26,0,0,0-7.42-2.33,25.12,25.12,0,0,0-4.5-.34,26.43,26.43,0,0,0-5.67.71A30.22,30.22,0,0,0,62,200.87c-.11-.55-.2-1.11-.29-1.67-.52-3.14-1-6.33-1.35-9.55-.28-2.31-.49-4.6-.65-6.87a136.37,136.37,0,0,1-.16-16.3v-2.54a118.22,118.22,0,0,1,9.68-47.38,125.49,125.49,0,0,1,7.27-14.3A96.74,96.74,0,0,0,95,183.07c4.23,5.27,9,10.1,12.71,15.77A33.68,33.68,0,0,1,112.62,210.37Z"/><path class="cls-18" d="M393,163.79c0,2.65-.17,5.31-.38,8L391.8,180c-.05.69-.09,1.38-.15,2.07-.19,2.5-.46,5-.81,7.53-.3,2.21-.64,4.39-1,6.56a28.48,28.48,0,0,0-11.1-5.45c-14.14-3.36-28.06,5.44-35.25,20.67V208c3.51-4.46,7.41-8.63,11-13.06a113.79,113.79,0,0,0,22.65-90.83,123.21,123.21,0,0,1,6.36,12.56A113.35,113.35,0,0,1,393,163.79Z"/><path class="cls-18" d="M150.17,147.86a12.21,12.21,0,0,1,2.32-5.13l-2.74,7.51C149.87,149.44,150,148.65,150.17,147.86Z"/><path class="cls-18" d="M155.55,137.32q.07.57.18,1.14l-.21-1Z"/></g><g id="caps"><rect class="cls-19" x="279.48" y="-3.46" width="14.1" height="26.32" rx="4.18" transform="translate(208.04 285.44) rotate(-76.05)"/><path class="cls-19" d="M241.58,1.46l90.18,22.4a49.09,49.09,0,0,1,35.81,59.49h0l-8.14,32.77h0L174,70.05h0l8.14-32.78A49.1,49.1,0,0,1,241.58,1.46Z"/><path class="cls-20" d="M175.89,63.53c-.73,2.13-1.39,4.29-1.94,6.51h0L359.42,116.1h0c.55-2.22,1-4.44,1.33-6.66Z"/><path class="cls-21" d="M300.45,59.76q-.21-22.11-2.35-44.21c-.89-.25-1.78-.51-2.69-.74l-17.49-4.35c-1.09-.26-2.17-.49-3.26-.72Q268.42,18,262.55,26.5a415.56,415.56,0,0,0-33,57.34l69.74,17.32Q300.65,80.51,300.45,59.76Z"/><path class="cls-19" d="M377.48,131.26,150.89,75l.15-.61a12.31,12.31,0,0,1,14.9-9h0l202.69,50.36a12.32,12.32,0,0,1,9,14.92h0Z"/></g><g id="eyes"><path class="cls-22" d="M139,234.46a32.79,32.79,0,0,0,17.94,4.17,7.3,7.3,0,0,0,4.87-2,6.88,6.88,0,0,0,0-9.74h0a6.83,6.83,0,0,0-4.87-2,27.06,27.06,0,0,1-5.32-.17l1.83.25a27,27,0,0,1-6.53-1.78l1.65.69a28.73,28.73,0,0,1-2.62-1.27,7.22,7.22,0,0,0-5.31-.7A6.89,6.89,0,0,0,139,234.5Z"/><path class="cls-22" d="M327,223.26a22.46,22.46,0,0,1-2.61,1.27l1.65-.69a26.77,26.77,0,0,1-6.53,1.78l1.83-.25a25.56,25.56,0,0,1-5.32.17,6.9,6.9,0,0,0-4.88,11.77,7.59,7.59,0,0,0,4.88,2A32.77,32.77,0,0,0,334,235.14a6.88,6.88,0,0,0-1.64-12.57,7.36,7.36,0,0,0-5.32.69Z"/><path class="cls-17" d="M327.69,196.57a41.24,41.24,0,0,0-3-4.21,16.43,16.43,0,0,0-3.57-3.19,23.21,23.21,0,0,0-8.18-3.41,30,30,0,0,0-17.54,1.9,35.71,35.71,0,0,0-9,5.42,2,2,0,1,0,2.77,2.77l.42-.33c.05,0,.49-.38.22-.18l.27-.2.48-.35c.54-.39,1.1-.77,1.67-1.13a35,35,0,0,1,3.72-2l.43-.2c.15-.06.7-.24.14-.06.33-.11.66-.27,1-.39.65-.25,1.3-.47,2-.68a30.52,30.52,0,0,1,4-.93l.53-.08h.05l1-.11c.68-.05,1.36-.09,2-.09s1.35,0,2,.06l1,.09c.15,0,.75.12.11,0l.57.09a22,22,0,0,1,3.91,1q.45.15.87.33l.21.08c-.48-.14-.23-.1-.09,0l.53.24a17,17,0,0,1,1.82,1c.59.38,1.31.84,1.95,1.28.34.22.66.47,1,.71s-.28-.23-.09-.07l.25.19.48.4c.66.56,1.32,1.09,1.94,1.69a10.11,10.11,0,0,1,.9.95l.17.21c-.12-.15,0,0,.06.09l.45.61a1.45,1.45,0,0,0,1.93.51,1.43,1.43,0,0,0,.51-1.93Z"/><path class="cls-17" d="M144.67,195.55a7.15,7.15,0,0,0,1.75-.87c.55-.3,1.1-.61,1.66-.89s1.1-.63,1.66-.92,1.16-.56,1.74-.84,1.16-.58,1.75-.84l.23-.1-.19.08.45-.18,1-.36a27.69,27.69,0,0,1,3.78-1l.93-.17.5-.08h.25c-.17.06-.4.06-.08,0,.67-.09,1.35-.14,2-.18a29,29,0,0,1,4.17.09l1,.1c.26,0,0-.07-.12,0h.26l.53.09c.71.12,1.42.26,2.12.43a30.07,30.07,0,0,1,4.25,1.37l.26.11c.35.14-.23-.11,0,0l.6.27,1.18.56c.79.41,1.57.84,2.33,1.31s1.51,1,2.24,1.49l.57.42.25.19h0l1.18,1a2,2,0,1,0,3.34-2.2,1.94,1.94,0,0,0-.57-.57,34.89,34.89,0,0,0-18.18-8.38,30.58,30.58,0,0,0-17.11,2.73,20.41,20.41,0,0,0-4,2.65c-.28.24-.55.5-.81.77s-.3.32-.44.5c-.38.48.11-.12-.07.07l-.19.23a6.35,6.35,0,0,0-1.33,2.1.86.86,0,0,0,.63,1,.92.92,0,0,0,.37,0Z"/><ellipse class="cls-22" cx="168.87" cy="241.84" rx="23.38" ry="30.75"/><ellipse class="cls-22" cx="301.89" cy="242.54" rx="24.43" ry="30.75"/><path class="cls-13" d="M157.83,232.69c-6.38,0-6.4,9.92,0,9.92S164.22,232.69,157.83,232.69Z"/><path class="cls-13" d="M314.69,231.49c-6.38,0-6.4,9.92,0,9.92S321.08,231.49,314.69,231.49Z"/><path class="cls-22" d="M323.49,212a44.59,44.59,0,0,0-4.21-3,16.89,16.89,0,0,0-4.42-1.82,23.35,23.35,0,0,0-8.85-.51,30,30,0,0,0-15.91,7.62,35.43,35.43,0,0,0-6.66,8.08,2,2,0,1,0,3.54,1.7l.27-.45c0-.06.34-.52.15-.24l.19-.29.34-.48q.57-.84,1.2-1.62a33.69,33.69,0,0,1,2.84-3.13l.35-.32c.11-.11.58-.47.1-.11.29-.21.54-.47.81-.7.53-.44,1.07-.87,1.63-1.28a30.14,30.14,0,0,1,3.48-2.22l.47-.25c.11-.06.34-.14-.16.08l.21-.11.95-.44c.62-.28,1.25-.54,1.89-.77s1.28-.43,1.93-.61l1-.24c.15,0,.74-.13.1,0l.57-.11a24.38,24.38,0,0,1,4-.36h1.06l.58.05c.67.07,1.34.17,2,.3s1.51.37,2.27.56l1.16.34c.24.07-.33-.12-.1,0l.3.1.58.22a21.57,21.57,0,0,1,2.39,1,8.06,8.06,0,0,1,1.17.6l.23.14.09.06.62.43a1.45,1.45,0,0,0,2-.16,1.43,1.43,0,0,0-.16-2Z"/><path class="cls-22" d="M147.13,212a45.92,45.92,0,0,1,4.21-3,16.89,16.89,0,0,1,4.42-1.82,23.36,23.36,0,0,1,8.85-.51,30,30,0,0,1,15.91,7.62,35.18,35.18,0,0,1,6.66,8.08,2,2,0,0,1-3.54,1.7l-.27-.45c0-.06-.34-.52-.15-.24l-.19-.29-.34-.48c-.38-.56-.79-1.1-1.2-1.62a32.44,32.44,0,0,0-2.85-3.13c-.11-.11-.22-.22-.34-.32s-.58-.47-.11-.11c-.28-.21-.53-.47-.8-.7-.53-.44-1.08-.87-1.63-1.28a30.14,30.14,0,0,0-3.48-2.22l-.47-.25c-.11-.06-.34-.14.16.08l-.21-.11-.95-.44c-.62-.28-1.25-.54-1.89-.77s-1.28-.43-1.94-.61c-.31-.09-.63-.17-.95-.24-.15,0-.74-.13-.1,0l-.57-.11a24.38,24.38,0,0,0-4-.36h-1.05l-.59.05c-.68.07-1.36.17-2,.3s-1.51.37-2.27.56l-1.17.34c-.23.07.34-.12.11,0l-.3.1-.58.22a21.57,21.57,0,0,0-2.39,1,9.23,9.23,0,0,0-1.17.6l-.23.14-.09.06c-.21.14-.42.28-.62.43a1.45,1.45,0,0,1-2-.16,1.43,1.43,0,0,1,.16-2Z"/></g><g id="mouth"><path class="cls-23" d="M258.12,281.38c-1.12-2.34-3.51-2.56-5.81-2.5-2.58.07-5.15.17-7.73.3q-7.89.4-15.76,1.16-4.41.42-8.81,1c-2.76.33-5.55.61-8.29,1.12-2.32.43-4.59,1.52-5.46,3.87-.92,2.53.37,5.31,2,7.22a15.67,15.67,0,0,0,1.66,3.14,20.91,20.91,0,0,0,10.76,7.79,33,33,0,0,0,14.07,1.23,70.91,70.91,0,0,0,7.8-1.31,45.24,45.24,0,0,0,6.77-1.87,13.89,13.89,0,0,0,8.24-9,25.35,25.35,0,0,0,1.09-5.86C258.81,285.62,259,283.26,258.12,281.38Z"/><path class="cls-24" d="M257,283.6a3.41,3.41,0,0,0-1-1.75,4.33,4.33,0,0,0-3.62-.67c-10.72,1.41-21.36,3.38-32.15,4.14-2.78.2-5.56.32-8.35.34-1.34,0-2.67,0-4,0a3.43,3.43,0,0,0-1.83.17,2.49,2.49,0,0,0-1.11,1.67,3.32,3.32,0,0,0,1.06,3,4,4,0,0,0,1.85,1l-.21.06a.87.87,0,0,0,.43,1.68c1.33-.2,2.66-.18,4-.35s2.8-.29,4.19-.45c2.61-.31,5.23-.48,7.85-.65,5.37-.35,10.75-.42,16.12-.49a63.48,63.48,0,0,1,8,.27,25.06,25.06,0,0,1,3.33.63c1.24.32,2.55.75,3.74,0A4.67,4.67,0,0,0,257,289a12.66,12.66,0,0,0,.28-3A1.74,1.74,0,0,0,257,283.6Z"/><path class="cls-22" d="M205.11,284.93a206.15,206.15,0,0,0,36.17-.82q4.08-.47,8.15-1.08c1.34-.2,3.45-1,4.72-.77,1.73.39,1.7,2.13,1.8,3.58a15.15,15.15,0,0,1-5,12.65c-4.38,3.76-11.07,4.94-16.65,5.29-6,.37-12.34-.17-17.81-2.74-6.25-2.93-9.56-8.42-8.5-15.36.49-3.22-4.45-4.62-4.94-1.36-1.17,7.6,1,14.58,7.42,19.14,6.17,4.39,14.35,5.69,21.77,5.53,7.12-.14,15.2-1.49,21.05-5.84A19.58,19.58,0,0,0,260.91,290c.55-4,.57-11.61-4.52-12.8-1.61-.37-3.37.1-4.95.36-2.48.4-4.95.79-7.44,1.11-4.07.52-8.16.9-12.25,1.17a207.72,207.72,0,0,1-26.64,0c-3.3-.2-3.28,4.93,0,5.13Z"/></g><g id="dress"><path class="cls-25" d="M275.24,439.86l-2-16.19-1.63-13.46-.72-5.95h0l-.44-3.61-.78-6.46-2.47-20.4h0V353a20.1,20.1,0,0,0-2.47-.15h-.85v20.94H191.53v-21a21.35,21.35,0,0,0-3.32.26v21.78L185.89,394l-1.5,12.32h0L184,410l0,.23-1.63,13.46-2,16.19-.35,2.92h95.61Z"/><polygon class="cls-25" points="322.83 536.48 134.97 536.48 179.98 442.78 275.6 442.78 322.83 536.48"/><ellipse class="cls-26" cx="196.71" cy="377.63" rx="13.88" ry="10.54"/><ellipse class="cls-26" cx="218.53" cy="377.63" rx="13.88" ry="10.54"/><ellipse class="cls-26" cx="241.54" cy="377.63" rx="13.88" ry="10.54"/><ellipse class="cls-26" cx="259.26" cy="377.63" rx="13.88" ry="10.54"/><path class="cls-27" d="M273.14,377.63c0,5.82-6.21,10.54-13.88,10.54a16.63,16.63,0,0,1-8.86-2.43,16.64,16.64,0,0,1-8.87,2.43,15.39,15.39,0,0,1-11.5-4.65,15.39,15.39,0,0,1-11.5,4.65,15.73,15.73,0,0,1-10.91-4,15.77,15.77,0,0,1-10.91,4c-7.67,0-13.89-4.72-13.89-10.54a2.44,2.44,0,0,1,0-.27c1.39,4.71,6.93,8.23,13.54,8.23a16.25,16.25,0,0,0,9.83-3.1,10.89,10.89,0,0,0,1.09-.93,10.72,10.72,0,0,0,1.51,1.24,16.37,16.37,0,0,0,9.39,2.79,16,16,0,0,0,10.62-3.75,10.68,10.68,0,0,0,.89-.89,10.7,10.7,0,0,0,1.33,1.27,16.1,16.1,0,0,0,10.17,3.37,17.15,17.15,0,0,0,7.11-1.49,14,14,0,0,0,1.76-.94,13.15,13.15,0,0,0,2.21,1.14,17.36,17.36,0,0,0,6.65,1.29c7.55,0,13.69-4.57,13.87-10.27A8.07,8.07,0,0,1,273.14,377.63Z"/><ellipse class="cls-26" cx="141.57" cy="532.69" rx="13.88" ry="10.54"/><ellipse class="cls-26" cx="163.39" cy="532.69" rx="13.88" ry="10.54"/><ellipse class="cls-26" cx="186.4" cy="532.69" rx="13.88" ry="10.54"/><ellipse class="cls-26" cx="204.13" cy="532.69" rx="13.88" ry="10.54"/><ellipse class="cls-26" cx="226.46" cy="533.98" rx="13.88" ry="10.54"/><ellipse class="cls-26" cx="248.28" cy="533.98" rx="13.88" ry="10.54"/><ellipse class="cls-26" cx="271.29" cy="533.98" rx="13.88" ry="10.54"/><ellipse class="cls-26" cx="289.02" cy="533.98" rx="13.88" ry="10.54"/><ellipse class="cls-26" cx="289.25" cy="533.98" rx="13.88" ry="10.54"/><ellipse class="cls-26" cx="312.26" cy="533.98" rx="13.88" ry="10.54"/><path class="cls-27" d="M326.14,534c0,5.83-6.22,10.54-13.89,10.54a15.42,15.42,0,0,1-11.5-4.64l-.11-.13a15.23,15.23,0,0,1-10.91,4.76h-.48c-.49,0-1,0-1.46,0a16.26,16.26,0,0,1-7.52-2.45l-.12.08a16.74,16.74,0,0,1-8.86,2.42,15.49,15.49,0,0,1-11.51-4.63,15.45,15.45,0,0,1-11.5,4.63,15.78,15.78,0,0,1-10.91-4,15.78,15.78,0,0,1-10.91,4c-5,0-9.35-2-11.79-5a16,16,0,0,1-10.55,3.69,16.63,16.63,0,0,1-8.86-2.43,16.63,16.63,0,0,1-8.86,2.43,15.42,15.42,0,0,1-11.5-4.64,15.46,15.46,0,0,1-11.51,4.64,15.73,15.73,0,0,1-10.91-4,15.74,15.74,0,0,1-10.91,4c-7.67,0-13.89-4.72-13.89-10.54a8.19,8.19,0,0,1,.57-3c.95,5.11,6.74,9,13.74,9a16.77,16.77,0,0,0,8.47-2.2,12.51,12.51,0,0,0,2.44-1.82,12.56,12.56,0,0,0,1.79,1.42A17.27,17.27,0,0,0,173.2,536a12.67,12.67,0,0,0,2.12-1.86,11.12,11.12,0,0,0,1.45,1.37,16.18,16.18,0,0,0,10,3.27,17.69,17.69,0,0,0,5.28-.79,15.5,15.5,0,0,0,3.59-1.64,14.26,14.26,0,0,0,2.91,1.41,17.26,17.26,0,0,0,5.94,1,16.73,16.73,0,0,0,8.46-2.19,12,12,0,0,0,2.09-1.5,11.19,11.19,0,0,0,1.81,1.76h0a16.23,16.23,0,0,0,10,3.21,16.78,16.78,0,0,0,8.48-2.2,12.09,12.09,0,0,0,2.43-1.83,12,12,0,0,0,1.79,1.43,17.28,17.28,0,0,0,18.5-.17,11.66,11.66,0,0,0,2.13-1.87,10.6,10.6,0,0,0,1.46,1.37,16.15,16.15,0,0,0,10,3.27,17.57,17.57,0,0,0,5.27-.79.64.64,0,0,0,.18-.06,15.52,15.52,0,0,0,3.42-1.58A14.65,14.65,0,0,0,283.5,539a17.35,17.35,0,0,0,5.45,1h1.2a16.39,16.39,0,0,0,8.91-2.76,12.73,12.73,0,0,0,2.12-1.87,9.9,9.9,0,0,0,1.28,1.22h0l.17.14A16.18,16.18,0,0,0,312.68,540c6.3,0,11.63-3.19,13.32-7.57A8.6,8.6,0,0,1,326.14,534Z"/></g></g></g></g></svg>