<svg version="1.1" id="Capa_1" xmlns="http://www.w3.org/2000/svg" xmlns:xlink="http://www.w3.org/1999/xlink" x="0px" y="0px" viewBox="0 0 379.694 379.694" style="enable-background:new 0 0 379.694 379.694;" xml:space="preserve">
     <!-- <polygon id="background" fill="#d1d0fc" points="0,0 360,0 360,360 0,360 "></polygon> -->

    <g>
    
    <path style="fill:#F29555;" d="M220.421,145.997c-4.938-5.387-21.75-13.518-30.574-11.148c-8.824-2.369-25.636,5.762-30.574,11.148
        c-7.29,7.953-16.305,21.699-14.25,86.697h44.702h0.242h44.702C236.726,167.696,227.711,153.95,220.421,145.997z"></path>
       <!-- hair style -->
        <svg id="hair_back" xmlns="http://www.w3.org/2000/svg" xmlns:xlink="http://www.w3.org/1999/xlink" width="360px" height="360px" viewBox="0 40 335 460" e="xMidYMid meet">
            <g class="h_hairbun" style="display: none;">
                <path class="tinted" fill="#9a4f2b" d="M204 46c28,11 48,41 48,75 0,5 -1,10 -1,14l-2 0c-3,-40 -33,-64 -69,-64 -36,0 -66,24 -69,64l-2 0c0,-4 -1,-9 -1,-14 0,-34 20,-64 48,-75 -3,-3 -5,-7 -5,-12 0,-12 13,-22 29,-22 16,0 29,10 29,22 0,5 -2,9 -5,12z"></path>
            </g>
            <g class="h_longhair" style="display: none;">
                <path class="tinted" fill="#9a4f2b" d="M71 174c3,-11 -13,-62 3,-94 17,-35 36,-48 83,-51 34,-3 68,-2 99,16 13,7 21,22 28,35 5,11 8,24 9,36 0,13 -6,24 -6,43 -1,32 39,33 39,62 0,40 -29,40 -28,56 1,20 28,25 28,55 0,11 -10,22 -18,28 -87,0 -174,0 -260,0 -14,-11 -15,-23 -14,-36 3,-18 25,-31 25,-49 0,-11 -25,-20 -25,-54 1,-29 37,-41 37,-47zm126 -85l-1 0c0,0 0,0 0,0l1 0z"></path>
            </g>
             
            <g class="h_longhaircurly" style="display: none;">
                <path class="tinted" fill="#9a4f2b" d="M180 269c-23,0 -44,-7 -56,-18 -4,1 -8,1 -12,1 -38,0 -68,-27 -68,-60 0,-18 8,-34 22,-45 -12,-10 -15,-31 -7,-52 9,-20 27,-34 42,-33 2,-13 13,-25 29,-32 19,-8 38,-6 50,3 12,-9 31,-11 50,-3 16,7 27,19 29,32 15,-1 33,13 42,33 8,21 5,42 -7,52 14,11 22,27 22,45 0,33 -30,60 -68,60 -4,0 -8,0 -12,-1 -12,11 -33,18 -56,18zm-69 -137c0,0 0,0 0,0l0 -1 0 1zm138 -1l0 1c0,0 0,0 0,0l0 -1z"></path>
            </g>
            <g class="h_longhaircurvy" style="display:none;">
                <path class="tinted" fill="#9a4f2b" d="M183 34c50,0 67,23 80,68 4,14 13,31 20,43 5,12 0,17 0,25 8,2 23,10 30,27 4,10 -4,31 -15,38 -3,3 0,24 -6,37 -7,14 -13,13 -23,19 -7,4 23,38 4,63 -12,-22 -36,0 -51,-10 -18,-10 -18,-27 -18,-38 0,-8 5,-27 14,-44l-93 0c-6,12 -22,21 -22,28 0,6 0,19 23,21 -6,7 -23,3 -27,1 0,5 1,5 4,10 -10,-3 -15,-11 -16,-15 -6,7 -2,14 -5,24 -22,-10 -25,-31 -26,-36 -2,-33 11,-36 9,-45 -4,-17 -19,-20 -19,-37 0,-19 23,-41 28,-47 5,-6 -1,-20 0,-30 3,-18 18,-35 19,-35 31,-44 27,-67 90,-67z"></path>
            </g>
            <g class="h_longhairdread" style="display:none;">
                <path class="tinted" fill="#9a4f2b" d="M233 262l-91 0c1,3 1,6 2,10 1,7 0,14 -1,21 0,8 -1,16 1,22 1,6 5,11 10,16 2,3 5,6 7,9 2,4 1,8 -2,10 -3,2 -7,1 -10,-2 -1,-3 -4,-5 -6,-8 -4,-4 -7,-9 -10,-14 0,7 2,13 5,19 1,4 0,8 -4,9 -4,2 -8,0 -9,-3 -4,-9 -6,-19 -6,-29 -4,8 -7,16 -9,27 -1,4 -4,6 -8,6 -4,-1 -6,-5 -6,-8 1,-2 1,-4 1,-6 -2,6 -5,11 -11,17 -3,3 -8,3 -10,0 -3,-3 -3,-7 0,-10 9,-9 11,-19 10,-29 -1,8 -4,15 -10,22 -2,3 -6,3 -9,1 -3,-3 -4,-7 -2,-10 6,-7 9,-16 9,-26 0,-4 -1,-7 -1,-11 -3,6 -7,12 -12,18 -2,3 -6,3 -9,1 -3,-3 -4,-7 -1,-10 10,-14 14,-25 13,-35 0,0 0,0 0,0 0,0 0,0 0,-1 -1,-6 -4,-11 -7,-16 -2,1 -3,3 -4,4 -2,2 -4,5 -5,6 0,0 1,2 2,3 1,2 2,3 3,5 1,4 -1,8 -5,9 -3,2 -7,0 -9,-4 0,-1 0,-2 -1,-3 -2,-4 -5,-8 -3,-14 2,-4 4,-8 7,-11 2,-2 4,-5 5,-7 1,-5 0,-11 0,-17 -1,-7 -2,-15 0,-23 2,-7 6,-14 10,-21 2,-3 3,-5 5,-7 1,-4 1,-14 0,-24 0,-8 0,-15 1,-19 2,-5 10,-20 17,-33 7,-12 14,-23 16,-24 1,-1 2,-2 4,-2 3,-3 9,-6 12,-9 0,-1 -1,-2 -1,-3 0,-5 0,-10 5,-14 5,-3 9,-3 14,-2 2,0 3,1 4,0 0,0 0,-1 1,-2 2,-4 4,-8 10,-10l0 0c6,0 10,2 14,4 2,1 4,2 5,2 4,0 7,-1 10,-2 5,-1 10,-3 17,-2l0 0c6,1 8,5 11,8 1,2 3,3 3,4 1,0 4,-1 6,-2 6,-2 11,-4 17,-2 7,3 11,8 14,14 2,2 3,4 5,6 4,5 10,9 16,13 3,2 5,4 8,6 0,1 2,2 3,3 6,4 11,8 14,16 3,10 4,22 5,33 0,4 1,8 1,11 1,7 2,12 3,17 2,5 4,9 7,15 1,3 4,7 6,10 2,3 4,5 6,6 4,3 4,7 2,10 -2,3 -7,4 -10,2 0,0 0,-1 0,-1 0,9 6,19 11,29 5,9 11,19 13,29 1,3 -1,7 -5,8 -1,0 -2,0 -2,0 1,5 2,11 3,16 1,4 -2,8 -5,8 -2,1 -4,0 -6,-1 1,4 1,7 2,11 1,5 2,12 4,17 1,4 -2,8 -5,9 -4,1 -8,-2 -9,-5 -2,-8 -3,-13 -4,-19 -2,-9 -3,-18 -7,-27 1,3 2,6 2,10 2,6 3,12 4,18 1,3 -1,7 -5,8 -3,1 -6,-1 -8,-3l1 3c2,8 4,15 5,22 1,4 -2,8 -6,9 -3,0 -7,-2 -8,-6 -1,-7 -3,-14 -4,-22 -2,-7 -4,-14 -5,-21 -2,12 -3,24 0,39 0,3 -2,7 -6,8 -4,1 -7,-2 -8,-6 -2,-11 -2,-20 -2,-29 -2,10 -3,22 -2,34 1,4 -2,7 -6,8 -4,0 -7,-3 -8,-7 -1,-10 -1,-21 1,-30 -3,3 -4,6 -5,10 -3,7 -2,16 1,26 1,3 -2,7 -5,8 -4,1 -8,-1 -9,-5 -3,-12 -4,-23 -1,-33 1,-1 1,-2 1,-3 -4,8 -7,17 -9,28 0,4 -4,6 -8,6 -3,-1 -6,-5 -5,-8 2,-12 5,-22 9,-30 -2,2 -3,3 -5,5 -2,3 -7,3 -10,1 -3,-3 -3,-7 -1,-10 2,-1 4,-5 8,-9 8,-10 21,-24 29,-35z"></path>
            </g>
            <g class="h_nottoolong" style="display:none;">
                <path class="tinted" fill="#9a4f2b" d="M272 146l0 -3 0 0 0 -15c0,-51 -42,-93 -93,-93l0 0c-44,0 -82,32 -90,75 0,0 -1,0 -1,0 -7,0 -13,7 -13,16 0,7 4,15 12,16l0 100c0,4 3,8 8,8l68 0 13 0 58 0c21,0 38,-17 38,-38l0 -66z"></path>
            </g>
            <g class="h_miawallace" style="display:none;">
                <path class="tinted" fill="#9a4f2b" d="M92 256c25,-4 58,-9 87,-9 29,0 61,5 86,9 45,-50 26,-79 8,-134 -21,-60 -30,-83 -94,-83 -64,0 -74,23 -94,83 -19,55 -37,84 7,134z"></path>
            </g>
            <g class="h_longhairstraight" style="display:none;">
                <path class="tinted" fill="#9a4f2b" d="M116 318l157 0 0 -178 0 -11c0,-51 -42,-92 -93,-92l0 0c-50,0 -92,41 -92,92 0,74 0,148 0,222 16,-2 28,-16 28,-33z"></path>
            </g>
            <g class="h_longhairstraight2" style="display:none;">
                <path class="tinted" fill="#9a4f2b" d="M63 342c45,9 73,1 83,-51l85 0c29,23 59,46 73,53 7,-3 13,-21 6,-44 -12,-41 -45,-78 -48,-120 -3,-38 3,-86 -2,-102 -6,-19 -26,-39 -53,-33 -5,-8 -22,-18 -47,-13 -31,7 -68,38 -69,80 -2,99 -1,215 -28,230z"></path>
            </g>
            <g class="h_shorthairshaggy" style="display:none;">
                <path class="tinted" fill="#9a4f2b" d="M120 190c36,2 72,4 108,6 -1,24 1,38 22,36 -7,5 -14,7 -22,6 3,4 10,5 18,5 -18,17 -30,10 -40,-6 -18,2 -36,5 -54,8 -15,13 -37,14 -70,-9 14,3 27,-13 38,-46z"></path>
            </g>
        </svg>
       <!-- hands -->
       <g id="hands">
        <path fill="#ffdbb4" d="M176.696,145.395c-2.927-4.684-9.098-6.105-13.78-3.18c-0.601,0.375-14.87,9.398-28.294,26.873
            c-12.032,15.664-20.413,34.963-23.423,54.5c-2.032,13.189-5.65,44.045,8.683,52.643c14.666,8.797,15.817-9.242,13.582-18.631
            c9.128,8.115,12.126,2.295,7.751-6.23c-6.346-12.369-11.754-16.338-8.799-31.258c2.755-13.912,9.095-26.998,17.632-38.27
            c11.185-14.768,23.269-22.541,23.489-22.682C178.204,156.229,179.618,150.071,176.696,145.395z"></path>
            <path fill="#ffdbb4" d="M270.314,247.399c-0.321-6.156-1.142-12.035-1.626-16.475
            c-2.466-22.602-10.225-44.051-24.129-62.15c-13.423-17.477-27.692-26.498-28.293-26.875c-4.683-2.926-10.853-1.504-13.78,3.182
            c-2.922,4.676-1.508,10.832,3.158,13.766c0.22,0.139,12.304,7.912,23.489,22.68c8.156,10.768,14.092,22.986,17.091,36.168
            c2.643,11.625,1.104,20.162-4.422,30.547c-3.65,6.859-7.357,22.039,5.01,11.043c-2.235,9.389-1.085,27.426,13.582,18.631
            C269.672,272.349,270.936,259.35,270.314,247.399z"></path>
       </g>
       <!-- end -->
        <g id="clothes">
            <path style="fill:#C6DFE0;" d="M162.343,141.964c-4.794,3.418-18.499,12.818-28.721,26.125c-2.863,3.729-5.512,7.666-7.939,11.76
                c5.376,4.01,11.723,9.059,16.945,13.25c2.223-3.914,4.71-7.678,7.421-11.256c11.185-14.768,23.269-22.541,23.489-22.682
                c0.163-0.102,0.313-0.217,0.468-0.328C167.944,155.583,165.069,148.311,162.343,141.964z"></path>
            <path style="fill:#C6DFE0;" d="M245.558,167.774c-13.15-17.121-28.103-25.121-29.23-25.834
                c-2.232,6.457-6.636,11.969-12.309,15.633c0.487,0.471,1.028,0.898,1.624,1.273c0.22,0.139,12.304,7.912,23.489,22.68
                c4.286,5.658,7.951,11.721,10.906,18.107c4.825-4.531,11.564-9.195,17.387-12.729
                C254.126,180.214,250.191,173.804,245.558,167.774z"></path>
            <path style="fill:#E1F7F9;" d="M220.421,145.997c-1.664-1.816-4.679-3.941-8.28-5.873c-5.531,7.006-14.073,11.57-23.526,11.57
                c-9.021,0-17.213-4.158-22.751-10.627c-2.847,1.662-5.194,3.406-6.59,4.93c-7.29,7.953-17.325,19.031-14.25,86.697h89.646
                C238.615,165.028,227.711,153.95,220.421,145.997z"></path>
        </g>
           
        <!-- face -->
        <g id="skin">
            <!-- ears -->
            <ellipse transform="matrix(0.9925 -0.1219 0.1219 0.9925 -8.1332 31.0758)" fill="#ffdbb4" cx="249.986" cy="82.029" rx="13.667" ry="17"></ellipse>
            <ellipse transform="matrix(0.9998 -0.0176 0.0176 0.9998 -1.4282 2.301)" fill="#ffdbb4" cx="129.653" cy="82.071" rx="13.667" ry="17"></ellipse>

            <!-- face -->
            <path id="face1" fill="#ffdbb4" d="M190.855,19.159c-15.093,0.699-30.754,4.859-42,12.536c-16.568,11.31-18.277,34.876-20.242,52.996
                c-2.075,19.129-1.015,38.614,16.468,50.001c12.189,7.939,31.458,7.709,45.774,8.861V19.159z"></path>
            <path id="face2" fill="#ffdbb4" d="M189.84,19.159c15.093,0.699,29.754,4.859,41,12.536c16.568,11.31,18.277,34.876,20.242,52.996
                c2.074,19.129,1.016,38.614-16.468,50.001c-12.189,7.939-30.457,7.709-44.774,8.861V19.159z"></path>  
        </g>
        <!-- end -->
        <g>
            <path style="fill:#FFB37F;" d="M145.143,231.694c1.123,11.6,7.469,74.742,22.757,126h16l-3-88h18.045l-2.99,87h16
                c14.888-49.918,21.296-111.267,22.659-125H145.143z"></path>
            <path style="fill:#ACD2EA;" d="M183.9,357.694h-16c0,0-27,14-25,22h42L183.9,357.694z"></path>
            <path style="fill:#ACD2EA;" d="M195.795,356.694h16c0,0,27,14,25,22h-42L195.795,356.694z"></path>
        </g>
        <path style="opacity:0.5;fill:#4198C4;" d="M172.122,378.694H184.9l-0.811-17.838
            C178.239,365.077,174.503,371.751,172.122,378.694z"></path>
        <path style="opacity:0.5;fill:#4198C4;" d="M207.567,378.694h-12.778l0.811-17.838
            C201.451,365.077,205.187,371.751,207.567,378.694z"></path>
    </g>
  

    <!-- <g>
        <circle style="fill:#333331;" cx="159.723" cy="88.849" r="6.487"/>
        <circle style="fill:#333331;" cx="219.972" cy="88.849" r="6.487"/>
    </g> -->
    <!-- eyes -->
    <svg id="eyes" xmlns="http://www.w3.org/2000/svg" xmlns:xlink="http://www.w3.org/1999/xlink" width="360px" height="360px" viewBox="0 45 340 450" e="xMidYMid meet">
        <g id="e_default">
            <circle fill="#000000" fill-opacity="0.7" cx="148" cy="153" r="8"></circle>
            <circle fill="#000000" fill-opacity="0.7" cx="212" cy="153" r="8"></circle>
        </g>
        <g id="e_dizzy" style="display:none;">
            <polygon fill="#000000" fill-opacity="0.7" stroke="#5F4A37" stroke-width="0.9" points="139,141 146,149 154,141 157,145 150,152 157,160 154,163 146,156 139,163 135,160 143,152 135,145 "></polygon>
            <polygon fill="#000000" fill-opacity="0.7" points="206,141 213,149 221,141 224,145 217,152 224,160 221,163 213,156 206,163 202,160 210,152 202,145 "></polygon>
        </g>
        <g id="e_eyeroll" style="display:none;">
            <circle fill="#FEFEFE" cx="148" cy="152" r="17"></circle>
            <circle fill="#4D4D4D" stroke="#5F4A37" stroke-width="0.9" cx="148" cy="143" r="8"></circle>
            <circle fill="#FEFEFE" cx="212" cy="152" r="17"></circle>
            <circle fill="#4D4D4D" cx="212" cy="143" r="8"></circle>
        </g>
        <g id="e_happy" style="display:none;">
            <path fill="#000000" fill-opacity="0.7" d="M131 153c-1,0 0,2 1,1 2,-2 5,-3 11,-4 7,1 9,2 11,4 2,1 3,-1 2,-1 -1,-1 -5,-7 -13,-7 -7,0 -12,6 -12,7z"></path>
            <path fill="#000000" fill-opacity="0.7" d="M202 153c0,0 1,2 2,1 2,-2 5,-3 11,-4 7,1 9,2 11,4 2,1 3,-1 2,-1 -1,-1 -5,-7 -13,-7 -7,0 -12,6 -13,7z"></path>
        </g>
        <g id="e_close" style="display:none;">
            <path fill="#000000" fill-opacity="0.7" d="M131 160c-1,0 0,-2 1,-1 2,2 5,3 11,4 7,-1 9,-2 11,-4 2,-1 3,1 2,1 -1,1 -5,7 -13,7 -7,0 -12,-6 -12,-7z"></path>
            <path fill="#000000" fill-opacity="0.7" d="M202 160c0,0 1,-2 2,-1 2,2 5,3 11,4 7,-1 9,-2 11,-4 2,-1 3,1 2,1 -1,1 -5,7 -13,7 -7,0 -12,-6 -13,-7z"></path>
        </g>
        <g id="e_hearts" style="display:none;">
            <path fill="#FC675E" d="M138 138c4,0 7,2 9,5 1,-3 5,-5 8,-5 6,0 10,4 10,10 0,2 -1,5 -3,7 -5,5 -10,10 -15,16l-16 -16c-2,-2 -3,-5 -3,-7 0,-6 4,-10 10,-10z"></path>
            <path fill="#FC675E" d="M204 138c4,0 7,2 9,5 2,-3 5,-5 9,-5 5,0 10,4 10,10 0,2 -2,5 -3,7 -5,5 -11,10 -16,16l-16 -16c-2,-2 -3,-5 -3,-7 0,-6 5,-10 10,-10z"></path>
        </g>
        <g id="e_side" style="display:none;">
            <path fill="#000000" fill-opacity="0.7" d="M229 155c0,4 -3,7 -7,7 -5,0 -8,-3 -8,-7 0,-2 1,-3 1,-5 -6,1 -9,2 -11,4 -2,1 -2,-1 -2,-1 1,-1 6,-8 14,-8 4,0 8,2 10,4 2,1 3,3 3,6z"></path>
            <path fill="#000000" fill-opacity="0.7" d="M157 155c0,4 -3,7 -7,7 -4,0 -8,-3 -8,-7 0,-2 1,-3 2,-5 -7,1 -10,2 -12,4 -1,1 -2,-1 -1,-1 0,-1 6,-8 13,-8 4,0 8,2 11,4 1,1 2,3 2,6z"></path>
        </g>
        <g id="e_wink" style="display:none;">
            <path fill="#000000" fill-opacity="0.7" d="M225 155c1,1 0,3 -2,1 -2,-1 -4,-3 -11,-3 -6,0 -9,2 -11,3 -1,2 -2,0 -2,-1 1,-1 6,-7 13,-7 8,0 12,6 13,7z"></path>
            <circle fill="#000000" fill-opacity="0.7" cx="148" cy="153" r="7"></circle>
        </g>
        <g id="e_squint" style="display:none;">
            <path fill="#FEFEFE" d="M148 159c-6,0 -13,1 -17,1 0,-1 0,-2 0,-3 0,-9 7,-16 17,-16 9,0 16,7 16,16 0,1 0,2 0,3 -3,0 -11,-1 -16,-1z"></path>
            <path fill="#4D4D4D" d="M148 159c-2,0 -3,0 -4,0 -2,-1 -4,-3 -4,-6 0,-3 3,-6 8,-6 4,0 7,3 7,6 0,3 -1,5 -3,6 -2,0 -3,0 -4,0z"></path>
            <path fill="#FEFEFE" d="M212 159c-5,0 -13,1 -16,1 0,-1 0,-2 0,-3 0,-9 7,-16 16,-16 10,0 17,7 17,16 0,1 0,2 0,3 -4,0 -11,-1 -17,-1z"></path>
            <path fill="#4D4D4D" d="M212 159c-1,0 -2,0 -4,0 -2,-1 -3,-3 -3,-6 0,-3 3,-6 7,-6 4,0 8,3 8,6 0,3 -2,5 -4,6 -1,0 -2,0 -4,0z"></path>
        </g>
        <g id="e_surprised" style="display:none;">
            <circle fill="#FEFEFE" cx="148" cy="153" r="17"></circle>
            <circle fill="#4D4D4D" stroke="#5F4A37" stroke-width="0.9" cx="148" cy="153" r="8"></circle>
            <circle fill="#FEFEFE" cx="212" cy="153" r="17"></circle>
            <circle fill="#4D4D4D" cx="212" cy="153" r="8"></circle>
        </g>
        <g id="e_winkwacky" style="display:none;">
            <path fill="#000000" fill-opacity="0.7" d="M131 156c-1,1 0,3 1,1 2,-1 5,-3 11,-3 7,0 9,2 11,3 2,2 3,0 2,-1 -1,-1 -5,-7 -13,-7 -7,0 -12,6 -12,7z"></path>
            <circle fill="#FEFEFE" cx="212" cy="153" r="15"></circle>
            <circle fill="#4D4D4D" cx="212" cy="153" r="8"></circle>
        </g>
        <g id="e_cry" style="display:none;">
            <circle fill="#000000" fill-opacity="0.7" cx="148" cy="153" r="8"></circle>
            <circle fill="#000000" fill-opacity="0.7" cx="212" cy="153" r="8"></circle>
            <path fill="#92D9FF" d="M134 173c0,-3 6,-12 8,-14 2,2 7,11 7,14 0,4 -3,8 -7,8 0,0 0,0 0,0 0,0 0,0 0,0 -4,0 -8,-4 -8,-8z"></path>
        </g>
    </svg>
    <!-- end -->
    <svg id="hair_front" xmlns="http://www.w3.org/2000/svg" xmlns:xlink="http://www.w3.org/1999/xlink" width="360px" height="360px" viewBox="0 40 335 460" e="xMidYMid meet">
        <g class="h_longhair" style="display: none;">
            <path fill="#000000" fill-opacity="0.2" d="M71 174c2,-11 -13,-62 3,-94 17,-35 36,-48 83,-51 34,-3 68,-2 99,16 13,7 21,22 28,35 5,11 8,24 9,36 0,13 -6,24 -6,43 0,2 0,3 0,5l-2 -1c-8,-3 -17,-7 -25,-12 -10,-6 -20,-13 -29,-20 -11,-9 -25,-21 -34,-33 -5,7 -13,13 -20,17 -6,4 -13,7 -19,9 -8,3 -15,6 -23,9 -8,3 -16,6 -24,10 -12,7 -17,7 -40,31zm126 -85l-1 0c0,0 0,0 0,0l1 0z"></path>
            <path class="tinted" fill="#c79d63" d="M71 174c3,-11 -13,-62 3,-94 17,-35 36,-48 83,-51 34,-3 68,-2 99,16 13,7 21,22 28,35 5,11 8,24 9,36 0,13 -6,24 -6,43 -25,-9 -74,-43 -91,-70 -6,17 -31,28 -62,40 -25,8 -46,14 -63,45z"></path>
        </g>
        <g class="h_longhairbob" style="display: none;">
            <path fill="#000000" fill-opacity="0.2" d="M111 136c13,-4 18,-9 36,-29 2,-3 4,-6 5,-9 24,24 56,38 88,45l-6 -10c2,1 22,10 26,10 0,-14 -11,2 -11,-15 0,-38 -31,-69 -69,-69l0 0c-44,0 -69,35 -69,77z"></path>
            <path class="tinted" fill="#bb7748" d="M70 156l0 0c0,1 -1,3 -1,4l3 -3c17,7 84,-59 77,-72 10,16 55,44 80,49 -4,-7 -9,-10 -13,-17 16,11 53,33 72,38 -8,-32 -25,-73 -44,-95 -20,-22 -60,-22 -65,-22 -5,0 -45,-1 -65,22 -18,20 -34,61 -43,93 -1,1 -1,2 -1,3z"></path>
        </g>
        <g class="h_hairbun" style="display: none;">
            <path class="tinted" fill="#bb7748" d="M204 46c28,11 48,41 48,75 0,5 -1,10 -1,14l-2 0c-3,-40 -33,-64 -69,-64 -36,0 -66,24 -69,64l-2 0c0,-4 -1,-9 -1,-14 0,-34 20,-64 48,-75 -3,-3 -5,-7 -5,-12 0,-12 13,-22 29,-22 16,0 29,10 29,22 0,5 -2,9 -5,12z"></path>
        </g>
        <g class="h_longhaircurly" style="display: none;">
            <path fill="#000000" fill-opacity="0.2" d="M97 143c2,-1 4,-3 6,-5 5,-5 17,-11 22,-19 10,-16 12,-23 16,-22 13,4 20,3 39,3 19,0 26,1 39,-3 4,-1 7,6 16,22 4,7 13,11 22,19 2,2 4,3 6,5 -11,-6 -24,-13 -31,-22 -3,-5 -6,-10 -9,-15 -1,-1 -2,-4 -4,-5 -4,1 -8,2 -12,2 -4,1 -8,1 -12,1 -5,0 -10,0 -15,0 -5,0 -10,0 -15,0 -4,0 -8,0 -12,-1 -4,0 -8,-1 -12,-2 -2,1 -3,4 -4,5 -3,5 -6,10 -9,15 -13,14 -26,16 -31,22z"></path>
            <path class="tinted" fill="#bb7748" d="M59 95c9,-20 27,-34 42,-33 2,-13 13,-25 29,-32 19,-8 38,-6 50,3 12,-9 31,-11 50,-3 16,7 27,19 29,32 15,-1 33,13 42,33 13,33 -4,80 -44,43 -5,-5 -17,-11 -22,-19 -10,-16 -12,-23 -16,-22 -13,4 -20,3 -39,3 -19,0 -26,1 -39,-3 -4,-1 -6,6 -16,22 -5,8 -17,14 -22,19 -8,7 -14,19 -30,13 -18,-7 -24,-32 -14,-56z"></path>
        </g>
        <g class="h_longhaircurvy" style="display: none;">
            <path fill="#000000" fill-opacity="0.2" d="M112 121c8,-7 21,-11 38,-13l1 -7 1 7c6,-1 12,-2 18,-2l2 -11 2 11c12,-1 24,0 34,1l1 -6 1 7c18,2 32,7 39,15l0 5c-6,-9 -28,-15 -39,-17l-1 0 -1 0c-11,-2 -22,-2 -34,-2l-2 0 -2 0c-5,1 -11,1 -17,2l-1 0 -1 0c-11,2 -30,6 -39,13l0 -3z"></path>
            <path class="tinted" fill="#bb7748" d="M183 34c50,0 67,23 80,68 4,14 13,31 20,43 5,12 0,17 0,25 8,2 23,10 30,27 4,10 -4,31 -15,38 -3,3 0,24 -6,37 -7,14 -13,13 -23,19 -7,4 23,38 4,63 -12,-22 -36,0 -51,-10 -18,-10 -18,-27 -18,-38 0,-11 10,-46 29,-65 -2,-16 18,-47 17,-60l-1 -58c-7,-8 -21,-13 -39,-15l-1 -7 -1 6c-10,-1 -22,-2 -34,-1l-2 -11 -2 11c-6,0 -12,1 -18,2l-1 -7 -1 7c-17,2 -30,6 -38,13 0,27 -1,64 0,68 2,11 19,33 17,63 -1,16 -26,29 -26,38 0,6 0,19 23,21 -6,7 -23,3 -27,1 0,5 1,5 4,10 -10,-3 -15,-11 -16,-15 -6,7 -2,14 -5,24 -22,-10 -25,-31 -26,-36 -2,-33 11,-36 9,-45 -4,-17 -19,-20 -19,-37 0,-19 23,-41 28,-47 5,-6 -1,-20 0,-30 3,-18 18,-35 19,-35 31,-44 27,-67 90,-67z"></path>
        </g>
        <g class="h_longhairdread" style="display: none;">
            <path fill="#000000" fill-opacity="0.2" d="M220 103c-6,-4 -15,-7 -22,-9 -7,-2 -16,-4 -22,-9 -8,5 -16,8 -25,11 -20,6 -26,10 -32,26 1,-4 2,-7 3,-10 1,-4 4,-7 7,-11 6,-4 13,-7 21,-9 8,-3 17,-5 26,-11 6,4 14,7 23,9 8,3 17,5 23,9 5,4 9,8 13,13 2,3 4,7 5,10 -5,-7 -11,-13 -20,-19z"></path>
            <path class="tinted" fill="#bb7748" fill-rule="nonzero" d="M138 345c1,4 0,8 -4,9 -4,2 -8,0 -9,-3 -4,-9 -6,-19 -6,-29 -4,8 -7,16 -9,27 -1,4 -4,6 -8,6 -4,-1 -6,-5 -6,-8 1,-2 1,-4 1,-6 -2,6 -5,11 -11,17 -3,3 -8,3 -10,0 -3,-3 -3,-7 0,-10 9,-9 11,-19 10,-29 -1,8 -4,15 -10,22 -2,3 -6,3 -9,1 -3,-3 -4,-7 -2,-10 6,-7 9,-16 9,-26 0,-4 -1,-7 -1,-11 -3,6 -7,12 -12,18 -2,3 -6,3 -9,1 -3,-3 -4,-7 -1,-10 10,-14 14,-25 13,-35 0,0 0,0 0,0 0,0 0,0 0,-1 -1,-6 -4,-11 -7,-16 -2,1 -3,3 -4,4 -2,2 -4,5 -5,6 0,0 1,2 2,3 1,2 2,3 3,5 1,4 -1,8 -5,9 -3,2 -7,0 -9,-4 0,-1 0,-2 -1,-3 -2,-4 -5,-8 -3,-14 2,-4 4,-8 7,-11 2,-2 4,-5 5,-7 1,-5 0,-11 0,-17 -1,-7 -2,-15 0,-23 2,-7 6,-14 10,-21 2,-3 3,-5 5,-7 1,-4 1,-14 0,-24 0,-8 0,-15 1,-19 2,-5 10,-20 17,-33 7,-12 14,-23 16,-24 1,-1 2,-2 4,-2 3,-3 9,-6 12,-9 0,-1 -1,-2 -1,-3 0,-5 0,-10 5,-14 5,-3 9,-3 14,-2 2,0 3,1 4,0 0,0 0,-1 1,-2 2,-4 4,-8 10,-10l0 0c6,0 10,2 14,4 2,1 4,2 5,2 4,0 7,-1 10,-2 5,-1 10,-3 17,-2l0 0c6,1 8,5 11,8 1,2 3,3 3,4 1,0 4,-1 6,-2 6,-2 11,-4 17,-2 7,3 11,8 14,14 2,2 3,4 5,6 4,5 10,9 16,13 3,2 5,4 8,6 0,1 2,2 3,3 6,4 11,8 14,16 3,10 4,22 5,33 0,4 1,8 1,11 1,7 2,12 3,17 2,5 4,9 7,15 1,3 4,7 6,10 2,3 4,5 6,6 4,3 4,7 2,10 -2,3 -7,4 -10,2 0,0 0,-1 0,-1 0,9 6,19 11,29 5,9 11,19 13,29 1,3 -1,7 -5,8 -1,0 -2,0 -2,0 1,5 2,11 3,16 1,4 -2,8 -5,8 -2,1 -4,0 -6,-1 1,4 1,7 2,11 1,5 2,12 4,17 1,4 -2,8 -5,9 -4,1 -8,-2 -9,-5 -2,-8 -3,-13 -4,-19 -2,-9 -3,-18 -7,-27 1,3 2,6 2,10 2,6 3,12 4,18 1,3 -1,7 -5,8 -3,1 -6,-1 -8,-3l1 3c2,8 4,15 5,22 1,4 -2,8 -6,9 -3,0 -7,-2 -8,-6 -1,-7 -3,-14 -4,-22 -2,-7 -4,-14 -5,-21 -2,12 -3,24 0,39 0,3 -2,7 -6,8 -4,1 -7,-2 -8,-6 -2,-11 -2,-20 -2,-29 -2,10 -3,22 -2,34 1,4 -2,7 -6,8 -4,0 -7,-3 -8,-7 -1,-10 -1,-21 1,-30 -3,3 -4,6 -5,10 -3,7 -2,16 1,26 1,3 -2,7 -5,8 -4,1 -8,-1 -9,-5 -3,-12 -4,-23 -1,-33 1,-1 1,-2 1,-3 -4,8 -7,17 -9,28 0,4 -4,6 -8,6 -3,-1 -6,-5 -5,-8 2,-12 5,-22 9,-30 -2,2 -3,3 -5,5 -2,3 -7,3 -10,1 -3,-3 -3,-7 -1,-10 2,-1 4,-5 8,-9 13,-15 35,-41 37,-47 2,-8 1,-21 -1,-33 0,-7 -1,-14 -1,-20 0,-9 1,-18 1,-27 2,-16 3,-31 0,-45 -1,-5 -3,-9 -5,-13 -4,-5 -8,-9 -13,-13 -6,-4 -15,-6 -23,-9 -9,-2 -17,-5 -23,-9 -9,6 -18,8 -26,11 -8,2 -15,5 -21,9 -3,4 -6,7 -7,11 -2,4 -3,9 -4,15 -1,13 -3,26 -3,39 -1,12 0,25 1,38 1,6 5,13 9,19 3,5 6,10 8,15 2,4 0,0 1,3 4,10 8,20 10,31 1,7 0,14 -1,21 0,8 -1,16 1,22 1,6 5,11 10,16 2,3 5,6 7,9 2,4 1,8 -2,10 -3,2 -7,1 -10,-2 -1,-3 -4,-5 -6,-8 -4,-4 -7,-9 -10,-14 0,7 2,13 5,19z"></path>
        </g>
        <g class="h_nottoolong" style="display: none;">
            <path fill="#000000" fill-opacity="0.2" d="M261 146c-1,-2 -2,-3 -3,-5 -21,-8 -40,-22 -54,-54 -6,14 -18,26 -34,31 7,-7 13,-15 14,-25 -28,25 -55,40 -80,46 -2,2 -3,3 -4,5 28,-6 54,-21 76,-39 -3,4 -5,7 -9,10l-11 11 15 -5c14,-4 25,-14 33,-26 7,14 16,26 28,36 9,7 19,12 29,15z"></path>
            <path class="tinted" fill="#bb7748" d="M272 146c0,-6 0,-12 0,-18 0,-51 -42,-93 -93,-93l0 0c-44,0 -82,32 -90,75 0,0 -1,0 -1,0 -7,0 -13,7 -13,16 0,7 4,15 12,16 31,-2 63,-19 97,-49 -1,10 -7,18 -14,25 16,-5 28,-17 34,-31 16,39 42,51 68,59z"></path>
        </g>
        <g class="h_miawallace" style="display: none;">
            <path fill="#000000" fill-opacity="0.2" d="M249 130l0 -2c0,-38 -31,-69 -69,-69l0 0c-38,0 -69,31 -69,69l0 1c10,-3 21,-3 34,-3l3 0 2 -11 2 11 3 0c8,0 16,0 24,0 8,0 16,0 24,0 7,0 14,0 21,0 8,0 17,1 25,4z"></path>
            <path class="tinted" fill="#bb7748" d="M179 39c-64,0 -74,23 -94,83 -4,12 -8,23 -12,33l0 0 0 0 0 0 0 0 0 0 0 0 0 0 0 0 0 0 0 0 0 0 0 0 0 0 0 0 0 0c19,-29 38,-33 72,-33l5 -24 5 24c7,0 15,1 24,1 55,0 81,-6 105,32l0 0 0 0 0 0 0 0 0 0 0 0 0 0 0 0 0 0 0 0 0 0 0 0 0 0 0 0 0 0c-3,-10 -7,-21 -11,-33 -21,-60 -30,-83 -94,-83z"></path>
        </g>
        <g class="h_longhairstraight" style="display:none;">
            <path fill="#000000" fill-opacity="0.2" d="M249 135l0 -7c0,-38 -31,-69 -69,-69l0 0c-38,0 -69,31 -69,69l0 7 5 -6c32,-3 60,-23 80,-46 12,24 28,44 53,52z"></path>
            <path class="tinted" fill="#bb7748" d="M273 140l0 -11c0,-51 -42,-92 -93,-92l0 0c-50,0 -92,41 -92,92 0,74 0,148 0,222 16,-2 28,-16 28,-33 0,-59 0,-129 0,-189 31,-8 58,-25 81,-53 18,40 42,63 76,64z"></path>
        </g>
        <g class="h_longhairstraight2" style="display:none;">
            <path fill="#000000" fill-opacity="0.2" d="M249 136l0 -8c0,-38 -31,-69 -69,-69l0 0c-38,0 -69,31 -69,69l0 8c17,-11 34,-19 41,-22 11,-4 21,-8 31,-12 8,-4 16,-8 23,-13 1,1 3,1 4,2 7,5 14,9 20,16 1,2 19,29 19,29z"></path>
            <path class="tinted" fill="#bb7748" d="M261 147c1,-27 3,-58 -1,-69 -6,-19 -26,-39 -53,-33 -5,-8 -22,-18 -47,-13 -31,7 -68,38 -69,80 -1,27 -1,56 -2,84 1,-22 6,-45 22,-60 25,-25 73,-32 94,-52 16,11 33,18 44,52l0 0c6,1 11,5 12,11z"></path>
        </g>
        <g class="h_shorthairdreads" style="display: none;">
            <path class="tinted" fill="#bb7748" fill-rule="nonzero" d="M105 91c0,0 0,-1 0,-1 -1,-2 0,-5 2,-6 1,-1 1,-2 1,-3 0,-1 -1,-1 -1,-2 -1,-3 1,-5 3,-6 1,0 2,0 3,0 0,-1 0,-1 1,-2 -2,0 -3,-2 -3,-5 1,-2 3,-4 5,-3 1,0 3,1 4,1 1,-1 2,-2 3,-4 0,0 0,-1 0,-2 0,-1 0,-3 0,-5 -1,-2 1,-4 3,-5 3,0 5,1 5,4 0,1 0,1 0,2 2,-2 4,-3 6,-4 0,-1 0,-3 0,-4 0,-3 2,-5 4,-5 3,0 5,2 5,5l0 0c1,0 3,-1 4,-1 0,-1 0,-1 0,-2 -1,-2 0,-4 2,-5 3,-1 5,0 6,3 0,0 0,1 0,1 2,-1 4,-1 7,-1 0,-1 0,-1 0,-2 0,-2 2,-4 4,-4 3,0 4,2 4,5 2,-1 4,-1 5,-1 1,-1 2,-3 4,-2 2,0 4,1 4,3 2,0 3,0 5,0 1,-1 2,-2 4,-2 2,0 3,2 4,4 1,0 2,0 4,1l0 0c0,0 0,0 1,0 2,-1 4,0 5,2 0,0 1,1 1,1 1,1 3,2 5,3 0,0 0,1 1,1 0,-1 1,-1 1,-2 2,-1 5,-1 7,1 1,1 1,4 -1,6 0,0 -1,1 -2,2 1,0 1,1 2,1 0,0 1,0 1,-1 2,0 4,-1 6,-2 2,-1 4,0 6,2 1,2 0,4 -2,5 1,1 3,1 4,2 1,0 3,-1 5,-1 2,-1 4,1 5,3 0,3 -1,5 -4,6 0,0 0,0 0,0 1,2 3,5 4,9 6,22 -1,23 -18,13 -10,-5 -26,-12 -50,-11 -13,0 -28,1 -46,8 -12,5 -18,9 -18,16 -1,13 -4,26 -4,29 -1,0 -3,0 -5,1 -1,-3 -1,-7 -2,-10 -1,-10 -2,-19 0,-26 0,-4 0,-7 0,-10zm134 16c-2,-6 4,-6 6,-4 3,3 4,7 5,11 1,3 1,21 -1,22 -4,0 -2,-9 -5,-18 -1,-6 -5,-11 -5,-11z"></path>
        </g>
        <g class="h_shorthairdreads2" style="display: none;">
            <path fill="#000000" fill-opacity="0.2" d="M180 59l0 0c-29,0 -55,18 -65,45 5,-7 19,-12 26,-12 6,0 17,0 25,0 5,0 10,0 14,0 5,0 9,0 13,0 9,0 18,-1 26,0 6,1 19,4 26,12 -10,-27 -36,-45 -65,-45z"></path>
            <path class="tinted" fill="#c79d63" fill-rule="nonzero" d="M126 229c-1,0 -1,0 -1,1 0,0 -1,1 -2,1 -2,2 -5,3 -7,3 -1,1 -2,1 -3,3 -1,1 -3,2 -5,1 -2,-1 -2,-3 -2,-4 2,-4 5,-5 8,-6 1,-1 2,-1 3,-2 -4,-4 -8,-8 -11,-12l0 0c-1,0 -3,0 -7,0 -1,-1 -3,-2 -2,-4 0,-2 2,-4 4,-3l0 0c-5,-7 -7,-12 -8,-16 -2,0 -4,2 -5,3 -1,2 -2,4 -3,6 0,1 -2,2 -4,2 -2,-1 -3,-3 -2,-5 1,-2 2,-5 4,-7 0,-1 0,-1 1,-2 -4,1 -9,-1 -10,-2 -2,-2 -2,-4 -1,-5 1,-2 3,-2 5,-1 1,1 3,1 6,1 1,0 2,0 3,0 -2,-1 -4,-3 -6,-5 0,-1 -1,-2 -2,-2 -1,-2 -1,-4 1,-5 1,-1 3,-1 5,0 1,1 1,2 2,2 2,2 3,4 3,3 0,0 0,0 1,-1 0,0 1,-1 1,-2 -1,-3 -2,-4 -4,-6 0,0 -1,-1 -1,-1 -4,2 -7,2 -11,2 -6,-1 -11,-5 -14,-8 -1,-1 -1,-4 0,-5 1,-1 4,-1 5,0 2,2 6,5 10,6 2,0 4,0 5,-1 0,-1 -1,-4 -1,-6l-10 -8c-2,-1 -2,-3 -1,-5 1,-1 4,-1 5,0l6 4c0,-4 1,-8 2,-14 -1,-1 -2,-2 -3,-3 -2,-2 -5,-4 -7,-5 -2,0 -3,1 -4,1 -1,1 -2,2 -3,3 -2,2 -4,2 -5,0 -2,-1 -2,-3 0,-5 1,-1 3,-3 4,-4 3,-1 5,-2 8,-2 5,1 8,3 11,6 0,0 0,0 0,-1 -2,-2 -5,-4 -8,-6l0 0c-4,-3 -7,-5 -9,-6 -2,-1 -3,-3 -2,-4 0,-2 3,-3 4,-3 3,1 7,4 11,7l0 0c0,0 0,0 1,1 0,-1 -1,-2 -1,-2 0,0 0,0 0,-1 -4,-1 -6,-4 -7,-6 0,-2 1,-4 2,-5 2,0 4,1 5,3 0,0 0,0 0,0 1,0 1,-1 1,-2 -4,-4 -6,-2 -10,1l-1 0c-1,1 -4,1 -5,-1 -1,-1 -1,-3 1,-4l1 -1c7,-5 10,-8 16,-2 0,-1 1,-1 1,-2 1,-3 3,-6 4,-8 -4,-4 -6,-11 -7,-15 0,0 -1,-1 -1,-1 0,-2 1,-4 2,-5 2,-1 4,0 5,2 0,1 0,1 0,2 1,2 2,5 3,8 0,-2 0,-3 0,-4 -1,-2 -2,-3 1,-8 -1,0 -2,-1 -2,-2 -3,-4 -5,-8 -5,-13 -1,-2 1,-4 3,-4 2,0 3,1 4,3 0,4 2,7 3,10 1,0 1,1 2,1 1,0 3,0 6,1 0,0 1,0 2,0 0,-3 1,-6 2,-9 0,-3 1,-6 2,-7 2,-2 4,-2 5,-1 2,1 2,3 1,5 0,1 -1,3 -2,5l0 0c3,-2 7,-6 11,-9 -3,-5 -3,-11 -3,-16 0,-2 0,-3 0,-5 -1,-2 1,-3 3,-3 2,0 3,1 4,3 0,2 0,3 0,5 0,4 0,8 2,12 2,-1 4,-2 6,-3 2,-5 1,-7 1,-10 0,-1 0,-2 0,-4 0,-1 1,-3 3,-3 2,0 4,1 4,3 0,1 0,2 0,3 0,3 1,5 0,7 3,0 5,-1 8,-2 0,-5 1,-7 3,-10 1,-1 1,-2 2,-3 1,-2 3,-2 5,-1 2,1 2,3 1,4 -1,2 -1,3 -1,3 -2,2 -2,4 -3,6 2,0 3,0 5,0 1,-5 2,-7 4,-9l1 0c1,-2 3,-2 5,0 1,1 1,3 0,5l-1 0c-1,1 -1,2 -2,3 3,1 6,1 10,1 -1,0 -1,-1 -2,-1 0,-1 0,-1 -1,-1 -1,-2 -1,-4 1,-5 1,-2 3,-1 5,0 0,0 0,0 0,1 2,2 4,3 5,7 1,0 2,1 3,1l4 1c6,-6 7,-7 8,-8 0,-1 1,-2 2,-4 1,-2 4,-2 5,-1 2,2 2,4 1,5 -1,2 -2,2 -2,3 -1,1 -1,3 -5,7 2,0 4,0 6,1 1,-4 3,-6 4,-8 0,-1 0,-1 1,-2 0,-2 3,-2 4,-1 2,1 3,3 2,4 0,1 -1,2 -1,2 -1,2 -2,4 -3,6 3,1 4,1 5,2 1,-2 1,-3 1,-4 1,-4 4,-6 6,-7 1,-1 3,-1 4,1 2,1 1,3 0,4 -1,1 -2,2 -3,4 -1,2 -1,6 0,11 1,0 2,0 3,1 0,0 0,0 0,0 1,-2 1,-4 2,-5 0,-2 0,-3 0,-5 0,-2 2,-3 4,-3 2,0 3,2 3,4 0,2 0,3 0,4 -1,2 -1,4 -2,7 2,1 4,2 6,3 1,-2 1,-4 1,-5 0,-2 1,-4 3,-4 2,0 4,2 4,4 0,3 0,6 -1,9 -1,1 -1,2 -1,3 0,0 0,1 0,1 0,1 0,3 1,3 1,1 1,1 2,1 1,0 2,-1 3,-1 1,-4 1,-6 0,-8 0,-1 0,-3 0,-5 0,-2 1,-4 3,-4 2,0 4,2 4,4 0,1 0,2 0,3 1,3 2,6 -1,16 0,0 -1,1 -1,2 1,2 2,4 3,7 0,-3 1,-5 1,-6 0,0 0,-1 0,-2 0,-1 2,-3 4,-2 2,0 3,2 3,4 0,0 0,0 0,1 0,2 -1,6 -3,10 -1,2 -2,3 -2,4 0,1 1,3 1,5 2,-5 3,-10 4,-10 0,-2 1,-4 3,-4 2,1 4,2 4,4 -1,2 -3,9 -5,14l0 1c1,-2 3,-4 4,-5 2,-1 4,-1 5,0 1,2 1,4 0,5 -1,1 -2,3 -4,5 -2,2 -4,4 -6,6l1 2c0,2 0,3 1,4 1,-4 2,-7 2,-8 0,-2 2,-4 4,-4 1,0 3,2 3,4 0,2 -1,6 -3,11 3,-2 6,-4 8,-4 2,0 3,2 3,4 0,2 -1,4 -3,4 -1,0 -5,2 -9,4 -1,1 -3,2 -4,3 0,0 0,0 0,1l0 0c3,0 6,1 8,1 2,0 3,1 3,3 0,2 -1,4 -3,4 -3,0 -5,-1 -8,-1l0 0c5,2 9,5 9,5 2,1 3,3 2,5 -1,1 -3,2 -5,1 -2,-1 -5,-3 -9,-5l0 0c-1,1 -1,1 -1,1 2,1 4,2 6,3 4,2 8,5 12,6 1,1 2,3 2,5 -1,1 -3,2 -5,2 -3,-2 -6,-3 -9,-5 0,1 1,3 1,4l0 1c2,1 3,2 4,3 2,1 3,4 4,8 0,3 0,6 0,10 0,2 -1,3 -3,3 -2,0 -4,-1 -4,-3 0,-4 0,-7 0,-9 -1,-2 -1,-3 -2,-4 0,0 -1,-1 -1,-1 -1,1 -2,2 -3,3 -1,1 -1,2 -2,3 2,3 4,6 6,10l0 1c1,2 1,4 -1,5 -2,1 -4,0 -5,-1l0 -2 -1 0c0,1 0,2 -1,4 5,1 5,3 6,5 0,1 1,3 2,4 1,2 1,4 -1,5 -1,1 -4,1 -5,-1 -1,-2 -2,-4 -2,-5 -1,-1 -1,-1 -5,-3 0,0 -1,0 -1,0 -1,0 -1,0 -2,0 -1,1 -3,1 -3,2 -1,2 -2,3 -2,3 2,1 4,1 7,2 0,0 1,0 2,0 2,0 3,1 3,3 0,2 -2,4 -4,4 -1,0 -1,0 -2,0 -2,-1 -4,-1 -6,-1 0,1 -1,1 -1,2 1,1 4,2 8,2 2,1 3,2 3,4 0,2 -2,4 -4,3 -6,-1 -10,-2 -12,-3 -2,2 -5,5 -8,8 0,0 0,1 1,1 3,1 6,2 9,3 1,0 3,2 2,4 0,2 -2,3 -4,3 -2,-1 -6,-2 -10,-4 1,2 1,4 1,6 1,4 2,8 2,13 -1,2 -2,3 -4,3 -2,0 -4,-2 -3,-4 0,-4 -1,-7 -2,-11 0,-3 -1,-6 -1,-10 0,-1 0,-2 0,-2 0,0 0,0 0,-1 0,0 0,-1 0,-2l0 0c-1,1 -1,1 -2,2 9,-11 14,-24 15,-38 7,-1 13,-7 13,-15l0 -15c0,-8 -6,-14 -13,-15l0 -8c0,-9 -2,-18 -5,-26 -10,-18 -39,-13 -64,-14 -25,1 -54,-4 -64,14 -3,8 -5,17 -5,26l0 8c-7,1 -13,7 -13,15l0 15c0,8 6,14 13,15 2,18 9,34 22,45 -3,1 -6,2 -7,3z"></path>
        </g>
        <g class="h_shorthairfrizzle" style="display: none;">
            <path class="tinted" fill="#bb7748" d="M129 82c36,0 66,0 102,0 10,-6 20,-16 22,-27 1,-11 -4,-25 -12,-33 -4,5 -12,19 -31,19 -15,1 -30,-7 -45,-4 -11,3 -16,15 -24,22 -5,4 -12,5 -15,10 -1,4 1,10 3,13z"></path>
        </g>
        <g class="h_shorthairshaggy" style="display:none;">
            <path fill="#000000" fill-opacity="0.2" d="M247 138l0 -8c0,-37 -30,-68 -68,-68l0 0c-38,0 -102,51 -68,68l20 11 -14 12c15,-3 23,-4 35,-13 9,-7 16,-17 22,-28 0,2 -1,3 -1,5l-4 11 9 -7c8,-5 14,-14 17,-24 3,5 6,9 10,13 3,3 6,6 9,8l10 9 -4 -12c0,-1 0,-1 -1,-2 9,5 17,12 28,25z"></path>
            <path class="tinted" fill="#bb7748" d="M78 100c19,11 27,-19 35,-33 11,-17 41,-30 72,-13 23,-8 49,3 62,21 12,17 11,43 0,63 -3,-12 -21,-24 -34,-33 1,3 1,5 3,11 -9,-9 -17,-15 -22,-29 -1,10 -8,25 -18,31 3,-7 2,-15 0,-20 -5,13 -14,29 -26,39 -13,10 -29,16 -45,18 10,-5 17,-8 19,-14 -36,18 -56,-6 -46,-41z"></path>
        </g>
        <g class="h_shorthaircurly" style="">
            <path fill="#000000" fill-opacity="0.2" d="M249 136l0 -8c0,-38 -31,-69 -69,-69l0 0c-38,0 -69,31 -69,69l0 8c4,-20 4,-32 24,-53 6,1 12,2 19,2 4,1 9,1 14,1 11,-1 26,-3 36,-9 2,1 5,2 7,3 2,1 4,2 5,3 3,7 10,11 16,15 3,15 13,21 17,38z"></path>
            <path class="tinted" fill="#bb7748" d="M205 73c-8,5 -21,9 -38,9 -11,1 -34,-3 -33,-3 -16,14 -23,32 -23,57 -1,0 -3,1 -4,1 -2,-8 -3,-10 -3,-23 0,-12 5,-32 12,-45 -4,-4 -6,-8 -6,-14 0,-10 9,-19 21,-19 1,0 2,1 4,1 7,-7 23,-12 41,-12 21,0 39,6 44,15 1,0 2,-1 4,-1 6,0 10,4 10,8 0,1 0,2 0,3 1,-1 2,-1 3,-1 7,0 13,7 13,13 0,5 0,6 -4,9 12,16 11,47 6,66 -1,0 -1,-1 -3,-1 0,-6 1,-10 -2,-14 -6,-8 -10,-17 -12,-26 -6,-4 -14,-8 -15,-15 -4,-4 -12,-5 -15,-8z"></path>
        </g>
        <g class="h_shorthairflat" style="display:none;">
            <path fill="#000000" fill-opacity="0.2" d="M246 137l3 -9c10,-36 -31,-69 -69,-69l0 0c-38,0 -75,32 -69,69l1 9c2,-14 2,-16 9,-32 4,-6 8,-11 13,-16 4,-4 7,-8 9,-13 24,3 47,2 70,0 2,3 5,6 8,9 2,3 5,5 8,7 4,3 6,7 8,12 4,10 6,23 9,33z"></path>
            <path class="tinted" fill="#bb7748" d="M173 41l12 -1c5,0 14,-4 19,-7 0,3 -1,6 -2,9 3,-1 8,-5 12,-6 0,3 -1,4 -2,8 4,-3 9,-5 13,-4 -3,2 -4,7 -1,9 23,15 28,38 28,56l0 32c-2,0 -4,0 -6,0 -3,-56 -17,-41 -31,-65 -25,3 -49,4 -74,0 -9,20 -29,21 -29,65l-5 0 0 -32c0,-36 23,-62 66,-64z"></path>
        </g>
        <g class="h_shorthairround" style="display:none;">
            <path fill="#000000" fill-opacity="0.2" d="M248 136l0 -7c0,-38 -31,-69 -68,-69l0 0c-38,0 -69,31 -69,69l0 7c0,-19 12,-41 34,-48 0,1 0,2 0,3l0 3 3 0c19,1 36,-4 52,-13 3,3 8,6 12,8 6,4 13,7 19,11 3,2 6,4 8,7 7,10 6,12 9,29z"></path>
            <path class="tinted" fill="#bb7748" d="M180 45l0 0c40,0 73,33 73,73l0 6c0,4 -1,9 -1,13 -1,0 -3,0 -4,-1 -1,-22 -2,-32 -15,-39 -14,-8 -27,-14 -32,-21 -16,9 -33,16 -52,15 0,-3 1,-6 1,-8 -30,9 -39,26 -39,53l-4 2c0,-4 -1,-10 -1,-14l0 -6c0,-40 33,-73 74,-73z"></path>
        </g>
        <g class="h_shorthairwaved" style="display:none;">
            <path fill="#000000" fill-opacity="0.2" d="M248 136l1 -8c4,-37 -31,-69 -69,-69l0 0c-38,0 -76,32 -69,69l2 8c2,-11 2,-16 9,-33 3,-6 7,-10 12,-15 3,-3 5,-5 7,-9 24,18 52,15 78,2 1,3 2,5 5,7 1,2 4,3 6,5 2,2 4,4 5,6 9,18 9,22 13,37z"></path>
            <path class="tinted" fill="#bb7748" d="M251 136c5,-9 8,-5 8,-31 0,-31 -9,-31 -15,-44 -3,-4 15,-16 0,-31 -13,-12 -22,3 -35,3 -7,-1 -15,-3 -23,-5 -8,-2 -31,-3 -43,4 -11,8 -20,17 -21,28 -14,10 -20,27 -20,45 0,11 3,22 7,31 1,0 3,0 4,0 0,-47 19,-43 27,-62 22,19 50,18 81,2 4,18 22,5 27,60l3 0z"></path>
        </g>
        <g class="h_shorthairsides" style="display:none;">
            <path class="tinted" fill="#bb7748" d="M113 136c1,-1 1,-2 1,-3 0,-12 1,-19 2,-31 0,0 -1,0 -2,0 -4,4 -10,13 -12,32 0,2 1,4 3,4 2,-1 4,-2 6,-2l2 0zm134 0c-1,-1 -1,-2 -1,-3 0,-12 -1,-19 -2,-31 0,0 1,0 2,0 4,4 10,13 12,32 0,2 -1,4 -3,4 -2,-1 -4,-2 -6,-2l-2 0z"></path>
        </g>
      </svg>
    <!-- glass -->
    <svg id="glasses" xmlns="http://www.w3.org/2000/svg" xmlns:xlink="http://www.w3.org/1999/xlink" width="360px" height="360px" viewBox="0 60 340 390" e="xMidYMid meet">
        <g id="g_rambo" style="">
            <path fill="#2B2A29" fill-rule="nonzero" d="M106 151c-1,0 -1,-1 -1,-2 0,-1 0,-1 1,-1l4 0c1,-6 3,-11 7,-15 4,-4 11,-6 21,-6 8,0 16,1 22,3l40 0c6,-2 14,-3 22,-3 10,0 17,2 21,6 4,4 6,9 7,15l4 0c1,0 1,0 1,1 0,1 0,2 -1,2l-4 0c0,7 -3,14 -8,19 -4,5 -10,8 -19,8 -8,0 -17,-5 -23,-12 -5,-4 -9,-10 -11,-15 0,0 0,0 0,0 -1,0 -1,0 -1,-1 -1,-3 -2,-5 -3,-7 -2,-1 -3,-2 -5,-2 -2,0 -3,1 -5,2 -1,2 -2,4 -3,7 0,1 0,1 -1,1 0,0 0,0 0,0 -2,5 -6,11 -11,15 -6,7 -15,12 -23,12 -9,0 -15,-3 -19,-8 -5,-5 -8,-12 -8,-19l-4 0zm61 -19c4,3 6,6 6,10 0,0 0,0 0,0 0,0 0,0 0,-1 2,-2 4,-3 7,-3 3,0 5,1 7,3 0,1 0,1 0,1 0,0 0,0 0,0 0,-4 2,-7 6,-10l-26 0zm55 -2c-9,0 -18,1 -24,3 -5,2 -8,5 -8,9 0,7 5,15 11,22 7,6 15,11 22,11 8,0 13,-3 17,-7 5,-4 7,-11 7,-18 0,-6 -2,-11 -6,-15 -4,-3 -10,-5 -19,-5zm-60 3c-6,-2 -15,-3 -24,-3 -9,0 -15,2 -19,5 -4,4 -6,9 -6,15 0,7 2,14 7,18 4,4 9,7 17,7 7,0 15,-5 22,-11 6,-7 11,-15 11,-22 0,-4 -3,-7 -8,-9z"></path>
            <path class="glass" fill-opacity="0.25" fill="#5B5B5B" d="M222 130c-9,0 -18,1 -24,3 -5,2 -8,5 -8,9 0,7 5,15 11,22 7,6 15,11 22,11 8,0 13,-3 17,-7 5,-4 7,-11 7,-18 0,-6 -2,-11 -6,-15 -4,-3 -10,-5 -19,-5zm-60 3c-6,-2 -15,-3 -24,-3 -9,0 -15,2 -19,5 -4,4 -6,9 -6,15 0,7 2,14 7,18 4,4 9,7 17,7 7,0 15,-5 22,-11 6,-7 11,-15 11,-22 0,-4 -3,-7 -8,-9z"></path>
        </g>
        <g id="g_fancy" style="display: none;">
            <path fill="#E31E24" d="M180 145c5,0 13,-1 18,-3l0 0c8,-5 26,-11 34,-13 6,-1 21,-6 25,-1 0,1 1,2 1,3 3,8 -9,25 -12,31 -5,8 -13,13 -21,16 -8,2 -17,1 -24,-2 -6,-2 -12,-7 -14,-13l0 0c-1,-5 -5,-8 -7,-8l0 -10zm31 -5c-14,6 -20,8 -20,19 0,11 17,19 32,15 16,-5 25,-21 21,-32 -2,-8 -17,-7 -33,-2z"></path>
            <path fill="#E31E24" d="M180 145c-5,0 -13,-1 -18,-3l0 0c-8,-5 -26,-11 -34,-13 -6,-1 -21,-6 -25,-1 0,1 -1,2 -1,3 -3,8 9,25 12,31 5,8 13,13 21,16 8,2 17,1 24,-2 6,-2 12,-7 14,-13l0 0c1,-5 5,-8 7,-8l0 -6 0 -4zm-31 -5c14,6 20,8 20,19 0,11 -17,19 -32,15 -16,-5 -25,-21 -21,-32 2,-8 17,-7 33,-2z"></path>
            <path class="glass" fill-opacity="0.25" fill="#5B5B5B" d="M149 140c14,6 20,8 20,19 0,11 -17,19 -32,15 -16,-5 -25,-21 -21,-32 2,-8 17,-7 33,-2zm62 0c-14,6 -20,8 -20,19 0,11 17,19 32,15 16,-5 25,-21 21,-32 -2,-8 -17,-7 -33,-2z"></path>
        </g>
        <g id="g_old" style="display:none;">
            <path fill="#4D897C" d="M180 139l-6 0c-1,0 -2,-1 -2,-2 0,0 0,0 0,0l0 0c0,0 0,0 0,0 -3,-10 -12,-16 -31,-16l-27 0c-16,0 -17,7 -17,17l0 24c0,7 7,15 13,18 4,2 8,4 12,4l20 0c8,0 15,-4 20,-9 3,-4 6,-9 7,-14l1 0c0,0 0,-1 0,-1 0,-1 0,-1 0,-1 2,-8 6,-13 10,-13l0 -7zm-61 -12l21 0c18,0 27,8 27,18l0 6c0,12 -10,29 -26,29l-14 0c-10,0 -21,-11 -21,-18l0 -23c0,-7 6,-12 13,-12z"></path>
            <path fill="#4D897C" d="M180 139l6 0c1,0 2,-1 2,-2 0,0 0,0 0,0l0 0c0,0 0,0 0,0 3,-10 12,-16 31,-16l27 0c16,0 17,7 17,17l0 24c0,7 -7,15 -13,18 -4,2 -8,4 -12,4l-20 0c-8,0 -15,-4 -20,-9 -3,-4 -6,-9 -7,-14l-1 0c0,0 0,-1 0,-1 0,-1 0,-1 0,-1 -2,-8 -6,-13 -10,-13l0 -7zm61 -12l-21 0c-18,0 -27,8 -27,18l0 6c0,12 10,29 26,29l14 0c10,0 21,-11 21,-18l0 -23c0,-7 -6,-12 -13,-12z"></path>
            <path class="glass" fill-opacity="0.25" fill="#5B5B5B" d="M241 127l-21 0c-18,0 -27,8 -27,18l0 6c0,12 10,29 26,29l14 0c10,0 21,-11 21,-18l0 -23c0,-7 -6,-12 -13,-12zm-122 0l21 0c18,0 27,8 27,18l0 6c0,12 -10,29 -26,29l-14 0c-10,0 -21,-11 -21,-18l0 -23c0,-7 6,-12 13,-12z"></path>
        </g>
        <g id="g_nerd" style="display:none;">
            <path fill="#CC6F3C" d="M141 121c10,0 19,4 26,12 2,2 5,3 8,3l5 0 0 13c-3,0 -4,0 -5,2 -1,1 -2,5 -4,9 0,1 -1,1 -2,1 -1,6 -4,11 -8,15 -5,5 -12,8 -20,8 -8,0 -15,-3 -20,-8 -6,-6 -9,-13 -9,-21l0 0c-2,0 -5,-2 -5,-5 0,0 0,-1 0,-1l0 0 1 0 0 0c0,-5 -3,-7 -4,-7 -2,0 -3,-1 -3,-3 0,-2 0,-4 0,-6 0,-1 1,-3 3,-3 2,0 4,0 6,0 5,0 14,-5 15,-5 5,-2 10,-4 16,-4zm19 16c-5,-5 -12,-8 -19,-8 -7,0 -14,3 -18,8 -5,4 -8,11 -8,18 0,7 3,14 8,19 4,4 11,7 18,7 7,0 14,-3 19,-7 4,-5 7,-12 7,-19 0,-7 -3,-14 -7,-18z"></path>
            <path fill="#CC6F3C" d="M219 121c-10,0 -19,4 -26,12 -2,2 -5,3 -8,3l-5 0 0 13c3,0 4,0 5,2 1,1 2,5 4,9 0,1 1,1 2,1 1,6 4,11 8,15 5,5 12,8 20,8 8,0 15,-3 20,-8 6,-6 9,-13 9,-21l0 0c2,0 5,-2 5,-5 0,0 0,-1 0,-1l0 0 -1 0 0 0c0,-5 3,-7 4,-7 2,0 3,-1 3,-3 0,-2 0,-4 0,-6 0,-1 -1,-3 -3,-3 -2,0 -4,0 -6,0 -5,0 -14,-5 -15,-5 -5,-2 -10,-4 -16,-4zm-19 16c5,-5 12,-8 19,-8 7,0 14,3 18,8 5,4 8,11 8,18 0,7 -3,14 -8,19 -4,4 -11,7 -18,7 -7,0 -14,-3 -19,-7 -4,-5 -7,-12 -7,-19 0,-7 3,-14 7,-18z"></path>
            <path class="glass" fill-opacity="0.25" fill="#5B5B5B" d="M200 137c5,-5 12,-8 19,-8 7,0 14,3 18,8 5,4 8,11 8,18 0,7 -3,14 -8,19 -4,4 -11,7 -18,7 -7,0 -14,-3 -19,-7 -4,-5 -7,-12 -7,-19 0,-7 3,-14 7,-18zm-40 0c-5,-5 -12,-8 -19,-8 -7,0 -14,3 -18,8 -5,4 -8,11 -8,18 0,7 3,14 8,19 4,4 11,7 18,7 7,0 14,-3 19,-7 4,-5 7,-12 7,-19 0,-7 -3,-14 -7,-18z"></path>
        </g>
        <g id="g_fancy2" style="display:none;">
            <path fill="#00A0E3" d="M180 145c3,0 10,-5 17,-9 1,-1 2,-1 3,-2 1,-1 1,-1 2,-1 10,-4 27,-4 41,-3 9,0 11,-2 10,16 0,8 -1,16 -7,22 -9,8 -24,8 -35,7 -7,0 -13,-3 -18,-7 -3,-3 -5,-7 -6,-12l0 0c-1,-3 -4,-6 -7,-6l0 -5zm57 -10c-60,-10 -55,34 -26,37 34,2 40,-13 38,-24 -2,-8 -8,-12 -12,-13z"></path>
            <path fill="#00A0E3" d="M180 145c-3,0 -10,-5 -17,-9 -1,-1 -2,-1 -3,-2 -1,-1 -1,-1 -2,-1 -10,-4 -27,-4 -41,-3 -9,0 -11,-2 -10,16 0,8 1,16 7,22 9,8 24,8 35,7 7,0 13,-3 18,-7 3,-3 5,-7 6,-12l0 0c1,-3 4,-6 7,-6l0 -5zm-57 -10c60,-10 55,34 26,37 -34,2 -40,-13 -38,-24 2,-8 8,-12 12,-13z"></path>
            <path class="glass" fill-opacity="0.25" fill="#5B5B5B" d="M123 135c60,-10 55,34 26,37 -34,2 -40,-13 -38,-24 2,-8 8,-12 12,-13zm114 0c-60,-10 -55,34 -26,37 34,2 40,-13 38,-24 -2,-8 -8,-12 -12,-13z"></path>
        </g>
        <g id="g_harry" style="display:none;">
            <path fill="#2B2A29" fill-rule="nonzero" d="M143 125c7,0 14,3 19,8 4,4 6,8 7,13 1,-1 2,-1 3,-2 2,-2 5,-4 8,-4 3,0 6,2 8,4 1,1 2,1 3,2 1,-5 3,-9 7,-13 5,-5 12,-8 19,-8 8,0 15,3 20,8 4,5 7,11 8,18l4 0c1,0 2,1 2,1 0,1 -1,2 -2,2l-4 0c-1,7 -4,13 -8,18 -5,5 -12,8 -20,8 -7,0 -14,-3 -19,-8 -5,-5 -8,-12 -8,-19 -1,-3 -2,-5 -4,-7 -2,-1 -4,-2 -6,-2 -2,0 -4,1 -6,2 -2,2 -3,4 -4,7 0,7 -3,14 -8,19 -5,5 -12,8 -19,8 -8,0 -15,-3 -20,-8 -4,-5 -7,-11 -8,-18l-4 0c-1,0 -2,-1 -2,-2 0,0 1,-1 2,-1l4 0c1,-7 4,-13 8,-18 5,-5 12,-8 20,-8zm91 11c-4,-5 -10,-8 -17,-8 -6,0 -12,3 -17,8 -4,4 -7,10 -7,16 0,7 3,13 7,17 5,5 11,7 17,7 7,0 13,-2 17,-7 5,-4 7,-10 7,-17 0,-6 -2,-12 -7,-16zm-74 0c-5,-5 -11,-8 -17,-8 -7,0 -13,3 -17,8 -5,4 -7,10 -7,16 0,7 2,13 7,17 4,5 10,7 17,7 6,0 12,-2 17,-7 4,-4 7,-10 7,-17 0,-6 -3,-12 -7,-16z"></path>
            <path class="glass" fill-opacity="0.25" fill="#5B5B5B" d="M234 136c-4,-5 -10,-8 -17,-8 -6,0 -12,3 -17,8 -4,4 -7,10 -7,16 0,7 3,13 7,17 5,5 11,7 17,7 7,0 13,-2 17,-7 5,-4 7,-10 7,-17 0,-6 -2,-12 -7,-16zm-74 0c-5,-5 -11,-8 -17,-8 -7,0 -13,3 -17,8 -5,4 -7,10 -7,16 0,7 2,13 7,17 4,5 10,7 17,7 6,0 12,-2 17,-7 4,-4 7,-10 7,-17 0,-6 -3,-12 -7,-16z"></path>
        </g>
    </svg>
    <!-- end -->
    <!-- mouth -->
     <path fill="#F29555" d="M201.18,103.028c0,3.497-2.835,6.333-6.333,6.333h-10c-3.498,0-6.334-2.836-6.334-6.333l0,0
        c0-3.498,2.836-6.334,6.334-6.334h10C198.345,96.694,201.18,99.53,201.18,103.028L201.18,103.028z"></path>
    <svg id="mouths" xmlns="http://www.w3.org/2000/svg" xmlns:xlink="http://www.w3.org/1999/xlink" width="360px" height="180px" viewBox="0 0 325 300" e="xMidYMid meet">
    <g id="m_twinkle" style="display:none;">
    <path fill="#000000" fill-rule="nonzero" d="M162 200c-1,-2 0,-3 2,-3 1,-1 3,0 3,1 1,3 2,5 5,6 2,2 5,3 8,3 3,0 6,-1 8,-3 3,-1 4,-3 5,-6 0,-1 2,-2 3,-1 2,0 3,1 2,3 -1,3 -4,6 -7,9 -3,2 -7,3 -11,3 -4,0 -8,-1 -11,-3 -3,-3 -6,-6 -7,-9z"></path>
</g>
<g id="m_vomit" style="display:none;">
    <path fill="#000000" d="M180 193l0 0c13,0 24,11 24,25l0 2 -48 0 0 -2c0,-14 11,-25 24,-25z"></path>
    <path fill="#FEFEFE" d="M180 193l0 0c6,0 12,3 17,7l-34 0c5,-4 11,-7 17,-7z"></path>
    <path fill="#88C553" d="M165 211l30 0c4,0 8,4 8,8l0 6c0,4 -4,7 -8,7 -4,0 -7,-3 -7,-7 0,-3 -4,-5 -8,-5 -4,0 -7,4 -7,8 0,5 -4,8 -8,8 -4,0 -7,-3 -7,-8l0 -9c0,-4 3,-8 7,-8z"></path>
</g>
<g id="m_tongue" style="display:none;">
    <path fill="#000000" d="M180 220l0 0c17,0 31,-10 31,-23l0 -1 -62 0 0 1c0,13 14,23 31,23z"></path>
    <path fill="#FEFEFE" d="M199 196l-38 0 0 2c0,3 2,5 4,5l30 0c2,0 4,-2 4,-5l0 -2z"></path>
    <path fill="#FF4F6D" d="M194 220l0 0c0,8 -6,15 -14,15l0 0c-8,0 -14,-7 -14,-15l0 0 0 -7c0,-4 4,-8 8,-8 3,0 5,1 6,2 1,-1 3,-2 6,-2 4,0 8,4 8,8l0 7z"></path>
</g>
<g id="m_smile" style="display:none;">
    <path fill="#000000" d="M180 220l0 0c13,0 24,-10 24,-23l0 -1 -48 0 0 1c0,13 11,23 24,23z"></path>
    <path fill="#FF4F6D" d="M180 220l0 0c6,0 11,-2 16,-5 -2,-3 -5,-5 -9,-5 -3,0 -5,1 -7,2 -2,-1 -4,-2 -7,-2 -4,0 -7,2 -9,5 5,3 10,5 16,5z"></path>
    <path fill="#FEFEFE" d="M199 196l-38 0 0 2c0,3 2,5 4,5l30 0c2,0 4,-2 4,-5l0 -2z"></path>
</g>
<g id="m_serious" style="display:none;">
    <path fill="#000000" d="M168 203l24 0c2,0 3,2 3,4l0 0c0,2 -1,3 -3,3l-24 0c-2,0 -3,-1 -3,-3l0 0c0,-2 1,-4 3,-4z"></path>
</g>
<g id="m_scream" style="display:none;">
    <path fill="#000000" d="M180 196l0 0c14,0 24,11 24,24 0,4 0,8 0,11 -8,-1 -16,-2 -24,-2 -8,0 -16,1 -24,2l0 -11c0,-13 10,-24 24,-24z"></path>
    <path fill="#FEFEFE" d="M180 196l0 0c7,0 13,2 17,7l-34 0c4,-5 10,-7 17,-7z"></path>
    <path fill="#FF4F6D" d="M180 222c-2,-2 -4,-2 -6,-2 -3,0 -8,1 -9,4 -2,2 -3,3 -5,7 7,-1 13,-2 20,-2l0 0 0 0c7,0 13,1 20,2 -2,-4 -3,-5 -5,-7 -1,-3 -6,-4 -9,-4 -2,0 -4,0 -6,2z"></path>
</g>
<g id="m_sad" style="display:none;">
    <path fill="#000000" d="M197 217c0,0 0,-1 0,-2 0,-9 -7,-16 -17,-16 -10,0 -17,7 -17,16 0,1 0,2 0,2 4,-4 10,-6 17,-6 7,0 13,2 17,6z"></path>
</g>
<g id="m_grimace" style="display:none;">
    <path fill="#FEFEFE" fill-rule="nonzero" d="M204 192l-48 0c-3,0 -7,1 -9,4 -3,2 -4,5 -4,9 0,4 1,7 4,9 2,3 6,4 9,4l48 0c3,0 7,-1 9,-4 3,-2 4,-5 4,-9 0,-4 -1,-7 -4,-9 -2,-3 -6,-4 -9,-4z"></path>
    <path fill="#B2B3B3" d="M143 204l11 0 0 -12c1,0 2,0 2,0l2 0 0 12 12 0 0 -12 4 0 0 12 12 0 0 -12 4 0 0 12 12 0 0 -12 2 0c0,0 1,0 2,0l0 12 11 0c0,0 0,1 0,1 0,1 0,1 0,2l-11 0 0 11c-1,0 -2,0 -2,0l-2 0 0 -11 -12 0 0 11 -4 0 0 -11 -12 0 0 11 -4 0 0 -11 -12 0 0 11 -2 0c0,0 -1,0 -2,0l0 -11 -11 0c0,-1 0,-1 0,-2 0,0 0,-1 0,-1z"></path>
    <path fill="#000000" fill-rule="nonzero" d="M156 188l48 0c4,0 9,2 12,5 3,3 5,8 5,12 0,5 -2,9 -5,12 -3,3 -8,5 -12,5l-48 0c-4,0 -9,-2 -12,-5 -3,-3 -5,-7 -5,-12 0,-4 2,-9 5,-12 3,-3 8,-5 12,-5zm48 4l-48 0c-3,0 -7,1 -9,4 -3,2 -4,5 -4,9 0,4 1,7 4,9 2,3 6,4 9,4l48 0c3,0 7,-1 9,-4 3,-2 4,-5 4,-9 0,-4 -1,-7 -4,-9 -2,-3 -6,-4 -9,-4z"></path>
</g>
<g id="m_eating" style="display:none;">
    <circle fill="#E08C65" fill-opacity="0.6" cx="134" cy="199" r="11"></circle>
    <circle fill="#E08C65" fill-opacity="0.6" cx="226" cy="199" r="11"></circle>
    <path fill="#000000" d="M167 201c9,3 18,3 26,0 0,-6 5,-12 12,-13 -5,3 -8,7 -8,12 0,8 7,14 14,14 1,0 1,0 1,0 -2,1 -3,1 -5,1 -7,0 -12,-4 -14,-9 -9,3 -18,3 -27,0 -2,5 -7,8 -13,8 -2,0 -3,0 -5,-1 0,0 0,0 1,0 7,0 14,-6 14,-14 0,-5 -3,-10 -8,-12 7,1 12,7 12,14 0,0 0,0 0,0z"></path>
</g>
<g id="m_disbelief" style="display:none;">
    <path fill="#000000" d="M180 199l0 0c10,0 17,8 17,17l0 1 -34 0 0 -1c0,-9 7,-17 17,-17z"></path>
</g>
<g id="m_default">
    <path fill="#000000" d="M180 217l0 0c10,0 17,-8 17,-18l0 0 -34 0 0 0c0,10 7,18 17,18z"></path>
</g>
<g id="m_concerned" style="display:none;">
    <path fill="#000000" d="M180 197l0 0c13,0 24,10 24,23l0 1 -48 0 0 -1c0,-13 11,-23 24,-23z"></path>
    <path fill="#FEFEFE" d="M180 197l0 0c6,0 12,2 16,6l-32 0c4,-4 10,-6 16,-6z"></path>
    <path fill="#FF4F6D" d="M173 211c4,0 5,1 7,3 2,-2 3,-3 7,-3 5,0 11,5 12,10l-38 0c1,-5 7,-10 12,-10z"></path>
</g>
    </svg>
    <!-- <g id="mouths">
    <path fill="#F29555" d="M201.18,103.028c0,3.497-2.835,6.333-6.333,6.333h-10c-3.498,0-6.334-2.836-6.334-6.333l0,0
        c0-3.498,2.836-6.334,6.334-6.334h10C198.345,96.694,201.18,99.53,201.18,103.028L201.18,103.028z"/>
    <path fill="#F29555" d="M203.385,115.718c-1.639-0.204-3.127,0.948-3.345,2.578c-0.116,0.778-1.332,6.977-10.193,7.398
        c-8.861-0.422-10.077-6.62-10.193-7.398c-0.218-1.63-1.706-2.782-3.345-2.578c-1.644,0.205-2.81,1.705-2.605,3.35
        c0.542,4.337,4.626,12.107,15.976,12.602v0.023c0.058-0.002,0.109-0.01,0.167-0.012c0.058,0.002,0.109,0.01,0.167,0.012v-0.023
        c11.35-0.494,15.434-8.265,15.976-12.602C206.195,117.423,205.029,115.923,203.385,115.718z"/>
    </g> -->
    <!-- end -->
    <g>
   
        <path style="fill:#4C3F38;" d="M145.143,231.694c1.123,11.6,7.469,74.742,22.757,126h16l-3-88h18.045l-2.99,87h16
            c14.888-49.918,21.296-111.267,22.659-125H145.143z"></path>
    </g>
    <g>
        <g>
            <g>
                <path style="fill:#4C3F38;" d="M189.282,269.694v-38h-44.138c1.123,11.6,7.469,74.742,22.757,126h16l-3-88H189.282z"></path>
            </g>
        </g>
    </g>
        <polygon style="fill:#665650;" points="234.282,245.36 146.282,245.36 144.282,231.36 236.282,231.36  "></polygon>
        <path style="fill:#3281A0;" d="M145.251,373.694c-1.804,2.15-2.795,4.223-2.351,6h42l-0.273-6H145.251z"></path>
        <path style="fill:#3281A0;" d="M195.022,374.694l-0.227,5h42c0.375-1.5-0.27-3.211-1.565-5H195.022z"></path>
        <rect x="163.282" y="350.36" style="fill:#665650;" width="22.666" height="8.668"></rect>
        <rect x="193.949" y="350.694" style="fill:#665650;" width="22.667" height="8.666"></rect>
    
<g>
</g>
<g>
</g>
<g>
</g>
<g>
</g>
<g>
</g>
<g>
</g>
<g>
</g>
<g>
</g>
<g>
</g>
<g>
</g>
<g>
</g>
<g>
</g>
<g>
</g>
<g>
</g>
<g>
</g>
</svg>