<?xml version="1.0" encoding="utf-8"?>
<!-- Generator: Adobe Illustrator 24.0.0, SVG Export Plug-In . SVG Version: 6.00 Build 0)  -->
<svg version="1.1" id="Layer_1" xmlns="http://www.w3.org/2000/svg" xmlns:xlink="http://www.w3.org/1999/xlink" x="0px" y="0px"
	 viewBox="0 0 2638.59 716.8" style="enable-background:new 0 0 2638.59 716.8;" xml:space="preserve">
<style type="text/css">
	.st0{stroke:#FFFFFF;stroke-miterlimit:10;}
	.st1{fill:url(#SVGID_1_);}
	.st2{fill:url(#SVGID_2_);}
	.st3{fill:url(#SVGID_3_);}
	.st4{fill:url(#SVGID_4_);}
	.st5{fill:url(#SVGID_5_);}
	.st6{fill:url(#SVGID_6_);}
	.st7{fill:url(#SVGID_7_);}
	.st8{fill:url(#SVGID_8_);}
	.st9{fill:url(#SVGID_9_);}
	.st10{fill:url(#SVGID_10_);}
	.st11{fill:url(#SVGID_11_);}
	.st12{fill:url(#SVGID_12_);}
	.st13{fill:url(#SVGID_13_);}
	.st14{fill:url(#SVGID_14_);}
	.st15{fill:url(#SVGID_15_);}
</style>
<g>
	<linearGradient id="SVGID_1_" gradientUnits="userSpaceOnUse" x1="285.2715" y1="0" x2="285.2715" y2="704.5906">
		<stop  offset="0" style="stop-color:#EA706C"/>
		<stop  offset="1" style="stop-color:#EC008C"/>
	</linearGradient>
	<path class="st1" d="M18.59,670.39c-0.31,2.15-0.5,2.04-2.89-1.59c-7-10.62-13.52-28.34-14.68-39.96c-0.31-3.15-0.73-7-0.93-8.54
		c-0.5-4,1.25-23.62,2.86-32.07c0.75-3.94,1.57-8.67,1.82-10.51c1.42-10.57,1.89-12.95,2.6-13.41c0.43-0.28,1.06-3.08,1.38-6.21
		c0.33-3.13,1.17-6.99,1.88-8.56c0.71-1.58,1.64-5.41,2.07-8.53c0.47-3.42,1.31-5.83,2.11-6.09c1.49-0.49,1.06,3.21-1.36,11.76
		c-1.73,6.1-3.94,16.76-5.75,27.71c-0.78,4.73-1.9,10.07-2.48,11.87c-0.85,2.62-1.33,19.41-0.89,31.37
		c0.13,3.64,1.99,2.37,1.99-1.35c0-4.53,1.41-3.19,1.51,1.43c0.27,12.46,0.86,14.19,3.06,9l1.12-2.63l-0.33,2.65
		c-0.18,1.46,0.05,2.88,0.52,3.17s0.6,0.91,0.31,1.38c-0.29,0.47,0.09,1.84,0.84,3.04c1.69,2.67,4.54,16.57,3.8,18.5
		c-0.41,1.07-0.85,1.15-1.85,0.31c-0.72-0.6-1.07-1.47-0.79-1.93c0.29-0.47-0.16-0.85-1-0.85c-1.19,0-1.32,0.39-0.57,1.79
		c0.52,0.98,0.75,1.99,0.51,2.23c-0.25,0.25,0.15,2.43,0.88,4.85c0.73,2.42,1.1,4.63,0.82,4.91c-0.28,0.28,0.46,1.28,1.63,2.24
		C18.18,667.49,18.8,668.88,18.59,670.39z M11.57,634.21c-0.96-3.91-2.14-4.4-2.84-1.18c-0.77,3.49-0.04,5.03,1.99,4.25
		C11.76,636.87,12.01,635.99,11.57,634.21z M10.08,640.45c-0.92-0.85-1.05-0.7-0.57,0.66c0.34,0.96,0.67,2.25,0.73,2.87
		c0.06,0.61,0.32,0.32,0.57-0.66C11.06,642.34,10.73,641.05,10.08,640.45z M570.54,112.38c-0.01,24.24-0.33,26.66-7.25,54.9
		c-4.54,18.55-14.39,45.07-24.05,64.77c-5.82,11.87-7.39,14.32-9.98,15.56c-2.92,1.4-3.25,1.35-6.69-0.91
		c-7.22-4.77-10.78-9.07-10.78-13.05c0-5.22,7.49-29.06,17.15-54.61c12.7-33.59,18.11-72.34,13.93-99.86
		c-4.39-28.94-11.45-39.89-28.96-44.93c-6.96-2-31.17-2.22-40.81-0.36c-22.42,4.31-44.31,11.5-63.22,20.76
		c-7.97,3.9-14.96,7.09-15.53,7.09c-0.57,0-1.04,0.42-1.04,0.93c0,0.51-1.29,1.6-2.87,2.41c-2.59,1.34-2.87,1.34-2.87,0
		c0-0.82,1.18-1.93,2.63-2.48c1.44-0.55,3.27-1.58,4.06-2.29c2.02-1.83,25.78-13.86,27.36-13.86c0.72,0,1.3-0.43,1.3-0.96
		c0-1.42-0.06-1.4-12.67,4.71c-16.36,7.93-29.61,15.64-45.14,26.24c-3.15,2.15-6.45,4.35-7.32,4.87c-0.87,0.53-3.58,2.35-6.02,4.06
		c-2.44,1.71-4.67,3.11-4.96,3.11c-0.78,0-22.93,17.99-29.54,23.98c-14.92,13.54-39.58,38.1-56.91,56.67
		c-3.88,4.16-9.95,10.51-13.5,14.11c-3.55,3.61-6.45,7.05-6.45,7.65c0,0.6-0.27,0.83-0.6,0.5c-0.61-0.61-3.65,2.4-10.39,10.31
		c-2.1,2.46-5,5.72-6.45,7.23c-1.44,1.51-2.63,3.38-2.63,4.15c0,0.78-0.47,1.7-1.05,2.06c-3.24,2-32.14,43.64-55.33,79.72
		c-9.29,14.46-26.75,42.91-26.75,43.6c0,0.22-1.12,2.18-2.5,4.35c-3.01,4.78-9.56,16.81-14.46,26.59c-1.98,3.94-3.91,7.31-4.31,7.48
		c-0.39,0.17-0.72,0.67-0.72,1.1c0,0.43-4.27,9.53-9.48,20.23c-11.2,22.96-15.07,31.77-24.13,54.8
		c-14.67,37.31-27.16,75.68-32.68,100.33c-8.96,40.03-11.95,73.95-7.28,82.67c0.66,1.23,0.68,1.9,0.06,1.9
		c-1.19,0-0.13,3.01,1.51,4.3c0.67,0.53,1.72,3.11,2.33,5.73c0.62,2.63,2.43,7.94,4.03,11.8c7.88,19.01,16.23,24.06,37.45,22.64
		c10.74-0.72,14.19-1.43,24.17-4.96c8.83-3.13,8.34-3.99-0.71-1.24c-3.76,1.14-7.06,1.85-7.34,1.58c-0.27-0.27,0.83-0.79,2.45-1.14
		c4.21-0.92,17-6.44,28.98-12.49c5.66-2.86,10.55-5.2,10.87-5.2c1.91,0-2.52,2.94-9.38,6.22c-4.37,2.09-8.17,4.02-8.43,4.29
		c-0.26,0.26-2.41,1.45-4.78,2.64c-2.37,1.19-3.22,1.88-1.91,1.54c2.98-0.78,25.84-11.88,39.19-19.03
		c11.13-5.96,21.27-12.49,36.29-23.35c8.99-6.5,11.96-8.77,15.66-11.95c15.9-13.68,20.18-17.93,18.61-18.49
		c-0.52-0.19-1.46,0.3-2.08,1.09c-0.62,0.79-4.79,4.3-9.26,7.8c-4.47,3.5-8.93,7.04-9.93,7.85c-5.76,4.73-24.58,18.21-34.03,24.37
		c-13.68,8.93-13.38,8.76-13.38,7.54c0-0.56,0.41-1.01,0.91-1.01c0.77,0,7.94-4.48,11.04-6.9c5.99-4.68,5.84-4.5,3.82-4.55
		c-1.56-0.04-1.65-0.21-0.5-0.94c0.93-0.59,1.65-0.5,2.12,0.25c0.52,0.84,1.15,0.7,2.38-0.53c1.2-1.2,1.31-1.67,0.4-1.67
		c-1.05,0-1.06-0.27-0.03-1.5c0.68-0.83,2.03-1.3,2.98-1.05c0.96,0.25,2.02,0,2.37-0.56c0.37-0.59,0.17-0.73-0.48-0.33
		c-0.61,0.38-1.1,0.33-1.1-0.1c0-1.42,3.71-3.13,5.38-2.49c1.25,0.48,1.49,0.25,1.03-0.96c-0.41-1.06,0.09-1.95,1.51-2.69
		c1.16-0.61,4.05-2.69,6.41-4.63c2.37-1.94,5.05-3.8,5.97-4.13c0.92-0.34,1.67-1.05,1.67-1.59c0-0.54,0.62-0.99,1.39-0.99
		c0.76,0,1.73-0.55,2.15-1.23c0.42-0.68,2.91-2.93,5.54-5.02c5.07-4.02,6.18-4.92,8.65-7.01c0.85-0.72,5.71-4.74,10.78-8.93
		c5.08-4.19,9.38-8.01,9.55-8.48c0.18-0.48,0.83-0.87,1.46-0.87c0.63,0,2.44-1.18,4.03-2.63c1.59-1.44,5.12-4.33,7.86-6.41
		c2.73-2.08,4.97-4.17,4.97-4.64c0-0.47,0.61-0.63,1.36-0.34c0.75,0.29,1.88-0.1,2.51-0.85c0.63-0.76,0.84-1.38,0.48-1.38
		c-0.37,0-0.02-0.65,0.77-1.43s1.99-1.43,2.67-1.43c1.62,0,50.61-49.5,60.53-61.15c10.79-12.68,31.25-32.58,46.09-44.84
		c11.32-9.35,12.15-10.62,2.64-4.04c-8.29,5.73-11.43,8.27-23.41,18.9c-2.89,2.56-6.76,5.95-8.6,7.53
		c-5.84,5-17.64,17.03-21.55,21.98c-3.96,5.01-39.81,41.69-40.28,41.21c-0.15-0.15-5.33,4.59-11.51,10.54
		c-6.18,5.95-11.47,10.82-11.75,10.83c-0.29,0.01,11.75-12.37,26.76-27.5c15-15.13,33.3-33.75,40.66-41.38
		c17.73-18.38,36.87-35.6,49.21-44.27c14.26-10.01,17.36-11.46,25.32-11.81c7.13-0.31,10.78,0.89,8.12,2.65
		c-1.04,0.69-0.62,0.8,1.54,0.38c5.51-1.05,14.7,5.89,14.7,11.11c0,2.4-1.23,3.63-9.53,9.51c-12.35,8.76-19.97,15.17-33.47,28.15
		c-21.3,20.49-36.93,36.6-50.13,51.7c-7.34,8.39-16.54,18.91-20.44,23.37c-12.82,14.67-54.87,57.4-65.11,66.16
		c-5.52,4.72-13.73,11.74-18.26,15.61c-20.5,17.51-46.25,34.05-65.35,41.98c-12.3,5.11-30.59,10.03-43.96,11.83
		c-4.2,0.57-11.08,1.67-15.29,2.44c-8.34,1.54-13.34,1.64-24.52,0.45h0c-9.3-0.99-19.34-4.03-24.33-7.36
		c-6.46-4.33-17.12-13.86-19.46-17.41c-1.22-1.84-4.59-6.53-7.51-10.41c-5.58-7.44-6.48-8.93-11.92-19.73
		c-9.52-18.89-11.58-47.19-5.88-80.97c2.01-11.91,2.52-14.06,3.35-14.06c0.42,0,0.95-2.69,1.17-5.97
		c0.41-5.97,1.99-13.02,9.19-40.85c6.27-24.26,15.91-50.47,29.69-80.74c1.67-3.68,4.61-10.13,6.52-14.33
		c4-8.78,35.17-70.83,38.28-76.2c2.94-5.07,5.78-10.07,8.58-15.05c1.33-2.37,3.18-5.59,4.12-7.17c4.05-6.78,8.94-16.29,8.72-16.95
		c-0.13-0.4,0.2-0.72,0.74-0.72c0.54,0,1.39-1.07,1.89-2.39c0.5-1.31,1.4-2.39,2-2.39c0.6,0,0.88-0.8,0.62-1.79
		c-0.28-1.05,0.25-2.3,1.27-3.04c0.96-0.69,1.52-1.6,1.26-2.03c-0.27-0.43-0.01-0.78,0.58-0.78c0.58,0,1.7-1.4,2.48-3.11
		c0.78-1.71,2.23-4.4,3.23-5.97c1-1.58,1.84-3.51,1.86-4.3c0.05-1.27-0.05-1.27-0.87,0c-0.81,1.25-0.93,1.24-0.94-0.11
		c-0.01-0.85,0.75-2.57,1.7-3.82c0.94-1.25,2.22-3.46,2.85-4.91c0.62-1.44,1.57-2.63,2.11-2.63c0.54,0,0.98-0.59,0.98-1.32
		c0-0.72,0.64-1.85,1.43-2.51c0.79-0.65,1.43-2,1.43-2.98c0-0.99,0.4-1.79,0.89-1.79c0.49,0,1.04-0.97,1.22-2.15
		c0.18-1.2,0.9-2.03,1.62-1.87c0.81,0.17,1.08-0.27,0.73-1.19c-0.31-0.8,0.19-2.22,1.11-3.14c0.92-0.92,2.92-3.61,4.43-5.98
		c2.37-3.7,30.84-39.6,34.92-44.03c0.79-0.86,4.23-4.91,7.64-9.02c10.24-12.3,32.51-35.82,33.91-35.82c0.39,0-3.16,4.05-7.89,9.01
		c-21.44,22.42-40.35,44.9-40.35,47.95c0,0.73-0.43,1.33-0.96,1.33c-0.53,0-0.96,0.75-0.97,1.67c-0.01,1.44-0.15,1.48-1.05,0.24
		c-0.89-1.24-0.97-1.23-0.55,0.1c0.29,0.9-1.25,3.75-3.73,6.91c-2.32,2.96-4.22,5.6-4.22,5.87c0,0.27-0.75,1.29-1.67,2.26
		c-3.41,3.6-6.46,7.79-5.68,7.79c0.22,0,3-3.12,6.17-6.93c3.17-3.81,6.67-7.88,7.77-9.04c1.1-1.16,2.01-2.54,2.01-3.06
		c0-0.52,0.75-1.39,1.67-1.92c0.92-0.53,1.33-0.99,0.92-1c-0.41-0.02,0.45-1.21,1.93-2.66c1.47-1.44,3.96-4.33,5.53-6.42
		c1.57-2.09,3.49-4.49,4.28-5.33c0.79-0.85,3.37-3.87,5.73-6.71c5.55-6.67,10.53-12.28,17.77-20c3.2-3.42,7.21-7.72,8.9-9.55
		c1.69-1.84,6.17-6.57,9.96-10.51c6.14-6.4,15.43-16.7,21.79-24.16c2.49-2.92,18.61-17.76,26.7-24.57
		c5.26-4.43,13.42-11.55,14.27-12.45c0.26-0.28,2.39-1.89,4.73-3.58c2.34-1.69,3.94-3.08,3.55-3.08c-0.39,0,0.93-1.4,2.92-3.1
		c1.99-1.71,3.83-3.36,4.09-3.67c0.26-0.31,4.56-3.56,9.56-7.22c28.92-21.18,60.31-37.93,91.25-48.69c4.2-1.46,7.86-2.92,8.12-3.24
		c0.26-0.32,1.55-0.65,2.86-0.73c1.31-0.08,3.89-0.8,5.73-1.6c4.16-1.79,24.37-6.28,29.09-6.46c1.92-0.07,3.71-0.49,3.98-0.93
		c0.61-0.99,2-1.05-13.61,0.63c-7.28,0.79-14.96,2.06-17.06,2.82c-2.1,0.77-4.98,1.42-6.39,1.44c-1.41,0.02-3.78,0.52-5.25,1.11
		c-1.48,0.59-5.49,1.84-8.9,2.78c-9.24,2.55-20.15,6.37-27.23,9.53c-5.91,2.63-11.27,4.93-13.37,5.73c-1.32,0.5-2.39,1.44-2.39,2.08
		c0,0.91,0.26,0.92,1.15,0.02c1.35-1.35,2.67-1.5,2.67-0.3c0,0.47-1.61,1.53-3.58,2.36c-3.67,1.55-14.34,7.3-20.3,10.96
		c-1.84,1.13-4.29,2.46-5.44,2.97c-1.15,0.51-4.27,2.45-6.92,4.31c-2.65,1.86-5.18,3.39-5.62,3.39s-1.81,1.07-3.04,2.39
		c-1.23,1.31-2.76,2.39-3.39,2.39s-1.67,0.63-2.31,1.4c-0.64,0.77-3.38,2.89-6.09,4.71c-2.71,1.82-6.27,4.52-7.9,6.01
		c-1.64,1.49-3.97,3.34-5.18,4.13c-2.35,1.52-6.74,5.29-10.14,8.69c-1.13,1.13-2.53,1.76-3.11,1.4c-0.6-0.37-1.05,0.01-1.05,0.89
		c0,0.84-1.3,2.08-2.88,2.75c-1.59,0.67-2.59,1.51-2.23,1.86c0.36,0.36-0.09,0.65-1,0.65s-1.39,0.43-1.07,0.94
		c0.33,0.53-0.03,0.71-0.81,0.41c-0.87-0.33-1.64,0.22-2.03,1.46c-0.35,1.1-1,1.77-1.44,1.49c-0.44-0.27-2.02,0.69-3.51,2.14
		c-1.49,1.45-4.86,4.34-7.49,6.43c-2.63,2.09-5.34,4.56-6.03,5.49c-0.69,0.93-1.87,1.7-2.63,1.7c-0.76,0-1.38,0.32-1.38,0.72
		c0,0.39-1.5,1.92-3.34,3.38c-1.84,1.47-3.34,2.4-3.34,2.08c0-1.01,24.26-24.33,25.31-24.33c0.27,0,1.35-0.86,2.4-1.91
		c3.04-3.04,34.47-27.72,41.94-32.93c3.74-2.61,6.79-5.08,6.79-5.49c0-0.42,0.54-0.76,1.19-0.77c1.34-0.02,8.29-4.55,10.73-6.99
		c0.87-0.87,2.14-1.59,2.81-1.59c0.67,0,2-0.86,2.95-1.91c0.95-1.05,2.52-1.91,3.49-1.91c0.97,0,1.76-0.42,1.76-0.94
		s1.45-1.55,3.23-2.29c1.78-0.74,3.52-1.82,3.88-2.4c0.36-0.58,1.46-1.05,2.45-1.05c0.99,0,2.36-0.77,3.05-1.71
		c0.69-0.94,3.83-2.92,6.98-4.41c3.15-1.48,6.38-3.08,7.17-3.55c0.79-0.47,2.51-1.28,3.82-1.81c1.31-0.53,3.48-1.57,4.82-2.32
		c7.03-3.94,33.59-12.17,51.56-15.97c14.52-3.07,41.13-3.12,51.69-0.1c12.81,3.66,29.07,12.26,33.83,17.89
		c0.52,0.62,3.9,3.62,7.51,6.67c9.24,7.81,12.79,11.92,18.53,21.39c6.29,10.39,10.73,20.98,13.7,32.66
		C570.37,89.17,570.56,91.77,570.54,112.38z M14.66,596.63L14.66,596.63c-0.18-3.31-0.34-0.85-0.34,5.46c0,6.31,0.15,9.01,0.34,6.01
		C14.85,605.1,14.85,599.94,14.66,596.63z M15.57,618.11c-0.24-0.93-0.46-0.4-0.48,1.18c-0.02,1.58,0.18,2.34,0.44,1.69
		C15.8,620.33,15.81,619.04,15.57,618.11z M15.96,530.42c-0.08-4.57,0.77-8.12,1.93-8.12c1.28,0,0.93,5.84-0.55,9.08l-1.31,2.87
		L15.96,530.42z M18.43,634.87c-0.31-0.76-0.53-0.54-0.58,0.58c-0.04,1.01,0.19,1.57,0.5,1.26
		C18.67,636.39,18.7,635.56,18.43,634.87z M20.4,515.13c-0.31-1.58-0.21-2.99,0.22-3.15c0.43-0.16,0.6-1.23,0.39-2.39
		c-0.27-1.47-0.07-1.31,0.66,0.52c0.68,1.71,0.74,3.55,0.17,5.26L20.96,518L20.4,515.13z M23.51,499.44c0-0.48,0.27-1.59,0.61-2.47
		c0.49-1.27,0.78-1.33,1.42-0.32c1.26,1.98,0.98,3.66-0.6,3.66C24.15,500.32,23.51,499.93,23.51,499.44z M27.33,487.96
		c0-0.5,0.43-1.16,0.94-1.48c0.54-0.33,0.7,0.05,0.38,0.9C28.02,489.03,27.33,489.33,27.33,487.96z M42.01,493.33
		c0.35-1.41,0.26-2.56-0.21-2.56c-0.47,0-1.11,1.18-1.43,2.63c-0.32,1.45-0.84,3.7-1.16,5.02l-0.59,2.39l1.37-2.45
		C40.75,497,41.66,494.74,42.01,493.33z M69.33,423.14c-0.09-1.55-7.6,14.39-11.82,25.11c-2.49,6.31-5.14,12.82-5.89,14.48
		c-0.75,1.66-1.36,3.49-1.36,4.07c0,0.59-0.43,1.81-0.96,2.72c-1.63,2.82-6.69,17.47-6.63,19.16c0.03,0.89,0.97-0.76,2.07-3.65
		c1.1-2.89,4.04-10.41,6.53-16.72c8-20.31,10.6-26.72,11.5-28.43C64.14,437.31,69.38,423.92,69.33,423.14z M50.28,428.86
		c0.01-0.38,0.38-1.26,0.82-1.96c0.66-1.04,0.91-1.01,1.36,0.16c0.3,0.79-0.07,1.67-0.82,1.96
		C50.88,429.31,50.27,429.24,50.28,428.86z M55.29,417.29c0.82-2.18,1.29-2.65,1.52-1.52c0.18,0.91-0.35,2.33-1.19,3.16
		C54.24,420.31,54.21,420.17,55.29,417.29z M57.94,411.42c-0.02-0.81,0.83-3.16,1.88-5.22c1.05-2.06,1.91-4.08,1.91-4.47
		c0-0.4,1.93-4.81,4.3-9.81c2.37-4.99,4.3-9.31,4.3-9.59c0-1.84,16.79-33.95,17.05-32.6c0.18,0.92-0.33,2.4-1.12,3.28
		c-0.79,0.88-1.75,2.89-2.12,4.47c-0.37,1.58-1.22,3.51-1.87,4.3c-0.66,0.79-1.51,2.51-1.9,3.82c-0.39,1.31-1.27,3.03-1.95,3.82
		c-0.68,0.79-1.55,2.72-1.93,4.3c-0.38,1.58-1.22,3.51-1.87,4.3c-0.66,0.79-1.51,2.51-1.9,3.82c-0.39,1.31-1.16,2.96-1.72,3.65
		c-1.06,1.33-5.2,10.76-6.15,14.03c-0.31,1.05-1.35,2.94-2.31,4.19s-1.76,3-1.76,3.88C60.78,409.73,57.98,413.51,57.94,411.42z
		 M72.21,417.19c0-1.27-0.1-1.27-0.93,0c-0.51,0.79-0.93,2.08-0.93,2.87c0,1.27,0.1,1.27,0.93,0
		C71.8,419.27,72.21,417.98,72.21,417.19z M80.6,677.42c0.66-0.27,1.73-0.27,2.39,0c0.66,0.27,0.12,0.48-1.19,0.48
		C80.48,677.9,79.95,677.69,80.6,677.42z M89.52,344.57c1.39-2.92,1.83-3.47,1.83-2.25c0,0.51-0.67,1.77-1.49,2.79
		C88.47,346.85,88.45,346.82,89.52,344.57z M89.16,676.12c0.42-0.38,4.85-1.84,9.84-3.24c4.99-1.4,15.44-5.37,23.22-8.83
		c7.78-3.45,14.41-6.02,14.73-5.69c0.72,0.72,1.19,0.42-6.9,4.28c-3.68,1.75-7.76,3.72-9.08,4.37c-2.52,1.25-10.34,4.04-19.11,6.81
		C95.81,675.73,88.03,677.14,89.16,676.12z M136.34,274.26c0.05-1.11,0.27-1.34,0.58-0.58c0.28,0.69,0.24,1.51-0.07,1.83
		C136.52,275.83,136.3,275.26,136.34,274.26z M140.09,657.57c-2.09,0.61-2.23,0.51-1.13-0.81c0.69-0.83,2.62-1.81,4.29-2.17
		c1.67-0.36,4.07-1.47,5.32-2.45c2.38-1.87,3.93-2.29,3.93-1.07C152.5,651.88,143.63,656.53,140.09,657.57z M143.82,263.95
		c-1.67,2.43-2.5,4.24-1.85,4.02c0.66-0.22,2.27-2.21,3.57-4.42C148.73,258.17,147.63,258.42,143.82,263.95z M146.77,658.52
		c0-0.35,11.83-7.26,13.85-8.09c0.52-0.22,0.36,0.32-0.36,1.19c-0.72,0.87-1.7,1.59-2.17,1.59c-0.47,0-2.46,1-4.42,2.22
		C150.02,657.71,146.77,659.16,146.77,658.52z M148.68,690.14c0.79-0.28,3.68-1.2,6.43-2.06c2.75-0.85,5.25-1.96,5.55-2.45
		c0.31-0.49,1.33-0.89,2.27-0.89c1.89,0,18.19-8.11,27.55-13.72c5.82-3.48,7.68-5.24,4.3-4.06c-1.33,0.46-1.28,0.29,0.24-0.87
		c1.05-0.8,2.66-2.09,3.58-2.86c0.92-0.77,1.67-1.16,1.67-0.87c0,0.29,0.71-0.18,1.59-1.05c0.87-0.87,3.88-3.32,6.69-5.44
		c7.92-5.98,6.03-5.22-3.74,1.51c-14.59,10.05-29.24,18.77-40.37,24.02C155.1,685.82,144.91,691.47,148.68,690.14z M150.01,254.44
		c-0.73,0.28-1.33,1.11-1.33,1.84c0,1.99,1.62,1.61,2.17-0.51C151.19,254.48,150.94,254.09,150.01,254.44z M154.71,668.46
		c0.42,0.02,2.67-0.83,4.99-1.89s5.68-2.89,7.47-4.06c1.78-1.18,5.32-3.43,7.85-5c2.53-1.58,5.55-3.51,6.7-4.3
		c1.15-0.79,4.4-3.02,7.22-4.96c6.21-4.27,16.25-12.81,14.13-12.02c-0.84,0.31-9.01,5.55-18.16,11.66
		c-18.83,12.56-19.53,13.01-22.93,14.73C158.95,664.16,153.65,668.42,154.71,668.46z M163.01,265.74c-0.52,0.32-0.94,0.99-0.94,1.48
		c0,1.37,0.69,1.07,1.32-0.58C163.71,265.79,163.55,265.41,163.01,265.74z M165.05,235.89c0.65-0.65,0.95-1.42,0.65-1.71
		c-0.29-0.29-0.83,0.24-1.19,1.18C164,236.72,164.11,236.83,165.05,235.89z M167.32,262.39c0.33-0.52,0.16-0.96-0.36-0.96
		c-0.53,0-1.22,0.43-1.55,0.96c-0.33,0.53-0.16,0.96,0.36,0.96S166.99,262.92,167.32,262.39z M187.86,234.26
		c0-0.26-0.65-0.22-1.43,0.08c-0.79,0.3-1.43,1.11-1.43,1.8c0,0.69-0.32,1.4-0.72,1.57c-0.94,0.42-10.75,12.99-10.75,13.78
		c0,0.33-1.33,2.27-2.95,4.32c-1.62,2.05-2.5,3.72-1.94,3.72c0.55,0,1.48-0.9,2.07-1.99c0.59-1.1,1.87-2.92,2.84-4.06
		c0.98-1.14,2.66-3.1,3.75-4.36c1.08-1.26,1.97-2.88,1.97-3.58c0-0.71,0.34-1.29,0.75-1.29
		C180.75,244.24,187.86,235.19,187.86,234.26z M182.13,667.54c-1.05,0.56-1.91,1.24-1.91,1.5c0,0.26,0.86,0.02,1.91-0.55
		c1.05-0.56,1.91-1.24,1.91-1.5C184.04,666.73,183.18,666.98,182.13,667.54z M189.78,663.44c0-0.43,1.5-1.4,3.34-2.17
		c1.84-0.77,3.34-1.82,3.34-2.34c0-0.52,0.58-0.94,1.29-0.94c0.71,0,2.39-0.97,3.72-2.15c1.33-1.18,5.48-4.28,9.22-6.89
		c3.73-2.61,6.79-5.08,6.79-5.5c0-0.41,0.64-0.75,1.43-0.75s1.96-0.86,2.62-1.91c0.66-1.05,1.65-1.91,2.22-1.91
		c0.56,0,1.86-0.78,2.89-1.74c1.03-0.96,2.55-2.14,3.4-2.63c0.84-0.49,3.85-2.88,6.68-5.31c2.83-2.43,8.16-6.98,11.84-10.12
		c12.7-10.83,53.99-50.37,53.99-51.71c0-0.68-3.21,2.22-15.74,14.22c-31.19,29.87-60.48,54.26-86.03,71.62
		c-5.33,3.63-6.49,4.5-9.15,6.91c-1.01,0.92-1.84,1.45-1.84,1.17s-1.05,0.19-2.33,1.03c-2.87,1.88-2.37,4.82,0.51,3.02
		C188.95,664.73,189.78,663.87,189.78,663.44z M189.89,230.86c-0.52,0-1.22,0.43-1.55,0.96c-0.32,0.53-0.16,0.96,0.37,0.96
		c0.52,0,1.22-0.43,1.55-0.96C190.58,231.29,190.41,230.86,189.89,230.86z M197.41,665.66c-0.9,0.57-1,0.91-0.26,0.92
		c0.64,0.01,0.92,0.66,0.61,1.45c-0.3,0.79-0.06,1.43,0.54,1.43c0.6,0,1.35-0.67,1.66-1.5
		C200.74,665.92,199.19,664.53,197.41,665.66z M303.89,572.98c-31.19,30.55-46.81,45.39-55.04,52.28
		c-4.38,3.66-11.39,9.72-15.6,13.45c-7.83,6.95-24.07,19.85-27.43,21.8c-1.39,0.8-1.55,1.22-0.6,1.6c0.7,0.28,0.17,0.55-1.19,0.59
		c-2.97,0.09-3.78,0.77-3.1,2.56c0.67,1.75,0.9,1.72,4.97-0.74c11.66-7.01,42.85-32.91,58.44-48.52
		c20.79-20.81,51.49-52.69,54.35-56.44C320.5,557.19,313.83,563.23,303.89,572.98z M208.96,634.43c-0.1,1.14,4.65-1.99,10.63-7
		c2.79-2.34,8.72-7.86,13.19-12.27l8.12-8.02l-8.64,7.03C218.07,625.71,209.03,633.57,208.96,634.43z M212.76,230.86
		c0.56,0,0.75,0.43,0.42,0.96c-0.33,0.53-0.78,0.96-1.01,0.96c-0.23,0-0.42-0.43-0.42-0.96
		C211.75,231.29,212.21,230.86,212.76,230.86z M216.44,226.08c0.48,0,0.64,0.86,0.37,1.91c-0.27,1.05-0.66,1.91-0.87,1.91
		c-0.2,0-0.37-0.86-0.37-1.91C215.57,226.94,215.96,226.08,216.44,226.08z M220.93,220.61c0.67,0.67-0.69,3.56-1.67,3.56
		c-0.49,0-0.41-0.9,0.18-1.99C220.03,221.08,220.7,220.37,220.93,220.61z M224.67,218.03c-1.22,1.62-1.4,1.65-1.42,0.23
		c-0.01-0.89,0.43-1.9,0.99-2.25C225.92,214.97,226.16,216.06,224.67,218.03z M226.67,612.12c0.32,0,2.79-1.83,5.48-4.06
		c8.31-6.89,28.96-25.48,46.55-41.9c9.23-8.62,19.52-18.03,22.87-20.93c11.49-9.92,45.28-44.33,52.57-53.53
		c6.84-8.64-1.13-1.49-27.16,24.39c-18.72,18.61-54.78,53.09-66.98,64.03c-1.58,1.41-4.16,3.75-5.73,5.18
		c-1.58,1.43-5.23,4.68-8.12,7.21C228.38,608.08,224.36,612.12,226.67,612.12z M228.95,212.17c0,1.68-0.57,1.93-1.39,0.6
		c-0.3-0.49-0.11-1.16,0.42-1.49C228.51,210.95,228.95,211.35,228.95,212.17z M232.77,207.81c0,0.53-0.43,1.22-0.96,1.55
		c-0.53,0.32-0.96,0.16-0.96-0.37c0-0.52,0.43-1.22,0.96-1.55C232.34,207.12,232.77,207.29,232.77,207.81z M235.16,203.15
		c0.32-0.53,0.78-0.96,1.01-0.96c0.23,0,0.42,0.43,0.42,0.96c0,0.52-0.46,0.96-1.01,0.96C235.03,204.1,234.84,203.67,235.16,203.15z
		 M237.73,145.82c-0.26,0,0.3-0.86,1.25-1.91c0.95-1.05,1.94-1.91,2.21-1.91c0.26,0-0.3,0.86-1.25,1.91
		C238.99,144.95,238,145.82,237.73,145.82z M243.82,192.64c0.23,0,0.42,0.43,0.42,0.96c0,0.52-0.45,0.96-1.01,0.96
		s-0.75-0.43-0.42-0.96C243.13,193.07,243.59,192.64,243.82,192.64z M249.02,133.99c0-0.2,0.75-0.95,1.67-1.67
		c1.52-1.19,1.55-1.15,0.36,0.36C249.8,134.27,249.02,134.77,249.02,133.99z M260.01,160.15c0.33-0.53,0.14-0.96-0.42-0.96
		c-0.56,0-1.01,0.43-1.01,0.96c0,0.52,0.19,0.96,0.42,0.96C259.23,161.1,259.68,160.67,260.01,160.15z M263.11,156.2
		c-0.92,0.72-1.67,1.47-1.67,1.67c0,0.79,0.78,0.28,2.03-1.31C264.66,155.05,264.63,155.01,263.11,156.2z M296.75,123.84
		c-0.5,0-1.71,0.75-2.69,1.67c-0.98,0.92-6.62,6.19-12.53,11.7c-5.91,5.52-12.06,11.75-13.67,13.85c-1.86,2.44-0.04,1.07,5.05-3.82
		c4.38-4.2,8.48-8.07,9.11-8.6C286.33,135.06,297.49,123.84,296.75,123.84z M300.62,120.75c0-0.56-0.61-0.47-1.43,0.22
		c-0.79,0.66-1.43,1.34-1.43,1.52c0,0.18,0.65,0.08,1.43-0.22C299.97,121.97,300.62,121.29,300.62,120.75z M331.91,105.56
		c1.52-1.19,1.55-1.16,0.36,0.36c-1.25,1.59-2.03,2.1-2.03,1.31C330.24,107.03,330.99,106.28,331.91,105.56z M393.3,30.69
		c0-0.69-7.76,2.83-15.86,7.2c-11.96,6.45-13.85,7.56-21.08,12.41c-3.76,2.53-6.99,4.47-7.17,4.31c-0.18-0.16-1.39,0.74-2.7,1.98
		c-3.73,3.57-1.12,2.66,6.67-2.32c11.31-7.23,27.64-16.86,34.16-20.15C390.62,32.48,393.31,30.93,393.3,30.69z M355.8,86.45
		c1.52-1.19,1.55-1.15,0.36,0.36c-1.25,1.59-2.03,2.1-2.03,1.31C354.13,87.92,354.88,87.17,355.8,86.45z M361.29,83.72
		c-0.56,0.91-2.38,1.34-2.38,0.57c0-0.21,0.67-0.63,1.48-0.94C361.24,83.01,361.62,83.17,361.29,83.72z M367.05,79.11
		c0.29,0.29-0.24,0.83-1.18,1.19c-1.36,0.52-1.47,0.41-0.54-0.54C365.99,79.11,366.76,78.82,367.05,79.11z M372.79,75.29
		c0.29,0.29-0.24,0.83-1.18,1.19c-1.36,0.52-1.47,0.41-0.54-0.53C371.72,75.29,372.49,74.99,372.79,75.29z M374.67,30.22
		c-0.53,0-1.6,0.42-2.39,0.93c-0.79,0.51-1,0.93-0.48,0.93c0.53,0,1.6-0.42,2.39-0.93C374.98,30.64,375.2,30.22,374.67,30.22z
		 M379.21,70.33c0.53,0,0.43,0.63-0.23,1.43c-0.65,0.79-1.62,1.43-2.14,1.43c-0.53,0-0.43-0.63,0.23-1.43
		C377.72,70.97,378.68,70.33,379.21,70.33z M378.38,462.1c0.2,0,0.95-0.75,1.67-1.67c1.19-1.52,1.16-1.55-0.36-0.36
		C378.1,461.32,377.59,462.1,378.38,462.1z M381.84,27.73c0-0.64,4.96-2.45,5.44-1.97c0.22,0.22-0.92,0.85-2.52,1.41
		C383.15,27.72,381.84,27.98,381.84,27.73z M384.84,66.76c1.92-0.15,1.93-0.1,0.21,1.2c-2.25,1.7-3.3,1.77-2.69,0.18
		C382.63,67.46,383.74,66.84,384.84,66.76z M398.08,447.31c0,1.06,2.56,0.27,4.78-1.46c1.31-1.03,2.04-1.88,1.63-1.89
		C403.45,443.94,398.08,446.74,398.08,447.31z M431.27,42.04c-0.32-0.32-1.14-0.35-1.83-0.08c-0.76,0.3-0.54,0.53,0.58,0.58
		C431.02,42.58,431.59,42.36,431.27,42.04z M464.97,13.19c0.79-0.33,5.52-0.89,10.51-1.24c5.66-0.4,4.22-0.45-3.82-0.12
		c-7.09,0.29-16.13,0.48-20.07,0.43c-7.16-0.09-7.16-0.09-3.34,1.15C451.93,14.62,461.87,14.48,464.97,13.19z M509.3,25.41
		c-0.5-0.5-2.62-1.07-4.71-1.27c-2.08-0.2-5.51-1.11-7.61-2.02c-3.17-1.38-5.54-1.56-13.86-1.09c-13.16,0.75-21.39,2.51-21.8,4.67
		c-0.37,1.9,2.46,2.1,9.38,0.65c6.44-1.35,28.07-2.84,28.65-1.97c0.27,0.41,2.83,1.02,5.68,1.35
		C508.33,26.1,509.88,25.99,509.3,25.41z M520.47,227.51l-1.44,2.39c-0.79,1.31-1.44,3.03-1.44,3.82c0,1.27,0.08,1.27,0.81,0
		c0.45-0.79,1.1-2.51,1.44-3.82L520.47,227.51z M544.33,149.42c-1.22,6.44-3.92,15.69-7.88,26.98c-1.57,4.47-3.42,9.91-4.13,12.09
		c-0.7,2.18-1.99,5.35-2.87,7.04c-0.87,1.69-1.37,3.93-1.09,4.98c0.59,2.24-0.94,6.8-2.05,6.11c-0.42-0.26-0.81,0.95-0.86,2.69
		c-0.05,1.74-0.92,5.05-1.94,7.35c-1.02,2.3-2.15,5.4-2.53,6.89c-1,3.98,0.95,2.28,2.29-2c0.61-1.96,2.77-7.87,4.79-13.13
		c11.38-29.54,15.26-41.24,15.25-45.99c0-1.12,0.59-3.71,1.31-5.75c0.72-2.05,1.63-6.03,2.02-8.84
		C547.62,140.85,545.7,142.16,544.33,149.42z M548.88,133.87l-0.04-3.82l-0.79,3.82c-0.44,2.1-0.79,4.68-0.78,5.73l0.01,1.91
		l0.82-1.91C548.55,138.55,548.91,135.97,548.88,133.87z"/>
	<linearGradient id="SVGID_2_" gradientUnits="userSpaceOnUse" x1="525.5278" y1="322.7025" x2="525.5278" y2="568.7541">
		<stop  offset="0" style="stop-color:#EA706C"/>
		<stop  offset="1" style="stop-color:#EC008C"/>
	</linearGradient>
	<path class="st2" d="M619.21,387.12l-0.59,3.82l-0.15-3.34c-0.11-2.54-0.37-3-1.08-1.91c-0.51,0.79-0.95,2.51-0.97,3.82
		c-0.03,1.31-0.88,5.18-1.9,8.6l-1.85,6.21l0.57-6.93c0.37-4.45,0.23-6.93-0.4-6.93c-0.54,0-1.21,1.4-1.5,3.11
		c-2.02,11.99-10.37,37.89-16.41,50.88c-5.93,12.75-9.45,19.96-10.03,20.54c-0.26,0.26-1.55,2.63-2.87,5.26
		c-3.56,7.12-14.67,23.76-22.02,32.97c-8.22,10.31-25.92,27.59-37.7,36.81c-1.05,0.82,0.33,0.4,3.07-0.93
		c6.13-2.99,6.18-2.99,5.44-0.03c-0.51,2.04-0.34,2.31,1.18,1.77c0.98-0.35,2.46-1.21,3.29-1.92c0.83-0.71,1.8-1,2.15-0.65
		c0.35,0.35,0.64-0.09,0.64-0.98c0-0.89,1.09-2.03,2.41-2.53c1.33-0.5,2.66-1.57,2.97-2.36c0.3-0.79,0.91-1.22,1.34-0.95
		c0.44,0.27,1.36-0.3,2.05-1.26c0.69-0.96,1.91-2.08,2.69-2.5c1.53-0.8-12.46,13.01-21.2,20.93c-6.25,5.66-17.23,12.11-27.93,16.4
		c-8.3,3.33-16.67,4.45-24.96,3.34c-5.72-0.76-14.91-6.08-24.97-14.44c-6.29-5.23-7.3-6.6-12.27-16.67
		c-5.15-10.44-7.96-18.39-6.09-17.23c0.47,0.29,0.86,1.04,0.86,1.67c0.02,3.73,2.51,8.74,6.26,12.6c2.36,2.43,4.03,4.84,3.71,5.35
		c-0.32,0.52-0.03,1.61,0.65,2.42c1.1,1.33,1.3,1.3,1.84-0.26c0.39-1.11-0.9-4.63-3.54-9.67l-4.15-7.93l0.02-10.25
		c0.07-39.91,12.77-76.1,40.95-116.72c4.53-6.53,9.6-13.84,11.26-16.25c1.66-2.4,2.85-4.54,2.65-4.75
		c-0.21-0.21-2.11,1.51-4.22,3.82c-2.11,2.31-3.84,3.67-3.84,3.01s1.72-2.97,3.82-5.13c2.1-2.17,3.82-4.28,3.82-4.7
		c0-1.34,33.64-34.36,35-34.36c0.72,0,1.31-0.39,1.31-0.87c0-1.47,11.03-9.26,17.74-12.53c5.54-2.7,7.02-3.02,11.79-2.59
		c5.97,0.54,15.04,3.89,17.3,6.38c0.79,0.87,2.84,2.41,4.56,3.43c3.46,2.04,7.17,8.21,6.31,10.47c-0.31,0.8-0.17,1.45,0.31,1.45
		c0.48,0,3.58,1.83,6.9,4.06c3.32,2.23,8.12,5.38,10.67,6.99C614.72,362.37,621.02,375.47,619.21,387.12z M453.96,547.43
		c-5.03-5.32-5.95-6.07-6.62-5.36c-0.28,0.29,0.46,1.18,1.64,1.97c1.18,0.8,2.15,1.82,2.15,2.28c0,1.49,4.13,5.62,5.63,5.62
		C457.67,551.95,456.62,550.26,453.96,547.43z M563.12,437.38c2-3.89,4.02-7.54,4.48-8.12c0.46-0.58,1.16-2.12,1.56-3.44
		c0.98-3.22,3.85-6.79,4.79-5.94c0.42,0.38,0.43,0.12,0.04-0.57c-1.04-1.79,0.29-6.71,1.35-5c0.91,1.47,2.78-4.16,3.01-9.04
		c0.12-2.49,0.19-2.57,0.57-0.56c0.24,1.27,1.04,2.91,1.78,3.65c1.16,1.16,1.35,1.06,1.35-0.69c0-1.29,0.4-1.79,1.1-1.35
		c0.64,0.39,0.84,0.27,0.49-0.31c-0.34-0.54,0.01-2.22,0.76-3.73c0.75-1.51,1.89-5.88,2.52-9.71c0.93-5.65,0.9-8.26-0.17-13.85
		c-0.73-3.79-1.22-7.21-1.1-7.61c0.21-0.68-1.17-0.99-2.15-0.48c-0.93,0.48-3.22-3.78-3.86-7.15c-0.7-3.74-2.67-6.03-5.72-6.66
		c-1.05-0.22-1.82-0.87-1.7-1.45c0.35-1.77-8.75,3.68-16.83,10.08c-4.2,3.32-9.7,8.48-12.22,11.47
		c-2.52,2.98-9.16,10.22-14.75,16.08c-5.59,5.86-11.4,12.31-12.91,14.33c-1.51,2.02-3.25,4.21-3.85,4.85
		c-2.33,2.47-17.47,25.99-22.01,34.18c-11.89,21.46-18.29,40.13-22.27,64.98c-3.3,20.56-2.51,24.23,5.11,23.74
		c3.08-0.2,3.46-0.02,2.49,1.15c-0.63,0.76-0.77,1.41-0.31,1.45c0.46,0.04-0.03,0.47-1.08,0.96c-1.56,0.73-1.38,0.82,0.96,0.47
		c1.58-0.24,4.16-0.69,5.73-1.02c1.58-0.33,3.85-0.79,5.06-1.04c1.2-0.25,1.98-0.78,1.73-1.2c-0.25-0.41,3.28-3.19,7.84-6.17
		c7.59-4.95,20.57-15.96,18.82-15.96c-0.4,0-2.28,0.96-4.17,2.13c-5.81,3.59-6.23,2.73-1.19-2.39c3.94-4.01,4.71-5.32,4.23-7.24
		c-0.5-1.98-0.3-2.27,1.27-1.86c1.32,0.34,1.9-0.02,1.99-1.28c0.07-0.97,3.34-5.1,7.27-9.18C538.41,478,552.32,458.35,563.12,437.38
		z M495.36,373.67c0.94-0.36,1.47-0.89,1.18-1.19c-0.29-0.29-1.07,0-1.71,0.65C493.89,374.08,494,374.19,495.36,373.67z
		 M497.95,539.05c-1.53,0.88-1.85,1.38-0.9,1.4c0.82,0.02,2.32-0.6,3.34-1.37C502.77,537.28,501.08,537.26,497.95,539.05z
		 M511.64,508.56c-0.28,0.74-1.08,1.34-1.77,1.34c-0.69,0-2.08,1.14-3.1,2.53c-1.02,1.39-2.1,2.12-2.41,1.62
		c-0.31-0.5,0.75-2.16,2.37-3.69C509.93,507.34,512.46,506.41,511.64,508.56z M595.84,427.72c-0.16,0-2.65,4.62-5.55,10.27
		c-9.16,17.87-10.62,20.65-11.37,21.69c-2.51,3.46-5.25,8.12-6.34,10.79c-0.7,1.7-1.65,2.86-2.12,2.57
		c-0.46-0.29-0.84,0.26-0.84,1.22c0,0.96-1.05,2.87-2.33,4.25c-1.28,1.38-2.09,2.75-1.8,3.05c0.29,0.29-0.38,2-1.49,3.8
		c-1.96,3.18-2.44,4.48-1.63,4.48c0.22,0,2.52-2.69,5.11-5.97c9.94-12.6,19.87-29.46,25.45-43.24
		C594.37,437.07,596.48,427.72,595.84,427.72z M572.48,421.51c-0.52,0.32-0.92,1.53-0.89,2.68c0.06,2.02,0.1,2.02,0.89,0.18
		c0.45-1.05,0.85-2.26,0.89-2.68C573.41,421.27,573.01,421.19,572.48,421.51z"/>
	<linearGradient id="SVGID_3_" gradientUnits="userSpaceOnUse" x1="761.491" y1="322.129" x2="761.491" y2="576.6923">
		<stop  offset="0" style="stop-color:#EA706C"/>
		<stop  offset="1" style="stop-color:#EC008C"/>
	</linearGradient>
	<path class="st3" d="M916.77,374.95c-0.58,4.25-6.38,16.68-12.17,26.09c-1.78,2.9-3.75,6.12-4.38,7.16
		c-0.63,1.04-2.99,4.9-5.26,8.58c-2.26,3.68-4.44,7.49-4.83,8.46c-0.4,0.98-1.61,3.02-2.69,4.54c-1.08,1.52-1.73,2.77-1.45,2.77
		c0.55,0-3.91,8.49-5.21,9.91c-1.03,1.13,0,3.61,1.19,2.87c0.52-0.32,0.42,0.43-0.23,1.68c-1.49,2.87-2.36,3.73-1.59,1.58
		c0.98-2.72-0.91-2.82-2.67-0.14c-1.26,1.93-1.37,2.67-0.45,3.23c0.8,0.5,0.94,1.62,0.44,3.46l-0.75,2.73l-0.69-2.39
		c-0.59-2.07-0.78-2.16-1.4-0.7c-0.39,0.93-0.5,2.84-0.23,4.24c0.53,2.76-1.8,7.31-3.28,6.4c-0.51-0.31-0.65,0.41-0.33,1.68
		c0.7,2.8-1.91,6.73-3.18,4.8c-0.52-0.8-0.79,0.33-0.73,3.07c0.06,2.99-0.44,4.85-1.63,6.03c-1.49,1.47-1.64,1.49-1.13,0.13
		c0.33-0.87,0.21-1.81-0.27-2.11c-0.47-0.29-0.88-0.01-0.91,0.62c-0.03,0.63-0.38,1.98-0.8,2.98c-0.53,1.29-0.42,1.63,0.36,1.14
		c1.36-0.84,1.39-0.45,0.19,2.7c-0.51,1.35-1.4,2.45-1.97,2.45c-0.57,0-0.73-0.54-0.35-1.19c0.38-0.66,0.32-0.86-0.13-0.45
		c-0.45,0.41-0.85,2.66-0.89,4.99c-0.09,4.83-1.9,7.61-3.41,5.25c-0.64-1-0.75-0.56-0.35,1.51c0.35,1.82-0.07,4.35-1.1,6.69
		c-0.91,2.07-1.82,4.61-2.02,5.66c-0.2,1.05-2.68,8.57-5.5,16.72c-10.44,30.13-11.54,34.89-8.6,37.33c0.82,0.68,2.12,2.46,2.89,3.94
		c1.24,2.4,1.22,2.96-0.17,5.09c-1.75,2.68-3.14,2.86-8.12,1.08c-9.12-3.26-17.06-12.11-26.87-29.99c-3.48-6.35-3.92-7.9-4.35-15.42
		c-0.56-9.88,1.14-19.49,6.13-34.45c3.4-10.2,15.11-35.62,16.68-36.21c0.47-0.18,0.87-1.04,0.88-1.91c0.02-0.88,0.66-2.43,1.43-3.45
		c1.33-1.76,1.4-1.7,1.4,1.13c0,1.64-0.64,3.63-1.43,4.42c-0.79,0.79-1.43,1.88-1.43,2.43c0,0.55-1.02,3.27-2.28,6.04
		c-1.25,2.77-2.57,6.01-2.93,7.2c-0.36,1.18-1,2.15-1.42,2.15c-0.43,0-1.05,1.38-1.39,3.07c-0.34,1.69-1.71,5.82-3.06,9.18
		c-4.88,12.19-10.1,48.46-7.24,50.23c0.44,0.27,1.34-3.65,2-8.72c0.66-5.07,1.63-10.31,2.14-11.66c0.52-1.35,1.53-4.6,2.26-7.23
		c1.35-4.88,5.51-16.62,7.12-20.07c0.49-1.05,2-4.63,3.37-7.96c2.5-6.12,9.95-20.78,13.68-26.92c1.12-1.84,2.67-4.63,3.44-6.21
		c0.78-1.58,2.72-4.59,4.31-6.69c1.59-2.1,3.31-4.75,3.81-5.88s1.44-2.38,2.09-2.78c0.65-0.4-0.27,1.81-2.04,4.92
		c-1.76,3.11-3.56,5.79-3.98,5.97c-0.42,0.18-0.77,0.98-0.77,1.8c0,0.81-0.97,3.03-2.15,4.93s-3.55,6.68-5.25,10.62
		c-3.62,8.37-1.43,6.12,4.1-4.21c1.99-3.72,6.77-11.63,10.63-17.57c3.85-5.94,7-11.17,7-11.63c0-0.46,0.35-0.97,0.78-1.15
		c0.43-0.18,4.31-6.12,8.62-13.22c4.31-7.1,9.74-15.91,12.07-19.59c6.55-10.38,13.61-22.72,14.31-25.03c0.59-1.96,0.4-2.06-3-1.54
		c-7.33,1.13-19.78,6.96-28.05,13.15c-17.7,13.23-33.6,30.38-48.59,52.4c-6.39,9.39-11.44,15.01-13.48,15.01
		c-1.69,0-9.48-5.3-9.51-6.47c-0.02-0.67-1.07-1.61-2.34-2.09c-1.27-0.48-2.57-1.71-2.9-2.73c-0.32-1.02-1.91-3.23-3.52-4.92
		c-1.61-1.69-4.02-5.45-5.36-8.37c-2.15-4.7-2.36-6.12-1.86-12.57c0.79-10.19,5.99-35.28,10.3-49.66c1-3.34,1.82-6.95,1.82-8.03
		c0-1.87-0.08-1.88-1.83-0.3c-5.16,4.67-11.24,28.19-13.85,53.58c-0.22,2.1-0.25-1.77-0.07-8.6c0.3-11.48,1.97-21.61,5.2-31.36
		c0.87-2.63,0.46-5.46-0.77-5.39c-0.34,0.02-2.22,2.06-4.17,4.54s-4.54,5.58-5.74,6.89c-4.53,4.95-8.3,10.27-7.71,10.85
		c0.34,0.34,0.1,0.61-0.52,0.61c-0.62,0-1.85,1.51-2.72,3.34c-0.88,1.84-1.95,3.34-2.37,3.34c-0.43,0-0.78,0.42-0.78,0.92
		s-5.18,8.44-11.52,17.63c-10.29,14.92-23.34,35.1-39.8,61.53c-10.08,16.19-11.69,18.67-12.44,19.23
		c-2.76,2.05-14.68,23.4-21.64,38.77c-6.33,13.99-13.03,30.22-13.03,31.58c0,0.55-1.4,2.32-3.11,3.93
		c-2.95,2.78-3.39,2.89-8.84,2.32c-3.97-0.41-6.77-1.35-9.08-3.04c-1.84-1.34-5.7-3.84-8.59-5.55
		c-5.29-3.13-11.08-10.01-15.17-18.02c-1.92-3.76-3.81-14.34-3.43-19.16c0.11-1.42,0.5-7.52,0.87-13.57
		c0.74-12.21,2.15-21.02,3.38-21.02c0.44,0,1.1-1.83,1.47-4.06c0.36-2.23,2.34-9.05,4.38-15.15c2.05-6.1,3.72-12.18,3.72-13.51
		s0.58-2.65,1.3-2.92c1.63-0.63,3.47-7.65,2.74-10.48c-0.47-1.84-0.34-1.96,0.95-0.9c1.28,1.05,1.65,0.79,2.57-1.85
		c0.59-1.69,0.7-3.32,0.24-3.61c-1.11-0.72-0.57-3.87,0.88-5.21c0.89-0.82,1.03-0.68,0.59,0.57c-0.32,0.9-0.2,1.88,0.27,2.16
		c1.24,0.76,2.17-2.96,1.5-5.99c-0.37-1.7-0.04-3.29,0.95-4.52c1.48-1.83,1.51-1.81,1.12,0.74c-0.51,3.32-0.12,3.32,1.61-0.03
		c0.99-1.92,1.1-3.14,0.4-4.4c-0.68-1.21-0.65-2.47,0.09-4.08c1.44-3.15,3.2-2,1.95,1.28c-1.78,4.68-0.21,3.24,1.83-1.69
		c1.52-3.66,1.67-4.61,0.59-3.71c-0.8,0.66-1.64,1.01-1.88,0.77c-0.44-0.44,4.55-10.73,8.39-17.33c1.16-2,4.43-8.02,7.25-13.38
		c2.83-5.36,5.53-10.24,6-10.84c0.47-0.6,3.68-6.62,7.13-13.38c3.45-6.76,6.87-12.97,7.61-13.8c0.74-0.83,1.35-3.02,1.35-4.86
		c0-4.09,4.19-9.96,7.64-10.69c3.28-0.7,12.79,4.11,18.02,9.12l4.16,3.99l-0.63,5.56c-0.51,4.52-0.37,5.56,0.76,5.56
		c0.9,0,1.22-0.64,0.91-1.83c-0.27-1.01-0.06-2.58,0.45-3.49c0.78-1.4,1.1-1.11,2.09,1.88c1.33,4.03,0.44,10.24-0.97,6.78
		c-0.56-1.37-0.8-0.57-0.85,2.87c-0.08,5.2-1.32,10.72-3.47,15.43c-0.75,1.65-1.37,3.5-1.37,4.1c0,1.93-12.41,28.11-13.54,28.56
		c-0.44,0.17-0.79,0.75-0.79,1.29c0,0.53-0.71,2.46-1.57,4.29c-1.19,2.5-1.8,3.01-2.48,2.06c-0.66-0.92-0.76-0.8-0.35,0.46
		c0.67,2.08-1.76,8.31-3.25,8.31c-0.58,0-0.8,0.42-0.49,0.93c0.8,1.29-2.24,6.91-3.36,6.22c-0.5-0.31-0.85,0.43-0.78,1.64
		c0.07,1.21-0.39,3.48-1.02,5.04c-0.93,2.32-1.32,2.58-2.13,1.43c-0.81-1.14-0.89-1.08-0.43,0.32c0.55,1.71-1.65,8.31-2.78,8.31
		c-0.32,0-0.34-0.4-0.03-0.89c0.3-0.49,0.16-1.13-0.32-1.43c-0.48-0.29-1.13,0.13-1.44,0.95c-0.31,0.82-1,1.22-1.53,0.89
		c-0.53-0.33-0.96-0.14-0.96,0.42c0,0.56,0.7,1.01,1.55,1.01c1.24,0,1.43,0.62,0.94,3.08c-0.34,1.69-1.08,3.52-1.66,4.06
		c-0.75,0.7-0.86,0.37-0.4-1.16c0.36-1.19,0.24-2.15-0.27-2.15c-1.34,0-2.01,2.31-1.6,5.55c0.2,1.56-0.27,3.64-1.03,4.62
		c-1.26,1.61-1.34,1.37-0.85-2.53c0.3-2.37,0.74-5.16,0.97-6.21c0.24-1.05-0.5,0.02-1.63,2.39c-1.13,2.37-1.97,5.16-1.87,6.21
		c0.16,1.62,0.03,1.69-0.89,0.48c-0.89-1.18-1-1.06-0.62,0.68c0.25,1.17,0.06,2.02-0.43,1.91c-0.78-0.18-3,4.27-5.14,10.31
		c-0.43,1.22-0.84,1.48-1.13,0.7c-0.94-2.53,12.32-33.56,29.1-68.07c10.75-22.11,14.9-31.13,17.38-37.74
		c1.18-3.15,3.02-7.54,4.09-9.76c1.07-2.22,1.67-4.72,1.35-5.55c-0.66-1.72-2.51-1.03-2.51,0.93c0,1.16-12.59,26.46-14.29,28.71
		c-1.05,1.39-8.61,15.59-19.34,36.31c-24.82,47.94-38,86.87-38.01,112.28c0,3.94,0.41,7.81,0.92,8.6c0.79,1.22,0.93,1.19,0.94-0.24
		c0.01-0.92,0.44-1.67,0.97-1.67c0.52,0,0.96-0.75,0.97-1.67c0.01-0.92,0.47-2.32,1.02-3.11c0.74-1.05,0.87-0.16,0.47,3.34
		c-0.82,7.29,1.28,1.71,2.46-6.53c1.16-8.16,3.01-12.98,2.26-5.89l-0.51,4.78l2.87-4.3c2.57-3.85,2.87-4.05,2.91-1.91
		c0.03,1.69,1.02,0.3,3.38-4.73c1.84-3.92,3.59-8.11,3.89-9.32c0.3-1.21,0.92-2.19,1.37-2.19s1.26-1.67,1.81-3.71
		c0.55-2.04,1.64-4.24,2.42-4.89c0.78-0.65,1.43-2.11,1.43-3.24c0-1.13,0.86-2.8,1.91-3.7c1.05-0.9,1.91-2.3,1.91-3.12
		c0-0.81,0.86-2.75,1.91-4.31s2.77-4.1,3.82-5.66c1.05-1.56,1.91-3.43,1.91-4.17c0-0.74,0.8-2.37,1.78-3.62
		c0.98-1.25,2.08-3.25,2.45-4.43c0.37-1.18,1.04-2.15,1.49-2.15s1.31-1.51,1.92-3.34c0.61-1.84,1.41-3.34,1.78-3.34
		c0.37,0,1.19-1.18,1.82-2.63c0.63-1.45,2.44-4.56,4.02-6.93c1.58-2.37,3.16-4.92,3.53-5.68c0.82-1.69,8.54-13.48,9.87-15.07
		c0.53-0.63,0.97-1.45,0.97-1.82c0-0.37,1-2,2.22-3.62c1.22-1.63,2.5-3.71,2.84-4.63c0.34-0.92,1.01-1.67,1.5-1.67
		c0.49,0,1.15-1.07,1.48-2.39c0.33-1.31,1.01-2.39,1.51-2.39s1.58-1.18,2.4-2.63c3.38-5.97,11.64-17.91,13.41-19.38
		c0.77-0.64,1.4-1.57,1.4-2.07c0-1.22,24.84-32.15,35.98-44.8c13.64-15.49,21.68-21.62,26.7-20.36c3.25,0.82,10.53,4.68,14.55,7.73
		c6.4,4.85,9.64,8.87,11.1,13.78c1.3,4.37,1.3,5.8,0.04,13.03c-0.78,4.47-2.23,10.76-3.21,13.97c-0.99,3.22-2.11,7.78-2.5,10.15
		c-0.39,2.37-1.06,4.75-1.5,5.29c-0.44,0.55-1.27,3.94-1.84,7.54c-0.58,3.6-1.49,7.37-2.02,8.37c-0.54,1-0.82,2.55-0.62,3.44
		c0.26,1.17,3.85-1.96,12.72-11.05c6.8-6.97,12.69-12.67,13.08-12.66c1.81,0.03,0.17,2.29-6.71,9.24
		c-13.1,13.23-21.02,23.81-19.93,26.63c0.89,2.31,1.8,1.69,6.77-4.57c12.41-15.63,32.8-34.14,49.44-44.89
		c8.32-5.37,22.33-12.44,26.8-13.52c1.46-0.35,2.63-1.29,2.63-2.11c0-1.77-0.9-1.56-12.9,3.08c-16.67,6.45-26.77,12.23-38,21.76
		c-3.72,3.16-6.56,4.94-6.93,4.35c-0.77-1.25,1.24-3.79,3.01-3.79c0.72,0,1.34-0.54,1.37-1.19c0.08-1.59,11.18-11.06,19.53-16.66
		c7.52-5.05,20.41-11.63,27.95-14.28c4.84-1.7,5.19-1.7,9.83-0.05c5.67,2.01,10.09,4.85,16.86,10.83
		C914.45,362.23,917.59,368.93,916.77,374.95z M635.98,525.71c-0.01,1.05-0.35,3.2-0.75,4.78c-0.66,2.58-0.73,2.62-0.75,0.48
		c-0.01-1.31,0.33-3.46,0.75-4.78C635.84,524.32,636,524.21,635.98,525.71z M636.83,520.22c0.27,0.66,0.27,1.73,0,2.39
		c-0.27,0.66-0.48,0.12-0.48-1.19C636.34,520.1,636.56,519.56,636.83,520.22z M638.76,513.59c0.28,0.69,0.24,1.51-0.08,1.83
		c-0.32,0.32-0.54-0.25-0.5-1.26C638.22,513.05,638.45,512.83,638.76,513.59z M640.9,507.74c0.04,1.15-0.36,2.36-0.89,2.68
		c-0.52,0.32-0.92,0.24-0.89-0.18c0.04-0.43,0.44-1.63,0.89-2.68C640.81,505.72,640.84,505.72,640.9,507.74z M641.81,409.21
		c0.46-0.29,1.09-1.49,1.39-2.68c0.53-2.09,0.5-2.1-0.84-0.31C640.82,408.27,640.5,410.02,641.81,409.21z M644.79,401.07
		c0,1.37,0.68,1.07,1.32-0.58c0.33-0.85,0.17-1.23-0.38-0.9C645.22,399.91,644.79,400.58,644.79,401.07z M647.48,485.55
		c0.29,0.29,0,1.07-0.65,1.71c-0.94,0.94-1.05,0.83-0.53-0.54C646.65,485.79,647.18,485.26,647.48,485.55z M649.44,479.37
		c0,0.79-0.37,2.29-0.82,3.34c-0.52,1.2-0.82,1.38-0.82,0.48c0-0.79,0.37-2.29,0.82-3.34C649.13,478.64,649.44,478.46,649.44,479.37
		z M651.69,486.85c0.38,0.38,0.31,1.97-0.17,3.53c-0.85,2.81-0.86,2.81-0.69-0.69C650.93,487.75,651.31,486.47,651.69,486.85z
		 M785.42,328.39c-3.71,0-19.19,15.13-35.32,34.53c-18.38,22.11-43.84,57.49-62.64,87.07c-1.92,3.02-4.94,7.75-6.71,10.51
		c-1.77,2.76-3.94,6.31-4.82,7.88c-0.88,1.58-2.64,4.59-3.92,6.69c-2.83,4.67-5.07,9.26-5.08,10.41c0,0.47-0.38,1.11-0.85,1.43
		c-0.9,0.62-11.78,26.73-11.75,28.21c0.02,1.42,0.55,0.56,5.83-9.48c17.65-33.56,45.98-78.96,68.56-109.89
		c18.63-25.51,44.76-56.29,53.1-62.53C785.94,330.15,787.25,328.39,785.42,328.39z M655.3,479.85c-0.54,1.26-0.84,1.42-0.87,0.48
		c-0.03-0.79,0.36-2.08,0.87-2.87C656.43,475.71,656.43,477.22,655.3,479.85z M659.13,470.29c-0.73,1.71-0.83,1.63-0.89-0.66
		c-0.04-1.42,0.36-2.84,0.89-3.16C660.27,465.76,660.27,467.64,659.13,470.29z M784.48,336.99c-2,0-20.43,19.92-31.71,34.28
		c-7.25,9.23-8.79,12.24-2.76,5.4c2.31-2.62,8.46-9.49,13.66-15.29c5.21-5.79,12.2-13.23,15.53-16.53
		C784.84,339.26,786.37,336.99,784.48,336.99z M798.35,347.76c-1.06,0.35-2.49,4.4-7.98,22.68c-4.72,15.7-6.12,22.55-6.64,32.49
		c-0.57,10.84,0.56,11.7,2.54,1.91c0.58-2.89,2.68-11.92,4.66-20.07c1.98-8.15,4.36-18.47,5.29-22.93
		c0.93-4.47,2.04-9.55,2.47-11.29C799.25,348.28,799.16,347.49,798.35,347.76z M830.18,450.04c-0.01-1.15,0.42-2.36,0.94-2.69
		c1.22-0.75,1.22,1.46,0,3.34C830.37,451.87,830.2,451.74,830.18,450.04z M853.1,505.88c0-2.63-1.46-1.1-2.28,2.4
		c-0.38,1.63-0.22,2.63,0.41,2.63c0.57,0,0.78-0.4,0.48-0.89c-0.3-0.49-0.11-1.16,0.42-1.49C852.66,508.19,853.1,507,853.1,505.88z
		 M885.59,439.85c0,0.51-0.67,1.77-1.49,2.79c-1.4,1.75-1.42,1.72-0.35-0.53C885.15,439.18,885.59,438.64,885.59,439.85z
		 M888.82,434.89c-0.64,1.65-1.32,1.96-1.32,0.58c0-0.5,0.42-1.16,0.94-1.48C888.99,433.65,889.15,434.04,888.82,434.89z"/>
	<linearGradient id="SVGID_4_" gradientUnits="userSpaceOnUse" x1="994.2421" y1="226.2637" x2="994.2421" y2="568.622">
		<stop  offset="0" style="stop-color:#EA706C"/>
		<stop  offset="1" style="stop-color:#EC008C"/>
	</linearGradient>
	<path class="st4" d="M1079.02,422.16c-3.39,5.47-26.58,37.38-46.52,64.02c-47.21,63.07-51.91,68.73-63.68,76.64
		c-7.08,4.76-19.36,7.13-26.17,5.05c-11.2-3.42-24.22-12.13-29.83-19.97c-6.17-8.62-8.51-26.35-5.55-42.14
		c2.92-15.57,9.57-36.43,16.75-52.56c0.47-1.05,3.09-7.07,5.82-13.38c6.78-15.63,18.51-38.44,32.92-64.02
		c9.45-16.78,12.87-23.17,12.86-24.03c-0.01-1.11-13.32,19.28-19.28,29.55c-2.68,4.61-5.29,8.65-5.8,8.97
		c-0.9,0.55,1.95-4.72,6.65-12.32c1.21-1.96,2.2-3.73,2.2-3.94c0-0.21,2.42-4.41,5.39-9.34c4.91-8.16,16.2-28.02,20.54-36.13
		c2.51-4.69,3.06-5.03,6.15-3.86c3.91,1.49,4.4,2.83,2.29,6.25c-1.02,1.64-1.58,3.25-1.26,3.57c1.65,1.65-2.71,10.95-13.81,29.42
		c-17.77,29.58-26.71,46.45-41.7,78.74c-10.05,21.66-18.73,49.82-18.65,60.5c0.04,4.99,1.6,2.02,3.3-6.27
		c0.73-3.55,1.97-8.17,2.78-10.27c0.8-2.1,1.48-4.6,1.5-5.56c0.02-0.95,0.84-3.75,1.82-6.21c0.98-2.46,2.74-7.06,3.92-10.21
		c5.65-15.15,20.41-46.81,28.73-61.62c1.92-3.42,4.79-8.59,6.37-11.48c4.47-8.17,7.12-12.81,7.9-13.85c0.39-0.53,2-3.32,3.58-6.21
		c1.58-2.89,3.84-6.98,5.04-9.08c7.06-12.4,11.48-22.01,11.48-24.92c0-6.26,7.72-7.94,11.28-2.45c0.89,1.37,2.97,3.69,4.62,5.15
		c2.34,2.07,3.33,4.09,4.49,9.23c2.13,9.43,0.77,13.39-11.38,33.06c-12.66,20.49-24.59,41.92-34.05,61.15
		c-3.62,7.36-7.04,14.21-7.61,15.22c-0.57,1.02-1.38,2.95-1.8,4.3c-0.43,1.35-2.14,5.68-3.82,9.62
		c-4.75,11.18-10.31,28.12-13.01,39.65c-3.93,16.76-3.2,36.8,1.34,36.8c1.66,0,12.43-9.25,19.18-16.46
		c6.05-6.47,11.77-13.99,19.81-26.06c7.9-11.85,73.83-97.69,80.34-104.6c4.57-4.85-1.63,3.59-23.58,32.11
		c-13.7,17.79-25.33,33.21-25.86,34.26c-0.53,1.05,1.21-0.36,3.88-3.15c2.66-2.78,4.84-4.79,4.84-4.47c0,0.32-1.33,2.6-2.95,5.06
		l-2.95,4.47l2.9-3.34c1.59-1.84,3.45-4.42,4.14-5.73c0.68-1.31,1.95-3.03,2.83-3.82c0.87-0.79,10.46-12.92,21.31-26.96
		c10.85-14.04,20.84-26.4,22.2-27.47c2.99-2.35,7.95-2.64,7.95-0.45c0,0.82,0.38,1.26,0.84,0.97c0.47-0.29,1.38,0.77,2.04,2.36
		C1083.4,409.99,1082.24,416.96,1079.02,422.16z M910.73,478.43c-0.07-1.76,1.91-7.81,2.39-7.32c0.18,0.18-0.27,2.24-1,4.59
		S910.76,479.27,910.73,478.43z M918.08,507.2c-0.4,0-0.67,2.9-0.59,6.45c0.13,6.68,0.54,5.94,1.03-1.91
		C918.67,509.24,918.48,507.19,918.08,507.2z M941.09,507.19c-0.01-2.9-0.18-2.65-1.32,1.91c-0.72,2.89-1.28,6.12-1.25,7.17
		C938.62,519.51,941.1,510.76,941.09,507.19z M943.12,499.09c0.55-0.34,0.99-1.74,0.99-3.11c0-2.99-0.46-2.65-1.34,1.01
		C942.35,498.78,942.46,499.5,943.12,499.09z M1013.58,475.66c-0.54,0-10.91,13.52-26.11,34.03
		c-10.03,13.53-11.99,15.94-19.28,23.75c-7.18,7.69-15.29,14.74-19.04,16.55c-2.39,1.16-2.85,1.77-2.03,2.76
		c1.2,1.45,3.68,1.7,3.68,0.38c0-0.49,0.97-1.19,2.15-1.55c1.18-0.36,4.08-2.22,6.44-4.13c5.18-4.18,16.25-15.49,16.25-16.61
		c0-0.44,0.44-1.32,0.99-1.95c0.54-0.64,4.11-5.67,7.93-11.19c6.09-8.8,24.59-35.15,28.23-40.22
		C1013.51,476.48,1013.86,475.66,1013.58,475.66z M948.47,393.21c0.36-0.94,0.89-1.47,1.19-1.18c0.29,0.29,0,1.07-0.65,1.71
		C948.06,394.68,947.95,394.57,948.47,393.21z M957.43,396.35c0.56,0,1.01-0.43,1.01-0.96c0-0.53-0.19-0.96-0.42-0.96
		c-0.23,0-0.69,0.43-1.01,0.96C956.68,395.92,956.88,396.35,957.43,396.35z M961.57,389.9c0.75-1.45,3.64-6.5,6.43-11.23
		c7.78-13.18,10.47-18.07,10.48-19.1c0.04-2.3-17.08,26.21-18.59,30.95C959,393.37,959.97,393.01,961.57,389.9z M966.52,440.24
		c0.94,1.52,1.49,1.23,0.85-0.46c-0.31-0.81-0.77-1.27-1.02-1.02C966.1,439.02,966.18,439.68,966.52,440.24z M968,434.1
		c0,0.03,0.86,0.13,1.91,0.21c1.3,0.1,1.91-0.45,1.91-1.7c0-1.75-0.1-1.76-1.91-0.21C968.86,433.31,968,434.07,968,434.1z
		 M974.8,426.23c0.65-0.65,0.95-1.42,0.65-1.71c-0.29-0.29-0.83,0.24-1.19,1.18C973.75,427.05,973.86,427.17,974.8,426.23z
		 M986.1,406.86c0.56,0,1.01-0.43,1.01-0.96c0-0.52-0.19-0.96-0.42-0.96s-0.69,0.43-1.01,0.96
		C985.35,406.43,985.54,406.86,986.1,406.86z M1011,294.25c-3.48-3.48-3.59-5.75-0.89-18.3c1.07-4.99,2.33-12.09,2.78-15.77
		c1.08-8.69,3.16-14.7,7.93-22.9c4.79-8.23,7.51-11.02,10.74-11.02c2,0,2.39,0.36,1.93,1.78c-0.97,3.06,1.75,4.29,8.05,3.63
		c3.35-0.35,5.91-0.21,6.25,0.34c0.32,0.52,1.42,0.94,2.45,0.94c2.43,0,4.58,4.33,2.96,5.95c-2.04,2.04-1.17,2.83,2.49,2.21
		c4.89-0.83,7.82,0.45,9.35,4.07c1.16,2.77,1.09,3.26-0.89,5.67c-1.19,1.45-4.5,6.64-7.35,11.54c-8.05,13.8-9.21,15.66-10.21,16.3
		c-0.51,0.33-1.26,1.67-1.66,2.99c-0.4,1.31-1.47,3.46-2.37,4.78c-0.9,1.31-2.65,4.97-3.88,8.12c-2.9,7.4-4.01,8.54-8.34,8.62
		c-1.96,0.04-5.51,0.37-7.87,0.73c-3.24,0.5-4.83,0.29-6.45-0.88c-1.18-0.85-2.15-2.53-2.15-3.74S1012.57,295.83,1011,294.25z"/>
	<linearGradient id="SVGID_5_" gradientUnits="userSpaceOnUse" x1="1133.4124" y1="314.5854" x2="1133.4124" y2="568.5397">
		<stop  offset="0" style="stop-color:#EA706C"/>
		<stop  offset="1" style="stop-color:#EC008C"/>
	</linearGradient>
	<path class="st5" d="M1239.33,360.56c-0.92,5.26-2.31,9.08-3.75,10.27c-0.76,0.63-1.39,2.33-1.39,3.78c0,2.66-2.03,5.29-3.19,4.13
		c-0.35-0.35-0.64,0.84-0.64,2.64c-0.02,3.51-1.13,6.01-2.45,5.5c-0.45-0.18-1.18,1.51-1.62,3.74c-0.5,2.53-1.32,4.06-2.18,4.06
		c-1.33,0-1.78,1.56-1.43,5.02c0.15,1.47-0.88,2.1-2.98,1.81c-0.35-0.05-0.93,1.65-1.29,3.78c-0.36,2.12-1.25,4.09-1.99,4.38
		s-1.34,1.3-1.34,2.27s-0.44,2.02-0.97,2.35c-0.53,0.33-0.72,1-0.42,1.5c0.31,0.49-0.08,1.14-0.85,1.44
		c-1.43,0.55-3.01,4.66-2.65,6.87c0.11,0.66-0.32,1.1-0.96,0.96c-0.64-0.14-1.6,1.25-2.14,3.09c-0.54,1.84-1.22,3.56-1.51,3.82
		c-1.35,1.2-3.16,5.81-3.16,8.04c0,1.36-0.54,2.47-1.21,2.47c-0.67,0-1.47,1.4-1.8,3.11c-0.33,1.71-1.15,4.18-1.83,5.5
		c-0.68,1.31-1.81,4.43-2.51,6.93c-0.7,2.5-1.6,4.54-2.01,4.54c-0.41,0-1.03,1.7-1.38,3.77c-0.35,2.07-1.46,5.39-2.47,7.37
		c-1.01,1.98-1.84,4.97-1.84,6.64c0,1.74-0.58,3.26-1.36,3.56c-0.83,0.32-1.63,2.67-2.05,6.04c-0.38,3.04-1.27,6.1-1.99,6.82
		c-1.27,1.27-1.6,3.52-1.38,9.28c0.06,1.58-0.32,3.51-0.84,4.3c-0.8,1.2-0.97,1.12-1.04-0.48l-0.08-1.91l-0.76,1.91
		c-0.42,1.05-0.54,3.54-0.28,5.53c0.26,1.99-0.22,6.29-1.08,9.56c-5.12,19.51-6.82,33.17-4.14,33.17c0.69,0,2.18,1.25,3.31,2.78
		l2.06,2.78l-1.95,2.47c-2.48,3.16-6.37,3.23-12.8,0.22h0c-2.63-1.23-7.89-4.72-11.7-7.77c-5.32-4.25-7.51-6.77-9.48-10.89
		c-1.41-2.95-3.39-6.3-4.42-7.45c-2.75-3.09-4.47-11.92-4.49-22.99c-0.01-8.08,0.24-9.8,1.42-9.8c1.14,0,1.45,1.5,1.53,7.4
		c0.08,6.59,1.46,15.01,1.72,10.51c0.05-0.92,0.47-1.67,0.93-1.67c0.46,0,1.3-1.61,1.85-3.58c2-7.08,4.24-12.66,5.06-12.66
		c0.46,0,0.84-0.64,0.84-1.43s0.6-1.43,1.33-1.43c1.39,0,2.97-2.64,2.56-4.3c-0.13-0.53,0.07-0.65,0.44-0.28
		c1.09,1.09,2.88-1.35,4.02-5.45c1.21-4.38,10.1-29.73,14.4-41.09c7.63-20.15,15.47-37.77,27.21-61.23
		c10.63-21.24,19.01-39.53,18.62-40.68c-0.15-0.44-2.08,0.86-4.3,2.88s-4.25,3.48-4.51,3.22c-0.26-0.26-1.55,0.23-2.86,1.09
		c-1.31,0.86-3.04,1.56-3.85,1.56c-0.8,0-5.23,3.92-9.83,8.7c-4.6,4.79-10.16,9.94-12.35,11.46c-3.63,2.51-12.63,13.05-28.82,33.74
		c-14.82,18.95-38.25,54.38-47.83,72.33c-10.58,19.84-20.59,44.53-24.52,60.48c-3.34,13.56-4.63,16.46-8.08,18.25
		c-2.58,1.33-3.15,1.33-5.7,0.01c-1.56-0.81-3.17-1.35-3.58-1.22c-0.41,0.14-2.47-0.82-4.57-2.12c-2.1-1.3-4.56-2.68-5.45-3.06
		c-0.9-0.38-2.78-2.51-4.18-4.72c-3.47-5.5-6.13-8.3-6.17-6.51c-0.06,2.45-4.64-4.14-7.01-10.09c-3.07-7.71-5.62-23.58-5.16-32.2
		c0.41-7.73,2.77-20.62,5.65-30.87c3.97-14.11,6.71-23.04,7.92-25.8c0.69-1.58,1.57-4.37,1.97-6.21c0.39-1.84,1.06-3.78,1.49-4.31
		c0.43-0.53,1.31-3.1,1.97-5.71c0.66-2.61,1.76-5.83,2.45-7.15c0.69-1.33,1.28-3.28,1.3-4.33c0.02-1.05,0.87-3.63,1.88-5.73
		c1.02-2.1,1.86-4.4,1.88-5.11c0.02-0.71,0.66-2.64,1.42-4.3c0.77-1.66,2.09-4.95,2.95-7.31c3.23-8.9,4.41-11.83,11.41-28.18
		c3.95-9.23,7.18-17.08,7.18-17.45c0-0.37-1.09,0.93-2.42,2.89c-1.33,1.96-2.61,3.57-2.84,3.57c-0.67,0,0.58-2.8,5.79-12.9
		c2.71-5.25,5.22-11.17,5.59-13.14c0.66-3.59,1.38-4.04,5.83-3.62c2.3,0.22,4.53,2.86,3.84,4.55c-0.27,0.67-0.76,1.87-1.08,2.66
		c-0.32,0.79-0.13,1.43,0.41,1.43c0.55,0,1.27-0.86,1.6-1.91c1.24-3.9,5.52-2.34,14.09,5.13c7.28,6.35,10.27,13.01,10.27,22.87
		c0,8.4-1.65,13.08-12.97,36.67c-3.91,8.15-7.1,15.32-7.1,15.95c0,0.63-0.59,1.99-1.3,3.02c-0.72,1.04-1.62,2.96-2.01,4.27
		c-0.65,2.2-1.43,4.08-5.58,13.38c-1.38,3.08-1.5,3.15-1.55,0.92c-0.03-1.33,0.8-4.11,1.85-6.17c1.05-2.06,1.91-4.38,1.91-5.15
		c0-2.17,2.2-7.75,3.06-7.75c0.42,0,0.76-1.07,0.76-2.39c0-2.84-1.44-3.24-1.65-0.47c-0.08,1.06-0.97,3.1-1.98,4.54
		c-1.01,1.44-2.36,4.23-3,6.2c-0.64,1.97-1.49,3.58-1.88,3.58c-0.4,0-0.75,0.54-0.77,1.19c-0.03,0.66-2.01,5.98-4.41,11.84
		c-9.1,22.19-19.22,55.85-21.23,70.58c-0.89,6.54,0.04,5.34,8.08-10.36c7.05-13.76,9.34-16.21,3.33-3.58
		c-5.21,10.98-10.89,27.64-10.89,31.97c0,5.29,0.96,3.98,6.52-8.95c8.81-20.47,18.96-40.77,19.92-39.81
		c0.22,0.22-0.38,1.86-1.35,3.63c-2.18,3.98-7.89,16.84-7.89,17.78c0,0.38,2.93-5.11,6.51-12.19
		c15.92-31.49,49.51-81.29,78.92-117.03c11.01-13.38,14.75-18.9,8.06-11.9c-10.24,10.72-16.73,17.99-23.25,26.1
		c-9.39,11.67-11.56,14.05-12.22,13.4c-0.3-0.3-3.54,3.47-7.19,8.38c-3.65,4.91-7.61,9.79-8.81,10.84l-2.17,1.91l1.08-2.06
		c1.06-2.02,5.72-8.98,11.72-17.52c4.12-5.86,15.78-20.66,19.92-25.28c13.84-15.43,36.21-36.83,38.5-36.83
		c0.56,0,0.3,0.79-0.57,1.75c-2.81,3.11-1.68,3.49,1.52,0.52c1.71-1.59,4.83-4.21,6.93-5.83c3.41-2.62,8.14-8.86,6.72-8.86
		c-0.3,0-2.25,1.07-4.32,2.38c-5.4,3.41-3.86,0.41,2-3.89c4.61-3.38,7.54-6.65,7.54-8.41c0-0.49-0.75-0.24-1.67,0.54
		c-0.92,0.79-4.04,2.8-6.93,4.48c-7.2,4.17-9,5.28-9.56,5.9c-0.26,0.29-4.96,4.58-10.43,9.53c-12,10.85-30.06,30.97-42.44,47.29
		c-5,6.59-9.28,12.51-9.51,13.15c-0.23,0.64-0.7,0.9-1.05,0.58c-0.7-0.65,11.24-18.96,15.03-23.05c1.32-1.42,2.67-3.46,3.01-4.52
		c0.34-1.07,0.97-1.94,1.41-1.94c0.44,0,1.63-1.4,2.65-3.11c4.83-8.11,30.57-34.72,41.22-42.62c15.36-11.39,22.21-14.45,24.96-11.13
		c0.65,0.79,1.74,1.43,2.41,1.43c2.14,0,12.72,9.65,13.72,12.52c0.53,1.52,1.42,2.76,1.97,2.76c1.86,0,4.83,3.8,4.83,6.18
		c0,1.82-0.37,2.22-1.6,1.74c-1.5-0.58-1.5-0.47,0,1.68c0.88,1.26,1.66,3.81,1.72,5.66l0.11,3.37l0.81-2.87
		c0.67-2.39,0.74-2.15,0.43,1.43c-0.21,2.37-0.69,5.34-1.07,6.61c-0.57,1.89-0.41,2.2,0.86,1.72
		C1239.61,357.6,1239.78,358.01,1239.33,360.56z M1034.07,531.9c-2.84-10.98-2.63-22.02,0.98-52.18c0.83-6.89-1.24-2.55-2.48,5.23
		c-0.59,3.69-1.69,8.07-2.44,9.73c-2.21,4.89-1.85,25.14,0.61,33.38c2.17,7.29,4.6,13.26,5.17,12.69
		C1036.1,540.55,1035.28,536.56,1034.07,531.9z M1036.08,471.84c-0.27-0.66-0.48-0.12-0.48,1.19c0,1.31,0.22,1.85,0.48,1.19
		C1036.35,473.57,1036.35,472.5,1036.08,471.84z M1037.06,467.12c-0.31-0.76-0.53-0.54-0.58,0.58c-0.04,1.01,0.18,1.57,0.5,1.26
		C1037.3,468.63,1037.34,467.81,1037.06,467.12z M1038.97,490.05L1038.97,490.05c-0.31-0.76-0.53-0.54-0.58,0.58
		c-0.04,1.01,0.18,1.57,0.5,1.25C1039.21,491.57,1039.25,490.74,1038.97,490.05z M1071.91,394.2c4.14-10.34,4.9-12.1,9.19-21.5
		c6.89-15.1,8.82-20.08,8.75-22.62c-0.06-2.27-0.41-1.85-2.18,2.55c-1.16,2.89-5.17,11.29-8.91,18.66
		c-7.12,14.04-16.51,36.94-23.11,56.35c-7.88,23.19-17.74,59.74-15.41,57.14c0.38-0.42,3.17-8.94,6.2-18.92
		C1053.16,443.71,1061.75,419.53,1071.91,394.2z M1077.11,483.47c1.1-0.91,1.15-0.61,0.28,1.88c-1.28,3.67-2.64,4.7-2.04,1.54
		C1075.59,485.61,1076.39,484.07,1077.11,483.47z M1079.42,457.08c-0.01-1.15,0.42-2.36,0.94-2.68c1.22-0.75,1.22,1.46,0,3.34
		C1079.61,458.91,1079.43,458.79,1079.42,457.08z M1079.42,479.06c0.01-0.43,0.43-1.42,0.94-2.21c0.8-1.24,0.93-1.21,0.94,0.18
		c0.01,0.89-0.42,1.88-0.94,2.21C1079.84,479.57,1079.41,479.49,1079.42,479.06z M1085.22,444.1c-0.47,1.65-1.32,3.78-1.88,4.73
		c-0.82,1.38-0.91,1.05-0.44-1.6c0.32-1.84,1.17-3.97,1.88-4.73C1085.88,441.32,1085.94,441.56,1085.22,444.1z M1115.53,417.11
		c0.29,0.29,0,1.07-0.65,1.71c-0.94,0.94-1.05,0.83-0.54-0.54C1114.7,417.34,1115.24,416.81,1115.53,417.11z M1118.17,412.55
		c0.36-0.94,0.89-1.47,1.19-1.18c0.29,0.29,0,1.07-0.65,1.71C1117.76,414.02,1117.65,413.91,1118.17,412.55z M1120.08,441.5
		c-0.26,0-0.94,0.86-1.5,1.91c-0.56,1.05-0.81,1.91-0.55,1.91c0.26,0,0.94-0.86,1.5-1.91C1120.1,442.36,1120.35,441.5,1120.08,441.5
		z M1188.38,357.41c-1.43,0-18.21,17.2-27.03,27.71c-10.07,12-25.73,32.81-34.22,45.47c-8.91,13.28-7.14,12.09,2.79-1.87
		c14.8-20.8,31.99-41.55,48.91-59.03C1187.75,360.48,1190.14,357.41,1188.38,357.41z M1121.45,407.22c0-0.46,0.71-1.43,1.59-2.15
		c1.44-1.19,1.48-1.11,0.44,0.84C1122.3,408.13,1121.45,408.68,1121.45,407.22z M1137.69,500.06c0.6,0.94,0.89,2.23,0.63,2.87
		c-0.34,0.84-0.49,0.85-0.54,0.04c-0.04-0.61-0.32-1.9-0.63-2.87C1136.62,498.44,1136.65,498.44,1137.69,500.06z M1137.88,494.53
		c0.02-1.58,0.23-2.11,0.47-1.18c0.24,0.93,0.23,2.22-0.04,2.87C1138.06,496.87,1137.86,496.11,1137.88,494.53z M1145.41,466.74
		c0.04-1.11,0.27-1.34,0.58-0.58c0.28,0.69,0.24,1.51-0.07,1.83C1145.6,468.31,1145.37,467.75,1145.41,466.74z M1223.1,354.55
		c-1.2,0-32.82,64.17-38.61,78.35c-5.31,13.02-9.42,24.22-12.97,35.35c-4.17,13.09-2.25,9.4,5.73-10.99
		c7.96-20.35,12.69-30.67,29.81-64.98C1221.61,363.09,1225.24,354.55,1223.1,354.55z M1232.21,371.27c0.03-0.53-0.36-0.31-0.87,0.48
		s-0.9,2.08-0.87,2.87C1230.52,376.12,1232.11,373.08,1232.21,371.27z M1232.29,336.39c0-0.52-0.19-0.96-0.42-0.96
		c-0.23,0-0.69,0.43-1.01,0.96c-0.33,0.53-0.14,0.96,0.42,0.96C1231.84,337.34,1232.29,336.92,1232.29,336.39z M1235.13,365.77
		L1235.13,365.77l-0.04-3.11l-1.37,2.39c-1.76,3.08-1.76,3.82,0,3.82C1234.71,368.88,1235.15,367.91,1235.13,365.77z
		 M1240.15,355.68c-0.6,0.6-0.73-0.03-0.38-1.77c0.41-2,0.65-2.24,0.93-0.93C1240.9,353.95,1240.66,355.17,1240.15,355.68z"/>
	<linearGradient id="SVGID_6_" gradientUnits="userSpaceOnUse" x1="1289.5815" y1="320.2427" x2="1289.5815" y2="713.4185">
		<stop  offset="0" style="stop-color:#EA706C"/>
		<stop  offset="1" style="stop-color:#EC008C"/>
	</linearGradient>
	<path class="st6" d="M1430.64,384.29c0,13.74-7.79,35.87-24.96,70.85c-6.39,13.04-8.91,17.3-10.17,17.2
		c-1.26-0.1-1.59,0.48-1.37,2.41c0.16,1.39-0.15,2.81-0.71,3.15c-0.63,0.39-0.77-0.03-0.39-1.1c1.2-3.4-1.35,0.17-4.92,6.88
		c-9.51,17.9-18.88,33.8-20.22,34.32c-0.83,0.32-1.25,1.2-0.96,1.97c0.29,0.77,0.06,1.69-0.53,2.05c-0.64,0.4-0.79,0.22-0.38-0.45
		c0.38-0.61,0.33-1.09-0.09-1.07c-0.42,0.02-4.83,7.22-9.79,16.01c-17.62,31.22-34.36,58.42-54.23,88.12
		c-15.37,22.96-19.18,28.45-23.5,33.77c-1.64,2.02-3.43,4.44-3.98,5.39c-0.55,0.95-2.47,3.81-4.27,6.37
		c-2.62,3.71-2.81,4.26-0.97,2.73c1.26-1.05,3.81-3.62,5.66-5.7c1.85-2.09,4.8-5.31,6.56-7.17c2.93-3.08,3.04-3.13,1.29-0.51
		c-1.05,1.58-3.88,5.02-6.29,7.64c-2.41,2.63-4.38,5.21-4.4,5.74c-0.01,0.53-0.81,1.46-1.78,2.07c-0.97,0.61-2.5,2.65-3.4,4.55
		c-0.96,2.02-2.07,3.18-2.69,2.81c-0.59-0.36-0.78-0.21-0.43,0.35c1.59,2.57-20.23,19.81-32.32,25.53
		c-10.87,5.14-23.6,6.68-31.46,3.8h0c-5.62-2.06-9.46-5.39-17.9-15.55c-16.07-19.33-28.54-38.28-32.21-48.95
		c-1.85-5.36-1.73-11.4,0.22-11.4c0.6,0,3.27,1.46,5.92,3.25c3.41,2.3,6.47,5.72,10.44,11.7c5.74,8.64,14.46,20.27,16.22,21.64
		c2.03,1.58,10.23-0.08,17.01-3.43c14.39-7.11,31.79-22.67,49.91-44.63c8.24-9.98,11.85-13.99,10.58-11.7
		c-0.37,0.66-0.39,1.19-0.04,1.19c0.69,0,4.17-3.64,8.56-8.96c1.58-1.91,3.4-3.27,4.06-3.02c0.66,0.25,1.19,0.06,1.19-0.43
		c0-0.49,1.07-1.96,2.39-3.27c1.31-1.31,2.39-2.84,2.39-3.39s0.4-1,0.89-1c0.49,0,1.14-0.75,1.44-1.67c0.3-0.92,1.95-3.18,3.67-5.02
		c1.72-1.84,4.77-5.6,6.77-8.36c2-2.76,4.01-5.02,4.47-5.02c0.91,0,9.74-11.54,15.72-20.54c2.09-3.15,4.23-6.03,4.75-6.4
		c0.52-0.36,0.63-0.98,0.24-1.37c-0.39-0.39-1.97,0.24-3.52,1.38c-2.57,1.9-5.76,2.78-5.76,1.59c0-0.27,2.27-3.6,5.05-7.4
		c2.78-3.8,5.75-7.99,6.62-9.31c0.86-1.31,2.67-3.64,4.03-5.16c2.97-3.35,3.04-4.02,0.53-4.67c-1.22-0.32-2.95,0.35-4.68,1.8
		c-1.51,1.27-3.13,2.31-3.6,2.31c-0.47,0-3.42,2.19-6.55,4.86c-5.9,5.04-15.73,11.8-21.35,14.68c-4.3,2.21-13.47,5.25-15.93,5.28
		c-1.08,0.01-2.8,0.69-3.82,1.5c-1.71,1.37-1.48,1.43,3.16,0.87c5.35-0.65,5.82-0.42,3.61,1.79c-1.24,1.24-0.92,1.36,2.63,1
		l4.03-0.41l-3.11,1.63c-1.71,0.9-3.11,2.26-3.11,3.03c0,1.14,1.1,1.29,5.97,0.81c5.18-0.51,5.74-0.41,4.26,0.72
		c-2.88,2.2-15.37,4.69-20.44,4.08c-11.2-1.35-13.41-2.02-19.41-5.94c-12.41-8.09-17.31-12.84-21.7-21
		c-8.12-15.09-8.27-15.54-8.52-25.32l-0.23-9.08l1.28,7.64c1.84,10.98,3.36,15.7,5.4,16.79c0.98,0.53,1.79,1.52,1.79,2.21
		c0,1.28,2.96,4.41,4.17,4.41c0.94,0-1.15-3.87-3.47-6.42c-1.15-1.26-2.63-5.39-3.66-10.24c-3.13-14.71-0.17-34.31,9.58-63.51
		c7.17-21.46,12.21-31.52,28.01-55.79c3.69-5.67,6.47-10.54,6.18-10.83c-0.29-0.29-0.99,0.34-1.55,1.39
		c-0.56,1.05-1.59,2.49-2.29,3.19c-1.6,1.61-7.93,10.58-14.21,20.14c-2.67,4.07-5.06,7.4-5.3,7.4c-1.9,0,14.53-24.71,26.05-39.18
		c16.53-20.77,44.68-47.66,58.74-56.12c1.84-1.11,5.65-2.92,8.46-4.02c4.96-1.95,5.28-1.96,10.99-0.4c6.8,1.86,14.96,5.7,14.96,7.03
		c0,0.51,1.63,1.75,3.61,2.76c3.56,1.82,6.82,7.29,6.14,10.33c-0.16,0.7,0.52,1.59,1.5,1.98c0.98,0.39,3.05,1.69,4.58,2.9
		c4.01,3.14,12.02,8.32,14.26,9.21c1.28,0.51,1.5,0.91,0.68,1.22c-0.95,0.35-0.98,0.77-0.12,1.8c0.61,0.74,1.61,1.34,2.22,1.34
		c1.67,0,6.43,5.82,6.11,7.47c-0.43,2.19-2.43,2.43-3.09,0.36c-0.43-1.34-1.21-1.71-2.95-1.37c-1.3,0.25-2.4,0.73-2.44,1.06
		c-0.04,0.33-0.47,4.05-0.95,8.25c-0.49,4.2-0.89,8.67-0.89,9.92v2.28l-1.91-2.43c-1.05-1.34-1.91-2.92-1.91-3.53
		c0-0.61-0.38-0.87-0.84-0.58c-0.46,0.29-1.41-0.85-2.1-2.52c-1.63-3.92-5.71-7.59-12.58-11.29c-3.02-1.63-5.49-3.6-5.49-4.37
		c0-2.49-3.81-8.98-5.28-8.98c-0.78,0-1.41-0.43-1.41-0.96c0-1.86-2.26-0.9-9.99,4.24c-7.93,5.27-16.99,13.55-26.22,23.94
		c-2.8,3.15-7.95,8.74-11.43,12.42c-15.28,16.12-31.98,41.02-43.45,64.78c-7.85,16.25-15.11,43.96-16.45,62.79
		c-0.61,8.54-0.52,9.19,1.43,10.95c1.72,1.55,2.22,1.64,2.91,0.53c0.57-0.93,0.92-0.18,1.14,2.43c0.26,3.17,0.65,3.77,2.44,3.77
		c2.53,0,2.99,1.6,0.69,2.41c-1.51,0.53-1.5,0.69,0.11,2.3c1.47,1.47,2.88,1.66,9.43,1.26c9.79-0.59,18.88-3.74,30.9-10.68
		c16.76-9.68,22.72-15.02,37.38-33.44c4.36-5.48,8.5-10.19,9.19-10.45c3.7-1.42,34.86-55.94,34.86-61c0-0.76,0.69-3.41,1.54-5.9
		c0.85-2.49,1.35-4.72,1.1-4.96c-0.24-0.24-2.55,3.25-5.12,7.76c-2.58,4.51-5.33,9.19-6.12,10.41c-0.79,1.22-3.35,5.49-5.69,9.49
		c-2.59,4.44-4.6,6.93-5.13,6.39c-0.54-0.54,0.42-3.05,2.46-6.45c11.16-18.62,36.25-68.31,43.26-85.64c1.89-4.69,3.05-6.41,4.17-6.2
		c0.88,0.17,1.68,1.43,1.85,2.91c0.17,1.44,0.84,2.62,1.49,2.62c2.1,0,8.49,6.78,11.03,11.7c0.75,1.44,1.7,2.63,2.13,2.63
		C1428.51,374.27,1430.63,380.04,1430.64,384.29z M1211.81,680.74c0-0.41-1.2-0.13-2.66,0.63c-1.46,0.76-4.26,1.67-6.21,2.04
		c-1.95,0.36-3.55,1.03-3.55,1.48c0,0.45-0.71,0.54-1.59,0.21c-1.07-0.41-1.36-0.24-0.9,0.51c0.84,1.35,4.13,0.69,10.37-2.1
		C1209.77,682.4,1211.81,681.15,1211.81,680.74z M1322.44,579.56c-0.21-0.64-1.97,0.96-3.9,3.55c-1.93,2.59-3.87,5.16-4.32,5.7
		c-0.44,0.54-1.63,2.26-2.63,3.82c-6.63,10.32-23.43,32.41-30.98,40.75c-2.89,3.19-5.98,6.89-6.86,8.23
		c-2.95,4.47-26.86,29.01-34.69,35.6c-4.26,3.58-11.13,8.81-15.27,11.61c-10.85,7.34-10.64,9.83,0.44,5.24
		c10.05-4.17,13.38-5.79,13.38-6.56c0-0.43,0.54-0.78,1.19-0.8c3.46-0.08,25.58-21.08,33.7-31.98c1.56-2.1,3.07-4.04,3.34-4.3
		c0.89-0.85,5.2-6.27,7.16-9c1.05-1.46,3.23-4.45,4.85-6.63c4.06-5.47,15.69-22.5,15.69-22.97c0-0.21,2.34-3.83,5.19-8.05
		c2.86-4.22,6.77-10.6,8.7-14.19c1.93-3.59,3.94-7.05,4.46-7.69C1322.41,581.25,1322.66,580.21,1322.44,579.56z M1216.66,485.51
		c0.05-1.11,0.27-1.34,0.58-0.58c0.28,0.69,0.24,1.51-0.08,1.83C1216.85,487.08,1216.62,486.52,1216.66,485.51z M1223.3,450.24
		c0-0.53,0.42-1.6,0.93-2.39s0.93-1,0.93-0.48c0,0.53-0.42,1.6-0.93,2.39C1223.72,450.55,1223.3,450.76,1223.3,450.24z
		 M1237.13,545.31c-4.47-4.54-7.15-6.02-3.8-2.09c4.82,5.65,7.3,7.99,7.85,7.44C1241.52,550.32,1239.69,547.92,1237.13,545.31z
		 M1264.42,677.18c-0.56,0-1.01,0.43-1.01,0.96c0,0.52,0.19,0.96,0.42,0.96c0.23,0,0.69-0.43,1.01-0.96
		C1265.17,677.61,1264.98,677.18,1264.42,677.18z M1290.16,558.69c0.79-0.51,1.86-0.93,2.39-0.93c0.52,0,0.31,0.42-0.48,0.93
		c-0.79,0.51-1.86,0.93-2.39,0.93C1289.16,559.62,1289.38,559.2,1290.16,558.69z M1359.65,453.94c0.26,0.26-0.89,2.87-2.56,5.79
		c-2.83,4.94-3.85,6.2-3.85,4.71C1353.23,463.23,1359.18,453.48,1359.65,453.94z M1393.32,399.21c-1.1,2.15-1.77,4.52-1.48,5.26
		c0.28,0.74,0.1,1.34-0.41,1.34c-0.51,0-0.91,1.18-0.89,2.63c0.03,2.53,0.08,2.56,1.45,0.75c0.78-1.04,1.8-3.4,2.26-5.26
		C1396.73,393.93,1396.53,392.91,1393.32,399.21z M1408.23,383.3c-0.75-1.14-1.5-3.72-1.67-5.72c-0.46-5.48-2.44-5.26-2.84,0.32
		c-0.27,3.7-0.03,4.66,1.1,4.59c1.55-0.1,1.7,1.87,0.5,6.59l-0.73,2.87l2.49-3.28C1409.36,385.69,1409.46,385.18,1408.23,383.3z"/>
	<linearGradient id="SVGID_7_" gradientUnits="userSpaceOnUse" x1="1955.3171" y1="47.1686" x2="1955.3171" y2="716.8014">
		<stop  offset="0" style="stop-color:#EA706C"/>
		<stop  offset="1" style="stop-color:#EC008C"/>
	</linearGradient>
	<path class="st7" d="M1628.51,345.68c-2.48,6.95-2.72,8.75-2.81,21.68c-0.1,13.73-0.8,18.22-1.98,12.66
		c-0.32-1.51-1.38-6.02-2.35-10.03c-1.58-6.52-1.64-8.04-0.52-14.48c1.19-6.84,7.57-23.18,10.57-27.06c0.77-1,2.73-3.86,4.35-6.35
		c1.62-2.5,3.34-4.54,3.81-4.54c1.03,0,8.16-7.2,10.2-10.3c0.79-1.2,1.66-1.95,1.94-1.68c0.28,0.28-0.15,1.26-0.95,2.18
		c-2.74,3.16-12.42,17.83-15.2,23.04c-1.53,2.87-3.13,5.68-3.57,6.26C1631.57,337.63,1630,341.51,1628.51,345.68z M2290.22,91.63
		c-2.75,17.09-6.96,23.24-27.23,39.82c-10.36,8.47-38.47,25.21-55.9,33.29c-20.92,9.7-30.26,13.3-46.67,18
		c-18.69,5.35-24.41,5.16-26.92-0.88c-0.98-2.37-1.01-3.46-0.14-4.86c0.96-1.54,0.85-1.8-0.79-1.8c-1.06,0-1.92-0.38-1.92-0.85
		c0-1.43,3.96-3.55,11.47-6.13c3.94-1.36,10.17-3.59,13.85-4.95c3.68-1.37,8.41-3.06,10.51-3.77c13.76-4.63,43.19-18.41,57.3-26.83
		c10.88-6.49,14.34-10.03,4.33-4.42c-10.14,5.68-38.97,19.76-43.23,21.11c-1.96,0.62-3.82,1.53-4.12,2.02
		c-0.3,0.49-1.27,0.89-2.16,0.89c-0.89,0-2.91,0.69-4.48,1.53c-1.58,0.84-4.59,2.1-6.69,2.8c-8.82,2.95-14.65,5.09-16.34,5.99
		c-1,0.53-5.47,2.34-9.93,4.03c-4.47,1.69-8.66,3.28-9.32,3.54c-0.66,0.25-1.19-0.15-1.19-0.89c0-3.11,3.47-5.03,24.84-13.76
		c24.55-10.03,31.1-12.74,36.59-15.11c7.08-3.07,45.44-22.36,48.12-24.2c1.5-1.03,6.17-4.07,10.37-6.76
		c4.21-2.69,10.18-7.45,13.27-10.57c3.25-3.29,6.17-5.48,6.93-5.19c0.72,0.28,1.3-0.1,1.3-0.83c0-4.34-24.81-11.41-45.88-13.08
		c-23.07-1.82-43.03-1.07-62.41,2.34c-46.05,8.1-74.39,15.17-114.93,28.67c-30.87,10.28-55.72,20.31-94.98,38.38
		c-3.42,1.57-8.36,3.83-10.99,5.02c-19.64,8.88-64.17,31.86-73.1,37.73c-1.84,1.21-5.15,3.21-7.36,4.45
		c-13.03,7.31-23.86,13.75-24.96,14.85c-0.69,0.69-2.31,1.52-3.58,1.84c-1.28,0.32-2.32,0.9-2.32,1.28c0,0.38-1.1,1.2-2.45,1.81
		c-1.35,0.61-12.77,8-25.37,16.41c-27.82,18.55-28.83,19.26-29.79,20.77c-0.42,0.66-1.21,1.19-1.74,1.19
		c-0.95,0-6.41,3.91-27.13,19.44c-10.46,7.84-15.96,9.99-6.5,2.54c8.43-6.64,26.33-20.12,32.36-24.36c2.99-2.1,8.19-5.86,11.57-8.36
		c3.38-2.5,6.55-4.54,7.06-4.54c0.5,0,0.91-0.43,0.91-0.96c0-1.4-0.81-1.19-3.92,1.02c-1.53,1.09-2.78,1.62-2.79,1.19
		c-0.01-0.43-0.33-0.33-0.72,0.22c-0.91,1.3-10.48,7.12-11.71,7.12c-0.52,0-0.94,0.38-0.94,0.84c0,0.82-3.09,2.18-5.46,2.41
		c-0.64,0.06-1.69,0.64-2.34,1.3c-0.65,0.65-1.96,1.18-2.9,1.18c-0.94,0-2.54,0.82-3.54,1.82c-1,1-2.72,2.1-3.82,2.45
		c-1.1,0.35-2.01,1.01-2.01,1.46c0,0.45-0.87,1.1-1.92,1.44c-1.06,0.34-1.7,0.97-1.43,1.41c0.27,0.44-0.38,0.57-1.44,0.29
		c-1.75-0.46-1.6-0.81,1.67-3.69c1.98-1.75,3.95-3.2,4.36-3.23c0.42-0.02,1.71-0.95,2.87-2.07c1.16-1.12,5.23-4.36,9.04-7.2
		c3.81-2.85,6.93-5.35,6.93-5.56c0-1.56-32.44,20.75-39.17,26.94c-1.31,1.2-2.68,2.19-3.04,2.19c-0.36,0-1.23,0.54-1.92,1.21
		c-0.69,0.66-5.35,4.81-10.34,9.22c-9,7.94-23.89,22.51-23.89,23.37c0,0.25-1.18,1.68-2.63,3.18c-7.66,7.98-9.28,11.99-2.01,4.98
		c2.29-2.21,8.25-7.68,13.24-12.16c4.99-4.48,9.98-9.04,11.09-10.14c3.38-3.34,7.51-6.75,8.02-6.61c0.26,0.07,1.03-0.47,1.71-1.21
		c0.68-0.74,0.94-1.34,0.59-1.34c-0.35,0,1.62-1.83,4.39-4.06c2.77-2.23,6.45-5.35,8.19-6.93c4.57-4.15,5.45-4.8,7.58-5.55
		c1.35-0.48,1.02,0.14-1.12,2.11c-1.67,1.54-2.74,3.08-2.39,3.43c0.35,0.35,0.21,0.5-0.32,0.33c-1.25-0.41-5.42,2.54-4.66,3.3
		c0.32,0.32-0.54,0.87-1.92,1.21c-1.38,0.35-2.5,1.23-2.5,1.96c0,0.73-0.42,1.33-0.92,1.33s-2.18,1.18-3.71,2.63
		c-1.53,1.45-5.28,4.78-8.33,7.4c-17.95,15.48-51.07,51.8-51.07,56.01c0,1.14,6.02-4.82,7.46-7.39c0.7-1.25,13.2-14.15,23.02-23.75
		c6.6-6.45,8.02-6.06,1.74,0.48c-15.08,15.7-32.94,36.98-40.49,48.22c-4.3,6.41-12.74,21.74-12.74,23.15c0,0.5,3.46,2.54,7.69,4.52
		c6.29,2.95,10.29,4.01,22.03,5.85c13.63,2.13,37.9,4.34,62.01,5.64c24.23,1.31,54.06,5.35,74.53,10.09
		c52.29,12.11,98.24,25.21,93.97,26.79c-1.05,0.39-2.96-0.07-4.74-1.15c-1.64-0.99-4.22-1.77-5.73-1.74
		c-2.35,0.06-2.47,0.17-0.84,0.82c4.25,1.68,8.85,3.2,13.38,4.41c2.63,0.7,6.67,1.97,8.98,2.81c2.31,0.84,4.88,1.4,5.72,1.24
		c0.84-0.16,2.28,0.47,3.2,1.39c0.92,0.93,2.91,1.68,4.4,1.68c1.5,0,3.49,0.85,4.45,1.91c0.95,1.05,2.32,1.91,3.05,1.91
		c0.73,0,2.48,0.72,3.91,1.59c20.66,12.67,32.61,25.3,42.89,45.31l3.72,7.25l7.15-3.96c13.22-7.31,48.39-22.48,52.11-22.48
		c2.69,0,3.35,0.32,2.92,1.43c-0.32,0.84-0.01,1.43,0.74,1.43c0.71,0,1.92,0.96,2.71,2.14c1.16,1.74,1.68,1.92,2.83,0.97
		c1.85-1.53,9.52-4.22,10.17-3.57c0.28,0.28-0.43,1.17-1.58,1.98c-2.42,1.69-2.74,3.27-0.66,3.27c2.54,0,1.54,1.5-2.53,3.78
		c-2.18,1.22-4.79,3.05-5.79,4.06c-2.83,2.83-20.71,11.25-22.47,10.58c-1.11-0.42-1.32-0.23-0.75,0.68c0.52,0.84,0.41,1.04-0.3,0.6
		c-0.6-0.37-7.19,2.58-14.66,6.54c-7.47,3.97-14.05,7.21-14.62,7.21s-1.99,0.67-3.16,1.49c-1.17,0.82-2.12,1.1-2.12,0.63
		s1.07-1.35,2.39-1.94c1.31-0.6,2.38-1.63,2.37-2.3c-0.01-0.75-0.28-0.85-0.72-0.26c-0.39,0.53-1.14,1.03-1.67,1.12
		c-0.54,0.09-2.15,0.46-3.58,0.82c-1.57,0.39-2.61,0.27-2.61-0.32c0-1.02,16.12-10.31,28.86-16.63c7.11-3.53,9.77-5.53,7.36-5.53
		c-1.14,0-2.95,0.8-20.93,9.32c-4.99,2.36-10.95,5.11-13.25,6.1c-3.81,1.65-4.12,2.03-3.54,4.42c0.35,1.44,1.02,4.55,1.49,6.92
		c0.47,2.37,1.31,5.8,1.86,7.64c1.51,5.02,1.23,22.26-0.47,28.81c-2.89,11.15-11.47,26.11-22.1,38.56
		c-4.25,4.97-4.65,5.47-11.12,13.5c-13.87,17.25-57.45,55.71-78.61,69.38c-24.83,16.03-39,23.12-61.02,30.5
		c-15.28,5.12-24.88,6.49-32.35,4.6c-1.99-0.5-4.87-1.56-6.41-2.36c-10.44-5.4-14.47-38.53-5.9-48.52c0.8-0.93,1.49-2.69,1.55-3.9
		c0.23-5.33,17.19-26.56,22.02-27.57c1.06-0.22,1.77-1.01,1.59-1.77c-0.17-0.76,0-1.06,0.39-0.66c0.39,0.39,4.62-3.13,9.4-7.82
		c12.3-12.09,51.4-44.7,65.54-54.67c9.37-6.6,22.01-15.15,22.4-15.15c0.19,0,5.44-3.15,11.67-7.01c10.52-6.51,27.47-16.2,44.1-25.21
		l6.98-3.78l-4.39-3.6c-17.01-13.94-39.58-24.77-91.65-44.01c-29.57-10.92-70.96-22.06-103.29-27.8c-7.36-1.3-18.54-3.43-24.84-4.72
		c-6.31-1.29-21.79-4.08-34.4-6.2c-12.61-2.12-26.14-4.73-30.06-5.8c-9.97-2.72-19.01-7.75-26.3-14.62
		c-3.43-3.23-6.23-5.75-6.23-5.6c0,0.15,0.62,1.77,1.38,3.59c1.86,4.45,0.46,4.18-3.78-0.75c-4.69-5.44-9-14.12-9.48-19.11
		c-1.92-19.85-1.3-31.85,1.9-36.76c0.76-1.16,1.39-2.67,1.41-3.34c0.09-3.87,13.39-25.21,25.19-40.43
		c8.95-11.54,9.63-13.89,1.79-6.19c-1.93,1.9-2.23,2-1.43,0.48c0.55-1.05,2.32-3.2,3.93-4.78c1.61-1.58,2.94-3.14,2.96-3.47
		c0.04-0.88,12.94-13.67,21.07-20.9c3.85-3.42,7.46-6.65,8.02-7.19c6.87-6.56,38.24-30.81,51.68-39.94c3.68-2.5,9.7-6.7,13.38-9.34
		c3.68-2.63,8.84-6.28,11.47-8.11c2.63-1.83,7.37-5.14,10.53-7.35c6.53-4.57,32.49-21.69,35.09-23.14
		c4.28-2.39,30.4-18.34,35.15-21.47c2.91-1.92,6.07-3.79,7.03-4.16c1.35-0.52,1.5-0.96,0.66-1.98c-0.84-1.01-0.73-1.45,0.49-1.92
		c0.87-0.33,2.1-0.18,2.73,0.35c0.79,0.65,1.73,0.52,2.98-0.43c1.8-1.36,1.8-1.39-0.08-1.45c-1.85-0.06-1.86-0.1-0.12-1.42
		c1.04-0.79,3.04-1.17,4.78-0.91c1.64,0.24,2.45,0.18,1.79-0.13c-0.66-0.31-1.19-0.91-1.19-1.33c0-0.99,31.38-16.54,54.23-26.86
		c2.23-1.01,5.89-2.66,8.12-3.66c4.19-1.89,21.44-9.2,29.86-12.65c2.63-1.08,6.07-2.55,7.64-3.26c2.64-1.2,4.45-1.88,13.85-5.21
		c1.84-0.65,4.16-1.6,5.16-2.11c1-0.51,4.01-1.69,6.69-2.63c2.68-0.94,6.38-2.23,8.22-2.88c1.84-0.64,5.07-1.98,7.17-2.98
		c2.1-1,5-1.81,6.45-1.81c1.44,0,2.63-0.38,2.63-0.85c0-1.06,0.89-1.42,13.86-5.49c15.98-5.02,24.82-7.54,35.83-10.2
		c46-11.12,79.87-15.86,113.71-15.91c21.25-0.03,34.21,1.19,51.6,4.86c21.95,4.64,31.75,8.6,39.42,15.95
		c1.97,1.89,3.59,2.92,3.59,2.29c0-0.63,0.64-1.15,1.43-1.15c1.68,0,1.86,1.11,0.39,2.57c-0.75,0.75-0.75,1.22,0,1.68
		c0.59,0.36,1.04-0.04,1.04-0.93c0-2.11,2.3-1.24,2.74,1.03c0.19,1,0.88,2.25,1.52,2.79c0.64,0.54,2.06,3.13,3.14,5.76
		C2290.62,85.9,2290.85,87.7,2290.22,91.63z M1653.43,376.05c-0.74,1.73-1.73,4.64-2.19,6.48c-0.67,2.69-0.97,3-1.51,1.59
		c-0.43-1.12,0.36-3.88,2.19-7.63C1654.81,370.57,1655.94,370.24,1653.43,376.05z M1660.85,395.67c2.25,3.65,29.51,7.31,73.73,9.91
		c10.51,0.62,22.77,1.42,27.23,1.79c4.47,0.37,10.27,0.69,12.9,0.73c4.57,0.06,4.44-0.01-2.87-1.63
		c-4.58-1.02-20.27-2.53-39.18-3.79c-17.34-1.15-36.48-2.77-42.52-3.58c-6.04-0.81-14.32-1.83-18.39-2.27
		c-4.07-0.43-8.32-1.08-9.44-1.43C1661.1,395.01,1660.51,395.13,1660.85,395.67z M1664.39,345.27c-0.56,0-1.01,0.43-1.01,0.96
		c0,0.52,0.19,0.96,0.42,0.96c0.23,0,0.69-0.43,1.01-0.96C1665.14,345.7,1664.95,345.27,1664.39,345.27z M1726.92,287.95
		c-0.56,0.91-2.38,1.34-2.38,0.57c0-0.21,0.67-0.63,1.48-0.94C1726.87,287.24,1727.26,287.41,1726.92,287.95z M1732.18,283.13
		c0,0.51-0.97,1.43-2.15,2.05c-2.14,1.12-2.14,1.12-0.33-0.92C1731.73,281.98,1732.18,281.77,1732.18,283.13z M1732.6,226.27
		c2.43-1.84,3.95-1.81,2.11,0.03c-0.79,0.79-2,1.42-2.7,1.4C1731.22,227.69,1731.44,227.15,1732.6,226.27z M1746.44,435.69
		c-0.22-0.2-2.98-0.6-6.13-0.89c-3.77-0.35-4.75-0.27-2.87,0.25C1740.39,435.84,1747.15,436.33,1746.44,435.69z M1746.24,218.36
		c-8.53,5.81-9.28,6.22-9.28,5.13c0-0.48,19.48-14.66,31.05-22.6c8.95-6.15,28.03-18.05,28.97-18.08c0.36-0.01,1.73-0.86,3.04-1.89
		c1.31-1.03,2.93-1.88,3.58-1.89c1.97-0.03,1.35,1.87-0.96,2.89c-1.18,0.52-4.09,2.23-6.45,3.78c-2.36,1.56-5.37,3.37-6.69,4.02
		c-1.31,0.65-2.61,1.49-2.88,1.86c-0.88,1.19-30.97,21.05-33.19,21.91c-1.18,0.45-2.15,1.27-2.15,1.81c0,0.54-0.45,0.98-0.99,0.98
		S1747.93,217.21,1746.24,218.36L1746.24,218.36z M1748.19,276.35c1.51-1.19,1.55-1.15,0.36,0.36c-1.25,1.59-2.03,2.1-2.03,1.31
		C1746.52,277.82,1747.27,277.07,1748.19,276.35z M1761.8,437.97c-1.84-0.41-5.71-1-8.6-1.3l-5.26-0.55l3.82,1.29
		c2.1,0.71,5.97,1.29,8.6,1.3C1764.88,438.72,1764.96,438.68,1761.8,437.97z M1829.31,186.65c0.2,0,3.48-1.87,7.28-4.16
		c3.8-2.29,8.85-5.25,11.21-6.58c2.37-1.33,9.41-5.29,15.66-8.81c6.25-3.52,12.27-6.81,13.38-7.31c1.11-0.5,4.33-2.19,7.15-3.75
		c17.42-9.64,39.95-21.18,51.29-26.26c6.01-2.69,51.83-22.21,62.79-26.75c10.46-4.33,6.7-3.76-5.61,0.86
		c-44.96,16.84-92.85,38.89-132.4,60.94c-8.32,4.64-15.87,8.84-16.79,9.34c-12.79,6.97-37.66,22.73-51.36,32.56
		c-6.31,4.53-17.81,12.67-25.56,18.1c-7.75,5.43-14.09,10.03-14.09,10.21c0,0.66,0.92,0.33,4.51-1.61c1.99-1.07,6.84-4.27,10.78-7.1
		C1785.99,213.08,1827.13,186.65,1829.31,186.65z M1765.15,236.37c-0.53,0-1.6,0.42-2.39,0.93c-0.79,0.51-1,0.93-0.48,0.93
		c0.52,0,1.6-0.42,2.39-0.93C1765.46,236.78,1765.67,236.37,1765.15,236.37z M1768.97,233.44c-1.05,0.77-2.09,1.52-2.31,1.67
		c-0.22,0.15,0.05,0.27,0.6,0.27c0.55,0,1.59-0.75,2.31-1.67C1770.78,232.16,1770.74,232.14,1768.97,233.44z M1776.07,236.48
		c-0.6-0.2-2.01,0.6-3.14,1.79l-2.05,2.15l3.14-1.79C1775.75,237.64,1776.67,236.68,1776.07,236.48z M1846.85,185.77
		c0-0.37-4.3,1.4-9.56,3.92c-5.26,2.53-10.16,4.59-10.89,4.59c-0.73,0-1.56,0.6-1.85,1.34c-0.28,0.74-1.78,1.62-3.32,1.96
		c-1.54,0.34-3.61,1.37-4.6,2.29c-2.67,2.48-16.38,11.61-17.45,11.61c-0.5,0-1.06,0.38-1.24,0.83c-0.32,0.85-2.9,2.73-16.81,12.23
		c-4.34,2.96-8.37,5.97-8.96,6.68c-1.71,2.07,1.37,1.61,4.21-0.63c1.34-1.05,2.71-1.91,3.05-1.91c0.34,0,3.08-1.61,6.08-3.58
		c3.01-1.97,6.31-4.09,7.35-4.71C1804.03,213.76,1846.85,186.28,1846.85,185.77z M1873.6,582.63c-7.46,5.57-7.57,5.69-6.12,7.05
		c0.78,0.73,1.45,0.81,1.82,0.21c0.32-0.52,0.02-0.96-0.67-0.98c-0.76-0.02-0.52-0.59,0.63-1.45c1.04-0.78,2.39-1.23,3.01-0.99
		c0.62,0.24,1.36-0.44,1.64-1.51c0.28-1.07,0.93-1.68,1.45-1.36c0.52,0.32,2.22-0.5,3.79-1.81c1.57-1.32,3.22-2.4,3.66-2.41
		c0.45-0.01,1.74-0.99,2.87-2.18c3.07-3.24,23.05-17.29,37.13-26.11c12.95-8.11,34.75-19.92,35.46-19.21
		c0.23,0.23-2.64,2.3-6.37,4.61c-3.73,2.31-9.37,5.85-12.54,7.87c-3.17,2.02-7.22,4.28-9.01,5.03c-1.79,0.75-3.25,1.78-3.25,2.3
		c0,0.52-0.58,0.94-1.3,0.94c-0.71,0-3.24,1.49-5.62,3.3c-2.38,1.82-4.59,3.03-4.92,2.71c-0.33-0.33-0.59-0.07-0.59,0.58
		c0,0.64-0.38,0.93-0.86,0.64c-0.47-0.29-1.1,0.11-1.4,0.9c-0.3,0.79-1.17,1.43-1.93,1.43c-0.76,0-1.53,0.37-1.7,0.83
		c-0.17,0.46-2.84,2.5-5.93,4.54c-11.98,7.92-16.1,10.98-15.53,11.55c0.26,0.26,1.04-0.01,1.73-0.6c0.69-0.59,4.7-3.15,8.9-5.68
		c9.07-5.46,19.79-12.17,27.71-17.35c5.42-3.54,8.29-5.21,15.51-8.99c1.7-0.89,3.32-1.99,3.59-2.44c0.28-0.45,1.79-1.1,3.36-1.45
		s3.21-1.28,3.66-2.07s1.09-1.42,1.43-1.38c1.25,0.12,3.88-1.22,8.55-4.37c2.63-1.77,4.98-3.02,5.22-2.78
		c0.71,0.71-3.13,4.4-6.39,6.13c-1.66,0.88-8.7,4.55-15.63,8.15c-14.93,7.76-43.41,26.31-40.51,26.39
		c0.42,0.01,5.28-2.58,10.78-5.76c8.3-4.79,20.22-10.72,18.53-9.22c-0.25,0.22-12.71,8.64-27.69,18.71
		c-38.93,26.16-65.93,46.22-79.79,59.28c-2.63,2.48-7.27,6.75-10.32,9.5c-15.2,13.69-35.67,41-32.3,43.08
		c1.13,0.7,11.84-1.44,20.17-4.02c2.37-0.73,5.9-2.05,7.85-2.92c1.95-0.87,4.21-1.59,5.02-1.59c0.81,0,1.46-0.38,1.46-0.85
		s1.61-1.56,3.58-2.41c1.97-0.86,5.52-2.83,7.88-4.39c2.37-1.55,4.94-3.12,5.73-3.49c0.79-0.36,1.65-0.93,1.91-1.25
		c0.26-0.32,3.92-2.9,8.12-5.74c4.2-2.83,9.79-6.66,12.42-8.49c4.67-3.27,37.45-29.53,40.6-32.54c0.88-0.84,4.09-3.67,7.15-6.3
		c3.05-2.63,7.1-6.15,9-7.83c6.58-5.82,8.05-6.98,8.85-6.98c0.45,0,0.81-0.59,0.81-1.32s0.97-1.96,2.15-2.74
		c2.3-1.52,15.55-14.47,20.34-19.88c9.86-11.13,25.39-38.79,23.92-42.61c-0.3-0.77-0.93-1.16-1.41-0.86
		c-0.48,0.3-0.65-0.31-0.38-1.34c0.27-1.03-0.16-2.53-0.96-3.33c-0.8-0.8-1.65-2-1.89-2.66
		C1964.75,521.17,1909.73,555.66,1873.6,582.63z M1853.85,688.65c-2.72,1.37-6.59,3.08-8.6,3.81s-4.51,1.65-5.56,2.05
		c-1.05,0.4,0.44-0.83,3.31-2.74c2.87-1.9,5.63-3.46,6.13-3.46s0.68-0.23,0.39-0.52c-0.29-0.29-5.84,2.03-12.34,5.16
		c-12.29,5.9-30.42,12.72-38.45,14.47c-2.56,0.56-6.75,0.77-9.32,0.48c-4.78-0.55-6.12,0.49-2.99,2.31
		c2.93,1.7,15.51,1.15,21.26-0.94c2.89-1.05,7.19-2.5,9.56-3.22c10.41-3.19,26.42-10.22,34.88-15.31
		C1859.3,686.4,1860.01,685.56,1853.85,688.65z M1785.69,695.95c0.52,0,0.96-0.19,0.96-0.42c0-0.23-0.43-0.69-0.96-1.01
		c-0.53-0.33-0.96-0.14-0.96,0.42C1784.74,695.5,1785.17,695.95,1785.69,695.95z M1797.69,232.15c-1.65,0.64-1.96,1.32-0.58,1.32
		c0.5,0,1.16-0.42,1.48-0.94C1798.92,231.98,1798.54,231.82,1797.69,232.15z M1808.63,695.55c10.73-3.03,14.58-4.47,23.55-8.81
		c21.1-10.23,48.48-29.41,70.57-49.45c4.2-3.81,9.15-8.26,10.99-9.89c1.84-1.63,3.12-3.17,2.86-3.44c-0.27-0.27-5,3.19-10.51,7.68
		c-20.22,16.47-46.66,35.54-63.53,45.81c-14.82,9.02-21.84,12.4-35.35,17.03C1795.21,698.59,1795.93,699.13,1808.63,695.55z
		 M1807.67,178.48l-2.39,0.64l2.39-1.95c2.83-2.31,6.13-2.89,3.79-0.66C1810.69,177.25,1808.98,178.13,1807.67,178.48z
		 M1807.19,689.24c0.52,0,1.6-0.42,2.39-0.93s1-0.93,0.48-0.93c-0.53,0-1.6,0.42-2.39,0.93
		C1806.88,688.82,1806.67,689.24,1807.19,689.24z M1890.18,632.89c-0.7,0-2.42,1.28-3.81,2.84c-1.39,1.56-2.9,2.61-3.35,2.33
		c-0.45-0.28-0.82-0.1-0.82,0.39c0,0.49-2.47,2.78-5.5,5.07c-3.02,2.3-5.98,4.61-6.57,5.13c-0.59,0.52-2.06,1.6-3.26,2.39
		c-1.2,0.79-2.89,2.11-3.76,2.92c-1.3,1.23-14.27,10.25-19.85,13.8c-7.53,4.79-14.27,9.19-15.06,9.83
		c-0.95,0.77-1.99,1.33-11.7,6.32c-2.76,1.42-5.02,2.77-5.02,3c0,1.17,3.3,0.05,11.12-3.75c23.81-11.59,56.39-35.13,88.46-63.92
		c3.62-3.25,6.89-6.13,7.25-6.41c0.37-0.28,1.31-1.34,2.1-2.36c0.79-1.02-1.15,0.2-4.3,2.71c-16.84,13.4-20.52,15.99-21.74,15.29
		c-0.66-0.38-0.87-0.33-0.47,0.1C1894.8,629.58,1891.93,632.89,1890.18,632.89z M1815.74,172.76c2.41-1.83,3.97-1.81,2.45,0.03
		c-0.65,0.79-1.89,1.42-2.74,1.4C1814.13,174.17,1814.18,173.94,1815.74,172.76z M1822.96,169.85l-2.39,0.64l2.39-1.4
		c1.31-0.77,2.57-1.21,2.79-1C1826.34,168.69,1825.62,169.14,1822.96,169.85z M1828.21,166.55c-0.52,0-0.31-0.42,0.48-0.93
		c0.79-0.51,1.86-0.93,2.39-0.93c0.53,0,0.31,0.42-0.48,0.93C1829.82,166.14,1828.74,166.55,1828.21,166.55z M1842.64,183.08
		c-0.25-0.26-1.67,0.38-3.15,1.42c-1.47,1.03-3.33,2.12-4.12,2.42c-0.79,0.29-0.92,0.57-0.29,0.61s2.69-0.84,4.58-1.95
		C1841.56,184.46,1842.9,183.34,1842.64,183.08z M2009.87,103.78c-0.38-0.38-15.48,5.12-30.5,11.13
		c-21.23,8.48-55.69,24.28-80.45,36.87c-13.14,6.68-25.61,13.02-27.71,14.07c-2.1,1.05-4.47,2.46-5.26,3.14
		c-0.79,0.67-3.8,2.51-6.69,4.07c-2.89,1.57-6.74,3.65-8.56,4.64c-3.42,1.85-5.78,3.7-5.78,4.51c0,0.26,5.7-2.77,12.66-6.73
		c6.96-3.96,16.96-9.47,22.22-12.24c22.05-11.63,36.41-18.67,53.99-26.46c17.85-7.91,26.38-11.58,60.87-26.16
		C2003.19,107.01,2010.03,103.93,2009.87,103.78z M1849.71,619.42l-3.34,2.16l2.87-2.46c1.58-1.35,3.26-2.46,3.74-2.47
		C1854.02,616.64,1854.01,616.65,1849.71,619.42z M1852.15,685.08c-1.65,0.64-1.96,1.32-0.58,1.32c0.49,0,1.16-0.43,1.48-0.94
		C1853.39,684.91,1853,684.75,1852.15,685.08z M1866.92,607.37c0,0.59-11.17,8.32-12.02,8.32c-0.4,0-0.54-0.15-0.33-0.34
		C1856.94,613.3,1866.91,606.86,1866.92,607.37z M1858.59,682.04c0.94-0.36,1.47-0.89,1.18-1.19c-0.29-0.29-1.07,0-1.71,0.65
		C1857.12,682.45,1857.23,682.56,1858.59,682.04z M1945.32,619.51c-25.65,25.46-53.58,49.69-57.27,49.69
		c-2.04,0-21.14,12.74-21.14,14.1c0,0.81-0.65,1.13-1.67,0.82c-0.92-0.28-2.71,0.07-3.98,0.77l-2.31,1.27l2.79,0.03
		c1.53,0.01,4.9-1.31,7.47-2.94c5.28-3.35,8.88-5.36,14.43-8.09c9.62-4.72,32.71-23.4,58.75-47.52
		c13.14-12.17,26.21-26.29,24.35-26.29c-0.37,0,0.81-1.83,2.62-4.06c11.89-14.65,23.73-35.82,23.67-42.36
		c-0.04-4.6-1.62-3.99-3.26,1.26C1983.63,575.94,1970.75,594.28,1945.32,619.51z M1877.02,600.4c0.38,0-0.99,1.21-3.04,2.68
		c-4.8,3.45-6.11,4.23-6.11,3.63C1867.87,606.09,1876.12,600.4,1877.02,600.4z M1879.57,430.87c0.61,0.61,9.21,3.09,10.75,3.1
		c0.53,0.01-0.76-0.81-2.87-1.8C1883.95,430.51,1878.28,429.57,1879.57,430.87z M1911.35,174.23c-0.79,0-1.43-0.17-1.43-0.38
		c0-0.21,0.64-0.62,1.43-0.92c0.79-0.3,1.43-0.13,1.43,0.38C1912.78,173.81,1912.13,174.23,1911.35,174.23z M1912.96,438.98
		c0.89-0.04,1.88,0.36,2.21,0.89c0.68,1.1,0.65,1.1-1.91,0C1911.7,439.2,1911.65,439.03,1912.96,438.98z M1917.98,169.88
		c2.05-1.54,3.8-1.85,2.99-0.54c-0.29,0.46-1.49,1.08-2.68,1.39C1916.2,171.25,1916.19,171.22,1917.98,169.88z M1925.62,166.06
		c2.06-1.53,3.8-1.85,2.99-0.54c-0.29,0.46-1.49,1.09-2.68,1.39C1923.85,167.42,1923.84,167.39,1925.62,166.06z M1924.43,607.09
		c0.26,0,1.26-0.86,2.21-1.91c0.95-1.05,1.51-1.91,1.25-1.91c-0.26,0-1.26,0.86-2.21,1.91
		C1924.73,606.23,1924.17,607.09,1924.43,607.09z M2053.41,113.54c-33.05,11.11-36.7,12.53-70.88,27.52
		c-19.61,8.6-27.04,11.96-41.82,18.93c-7.9,3.72-8.82,4.07-8.82,3.33c0-0.22,4.41-2.53,9.8-5.14
		c50.07-24.23,85.83-38.55,128.12-51.33C2086.65,101.77,2078.33,105.16,2053.41,113.54z M2014.07,95.95
		c-0.79-0.03-2.08,0.36-2.87,0.87c-1.75,1.13-0.24,1.13,2.39,0C2014.85,96.29,2015.01,95.99,2014.07,95.95z M2126.47,57.93
		c-0.2-0.2-3.96,0.12-8.36,0.71c-4.4,0.59-11.22,1.44-15.16,1.88c-3.94,0.45-9.73,1.49-12.86,2.32c-3.13,0.83-6.57,1.5-7.64,1.5
		c-2.62,0-17.76,3.53-24.88,5.81c-3.16,1.01-7.13,1.83-8.84,1.83c-1.71,0-3.11,0.43-3.11,0.95c0,0.55,1.66,0.74,4.02,0.44
		c2.21-0.28,3.8-0.29,3.54-0.03c-0.26,0.26-7.85,3.04-16.87,6.18c-9.02,3.14-17.17,6.2-18.12,6.8c-1.6,1.03-1.6,1.06,0.12,0.52
		c1.01-0.32,10.9-3.4,21.98-6.84c22.03-6.84,52.85-14.83,73.42-19.02C2120.91,59.5,2126.66,58.13,2126.47,57.93z M2025.67,92.25
		c-0.69-0.23-1.71,0.03-2.26,0.59c-0.71,0.71-0.34,0.83,1.25,0.42C2025.95,92.92,2026.38,92.49,2025.67,92.25z M2032.7,495.26
		c0.52,0,1.6-0.42,2.39-0.93c0.79-0.51,1-0.93,0.48-0.93c-0.53,0-1.6,0.42-2.39,0.93C2032.39,494.84,2032.18,495.26,2032.7,495.26z
		 M2037,88.31c-0.79-0.03-2.08,0.36-2.87,0.87c-1.75,1.13-0.24,1.13,2.39,0C2037.78,88.64,2037.95,88.34,2037,88.31z M2049.9,84.51
		c-1.05-0.01-3.2,0.57-4.78,1.29c-3.77,1.73-2.92,1.75,2.39,0.08C2049.88,85.14,2050.95,84.52,2049.9,84.51z M2107.86,69.3
		c-2.47-0.38-34.05,7.44-45.54,11.27c-12.13,4.04-7.55,3.12,21.84-4.4C2098.28,72.55,2108.94,69.46,2107.86,69.3z M2087.64,101.74
		c0.9,0,0.73,0.3-0.48,0.82c-1.05,0.45-2.55,0.82-3.34,0.82c-0.9,0-0.73-0.3,0.48-0.82
		C2085.35,102.11,2086.86,101.74,2087.64,101.74z"/>
	<linearGradient id="SVGID_8_" gradientUnits="userSpaceOnUse" x1="2229.6753" y1="320.6077" x2="2229.6753" y2="568.6198">
		<stop  offset="0" style="stop-color:#EA706C"/>
		<stop  offset="1" style="stop-color:#EC008C"/>
	</linearGradient>
	<path class="st8" d="M2419.72,397.06c-0.23,17.27-2.62,29.05-9.46,46.59c-4.41,11.32-10.39,23.94-13.08,27.6
		c-0.92,1.25-1.67,2.9-1.67,3.67c0,0.77-0.87,2.49-1.93,3.84c-1.14,1.44-1.7,3.18-1.37,4.21c0.55,1.73-1.9,5.29-2.68,3.9
		c-0.22-0.39-0.26-0.14-0.08,0.56c0.5,1.97-1.47,4.93-2.91,4.38c-0.71-0.27-1.56,0.19-1.89,1.04c-0.34,0.89-0.2,1.29,0.35,0.95
		c2.33-1.44,0.54,2.68-4,9.17c-24.87,35.61-55.41,59.23-83.29,64.42c-7.04,1.31-9.27,1.38-13.38,0.41
		c-15.79-3.72-39.16-22.75-44.95-36.6c-2.78-6.65-4.64-20.2-4.26-30.98c0.2-5.63,0.78-10.89,1.3-11.68
		c0.52-0.79,1.47-2.94,2.11-4.78c1.01-2.85,1.12-1.32,0.79,10.51c-0.21,7.62-0.02,14.72,0.43,15.77c0.62,1.45,0.83,0.88,0.88-2.4
		c0.09-5.71,4.93-26.96,8.6-37.72c1.61-4.72,2.93-9.82,2.93-11.33c0-12.19,25.24-59.81,45.11-85.11c2.23-2.83,8.42-10.1,13.19-15.46
		c3.91-4.4,4.3-6.49,1.47-8c-4.7-2.51-90.83,0.31-118.93,3.9c-16.22,2.07-19.67,3.08-13.81,4.04c13.38,2.18,33.32,18.25,39.92,32.16
		l2.95,6.21l0.48-5.73c0.33-4.03,0.7-5.19,1.23-3.9c1.81,4.44-2.1,36.51-5.65,46.39c-3.01,8.36-6.31,16.78-7.51,19.14
		c-0.67,1.31-3.09,6.26-5.38,10.99c-2.29,4.73-4.95,9.78-5.91,11.23c-1.48,2.22-2.12,4.45-2.5,8.6c-0.04,0.39-0.48,0.72-0.99,0.72
		c-0.51,0-0.69-0.75-0.41-1.67c0.28-0.92-0.14-0.6-0.94,0.72c-0.8,1.31-1.24,3.13-0.96,4.04c0.88,2.96-9.45,18.96-21.46,33.23
		c-20.36,24.2-46.18,42.07-67.59,46.81c-9.74,2.15-11.65,2.21-17.6,0.56c-9.7-2.7-20.67-9.78-30.96-19.97
		c-13.46-13.34-16.34-21.54-16.34-46.51c0-13.34,0.16-14.78,1.61-14.55c1.12,0.18,1.71-0.54,1.95-2.39
		c0.19-1.46,0.21,3.58,0.05,11.2c-0.35,16.54,0.97,24.45,1.9,11.35c0.73-10.17,4.47-26.08,8.97-38.11
		c1.87-4.99,3.53-11.01,3.7-13.38c0.45-6.45,7.22-22.13,17.33-40.13c1.92-3.42,5.8-10.46,8.62-15.65
		c2.82-5.19,7.14-12.45,9.61-16.12c4.84-7.21,25.2-31.86,34.33-41.56c3.09-3.29,5.39-5.97,5.1-5.97c-0.89,0-8,6.07-10.36,8.84
		c-1.23,1.44-2.72,2.63-3.32,2.63c-1.74,0,10.29-11.15,15.87-14.73c7.19-4.6,12.33-5.86,16.15-3.95c2.19,1.09,3.86,1.26,6.41,0.65
		c1.89-0.46,7.52-1.52,12.52-2.36c34.43-5.77,63.24-7.12,118.01-5.51c50.78,1.49,74.05,3.62,74.05,6.78c0,0.39,1.18,1.92,2.63,3.39
		s2.13,2.4,1.53,2.04c-1.59-0.93-3.24,4.29-2.04,6.44c0.88,1.56,1.1,1.53,3.25-0.49c1.76-1.65,2.58-1.9,3.42-1.06
		c0.84,0.84,0.71,1.55-0.55,2.95c-1.92,2.12-0.7,3.45,2.29,2.5c3.49-1.11,2.04,1.72-4.02,7.84c-3.26,3.28-5.73,6.16-5.49,6.38
		c0.23,0.22,2.93-0.03,6-0.56c4.47-0.78,6.27-0.68,9.08,0.48c11.13,4.61,13.54,5.39,14.89,4.88c0.82-0.32,1.26-0.96,0.97-1.43
		c-0.29-0.47-0.06-0.85,0.5-0.85c0.59,0,0.36-1.04-0.56-2.44c-0.88-1.34-2.16-2.22-2.86-1.95c-0.69,0.27-1.51,0.07-1.83-0.43
		c-0.31-0.5-0.11-0.91,0.45-0.91s1.01-0.43,1.01-0.96c0-0.53-0.55-0.96-1.22-0.96s-1.95-0.85-2.83-1.89
		c-0.89-1.04-2.81-2.15-4.27-2.47c-4.34-0.95-5.05-1.27-5.05-2.27c0-0.52,0.87-1.42,1.93-1.99c2.87-1.54,10.28,2.86,16.45,9.74
		c2.77,3.09,8.07,8.73,11.78,12.53c4.02,4.12,7.88,9.23,9.55,12.63C2419.78,384.66,2419.88,385.37,2419.72,397.06z M2164.01,373.25
		c-8.48,0.52-9.33,0.42-8.23-0.91c0.78-0.95,2.33-1.35,4.28-1.13c2.04,0.24,2.91-0.01,2.62-0.76c-0.25-0.66,0.97-1.37,3-1.75
		c1.92-0.36,3.17-1.06,2.84-1.6c-0.37-0.6-1.14-0.5-2.09,0.29c-1.34,1.1-1.38,1-0.36-0.91c0.63-1.18,1.99-2.15,3.02-2.15
		c2.4,0,2.42-1.55,0.03-2.83c-3.25-1.74-4.56-1.11-10.25,4.98c-3.07,3.29-8.13,8.55-11.25,11.7c-9.21,9.32-23.08,28.21-33.69,45.89
		c-16.4,27.33-23.82,42.37-27.08,54.92c-0.61,2.37-1.45,4.73-1.85,5.25c-0.4,0.53-1.02,2.86-1.38,5.2
		c-0.36,2.33-1.38,5.77-2.28,7.64c-1.36,2.83-1.63,6.38-1.63,21.08c0,19.31,0.59,21.98,4.84,21.98c1.31,0,7.38-2.15,13.49-4.78
		c6.11-2.63,13.33-6.46,16.05-8.51c5.73-4.33,23.34-21.58,28.21-27.65c1.83-2.28,4.32-5.29,5.54-6.69
		c3.63-4.18,12.98-15.95,14.51-18.27c0.79-1.19,3.91-5.52,6.93-9.61c3.02-4.1,5.49-7.68,5.49-7.97s1.4-2.52,3.11-4.96
		c3.93-5.62,3.74-5.29,7.67-13.81c7.05-15.29,12.98-38.76,11.87-47.04c-0.48-3.57-3.53-8.51-3.53-5.72c0,2.24-1.68,1.13-2.21-1.47
		c-0.3-1.45-2.09-4.21-3.99-6.15C2183.52,373.28,2178.49,372.37,2164.01,373.25z M2089.47,408.78c1.93-3.15,5.58-8.88,8.11-12.73
		c2.53-3.85,4.58-7.5,4.57-8.12c-0.02-0.62-0.52-0.26-1.11,0.79c-0.6,1.05-1.34,2.13-1.65,2.39c-2.22,1.88-15.4,22.69-16.64,26.28
		C2081.77,420.17,2085.08,415.94,2089.47,408.78z M2099.24,368.4c2.3-2.76,4.37-5.02,4.59-5.02c0.65,0-5.24,7.21-7.09,8.69
		C2095.81,372.82,2096.94,371.16,2099.24,368.4z M2126.92,532.63c-1.27,0.82-3.59,2.3-5.17,3.29c-1.58,1-3.08,2.05-3.34,2.34
		c-1.77,1.98-12.35,8.06-15.34,8.82c-2.5,0.64-3.47,1.34-3.12,2.26c0.73,1.89,1.95,1.69,8.43-1.4c3.15-1.5,8.96-5.44,12.9-8.74
		C2128.37,533.25,2131.37,529.76,2126.92,532.63z M2109.35,356.8c5.2-5.91,8.23-8.9,8.62-8.51c0.22,0.21-2.28,2.95-5.54,6.07
		C2109.17,357.49,2107.78,358.58,2109.35,356.8z M2128.88,392.05c1.63-1.84,4.82-5.71,7.07-8.6c5.63-7.22,6.34-8.99,1.52-3.82
		c-2.2,2.37-5.71,6.88-7.79,10.03C2126.4,394.65,2126.3,394.96,2128.88,392.05z M2135.02,329.15c2.72-3.06,11.04-6.86,14.87-6.78
		c3.07,0.06,2.84,0.23-2.34,1.73c-3.15,0.91-7.67,2.88-10.03,4.37C2134.06,330.65,2133.57,330.78,2135.02,329.15z M2146.12,484.74
		c0-0.53,0.43-0.96,0.96-0.96s0.96,0.43,0.96,0.96s-0.43,0.96-0.96,0.96S2146.12,485.27,2146.12,484.74z M2150.9,479.48
		c0,0.79-0.42,1.43-0.93,1.43c-0.51,0-0.68-0.65-0.38-1.43c0.3-0.79,0.72-1.43,0.92-1.43C2150.73,478.05,2150.9,478.7,2150.9,479.48
		z M2159.79,468.16c-0.63,0.26-0.91,1.05-0.64,1.77c0.28,0.73-0.59,2.01-1.96,2.91c-1.35,0.88-2.24,1.96-1.97,2.39
		c0.27,0.43,0.08,1.04-0.42,1.34c-0.5,0.31-1.17,0.14-1.48-0.38c-0.32-0.52,0.26-1.78,1.29-2.81c1.03-1.03,2.35-2.77,2.93-3.86
		c0.58-1.09,1.58-1.95,2.22-1.91C2160.66,467.67,2160.66,467.8,2159.79,468.16z M2162.88,462.96c0.34,0.34,0.21,1.35-0.29,2.25
		c-0.5,0.89-1.16,1.23-1.46,0.74C2160.45,464.84,2162.04,462.12,2162.88,462.96z M2165.23,460.32c0,1.68-0.57,1.93-1.39,0.6
		c-0.3-0.49-0.11-1.16,0.42-1.49C2164.8,459.1,2165.23,459.5,2165.23,460.32z M2167.26,459.74c-0.65,1.03-0.92,0.98-1.39-0.24
		c-0.68-1.77,0.14-4.38,1.37-4.38C2168.32,455.12,2168.33,458.05,2167.26,459.74z M2179.09,330.45l3.82-1.26l-6.37-0.1
		c-3.5-0.06-7.13-0.39-8.05-0.74c-1.49-0.57-1.47-0.42,0.16,1.35C2170.78,332.01,2173.71,332.22,2179.09,330.45z M2170.84,449.69
		c1.48-0.39,2.04-1.28,2.04-3.29c0-1.78,0.49-2.76,1.4-2.76c0.8,0,1.88-1.63,2.54-3.82c0.63-2.1,1.49-3.82,1.91-3.82
		s1.29-1.83,1.93-4.06c0.64-2.23,1.68-4.71,2.32-5.49c0.64-0.79,1.47-3.27,1.83-5.51c0.37-2.24,1.28-4.68,2.02-5.43
		c0.74-0.74,1.4-2.78,1.46-4.52c0.06-1.74,0.44-4.46,0.84-6.04l0.73-2.87l0.24,2.87c0.47,5.64-0.11,11.54-1.6,16.25
		c-3.67,11.58-4.57,13.87-8.77,22.35c-2.45,4.94-5.41,9.96-6.58,11.17c-1.91,1.96-2.29,2.04-3.58,0.75
		c-1.61-1.61-1.98-3.66-0.5-2.75c0.55,0.34,0.7-0.06,0.35-0.96C2168.99,450.71,2169.45,450.06,2170.84,449.69L2170.84,449.69z
		 M2169.06,371.03c-1.75,1.13-0.24,1.13,2.39,0c1.26-0.54,1.42-0.84,0.48-0.87C2171.13,370.13,2169.84,370.52,2169.06,371.03z
		 M2317.81,341.57c1.52-0.85,1.39-1.05-1.13-1.75c-3.75-1.04-84.79-1.02-112.26,0.03c-17.2,0.66-21.73,1.1-22.63,2.25
		c-0.62,0.78-1.55,1.17-2.06,0.85c-0.51-0.31-1.4,0.78-1.98,2.44c-1.35,3.89-1.34,3.99,0.54,3.27c0.87-0.33,7-1.24,13.62-2.01
		c27.63-3.21,50.26-4.3,87.22-4.21C2302.35,342.49,2316.73,342.17,2317.81,341.57z M2191.99,489.52c0-0.53-0.19-0.96-0.42-0.96
		c-0.23,0-0.69,0.43-1.01,0.96c-0.32,0.52-0.13,0.96,0.42,0.96C2191.53,490.47,2191.99,490.04,2191.99,489.52z M2220.83,379.42
		c0.62,0.62,0.91,1.35,0.64,1.62c-0.27,0.27-0.78,0.21-1.13-0.14c-0.35-0.35-0.64-1.08-0.64-1.62
		C2219.7,378.68,2220.15,378.74,2220.83,379.42z M2228.78,354.92c-2.69-0.66-2.57-0.75,1.91-1.37c9.01-1.24,31.53-1.9,40.92-1.19
		c5.16,0.39,9.24,0.83,9.08,0.98C2279.52,354.39,2232.42,355.82,2228.78,354.92z M2258.87,426.94c0.54-0.33,0.7,0.05,0.38,0.9
		c-0.64,1.66-1.32,1.96-1.32,0.58C2257.92,427.93,2258.35,427.26,2258.87,426.94L2258.87,426.94z M2261.36,421.79
		c1-1.77,2.55-4.57,3.45-6.21c0.95-1.74,1.64-2.34,1.67-1.44c0.03,0.85-0.81,2.64-1.86,3.97c-1.05,1.34-1.91,2.85-1.91,3.36
		s-0.71,1.52-1.58,2.24C2259.81,424.79,2259.85,424.46,2261.36,421.79z M2269.07,409.13c1.44-1.19,1.48-1.11,0.44,0.84
		c-1.19,2.22-2.03,2.77-2.03,1.31C2267.48,410.82,2268.19,409.85,2269.07,409.13z M2391.9,394.19c-0.64-0.21-1.21-1.1-1.27-1.98
		s-0.68,2.23-1.35,6.9c-0.68,4.67-1.59,8.76-2.03,9.08c-0.44,0.32-0.94,2.52-1.11,4.88c-0.18,2.37-1.14,6.76-2.15,9.76
		c-1.01,3.01-1.83,5.9-1.83,6.43c0,1.59-7.51,16.89-11.29,23c-2.07,3.34-4.2,5.7-5.16,5.71c-0.9,0.01-2.73,1.19-4.06,2.63
		c-2,2.16-2.43,2.32-2.43,0.9c0-0.95,1.34-2.94,2.98-4.44c1.64-1.5,2.71-3.16,2.37-3.7c-0.33-0.54-0.17-1.25,0.36-1.58
		c0.53-0.33,0.97-0.06,0.97,0.6c0,0.91,0.27,0.93,1.1,0.1c0.61-0.61,1.07-2.42,1.02-4.03c-0.05-1.61,0.31-2.68,0.8-2.38
		c0.49,0.3,1.64-1.09,2.56-3.09c0.92-2,2.22-4.2,2.88-4.9c0.66-0.69,1.19-2.28,1.19-3.52c0-1.24,0.54-2.82,1.2-3.51
		c1.43-1.49,5.03-13.29,7.54-24.67c2.45-11.12,2.54-25.27,0.17-27.89c-3.76-4.16-6.42-4.73-20.69-4.51
		c-7.66,0.12-13.49-0.17-13.43-0.66c0.06-0.47,2.13-1.9,4.58-3.17c2.61-1.35,4.28-2.8,4.01-3.5c-0.26-0.68,0.53-1.44,1.82-1.77
		c1.26-0.32,3.48-1.03,4.95-1.6l2.67-1.02l-3.17-1.34c-4.06-1.71-5.49-0.83-12.6,7.76c-2.89,3.49-6.32,7.27-7.61,8.4
		c-8.14,7.07-27.44,32.94-35.76,47.92c-0.88,1.58-2.38,4.16-3.34,5.73c-0.96,1.58-2.61,4.37-3.66,6.21
		c-1.05,1.84-3.17,5.49-4.71,8.12c-4.83,8.25-14.31,30.46-15.27,35.77c-0.34,1.87-1.17,4.5-1.84,5.83c-0.68,1.33-1.73,5.21-2.34,8.6
		c-0.61,3.39-1.57,6.72-2.13,7.39c-1.6,1.93-2.13,23.03-0.73,28.99c0.66,2.83,1.6,5.9,2.07,6.82c1.21,2.35,4.83,2.09,11.66-0.82
		c14.28-6.09,19.54-9.21,27.83-16.5c12.76-11.22,32.99-34.31,43.89-50.06c10.95-15.83,20.61-30.82,20.61-31.96
		c0-0.68,0.83-3.07,1.84-5.3C2388.21,422.46,2394.35,395.01,2391.9,394.19z M2279.9,414.99c0,0.53,0.19,0.96,0.42,0.96
		s0.69-0.43,1.01-0.96c0.33-0.52,0.14-0.96-0.42-0.96C2280.36,414.03,2279.9,414.46,2279.9,414.99z M2291.44,399.22
		c3.84-5.78,7.23-10.73,7.53-10.99c0.54-0.47,2.65-3.46,5.98-8.5c3.38-5.12,3.73-6.2,0.95-2.96c-1.57,1.84-3.82,4.42-5,5.73
		c-2.98,3.32-14.31,20.53-14.31,21.72c0,0.54-0.65,1.51-1.43,2.17c-0.79,0.66-1.43,1.85-1.43,2.67
		C2283.72,410.94,2283.32,411.46,2291.44,399.22z M2325.31,531.74c-0.43-0.43-9.18,4.99-16.74,10.39c-2.89,2.06-6.82,4.19-8.74,4.72
		c-1.92,0.54-3.74,1.65-4.06,2.47c-0.81,2.11,4.18,0.98,10.41-2.36C2310.98,544.38,2326,532.43,2325.31,531.74z M2324.86,392.05
		c2.21-2.37,5.73-6.59,7.81-9.39c2.08-2.8,3.57-5.3,3.31-5.56c-0.51-0.51-9.54,10.54-12.99,15.91
		C2321.04,396.04,2321.21,395.94,2324.86,392.05z M2345.27,367.21c0.18,0,0.87-0.64,1.52-1.43c0.68-0.83,0.78-1.43,0.22-1.43
		c-0.53,0-1.22,0.65-1.52,1.43C2345.18,366.56,2345.09,367.21,2345.27,367.21z M2350.61,475.61c0,1.68-0.57,1.93-1.39,0.6
		c-0.3-0.49-0.11-1.16,0.42-1.49C2350.17,474.39,2350.61,474.79,2350.61,475.61z M2351.56,358.72c0,1.28,0.88,1.03,3.92-1.13
		c1.52-1.09,2.77-2.61,2.77-3.39c0-1.04-0.9-0.73-3.34,1.13C2353.07,356.73,2351.57,358.26,2351.56,358.72z M2354.43,470.97
		c0,0.8-0.39,1.22-0.87,0.92c-0.48-0.3-1.09,0-1.36,0.66c-0.31,0.77-0.51,0.63-0.56-0.37c-0.04-0.86,0.57-1.82,1.36-2.12
		C2353.89,469.72,2354.43,470.06,2354.43,470.97z M2358.22,464.97c0.01,1.48-0.36,2.44-0.84,2.14c-0.48-0.3-1.09,0-1.36,0.66
		c-0.32,0.8-0.51,0.7-0.56-0.29c-0.04-0.82,0.56-2.32,1.33-3.34C2358.13,462.37,2358.19,462.4,2358.22,464.97z M2361.12,351.49
		c0,0.99,1.24,0.26,4.11-2.43c1.72-1.61,2.48-2.86,1.73-2.87C2365.78,346.19,2361.12,350.41,2361.12,351.49z"/>
	<linearGradient id="SVGID_9_" gradientUnits="userSpaceOnUse" x1="2531.2314" y1="314.5854" x2="2531.2314" y2="568.5397">
		<stop  offset="0" style="stop-color:#EA706C"/>
		<stop  offset="1" style="stop-color:#EC008C"/>
	</linearGradient>
	<path class="st9" d="M2637.15,360.56c-0.92,5.26-2.31,9.08-3.75,10.27c-0.76,0.63-1.39,2.33-1.39,3.78c0,2.66-2.03,5.29-3.19,4.13
		c-0.35-0.35-0.64,0.84-0.64,2.64c-0.02,3.51-1.13,6.01-2.45,5.5c-0.45-0.18-1.18,1.51-1.62,3.74c-0.5,2.53-1.32,4.06-2.18,4.06
		c-1.33,0-1.78,1.56-1.43,5.02c0.15,1.47-0.88,2.1-2.98,1.81c-0.35-0.05-0.93,1.65-1.29,3.78c-0.36,2.12-1.25,4.09-1.99,4.38
		s-1.34,1.3-1.34,2.27s-0.44,2.02-0.97,2.35c-0.53,0.33-0.72,1-0.42,1.5c0.31,0.49-0.08,1.14-0.85,1.44
		c-1.43,0.55-3.01,4.66-2.65,6.87c0.11,0.66-0.32,1.1-0.96,0.96c-0.64-0.14-1.6,1.25-2.14,3.09c-0.54,1.84-1.22,3.56-1.51,3.82
		c-1.35,1.2-3.16,5.81-3.16,8.04c0,1.36-0.54,2.47-1.21,2.47c-0.67,0-1.47,1.4-1.8,3.11c-0.33,1.71-1.15,4.18-1.83,5.5
		c-0.68,1.31-1.81,4.43-2.51,6.93c-0.7,2.5-1.6,4.54-2.01,4.54c-0.41,0-1.03,1.7-1.38,3.77c-0.35,2.07-1.46,5.39-2.47,7.37
		c-1.01,1.98-1.84,4.97-1.84,6.64c0,1.74-0.58,3.26-1.36,3.56c-0.83,0.32-1.63,2.67-2.05,6.04c-0.38,3.04-1.27,6.1-1.99,6.82
		c-1.27,1.27-1.6,3.52-1.38,9.28c0.06,1.58-0.32,3.51-0.84,4.3c-0.8,1.2-0.97,1.12-1.04-0.48l-0.08-1.91l-0.76,1.91
		c-0.42,1.05-0.54,3.54-0.28,5.53c0.26,1.99-0.22,6.29-1.08,9.56c-5.12,19.51-6.82,33.17-4.14,33.17c0.69,0,2.18,1.25,3.31,2.78
		l2.06,2.78l-1.95,2.47c-2.48,3.16-6.37,3.23-12.8,0.22h0c-2.63-1.23-7.89-4.72-11.7-7.77c-5.32-4.25-7.51-6.77-9.48-10.89
		c-1.41-2.95-3.39-6.3-4.42-7.45c-2.75-3.09-4.47-11.92-4.49-22.99c-0.01-8.08,0.24-9.8,1.42-9.8c1.14,0,1.45,1.5,1.53,7.4
		c0.08,6.59,1.46,15.01,1.72,10.51c0.05-0.92,0.47-1.67,0.93-1.67c0.46,0,1.3-1.61,1.85-3.58c2-7.08,4.24-12.66,5.06-12.66
		c0.46,0,0.84-0.64,0.84-1.43s0.6-1.43,1.33-1.43c1.39,0,2.97-2.64,2.56-4.3c-0.13-0.53,0.07-0.65,0.44-0.28
		c1.09,1.09,2.88-1.35,4.02-5.45c1.21-4.38,10.1-29.73,14.4-41.09c7.64-20.15,15.47-37.77,27.21-61.23
		c10.63-21.24,19.01-39.53,18.62-40.68c-0.15-0.44-2.08,0.86-4.3,2.88c-2.22,2.03-4.25,3.48-4.51,3.22
		c-0.26-0.26-1.55,0.23-2.86,1.09c-1.31,0.86-3.04,1.56-3.85,1.56c-0.8,0-5.23,3.92-9.83,8.7c-4.6,4.79-10.16,9.94-12.35,11.46
		c-3.63,2.51-12.63,13.05-28.82,33.74c-14.82,18.95-38.25,54.38-47.83,72.33c-10.58,19.84-20.59,44.53-24.52,60.48
		c-3.34,13.56-4.63,16.46-8.08,18.25c-2.58,1.33-3.15,1.33-5.7,0.01c-1.56-0.81-3.17-1.35-3.58-1.22c-0.41,0.14-2.47-0.82-4.57-2.12
		c-2.1-1.3-4.56-2.68-5.45-3.06c-0.9-0.38-2.78-2.51-4.18-4.72c-3.47-5.5-6.13-8.3-6.17-6.51c-0.06,2.45-4.64-4.14-7.01-10.09
		c-3.07-7.71-5.62-23.58-5.16-32.2c0.41-7.73,2.77-20.62,5.65-30.87c3.97-14.11,6.71-23.04,7.92-25.8c0.69-1.58,1.57-4.37,1.97-6.21
		c0.39-1.84,1.06-3.78,1.49-4.31c0.43-0.53,1.31-3.1,1.97-5.71c0.66-2.61,1.76-5.83,2.45-7.15c0.69-1.33,1.28-3.28,1.3-4.33
		c0.02-1.05,0.87-3.63,1.88-5.73c1.02-2.1,1.86-4.4,1.88-5.11c0.02-0.71,0.66-2.64,1.42-4.3c0.77-1.66,2.09-4.95,2.95-7.31
		c3.23-8.9,4.41-11.83,11.41-28.18c3.95-9.23,7.18-17.08,7.18-17.45c0-0.37-1.09,0.93-2.42,2.89c-1.33,1.96-2.61,3.57-2.84,3.57
		c-0.67,0,0.58-2.8,5.79-12.9c2.71-5.25,5.22-11.17,5.59-13.14c0.66-3.59,1.38-4.04,5.83-3.62c2.3,0.22,4.53,2.86,3.84,4.55
		c-0.27,0.67-0.76,1.87-1.08,2.66c-0.32,0.79-0.13,1.43,0.41,1.43c0.55,0,1.27-0.86,1.6-1.91c1.24-3.9,5.52-2.34,14.09,5.13
		c7.28,6.35,10.27,13.01,10.27,22.87c0,8.4-1.65,13.08-12.97,36.67c-3.91,8.15-7.1,15.32-7.1,15.95c0,0.63-0.59,1.99-1.3,3.02
		c-0.72,1.04-1.62,2.96-2.01,4.27c-0.65,2.2-1.43,4.08-5.58,13.38c-1.38,3.08-1.5,3.15-1.55,0.92c-0.03-1.33,0.8-4.11,1.85-6.17
		c1.05-2.06,1.91-4.38,1.91-5.15c0-2.17,2.2-7.75,3.06-7.75c0.42,0,0.76-1.07,0.76-2.39c0-2.84-1.44-3.24-1.65-0.47
		c-0.08,1.06-0.97,3.1-1.98,4.54c-1.01,1.44-2.36,4.23-3,6.2c-0.64,1.97-1.49,3.58-1.88,3.58c-0.4,0-0.75,0.54-0.77,1.19
		c-0.03,0.66-2.01,5.98-4.41,11.84c-9.1,22.19-19.22,55.85-21.23,70.58c-0.89,6.54,0.04,5.34,8.08-10.36
		c7.05-13.76,9.34-16.21,3.33-3.58c-5.21,10.98-10.89,27.64-10.89,31.97c0,5.29,0.96,3.98,6.52-8.95
		c8.81-20.47,18.96-40.77,19.92-39.81c0.22,0.22-0.38,1.86-1.35,3.63c-2.18,3.98-7.89,16.84-7.89,17.78c0,0.38,2.93-5.11,6.51-12.19
		c15.92-31.49,49.51-81.29,78.92-117.03c11.01-13.38,14.75-18.9,8.06-11.9c-10.24,10.72-16.73,17.99-23.25,26.1
		c-9.39,11.67-11.56,14.05-12.22,13.4c-0.3-0.3-3.54,3.47-7.19,8.38c-3.65,4.91-7.61,9.79-8.81,10.84l-2.17,1.91l1.08-2.06
		c1.06-2.02,5.72-8.98,11.72-17.52c4.12-5.86,15.78-20.66,19.92-25.28c13.84-15.43,36.21-36.83,38.5-36.83
		c0.56,0,0.3,0.79-0.57,1.75c-2.81,3.11-1.68,3.49,1.52,0.52c1.71-1.59,4.83-4.21,6.93-5.83c3.41-2.62,8.14-8.86,6.72-8.86
		c-0.3,0-2.25,1.07-4.32,2.38c-5.4,3.41-3.86,0.41,2-3.89c4.61-3.38,7.54-6.65,7.54-8.41c0-0.49-0.75-0.24-1.67,0.54
		c-0.92,0.79-4.04,2.8-6.93,4.48c-7.2,4.17-9,5.28-9.56,5.9c-0.26,0.29-4.96,4.58-10.43,9.53c-12,10.85-30.06,30.97-42.44,47.29
		c-5,6.59-9.28,12.51-9.51,13.15c-0.23,0.64-0.7,0.9-1.05,0.58c-0.7-0.65,11.24-18.96,15.03-23.05c1.32-1.42,2.67-3.46,3.01-4.52
		c0.34-1.07,0.97-1.94,1.41-1.94c0.44,0,1.63-1.4,2.65-3.11c4.83-8.11,30.57-34.72,41.22-42.62c15.36-11.39,22.21-14.45,24.96-11.13
		c0.65,0.79,1.74,1.43,2.41,1.43c2.14,0,12.72,9.65,13.72,12.52c0.53,1.52,1.42,2.76,1.97,2.76c1.86,0,4.83,3.8,4.83,6.18
		c0,1.82-0.37,2.22-1.6,1.74c-1.5-0.58-1.5-0.47,0,1.68c0.88,1.26,1.66,3.81,1.72,5.66l0.11,3.37l0.81-2.87
		c0.67-2.39,0.74-2.15,0.43,1.43c-0.21,2.37-0.69,5.34-1.07,6.61c-0.57,1.89-0.41,2.2,0.86,1.72
		C2637.43,357.6,2637.6,358.01,2637.15,360.56z M2431.89,531.9c-2.84-10.98-2.63-22.02,0.98-52.18c0.83-6.89-1.24-2.55-2.48,5.23
		c-0.59,3.69-1.69,8.07-2.44,9.73c-2.21,4.89-1.85,25.14,0.61,33.38c2.17,7.29,4.6,13.26,5.17,12.69
		C2433.92,540.55,2433.1,536.56,2431.89,531.9z M2433.9,471.84c-0.27-0.66-0.48-0.12-0.48,1.19c0,1.31,0.22,1.85,0.48,1.19
		C2434.17,473.57,2434.17,472.5,2433.9,471.84z M2434.88,467.12c-0.31-0.76-0.53-0.54-0.58,0.58c-0.04,1.01,0.18,1.57,0.5,1.26
		C2435.12,468.63,2435.15,467.81,2434.88,467.12z M2436.79,490.05L2436.79,490.05c-0.31-0.76-0.53-0.54-0.58,0.58
		c-0.04,1.01,0.18,1.57,0.5,1.25C2437.03,491.57,2437.07,490.74,2436.79,490.05z M2469.73,394.2c4.14-10.34,4.9-12.1,9.19-21.5
		c6.89-15.1,8.82-20.08,8.75-22.62c-0.06-2.27-0.41-1.85-2.18,2.55c-1.16,2.89-5.17,11.29-8.91,18.66
		c-7.12,14.04-16.51,36.94-23.11,56.35c-7.88,23.19-17.74,59.74-15.41,57.14c0.38-0.42,3.17-8.94,6.2-18.92
		C2450.98,443.71,2459.57,419.53,2469.73,394.2z M2474.93,483.47c1.1-0.91,1.15-0.61,0.28,1.88c-1.28,3.67-2.64,4.7-2.04,1.54
		C2473.41,485.61,2474.21,484.07,2474.93,483.47z M2477.24,457.08c-0.01-1.15,0.42-2.36,0.94-2.68c1.22-0.75,1.22,1.46,0,3.34
		C2477.43,458.91,2477.25,458.79,2477.24,457.08z M2477.24,479.06c0.01-0.43,0.43-1.42,0.94-2.21c0.8-1.24,0.93-1.21,0.94,0.18
		c0.01,0.89-0.42,1.88-0.94,2.21C2477.66,479.57,2477.23,479.49,2477.24,479.06z M2483.03,444.1c-0.47,1.65-1.32,3.78-1.88,4.73
		c-0.82,1.38-0.91,1.05-0.44-1.6c0.32-1.84,1.17-3.97,1.88-4.73C2483.7,441.32,2483.76,441.56,2483.03,444.1z M2513.35,417.11
		c0.29,0.29,0,1.07-0.65,1.71c-0.94,0.94-1.05,0.83-0.54-0.54C2512.52,417.34,2513.06,416.81,2513.35,417.11z M2515.99,412.55
		c0.36-0.94,0.89-1.47,1.19-1.18c0.29,0.29,0,1.07-0.65,1.71C2515.58,414.02,2515.47,413.91,2515.99,412.55z M2517.9,441.5
		c-0.26,0-0.94,0.86-1.5,1.91c-0.56,1.05-0.81,1.91-0.55,1.91c0.26,0,0.94-0.86,1.5-1.91C2517.92,442.36,2518.17,441.5,2517.9,441.5
		z M2586.2,357.41c-1.43,0-18.21,17.2-27.03,27.71c-10.07,12-25.73,32.81-34.22,45.47c-8.91,13.28-7.14,12.09,2.79-1.87
		c14.8-20.8,31.99-41.55,48.91-59.03C2585.57,360.48,2587.96,357.41,2586.2,357.41z M2519.27,407.22c0-0.46,0.71-1.43,1.59-2.15
		c1.44-1.19,1.48-1.11,0.44,0.84C2520.12,408.13,2519.27,408.68,2519.27,407.22z M2535.51,500.06c0.6,0.94,0.89,2.23,0.63,2.87
		c-0.34,0.84-0.49,0.85-0.54,0.04c-0.04-0.61-0.32-1.9-0.63-2.87C2534.44,498.44,2534.47,498.44,2535.51,500.06z M2535.7,494.53
		c0.02-1.58,0.23-2.11,0.48-1.18c0.24,0.93,0.23,2.22-0.04,2.87C2535.88,496.87,2535.68,496.11,2535.7,494.53z M2543.23,466.74
		c0.04-1.11,0.27-1.34,0.58-0.58c0.28,0.69,0.24,1.51-0.07,1.83C2543.42,468.31,2543.19,467.75,2543.23,466.74z M2620.92,354.55
		c-1.2,0-32.82,64.17-38.61,78.35c-5.31,13.02-9.42,24.22-12.97,35.35c-4.17,13.09-2.25,9.4,5.73-10.99
		c7.96-20.35,12.69-30.67,29.81-64.98C2619.42,363.09,2623.06,354.55,2620.92,354.55z M2630.03,371.27
		c0.03-0.53-0.36-0.31-0.87,0.48c-0.51,0.79-0.9,2.08-0.87,2.87C2628.34,376.12,2629.93,373.08,2630.03,371.27z M2630.11,336.39
		c0-0.52-0.19-0.96-0.42-0.96c-0.23,0-0.69,0.43-1.01,0.96c-0.33,0.53-0.14,0.96,0.42,0.96
		C2629.66,337.34,2630.11,336.92,2630.11,336.39z M2632.95,365.77L2632.95,365.77l-0.04-3.11l-1.37,2.39
		c-1.76,3.08-1.76,3.82,0,3.82C2632.53,368.88,2632.97,367.91,2632.95,365.77z M2637.96,355.68c-0.6,0.6-0.73-0.03-0.38-1.77
		c0.41-2,0.65-2.24,0.93-0.93C2638.72,353.95,2638.47,355.17,2637.96,355.68z"/>
</g>
</svg>
