<?xml version="1.0" encoding="utf-8"?>
<!-- Generator: Adobe Illustrator 24.0.0, SVG Export Plug-In . SVG Version: 6.00 Build 0)  -->
<svg version="1.1" id="Layer_1" xmlns="http://www.w3.org/2000/svg" xmlns:xlink="http://www.w3.org/1999/xlink" x="0px" y="0px"
	 viewBox="0 0 1487.12 531.84" style="enable-background:new 0 0 1487.12 531.84;" xml:space="preserve">
<style type="text/css">
	.st0{stroke:#FFFFFF;stroke-miterlimit:10;}
	.st1{fill:url(#SVGID_1_);}
	.st2{fill:url(#SVGID_2_);}
	.st3{fill:url(#SVGID_3_);}
	.st4{fill:url(#SVGID_4_);}
	.st5{fill:url(#SVGID_5_);}
	.st6{fill:url(#SVGID_6_);}
</style>
<g>
	<linearGradient id="SVGID_1_" gradientUnits="userSpaceOnUse" x1="224.7296" y1="9.094947e-13" x2="224.7296" y2="531.8369">
		<stop  offset="0" style="stop-color:#EA706C"/>
		<stop  offset="1" style="stop-color:#EC008C"/>
	</linearGradient>
	<path class="st1" d="M441.26,127.36c-2.58,5.93-16.36,35.44-25.5,40.29c10.82-6.19,21.32-52.13,25.38-55.31
		c-0.8,0.25-2.42,0.56-2.43-0.35c-0.06-3.92,8.55-42.4,3.65-44.15c6.21,2.29-14.65,66.77-16.07,69.55
		c-12.18,23.8-30.54,42.67-49.91,60.76c-20.69,19.31-43.35,36.54-67.12,51.89c-5.39,3.48-28.58,12.08-30.32,15.12
		c7.5-13.05,34.83-24.99,46.55-33.43c3.94-2.84,17.05-15.55,28.39-25.44c0.13-0.21,0.1-0.16,0,0c0.59-0.52,1.18-1.03,1.76-1.52
		c-0.42-1.99,57.6-47.98,54.52-57.24c2.23,6.69-42.36,41.72-48.25,46.65c-19.23,16.09-39.51,31.22-60.81,44.47
		c-17.01,10.58-34.96,19.62-53.02,28.25c-4.17,1.99-11.06,4.08-18.02,6.31c13-5.96,26.94-13.38,26.94-17.77
		c0,4.42-23.43,7.51-24.52,10.34c3.4-8.85,49.25-22.53,50.16-32.13c3.91-1.91,11.74-8.12,20.81-15.65
		c9.61-5.76,19.9-11.21,27.61-17.01c13.77-10.38,27.14-21.35,39.69-33.19c13.42-12.67,27.36-34.4,37-44.93
		c5.93-6.48,10.8-18.64,14.18-27.93c0.82-2.27,1.89-15.43,1.98-25.86c-3.67-5.36-12.22-19.15-12.22-20.29
		c1.63,1.18,3.34,2.25,5.12,3.19c3.95-6.38-38.1-18.12-48.82-20.81c0.92-0.04,1.59-0.47,2-1.33c-0.72-0.23-2.85-0.69-4.75-1.02
		c-8.86,0.3-34.35-3.69-39.54-3.5c-11.14,0.41-22.02,2.08-32.94,4.25c-19.77,3.94-39.75,8.44-58.99,14.51
		c13.16-0.88,26.67-5.76,39.65-8.26c11.21-2.16,31.01-0.53,41.67-4.4c-12.5,4.92-30.87,4.41-43.85,7.07
		c-14.52,2.98-28.96,6.35-43.17,10.6c-29.99,8.97-59.44,22.34-86.67,37.75c-18.62,10.53-36.62,22.82-53.53,35.9
		c-12.67,9.8-25.41,20.01-36.29,31.83c-2.87,3.12-6.59,8.71-10.05,13.49c-2.13,6.09-8.16,17.55-11.07,14.51
		c-0.91,22.41-11.39,39.58,5.16,59.7c8.48,10.31,18.22,15.03,30.73,18.75c6.72,2,24.46,2.11,21.25,12.62
		c-7.85,25.69-71.39-27.03-77.02-34.96c-18.46-26.02-10.19-56.11,5.71-82.06c-0.43,1.43-0.65,2.79-0.62,4.07
		c-0.17-7.48,38.89-40.76,38.72-40.99c0.23,0.32-7.5,8.77-12.34,14.22c15.5-16.3,72.15-66.51,76.72-61.62
		c-0.52-0.56-33.02,26.01-32.74,26.01c6.28,0,19.71-12.6,25.13-15.95c8.64-5.34,17.41-10.44,26.3-15.34
		c17.39-9.57,35.31-18.08,53.22-26.63c25.59-12.2,50.75-21.65,78.22-28.74c26.77-6.92,53.78-13.87,81.74-10.94
		c15.15,1.59,29.97,6.39,43.49,13.39c3.4,1.76,12.84,6.8,20.11,12.02c-2.15-1.78-4.05-3.49-4.86-5.04c1.49,2.86,12.05,8.38,15,11.33
		c7.19,7.2,12.46,15.55,16.87,24.7C452.78,81.11,451.61,103.59,441.26,127.36z M4.33,218.97c-0.09-2.16-0.61-4.2-1.52-6.12
		C3.34,214.68,3.98,221.78,4.33,218.97z M21.1,195.47c0.01,0.22-13.15,26.25-4.52,26.27c0.06-2.37,0.08-4.74,0.06-7.11
		c0-5.33,0.3-7.72,1.2-9.54C19.41,202.05,20.49,198.84,21.1,195.47z M15.66,199.14c0.39,1.35,0.53,1.21,0.42-0.42
		C15.85,198.17,15.69,198.34,15.66,199.14z M35.47,130.6c-6.8,7.88-13.51,16.67-19.22,26C18.6,148.74,27.25,138.9,35.47,130.6z
		 M16.99,194.69 M37.92,159.38c-0.42-0.6,3.9-7.43,3.67-7.63c-5.54-4.58-23.23,38-23.84,38.86
		C20.48,186.75,37.22,158.38,37.92,159.38z M25.05,199.7c-0.72,1.31-0.87,2.65-0.44,4.01C25.36,202.39,25.5,201.05,25.05,199.7z
		 M378.37,351.45c5.04,17.09,6.3,31.7,0.98,48.97c-1.02,3.32-8.12,25.21-13.02,25.25c0.57,0,2.86-8.32,2.77-8.32
		c-0.5,0-25.35,30.33-26.26,31.29c-3.27,3.47-26.12,27.07-38.99,35.05c-1.9,2-38.92,19.31-43.96,21.21
		c-21.32,8.04-43.22,13.13-65.78,15.88c-15.71,1.91-31.17,2.65-47.62,0.9c-18.59-1.98-37.25-6.73-54.61-13.64
		c-3.06-1.22-33.29-18.03-35.8-18.84c2.87,1.2,39.26,29.41,43.07,25.74c-1.08,1.04-2.95,1.22-5.3,0.8c1.04,0.86,1.93,2.07,2.03,2.11
		c-1.59-0.72-3.11-1.59-4.53-2.61c0.04-0.04,0.08-0.05,0.11-0.08c-10.64-3.14-27.69-14.68-31.64-17
		c-17.89-10.54-35.04-24.61-35.21-48.27c-0.04-5.21,2.69-26.2,11-22.57c5.55,2.43,1.7,11.11,2.79,16.13
		c7.08,32.39,50.43,32.67,72.13,46.5c-1,0.2-2,0.32-3,0.4c2.73,0.45,6.4,1.5,9.77,2.25c10.82-1.86,40.11,5.66,47.88,5.74
		c22.83,0.23,46.81-1.7,68.78-8.19c35.87-10.6,72.61-33.01,96.22-62.17c16.07-19.86,27.97-39.07,27.71-64.72
		c-0.15-14.96-0.22-25.81-11.46-36.21c-6.54-6.05-26.45-17.96-38.13-20.49c4.05,0.38,9.13,0.8,8.78,0.32
		c-6.08-8.21-61.5,0.48-61.5-2.67c0-2.54,50.63-2.44,50.63-2.93c0-10.26-100.83,1.39-112.71,2.47c3.87-3.08,14.01-8.51,18.3-8.45
		c-4.73-0.07-34.84,7-37.19,6.69c0.72,0.32,1.48,0.53,2.26,0.63c-1.33,1.5-6.4,12.26-4.6,9.58c-4.77,7.09-10.1,12.99-14.14,20.65
		c-4.76,9.03-18.15,30.09-17.66,39.34c0.77-0.83,1.67-1.48,2.69-1.94c0.21,11.84-11.84,29.33-15.39,41.57
		c-2.66,9.18-5.76,17.63-5.42,27.39c0.03,0.8,2.86,13.86,2.68,14.35c-3.44,9.47-14.49,5.42-22.94-1.93
		c-5.95-5.19-8.92-9.17-10.43-17.38c-0.43-2.35,2.31-25.64,3.32-25.14c0.04,1.73-0.02,3.45-0.14,5.17
		c0.57-2.75,5.69-13.57,5.95-13.57c0.15,0-3.74,18.07-3.24,20.85c-0.47-3.42,11.39-27.61,12.66-30.09
		c2.06-4.01,9.43-13.63,12.69-20.34c8.36-3.6,19.75-36.99,22.91-44.98c-3.43,8.68-11.53,20.96-16.52,28.85
		c1.52-2.4,13.31-41.7,19.22-37.12c-0.54,1.45-0.96,2.94-1.26,4.46c2.82,0,14.81-23.34,15.47-26.55c1.31-6.3-2.62-11.98-0.78-17.14
		c0.3-0.85,7.35,2.07,7.35,2.08c2.15-1.98,5.96-7.21,8.52-11.56c2.19-3.72,19.62-29.48,17.95-31.14c1.45,1.45-16.71,21.4-20.2,27.72
		c0.41-1.49,0.68-3.02,0.79-4.57c-1.56-0.29-7.97,9.44-9.43,6.8c-0.63-1.14,7.78-8.75,5.45-11.07c-0.37,0.31-0.71,0.64-1.03,0.99
		c2.27-4.88,5.63-14.62,8.39-14.62c-0.03,0.94-0.05,1.88-0.08,2.82c0.96-3.12,9.27-17.4,10.29-19.12c0.29,1.16,0.57,2.31,0.86,3.47
		c0.33-1.03,1.17-2.66,2.08-4.37c-0.03,0.33,0.03,0.55,0.25,0.55c7.17,0,14.94-20.55,22.15-34.52c-2.13,2.97-3.76,5.27-3.87,5.16
		c-2.18-2.18,69.03-95.31,73.87-102.21c13.82-19.74,28.11-40.31,44.44-58.08c23.64-25.73-11.03,20.08-11.03,24.81
		c0-2.63,13.69-18.22,15.91-20.09c-0.67,0.56,13.22-11.96,13.22-4.71c0,18.95-23.74,42.89-33.75,57.32
		c-15.18,21.87-30.18,43.87-45.14,65.89c-11.38,16.75-22.83,33.47-33.88,50.44c-3.11,4.77-14.1,17.2-20.95,27.04
		c8.55-15.03,23.92-39.45,25.78-39.48c-8.32,0.12-31.01,45.43-34.65,50.91c-5.59,8.42-17.09,20.15-19.76,30.09
		c-2.06,7.69,0.11-0.33,3.06,4.23c0.05,0.07,0.27,6.37,0.34,7.18c-1.19-13.26,92.03-11.49,101.83-10.24
		C331.16,285.52,366.48,311.13,378.37,351.45z M28.09,191.42c-0.14-2.18-0.46-1.94-0.97,0.74
		C27.25,194.43,27.58,194.19,28.09,191.42z M33.02,180.9c0.01-0.03,0.02-0.06,0.04-0.1C33.04,180.83,33.03,180.86,33.02,180.9z
		 M35.47,130.6c3.65-4.22,7.33-8.18,10.9-11.82c19.25-19.6,40.67-36.37,63.64-51.42c5.2-3.41,48-22.33,51.13-28.2
		c-3.23,7.77-40.21,22.5-47.64,27.32c-10.95,7.09-21.67,14.62-32.09,22.48c-11.28,8.5-21.73,17.59-31.63,27.7
		C46.76,119.75,41.22,124.8,35.47,130.6z M45.4,151.54c-0.02,0.37-6.22,4.45-6.22,6.6C39.18,156.49,45.29,153.95,45.4,151.54z
		 M39.54,480.53c1.27,0.84,9.41,11.2,10.7,9.91C50.89,489.79,40.12,480.91,39.54,480.53z M53.75,487.05
		c-1.74-1.45-2.1-1.45-1.08,0.02C54.4,488.38,54.85,488.37,53.75,487.05z M55.14,114.92c3.46-3,1.16,1.39-0.94,1.39
		C53.84,116.32,54.26,115.69,55.14,114.92z M111.48,524.45c1.4,0.19,2.8,0.38,4.2,0.57c-0.16,3.24-2.65,3.5-7.48,0.79
		c-18.63-7.1-38.5-13.35-53.41-27.42C70.06,508.03,96.25,523.91,111.48,524.45z M60.6,110.09c0.66,0.19-2.68,3.96-2.68,2.91
		C58.58,111.8,59.47,110.83,60.6,110.09z M61.48,109.41c-0.03,0.09-0.06,0.17-0.08,0.24C61.42,109.59,61.45,109.52,61.48,109.41z
		 M61.4,109.65 M61.48,109.41c0.02-0.08,0.05-0.16,0.08-0.24C61.54,109.25,61.52,109.32,61.48,109.41z M61.57,109.17
		c0.02-0.05,0.04-0.11,0.05-0.16C61.6,109.06,61.58,109.12,61.57,109.17z M61.62,109.01c0.05-0.14,0.09-0.27,0.13-0.38
		C61.71,108.73,61.67,108.86,61.62,109.01z M61.79,108.51c-0.01,0.04-0.02,0.07-0.04,0.13C61.76,108.58,61.77,108.54,61.79,108.51z
		 M61.79,108.51 M96.98,81.4c4.22-2.99-14.53,12.39-17.28,14.57c-4.69,3.72-10.92,10.53-15.85,11.41
		C62.28,104.83,94,83.52,96.98,81.4z M100.52,488.86c-1.08-1-2.32-1.24-3.72-0.71C96.87,488.07,99.64,490.29,100.52,488.86z
		 M132.13,526.27c-0.82,1.06-1.97,1.13-3.47,0.21c-9.61-1.46-23.55-8.66-31.21-9.21c9.01,0.64,18.35,7.06,27.29,7.29
		C127.41,524.38,129.88,524.95,132.13,526.27z M100.59,79.59c-1.15-1.87,5.64-2.14,1.77-0.07C101.51,79.98,100.85,80,100.59,79.59z
		 M128.85,334.42c0.6-0.34-0.06,3.47-0.07,3.51c4.27-5.65,6.71-12.56,10.89-18.23c-6.94,10.11-9.82,33.85-19.3,39.71
		c-0.6,0.37,0.02-4.56,0.03-4.83c-1.34,5.64-3.65,7.72-5.82,12.46c-1.6,3.5-13.32,25.96-11.14,20.31
		c3.72-9.6,13.35-44.08,23.99-48.35C129.24,338.27,126.26,335.91,128.85,334.42z M104.6,76.55c0.27-0.14,0.54-0.3,0.8-0.47
		C104.96,76.39,104.56,76.66,104.6,76.55z M106.46,75.35c-0.34,0.26-0.7,0.5-1.06,0.73C105.91,75.73,106.46,75.32,106.46,75.35z
		 M108.54,74.76c0.89-1.49,2.18-2.37,3.88-2.66C111.54,73.61,110.25,74.49,108.54,74.76z M115.47,71.06
		c-2.03,0.66-2.28,0.26-0.75-1.18C117.32,69.18,117.57,69.57,115.47,71.06z M124.12,528.56c0.35,0.1-7.93,0.72-6.96-0.85
		C119.53,527.36,121.85,527.64,124.12,528.56z M122.11,67c-1.34,1.08-2.85,1.64-4.55,1.67C117.56,66.35,122.14,66.96,122.11,67z
		 M154.67,47.37c1.31-0.77,30.17-14.53,30.17-13.64c0,3.72-35.14,19.53-41.39,23.39c-3.32,2.05-24.5,15.01-24.5,14.13
		c1.14-0.92,11.4-8.51,11.36-8.55c-0.14-0.14-7.89,4.1-7.89,2.29C122.42,61.93,151.13,49.44,154.67,47.37z M122.61,351.28
		c-1.26-2.38-1.69,3.29-1.56,3.99l0.92-1.73C122.47,352.58,122.76,351.56,122.61,351.28z M125.71,492.66
		c-0.69,0.69-2.27,0.76-4.04,0.68C123.52,493.51,124.99,493.37,125.71,492.66z M122.91,371.11c-0.07,0.03-0.15,0.08-0.22,0.1
		c0.58-1.98,1.14-3.96,1.67-5.96C124.78,366.51,124.13,368.61,122.91,371.11z M124.97,345.65c-1.4,1.22-2.06,2.8-1.98,4.73
		C124.38,349.15,125.04,347.57,124.97,345.65z M127.35,340.09c-0.09,0.4-2.7,5.53-0.46,2.73
		C128.46,341.44,128.61,340.53,127.35,340.09z M126.58,359.43 M131.83,328.67c1.12,1.08,0.81,2.31-0.93,3.71
		C128.94,335.08,131.67,329.38,131.83,328.67z M131.83,328.67c-0.02-0.01-0.03-0.03-0.04-0.05
		C131.84,328.57,131.85,328.59,131.83,328.67z M133.86,324.4c1.48-2.79,1.76-2.79,0.83,0C133.21,327.19,132.93,327.19,133.86,324.4z
		 M133.38,525.76c0.14-0.05,0.25-0.1,0.37-0.15C133.51,525.71,133.33,525.79,133.38,525.76z M134.02,525.51
		c-0.09,0.04-0.18,0.07-0.27,0.11C133.85,525.58,133.94,525.54,134.02,525.51z M134.61,525.27c-0.08,0.03-0.27,0.11-0.59,0.24
		C134.26,525.41,134.51,525.31,134.61,525.27z M156.75,527.59c-6.04,0.37-12.65,1.46-17.69,0.71c-7.14-1.07,14.61-0.7,14.22-0.7
		C154.44,527.58,155.59,527.58,156.75,527.59z M140.47,318.61c-0.28,0.35-0.53,0.72-0.8,1.08
		C139.94,319.31,140.2,318.94,140.47,318.61z M142.53,315.73 M144.05,366.42c0.9-2.16,1.27-2.25,1.12-0.29
		C144.31,368.37,143.93,368.47,144.05,366.42z M148.18,311.91c1.32,0.83,1.47,1.9,0.44,3.23
		C146.96,316.8,146.23,311.91,148.18,311.91z M149.48,358.99c-0.12,0.29-0.84,1.96-1.01,2.35c0.09-0.21,0.35-0.82,0.89-2.09
		C149.43,359.11,149.46,359.03,149.48,358.99z M148.47,361.34 M149.49,358.97c0,0.01,0,0.01-0.01,0.02
		C149.48,358.98,149.49,358.97,149.49,358.97z M149.49,358.97 M150.02,309.69c0.3-2.18,5.11-13.04,7.13-13.04
		c0.42,0,2.16-6.34,3.1-5.4C161.25,292.25,149.5,313.37,150.02,309.69z M166.46,528.26c-3.23-0.39-6.46-0.61-9.71-0.66
		C160.33,527.38,163.72,527.42,166.46,528.26z M161.27,38.86c-0.03,0.1-0.08,0.2-0.13,0.31C161.18,39.07,161.24,38.96,161.27,38.86z
		 M161.95,274.11c0.13-0.08,0.22-0.14,0.33-0.2C161.74,274.24,161.24,274.55,161.95,274.11z M162.28,273.91
		c0.01-0.01,0.02-0.01,0.03-0.02C162.3,273.9,162.29,273.9,162.28,273.91z M162.31,273.89 M164.09,269.95
		c-0.36-1.82,0.06-2.63,1.27-2.43c-0.22,1.34-0.63,2.61-1.23,3.81L164.09,269.95z M166.81,299.55c1.7-0.35,2.73-1.48,3.1-3.41
		C170.86,292.92,166.81,297.94,166.81,299.55z M168.95,264.2c-0.29,0.18-1.45,0.89-1.65,1.02c0.03-0.02,0.09-0.06,0.2-0.12
		C168.36,264.56,168.79,264.3,168.95,264.2z M167.3,265.22 M167.54,271.31c0.54-0.33,0.86-0.53,1.04-0.64
		C168.2,270.9,167.35,271.43,167.54,271.31z M168.58,270.67 M168.96,264.19c0,0-0.01,0.01-0.02,0.01
		C168.95,264.2,168.96,264.2,168.96,264.19z M168.96,264.19 M169.51,260.59c0.48-1.01,1.11-1.91,1.85-2.72
		C170.61,259.5,169.97,260.59,169.51,260.59z M169.93,528.32c0.24-0.38,1.11-0.69,1.95-0.68
		C174.25,527.65,168.89,529.99,169.93,528.32z M171.99,271.16c0.54-2.11,1.29-2.66,2.25-1.71c-0.79,0.24-3.7,4.41-2.27,2.62
		C171.03,273.26,171.03,273.15,171.99,271.16z M174.81,252.65c-1.72,2.47-1.72,3.27-0.02,2.39
		C176.5,252.57,176.51,251.77,174.81,252.65z M174.44,269.64c-0.07-0.08-0.13-0.13-0.19-0.19
		C174.36,269.42,174.44,269.47,174.44,269.64z M189.03,518.37c-3.79-4.64-14.22-0.32-14.3-0.4c2.42,0.29,4.86,0.41,7.3,0.34
		L189.03,518.37z M175.57,265.71c-0.16,0.58-0.34,1.16-0.54,1.73C174.9,267.16,175.11,266.55,175.57,265.71z M179.94,528.02
		c-0.12,0.01-5.2-0.09-4.28-0.21C177.82,526.62,179.25,526.69,179.94,528.02z M175.65,310.12 M178.85,280.27
		c3.6-7.55-3.1,2.51-2.07,2.51C177.47,281.94,178.16,281.11,178.85,280.27z M177.19,302.64c-0.11-0.01-0.21-0.03-0.31-0.04
		C177.08,302.37,177.2,302.35,177.19,302.64z M238.25,17.02c0,3.96-59.59,24.36-61.22,25.22C182.68,39.27,238.25,15.49,238.25,17.02
		z M178.91,249.36c-0.03,0.04-0.12,0.15-0.23,0.31C178.82,249.49,178.89,249.39,178.91,249.36z M213.87,288.64
		c0.54-2.65-34.58,5.43-30.54,10.29C185.61,301.67,213.61,289.89,213.87,288.64z M186.83,31.67c1.21-1.54,2.4-1.76,3.56-0.65
		c-1.16,1.28-2.62,1.96-4.38,2.04C185.56,33.05,185.92,32.42,186.83,31.67z M188.31,233.19 M192.55,29.17
		c1.4-1.68,5.43-0.24,0.97,0.61C192.1,30.06,191.91,29.94,192.55,29.17z M192.73,530.52c0.04,0.02,0.16,0.07,0.38,0.15
		C192.93,530.6,192.78,530.54,192.73,530.52z M192.73,530.52 M195.94,219.53c0,0.96-1.6,3.83-3.04,6.52
		C193.08,224.36,195.94,219.3,195.94,219.53z M193.11,530.67c0.1,0.04,0.21,0.08,0.33,0.13
		C193.31,530.75,193.21,530.71,193.11,530.67z M193.44,530.81c0.01,0,0.01,0,0.01,0C193.45,530.81,193.45,530.81,193.44,530.81z
		 M194.41,531.2c-0.26-0.11-0.63-0.25-0.96-0.39C193.69,530.91,194.02,531.04,194.41,531.2z M194.41,531.2
		c0.04,0.02,0.08,0.03,0.12,0.05C194.5,531.23,194.46,531.22,194.41,531.2z M194.53,531.25c0.1,0.04,0.18,0.07,0.2,0.08
		C194.66,531.3,194.61,531.28,194.53,531.25z M201.62,531.19c-1.36,0.74-2.79,0.85-4.29,0.33
		C198.69,530.8,200.12,530.69,201.62,531.19z M198.38,216.59 M201.82,212.44c-0.13,0.08-0.43,0.27-1.02,0.63
		C199.7,213.75,201.46,212.66,201.82,212.44z M201.57,26.57 M201.71,26.35c-0.05,0.08-0.1,0.16-0.14,0.23
		C201.62,26.49,201.67,26.41,201.71,26.35z M201.83,26.15c-0.05,0.08-0.08,0.13-0.12,0.2C201.83,26.15,201.9,26.03,201.83,26.15z
		 M201.82,212.44 M203.34,204.32c0.68,0.8,0.3,1.32-1.15,1.56C202.18,205.54,202.7,204.84,203.34,204.32z M204.26,206.83
		c1.94-2.24,1.94-1.78,0,1.39C202.33,210.46,202.33,210,204.26,206.83z M206.03,204.45c0.01-1.28,0.35-1.43,1.01-0.44
		C207.04,205.23,206.62,205.41,206.03,204.45z M207.34,24.56c0.12-0.19,0.35-0.56,0.53-0.85C207.59,24.16,207.42,24.43,207.34,24.56
		z M207.34,24.56 M207.87,23.71c0.03-0.05,0.06-0.1,0.1-0.16C207.94,23.6,207.91,23.65,207.87,23.71z M207.97,23.55
		c0.02-0.03,0.04-0.06,0.05-0.09C208,23.49,207.99,23.52,207.97,23.55z M208.02,23.46c0.02-0.03,0.03-0.05,0.05-0.08
		C208.12,23.3,208.09,23.35,208.02,23.46z M208.42,248.98c0-2.38,2.36-6.55,5.69-11.33C210.74,243.58,208.42,248.05,208.42,248.98z
		 M208.8,282.21c3.8-3.27,12.57-6.25,21.23-9.02C220.46,277.58,211.4,281.19,208.8,282.21z M212.68,490
		c-0.88-0.18,9.39-2.1,8.35-1.06C219.79,490.17,214.01,490.27,212.68,490z M219.2,48.99 M219.87,298.79
		c0.93-0.22,3.21-0.69,3.76-1.18C224.42,296.89,220.42,298.35,219.87,298.79z M221.16,18.38c0.02-0.01,0.05-0.02,0.09-0.04
		C221.21,18.36,221.17,18.37,221.16,18.38z M221.16,18.38 M221.27,18.34c-0.01,0-0.01,0-0.02,0.01
		C221.25,18.34,221.26,18.34,221.27,18.34z M221.4,18.28c-0.05,0.02-0.1,0.04-0.13,0.05C221.3,18.32,221.35,18.31,221.4,18.28z
		 M221.56,18.23c-0.06,0.02-0.11,0.04-0.15,0.06C221.45,18.27,221.5,18.25,221.56,18.23z M221.73,18.16
		c-0.06,0.02-0.12,0.04-0.17,0.07C221.61,18.21,221.66,18.19,221.73,18.16z M221.72,18.16c0.03-0.01,0.06-0.02,0.09-0.04
		C221.79,18.14,221.76,18.15,221.72,18.16z M221.95,18.07c0.03-0.01,0.06-0.02,0.09-0.04c-0.08,0.03-0.15,0.06-0.23,0.09
		C221.86,18.11,221.9,18.09,221.95,18.07z M222.1,18.02c-0.02,0.01-0.04,0.01-0.05,0.02C222.06,18.03,222.08,18.03,222.1,18.02z
		 M222.4,17.9c-0.1,0.04-0.2,0.08-0.3,0.11C222.21,17.98,222.31,17.94,222.4,17.9z M222.63,17.81c-0.07,0.03-0.15,0.06-0.23,0.09
		C222.48,17.87,222.55,17.84,222.63,17.81z M222.63,17.81c0.13-0.05,0.24-0.09,0.33-0.13C222.88,17.72,222.77,17.76,222.63,17.81z
		 M222.96,17.69 M222.99,289.75c0,0.19,9.89-1.19,9.47-3.2c-2.26,0.23-4.44,0.83-6.52,1.81
		C224.95,288.83,223.97,289.29,222.99,289.75z M230.23,486.5c-2.34,1.12-4.76,1.41-7.24,0.87
		C222.99,485.4,233.63,484.58,230.23,486.5z M224.72,46.85c1.88,0.15,4.34-0.05,5.9-0.93C233.26,44.4,225.74,46.33,224.72,46.85z
		 M241.31,293.05c0.02-2.41-17.18,1.8-16.27,3.35c2.78,0.04,5.51-0.35,8.19-1.18C236.08,294.99,238.77,294.27,241.31,293.05z
		 M265.29,154.58c-12.92,18.09-26.95,35.75-38.08,55.03l-1.6,2.77c13.95-17.23,26.27-35.93,39.06-54.03
		c9.15-12.94,21.74-41.15,34.42-50.22C285.41,117.91,275.06,140.9,265.29,154.58z M228.19,15.1c2.19-0.67,4.09-0.94,6.24-1.42
		l-2.08,1C230.27,16.52,228.89,16.66,228.19,15.1z M228.37,267.63c0.09-0.06,0.26-0.17,0.47-0.3c-0.1,0.06-0.19,0.12-0.3,0.19
		C228.46,267.57,228.41,267.6,228.37,267.63z M228.37,267.63 M228.94,267.26c-0.03,0.02-0.07,0.04-0.1,0.07
		C228.87,267.31,228.91,267.28,228.94,267.26z M228.94,267.26c0.09-0.06,0.18-0.12,0.27-0.18
		C229.13,267.14,229.04,267.2,228.94,267.26z M229.22,267.08C229.22,267.08,229.22,267.08,229.22,267.08
		C229.22,267.08,229.22,267.08,229.22,267.08z M229.22,267.08c0.49-0.32,1.02-0.66,1.24-0.8
		C230.29,266.39,229.91,266.64,229.22,267.08z M230.46,266.28c0,0-0.01,0-0.01,0.01C230.46,266.28,230.46,266.28,230.46,266.28z
		 M230.46,266.28 M232.4,170.21c-0.03,0.07-0.04,0.12-0.06,0.15c0.06-0.15,0.23-0.59,0.35-0.93
		C232.62,169.62,232.53,169.87,232.4,170.21z M232.35,484.51c1.41-0.34,8.33-1.23,7.25-0.54c-1.38,0.2-2.75,0.39-4.13,0.59
		L232.35,484.51z M234.9,305.93c0.03,0.01,0.12,0.03,0.27,0.07C235.03,305.96,234.93,305.94,234.9,305.93z M234.9,305.93
		 M235.53,306.09c-0.13-0.04-0.26-0.07-0.36-0.09C235.26,306.03,235.38,306.06,235.53,306.09z M235.53,306.09
		c0.05,0.01,0.11,0.03,0.17,0.04C235.64,306.12,235.58,306.11,235.53,306.09z M235.99,306.22c-0.1-0.03-0.2-0.05-0.29-0.08
		C235.79,306.16,235.88,306.19,235.99,306.22z M236.39,306.32c-0.15-0.04-0.28-0.07-0.4-0.1
		C236.12,306.25,236.26,306.29,236.39,306.32z M236.39,306.32c0.15,0.04,0.3,0.08,0.44,0.11
		C236.67,306.39,236.53,306.36,236.39,306.32z M236.83,306.44c0.01,0,0.01,0,0.02,0.01C236.84,306.44,236.84,306.44,236.83,306.44z
		 M236.85,306.44c0.17,0.04,0.31,0.08,0.42,0.11C237.12,306.51,236.98,306.47,236.85,306.44z M237.38,306.58
		c-0.04-0.01-0.07-0.02-0.11-0.03C237.31,306.56,237.35,306.57,237.38,306.58z M238.94,284.17c1.87-1.18,1.87-1.42,0-0.69
		C237.07,284.66,237.07,284.89,238.94,284.17z M237.56,12.32c1.94-1.14,4.45-0.97,6.59-1.43l-2.08,1.01
		C240.22,13.53,238.72,13.67,237.56,12.32z M242.6,305.91c-0.72,0.45-1.42,0.44-2.08-0.03C241.19,305.71,242.13,305.72,242.6,305.91
		z M248.31,480.56c-1.05,0.59-6.18,0.63-6.21,0.66C244.12,480.69,246.24,480.47,248.31,480.56z M246.65,9.89
		c1.07-1.07,8.75-1.24,4.6-0.13C249.7,10.31,248.17,10.35,246.65,9.89z M253.83,478.43c-1.28,0.83-2.54,0.85-3.79,0.03
		C250.04,477.13,254.79,476.86,253.83,478.43z M268.92,281.81c-3.57-1.92-11.9-1.08-14.82,1.97c0.36-0.38,7.63-1.06,8.29-1.07
		C264.81,283.29,266.98,282.99,268.92,281.81z M260.75,475.68c-1.46,0.7-2.94,0.8-4.46,0.3
		C256.28,474.06,261.37,474.67,260.75,475.68z M258.96,7.09c1.54-1.38,10.31-2.34,5.3-0.69C262.47,7.44,260.7,7.66,258.96,7.09z
		 M266.57,472.91c-1.33,0.66-2.68,0.76-4.05,0.29C262.52,470.87,267.52,472.31,266.57,472.91z M272.14,470.13
		c-1.21,0.85-2.33,0.84-3.37-0.03C268.77,467.97,273.69,469.14,272.14,470.13z M276.99,467.36c-1.1,0.67-2.23,0.77-3.37,0.29
		C273.62,465.72,278.62,466.32,276.99,467.36z M276.69,4.42c-2.21,0.85,4.57-3.35,4.57-1.02C279.79,3.98,278.27,4.32,276.69,4.42z
		 M278.66,464.86c0.87-1.11,2.08-1.46,3.63-1.05C283.11,465.13,278.7,464.95,278.66,464.86z M293.59,21.88
		c-4.75,0.66-9.47,1.41-14.07,2.82c6.98-0.65,13.76-2.12,20.7-3.06C308.67,20.5,294.61,21.74,293.59,21.88z M282.64,233.33
		c0,0.1-0.01,0.19-0.02,0.29c-1.25,0.61-2.11,0.79-2.47,0.43C280.95,233.7,281.78,233.46,282.64,233.33z M286.63,461.21
		c-0.94,0.89-2.01,1.26-3.23,1.08C283.25,461.89,287.4,458.88,286.63,461.21z M284.87,231.27c-0.5,0.48-0.99,0.96-1.47,1.45
		C283.88,232.23,284.37,231.75,284.87,231.27z M305.51,216.24c-0.7,0.58-1.39,1.16-2.08,1.73c-6.96,4.18-13.56,8.52-18.55,13.29
		C290.7,225.65,298.18,220.86,305.51,216.24z M290.67,457.74c-0.19-0.19-0.31-0.31-0.37-0.37c0.16,0.16,0.65,0.65,0.82,0.82
		C291.05,458.12,290.92,457.99,290.67,457.74z M294.81,456.14 M298.23,453.49c-0.42,0.51-0.69,0.84-0.85,1.03
		C297.6,454.26,297.94,453.84,298.23,453.49z M297.38,454.52 M298.4,453.28c-0.05,0.06-0.11,0.13-0.17,0.21
		C298.28,453.43,298.35,453.35,298.4,453.28z M298.56,453.1c-0.06,0.07-0.1,0.12-0.15,0.19
		C298.46,453.21,298.51,453.15,298.56,453.1z M298.61,453.03c-0.01,0.02-0.03,0.04-0.05,0.06
		C298.58,453.07,298.59,453.06,298.61,453.03z M298.68,452.95c-0.03,0.03-0.05,0.06-0.07,0.09
		C298.68,452.95,298.71,452.91,298.68,452.95z M302.75,450.29c0.36-0.44,0.52-0.63,0.55-0.66
		C303.15,449.81,299.71,453.96,302.75,450.29z M372.07,7.64c-0.89,0.72-37.39-5.18-42.58-4.81c-8.16,0.58-22.75,6.61-27.6,6.66
		c4.81-0.06,48.73,2.31,51.95-0.91c-1.25,1.25-18.55-3.07-21.09-2.97C337.94,5.41,367.93,10.96,372.07,7.64z M303.31,449.62
		 M308.31,306.53c-2.52-0.24-4.64-0.46-4.81-0.45C304.85,305.96,306.48,306.14,308.31,306.53z M319.09,207.25
		c-4.12,3.05-8.82,5.99-13.58,8.99c12.81-10.68,27.6-23.46,37.29-30.41C334.57,192.27,325.06,202.83,319.09,207.25z M307.8,20.14
		c-2.34-0.28-2.75-0.17-1.23,0.32C307.71,20.48,308.27,20.33,307.8,20.14z M316.28,30.92c-0.39,0.17-0.8,0.33-1.22,0.48
		C315.47,31.24,315.89,31.09,316.28,30.92z M327.72,309.08c-0.54,0.02-1.87,0.07-2.2,0.08
		C325.72,309.15,326.35,309.13,327.72,309.08z M331.37,29.13c-1.16,0.4-2.32,0.39-3.47-0.01C328.96,28.96,330.52,28.96,331.37,29.13
		z M340.9,315.75c0-0.89-7.21-5.22-8.08-5.22c-1.2,0,7.06,5.2,5.02,3.81C340.46,316.11,340.9,316.32,340.9,315.75z M335.28,459.33
		c-0.27,0.05-0.51,0.04-0.68-0.07C334.75,459.36,334.99,459.37,335.28,459.33z M338.48,457.22c-0.85,1.14-2.27,1.96-3.19,2.11
		C336.35,459.11,337.93,457.8,338.48,457.22z M340.9,28.79c0-1.37,19.02,0.3,20.13,0.75C362.17,29.99,340.9,30.67,340.9,28.79z
		 M351.18,180.87c-1.81,0.54-4.74,2.34-8.39,4.96C345.85,183.44,348.73,181.6,351.18,180.87z M349.57,455.83
		c-0.56,0.73-4.51,4.41-4.51,4.29C345.06,459.59,348.78,456.53,349.57,455.83z M350.07,454.07 M350.08,454.07
		c0,0-0.01,0.01-0.02,0.01C350.07,454.07,350.08,454.07,350.08,454.07z M350.08,454.07c0.63-0.33,1.79-0.94,2.07-1.09
		c-0.09,0.05-0.3,0.16-0.68,0.36C350.82,453.68,350.37,453.91,350.08,454.07z M352.2,452.95c-0.01,0.01-0.03,0.01-0.05,0.03
		C352.18,452.96,352.19,452.96,352.2,452.95z M352.2,452.95 M353.1,450.89 M353.17,450.85c-0.02,0.01-0.04,0.03-0.06,0.04
		C353.12,450.88,353.14,450.87,353.17,450.85z M354.08,450.29c-0.48,0.29-0.75,0.47-0.92,0.56c0.33-0.2,1.01-0.62,1.21-0.75
		C354.32,450.14,354.24,450.19,354.08,450.29L354.08,450.29z M354.37,450.11 M355.03,380.41c1.72-6.41,1.24,1.56,0.28,1.56
		C354.93,381.97,354.8,381.27,355.03,380.41z M358.94,444.74 M371.33,428.17c-0.3,4.36-11.01,13.67-11.01,14.87
		c0-0.98,5.92-8.56,5.99-8.52C367.52,431.98,369.19,429.86,371.33,428.17z M365.19,427.74c-0.68,1.89-1.84,3.34-3.48,4.34
		C361.71,431.01,366.91,424.47,365.19,427.74z M362.62,28.45c-0.31-0.02-0.56-0.02-0.7,0.01C362.16,28.45,362.39,28.45,362.62,28.45
		z M365.52,30.58c0.17,0.01,1.04,0.21,2.42,0.56C367.28,31.17,366.47,30.99,365.52,30.58z M370.91,415.78 M371.21,194
		c-0.08,0-0.17,0.01-0.26,0.04C371.03,194.03,371.13,194,371.21,194z M376.82,416.96c0.67,0.67-3.9,10.09-4.88,10.09
		c-1.19,0,2.26-6.09,2.25-5.91C374.78,419.54,375.65,418.15,376.82,416.96z M373.79,8.06c0.52,0.02,0.79,0.03,0.92,0.04
		C374.3,8.08,372.58,8.01,373.79,8.06z M378.11,413.18c0.1-1.88,0.79-3.43,2.05-4.67C380.03,410.36,379.35,411.91,378.11,413.18z
		 M380.49,405.9c0.07-2.93,1.27-6.17,2-9.02C382.55,399.7,380.51,404,380.49,405.9z M414.22,168.24c-0.28,0.06-0.55,0.09-0.81,0.09
		C413.68,168.34,413.95,168.3,414.22,168.24z M414.3,168.23c-0.03,0.01-0.06,0.01-0.08,0.02
		C414.25,168.24,414.27,168.23,414.3,168.23z M418.17,110c1.15-2.2,2.06-4.49,2.75-6.86c-1.36,3.24-7.41,13.87-6.54,13.87
		C415.91,114.82,417.17,112.49,418.17,110z M414.3,168.23c0.47-0.11,0.96-0.32,1.46-0.58C415.27,167.92,414.79,168.11,414.3,168.23z
		 M423.6,60.07c-0.31-3.22-0.91-4.96-1.89-3.98C422.07,55.72,422.83,57.56,423.6,60.07z M422.63,34.01
		c0.03,0.04,0.05,0.08,0.08,0.13C422.68,34.1,422.66,34.06,422.63,34.01z M422.89,34.46c0.11,0.21,0.21,0.42,0.28,0.63
		C423.09,34.88,423,34.67,422.89,34.46z M423.18,35.1c0.08,0.21,0.13,0.41,0.18,0.61C423.31,35.51,423.25,35.3,423.18,35.1z
		 M426.15,40.32 M432.71,49.34c0.01,0.03,0.03,0.08,0.06,0.14C432.75,49.42,432.73,49.37,432.71,49.34z M439.98,64.67
		c0.15-0.75-0.22-2.31-0.82-3.47c-0.83-2.59-2.06-4.94-3.71-7.07C433.55,56.03,440.23,63.41,439.98,64.67L439.98,64.67z
		 M446.16,109.38c0.17-0.42,0.3-0.75,0.39-0.97C446.42,108.75,446.26,109.16,446.16,109.38z M446.38,93.72
		c0.39,1.35,0.53,1.21,0.42-0.42C446.58,92.74,446.42,92.91,446.38,93.72z M446.81,100.2c0.17-0.66,0.18-1.91,0.01-2.77
		C446.4,98.33,446.39,99.26,446.81,100.2z"/>
	<linearGradient id="SVGID_2_" gradientUnits="userSpaceOnUse" x1="656.1994" y1="15.4027" x2="656.1994" y2="499.8489">
		<stop  offset="0" style="stop-color:#EA706C"/>
		<stop  offset="1" style="stop-color:#EC008C"/>
	</linearGradient>
	<path class="st2" d="M441.51,496.04c0.24,0.38,0.33,0.67,0.21,0.63c-0.12-0.04-1.27-0.37-2.55-0.74c-3.48-1-9.62-4.64-11.19-6.65
		c-1.71-2.18-4.26-10.2-3.7-11.66c0.36-0.93,0.53-0.9,1.26,0.17c0.47,0.68,1.06,2.09,1.31,3.13c0.78,3.21,4.31,7.72,8.71,11.14
		c2.32,1.8,4.51,3.27,4.87,3.27S441.27,495.66,441.51,496.04z M887.96,75.6c-0.15,2.11-6.4,8.64-14.81,15.47
		c-3.7,3-6.9,5.46-7.11,5.46c-0.21,0-1.91,1.09-3.77,2.43c-3.42,2.46-4.95,2.99-4.95,1.73c0-0.64,0.98-0.98,2.25-0.78
		c0.29,0.04,0.52-0.31,0.52-0.8s1.48-2.06,3.29-3.5c1.81-1.44,6.1-5.41,9.53-8.8c4.74-4.7,6.04-6.37,5.43-6.99
		c-0.53-0.52-0.6-1.36-0.21-2.38c0.7-1.85,0.14-2.71-1.1-1.67c-0.94,0.78-0.95-0.07-0.02-2.2c0.27-0.61,0.42-1.39,0.34-1.73
		c-0.08-0.34,0.21-1.5,0.66-2.58c0.44-1.07,0.81-2.92,0.81-4.11c0-1.18,0.46-2.67,1.03-3.3c0.89-0.99,0.9-1.33,0.06-2.47
		c-0.91-1.24-1.01-1.14-1.46,1.44c-1.02,5.74-2.36,9.83-4.55,13.86c-2.82,5.2-10.17,14.85-14.8,19.42
		c-1.93,1.91-4.25,4.48-5.15,5.72c-0.9,1.23-1.96,2.04-2.36,1.8s-0.54-0.14-0.3,0.24c0.37,0.59-3.79,4.88-8.39,8.65
		c-4.6,3.77-33.22,22.09-34.51,22.09c-0.14,0-2.06,1.05-4.27,2.34c-7.87,4.57-14.2,7.84-53.49,27.61
		c-47.61,23.96-61.19,31.57-81.97,45.92c-7.74,5.34-20.66,14.88-28.44,20.99c-2.1,1.65-4.55,3.55-5.46,4.22
		c-0.9,0.67-2.16,1.69-2.79,2.26c-0.93,0.84-6.91,5.62-11.73,9.36c-0.49,0.38-1.59,1.35-2.43,2.15c-0.84,0.8-4.8,4.06-8.81,7.25
		c-24.29,19.33-44.44,36.55-55.42,47.36c-5.88,5.79-10.43,10.09-10.12,9.55c0.38-0.65,0.3-0.81-0.24-0.48
		c-0.44,0.27-0.8,0.91-0.8,1.42c0,0.51-1.78,2.56-3.96,4.55c-2.18,1.99-4.03,4.08-4.11,4.65c-0.21,1.42-2.94,4.23-4.64,4.77
		c-1.23,0.39-1.26,0.51-0.26,1.07c0.75,0.42,3.14,0.06,7.22-1.1c8.34-2.37,17.74-4.21,32.11-6.28c16.86-2.43,16.75-2.41,16.23-3.25
		c-0.3-0.49-2.35-0.59-6.05-0.29c-5.96,0.48-6.77,0.06-1.78-0.92c2.81-0.55,2.62-0.6-2.45-0.67c-3.02-0.04-5.36-0.2-5.2-0.36
		s3.41-0.64,7.23-1.07c3.81-0.43,9.43-1.23,12.48-1.78c9.56-1.71,29.24-3.11,42.63-3.03c8.75,0.05,11.98,0.26,10.09,0.65
		c-1.53,0.32-5.56,0.59-8.96,0.61c-3.4,0.02-6.03,0.19-5.85,0.37c0.18,0.18,12.33,0.46,26.99,0.62c37.18,0.4,47.61,1.69,68.97,8.5
		c4.2,1.34,8.22,3.02,8.95,3.73c0.99,0.97-0.9,0.52-7.56-1.8c-4.89-1.7-9.21-2.99-9.61-2.86s2.85,1.44,7.22,2.9
		s9.06,3.41,10.44,4.32c3.46,2.28,5.54,7.15,3.06,7.15c-0.84,0-0.77,0.5,0.4,2.75c0.79,1.51,1.23,3.07,0.99,3.47
		c-0.8,1.3-5.87,0.76-9.31-0.98c-4.19-2.12-15.51-5-21.92-5.57c-2.67-0.24-9.07-0.87-14.22-1.42c-37.49-3.94-66.91-2.99-109.24,3.55
		c-6.1,0.94-15.16,2.32-20.11,3.07s-10.89,1.67-13.18,2.05c-2.29,0.38-5.63,0.7-7.42,0.7c-1.79,0-3.43,0.29-3.64,0.64
		c-0.21,0.35-2.65,0.99-5.42,1.43s-6.43,1.23-8.15,1.77c-1.72,0.54-5.88,1.35-9.24,1.81c-6.54,0.89-9.03,2.17-9.75,5.01
		c-0.23,0.91-2.26,5.54-4.52,10.28c-17.15,36.07-29.79,68.45-34.06,87.27c-2.82,12.42-4.22,26.46-3.47,34.68
		c0.68,7.36,0.09,10.86-2.15,12.89c-1.54,1.39-1.6,1.41-5.66,1.58c-1.52,0.06-2.53,0.43-2.43,0.89c0.26,1.17-0.91,1.25-3.99,0.24
		l-2.77-0.91l6.24-0.27l-3.12-0.54c-4.65-0.81-11.64-4.4-15.03-7.73c-1.65-1.62-3-3.32-3-3.78s-0.31-0.94-0.69-1.07
		c-0.93-0.31-4.07-9-4.96-13.73c-0.57-3-0.45-5.42,0.55-11.62c0.69-4.3,1.43-7.83,1.62-7.83c0.43,0,0.29,4.7-0.35,11.79
		c-0.33,3.67-0.2,5.81,0.43,7.28l0.9,2.08l0.26-2.35c0.14-1.29,0.66-2.76,1.16-3.26c0.5-0.5,1.11-2.4,1.37-4.23
		c2.55-18.38,10.6-45.89,19.2-65.6c2.06-4.71,3.57-7.97,11.46-24.6c1.76-3.72,5.24-10.51,7.72-15.09
		c2.48-4.58,5.76-10.66,7.29-13.53c1.53-2.86,3.04-5.53,3.36-5.94c0.31-0.41,1.61-2.75,2.88-5.2c2.31-4.47,5.18-9.58,7.57-13.48
		c0.7-1.14,1.75-3.02,2.33-4.16c0.58-1.14,1.75-3.21,2.6-4.59s3.42-5.7,5.7-9.6c2.29-3.9,4.86-8.23,5.72-9.63
		c0.86-1.4,2.04-3.48,2.61-4.62c1.34-2.66,3.35-6.14,3.8-6.59c0.19-0.19,0.93-1.44,1.65-2.77c0.71-1.33,2.66-4.96,4.33-8.06
		c1.67-3.1,3.04-6.16,3.04-6.8s0.3-0.99,0.67-0.76c0.37,0.23,0.87-0.38,1.12-1.35c0.24-0.97,0.69-1.76,0.99-1.76
		s0.73-0.75,0.96-1.67c0.23-0.92,1.93-3.96,3.78-6.76c1.85-2.8,5.44-8.24,7.98-12.09c2.54-3.85,4.62-7.36,4.62-7.8
		s0.26-0.8,0.58-0.8s1.17-1.09,1.89-2.43c0.72-1.33,1.56-2.43,1.86-2.43c0.3,0,0.86-0.7,1.24-1.56s1.54-2.85,2.58-4.42
		c1.04-1.57,2.78-4.22,3.87-5.9c1.09-1.67,2.69-4.13,3.57-5.47c0.87-1.33,3.49-5.48,5.82-9.22c3.79-6.09,5.29-8.65,9.97-17.14
		c1.74-3.15,11.65-19.75,13-21.77c0.57-0.86,2.56-3.88,4.41-6.72c1.86-2.84,4.27-6.46,5.38-8.05c1.1-1.59,2-3.1,2-3.37
		c0-0.26,3.78-5.99,8.4-12.72c4.62-6.73,8.46-12.55,8.54-12.93c0.19-0.99,2.41-4.39,5.45-8.36c1.44-1.89,4.46-6.08,6.7-9.32
		c4.2-6.08,4.98-7.14,7.99-10.85c0.97-1.2,1.76-2.51,1.76-2.91c0-0.4,0.39-0.98,0.87-1.29c0.48-0.3,1.33-1.37,1.91-2.37
		c0.57-1,1.89-2.87,2.93-4.16c1.04-1.29,3.48-4.37,5.42-6.85c1.94-2.48,4.37-5.45,5.41-6.59c6.18-6.86,26.2-34.83,25.46-35.58
		c-0.19-0.2-1.06,0.55-1.92,1.66c-2.01,2.58-11.58,13.3-14.36,16.08c-1.17,1.17-2.13,2.47-2.13,2.88s-0.48,0.75-1.06,0.75
		c-1.42,0-0.58-1.49,3.11-5.55c1.56-1.72,6.57-7.85,11.13-13.62c4.56-5.78,9.26-11.32,10.45-12.31c4.08-3.44,10.11-1.46,6.52,2.14
		c-0.72,0.72-0.94,1.72-0.65,3.02c0.37,1.7-0.74,3.54-8.65,14.31c-4.99,6.8-11.58,15.64-14.65,19.64c-3.07,4.01-6.23,8.38-7.02,9.71
		c-2.41,4.06-5.03,7.95-5.64,8.4c-0.32,0.23-0.59,0.7-0.61,1.04c-0.04,0.99-1.18,3.74-1.55,3.74c-0.45,0,0.34-2.2,1.19-3.29
		c0.45-0.58,0.41-0.87-0.11-0.87c-0.43,0-3.14,3.2-6.03,7.11c-2.89,3.91-5.62,7.58-6.07,8.15c-0.45,0.57-2.52,3.38-4.6,6.24
		s-4.18,5.67-4.68,6.24c-2.33,2.7-7.46,9.65-23.84,32.35c-1.69,2.34-6.22,8.43-10.06,13.53c-8.16,10.81-15.54,21.76-20.71,30.73
		c-2.03,3.51-6.76,11.43-10.53,17.62c-3.77,6.18-7.17,11.78-7.55,12.44c-0.39,0.66-1.21,1.98-1.82,2.93
		c-0.62,0.95-4.02,6.42-7.58,12.14c-3.55,5.72-8.69,13.84-11.41,18.03c-2.72,4.2-5.8,9.03-6.83,10.75
		c-1.03,1.72-4.51,7.18-7.72,12.14c-3.21,4.96-6.27,9.8-6.8,10.75c-1.1,1.99-2.33,4.12-7.44,12.83c-5.08,8.67-7.37,12.72-9.02,15.95
		c-0.78,1.53-1.72,3.24-2.09,3.81c-4.78,7.37-37.1,71.47-42.84,84.97c-10.17,23.91-18.14,55.73-18.15,72.48
		c-0.01,10.85,1.63,12.47,2.28,2.25c1.27-19.76,11.74-54.4,25.23-83.41c2.49-5.35,10.16-20.58,12.11-24.04
		c4.52-8.01,8.71-14.83,11.1-18.07c1.46-1.99,2.66-3.96,2.66-4.38c0-0.42,0.37-0.54,0.81-0.26c0.55,0.34,0.66,0.12,0.35-0.7
		c-0.36-0.93-0.18-1.11,0.81-0.8c1.54,0.49,2.58-0.66,5.65-6.21c1.27-2.29,3-5.41,3.85-6.94c0.85-1.53,4.75-8.55,8.66-15.61
		c9.32-16.81,13.3-23.72,26.36-45.78c5.98-10.11,13.93-23.69,17.67-30.17c3.73-6.49,8.25-14.29,10.05-17.34
		c17.65-30,19.85-33.51,41.98-66.93c7.7-11.63,15.66-23.81,17.68-27.05c9.22-14.82,25.72-40.23,26.13-40.23
		c0.58,0-8.14,14.83-8.92,15.14c-0.31,0.13-0.56,0.52-0.56,0.88s-0.72,1.81-1.61,3.24c-2.6,4.18-7.6,13.81-6.38,12.3
		c0.62-0.76,3.78-5.45,7.02-10.4s6.2-9.12,6.56-9.25s0.65-0.72,0.65-1.33s0.2-0.9,0.44-0.65s1.05-0.69,1.79-2.08
		s1.71-2.93,2.16-3.43c1.72-1.94,2.38-2.83,3.17-4.3c0.45-0.84,2.22-3.25,3.94-5.35c1.81-2.22,2.92-4.18,2.63-4.67
		c-0.27-0.46-0.24-0.63,0.05-0.36c0.62,0.56,2.83-1.95,5.59-6.38c1.23-1.97,1.5-2.75,0.72-2.11c-0.68,0.56-1.49,1.65-1.8,2.43
		c-0.55,1.36-0.57,1.35-0.62-0.16c-0.03-0.94,2.93-5.65,7.39-11.79c11.03-15.17,17.44-25,18.25-28.01c0.93-3.46,3.38-5.2,5.65-4
		c2.44,1.29,8.13,7.39,8.53,9.14c1.35,5.93,1.52,7.71,1.02,10.35c-0.31,1.64-1.25,4.55-2.09,6.46c-1.44,3.26-11.21,18.48-13.81,21.5
		c-0.66,0.76-1.39,1.93-1.62,2.6c-0.24,0.67-0.76,1.21-1.17,1.21c-0.41,0,0.03-1.33,0.99-2.96c1.06-1.81,1.51-3.31,1.17-3.86
		c-0.4-0.65-0.81-0.3-1.44,1.22c-0.48,1.17-1.1,2.13-1.36,2.13c-0.27,0-1.01,1.01-1.66,2.25c-0.65,1.24-1.72,3.07-2.38,4.06
		c-2.83,4.23-3.97,5.85-4.38,6.17c-0.24,0.19-0.83,1.11-1.32,2.04c-0.49,0.93-1.17,2.02-1.51,2.43s-3.21,4.64-6.38,9.41
		c-3.17,4.77-8.14,12.1-11.06,16.3c-6.2,8.92-29.24,43.42-34.04,50.98c-1.82,2.86-4.61,7.08-6.2,9.38
		c-1.59,2.3-4.59,6.83-6.67,10.06c-2.07,3.23-6.63,10.24-10.12,15.58s-7.53,11.58-8.98,13.87c-1.45,2.29-2.82,4.32-3.06,4.51
		c-0.24,0.19-0.74,0.89-1.12,1.56c-1.07,1.87-8.37,13.18-14.26,22.08c-2.92,4.42-5.43,8.32-5.58,8.67
		c-0.86,2.03-8.45,12.77-9.02,12.77c-0.38,0-0.52,0.27-0.32,0.6c0.2,0.33-0.24,1.32-1,2.19c-1.1,1.27-1.37,1.36-1.37,0.44
		c0-0.63,0.31-1.15,0.69-1.15c0.38,0,0.7-0.39,0.71-0.87s1.21-3.36,2.68-6.42c2.52-5.25,3.08-8.35,0.99-5.48
		c-2.77,3.8-8.54,10.09-8.54,9.32c0-0.91,8.49-15.11,17.64-29.5c24.89-39.14,29.04-45.45,56.31-85.66
		c17.34-25.56,20.64-30.77,20.24-31.97c-0.15-0.46-2.28,1.78-4.72,4.99c-2.44,3.21-4.7,6.14-5.02,6.52
		c-0.32,0.38-2.8,3.66-5.52,7.28c-2.71,3.62-5.2,6.69-5.52,6.82c-0.32,0.13-0.58,0.6-0.58,1.04c0,0.74-0.63,1.57-4.9,6.54
		c-0.74,0.86-1.35,1.86-1.35,2.22s-0.66,1.11-1.47,1.68c-0.81,0.57-1.83,1.75-2.27,2.64c-0.44,0.88-1.45,1.9-2.25,2.26
		c-0.8,0.36-1.81,1.2-2.23,1.88c-0.64,1.03-0.57,1.17,0.43,0.85c0.79-0.25,0.56,0.21-0.66,1.34c-1.03,0.95-1.67,1.91-1.44,2.14
		c0.23,0.23-0.05,0.42-0.63,0.42c-0.58,0-1.41,0.7-1.85,1.56c-0.83,1.61-2.13,3.71-3.1,4.99c-0.3,0.4-2.96,4.35-5.9,8.78
		c-2.94,4.43-6.94,10.36-8.88,13.18c-1.95,2.82-5.51,8.56-7.9,12.76c-6.1,10.68-16.04,27.54-16.75,28.41
		c-0.32,0.4-2.38,3.43-4.58,6.74c-2.2,3.3-4.08,5.92-4.19,5.81c-0.21-0.2,17.79-31.89,25.87-45.55
		c2.56-4.34,11.42-17.98,19.67-30.32c8.25-12.34,15.36-23.05,15.79-23.81c0.43-0.76,1.16-1.75,1.63-2.19c1-0.96-0.93,3.94-2.55,6.47
		l-1.1,1.73l1.83-1.68c1.01-0.92,1.83-2.07,1.83-2.54c0-0.47,0.25-0.97,0.55-1.09c0.71-0.3,5-6.71,5-7.46
		c0-0.32,0.48-0.97,1.06-1.45c1.18-0.98,1.98-2.12,13.68-19.64c4.54-6.8,8.07-12.56,7.84-12.8c-0.53-0.52-2.01,1.09-8.88,9.69
		c-2.95,3.69-5.77,7.13-6.25,7.63c-1.29,1.35-6.75,10.25-6.75,11.01c0,0.36-0.33,0.65-0.74,0.65c-0.4,0-0.61-0.23-0.46-0.52
		s0.83-1.77,1.52-3.3c0.69-1.53,1.53-3.32,1.88-3.99c0.34-0.67,0.47-1.21,0.29-1.21c-0.19,0-1.66,2.26-3.27,5.03
		c-2.67,4.59-6.92,10.99-21.05,31.73c-6.23,9.14-24.63,37.33-24.63,37.74c0,0.17-1.87,3.47-4.16,7.35
		c-2.29,3.88-4.16,7.15-4.16,7.28s-3.01,5.33-6.69,11.56c-10.09,17.09-15.6,26.72-27.97,48.79c-6.2,11.06-12.45,22.14-13.89,24.62
		c-3.53,6.06-15.95,30.84-15.95,31.82c0,0.43-0.31,0.78-0.69,0.78c-0.38,0-0.69,0.55-0.68,1.21c0.02,1.62,3.8-4.47,6.65-10.7
		c1.25-2.74,4.29-7.95,6.75-11.58c2.46-3.63,5.52-8.37,6.8-10.53c5.69-9.62,9.15-14.87,9.78-14.87c1.13,0,0.4,3.37-1.83,8.48
		c-1.84,4.21-2.08,5.22-1.13,4.71c1.67-0.89,7.91-7.72,14.15-15.48c5.69-7.07,7.38-8.78,7.38-7.48c0,0.44-0.51,1.58-1.13,2.53
		l-1.13,1.73l1.98-0.75c1.09-0.41,2.3-1,2.69-1.31c0.39-0.31,1.5-0.75,2.45-0.99c0.95-0.24,2.98-1.61,4.51-3.05
		c2.39-2.26,7.78-6.97,14.2-12.42c0.96-0.82,6.59-5.62,12.51-10.66c14.86-12.67,22.77-18.66,40.58-30.73
		c3.81-2.59,11.15-7.65,16.3-11.25c9.33-6.53,10.82-7.48,15.09-9.71c1.24-0.65,2.25-1.45,2.25-1.79c0-0.34,0.36-0.61,0.8-0.61
		s1.82-0.78,3.07-1.73c1.25-0.95,2.57-1.73,2.93-1.73c0.36,0,1.04-0.47,1.52-1.04c0.47-0.57,0.63-1.04,0.35-1.04
		c-0.61,0-8.75,4.33-14.44,7.68c-2.22,1.31-4.56,2.69-5.21,3.07c-0.65,0.38-3.91,2.23-7.24,4.11c-3.33,1.88-6.06,3.65-6.06,3.93
		s-0.92,0.71-2.03,0.96c-1.12,0.25-2.4,0.89-2.86,1.44c-0.46,0.55-1.08,1-1.4,1c-0.31,0-2.42,1.08-4.68,2.41
		c-2.52,1.47-5.33,2.52-7.27,2.7c-3.76,0.35-3.76-0.47-0.01-3.03c1.4-0.95,2.87-2.05,3.28-2.44c2.16-2.05,19.97-15,21.66-15.74
		c1.08-0.48,2.29-1.29,2.69-1.79c0.6-0.78,1.78-1.22,3.89-1.48c0.24-0.03,0.61-0.7,0.81-1.48s0.79-1.36,1.29-1.28
		c1.38,0.23,3.4-0.82,2.96-1.53c-0.21-0.34-0.13-0.64,0.18-0.67c2.3-0.22,3.46-0.76,4.29-1.99c0.52-0.78,1.54-1.43,2.25-1.43
		c0.72,0,1.31-0.23,1.31-0.52s1.87-1.61,4.15-2.95c2.28-1.33,4.15-2.66,4.15-2.95c0.01-0.29,0.41-0.52,0.9-0.52
		c0.84,0,7.48-3.94,9.31-5.52c0.46-0.4,1.23-0.72,1.7-0.72c0.65,0,0.67-0.2,0.06-0.8s-1.06-0.59-1.87,0.08
		c-0.89,0.74-1.07,0.7-1.07-0.2c0-0.6,0.76-1.49,1.68-1.99c0.92-0.5,5.53-3.05,10.23-5.68c12.84-7.17,29.5-16.02,39.76-21.12
		c1.53-0.76,5.47-2.72,8.77-4.35s5.87-3.3,5.72-3.71c-0.16-0.42,0.72-0.75,2.08-0.78c1.3-0.03,2.92-0.61,3.62-1.31
		c1.36-1.36,1.48-1.36-3.19,0.15c-1.74,0.56,1.49-1.6,5.83-3.91c2.25-1.2,4.44-2.45,4.85-2.79c0.42-0.33,2.47-1.48,4.57-2.56
		c2.1-1.07,4.67-2.57,5.71-3.32c1.55-1.12,2.3-1.25,4.16-0.7c2.35,0.7,4.7,0.53,4.7-0.33c0-0.27-1.09-0.46-2.43-0.41
		c-1.33,0.04-2.43-0.17-2.43-0.48c0-0.57,1.06-0.87,5.71-1.62c1.42-0.23,2.52-0.75,2.43-1.17c-0.09-0.41,0.77-1.07,1.91-1.47
		c1.14-0.39,2.49-1.14,3-1.65c0.51-0.51,1.14-0.95,1.4-0.98c2.16-0.24,3.23-0.71,3.75-1.64c0.33-0.6,1.14-1.09,1.79-1.1
		s1.96-0.63,2.91-1.37c0.95-0.75,1.98-1.36,2.28-1.37c0.3-0.01,1.39-0.6,2.43-1.31c1.03-0.71,5.31-3.57,9.51-6.35
		c22.21-14.72,39.67-30.91,45.25-41.97c2.18-4.33,2.56-5.94,1.26-5.44c-0.6,0.23-1.28,1.16-1.51,2.08
		c-0.23,0.91-0.69,1.66-1.02,1.66c-0.33,0-1.05,0.86-1.6,1.91c-1.11,2.12-7.53,9.19-8.35,9.19c-0.29,0-1.11,0.7-1.83,1.56
		c-0.72,0.86-1.3,1.25-1.3,0.87c0-0.38,1.59-2.41,3.53-4.51c1.94-2.1,4.55-5.38,5.8-7.28c2.71-4.15,4.36-10.28,3.15-11.74
		c-0.86-1.04,0.13-2.19,1.28-1.48c0.34,0.21,0.81-0.11,1.04-0.71c0.83-2.15,0.39-4.59-1.01-5.73c-1.26-1.02-1.37-1.62-0.94-4.85
		c0.29-2.2,0.89-3.84,1.48-4.07c1.11-0.42,6.89,4.87,7.53,6.9c0.22,0.69,0.71,1.06,1.1,0.82c0.38-0.24,1.65,0.46,2.81,1.55
		c2.65,2.49,8.18,9.96,8.18,11.05c0,0.45,0.45,1.19,1,1.64s1.21,1.82,1.48,3.03c0.27,1.21,1.57,3.9,2.89,5.97
		C887.85,60.2,888.68,65.58,887.96,75.6z M435.18,418.04c-0.46-1.2,3.66-13.33,4.76-14c0.43-0.27,0.5,0.69,0.18,2.62
		c-0.48,2.88-1.65,5.91-1.72,4.42c-0.1-2.11-1.38,1.86-1.39,4.29C437,418.38,435.92,419.96,435.18,418.04z M440.47,401.9
		c0-0.72,0.47-1.92,1.05-2.66c0.99-1.27,1.04-1.21,0.87,1.03C442.19,402.75,440.47,404.22,440.47,401.9z M443.95,394.99
		c0.01-0.69,0.31-1.72,0.68-2.3c0.53-0.81,0.67-0.63,0.68,0.83c0.01,1.03-0.3,2.06-0.68,2.29S443.94,395.68,443.95,394.99z
		 M491.1,306.78c0-0.33,0.52-1.04,1.15-1.56c1.05-0.86,1.08-0.81,0.32,0.61C491.72,307.44,491.1,307.83,491.1,306.78z
		 M491.56,341.89c-0.19-0.48-0.35-0.09-0.35,0.87c0,0.95,0.16,1.34,0.35,0.87C491.75,343.15,491.75,342.37,491.56,341.89z
		 M493.99,301.79c0.89-2.57,2.37-3.65,1.73-1.28c-0.25,0.92-0.45,1.87-0.46,2.12s-0.45,0.62-1,0.83
		C493.46,303.77,493.41,303.47,493.99,301.79z M497.43,295.42c2.16-4.23,11.19-17.78,13.72-20.59c1.18-1.31,2.15-2.78,2.15-3.27
		s0.63-1.23,1.39-1.63s1.4-1.12,1.41-1.58c0.03-1.05,3.45-3.62,3.45-2.59c0,0.41-0.47,0.93-1.04,1.15c-0.57,0.22-0.89,0.64-0.7,0.94
		c0.18,0.3-0.44,1.68-1.39,3.08c-0.95,1.4-1.72,2.81-1.72,3.15s-0.26,0.71-0.58,0.84c-0.53,0.21-2.81,3.42-11.27,15.82
		c-1.69,2.47-3.45,4.91-3.93,5.42c-0.48,0.51-0.87,1.22-0.87,1.58c0,0.35-0.47,0.64-1.05,0.64
		C496.11,298.37,496.19,297.86,497.43,295.42z M503.67,335.82c-0.38,0-0.89,0.31-1.12,0.69c-0.24,0.38-0.12,0.69,0.26,0.69
		c0.38,0,0.89-0.31,1.12-0.69C504.17,336.13,504.05,335.82,503.67,335.82z M519.54,330.27c0-1.06-2.35-0.82-3.86,0.4
		c-1.3,1.05-1.29,1.08,0.39,0.7c0.95-0.21,2.12-0.39,2.6-0.4C519.15,330.97,519.54,330.65,519.54,330.27z M523.76,341.12
		c-0.48,0.52,2.88-0.01,11.39-1.8c3.43-0.72,10.3-2,15.26-2.84c4.96-0.84,11.05-1.97,13.53-2.52c2.48-0.54,6.85-1.44,9.71-1.99
		c2.86-0.55,5.67-1.14,6.24-1.32c1.72-0.54-7.71,0.31-11.44,1.03c-1.91,0.37-8.31,1.46-14.22,2.43
		C543.74,335.83,524.56,340.24,523.76,341.12z M619.81,238.19c-0.33-0.33-19.3,13.73-34.38,25.46c-4.01,3.12-9.62,7.48-12.49,9.7
		c-7.04,5.45-23.16,19.59-27.28,23.92c-3.67,3.87-10.16,12.21-10.17,13.09c-0.01,0.95,1.67-0.35,8.35-6.45
		c3.55-3.24,8.13-7.43,10.16-9.3c2.03-1.87,3.9-3.2,4.15-2.95c0.25,0.25,0.07,0.46-0.4,0.46c-0.47,0-0.63,0.36-0.35,0.8
		c0.31,0.5,0.19,0.61-0.31,0.31c-0.44-0.27-0.8-0.24-0.8,0.07c0,0.31-1.19,1.81-2.65,3.33c-2.31,2.41-4.07,5.19-3.29,5.19
		c0.14,0,2.29-2.03,4.77-4.51c2.48-2.48,4.4-4.51,4.27-4.51c-0.31,0,11.77-11.72,14.93-14.5c1.33-1.17,2.2-2.13,1.91-2.14
		c-1.27-0.03,19.17-17.69,38.86-33.58C617.88,240.36,620,238.37,619.81,238.19z M549.81,212.71c0.22-0.57,0.67-1.04,1-1.04
		s0.42,0.47,0.2,1.04c-0.22,0.57-0.67,1.04-1,1.04C549.68,213.75,549.59,213.28,549.81,212.71z M555.36,204.38
		c0.22-0.57,0.67-1.04,1-1.04c0.33,0,0.42,0.47,0.2,1.04c-0.22,0.57-0.67,1.04-1,1.04C555.23,205.42,555.14,204.96,555.36,204.38z
		 M560.46,196.49c0-0.38,0.31-0.89,0.69-1.12s0.69-0.12,0.69,0.27c0,0.38-0.31,0.89-0.69,1.12
		C560.77,196.99,560.46,196.87,560.46,196.49z M563.24,192.4c0-0.41,0.71-1.63,1.58-2.71c0.87-1.08,2.2-3.16,2.95-4.62
		s1.65-2.84,1.99-3.05c0.82-0.52-2.2,4.99-4.61,8.42C564.09,191.93,563.24,192.81,563.24,192.4z M565.57,247.39
		c-0.22-0.57-0.52-1.04-0.67-1.04s-0.27,0.47-0.27,1.04s0.3,1.04,0.67,1.04C565.66,248.43,565.79,247.96,565.57,247.39z
		 M566.48,244.83c-0.22-0.55-0.39-0.39-0.42,0.42c-0.03,0.73,0.13,1.14,0.36,0.91C566.66,245.93,566.68,245.33,566.48,244.83z
		 M569.84,200.57c0.69,0,0.25,1.1-1.11,2.77l-1.41,1.73l1.1-2.25C569.02,201.58,569.66,200.57,569.84,200.57z M595.84,158.45
		c0,0.42-5.73,10.05-15.97,26.86c-5.17,8.5-7.16,11.61-8.62,13.53l-1.06,1.39l0.45-1.39c0.25-0.76,0.68-1.7,0.97-2.08
		c0.29-0.38,2.15-3.81,4.14-7.63c4.79-9.19,8.52-15.6,12.5-21.5C591.47,162.86,595.84,157.58,595.84,158.45z M582.93,159.94
		c0.23-0.6,0.42-1.23,0.42-1.39s0.47-0.29,1.05-0.29c0.87,0,0.9,0.23,0.18,1.39C583.55,161.29,582.33,161.51,582.93,159.94z
		 M585.44,156.16c0.4-0.75,1.03-1.37,1.38-1.37c0.95,0,0.05,1.91-1.11,2.36C584.9,157.46,584.85,157.26,585.44,156.16z
		 M588.26,152.71c1.01-2.12,1.33-2.52,1.33-1.64c0,0.37-0.49,1.28-1.08,2.02C587.5,154.37,587.48,154.35,588.26,152.71z
		 M617.9,216.79c1.8-0.09,1.4,0.81-0.59,1.33c-0.92,0.24-1.34,0.08-1.17-0.44C616.29,217.23,617.08,216.83,617.9,216.79z
		 M620.8,95.41c0-0.23,1.2-1.87,2.67-3.64c1.47-1.77,3.05-3.93,3.5-4.8c0.46-0.87,1.13-1.4,1.48-1.18s-0.91,2.28-2.81,4.56
		s-3.46,4.46-3.46,4.82s-0.31,0.66-0.69,0.66C621.12,95.83,620.81,95.64,620.8,95.41z M621.88,236.37c-1.2,0.46-1.42,0.96-0.42,0.96
		c0.36,0,0.84-0.31,1.08-0.69C622.78,236.25,622.5,236.13,621.88,236.37z M621.1,139.53c-0.19,0-0.01-0.62,0.4-1.39
		c0.41-0.76,0.9-1.39,1.09-1.39s0.01,0.62-0.4,1.39C621.78,138.91,621.29,139.53,621.1,139.53z M629.13,84.67
		c0-1.39,16.07-20.58,25.2-30.11c1.1-1.14,2.47-2.78,3.04-3.64c1.02-1.53,2.28-2.09,2.28-1.03c0,0.57-4.93,6.34-9.19,10.75
		c-1.43,1.48-2.6,2.85-2.6,3.04c0,0.19-1.09,1.49-2.43,2.89c-4.14,4.33-12.13,14.05-12.13,14.73c0,0.36-0.47,0.65-1.04,0.65
		s-1.04,0.59-1.04,1.31s-0.47,1.49-1.04,1.71S629.13,85.07,629.13,84.67z M629.13,121.23c0,0.72,0.38,0.2,1.66-2.33
		c0.63-1.24,0.99-2.25,0.8-2.25C631.19,116.64,629.13,120.49,629.13,121.23z M631.9,115.3c0,1,0.5,0.78,0.96-0.42
		c0.24-0.62,0.12-0.9-0.27-0.65C632.21,114.45,631.9,114.94,631.9,115.3z M649.25,110.71c0,0.36,0.43,0.05,0.97-0.69
		c0.54-0.74,0.84-1.49,0.66-1.67C650.5,107.96,649.27,109.75,649.25,110.71z M660.34,60.89c0,0.57,0.57,0.2,1.47-0.95
		c0.86-1.1,0.84-1.13-0.26-0.26C660.89,60.2,660.34,60.75,660.34,60.89z M663.14,58.15c0.01,0.32,1.03-0.66,2.25-2.17
		c1.23-1.51,3.75-4.48,5.6-6.59c1.85-2.11,5.82-7.28,8.82-11.47c3-4.2,6.42-8.97,7.6-10.61c1.18-1.64,2.04-3.31,1.91-3.71
		c-0.13-0.4-2.3,2.03-4.82,5.41c-2.52,3.38-7.28,9.57-10.58,13.77C667.52,50.9,663.1,57.21,663.14,58.15z M665.76,64.57
		c0.37,1.11-0.37,2.83-1.22,2.83c-0.44,0-0.39-0.68,0.13-1.81C665.12,64.59,665.61,64.13,665.76,64.57z M700.36,175.48
		c0.44-0.01,14.02-7.11,19.63-10.26c3.62-2.04,8.93-4.95,11.79-6.49c2.86-1.53,6.31-3.48,7.66-4.32c1.35-0.85,4.36-2.5,6.68-3.67
		c5.52-2.79,11.08-6.55,10.13-6.87c-0.92-0.31-33.89,16.39-48.75,24.68c-6.46,3.61-7.87,4.37-12.32,6.67
		c-2.19,1.13-4.79,2.6-5.79,3.27c-0.99,0.67-4.58,2.66-7.98,4.43c-6.7,3.49-8.11,4.47-6.4,4.47c0.6,0,1.88-0.63,2.85-1.39
		c0.97-0.76,2.09-1.39,2.49-1.39s2.22-0.87,4.05-1.93c1.83-1.06,4.73-2.52,6.45-3.25c1.72-0.73,3.59-1.69,4.16-2.14
		C695.82,176.67,699.22,175.52,700.36,175.48z M682.77,169.74c-0.42,1.1-1.62,1.38-1.62,0.39c0-0.34,0.45-0.79,1-1.01
		C682.83,168.86,683.03,169.07,682.77,169.74z M690.51,197.85c1.53-0.86,2.15-1.04,1.39-0.41c-1.55,1.29-5.94,3.66-4.86,2.63
		C687.43,199.7,688.99,198.7,690.51,197.85z M689.13,167.25c0.76,0,1.81-0.27,2.33-0.6c1.6-1.01-0.14-1.3-1.98-0.32
		C687.96,167.14,687.91,167.25,689.13,167.25z M691.55,63.28c0,0.36,0.31,0.65,0.69,0.65s0.69-0.49,0.69-1.08
		c0-0.59-0.31-0.89-0.69-0.65C691.86,62.43,691.55,62.92,691.55,63.28z M693.29,332.91c-1.14-0.01-1.53-0.17-0.85-0.35
		c0.67-0.17,1.61-0.16,2.08,0.03C694.98,332.78,694.43,332.93,693.29,332.91z M695.34,165.08c0.97-0.44,1.77-1.22,1.77-1.73
		c0-1.37-0.68-1.14-2.49,0.8C692.79,166.12,692.86,166.21,695.34,165.08z M713.57,183.76c1.24-0.74,2.25-1.18,2.25-0.99
		c0,0.4-12.14,8.05-18.32,11.55c-2.25,1.28-3.9,2-3.66,1.61c0.24-0.39,4.27-2.99,8.96-5.77S712.33,184.5,713.57,183.76z
		 M701.14,161.79c0.79-0.42,1.62-1.07,1.85-1.44c0.27-0.43-0.15-0.47-1.14-0.1c-0.86,0.32-1.69,0.97-1.85,1.45
		C699.78,162.35,700.04,162.38,701.14,161.79z M704.38,316.5l1.39,0.6c0.76,0.33,2.17,0.59,3.12,0.58l1.73-0.02l-1.73-0.55
		c-0.95-0.31-2.36-0.56-3.12-0.58L704.38,316.5z M822.19,117.33c-0.37,0-2.05,0.88-3.75,1.95c-3.52,2.23-27.06,15.25-38.46,21.27
		c-4.2,2.22-9.66,5.12-12.14,6.45c-2.48,1.33-6.85,3.67-9.71,5.2c-2.86,1.53-7.54,4.09-10.4,5.7c-2.86,1.6-6.61,3.7-8.32,4.66
		c-12.64,7.05-28.39,16.7-28.42,17.41c-0.01,0.31,0.84-0.04,1.89-0.78s2.69-1.58,3.64-1.87c0.95-0.29,2.05-0.76,2.43-1.04
		c0.38-0.29,4.13-2.32,8.32-4.53s9.19-4.86,11.1-5.9c1.91-1.04,6.12-3.29,9.36-5c3.24-1.71,7.77-4.13,10.06-5.38s6.19-3.37,8.67-4.7
		s5.25-3.01,6.16-3.72c0.91-0.71,2.02-1.29,2.47-1.29s1.42-0.55,2.16-1.21c0.74-0.67,3.06-2.13,5.16-3.25
		c2.1-1.12,4.75-2.58,5.9-3.25c1.14-0.67,5.05-2.85,8.67-4.84c3.62-1.99,7.84-4.4,9.36-5.36c1.53-0.96,3.87-2.41,5.2-3.24
		C817.72,120.81,822.8,117.34,822.19,117.33z M711.67,148.61c0-0.24,3.98-2.45,8.84-4.91c11.01-5.56,12.81-6.38,12.32-5.57
		C732.31,138.97,711.67,149.19,711.67,148.61z M735.25,136.41c0.95-0.54,2.05-0.99,2.43-0.99c0.38,0-0.09,0.45-1.04,0.99
		c-0.95,0.54-2.05,0.99-2.43,0.99C733.83,137.4,734.3,136.96,735.25,136.41z M757.44,143.15c0,0.88,0.93,0.6,2.77-0.85l1.73-1.36
		l-2.25,0.83C758.46,142.24,757.45,142.85,757.44,143.15z M757.45,127.77c0,0.56,4-0.32,4.72-1.04c0.5-0.51-2.27-0.47-3.62,0.05
		C757.94,127.01,757.45,127.45,757.45,127.77z M826.46,108.2l-2.43,1.36c-1.33,0.75-5.71,3.23-9.71,5.52
		c-4.01,2.29-9.78,5.51-12.83,7.16c-3.05,1.65-8.48,4.65-12.05,6.68c-3.58,2.02-6.64,3.68-6.81,3.68c-0.17,0-2.39,1.2-4.94,2.67
		c-2.55,1.47-6.35,3.61-8.44,4.76c-5.28,2.88-9.02,5.14-9.02,5.45c0,0.56,3.97-1.31,14.44-6.77c11.28-5.88,27.44-14.62,29.25-15.82
		c0.57-0.38,1.98-1.2,3.12-1.82c4.6-2.51,15.38-9.41,17.34-11.08L826.46,108.2z M764.03,125.26c1.14-0.28,2.24-0.72,2.43-0.99
		c0.19-0.27,1.59-1.15,3.12-1.94c1.53-0.8,2.3-1.47,1.73-1.48c-1.08-0.03-7.45,3.1-8.66,4.26
		C762.2,125.52,762.7,125.58,764.03,125.26z M773.4,119.5c0,0.38,0.31,0.5,0.69,0.26c0.38-0.24,0.69-0.74,0.69-1.12
		s-0.31-0.5-0.69-0.26C773.71,118.61,773.4,119.12,773.4,119.5z M777.21,126.33c0.38,0,1.16-0.3,1.73-0.67s0.73-0.67,0.35-0.67
		c-0.38,0-1.16,0.3-1.73,0.67C776.99,126.03,776.83,126.33,777.21,126.33z M836.9,89.59c-0.8,0-5.54,2.94-5.82,3.61
		c-0.13,0.3-0.49,0.55-0.81,0.55s-5.52,3.08-11.56,6.83c-9.86,6.14-20.14,12.39-32.18,19.57c-4.91,2.93-6.28,4.11-4.76,4.11
		c0.56,0,1.67-0.45,2.46-1.01c0.79-0.55,3.28-2,5.53-3.22c2.25-1.22,4.59-2.64,5.19-3.16s1.36-0.94,1.68-0.94
		c0.84,0,15.43-8.49,23.58-13.72C829.62,96.19,838.33,89.59,836.9,89.59z M861.35,57.64c-0.15-0.45-1.56,0.86-3.14,2.91
		c-4.35,5.64-10.83,12.15-19.11,19.21c-4.11,3.5-7.23,6.37-6.94,6.37c0.29,0,3.34-2.09,6.78-4.65
		C848.92,74.05,862.14,59.99,861.35,57.64z M836.52,73.38c0-0.14,0.55-0.69,1.21-1.21c1.1-0.86,1.13-0.84,0.26,0.26
		C837.09,73.58,836.52,73.95,836.52,73.38z M840.33,69.48c0.24-0.38,0.57-0.69,0.73-0.69c0.17,0,0.31,0.31,0.31,0.69
		c0,0.38-0.33,0.69-0.73,0.69C840.23,70.17,840.1,69.86,840.33,69.48z M842.76,67.13c0-0.14,0.47-0.66,1.06-1.14
		c0.88-0.73,0.98-0.69,0.62,0.26C844.06,67.23,842.76,67.91,842.76,67.13z M866.13,48.15c-0.17-0.67-0.32-0.12-0.32,1.21
		s0.14,1.88,0.32,1.21C866.3,49.91,866.3,48.82,866.13,48.15z M867.08,34.8c-0.4,0-0.74,0.31-0.74,0.69c0,0.38,0.14,0.69,0.31,0.69
		c0.17,0,0.5-0.31,0.74-0.69C867.62,35.11,867.48,34.8,867.08,34.8z M872.26,39c-0.58-1.12-1.45-2.28-1.93-2.57
		c-0.54-0.33-0.46,0.11,0.22,1.17c0.6,0.94,1.32,2.1,1.6,2.57C873.19,41.93,873.28,40.97,872.26,39z M877.9,49.88
		c-0.19-0.48-0.35-0.09-0.35,0.87c0,0.95,0.16,1.34,0.35,0.87C878.09,51.14,878.09,50.36,877.9,49.88z M878.61,54.09
		c-0.22-0.55-0.38-0.39-0.42,0.42c-0.03,0.73,0.13,1.14,0.36,0.91C878.78,55.19,878.81,54.59,878.61,54.09z"/>
	<linearGradient id="SVGID_3_" gradientUnits="userSpaceOnUse" x1="987.2336" y1="31.1513" x2="987.2336" y2="504.0091">
		<stop  offset="0" style="stop-color:#EA706C"/>
		<stop  offset="1" style="stop-color:#EC008C"/>
	</linearGradient>
	<path class="st3" d="M867.61,474.09c0.85,3.22,0.72,3.67-0.44,1.5c-0.42-0.78-0.66-2.1-0.54-2.93
		C866.78,471.6,867.06,472.01,867.61,474.09z M1107.87,337.8c0,1.47-1.53,2.57-3.56,2.57c-1.16,0-2.79,0.83-4.2,2.13
		c-3.01,2.8-11.83,7.93-27.61,16.06c-10.89,5.61-22.2,11.82-35.89,19.7c-1.62,0.93-2.95,1.57-2.95,1.41c0-0.25,3.77-2.75,13.87-9.18
		c4.52-2.88,22.19-12.82,24.03-13.52c1-0.38,1.63-0.88,1.4-1.12c-0.69-0.69-19.63,9.37-31.33,16.63
		c-7.59,4.72-27.51,17.85-28.78,18.99c-0.57,0.51-4.32,3.32-8.32,6.24c-14.32,10.45-20.85,15.46-23.19,17.81
		c-1.31,1.31-2.49,2.27-2.63,2.13c-0.14-0.14-1.14,0.52-2.24,1.46c-1.09,0.94-2.25,1.71-2.57,1.71s-0.59,0.49-0.59,1.08
		c0,0.59-0.26,0.92-0.59,0.72c-0.32-0.2-1.47,0.56-2.56,1.69c-1.08,1.13-2.38,2.06-2.88,2.06s-0.91,0.26-0.91,0.57
		s-2.19,2.26-4.88,4.33c-7.05,5.44-9.77,7.72-11.33,9.49c-0.76,0.86-1.6,1.56-1.88,1.56c-0.88,0-23.94,23.41-29.08,29.52
		c-6.31,7.5-9.25,12.06-13.48,20.85c-3.2,6.67-5.94,9.52-8.51,8.85c-1.02-0.27-1.51,0.03-1.78,1.08c-0.45,1.71-2.37,1.83-6.34,0.42
		c-3.01-1.07-3.6-1.55-10.28-8.3c-5.36-5.41-9.83-13.62-9.66-17.73c0.18-4.12,1.75-12.28,2.01-10.4c0.13,0.95,0.43,2.2,0.67,2.77
		c0.67,1.63,0.71,1.91,0.81,4.9c0.05,1.68,0.37,2.64,0.78,2.39c0.38-0.24,0.69,0.06,0.69,0.65c0,0.59,0.36,1,0.81,0.91
		c0.45-0.1,1.12,0.84,1.49,2.08c0.37,1.24,1.07,2.25,1.56,2.25c0.49,0,1.02,0.39,1.19,0.87c0.5,1.41,1.11,0.31,1.43-2.6
		c0.17-1.5,0.65-2.84,1.07-2.98c0.42-0.14,0.77-0.58,0.77-0.97c0-0.74,7.8-12.23,11.31-16.65c2.64-3.32,3.83-3.79,3.44-1.37
		c-0.33,2.07,0.19,1.58,11.06-10.45c2.94-3.25,6.47-6.58,7.84-7.39c2.92-1.72,2.57-0.93-1.48,3.38
		c-9.34,9.93-20.72,25.26-18.49,24.89c1.47-0.24,1.46,0.29-0.04,2.68c-3.2,5.1-3.47,6.25-0.76,3.29c3.26-3.56,9.32-11.49,9.32-12.2
		c0-1.07,7.09-9.42,13.72-16.15c3.71-3.77,12.2-11.4,18.88-16.96c16.35-13.62,22.92-19.54,21.67-19.54c-0.35,0-3.42,2.08-6.82,4.61
		c-3.4,2.54-7.82,5.7-9.83,7.03c-2,1.33-3.64,2.74-3.64,3.13c0,0.39-0.2,0.51-0.44,0.27c-0.46-0.46-3.03,1.19-5.55,3.58
		c-0.82,0.77-1.66,1.23-1.87,1.02s4.05-4.83,9.46-10.26c8.03-8.06,17.88-16.47,29.27-24.97c4.63-3.46,7.04-5.29,7.78-5.91
		c0.46-0.39,1.64-1.07,2.63-1.52c0.98-0.45,1.63-1.21,1.45-1.7c-0.21-0.54,0.04-0.74,0.63-0.51c0.53,0.21,2-0.4,3.26-1.35
		c1.26-0.95,3.85-2.55,5.76-3.57c7.21-3.85,10.84-5.98,16.77-9.82c5.78-3.75,12.84-8.26,18.25-11.68c11.34-7.15,28.4-18.08,32.77-21
		c4.75-3.17,5.66-3.99,3.47-3.16c-1.57,0.6-15.07,8.42-21.33,12.36c-2.67,1.68-5.64,3.45-6.59,3.93c-0.95,0.48-3.16,1.85-4.91,3.06
		c-1.75,1.2-4.09,2.7-5.2,3.33c-1.12,0.63-2.97,1.75-4.11,2.49s-2.86,1.8-3.81,2.35c-2.35,1.36-13.12,8.42-15.18,9.95
		c-3.09,2.29-7.19,4.54-6.93,3.8c0.28-0.78,20.2-14.87,29.05-20.55c2.86-1.83,6.29-4.04,7.63-4.91c8.82-5.71,27.24-15.72,35.2-19.14
		c1.24-0.53,2.25-1.2,2.25-1.49c0-0.79-0.39-0.67-4.34,1.27c-2,0.99-4.52,2.07-5.6,2.4c-1.68,0.51-1.84,0.45-1.13-0.41
		c0.46-0.55,1.32-1.01,1.91-1.01c0.59,0,1.57-0.44,2.17-0.98c1.85-1.66,16.22-8.61,19.16-9.27c3.3-0.74,5.84-0.16,4.37,1
		c-0.51,0.41-1.87,0.96-3.01,1.22c-4.55,1.06-14.02,5.26-11.84,5.26c0.32,0,4.04-1.31,8.29-2.91c8.46-3.2,13.36-3.74,16.38-1.81
		c0.95,0.61,2.92,1.48,4.38,1.94c1.7,0.54,2.87,1.43,3.28,2.5c0.35,0.92,0.93,1.67,1.29,1.67c1.19,0,2.79,2.1,2.39,3.14
		c-0.43,1.11-2.32,1.42-2.32,0.37c0-1.06-2.85-1.64-3.71-0.76c-0.44,0.45-0.48,0.75-0.1,0.68c1.28-0.24,2.43,0.03,2.34,0.55
		c-0.42,2.64,0.1,3.12,2.86,2.68C1107.15,337.01,1107.87,337.13,1107.87,337.8z M878.02,440.76c-0.24-1.28,0.04-3.92,0.64-6.08
		c0.59-2.09,1.51-5.55,2.05-7.68c0.54-2.14,1.28-4.63,1.63-5.55c0.36-0.92,1.69-4.94,2.96-8.95c1.27-4,2.56-7.39,2.85-7.51
		c0.3-0.13,0.54-0.68,0.54-1.24c0-0.55,0.82-2.95,1.83-5.32c1-2.37,3.22-7.9,4.92-12.29c5.23-13.48,5.48-14.1,7.31-18.03
		c0.98-2.1,2.92-6.47,4.32-9.71c6.21-14.38,6.33-14.63,12.75-27.74c7.77-15.87,11.82-22.87,12.97-22.42
		c0.61,0.23,1.34-0.64,2.08-2.48c0.63-1.56,1.36-2.84,1.64-2.84s1.35-1.64,2.39-3.64c1.04-2,3-5.51,4.36-7.8s3.27-5.57,4.24-7.28
		c0.97-1.72,2.26-3.94,2.86-4.94c1.55-2.56,9.73-16.66,13.04-22.46c1.52-2.67,4.28-7.66,6.12-11.1c1.84-3.43,6.52-11.7,10.4-18.38
		c7.36-12.67,11.74-20.38,15.57-27.4c1.25-2.29,2.65-4.63,3.12-5.2c0.47-0.57,1.04-1.59,1.28-2.26c0.24-0.67,1.8-3.33,3.48-5.9
		c1.67-2.57,3.59-5.74,4.25-7.04c0.67-1.3,1.5-2.7,1.86-3.12c0.36-0.42,2.18-3.26,4.06-6.31c1.88-3.05,3.74-5.93,4.13-6.39
		c0.4-0.46,0.72-1.14,0.72-1.51s0.4-1.08,0.88-1.59c0.82-0.85,5.48-8.56,7.41-12.27c0.47-0.9,0.55-1.53,0.17-1.39
		c-0.62,0.23-12.86,18.11-14.19,20.71c-0.29,0.57-1.76,2.91-3.27,5.2c-1.5,2.29-3.75,5.88-4.98,7.98c-1.23,2.1-2.76,4.59-3.39,5.55
		c-0.63,0.95-2.01,3.04-3.05,4.64c-1.2,1.83-2.27,2.76-2.88,2.53c-0.58-0.22-0.98,0.06-0.98,0.68c0,0.58-0.25,1.16-0.54,1.29
		c-0.61,0.26-16.1,23.31-16.1,23.96c0,0.22-1.16,2.16-2.58,4.29c-2.67,4.01-11.29,18.19-11.29,18.57c0,0.12-1.87,3.37-4.16,7.22
		c-2.29,3.85-4.16,7.24-4.16,7.51c0,0.49-2.97,5.91-6.05,11.02c-0.85,1.41-1.85,3.25-2.22,4.09c-0.38,0.84-1.53,2.87-2.56,4.51
		c-1.04,1.64-1.8,3.1-1.7,3.25c0.1,0.15-0.1,0.46-0.44,0.69c-0.34,0.23-1.49,2.14-2.56,4.24c-1.07,2.1-2.38,4.31-2.91,4.91
		s-0.96,1.31-0.96,1.58c0,0.61-3.49,6.11-4.47,7.05c-0.4,0.39-1.2,1.61-1.77,2.72c-0.57,1.11-1.41,2.14-1.87,2.29
		c-0.98,0.32,0.98-5.18,2.34-6.6c0.47-0.49,0.67-1.37,0.45-1.96c-0.23-0.59,0.26-1.97,1.07-3.07s1.48-2.31,1.48-2.69
		c0-0.84,10.36-20.65,11.82-22.6c0.29-0.38,1.18-1.87,1.98-3.3c0.8-1.43,2.14-3.77,2.96-5.2s2.07-3.75,2.77-5.16
		c0.7-1.41,1.58-2.75,1.96-2.99c0.38-0.24,0.7-1.04,0.7-1.77c0-0.74,0.62-1.73,1.39-2.21c0.76-0.48,1.39-1.34,1.39-1.93
		s1.87-4.87,4.16-9.53c2.29-4.66,4.17-8.86,4.18-9.35c0.01-0.48,0.63-1.66,1.37-2.61c0.75-0.95,1.36-2.13,1.37-2.62
		c0.02-1.38,5.15-11.27,12.07-23.29c3.48-6.04,6.74-11.74,7.23-12.66c0.5-0.92,1.32-1.67,1.83-1.67c0.51,0,1.13-1.09,1.38-2.43
		c0.27-1.45,0.86-2.43,1.46-2.43c0.61,0,1.01-0.68,1.01-1.71c0-0.98,0.57-2.02,1.33-2.42c0.73-0.39,1.54-1.65,1.79-2.8
		c0.25-1.15,0.76-2.09,1.13-2.09s1.14-1.01,1.71-2.25c0.57-1.24,1.77-3.5,2.66-5.03c0.9-1.53,2.23-3.87,2.97-5.2
		c0.74-1.34,2.38-4.3,3.64-6.59c1.27-2.29,2.7-4.63,3.2-5.2s1.23-1.82,1.64-2.77s1.04-2.2,1.41-2.77
		c0.89-1.39,8.88-15.77,12.14-21.85c2.83-5.27,13.27-23.4,17.99-31.22c5.16-8.55,14.62-26.63,18.39-35.15
		c2.49-5.61,3.47-11.08,2.63-14.72c-0.53-2.32-0.52-3.43,0.03-3.98c1.04-1.04,2.99-0.19,3.44,1.5c0.24,0.92,0.95,1.38,2.13,1.38
		c1.21,0,2.74,1.04,4.85,3.29c6.37,6.8,8.17,14.62,6.08,26.47c-1.97,11.2-8.74,29.29-10.12,27.06c-0.31-0.51-0.38-1.22-0.16-1.58
		c0.22-0.36,0.05-0.44-0.39-0.17c-0.44,0.27-0.8,0.96-0.8,1.53c0,1.13-0.12,1.37-21.63,43.97c-8.19,16.21-17.39,33.85-20.46,39.19
		c-3.06,5.34-6.59,11.58-7.84,13.87c-2.35,4.31-6.53,11.71-7.64,13.53c-0.35,0.57-4.28,7.28-8.74,14.91
		c-4.46,7.63-9.3,15.8-10.77,18.16c-6.99,11.28-18.25,32.07-26.04,48.08c-4.73,9.73-9.06,18.57-9.62,19.65
		c-0.56,1.08-1.02,2.36-1.02,2.85s-0.61,1.67-1.36,2.62s-1.54,2.79-1.76,4.08c-0.22,1.29-0.91,2.74-1.54,3.21
		c-0.63,0.47-1.23,2.01-1.34,3.41c-0.2,2.55-1.58,5.01-1.67,2.97c-0.02-0.55-0.34-0.27-0.7,0.62s-0.46,1.93-0.23,2.3
		c0.37,0.6-0.76,3.61-4.24,11.33c-0.51,1.14-1.31,3.09-1.76,4.33s-1.1,2.25-1.44,2.25s-0.61,0.74-0.61,1.64
		c0,0.9-0.58,2.39-1.28,3.3c-0.71,0.91-1.48,2.43-1.73,3.39c-0.25,0.95-0.76,2.2-1.15,2.77c-0.62,0.93-0.78,0.93-1.45,0
		c-0.59-0.81-0.67-0.64-0.36,0.79c0.51,2.34-0.8,6.18-1.96,5.73c-0.6-0.23-0.9,0.49-0.97,2.29c-0.05,1.45-0.55,2.96-1.11,3.37
		c-0.55,0.41-1.23,1.66-1.5,2.78c-0.27,1.12-0.9,2.82-1.4,3.77c-0.5,0.95-1.89,4.08-3.07,6.94c-1.19,2.86-2.57,6.14-3.08,7.28
		c-0.51,1.14-1.61,3.8-2.46,5.9c-0.84,2.1-2.12,5.15-2.85,6.78c-0.72,1.63-1.31,3.45-1.31,4.03c0,0.59-0.36,1.74-0.8,2.57
		c-0.78,1.47-0.81,1.47-1.34,0.13c-0.38-0.98-0.52-0.58-0.48,1.4c0.03,1.53-0.18,3.53-0.48,4.45c-0.5,1.55-0.59,1.58-1.25,0.39
		c-0.63-1.12-0.92-0.86-2.4,2.14c-1.71,3.49-4.72,11.2-7.26,18.68c-0.78,2.29-1.69,4.46-2.03,4.82c-0.33,0.36-0.61,1.38-0.61,2.25
		c0,0.88-0.25,1.6-0.56,1.6c-0.31,0-0.17-2.26,0.32-5.03c0.49-2.77,0.85-6.59,0.82-8.5c-0.04-1.91-0.2-2.77-0.37-1.91
		c-0.36,1.84-1.55,2.09-1.69,0.35c-0.25-3.13,0.38-6.5,2.43-12.97c0.6-1.89,0.93-3.59,0.74-3.78c-0.19-0.19-0.53,0.34-0.75,1.18
		c-0.22,0.84-0.68,1.53-1.01,1.53s-0.61,0.35-0.61,0.77c0,0.42-1.83,5.03-4.06,10.23c-2.23,5.2-4.25,10-4.49,10.67
		c-0.24,0.67-0.91,1.21-1.49,1.21c-1.17,0-1.42-1.43-0.42-2.46c0.35-0.36,0.82-2.73,1.04-5.25c0.66-7.62,1.21-12.02,1.58-12.62
		c0.19-0.31,0.5-1.56,0.7-2.77c0.19-1.22,0.65-2.84,1.01-3.6c0.54-1.12,0.39-1.07-0.76,0.25c-0.79,0.9-1.43,2.08-1.43,2.62
		c0,0.54-0.77,2.51-1.72,4.37s-2.83,6.92-4.2,11.25c-1.37,4.32-2.77,8.39-3.13,9.04c-0.35,0.65-0.84,2.45-1.09,3.99
		C879.4,443.62,878.59,443.84,878.02,440.76z M881.17,397.25c0-0.95,0.16-1.34,0.35-0.87c0.19,0.48,0.19,1.26,0,1.73
		C881.33,398.6,881.17,398.21,881.17,397.25z M883.54,390.32c0.25-0.95,0.73-2.2,1.06-2.77c0.47-0.81,0.56-0.74,0.41,0.35
		c-0.11,0.76-0.58,2.01-1.06,2.77C883.13,391.96,883.11,391.93,883.54,390.32z M886.61,382.38c0-0.55,0.28-1.18,0.63-1.39
		c0.35-0.21,0.47,0.24,0.27,1C887.08,383.61,886.61,383.82,886.61,382.38z M892.33,500.14c-0.48-0.19-1.26-0.19-1.73,0
		s-0.09,0.35,0.87,0.35C892.42,500.49,892.81,500.33,892.33,500.14z M896.89,390.66l1.21-1.65c0.67-0.91,1.95-3.04,2.85-4.75
		c0.91-1.7,2.11-3.56,2.68-4.12s0.87-1.29,0.68-1.61c-0.2-0.32-0.12-0.68,0.17-0.81c0.5-0.22,4.28-7.65,8.14-16
		c1.01-2.19,1.64-4.29,1.4-4.68s-0.07-0.7,0.38-0.7s0.64-0.45,0.43-1c-0.21-0.55-0.08-1.09,0.28-1.22c0.36-0.12,0.79-0.9,0.95-1.73
		c0.16-0.83,0.64-2.16,1.06-2.95c0.42-0.79,0.63-1.43,0.46-1.43c-0.17,0,0.27-1.58,0.97-3.51c0.82-2.25,0.99-3.42,0.48-3.24
		c-1.04,0.35-4.23,5.77-5.31,9.05c-0.46,1.41-1.13,2.56-1.48,2.56c-0.35,0-0.64,0.39-0.64,0.87s-0.92,2.58-2.05,4.68
		c-1.13,2.1-2.07,4.36-2.08,5.03c-0.02,0.67-0.28,1.21-0.6,1.21s-1.59,2.58-2.84,5.72c-1.25,3.15-2.56,6.35-2.9,7.11
		c-1.13,2.52-2.65,8.2-2.32,8.73c0.17,0.28,0.05,0.62-0.29,0.75s-0.83,1.01-1.11,1.97L896.89,390.66z M909.5,418.75
		c-0.55,0.85-0.67,0.76-0.68-0.48c-0.01-0.84,0.3-1.71,0.68-1.95C910.38,415.78,910.38,417.39,909.5,418.75z M919.61,339.78
		c0.44,0.71,0.6,0.71,0.83,0c0.16-0.48,0.1-1.06-0.13-1.29C919.62,337.78,919.03,338.84,919.61,339.78z M919.9,316.83
		c0-0.78,0.31-1.43,0.69-1.43c0.38,0,0.69,0.45,0.69,1c0,0.55-0.31,1.19-0.69,1.43C920.21,318.07,919.9,317.62,919.9,316.83z
		 M922.68,311.67c0-0.57,0.31-1.23,0.69-1.47c0.38-0.24,0.69,0.04,0.69,0.61c0,0.57-0.31,1.23-0.69,1.47
		C922.99,312.52,922.68,312.25,922.68,311.67z M925.3,307.1c0.17-1.16,0.63-2.31,1.02-2.55c0.47-0.29,0.54,0.25,0.22,1.57
		C925.85,308.92,924.93,309.65,925.3,307.1z M929.69,430.54c1.21,0,0.58,0.67-1.64,1.75l-2.25,1.09l1.64-1.42
		C928.34,431.18,929.35,430.55,929.69,430.54z M932.08,421.53c0.17,0,0.3,0.31,0.3,0.69c0,0.38-0.33,0.69-0.73,0.69
		s-0.54-0.31-0.31-0.69C931.58,421.84,931.91,421.53,932.08,421.53z M947.12,407.66c0.39,0,0.31,0.46-0.17,1.04
		c-0.47,0.57-1.18,1.04-1.56,1.04c-0.39,0-0.31-0.46,0.17-1.04C946.04,408.12,946.74,407.66,947.12,407.66z M1004.25,363.87
		c-7.21,4.82-13.61,9.07-14.22,9.45s-2.36,1.64-3.89,2.8c-1.53,1.16-3.56,2.6-4.53,3.21c-0.96,0.61-2.52,1.92-3.47,2.91
		c-0.94,1-2.03,1.82-2.41,1.83c-0.38,0.01-2.98,2.2-5.78,4.87c-2.8,2.67-5.37,4.67-5.72,4.46c-0.35-0.22-0.63,0.09-0.63,0.69
		c0,0.6-0.27,1.08-0.61,1.08c-0.33,0-1.83,1.17-3.32,2.6c-4.58,4.38-10.46,9.19-11.26,9.19c-0.42,0-0.76-0.34-0.76-0.76
		s0.63-0.92,1.39-1.12c0.76-0.2,1.39-0.77,1.39-1.27c0-0.5,0.63-1.11,1.39-1.35s1.39-0.81,1.39-1.26
		c0.01-2.33,24.43-22.31,39.1-31.99c15.29-10.09,36.04-21.99,30.95-17.74c-0.95,0.79-2.67,1.94-3.82,2.55
		C1018.29,354.62,1011.46,359.06,1004.25,363.87z M955.31,263.04c0-0.38,0.61-1.47,1.36-2.43c0.75-0.95,1.36-1.42,1.36-1.04
		c0,0.38-0.61,1.47-1.36,2.43C955.92,262.95,955.31,263.42,955.31,263.04z M1029.63,132.99c2.1-3.62,4.65-8.07,5.66-9.88
		c4.47-8.03,5.62-10.04,7.15-12.47c0.89-1.42,1.62-2.86,1.62-3.19s0.63-1.32,1.39-2.2c0.76-0.88,1.39-2.15,1.39-2.82
		c0-0.67,0.23-1.33,0.52-1.45s1.61-2.49,2.95-5.25c1.33-2.76,2.66-5.02,2.95-5.03s0.52-0.33,0.52-0.71c0-0.38,1.83-4.52,4.07-9.19
		c8.4-17.53,10-21.29,11.89-27.91c1.51-5.29,1.77-9.04,0.69-9.71c-0.42-0.26-0.7,0.75-0.72,2.56c-0.02,1.64-0.5,4.24-1.08,5.76
		c-0.58,1.53-1.38,3.87-1.77,5.2c-0.4,1.34-1.12,2.9-1.61,3.47c-0.49,0.57-1.13,1.82-1.42,2.77c-0.29,0.95-1.47,3.45-2.62,5.55
		c-1.15,2.1-2.53,4.75-3.06,5.9c-0.53,1.14-1.26,2.55-1.62,3.12s-0.97,1.77-1.35,2.67c-0.39,0.9-1.72,3.24-2.96,5.2
		c-2.75,4.35-2.85,4.52-8.28,13.83c-4.18,7.17-6.35,10.86-8.31,14.15c-0.5,0.83-2.24,3.88-3.87,6.76s-3.25,5.25-3.59,5.25
		c-0.35,0-0.82,0.61-1.06,1.36c-0.24,0.75-2.91,5.08-5.94,9.62c-3.03,4.54-5.51,8.61-5.51,9.04c0,0.43-0.25,0.78-0.57,0.78
		s-1.09,1.01-1.74,2.25c-0.65,1.24-1.95,3.5-2.9,5.03c-0.95,1.53-2.83,4.65-4.19,6.94c-1.35,2.29-2.76,4.63-3.12,5.2
		c-5.45,8.57-11.48,18.55-13.2,21.85c-1.19,2.29-2.45,4.5-2.79,4.92c-0.34,0.42-1.59,2.6-2.78,4.86s-2.58,4.57-3.08,5.14
		c-0.5,0.57-1.25,1.82-1.67,2.77c-0.42,0.95-2.04,4.07-3.6,6.93c-2.78,5.08-5.15,9.66-8.26,15.95c-2.48,5.01,0.2,2.11,3.77-4.07
		c1.69-2.93,7.4-11.94,12.68-20.02c5.28-8.08,11.79-18.15,14.46-22.39s5.18-8.07,5.58-8.53c0.4-0.46,1.9-2.78,3.34-5.16
		c2.63-4.35,3.53-5.38,2.75-3.12c-0.81,2.34,9.35-13.43,12.41-19.25C1024.41,142.23,1027.53,136.61,1029.63,132.99z M984.23,382.6
		c1.1-0.86,1.12-0.84,0.26,0.26c-0.91,1.15-1.48,1.52-1.48,0.95C983.02,383.67,983.57,383.12,984.23,382.6z M993.16,376.64
		c0.14,0.14-0.49,0.91-1.41,1.71c-0.92,0.8-1.85,1.27-2.08,1.04c-0.22-0.22-0.41-0.09-0.41,0.29s-0.8,1.06-1.78,1.51
		s-1.59,0.51-1.37,0.15C986.68,380.43,992.84,376.32,993.16,376.64z M1003.18,199.92c0,0.38,0.46,0.09,1.02-0.65
		c0.56-0.74,1.02-1.66,1.02-2.04c0-0.38-0.46-0.09-1.02,0.65C1003.64,198.62,1003.18,199.54,1003.18,199.92z M1005.91,195.8
		c0,0.59,2.13-2.56,5.65-8.37c1.39-2.29,3.19-5.35,4-6.81s2.02-3.47,2.68-4.48s0.82-1.61,0.37-1.32
		C1017.74,175.36,1005.91,194.91,1005.91,195.8z M1028.77,366.05c-2.4,1.28-6.44,4.15-5.86,4.15c0.31,0,2.07-0.97,3.91-2.15
		C1030.2,365.89,1031.41,364.64,1028.77,366.05z M1028.8,144.78c0-0.38-0.14-0.69-0.31-0.69c-0.17,0-0.5,0.31-0.74,0.69
		c-0.24,0.38-0.1,0.69,0.31,0.69C1028.47,145.47,1028.8,145.16,1028.8,144.78z M1048.72,354.51c-0.3-0.3-4.75,2.05-11.73,6.19
		c-1.41,0.84-3.44,2.23-4.51,3.1c-1.79,1.46-1.81,1.52-0.23,0.76c0.94-0.45,3.29-1.79,5.22-2.97c1.93-1.18,4.12-2.54,4.88-3.01
		c0.75-0.47,2.57-1.51,4.04-2.3C1047.85,355.49,1048.9,354.7,1048.72,354.51z M1049.47,140.25c0.21,0.21,0,0.77-0.47,1.24
		c-0.69,0.68-0.77,0.6-0.39-0.39C1048.87,140.43,1049.26,140.04,1049.47,140.25z M1057.65,349.57c-0.39-0.39-8.02,3.61-8.03,4.21
		c0,0.31,1.85-0.46,4.13-1.71C1056.01,350.82,1057.77,349.7,1057.65,349.57z M1052.25,135.4c0.21,0.21,0,0.77-0.47,1.24
		c-0.69,0.68-0.77,0.6-0.39-0.39C1051.65,135.57,1052.03,135.18,1052.25,135.4z M1054.73,131.22c-0.46,1.2-0.96,1.42-0.96,0.42
		c0-0.36,0.31-0.84,0.69-1.08C1054.85,130.32,1054.96,130.6,1054.73,131.22z M1057.91,125.01c0,0.38-0.3,1.16-0.67,1.73
		c-0.37,0.57-0.67,0.73-0.67,0.35c0-0.38,0.3-1.16,0.67-1.73C1057.61,124.79,1057.91,124.63,1057.91,125.01z M1060.79,347.31
		c-0.38,0-0.89,0.31-1.12,0.69c-0.24,0.38-0.12,0.69,0.26,0.69c0.38,0,0.89-0.31,1.12-0.69
		C1061.29,347.62,1061.17,347.31,1060.79,347.31z M1067.64,344.08c0-0.28-4.31,2.08-5.49,3.01c-1.11,0.87,1.26-0.04,3.16-1.22
		C1066.59,345.07,1067.64,344.27,1067.64,344.08z M1092.98,327.52c-4.31,0.63-6.91,1.62-17.59,6.7c-14.43,6.86-15.59,8.6-1.51,2.26
		c4.77-2.15,11.58-4.93,15.14-6.19C1096.63,327.6,1097.74,326.83,1092.98,327.52z M1074.26,86.9c0.55-0.74,1.01-1.62,1.01-1.95
		c0-1.14-1.22,0.16-1.62,1.72C1073.27,88.2,1073.29,88.2,1074.26,86.9z M1076.82,353.33c-0.86,0.22-1.74,0.67-1.95,1.01
		c-0.59,0.95,0.68,0.72,2.17-0.4C1078.34,352.97,1078.34,352.94,1076.82,353.33z M1099.94,329.97c0.17,0,0.3-0.31,0.3-0.69
		s-0.33-0.69-0.73-0.69s-0.54,0.31-0.31,0.69S1099.77,329.97,1099.94,329.97z"/>
	<linearGradient id="SVGID_4_" gradientUnits="userSpaceOnUse" x1="1166.8972" y1="162.2399" x2="1166.8972" y2="410.748">
		<stop  offset="0" style="stop-color:#EA706C"/>
		<stop  offset="1" style="stop-color:#EC008C"/>
	</linearGradient>
	<path class="st4" d="M1228.43,304.43c-2.46,3.97-19.3,27.14-33.77,46.47c-34.27,45.78-37.68,49.89-46.23,55.63
		c-5.14,3.45-14.05,5.17-18.99,3.67c-8.13-2.48-17.58-8.81-21.65-14.49c-4.48-6.26-6.18-19.13-4.03-30.59
		c2.12-11.3,6.95-26.44,12.16-38.15c0.34-0.76,2.24-5.13,4.23-9.71c4.92-11.35,13.43-27.9,23.9-46.47
		c6.86-12.18,9.34-16.81,9.34-17.45c-0.01-0.81-9.67,14-14,21.45c-1.94,3.35-3.84,6.28-4.21,6.51c-0.65,0.4,1.42-3.42,4.82-8.94
		c0.88-1.42,1.6-2.71,1.6-2.86c0-0.15,1.76-3.2,3.91-6.78c3.56-5.93,11.76-20.34,14.91-26.23c1.82-3.4,2.22-3.65,4.46-2.8
		c2.84,1.08,3.19,2.06,1.66,4.54c-0.74,1.19-1.15,2.36-0.91,2.59c1.2,1.2-1.97,7.95-10.03,21.35
		c-12.9,21.47-19.39,33.72-30.27,57.16c-7.3,15.72-13.6,36.16-13.53,43.92c0.03,3.62,1.16,1.47,2.39-4.55
		c0.53-2.58,1.43-5.93,2.02-7.46c0.58-1.53,1.07-3.34,1.09-4.03c0.02-0.69,0.61-2.72,1.32-4.51c0.71-1.79,1.99-5.12,2.84-7.41
		c4.1-11,14.82-33.98,20.85-44.73c1.4-2.48,3.48-6.23,4.63-8.33c3.24-5.93,5.17-9.3,5.73-10.06c0.29-0.38,1.46-2.41,2.6-4.51
		c1.14-2.1,2.79-5.06,3.66-6.59c5.12-9,8.34-15.98,8.34-18.09c0-4.54,5.61-5.76,8.19-1.77c0.65,1,2.16,2.68,3.36,3.74
		c1.7,1.5,2.42,2.97,3.26,6.7c1.55,6.85,0.56,9.72-8.26,24c-9.19,14.87-17.85,30.43-24.71,44.39c-2.63,5.34-5.11,10.31-5.52,11.05
		c-0.41,0.74-1,2.14-1.31,3.12c-0.31,0.98-1.55,4.12-2.77,6.98c-3.45,8.11-7.48,20.41-9.44,28.78c-2.85,12.17-2.33,26.71,0.97,26.71
		c1.2,0,9.02-6.71,13.92-11.95c4.39-4.7,8.54-10.15,14.38-18.92c5.73-8.6,53.59-70.91,58.31-75.92c3.32-3.52-1.18,2.61-17.12,23.31
		c-9.94,12.92-18.39,24.11-18.77,24.87s0.88-0.26,2.81-2.28c1.93-2.02,3.51-3.48,3.51-3.25c0,0.23-0.96,1.88-2.14,3.67l-2.14,3.25
		l2.1-2.43c1.16-1.34,2.51-3.21,3-4.16c0.5-0.95,1.42-2.2,2.05-2.77c0.63-0.57,7.59-9.38,15.47-19.57
		c7.87-10.19,15.12-19.17,16.11-19.94c2.17-1.71,5.77-1.91,5.77-0.33c0,0.59,0.28,0.91,0.61,0.7c0.34-0.21,1,0.56,1.48,1.71
		C1231.61,295.6,1230.77,300.66,1228.43,304.43z M1106.28,345.28c-0.05-1.28,1.38-5.67,1.74-5.31c0.13,0.13-0.2,1.63-0.73,3.33
		C1106.76,345,1106.3,345.89,1106.28,345.28z M1111.61,366.16c-0.29,0-0.48,2.11-0.43,4.68c0.1,4.85,0.39,4.31,0.75-1.39
		C1112.04,367.64,1111.9,366.16,1111.61,366.16z M1128.31,366.16c0-2.11-0.13-1.93-0.96,1.39c-0.52,2.1-0.93,4.44-0.91,5.2
		C1126.52,375.1,1128.32,368.75,1128.31,366.16z M1129.79,360.28c0.4-0.25,0.72-1.26,0.72-2.25c0-2.17-0.33-1.92-0.97,0.74
		C1129.23,360.05,1129.31,360.57,1129.79,360.28z M1180.93,343.27c-0.39,0-7.92,9.81-18.96,24.7c-7.28,9.82-8.7,11.57-14,17.24
		c-5.21,5.58-11.1,10.7-13.82,12.01c-1.74,0.84-2.07,1.29-1.47,2c0.87,1.05,2.67,1.24,2.67,0.27c0-0.36,0.7-0.86,1.56-1.13
		c0.86-0.26,2.96-1.61,4.68-3c3.76-3.04,11.79-11.25,11.79-12.05c0-0.32,0.32-0.96,0.72-1.42c0.39-0.46,2.98-4.12,5.76-8.12
		c4.42-6.39,17.85-25.52,20.49-29.19C1180.88,343.87,1181.14,343.27,1180.93,343.27z M1133.67,283.42c0.26-0.68,0.65-1.07,0.86-0.86
		c0.21,0.21,0,0.77-0.47,1.24C1133.38,284.49,1133.3,284.41,1133.67,283.42z M1140.18,285.7c0.4,0,0.73-0.31,0.73-0.69
		c0-0.38-0.14-0.69-0.31-0.69c-0.17,0-0.5,0.31-0.73,0.69C1139.64,285.39,1139.77,285.7,1140.18,285.7z M1143.18,281.02
		c0.54-1.05,2.64-4.72,4.67-8.15c5.65-9.56,7.6-13.11,7.61-13.86c0.03-1.67-12.4,19.03-13.49,22.46
		C1141.32,283.54,1142.02,283.28,1143.18,281.02z M1146.78,317.56c0.68,1.11,1.08,0.89,0.62-0.33c-0.23-0.59-0.56-0.92-0.74-0.74
		C1146.47,316.67,1146.53,317.15,1146.78,317.56z M1147.85,313.11c0,0.02,0.62,0.09,1.39,0.15c0.94,0.07,1.39-0.32,1.39-1.23
		c0-1.27-0.07-1.28-1.39-0.15C1148.47,312.53,1147.85,313.08,1147.85,313.11z M1152.79,307.39c0.47-0.47,0.69-1.03,0.47-1.24
		c-0.21-0.21-0.6,0.17-0.86,0.86C1152.02,307.99,1152.1,308.07,1152.79,307.39z M1160.98,293.33c0.4,0,0.73-0.31,0.73-0.69
		s-0.14-0.69-0.31-0.69s-0.5,0.31-0.73,0.69C1160.44,293.02,1160.58,293.33,1160.98,293.33z M1179.06,211.59
		c-2.52-2.52-2.61-4.18-0.65-13.29c0.78-3.62,1.69-8.77,2.02-11.44c0.78-6.31,2.29-10.67,5.76-16.62c3.48-5.97,5.45-8,7.79-8
		c1.45,0,1.73,0.26,1.4,1.29c-0.71,2.22,1.27,3.12,5.85,2.64c2.43-0.25,4.29-0.15,4.54,0.25c0.23,0.37,1.03,0.68,1.78,0.68
		c1.76,0,3.32,3.14,2.15,4.32c-1.48,1.48-0.85,2.05,1.81,1.6c3.55-0.6,5.68,0.33,6.78,2.96c0.84,2.01,0.79,2.37-0.65,4.12
		c-0.87,1.05-3.27,4.82-5.34,8.37c-5.84,10.02-6.68,11.37-7.41,11.84c-0.37,0.24-0.91,1.21-1.21,2.17
		c-0.29,0.95-1.07,2.51-1.72,3.47c-0.65,0.95-1.92,3.61-2.82,5.9c-2.11,5.37-2.91,6.2-6.05,6.26c-1.43,0.03-4,0.27-5.71,0.53
		c-2.35,0.36-3.5,0.21-4.68-0.64c-0.86-0.62-1.56-1.84-1.56-2.71C1181.14,214.39,1180.2,212.74,1179.06,211.59z"/>
	<linearGradient id="SVGID_5_" gradientUnits="userSpaceOnUse" x1="1258.1389" y1="235.112" x2="1258.1389" y2="419.3165">
		<stop  offset="0" style="stop-color:#EA706C"/>
		<stop  offset="1" style="stop-color:#EC008C"/>
	</linearGradient>
	<path class="st5" d="M1326.78,286.44c-0.56,1.33-1.47,3.91-2.03,5.72c-0.55,1.81-1.3,3.29-1.67,3.29s-0.67,0.54-0.67,1.2
		c0,0.66-0.75,2.77-1.67,4.68c-6.35,13.2-8.19,16.9-9.26,18.74c-0.67,1.14-3.18,5.51-5.59,9.71s-5.75,9.81-7.43,12.49
		c-1.68,2.67-3.35,5.49-3.7,6.27c-0.35,0.78-1.14,1.83-1.75,2.34c-0.61,0.51-1.11,1.22-1.11,1.57c0,0.58-3.87,5.93-4.92,6.81
		c-0.23,0.19-0.54,0.71-0.69,1.16c-0.72,2.11-15.46,18.51-27.33,30.39c-14.8,14.82-23.36,22.02-30.55,25.69
		c-5.93,3.03-9.38,3.52-13.14,1.88c-5-2.18-7.14-3.81-14.81-11.27c-3.67-3.57-5.32-5.9-7.92-11.23
		c-5.73-11.74-6.53-19.23-3.92-36.87c2.16-14.63,9.87-36.99,19.08-55.4c6.2-12.39,11.1-20.65,23.52-39.73
		c16.93-25.99,16.94-26.01,18.91-26.01c2.15,0,10.97,5.71,11.59,7.51c0.22,0.64,1.38,1.79,2.57,2.55c3,1.92,4.46,6.89,3.34,11.38
		c-0.75,3.04-5.68,12.88-8.34,16.66c-2.76,3.92-14.63,23.03-18.55,29.88c-13.67,23.82-21,41.28-27.67,65.89
		c-1.49,5.5-1.8,8.21-1.88,16.44c-0.06,6.67,0.17,10.11,0.72,10.66c0.61,0.61,3.69-2.07,12.84-11.24
		c6.62-6.62,13.28-13.57,14.8-15.44c1.52-1.87,3.31-3.97,3.98-4.68c0.67-0.71,1.21-1.43,1.21-1.61c0-0.17,1.24-1.66,2.77-3.29
		s2.77-3.21,2.77-3.5c0.01-0.29,0.55-1.09,1.22-1.79s1.53-1.76,1.91-2.37c0.38-0.6,4.13-6.18,8.32-12.4
		c4.2-6.22,7.75-11.63,7.89-12.03c0.14-0.39,1.39-2.43,2.76-4.53c2.78-4.24,4.47-7.13,5.63-9.65c0.42-0.92,1.24-2.02,1.82-2.45
		c0.58-0.42,1.12-1.23,1.2-1.8c0.08-0.57,0.85-2.16,1.7-3.53c0.85-1.38,1.54-3.01,1.54-3.63s0.25-1.13,0.57-1.13
		c0.66,0,6.88-12.98,9.14-19.07c0.85-2.29,1.93-5.1,2.41-6.24c0.48-1.14,1.19-3.33,1.58-4.86c0.39-1.53,1.04-3.71,1.43-4.86
		c0.79-2.3,2.11-8.79,2.7-13.34c0.35-2.66,0.22-2.99-1.37-3.6c-2.42-0.92-2.92-2-1.61-3.45c1.38-1.53,0.81-2.15-2-2.15
		c-1.85,0-2.35-0.39-3.31-2.6c-2.69-6.19-1.95-8.5,2.73-8.5c4.13,0,15.17,6.27,21.68,12.31c6.65,6.18,9.3,11.02,10.53,19.24
		C1329.63,272.61,1328.71,281.85,1326.78,286.44z M1227.76,286.79c5.54-9.13,6.2-10.34,5.42-9.86c-0.98,0.61-9.72,13.9-13.77,20.95
		c-4.21,7.34-10.74,20.65-10.74,21.92c0,0.73-0.27,1.32-0.6,1.32s-1.08,1.64-1.67,3.64c-0.59,2-1.88,5.82-2.87,8.49
		c-1.67,4.5-4.47,13.89-5.59,18.74c-0.88,3.79,0.25,1.41,2.3-4.89C1206.25,328.72,1218.17,302.59,1227.76,286.79z M1202.42,390.13
		c0-0.95-0.27-1.73-0.6-1.73s-0.45,0.78-0.27,1.73c0.18,0.95,0.45,1.73,0.6,1.73C1202.3,391.87,1202.42,391.09,1202.42,390.13z
		 M1205.16,380.07c1.35-8.82,8.68-31.95,13.97-44.13c7.49-17.22,13.01-27.38,27.11-49.87c8.78-14.01,12-19.66,11.49-20.17
		c-0.15-0.15-1.46,1.44-2.91,3.54c-1.44,2.1-2.88,3.82-3.18,3.82c-0.68,0,1.05-4.62,3.63-9.67c1.06-2.07,1.83-3.87,1.71-3.98
		c-0.32-0.32-21.77,31.63-23.37,34.8c-0.38,0.76-1.67,2.95-2.86,4.86c-4.83,7.74-12.53,24.14-17.31,36.88
		c-7.13,18.97-12.01,42.89-9.9,48.41C1204.17,386.16,1204.27,385.88,1205.16,380.07z M1271.73,343.66
		c6.22-9.2,16.01-25.54,16.01-26.74c0-0.36,0.36-0.66,0.81-0.66s0.61-0.2,0.37-0.44c-0.24-0.24,0.17-1.31,0.92-2.36
		c0.75-1.06,1.37-2.27,1.37-2.71c0-0.43,0.68-1.71,1.51-2.83s1.26-2.28,0.95-2.57c-0.31-0.29-0.69-0.18-0.84,0.25
		c-0.85,2.36-12.47,20.33-14.2,21.96c-1.19,1.13-1.84,2.28-1.55,2.77c0.27,0.47,0.25,0.63-0.05,0.36c-0.56-0.5-4.8,4.49-8.37,9.84
		c-3.12,4.69-12.47,16.96-17.9,23.49c-7.93,9.53-16.29,18.26-30.78,32.13c-4.46,4.26-6.07,6.23-5.54,6.75s1.06,0.46,1.83-0.24
		c0.6-0.54,2.9-2.21,5.12-3.72C1234.28,390.19,1257.5,364.7,1271.73,343.66z M1279.47,336.38c-0.33,0-0.78,0.47-1,1.04
		s-0.13,1.04,0.2,1.04c0.33,0,0.78-0.47,1-1.04C1279.88,336.85,1279.8,336.38,1279.47,336.38z M1303.15,294.07
		c-0.31,0-2.81,4.45-5.55,9.88c-2.75,5.44-5.89,11.44-6.98,13.35c-1.09,1.91-2.61,4.56-3.37,5.9c-0.76,1.33-2.37,4.02-3.57,5.97
		c-2.08,3.37-2.53,4.43-1.91,4.43c0.15,0,1.01-1.15,1.91-2.56c0.9-1.41,1.95-3.09,2.35-3.74c0.4-0.65,1.11-1.65,1.58-2.21
		c1.51-1.83,9.84-17.29,9.84-18.28c0-0.53,0.27-0.95,0.6-0.95c0.33,0,1.23-1.48,2.01-3.3c0.77-1.81,1.91-4.46,2.53-5.9
		S1303.46,294.07,1303.15,294.07z M1289.13,302.98c0,0.62,0.73,0.08,1.73-1.28c0.95-1.29,1.73-2.63,1.73-2.98
		c0-0.35,0.78-1.56,1.73-2.69c0.95-1.13,1.94-2.9,2.2-3.92s1.04-2.9,1.76-4.17c2.24-4.01,6.37-17.31,5.99-19.27
		c-0.15-0.76-0.93,0.71-1.89,3.55c-0.9,2.67-2.53,6.76-3.63,9.08c-1.09,2.33-1.99,4.41-1.99,4.64c0,0.23-1.25,3.11-2.78,6.4
		c-1.53,3.3-2.63,6.24-2.44,6.54c0.18,0.3-0.28,1.1-1.03,1.79S1289.13,302.39,1289.13,302.98z M1300.26,289.56
		c-1.93,4.58-4.14,9.52-4.9,10.99c-1.59,3.07-1.62,3.23-0.69,3.23c0.38,0,0.69-0.47,0.69-1.04s0.25-1.04,0.56-1.04
		c0.54,0,2.91-4.76,2.91-5.85c0-0.29,0.56-1.36,1.25-2.37c1.42-2.09,4.99-11.08,4.99-12.57
		C1305.08,278.93,1303.73,281.35,1300.26,289.56z M1304.82,288.44c-1.08,0.9-1.92,4.93-1.02,4.93c0.31,0,0.75-0.86,0.98-1.91
		c0.23-1.05,0.55-2.34,0.72-2.87C1305.74,287.84,1305.59,287.8,1304.82,288.44z"/>
	<linearGradient id="SVGID_6_" gradientUnits="userSpaceOnUse" x1="1402.9543" y1="238.1084" x2="1402.9543" y2="409.716">
		<stop  offset="0" style="stop-color:#EA706C"/>
		<stop  offset="1" style="stop-color:#EC008C"/>
	</linearGradient>
	<path class="st6" d="M1475.44,331.75c-8.58,9.82-47.75,49.36-54.34,54.86c-2.25,1.87-5.21,4.37-6.59,5.55
		c-5.46,4.69-17.44,11.27-25.55,14.05c-5.59,1.91-15.27,3.59-20.22,3.5c-2.14-0.04-5.84-0.5-8.21-1.01
		c-7.61-1.67-14.11-5.73-21.48-13.42c-2.74-2.86-4.88-5.37-4.74-5.59c0.13-0.21-0.24-1.01-0.83-1.77c-0.92-1.18-1.01-1.2-0.64-0.13
		c0.26,0.74,0.15,1.08-0.25,0.83c-0.38-0.23-0.69-0.7-0.69-1.04s-1.49-2.59-3.31-4.99c-3.43-4.53-6.89-12.32-8.78-19.73
		c-1.16-4.54-1.38-13.55-0.39-15.85c0.68-1.59,0.91-0.66,0.71,2.95c-0.18,3.24,1.18,2.78,2.07-0.69c0.42-1.62,1.33-4.35,2.04-6.07
		c0.71-1.72,2.14-5.62,3.18-8.67c2.2-6.45,7.83-20.49,8.62-21.5c0.3-0.38,0.7-2.21,0.9-4.05c0.28-2.61,0.9-3.93,2.77-5.9
		c1.33-1.4,3.55-4.51,4.94-6.92c9.65-16.74,21.09-31.02,33.38-41.66c1.99-1.72,2.58-2.47,1.39-1.75c-1.14,0.69-2.94,1.68-3.99,2.21
		c-1.05,0.53-1.91,1.18-1.91,1.45s-0.87,1-1.92,1.63c-3.44,2.03-22.17,21.29-24.02,24.69c-0.35,0.65-1.06,1.43-1.57,1.73
		c-0.51,0.31-0.93,1.02-0.93,1.58c0,0.57-0.45,1.2-0.99,1.41c-0.54,0.21-1.31,1.29-1.7,2.41c-0.39,1.11-1,2.02-1.35,2.02
		c-0.36,0-1.03,0.94-1.51,2.08s-1.14,2.08-1.47,2.08c-0.99,0-0.71-1.08,0.78-2.96c0.76-0.97,1.39-2.04,1.39-2.38
		c0-1.11,8.39-12.88,14.23-19.97c12.91-15.65,26.09-25.51,41.25-30.85c6.84-2.41,15.62-2.33,21.06,0.18
		c2.24,1.03,5.14,2.82,6.44,3.96s2.67,2.08,3.04,2.08s2.97,2.18,5.78,4.85c7.07,6.72,9.1,11.15,9.04,19.77
		c-0.09,12.75-3.41,29.09-7.54,37.07c-0.55,1.07-0.81,2.13-0.57,2.37c0.24,0.24,0.07,0.44-0.38,0.44s-0.81,0.76-0.81,1.7
		c0,2.76-5.06,11.48-9.53,16.43c-9.92,10.99-28.2,18.69-38.79,16.36l-3.35-0.74l5.55-0.82c5.35-0.79,9.18-1.78,12.83-3.33
		c1.66-0.71,1.67-0.75,0.25-0.99c-0.82-0.14-3.36,0.23-5.65,0.83c-2.65,0.69-7.21,1.08-12.51,1.08c-7.53,0-8.89-0.2-13.9-2.05
		c-5.54-2.04-7.84-3.13-9.8-4.65c-1.84-1.43-3.84-1.43-3.6-0.01c0.12,0.7-0.29,2.04-0.9,2.98s-1.24,2.62-1.38,3.74
		c-0.29,2.28-0.87,4.52-1.71,6.58c-2.78,6.8-4.31,26.36-2.54,32.45c1.65,5.67,2.25,6.17,7.76,6.53c5.58,0.37,17.82-1.22,22.84-2.97
		c9.5-3.3,22.08-10.13,33.29-18.06c6.64-4.7,11.47-8.19,12.36-8.94c0.45-0.38,3.94-3.36,7.76-6.63c3.81-3.26,9.88-8.41,13.49-11.43
		c3.6-3.02,12.36-11.36,19.46-18.52c12.47-12.57,13-13.02,15.68-13.02c2.24,0,3.21,0.45,5.02,2.31
		C1489.31,314.53,1488.31,317.03,1475.44,331.75z M1321.55,339.38c-0.02-1.14,0.26-2.55,0.63-3.12c0.53-0.82,0.66-0.67,0.63,0.69
		c-0.02,0.95-0.31,2.36-0.63,3.12C1321.67,341.27,1321.58,341.17,1321.55,339.38z M1336.7,298.11c-1.01,2.12-1.33,2.52-1.33,1.64
		c0-0.37,0.49-1.28,1.08-2.02C1337.46,296.45,1337.48,296.48,1336.7,298.11L1336.7,298.11z M1340.83,320.31
		c-0.34,0-0.61,0.49-0.61,1.08c0,1.16-2.59,9.57-3.56,11.54c-0.32,0.65-0.75,2.52-0.95,4.16c-0.34,2.66-0.19,2.46,1.39-1.88
		c0.97-2.67,2.11-5.95,2.52-7.28c0.41-1.33,1.15-2.99,1.64-3.69C1342.18,322.94,1341.9,320.31,1340.83,320.31z M1345.68,344.58
		c-0.01-0.57-0.45-0.1-0.98,1.04c-0.52,1.14-0.94,2.55-0.93,3.12s0.45,0.1,0.98-1.04S1345.69,345.15,1345.68,344.58z
		 M1346.03,343.15c0.23-0.22,1.23-2.56,2.22-5.2c2.51-6.71,2.64-7.23,1.77-7.23c-0.43,0-0.78,0.55-0.79,1.21
		c-0.01,0.67-0.6,2.5-1.31,4.07C1346.57,338.93,1345.28,343.85,1346.03,343.15z M1349.24,303.41c0,1.94,1.44,0.09,4.85-6.25
		c2.88-5.35,5.21-9.14,7.29-11.85c1.03-1.34,1.35-2.46,0.71-2.46C1360.84,282.85,1349.24,301.42,1349.24,303.41z M1369.68,301.92
		c-4.56,6.9-5.15,7.9-8.63,14.71c-1.32,2.59-2.73,4.93-3.12,5.21c-1.05,0.73,0.87,2.4,4.14,3.59c3.64,1.33,8.81,1.36,13.74,0.08
		c3.66-0.96,5.75-1.92,13.29-6.11c2.37-1.31,14.61-12.91,16.69-15.8c4.33-6.01,8.41-13.8,10.69-20.4c1.66-4.8,4.51-21.49,3.85-22.56
		c-1.11-1.79-10.96,1.77-18.72,6.77C1392.26,273.44,1379.12,287.64,1369.68,301.92z M1442.36,345.01c-1.24,0.69-2.25,1.53-2.25,1.85
		s-0.63,0.39-1.39,0.15c-0.83-0.26-1.39-0.12-1.39,0.34c0,0.43,0.36,0.56,0.8,0.29c0.5-0.31,0.61-0.19,0.31,0.31
		c-0.27,0.44-0.97,0.8-1.56,0.8c-0.58,0-4.24,2.89-8.12,6.42s-8.24,7.35-9.69,8.5c-6.77,5.35-8,6.3-9.22,7.13
		c-9.67,6.57-14.48,9.5-19.85,12.11c-10.26,4.98-12.75,6.08-13.78,6.09c-0.53,0-1.43,0.31-2,0.68c-1.82,1.18,1.13,0.83,6.51-0.77
		c2.71-0.8,5.71-1.86,6.66-2.35c0.95-0.49,2.51-1.24,3.47-1.67c5.11-2.3,15.34-8.7,15.84-9.91c0.13-0.31,0.53-0.56,0.91-0.56
		c0.78,0,8.93-5.34,9.96-6.53c0.38-0.44,2.65-2.3,5.05-4.13c2.39-1.83,6.92-5.75,10.06-8.71
		C1445.67,342.75,1444.83,343.62,1442.36,345.01z M1382.53,257.06c1.72-0.99,5.15-2.9,7.63-4.24c4.96-2.69,11.91-5.52,16.47-6.71
		c4.08-1.07,3.88-2.4-0.27-1.78c-3.18,0.48-3.9,0.73-11.33,3.93c-4.47,1.93-13.1,7.43-14.58,9.29
		C1379.62,258.6,1380.06,258.49,1382.53,257.06z M1395.98,255.11c-1.22,0-10.96,6.68-12.76,8.75l-1.73,2l1.73-1.45
		c0.95-0.79,4.08-2.95,6.94-4.79C1396.09,255.8,1396.98,255.11,1395.98,255.11z M1420.68,304.65c0,1.04-10.14,14.02-14.77,18.9
		c-2.59,2.73-6.73,6.3-9.19,7.93c-6.17,4.09-5.96,4.36,1.31,1.72c7.29-2.64,14.84-9.01,20.51-17.3c4.52-6.6,12.54-25.07,12.54-28.87
		c0-2.07-1.29-1.72-1.81,0.5c-0.56,2.36-6.28,13.99-7.61,15.49C1421.12,303.62,1420.68,304.36,1420.68,304.65z M1416.32,325
		c-6.09,5.7-13.37,11.26-14.75,11.26c-0.51,0-1.12,0.31-1.35,0.69c-0.77,1.25,0.92,0.73,4.5-1.38c1.94-1.14,3.9-2.39,4.37-2.76
		c4.67-3.78,7.79-6.6,9.06-8.18C1421.73,320.17,1421.41,320.24,1416.32,325z M1432.18,280.25c0.1,0.86,0.23,2.5,0.3,3.64
		c0.12,1.96,0.17,1.92,0.77-0.66c0.35-1.51,0.49-3.15,0.3-3.64C1432.98,278.1,1431.99,278.58,1432.18,280.25z"/>
</g>
</svg>
