<svg xmlns="http://www.w3.org/2000/svg" width="129.066" height="38.633" viewBox="0 0 129.066 38.633">
  <g id="Group_26" data-name="Group 26" transform="translate(-97 -31)">
    <g id="Group_23" data-name="Group 23" transform="translate(97 31)">
      <g id="Group_9" data-name="Group 9" transform="translate(0)">
        <path id="Path_309" data-name="Path 309" d="M350.435,228.813a3.187,3.187,0,0,0-3.3-3.068c-.072,0-.141.011-.212.019a5.457,5.457,0,0,0-8.61-5.644c0-.035,0-.07,0-.105a7.78,7.78,0,0,0-14.618-3.42,3.563,3.563,0,0,0-6.225,2.5c0,.015,0,.029,0,.044a5.435,5.435,0,0,0-5.8,6.561,3.184,3.184,0,1,0-1,6.279,9.448,9.448,0,0,0,9.387,12.19c.238-.009.473-.029.707-.055A3.557,3.557,0,0,0,326.9,245.8a5.456,5.456,0,0,0,9.473-3.74,3.183,3.183,0,0,0,5.843-1.249,7.72,7.72,0,0,0,6.159-8.9A3.186,3.186,0,0,0,350.435,228.813Z" transform="translate(-307.069 -211.525)" fill="#f2b1d0"/>
        <circle id="Ellipse_11" data-name="Ellipse 11" cx="1.181" cy="1.181" r="1.181" transform="translate(16.113)" fill="#f2b1d0"/>
        <circle id="Ellipse_12" data-name="Ellipse 12" cx="1.125" cy="1.125" r="1.125" transform="translate(41.802 11.601)" fill="#f2b1d0"/>
        <circle id="Ellipse_13" data-name="Ellipse 13" cx="1.268" cy="1.268" r="1.268" transform="translate(0 20.708)" fill="#f2b1d0"/>
      </g>
      <ellipse id="Ellipse_14" data-name="Ellipse 14" cx="22.287" cy="2.973" rx="22.287" ry="2.973" transform="translate(0 30.258)" fill="#a3a7a8"/>
      <path id="Path_310" data-name="Path 310" d="M408.572,265.4c-1.115-1.3-2.483-.105-2.736.147s-.484.379-.666.267a32.171,32.171,0,0,0-13.46-6.79h0c.21-2.83.171-8.365-2.728-12.079-3.283-4.04-14.94-5.176-17.549,4.882a22.608,22.608,0,0,0,1.227,15.617l-.009-.012s-1.534.725-1.913,1.63-.015,3.38,4.822,2.5l-.017-.024a16.3,16.3,0,0,0,6.209,3.983c-1.057.893-1.548,1.672-1.524,2.134.027.533.3,2.1,4.485,1.459a12.677,12.677,0,0,0,4.945-2.347l0,.018a18.77,18.77,0,0,0,10.886-3.732c.9-.729,2.89-3.086,4.4-3.984C409.042,267.1,409.1,266.133,408.572,265.4Z" transform="translate(-365.32 -240.734)" fill="#fff"/>
      <g id="Group_14" data-name="Group 14" transform="translate(27.109 8.251)">
        <g id="Group_13" data-name="Group 13" transform="translate(0 0)">
          <path id="Path_330" data-name="Path 330" d="M675.966,319.876c-.582-1.279-1.953-2.3-.953-3.83,1.015-1.558,3.708-.821,5.026-.144,1.4.718,2.866,2.13,2.158,3.835a2.682,2.682,0,0,1-.851,1.047,6.51,6.51,0,0,1-4.01,1.091c-.373-.007-1.572.007-1.826-.312-.274-.346.67-.666.61-1.152A1.8,1.8,0,0,0,675.966,319.876Z" transform="translate(-674.499 -314.963)" fill="#fff"/>
          <path id="Path_331" data-name="Path 331" d="M675.46,320l-.169,0h-.105c-.811-.009-1.6-.061-1.841-.371-.231-.291.05-.557.256-.751.167-.158.341-.322.321-.48a1.659,1.659,0,0,0-.14-.488,7.42,7.42,0,0,0-.551-.943c-.583-.894-1.185-1.819-.391-3.039,1.034-1.587,3.694-.987,5.23-.2,1.557.8,2.96,2.281,2.231,4.036a2.821,2.821,0,0,1-.9,1.11A6.5,6.5,0,0,1,675.46,320Zm-.436-6.75a2.157,2.157,0,0,0-1.92.848c-.682,1.047-.185,1.811.391,2.694a7.638,7.638,0,0,1,.574.985h0a1.961,1.961,0,0,1,.166.58c.039.316-.214.555-.418.748s-.265.275-.226.326c.124.156.661.241,1.6.251h.107a6.27,6.27,0,0,0,3.91-1.058,2.513,2.513,0,0,0,.8-.983c.647-1.556-.652-2.9-2.084-3.633A6.854,6.854,0,0,0,675.024,313.253Z" transform="translate(-672.458 -312.932)" fill="#1a1818"/>
        </g>
        <path id="Path_332" data-name="Path 332" d="M703.232,342.351a.738.738,0,0,1,.565-.678c.425-.058.734.369,1.012.7a.7.7,0,0,0,.281.224c.234.083.485-.069.734-.067a.738.738,0,0,1,.669.7,1.206,1.206,0,0,1-.425.935c-.449.416-1.435,1.061-2,.639A3.975,3.975,0,0,1,703.232,342.351Z" transform="translate(-701.001 -339.59)" fill="#f2b1d0"/>
        <path id="Path_333" data-name="Path 333" d="M708.472,339.825a.877.877,0,0,1-.612-.216,4.029,4.029,0,0,1-.623-2.628h0a.854.854,0,0,1,.741-.713c.461-.015.741.406.972.745l.068.1a.6.6,0,0,0,.21.211.675.675,0,0,0,.37.013,1.365,1.365,0,0,1,.329-.017.858.858,0,0,1,.7.881,1.309,1.309,0,0,1-.563.979A3.049,3.049,0,0,1,708.472,339.825Zm-1-2.8a3.914,3.914,0,0,0,.551,2.4c.437.4,1.378-.047,1.9-.445a1.089,1.089,0,0,0,.469-.8.625.625,0,0,0-.491-.639,1.1,1.1,0,0,0-.272.016.87.87,0,0,1-.5-.033.8.8,0,0,1-.3-.29l-.069-.1c-.214-.315-.436-.641-.751-.641h-.016a.625.625,0,0,0-.518.525Z" transform="translate(-704.696 -334.58)" fill="#1a1818"/>
        <path id="Path_334" data-name="Path 334" d="M685.987,325.839a1,1,0,0,1,.757-.455.287.287,0,0,1,.288.122.273.273,0,0,1-.078.283,2.863,2.863,0,0,1-.685.409,1.7,1.7,0,0,0-.385.351C685.684,326.405,685.877,326.006,685.987,325.839Z" transform="translate(-684.832 -324.483)" fill="#f2b1d0"/>
      </g>
      <g id="Group_19" data-name="Group 19" transform="translate(7.98 11.755)">
        <ellipse id="Ellipse_15" data-name="Ellipse 15" cx="1.438" cy="0.782" rx="1.438" ry="0.782" transform="translate(0 3.255)" fill="#f2b1d0"/>
        <ellipse id="Ellipse_16" data-name="Ellipse 16" cx="0.782" cy="1.438" rx="0.782" ry="1.438" transform="translate(12.807 5.513) rotate(-82.714)" fill="#f2b1d0"/>
        <path id="Path_335" data-name="Path 335" d="M488.69,398.817c.025-1.8-2.861-1.789-3.951-1.382a1.628,1.628,0,0,0-1.074,1.169,1.253,1.253,0,0,0,.583,1.2c.6.373,1.17-.094,1.707-.374a.342.342,0,0,1,.134-.048.392.392,0,0,1,.242.116,1.679,1.679,0,0,0,2.051-.045.872.872,0,0,0,.238-.286A.846.846,0,0,0,488.69,398.817Z" transform="translate(-478.174 -394.622)" fill="#f2b1d0"/>
        <path id="Path_336" data-name="Path 336" d="M429.353,409.776a.158.158,0,0,1-.152-.114l-.134-.459a.158.158,0,1,1,.3-.088l.134.459a.158.158,0,0,1-.152.2Z" transform="translate(-427.532 -405.559)" fill="#fff"/>
        <path id="Path_337" data-name="Path 337" d="M421.338,411.851l-.024,0a.158.158,0,0,1-.132-.18l.073-.473a.158.158,0,1,1,.312.048l-.073.473A.158.158,0,0,1,421.338,411.851Z" transform="translate(-420.22 -407.471)" fill="#fff"/>
        <path id="Path_338" data-name="Path 338" d="M598.448,422.792a.163.163,0,0,1-.031,0,.158.158,0,0,1-.123-.186,4.677,4.677,0,0,0,.075-.526.155.155,0,0,1,.171-.144.158.158,0,0,1,.144.171,5.007,5.007,0,0,1-.08.562A.158.158,0,0,1,598.448,422.792Z" transform="translate(-584.525 -417.555)" fill="#fff"/>
        <path id="Path_339" data-name="Path 339" d="M608.367,422.49a.158.158,0,0,1-.156-.133l-.075-.473a.158.158,0,0,1,.312-.049l.075.473a.158.158,0,0,1-.132.181Z" transform="translate(-593.658 -417.341)" fill="#fff"/>
        <g id="Group_15" data-name="Group 15" transform="translate(11.709 3.704)">
          <path id="Path_340" data-name="Path 340" d="M577.585,412.892h-.006c-.534-.025-1.075-.029-1.611-.012a.124.124,0,0,1-.122-.115.119.119,0,0,1,.115-.122c.542-.016,1.09-.013,1.63.013a.118.118,0,0,1-.005.237Z" transform="translate(-575.413 -412.632)" fill="#1a1818"/>
          <path id="Path_341" data-name="Path 341" d="M574.219,421.9a.113.113,0,0,1-.027,0c-.522-.122-1.054-.225-1.582-.305a.118.118,0,0,1-.1-.135.121.121,0,0,1,.135-.1c.534.082,1.072.186,1.6.309a.119.119,0,0,1-.027.234Z" transform="translate(-572.317 -420.721)" fill="#1a1818"/>
          <path id="Path_342" data-name="Path 342" d="M571.16,429.146a.118.118,0,0,1-.084-.035c-.379-.378-.777-.746-1.184-1.093a.118.118,0,1,1,.154-.18c.411.351.814.723,1.2,1.1a.118.118,0,0,1-.084.2Z" transform="translate(-569.851 -426.713)" fill="#1a1818"/>
        </g>
        <g id="Group_16" data-name="Group 16" transform="translate(2.18 2.829)">
          <path id="Path_343" data-name="Path 343" d="M440.675,401.326a.115.115,0,0,1-.045-.009c-.494-.2-1-.393-1.511-.559a.118.118,0,0,1,.073-.225c.515.168,1.029.358,1.529.565a.118.118,0,0,1-.045.228Z" transform="translate(-438.966 -400.527)" fill="#1a1818"/>
          <path id="Path_344" data-name="Path 344" d="M439.773,414.2a.11.11,0,0,1-.025,0c-.524-.112-1.058-.2-1.587-.275a.118.118,0,1,1,.031-.235c.536.071,1.076.165,1.606.278a.118.118,0,0,1-.025.234Z" transform="translate(-438.058 -412.731)" fill="#1a1818"/>
          <path id="Path_345" data-name="Path 345" d="M439.669,425.329a.118.118,0,0,1-.049-.227c.493-.221,1-.426,1.512-.609a.118.118,0,0,1,.08.223c-.5.181-1.006.383-1.494.6A.121.121,0,0,1,439.669,425.329Z" transform="translate(-439.443 -422.754)" fill="#1a1818"/>
        </g>
        <g id="Group_17" data-name="Group 17" transform="translate(3.028 0)">
          <circle id="Ellipse_17" data-name="Ellipse 17" cx="1.126" cy="1.126" r="1.126" fill="#1a1818"/>
          <circle id="Ellipse_18" data-name="Ellipse 18" cx="0.272" cy="0.272" r="0.272" transform="translate(1.5 0.849)" fill="#fff"/>
        </g>
        <g id="Group_18" data-name="Group 18" transform="translate(10.745 0.295)">
          <circle id="Ellipse_19" data-name="Ellipse 19" cx="1.067" cy="1.067" r="1.067" fill="#1a1818"/>
          <circle id="Ellipse_20" data-name="Ellipse 20" cx="0.263" cy="0.263" r="0.263" transform="translate(1.377 0.808)" fill="#fff"/>
        </g>
        <path id="Path_346" data-name="Path 346" d="M480.662,419.278a1.8,1.8,0,0,1-1.479-.858.158.158,0,0,1,.262-.177,1.51,1.51,0,0,0,1.237.719,1.323,1.323,0,0,0,1.09-.661.158.158,0,0,1,.126-.073.153.153,0,0,1,.133.062,1.52,1.52,0,0,0,1.346.649,1.569,1.569,0,0,0,1.231-.927.158.158,0,1,1,.283.141,1.878,1.878,0,0,1-1.483,1.1,1.793,1.793,0,0,1-1.491-.61,1.6,1.6,0,0,1-1.229.635Z" transform="translate(-474.004 -413.836)" fill="#1a1818"/>
        <path id="Path_347" data-name="Path 347" d="M506.252,399.231a.19.19,0,0,1,.1-.092.806.806,0,0,1,.336-.062,9.087,9.087,0,0,1,.943.022.326.326,0,0,1,.154.039.208.208,0,0,1,.087.147.376.376,0,0,1-.022.173.994.994,0,0,1-.611.595.652.652,0,0,1-.335-.006,1.312,1.312,0,0,1-.4-.242.657.657,0,0,1-.267-.423A.308.308,0,0,1,506.252,399.231Z" transform="translate(-499.124 -396.349)" fill="#1a1818"/>
      </g>
      <path id="Path_348" data-name="Path 348" d="M640.666,602.988l-2.145,1.949s7.247.792,13.946-6.955C652.467,597.982,644.456,603.943,640.666,602.988Z" transform="translate(-613.866 -569.121)" fill="#f2b1d0"/>
      <g id="Group_20" data-name="Group 20" transform="translate(5.194 3.063)">
        <path id="Path_349" data-name="Path 349" d="M380.732,273.035a.161.161,0,0,1-.053-.009c-10.494-3.772-12.8-15.038-10.495-23.91a9.941,9.941,0,0,1,7.678-7.677c3.777-.822,8.233.38,10.147,2.735,4.039,5.174,2.573,13.927,2.558,14.015a.16.16,0,0,1-.183.129.158.158,0,0,1-.128-.183c.015-.087,1.456-8.7-2.494-13.764-1.843-2.268-6.163-3.421-9.833-2.623a9.639,9.639,0,0,0-7.44,7.447c-2.267,8.738-.012,19.829,10.3,23.534a.158.158,0,0,1-.053.307Z" transform="translate(-369.37 -241.18)" fill="#1a1818"/>
        <path id="Path_350" data-name="Path 350" d="M633.022,466.892l-.282,0a.158.158,0,0,1-.155-.161.167.167,0,0,1,.161-.155,18.6,18.6,0,0,0,10.783-3.7c.3-.248.744-.692,1.252-1.207a18.986,18.986,0,0,1,3.172-2.79c2.35-1.127,3.574-2.017,3.757-2.726a.817.817,0,0,0-.178-.715,1.374,1.374,0,0,0-1-.531,2.348,2.348,0,0,0-1.5.7c-.126.125-.507.507-.861.289a32.333,32.333,0,0,0-13.407-6.77.158.158,0,1,1,.059-.31,32.631,32.631,0,0,1,13.534,6.826c.106.062.329-.135.452-.258a2.643,2.643,0,0,1,1.736-.79,1.684,1.684,0,0,1,1.231.652,1.146,1.146,0,0,1,.236.988c-.21.816-1.454,1.746-3.914,2.925a18.893,18.893,0,0,0-3.1,2.734c-.515.522-.959.972-1.278,1.23A19.005,19.005,0,0,1,633.022,466.892Z" transform="translate(-613.554 -433.8)" fill="#1a1818"/>
        <path id="Path_351" data-name="Path 351" d="M505.062,641.444a3.611,3.611,0,0,1-2.289-.593,1.548,1.548,0,0,1-.58-1.169c-.034-.655.776-1.685,2.114-2.687a5.545,5.545,0,0,0,2.105-2.589.158.158,0,0,1,.3.1,5.768,5.768,0,0,1-2.225,2.748c-1.4,1.047-2,1.967-1.979,2.412a1.228,1.228,0,0,0,.463.94c.651.53,1.979.658,3.839.371,3.627-.667,7.03-4.1,7.279-4.453a.158.158,0,1,1,.257.184c-.269.376-3.691,3.884-7.483,4.581A11.993,11.993,0,0,1,505.062,641.444Z" transform="translate(-492.59 -605.874)" fill="#1a1818"/>
        <path id="Path_352" data-name="Path 352" d="M372.631,569.926a3.365,3.365,0,0,1-2.8-1.007,1.929,1.929,0,0,1-.311-1.9,4.6,4.6,0,0,1,1.991-1.712l.135.286c-.015.007-1.484.71-1.835,1.548a1.628,1.628,0,0,0,.266,1.578c.481.6,1.631,1.206,4.382.706l.056.311A10.556,10.556,0,0,1,372.631,569.926Z" transform="translate(-369.39 -541.874)" fill="#1a1818"/>
        <path id="Path_353" data-name="Path 353" d="M541.731,710.112a.158.158,0,0,1-.147-.1,1.557,1.557,0,0,1,.157-1.424.648.648,0,0,1,.206-.206.158.158,0,1,1,.158.273.367.367,0,0,0-.1.11,1.254,1.254,0,0,0-.125,1.131.158.158,0,0,1-.089.2A.153.153,0,0,1,541.731,710.112Z" transform="translate(-529.035 -674.582)" fill="#1a1818"/>
        <path id="Path_354" data-name="Path 354" d="M516,704.261a.158.158,0,0,1-.157-.142,2.158,2.158,0,0,1,.1-.976,1.4,1.4,0,0,1,.661-.766.158.158,0,0,1,.14.283,1.077,1.077,0,0,0-.506.594,1.847,1.847,0,0,0-.085.834.158.158,0,0,1-.141.173Z" transform="translate(-505.236 -669.015)" fill="#1a1818"/>
        <path id="Path_355" data-name="Path 355" d="M391.189,605.19a.158.158,0,0,1-.154-.122,1.269,1.269,0,0,1,.729-1.456.158.158,0,1,1,.126.289.953.953,0,0,0-.548,1.094.158.158,0,0,1-.117.19A.145.145,0,0,1,391.189,605.19Z" transform="translate(-389.437 -577.395)" fill="#1a1818"/>
        <path id="Path_356" data-name="Path 356" d="M377.7,593.85a.158.158,0,0,1-.153-.117,1.814,1.814,0,0,1,.58-1.823.158.158,0,1,1,.2.242,1.513,1.513,0,0,0-.477,1.5.158.158,0,0,1-.112.193A.153.153,0,0,1,377.7,593.85Z" transform="translate(-376.904 -566.516)" fill="#1a1818"/>
      </g>
    </g>
    <g id="Group_24" data-name="Group 24" transform="translate(150.145 41.704)">
      <g id="Group_10" data-name="Group 10">
        <path id="Path_311" data-name="Path 311" d="M298.491,779.92a.952.952,0,0,1-.678-.265.873.873,0,0,1-.281-.661V763.547a.877.877,0,0,1,.281-.654.942.942,0,0,1,.678-.272h3.528a4.075,4.075,0,0,1,2.941,1.174,3.933,3.933,0,0,1,0,5.684l-.051.049a5.947,5.947,0,0,1,1.176.89,5.44,5.44,0,0,1,0,7.877,5.65,5.65,0,0,1-4.065,1.625Zm3.528-11.122a2.184,2.184,0,0,0,1.585-.636,2.119,2.119,0,0,0,0-3.059,2.194,2.194,0,0,0-1.585-.63h-2.57V768.8Zm0,9.269a3.759,3.759,0,0,0,2.71-1.088,3.613,3.613,0,0,0,0-5.24,3.761,3.761,0,0,0-2.71-1.087h-2.57v7.415Z" transform="translate(-297.532 -762.62)" fill="#1a1818"/>
        <path id="Path_312" data-name="Path 312" d="M416.126,769.281l5.139,9.255a.94.94,0,0,1,.115.458.877.877,0,0,1-.281.654.979.979,0,0,1-1.355,0,1.134,1.134,0,0,1-.179-.222l-4.858-8.773-.908.877v7.464a.886.886,0,0,1-.275.654.988.988,0,0,1-1.362,0,.876.876,0,0,1-.281-.654V763.547a.877.877,0,0,1,.281-.654.988.988,0,0,1,1.362,0,.887.887,0,0,1,.275.654v5.363l6.226-6.017a.98.98,0,0,1,1.355,0,.9.9,0,0,1,0,1.31Z" transform="translate(-397.853 -762.62)" fill="#1a1818"/>
        <path id="Path_313" data-name="Path 313" d="M573.81,778.067a.952.952,0,0,1,.677.265.91.91,0,0,1,0,1.316.938.938,0,0,1-.677.272h-6.073a5.65,5.65,0,0,1-4.065-1.625,5.261,5.261,0,0,1-1.687-3.935V763.547a.877.877,0,0,1,.281-.654.988.988,0,0,1,1.362,0,.887.887,0,0,1,.275.654V774.36a3.513,3.513,0,0,0,1.125,2.62,3.758,3.758,0,0,0,2.71,1.088Z" transform="translate(-529.542 -762.62)" fill="#1a1818"/>
        <path id="Path_314" data-name="Path 314" d="M692.077,778.994a.887.887,0,0,1-.275.654.988.988,0,0,1-1.362,0,.876.876,0,0,1-.281-.654V763.547a.878.878,0,0,1,.281-.654.988.988,0,0,1,1.362,0,.889.889,0,0,1,.275.654Z" transform="translate(-641.994 -762.62)" fill="#1a1818"/>
        <path id="Path_315" data-name="Path 315" d="M752.1,764l-8.553,15.409a.885.885,0,0,1-.179.235.979.979,0,0,1-1.355,0,.876.876,0,0,1-.281-.654V763.547a.888.888,0,0,1,.275-.654.988.988,0,0,1,1.362,0,.877.877,0,0,1,.281.654v11.764l6.75-12.2a1.191,1.191,0,0,1,.179-.222.981.981,0,0,1,1.356,0,.877.877,0,0,1,.281.654A.933.933,0,0,1,752.1,764Z" transform="translate(-687.237 -762.62)" fill="#1a1818"/>
        <path id="Path_316" data-name="Path 316" d="M845.3,778.067a.951.951,0,0,1,.677.265.91.91,0,0,1,0,1.316.938.938,0,0,1-.677.272H842.42a5.65,5.65,0,0,1-4.066-1.625,5.261,5.261,0,0,1-1.688-3.935v-6.179a5.263,5.263,0,0,1,1.688-3.935,5.653,5.653,0,0,1,4.066-1.625H845.3a.949.949,0,0,1,.677.266.91.91,0,0,1,0,1.316.941.941,0,0,1-.677.272H842.42a3.763,3.763,0,0,0-2.711,1.087,3.514,3.514,0,0,0-1.125,2.62v2.163h5.433a.953.953,0,0,1,.678.266.911.911,0,0,1,0,1.316.939.939,0,0,1-.678.272h-5.433v2.163a3.514,3.514,0,0,0,1.125,2.62,3.76,3.76,0,0,0,2.711,1.088Z" transform="translate(-770.528 -762.62)" fill="#1a1818"/>
      </g>
    </g>
    <g id="Group_25" data-name="Group 25" transform="translate(150.35 62.582)">
      <path id="Path_317" data-name="Path 317" d="M299.463,935.991a.254.254,0,0,1-.1-.021.265.265,0,0,1-.083-.057.257.257,0,0,1-.055-.085.284.284,0,0,1-.02-.106v-2.3a.285.285,0,0,1,.02-.106.253.253,0,0,1,.138-.142.246.246,0,0,1,.1-.021h1.112a.249.249,0,0,1,.1.019.255.255,0,0,1,.135.135.261.261,0,0,1,0,.2.242.242,0,0,1-.054.08.262.262,0,0,1-.081.054.252.252,0,0,1-.1.019h-.844v.548h.812a.249.249,0,0,1,.178.074.258.258,0,0,1,.054.081.251.251,0,0,1,.02.1.24.24,0,0,1-.02.1.237.237,0,0,1-.054.078.254.254,0,0,1-.178.073h-.812v.784h.849a.236.236,0,0,1,.1.019.259.259,0,0,1,.079.054.267.267,0,0,1,.054.081.247.247,0,0,1,.019.1.235.235,0,0,1-.019.095.252.252,0,0,1-.054.079.276.276,0,0,1-.079.053.234.234,0,0,1-.1.02Z" transform="translate(-299.2 -933.112)" fill="#1a1818"/>
      <path id="Path_318" data-name="Path 318" d="M345.329,933.819v1.74a.253.253,0,0,1-.021.1.273.273,0,0,1-.142.144.262.262,0,0,1-.105.021.256.256,0,0,1-.1-.021.274.274,0,0,1-.083-.059.272.272,0,0,1-.075-.187v-2.331a.278.278,0,0,1,.021-.108.274.274,0,0,1,.06-.089.265.265,0,0,1,.088-.06.28.28,0,0,1,.222,0,.274.274,0,0,1,.091.065l1.671,1.9v-1.733a.276.276,0,0,1,.019-.1.259.259,0,0,1,.055-.085.276.276,0,0,1,.084-.059.262.262,0,0,1,.105-.021.265.265,0,0,1,.105.021.283.283,0,0,1,.085.059.271.271,0,0,1,.057.085.257.257,0,0,1,.021.1v2.33a.267.267,0,0,1-.022.108.27.27,0,0,1-.06.089.287.287,0,0,1-.088.06.286.286,0,0,1-.222,0,.268.268,0,0,1-.091-.065Z" transform="translate(-339.204 -932.92)" fill="#1a1818"/>
      <path id="Path_319" data-name="Path 319" d="M395,936.4a.248.248,0,0,1-.063-.081.278.278,0,0,1-.026-.1.266.266,0,0,1,.011-.1.251.251,0,0,1,.124-.153.23.23,0,0,1,.178-.017.257.257,0,0,1,.084.048.163.163,0,0,0,.051.028.193.193,0,0,0,.066.01.141.141,0,0,0,.049-.009.132.132,0,0,0,.04-.026.123.123,0,0,0,.028-.04.106.106,0,0,0,.011-.048v-2.7a.286.286,0,0,1,.02-.106.26.26,0,0,1,.055-.087.265.265,0,0,1,.084-.06.258.258,0,0,1,.1-.021.267.267,0,0,1,.2.081.275.275,0,0,1,.079.193v2.7a.6.6,0,0,1-.052.247.647.647,0,0,1-.142.2.679.679,0,0,1-.472.188.635.635,0,0,1-.131-.013.668.668,0,0,1-.112-.033.613.613,0,0,1-.1-.049C395.056,936.438,395.027,936.418,395,936.4Z" transform="translate(-383.169 -932.92)" fill="#1a1818"/>
      <path id="Path_320" data-name="Path 320" d="M439.8,934.27a1.388,1.388,0,0,1-.053.386,1.47,1.47,0,0,1-.386.645,1.5,1.5,0,0,1-.3.23,1.48,1.48,0,0,1-.353.148,1.47,1.47,0,0,1-.781,0,1.482,1.482,0,0,1-.354-.148,1.523,1.523,0,0,1-.3-.23,1.457,1.457,0,0,1-.386-.645,1.409,1.409,0,0,1,0-.771,1.446,1.446,0,0,1,.151-.347,1.479,1.479,0,0,1,.233-.3,1.5,1.5,0,0,1,.3-.23,1.52,1.52,0,0,1,.355-.149,1.464,1.464,0,0,1,.394-.053,1.419,1.419,0,0,1,.389.053,1.458,1.458,0,0,1,.353.148,1.517,1.517,0,0,1,.535.525,1.471,1.471,0,0,1,.152.348A1.4,1.4,0,0,1,439.8,934.27Zm-.526,0a.912.912,0,0,0-.034-.25.979.979,0,0,0-.1-.228,1.024,1.024,0,0,0-.152-.194,1,1,0,0,0-.194-.151.935.935,0,0,0-.228-.1.89.89,0,0,0-.25-.035.925.925,0,0,0-.256.035.983.983,0,0,0-.229.1.96.96,0,0,0-.2.15.98.98,0,0,0-.15.194.963.963,0,0,0-.1.229.914.914,0,0,0-.034.252.886.886,0,0,0,.035.25,1.021,1.021,0,0,0,.1.229,1,1,0,0,0,.153.2.987.987,0,0,0,.2.153.975.975,0,0,0,.228.1.894.894,0,0,0,.5,0,.961.961,0,0,0,.228-.1.991.991,0,0,0,.194-.153,1.065,1.065,0,0,0,.152-.2.992.992,0,0,0,.1-.229A.907.907,0,0,0,439.27,934.27Z" transform="translate(-419.942 -932.808)" fill="#1a1818"/>
      <path id="Path_321" data-name="Path 321" d="M493.268,933.049a.232.232,0,0,1,.069-.074.258.258,0,0,1,.093-.039.315.315,0,0,1,.1,0,.253.253,0,0,1,.1.036.215.215,0,0,1,.072.068.258.258,0,0,1,.037.091.284.284,0,0,1-.034.2l-.764,1.279v.941a.27.27,0,0,1-.021.105.282.282,0,0,1-.058.087.268.268,0,0,1-.2.081.268.268,0,0,1-.107-.022.263.263,0,0,1-.084-.059.285.285,0,0,1-.056-.087.268.268,0,0,1-.02-.105v-.941l-.763-1.279a.275.275,0,0,1-.036-.1.279.279,0,0,1,0-.1.255.255,0,0,1,.037-.091.212.212,0,0,1,.072-.068.253.253,0,0,1,.1-.036.314.314,0,0,1,.1,0,.26.26,0,0,1,.093.039.234.234,0,0,1,.069.074l.6.989Z" transform="translate(-467.997 -932.915)" fill="#1a1818"/>
      <path id="Path_322" data-name="Path 322" d="M553.392,935.991a.254.254,0,0,1-.1-.021.267.267,0,0,1-.083-.057.257.257,0,0,1-.055-.085.281.281,0,0,1-.02-.106v-2.3a.282.282,0,0,1,.02-.106.252.252,0,0,1,.138-.142.245.245,0,0,1,.1-.021H554.5a.249.249,0,0,1,.1.019.256.256,0,0,1,.135.135.26.26,0,0,1,0,.2.24.24,0,0,1-.055.08.259.259,0,0,1-.081.054.252.252,0,0,1-.1.019h-.844v.548h.812a.25.25,0,0,1,.179.074.256.256,0,0,1,.054.081.25.25,0,0,1,.02.1.24.24,0,0,1-.02.1.235.235,0,0,1-.054.078.255.255,0,0,1-.179.073h-.812v.784h.849a.236.236,0,0,1,.1.019.258.258,0,0,1,.078.054.268.268,0,0,1,.054.081.246.246,0,0,1,.019.1.234.234,0,0,1-.019.095.252.252,0,0,1-.054.079.275.275,0,0,1-.078.053.235.235,0,0,1-.1.02Z" transform="translate(-521.979 -933.112)" fill="#1a1818"/>
      <path id="Path_323" data-name="Path 323" d="M597.946,933.292a.262.262,0,0,1-.016-.105.281.281,0,0,1,.023-.1.253.253,0,0,1,.149-.136.276.276,0,0,1,.105-.015.264.264,0,0,1,.1.025.272.272,0,0,1,.081.059.251.251,0,0,1,.054.088l.484,1.359.091.307.086-.3.49-1.364a.227.227,0,0,1,.052-.088.273.273,0,0,1,.081-.059.265.265,0,0,1,.1-.025.275.275,0,0,1,.105.015.247.247,0,0,1,.09.054.254.254,0,0,1,.081.179.275.275,0,0,1-.016.105l-.858,2.371a.235.235,0,0,1-.084.11.22.22,0,0,1-.133.042.228.228,0,0,1-.134-.042.225.225,0,0,1-.083-.109Z" transform="translate(-561.283 -932.921)" fill="#1a1818"/>
      <path id="Path_324" data-name="Path 324" d="M648.275,935.991a.254.254,0,0,1-.1-.021.267.267,0,0,1-.083-.057.257.257,0,0,1-.055-.085.28.28,0,0,1-.02-.106v-2.3a.281.281,0,0,1,.02-.106.252.252,0,0,1,.138-.142.246.246,0,0,1,.1-.021h1.112a.248.248,0,0,1,.1.019.255.255,0,0,1,.135.135.26.26,0,0,1,0,.2.243.243,0,0,1-.054.08.261.261,0,0,1-.081.054.252.252,0,0,1-.1.019h-.844v.548h.812a.25.25,0,0,1,.178.074.255.255,0,0,1,.054.081.247.247,0,0,1,.02.1.245.245,0,0,1-.074.174.255.255,0,0,1-.178.073h-.812v.784h.849a.236.236,0,0,1,.1.019.258.258,0,0,1,.078.054.269.269,0,0,1,.054.081.246.246,0,0,1,.019.1.234.234,0,0,1-.019.095.253.253,0,0,1-.054.079.275.275,0,0,1-.078.053.235.235,0,0,1-.1.02Z" transform="translate(-605.222 -933.112)" fill="#1a1818"/>
      <path id="Path_325" data-name="Path 325" d="M693.609,933.423a.283.283,0,0,1,.02-.106.252.252,0,0,1,.138-.142.246.246,0,0,1,.1-.021h.361a2.03,2.03,0,0,1,.267.017,1.213,1.213,0,0,1,.241.057.877.877,0,0,1,.205.1.659.659,0,0,1,.159.156.719.719,0,0,1,.1.216,1.017,1.017,0,0,1,.036.284.89.89,0,0,1-.042.284.744.744,0,0,1-.119.226.754.754,0,0,1-.185.168.906.906,0,0,1-.239.107l.591.844a.251.251,0,0,1,.037.093.3.3,0,0,1,0,.1.278.278,0,0,1-.036.094.245.245,0,0,1-.071.075.253.253,0,0,1-.092.037.28.28,0,0,1-.1,0,.261.261,0,0,1-.094-.036.248.248,0,0,1-.075-.072l-.688-.993v.844a.239.239,0,0,1-.021.1.257.257,0,0,1-.057.083.28.28,0,0,1-.083.058.249.249,0,0,1-.1.021.244.244,0,0,1-.1-.021.273.273,0,0,1-.082-.058.264.264,0,0,1-.074-.183Zm1.106.559a.367.367,0,0,0-.034-.171.251.251,0,0,0-.092-.1.363.363,0,0,0-.135-.046,1.191,1.191,0,0,0-.164-.011h-.155v.661h.178a.734.734,0,0,0,.153-.016.35.35,0,0,0,.129-.054.277.277,0,0,0,.088-.1A.353.353,0,0,0,694.715,933.981Z" transform="translate(-645.225 -933.112)" fill="#1a1818"/>
      <path id="Path_326" data-name="Path 326" d="M740.762,933.049a.235.235,0,0,1,.069-.074.259.259,0,0,1,.093-.039.314.314,0,0,1,.1,0,.253.253,0,0,1,.1.036.214.214,0,0,1,.072.068.257.257,0,0,1,.037.091.282.282,0,0,1-.035.2l-.763,1.279v.941a.27.27,0,0,1-.021.105.281.281,0,0,1-.058.087.268.268,0,0,1-.2.081.268.268,0,0,1-.107-.022.261.261,0,0,1-.084-.059.285.285,0,0,1-.056-.087.269.269,0,0,1-.02-.105v-.941l-.763-1.279a.283.283,0,0,1-.035-.2.257.257,0,0,1,.037-.091.214.214,0,0,1,.072-.068.253.253,0,0,1,.1-.036.315.315,0,0,1,.1,0,.258.258,0,0,1,.093.039.232.232,0,0,1,.069.074l.6.989Z" transform="translate(-685.13 -932.915)" fill="#1a1818"/>
      <path id="Path_327" data-name="Path 327" d="M801.262,933.154a2.014,2.014,0,0,1,.424.043,1.648,1.648,0,0,1,.373.129,1.418,1.418,0,0,1,.311.207,1.227,1.227,0,0,1,.237.281,1.33,1.33,0,0,1,.15.35,1.56,1.56,0,0,1,.052.414,1.491,1.491,0,0,1-.054.407,1.343,1.343,0,0,1-.153.346,1.275,1.275,0,0,1-.239.28,1.393,1.393,0,0,1-.311.207,1.631,1.631,0,0,1-.372.129,1.946,1.946,0,0,1-.419.044h-.382a.254.254,0,0,1-.1-.021.267.267,0,0,1-.083-.057.257.257,0,0,1-.055-.085.281.281,0,0,1-.02-.106v-2.3a.282.282,0,0,1,.02-.106.253.253,0,0,1,.138-.142.246.246,0,0,1,.1-.021Zm1.01,1.424a.955.955,0,0,0-.073-.382.819.819,0,0,0-.207-.29.919.919,0,0,0-.32-.184,1.273,1.273,0,0,0-.416-.064h-.108v1.833h.108a1.259,1.259,0,0,0,.412-.064.924.924,0,0,0,.321-.183.819.819,0,0,0,.208-.287A.936.936,0,0,0,802.272,934.579Z" transform="translate(-739.107 -933.112)" fill="#1a1818"/>
      <path id="Path_328" data-name="Path 328" d="M850.132,933.05a.211.211,0,0,1,.082-.1.243.243,0,0,1,.26,0,.212.212,0,0,1,.082.1l.988,2.393a.3.3,0,0,1,.021.1.243.243,0,0,1-.018.1.237.237,0,0,1-.055.083.274.274,0,0,1-.089.059.244.244,0,0,1-.1.023.24.24,0,0,1-.1-.018.262.262,0,0,1-.143-.144l-.264-.635h-.924l-.264.635a.279.279,0,0,1-.06.089.268.268,0,0,1-.084.055.25.25,0,0,1-.1.018.261.261,0,0,1-.1-.023.265.265,0,0,1-.089-.059.259.259,0,0,1-.055-.083.245.245,0,0,1-.019-.1.284.284,0,0,1,.023-.1Zm.207.862-.257.618h.515Z" transform="translate(-781.648 -932.902)" fill="#1a1818"/>
      <path id="Path_329" data-name="Path 329" d="M900.565,933.049a.232.232,0,0,1,.069-.074.257.257,0,0,1,.093-.039.314.314,0,0,1,.1,0,.253.253,0,0,1,.1.036.214.214,0,0,1,.072.068.256.256,0,0,1,.037.091.284.284,0,0,1-.035.2l-.764,1.279v.941a.27.27,0,0,1-.021.105.283.283,0,0,1-.058.087.278.278,0,0,1-.086.059.275.275,0,0,1-.109.022.269.269,0,0,1-.107-.022.261.261,0,0,1-.084-.059.285.285,0,0,1-.056-.087.269.269,0,0,1-.02-.105v-.941l-.764-1.279a.282.282,0,0,1-.035-.2.259.259,0,0,1,.037-.091.214.214,0,0,1,.072-.068.253.253,0,0,1,.1-.036.314.314,0,0,1,.1,0,.258.258,0,0,1,.093.039.233.233,0,0,1,.069.074l.6.989Z" transform="translate(-825.329 -932.915)" fill="#1a1818"/>
    </g>
  </g>
</svg>
