<svg xmlns="http://www.w3.org/2000/svg" width="100" height="123.382" viewBox="0 0 100 123.382">
  <g id="Group_22" data-name="Group 22" transform="translate(-297.532 -198.823)">
    <g id="Group_9" data-name="Group 9" transform="translate(297.532 198.823)">
      <path id="Path_309" data-name="Path 309" d="M403.063,248.936a7.122,7.122,0,0,0-7.379-6.856c-.16.006-.316.025-.473.041a12.194,12.194,0,0,0-19.241-12.613c0-.079.006-.156,0-.235a17.385,17.385,0,0,0-32.667-7.642,7.962,7.962,0,0,0-13.912,5.577c0,.033.007.065.009.1a12.145,12.145,0,0,0-12.969,14.662A7.115,7.115,0,1,0,314.193,256a21.114,21.114,0,0,0,20.977,27.241c.533-.02,1.058-.065,1.579-.123A7.95,7.95,0,0,0,350.46,286.9a12.192,12.192,0,0,0,21.169-8.357,7.114,7.114,0,0,0,13.058-2.791,17.253,17.253,0,0,0,13.765-19.889A7.121,7.121,0,0,0,403.063,248.936Z" transform="translate(-306.151 -210.303)" fill="#f2b1d0"/>
      <circle id="Ellipse_11" data-name="Ellipse 11" cx="2.64" cy="2.64" r="2.64" transform="translate(36.009)" fill="#f2b1d0"/>
      <circle id="Ellipse_12" data-name="Ellipse 12" cx="2.514" cy="2.514" r="2.514" transform="translate(93.416 25.926)" fill="#f2b1d0"/>
      <circle id="Ellipse_13" data-name="Ellipse 13" cx="2.833" cy="2.833" r="2.833" transform="translate(0 46.277)" fill="#f2b1d0"/>
    </g>
    <ellipse id="Ellipse_14" data-name="Ellipse 14" cx="49.805" cy="6.644" rx="49.805" ry="6.644" transform="translate(297.532 266.443)" fill="#a3a7a8"/>
    <path id="Path_310" data-name="Path 310" d="M455.454,291.815c-2.492-2.916-5.549-.235-6.113.329s-1.082.846-1.489.6a71.9,71.9,0,0,0-30.08-15.174v0c.468-6.324.382-18.693-6.1-26.994-7.336-9.029-33.388-11.568-39.219,10.91-3.119,12.025-2.36,24.685,2.742,34.9l-.02-.028s-3.428,1.62-4.274,3.642-.033,7.552,10.775,5.587l-.037-.053a36.426,36.426,0,0,0,13.876,8.9c-2.362,2-3.458,3.736-3.405,4.768.061,1.191.672,4.7,10.022,3.26a28.328,28.328,0,0,0,11.05-5.245l0,.041c12.038.251,22.321-6.709,24.327-8.339s6.458-6.9,9.844-8.9C456.5,295.624,456.63,293.461,455.454,291.815Z" transform="translate(-61.264 -37.877)" fill="#fff"/>
    <g id="Group_11" data-name="Group 11" transform="translate(297.532 289.922)">
      <g id="Group_10" data-name="Group 10">
        <path id="Path_311" data-name="Path 311" d="M298.8,785.407a1.255,1.255,0,0,1-.893-.349,1.15,1.15,0,0,1-.37-.871V763.841a1.155,1.155,0,0,1,.37-.862,1.24,1.24,0,0,1,.893-.358h4.647a5.367,5.367,0,0,1,3.873,1.547,5.181,5.181,0,0,1,0,7.487l-.068.065a7.829,7.829,0,0,1,1.549,1.172,7.165,7.165,0,0,1,0,10.376,7.441,7.441,0,0,1-5.355,2.14Zm4.647-14.649a2.877,2.877,0,0,0,2.088-.838,2.791,2.791,0,0,0,0-4.029,2.891,2.891,0,0,0-2.088-.83h-3.385v5.7Zm0,12.208a4.952,4.952,0,0,0,3.57-1.433,4.759,4.759,0,0,0,0-6.9,4.954,4.954,0,0,0-3.57-1.432h-3.385v9.766Z" transform="translate(-297.532 -762.62)" fill="#1a1818"/>
        <path id="Path_312" data-name="Path 312" d="M417.472,771.393l6.769,12.19a1.238,1.238,0,0,1,.151.6,1.155,1.155,0,0,1-.37.862,1.29,1.29,0,0,1-1.785,0,1.494,1.494,0,0,1-.236-.293L415.6,773.2l-1.2,1.156v9.831a1.166,1.166,0,0,1-.362.862,1.3,1.3,0,0,1-1.794,0,1.153,1.153,0,0,1-.37-.862V763.841a1.155,1.155,0,0,1,.37-.862,1.3,1.3,0,0,1,1.794,0,1.168,1.168,0,0,1,.362.862V770.9l8.2-7.926a1.29,1.29,0,0,1,1.785,0,1.189,1.189,0,0,1,0,1.725Z" transform="translate(-393.404 -762.62)" fill="#1a1818"/>
        <path id="Path_313" data-name="Path 313" d="M577.56,782.966a1.254,1.254,0,0,1,.892.35,1.2,1.2,0,0,1,0,1.733,1.236,1.236,0,0,1-.892.358h-8a7.442,7.442,0,0,1-5.355-2.14,6.929,6.929,0,0,1-2.222-5.184V763.841a1.155,1.155,0,0,1,.37-.862,1.3,1.3,0,0,1,1.794,0,1.168,1.168,0,0,1,.362.862v14.242a4.627,4.627,0,0,0,1.482,3.45,4.951,4.951,0,0,0,3.57,1.433Z" transform="translate(-519.254 -762.62)" fill="#1a1818"/>
        <path id="Path_314" data-name="Path 314" d="M692.685,784.186a1.168,1.168,0,0,1-.362.862,1.3,1.3,0,0,1-1.794,0,1.154,1.154,0,0,1-.371-.862V763.841a1.156,1.156,0,0,1,.371-.862,1.3,1.3,0,0,1,1.794,0,1.17,1.17,0,0,1,.362.862Z" transform="translate(-626.718 -762.62)" fill="#1a1818"/>
        <path id="Path_315" data-name="Path 315" d="M755.384,764.443l-11.265,20.3a1.167,1.167,0,0,1-.236.309,1.29,1.29,0,0,1-1.785,0,1.154,1.154,0,0,1-.371-.862V763.841a1.17,1.17,0,0,1,.362-.862,1.3,1.3,0,0,1,1.794,0,1.155,1.155,0,0,1,.371.862v15.5l8.891-16.065a1.559,1.559,0,0,1,.236-.293,1.291,1.291,0,0,1,1.786,0,1.155,1.155,0,0,1,.37.862A1.229,1.229,0,0,1,755.384,764.443Z" transform="translate(-669.954 -762.62)" fill="#1a1818"/>
        <path id="Path_316" data-name="Path 316" d="M848.033,782.966a1.253,1.253,0,0,1,.892.35,1.2,1.2,0,0,1,0,1.733,1.235,1.235,0,0,1-.892.358h-3.788a7.442,7.442,0,0,1-5.355-2.14,6.93,6.93,0,0,1-2.223-5.184v-8.139a6.932,6.932,0,0,1,2.223-5.183,7.445,7.445,0,0,1,5.355-2.141h3.788a1.25,1.25,0,0,1,.892.35,1.2,1.2,0,0,1,0,1.733,1.239,1.239,0,0,1-.892.358h-3.788a4.956,4.956,0,0,0-3.571,1.432,4.628,4.628,0,0,0-1.482,3.45v2.849h7.157a1.255,1.255,0,0,1,.893.35,1.2,1.2,0,0,1,0,1.733,1.238,1.238,0,0,1-.893.358h-7.157v2.849a4.628,4.628,0,0,0,1.482,3.45,4.953,4.953,0,0,0,3.571,1.433Z" transform="translate(-749.552 -762.62)" fill="#1a1818"/>
      </g>
    </g>
    <g id="Group_12" data-name="Group 12" transform="translate(297.802 317.421)">
      <path id="Path_317" data-name="Path 317" d="M299.546,936.891a.336.336,0,0,1-.138-.028.351.351,0,0,1-.11-.075.338.338,0,0,1-.072-.112.375.375,0,0,1-.026-.139v-3.029a.375.375,0,0,1,.026-.139.333.333,0,0,1,.182-.187.325.325,0,0,1,.138-.028h1.465a.328.328,0,0,1,.13.026.336.336,0,0,1,.178.178.344.344,0,0,1,0,.259.321.321,0,0,1-.072.106.345.345,0,0,1-.106.071.329.329,0,0,1-.13.026H299.9v.722h1.07a.328.328,0,0,1,.235.1.337.337,0,0,1,.071.106.329.329,0,0,1,.026.13.315.315,0,0,1-.026.126.312.312,0,0,1-.071.1.331.331,0,0,1-.105.07.327.327,0,0,1-.13.026H299.9v1.033h1.119a.311.311,0,0,1,.126.026.343.343,0,0,1,.1.072.352.352,0,0,1,.071.107.326.326,0,0,1,.025.13.31.31,0,0,1-.025.125.331.331,0,0,1-.071.1.364.364,0,0,1-.1.07.309.309,0,0,1-.126.026Z" transform="translate(-299.2 -933.098)" fill="#1a1818"/>
      <path id="Path_318" data-name="Path 318" d="M345.5,934.1v2.292a.333.333,0,0,1-.028.134.359.359,0,0,1-.075.112.363.363,0,0,1-.112.077.347.347,0,0,1-.139.028.338.338,0,0,1-.138-.028.36.36,0,0,1-.11-.077.351.351,0,0,1-.072-.112.355.355,0,0,1-.026-.134V933.32a.359.359,0,0,1,.107-.259.349.349,0,0,1,.117-.078.369.369,0,0,1,.293,0,.36.36,0,0,1,.119.085l2.2,2.5V933.29a.364.364,0,0,1,.026-.137.341.341,0,0,1,.073-.112.361.361,0,0,1,.11-.077.343.343,0,0,1,.138-.028.347.347,0,0,1,.139.028.369.369,0,0,1,.112.077.358.358,0,0,1,.075.112.339.339,0,0,1,.028.137v3.069a.369.369,0,0,1-.107.259.377.377,0,0,1-.117.079.364.364,0,0,1-.143.028.36.36,0,0,1-.15-.031.353.353,0,0,1-.119-.086Z" transform="translate(-337.43 -932.915)" fill="#1a1818"/>
      <path id="Path_319" data-name="Path 319" d="M395.028,937.5a.326.326,0,0,1-.083-.106.366.366,0,0,1-.035-.128.352.352,0,0,1,.014-.13.33.33,0,0,1,.163-.2.3.3,0,0,1,.235-.023.338.338,0,0,1,.111.063.218.218,0,0,0,.067.036.254.254,0,0,0,.088.013.186.186,0,0,0,.065-.012.174.174,0,0,0,.053-.035.162.162,0,0,0,.037-.052.139.139,0,0,0,.014-.063V933.3a.377.377,0,0,1,.026-.14.342.342,0,0,1,.072-.114.346.346,0,0,1,.111-.079.337.337,0,0,1,.138-.028.352.352,0,0,1,.258.107.362.362,0,0,1,.1.254v3.56a.79.79,0,0,1-.068.325.851.851,0,0,1-.188.268.894.894,0,0,1-.622.248.834.834,0,0,1-.172-.017.88.88,0,0,1-.148-.044.8.8,0,0,1-.128-.065C395.1,937.549,395.064,937.523,395.028,937.5Z" transform="translate(-379.445 -932.915)" fill="#1a1818"/>
      <path id="Path_320" data-name="Path 320" d="M440.739,934.733a1.83,1.83,0,0,1-.07.509,1.935,1.935,0,0,1-.509.849,1.969,1.969,0,0,1-.4.3,1.946,1.946,0,0,1-.465.195,1.937,1.937,0,0,1-1.029,0,1.949,1.949,0,0,1-.467-.195,2,2,0,0,1-.4-.3,1.942,1.942,0,0,1-.309-.39,1.92,1.92,0,0,1-.2-.459,1.855,1.855,0,0,1,0-1.016,1.906,1.906,0,0,1,.2-.458,1.949,1.949,0,0,1,.307-.391,1.977,1.977,0,0,1,.4-.3,2,2,0,0,1,.467-.2,1.928,1.928,0,0,1,.519-.07,1.867,1.867,0,0,1,.513.07,1.921,1.921,0,0,1,.465.195,2,2,0,0,1,.705.692,1.936,1.936,0,0,1,.2.458A1.848,1.848,0,0,1,440.739,934.733Zm-.693,0A1.2,1.2,0,0,0,440,934.4a1.29,1.29,0,0,0-.13-.3,1.355,1.355,0,0,0-.2-.256,1.324,1.324,0,0,0-.256-.2,1.228,1.228,0,0,0-.3-.13,1.174,1.174,0,0,0-.329-.046,1.219,1.219,0,0,0-.338.046,1.293,1.293,0,0,0-.3.127,1.261,1.261,0,0,0-.257.2,1.294,1.294,0,0,0-.2.256,1.268,1.268,0,0,0-.127.3,1.2,1.2,0,0,0-.045.332,1.167,1.167,0,0,0,.046.329,1.341,1.341,0,0,0,.131.3,1.322,1.322,0,0,0,.2.258,1.3,1.3,0,0,0,.258.2,1.283,1.283,0,0,0,.3.13,1.179,1.179,0,0,0,.658,0,1.264,1.264,0,0,0,.3-.13,1.305,1.305,0,0,0,.256-.2,1.409,1.409,0,0,0,.2-.258,1.307,1.307,0,0,0,.13-.3A1.2,1.2,0,0,0,440.046,934.733Z" transform="translate(-414.588 -932.808)" fill="#1a1818"/>
      <path id="Path_321" data-name="Path 321" d="M493.8,933.087a.306.306,0,0,1,.091-.1.341.341,0,0,1,.123-.052.415.415,0,0,1,.137,0,.333.333,0,0,1,.132.048.284.284,0,0,1,.1.089.338.338,0,0,1,.049.12.363.363,0,0,1,0,.134.368.368,0,0,1-.047.13l-1.006,1.685v1.239a.356.356,0,0,1-.028.139.371.371,0,0,1-.076.114.353.353,0,0,1-.257.106.355.355,0,0,1-.141-.028.347.347,0,0,1-.111-.078.376.376,0,0,1-.074-.114.355.355,0,0,1-.027-.139v-1.239l-1.006-1.685a.372.372,0,0,1-.046-.264.338.338,0,0,1,.049-.12.282.282,0,0,1,.1-.089.333.333,0,0,1,.132-.048.414.414,0,0,1,.136,0,.343.343,0,0,1,.123.052.307.307,0,0,1,.091.1l.786,1.3Z" transform="translate(-460.512 -932.91)" fill="#1a1818"/>
      <path id="Path_322" data-name="Path 322" d="M553.475,936.891a.335.335,0,0,1-.138-.028.352.352,0,0,1-.11-.075.339.339,0,0,1-.072-.112.372.372,0,0,1-.026-.139v-3.029a.373.373,0,0,1,.026-.139.333.333,0,0,1,.182-.187.324.324,0,0,1,.138-.028h1.465a.328.328,0,0,1,.13.026.336.336,0,0,1,.178.178.342.342,0,0,1,0,.259.322.322,0,0,1-.072.106.342.342,0,0,1-.106.071.329.329,0,0,1-.13.026h-1.111v.722h1.07a.329.329,0,0,1,.235.1.335.335,0,0,1,.071.106.327.327,0,0,1,.026.13.322.322,0,0,1-.1.229.332.332,0,0,1-.106.07.327.327,0,0,1-.13.026h-1.07v1.033h1.119a.312.312,0,0,1,.126.026.344.344,0,0,1,.1.072.356.356,0,0,1,.071.107.324.324,0,0,1,.026.13.307.307,0,0,1-.026.125.334.334,0,0,1-.071.1.364.364,0,0,1-.1.07.31.31,0,0,1-.126.026Z" transform="translate(-512.099 -933.098)" fill="#1a1818"/>
      <path id="Path_323" data-name="Path 323" d="M597.951,933.4a.345.345,0,0,1-.021-.139.371.371,0,0,1,.03-.129.333.333,0,0,1,.2-.179.359.359,0,0,1,.139-.02.35.35,0,0,1,.13.033.36.36,0,0,1,.107.078.331.331,0,0,1,.071.115l.638,1.79.119.4.114-.4.645-1.8a.3.3,0,0,1,.069-.115.361.361,0,0,1,.107-.078.351.351,0,0,1,.131-.033.358.358,0,0,1,.138.02.326.326,0,0,1,.119.071.335.335,0,0,1,.107.236.36.36,0,0,1-.021.139l-1.13,3.123a.311.311,0,0,1-.11.145.289.289,0,0,1-.175.056.3.3,0,0,1-.176-.055.3.3,0,0,1-.109-.144Z" transform="translate(-549.66 -932.916)" fill="#1a1818"/>
      <path id="Path_324" data-name="Path 324" d="M648.358,936.891a.336.336,0,0,1-.138-.028.353.353,0,0,1-.11-.075.337.337,0,0,1-.072-.112.37.37,0,0,1-.026-.139v-3.029a.371.371,0,0,1,.026-.139.332.332,0,0,1,.182-.187.325.325,0,0,1,.138-.028h1.465a.328.328,0,0,1,.13.026.336.336,0,0,1,.178.178.342.342,0,0,1,0,.259.322.322,0,0,1-.072.106.344.344,0,0,1-.106.071.329.329,0,0,1-.13.026h-1.111v.722h1.07a.329.329,0,0,1,.235.1.335.335,0,0,1,.071.106.327.327,0,0,1,.026.13.322.322,0,0,1-.1.229.332.332,0,0,1-.106.07.327.327,0,0,1-.13.026h-1.07v1.033h1.119a.312.312,0,0,1,.126.026.343.343,0,0,1,.1.072.355.355,0,0,1,.071.107.324.324,0,0,1,.026.13.307.307,0,0,1-.026.125.333.333,0,0,1-.071.1.363.363,0,0,1-.1.07.31.31,0,0,1-.126.026Z" transform="translate(-591.651 -933.098)" fill="#1a1818"/>
      <path id="Path_325" data-name="Path 325" d="M693.609,933.508a.373.373,0,0,1,.026-.139.331.331,0,0,1,.182-.187.325.325,0,0,1,.138-.028h.475a2.679,2.679,0,0,1,.352.022,1.6,1.6,0,0,1,.318.075,1.16,1.16,0,0,1,.27.135.871.871,0,0,1,.209.206.946.946,0,0,1,.134.285,1.341,1.341,0,0,1,.048.374,1.173,1.173,0,0,1-.056.374.978.978,0,0,1-.157.3.991.991,0,0,1-.244.221,1.2,1.2,0,0,1-.315.141l.779,1.111a.329.329,0,0,1,.049.122.387.387,0,0,1,0,.132.366.366,0,0,1-.047.123.321.321,0,0,1-.094.1.334.334,0,0,1-.122.048.365.365,0,0,1-.132,0,.342.342,0,0,1-.123-.047.329.329,0,0,1-.1-.095l-.906-1.308v1.111a.315.315,0,0,1-.028.131.341.341,0,0,1-.075.11.365.365,0,0,1-.11.077.33.33,0,0,1-.136.028.324.324,0,0,1-.133-.028.358.358,0,0,1-.108-.077.348.348,0,0,1-.1-.241Zm1.457.736a.483.483,0,0,0-.045-.225.33.33,0,0,0-.121-.132.479.479,0,0,0-.178-.06,1.571,1.571,0,0,0-.217-.015h-.2v.871h.234a.962.962,0,0,0,.2-.021.461.461,0,0,0,.17-.071.364.364,0,0,0,.116-.134A.465.465,0,0,0,695.066,934.244Z" transform="translate(-629.88 -933.098)" fill="#1a1818"/>
      <path id="Path_326" data-name="Path 326" d="M741.291,933.087a.307.307,0,0,1,.091-.1.343.343,0,0,1,.123-.052.414.414,0,0,1,.136,0,.333.333,0,0,1,.132.048.282.282,0,0,1,.1.089.338.338,0,0,1,.049.12.372.372,0,0,1-.046.264l-1.006,1.685v1.239a.355.355,0,0,1-.028.139.357.357,0,0,1-.334.221.353.353,0,0,1-.141-.028.345.345,0,0,1-.111-.078.376.376,0,0,1-.074-.114.355.355,0,0,1-.027-.139v-1.239l-1.006-1.685a.373.373,0,0,1-.045-.264.337.337,0,0,1,.049-.12.283.283,0,0,1,.1-.089.334.334,0,0,1,.132-.048.415.415,0,0,1,.137,0,.341.341,0,0,1,.123.052.305.305,0,0,1,.091.1l.786,1.3Z" transform="translate(-668.015 -932.91)" fill="#1a1818"/>
      <path id="Path_327" data-name="Path 327" d="M801.467,933.154a2.656,2.656,0,0,1,.559.057,2.17,2.17,0,0,1,.491.169,1.875,1.875,0,0,1,.41.273,1.619,1.619,0,0,1,.312.371,1.754,1.754,0,0,1,.2.461,2.051,2.051,0,0,1,.069.545,1.967,1.967,0,0,1-.07.536,1.77,1.77,0,0,1-.2.456,1.679,1.679,0,0,1-.315.369,1.833,1.833,0,0,1-.41.273,2.145,2.145,0,0,1-.49.169,2.562,2.562,0,0,1-.552.058h-.5a.336.336,0,0,1-.138-.028.352.352,0,0,1-.11-.075.338.338,0,0,1-.072-.112.37.37,0,0,1-.026-.139v-3.029a.371.371,0,0,1,.026-.139.333.333,0,0,1,.182-.187.325.325,0,0,1,.138-.028Zm1.33,1.876a1.257,1.257,0,0,0-.1-.5,1.081,1.081,0,0,0-.272-.382,1.213,1.213,0,0,0-.421-.242,1.677,1.677,0,0,0-.547-.085h-.142v2.414h.142a1.657,1.657,0,0,0,.543-.085,1.219,1.219,0,0,0,.422-.241,1.079,1.079,0,0,0,.274-.378A1.233,1.233,0,0,0,802.8,935.03Z" transform="translate(-719.599 -933.098)" fill="#1a1818"/>
      <path id="Path_328" data-name="Path 328" d="M850.457,933.093a.278.278,0,0,1,.108-.128.32.32,0,0,1,.342,0,.278.278,0,0,1,.108.128l1.3,3.152a.4.4,0,0,1,.028.137.32.32,0,0,1-.023.129.313.313,0,0,1-.072.109.361.361,0,0,1-.118.078.322.322,0,0,1-.13.031.316.316,0,0,1-.127-.024.345.345,0,0,1-.188-.19l-.347-.836h-1.217l-.347.836a.367.367,0,0,1-.079.117.353.353,0,0,1-.111.072.329.329,0,0,1-.13.024.343.343,0,0,1-.134-.031.349.349,0,0,1-.117-.078.339.339,0,0,1-.072-.109.321.321,0,0,1-.025-.129.372.372,0,0,1,.03-.137Zm.273,1.135-.338.814h.679Z" transform="translate(-760.254 -932.898)" fill="#1a1818"/>
      <path id="Path_329" data-name="Path 329" d="M901.094,933.087a.306.306,0,0,1,.091-.1.34.34,0,0,1,.123-.052.415.415,0,0,1,.137,0,.333.333,0,0,1,.132.048.284.284,0,0,1,.1.089.34.34,0,0,1,.049.12.374.374,0,0,1-.046.264l-1.006,1.685v1.239a.355.355,0,0,1-.028.139.372.372,0,0,1-.076.114.367.367,0,0,1-.114.078.363.363,0,0,1-.143.028.355.355,0,0,1-.141-.028.346.346,0,0,1-.111-.078.374.374,0,0,1-.074-.114.355.355,0,0,1-.027-.139v-1.239l-1.006-1.685a.372.372,0,0,1-.046-.264.339.339,0,0,1,.049-.12.282.282,0,0,1,.1-.089.334.334,0,0,1,.132-.048.415.415,0,0,1,.137,0,.342.342,0,0,1,.123.052.307.307,0,0,1,.091.1l.786,1.3Z" transform="translate(-801.997 -932.91)" fill="#1a1818"/>
    </g>
    <g id="Group_14" data-name="Group 14" transform="translate(358.113 217.261)">
      <g id="Group_13" data-name="Group 13" transform="translate(0 0)">
        <path id="Path_330" data-name="Path 330" d="M677.581,325.747c-1.3-2.858-4.364-5.129-2.13-8.56,2.267-3.481,8.287-1.835,11.231-.321,3.119,1.6,6.4,4.76,4.822,8.569a5.993,5.993,0,0,1-1.9,2.339c-2.406,1.889-5.966,2.493-8.961,2.439-.834-.015-3.513.017-4.08-.7-.613-.773,1.5-1.488,1.364-2.575A4.039,4.039,0,0,0,677.581,325.747Z" transform="translate(-674.302 -314.768)" fill="#fff"/>
        <path id="Path_331" data-name="Path 331" d="M679.167,328.734c-.126,0-.252,0-.378,0l-.236,0c-1.812-.021-3.565-.136-4.114-.829-.516-.65.112-1.245.571-1.679.374-.354.762-.72.718-1.072a3.708,3.708,0,0,0-.314-1.09,16.571,16.571,0,0,0-1.231-2.107c-1.3-2-2.649-4.065-.873-6.792,2.31-3.546,8.256-2.207,11.688-.442,3.479,1.789,6.616,5.1,4.986,9.018a6.308,6.308,0,0,1-2.011,2.481A14.526,14.526,0,0,1,679.167,328.734Zm-.975-15.084a4.819,4.819,0,0,0-4.29,1.895c-1.525,2.341-.414,4.046.873,6.021a17.061,17.061,0,0,1,1.282,2.2h0a4.383,4.383,0,0,1,.372,1.3c.087.706-.479,1.241-.933,1.671-.485.458-.593.615-.5.727.276.349,1.477.538,3.57.562l.24,0c3.551.071,6.742-.8,8.737-2.364a5.614,5.614,0,0,0,1.794-2.2c1.445-3.478-1.458-6.475-4.657-8.12A15.315,15.315,0,0,0,678.192,313.649Z" transform="translate(-672.458 -312.932)" fill="#1a1818"/>
      </g>
      <path id="Path_332" data-name="Path 332" d="M703.239,343.2a1.65,1.65,0,0,1,1.263-1.516c.95-.129,1.64.825,2.261,1.555a1.559,1.559,0,0,0,.627.5c.523.186,1.085-.154,1.641-.149a1.65,1.65,0,0,1,1.5,1.558,2.7,2.7,0,0,1-.951,2.089c-1,.929-3.207,2.372-4.474,1.428C704.019,347.855,703.107,344.428,703.239,343.2Z" transform="translate(-698.254 -337.025)" fill="#f2b1d0"/>
      <path id="Path_333" data-name="Path 333" d="M710.032,344.217a1.961,1.961,0,0,1-1.368-.482c-1.134-1.035-1.644-4.664-1.393-5.872h0a1.908,1.908,0,0,1,1.657-1.594c1.03-.034,1.656.906,2.171,1.664l.152.221a1.337,1.337,0,0,0,.47.471,1.51,1.51,0,0,0,.827.029,3.048,3.048,0,0,1,.735-.038,1.918,1.918,0,0,1,1.57,1.969,2.925,2.925,0,0,1-1.257,2.188A6.813,6.813,0,0,1,710.032,344.217Zm-2.242-6.247c-.245,1.181.343,4.563,1.232,5.374.977.89,3.08-.106,4.255-.994a2.435,2.435,0,0,0,1.048-1.781,1.4,1.4,0,0,0-1.1-1.428,2.457,2.457,0,0,0-.608.036,1.944,1.944,0,0,1-1.123-.074,1.79,1.79,0,0,1-.679-.647l-.154-.225c-.479-.7-.974-1.433-1.678-1.433h-.036a1.4,1.4,0,0,0-1.158,1.173Z" transform="translate(-701.594 -332.497)" fill="#1a1818"/>
      <path id="Path_334" data-name="Path 334" d="M686.221,326.4a2.235,2.235,0,0,1,1.692-1.018.642.642,0,0,1,.644.272.609.609,0,0,1-.175.631,6.394,6.394,0,0,1-1.532.914,3.8,3.8,0,0,0-.859.785C685.544,327.668,685.976,326.776,686.221,326.4Z" transform="translate(-683.642 -323.371)" fill="#f2b1d0"/>
    </g>
    <g id="Group_19" data-name="Group 19" transform="translate(315.366 225.092)">
      <ellipse id="Ellipse_15" data-name="Ellipse 15" cx="3.214" cy="1.747" rx="3.214" ry="1.747" transform="translate(0 7.275)" fill="#f2b1d0"/>
      <ellipse id="Ellipse_16" data-name="Ellipse 16" cx="1.747" cy="3.214" rx="1.747" ry="3.214" transform="translate(28.62 12.321) rotate(-82.714)" fill="#f2b1d0"/>
      <path id="Path_335" data-name="Path 335" d="M494.912,400.8c.056-4.028-6.393-4-8.83-3.089a3.638,3.638,0,0,0-2.4,2.613,2.8,2.8,0,0,0,1.3,2.685c1.346.833,2.614-.209,3.814-.835a.769.769,0,0,1,.3-.106.876.876,0,0,1,.54.259,3.751,3.751,0,0,0,4.583-.1,1.95,1.95,0,0,0,.531-.639A1.891,1.891,0,0,0,494.912,400.8Z" transform="translate(-471.412 -391.424)" fill="#f2b1d0"/>
      <path id="Path_336" data-name="Path 336" d="M429.714,410.734a.353.353,0,0,1-.339-.254l-.3-1.026a.353.353,0,1,1,.677-.2l.3,1.026a.353.353,0,0,1-.339.451Z" transform="translate(-425.643 -401.309)" fill="#fff"/>
      <path id="Path_337" data-name="Path 337" d="M421.533,412.825a.359.359,0,0,1-.054,0,.353.353,0,0,1-.295-.4l.163-1.056a.353.353,0,1,1,.7.107l-.163,1.057A.353.353,0,0,1,421.533,412.825Z" transform="translate(-419.035 -403.037)" fill="#fff"/>
      <path id="Path_338" data-name="Path 338" d="M598.644,423.853a.364.364,0,0,1-.07-.007.353.353,0,0,1-.276-.416,10.45,10.45,0,0,0,.169-1.175.346.346,0,0,1,.381-.322.353.353,0,0,1,.322.381,11.158,11.158,0,0,1-.18,1.255A.353.353,0,0,1,598.644,423.853Z" transform="translate(-567.528 -412.151)" fill="#fff"/>
      <path id="Path_339" data-name="Path 339" d="M608.654,423.464a.353.353,0,0,1-.348-.3l-.167-1.056a.353.353,0,0,1,.7-.11l.167,1.057a.353.353,0,0,1-.294.4A.375.375,0,0,1,608.654,423.464Z" transform="translate(-575.782 -411.958)" fill="#fff"/>
      <g id="Group_15" data-name="Group 15" transform="translate(26.167 8.278)">
        <path id="Path_340" data-name="Path 340" d="M579.732,413.212h-.013c-1.192-.056-2.4-.065-3.6-.028a.277.277,0,0,1-.273-.256.265.265,0,0,1,.256-.273c1.21-.037,2.435-.028,3.642.029a.265.265,0,0,1-.012.529Z" transform="translate(-574.878 -412.632)" fill="#1a1818"/>
        <path id="Path_341" data-name="Path 341" d="M576.329,422.567a.258.258,0,0,1-.061-.007c-1.166-.272-2.355-.5-3.535-.683a.265.265,0,0,1-.221-.3.27.27,0,0,1,.3-.222c1.194.183,2.4.415,3.576.69a.265.265,0,0,1-.06.523Z" transform="translate(-572.08 -419.943)" fill="#1a1818"/>
        <path id="Path_342" data-name="Path 342" d="M572.777,430.8a.264.264,0,0,1-.187-.077c-.847-.845-1.737-1.666-2.646-2.442a.264.264,0,1,1,.343-.4c.92.784,1.82,1.615,2.676,2.469a.265.265,0,0,1-.187.452Z" transform="translate(-569.851 -425.358)" fill="#1a1818"/>
      </g>
      <g id="Group_16" data-name="Group 16" transform="translate(4.872 6.322)">
        <path id="Path_343" data-name="Path 343" d="M442.7,402.313a.261.261,0,0,1-.1-.02c-1.1-.458-2.24-.878-3.377-1.249a.265.265,0,0,1,.164-.5c1.15.375,2.3.8,3.416,1.264a.265.265,0,0,1-.1.509Z" transform="translate(-438.878 -400.527)" fill="#1a1818"/>
        <path id="Path_344" data-name="Path 344" d="M441.891,414.83a.25.25,0,0,1-.055-.006c-1.17-.249-2.364-.456-3.547-.614a.265.265,0,0,1,.07-.525c1.2.159,2.4.368,3.588.621a.265.265,0,0,1-.055.524Z" transform="translate(-438.058 -411.557)" fill="#1a1818"/>
        <path id="Path_345" data-name="Path 345" d="M439.815,426.37a.265.265,0,0,1-.109-.506c1.1-.495,2.239-.953,3.378-1.361a.265.265,0,0,1,.179.5c-1.126.4-2.249.856-3.339,1.346A.269.269,0,0,1,439.815,426.37Z" transform="translate(-439.309 -420.615)" fill="#1a1818"/>
      </g>
      <g id="Group_17" data-name="Group 17" transform="translate(6.766 0)">
        <circle id="Ellipse_17" data-name="Ellipse 17" cx="2.517" cy="2.517" r="2.517" fill="#1a1818"/>
        <circle id="Ellipse_18" data-name="Ellipse 18" cx="0.608" cy="0.608" r="0.608" transform="translate(3.352 1.898)" fill="#fff"/>
      </g>
      <g id="Group_18" data-name="Group 18" transform="translate(24.012 0.66)">
        <circle id="Ellipse_19" data-name="Ellipse 19" cx="2.384" cy="2.384" r="2.384" fill="#1a1818"/>
        <circle id="Ellipse_20" data-name="Ellipse 20" cx="0.587" cy="0.587" r="0.587" transform="translate(3.077 1.807)" fill="#fff"/>
      </g>
      <path id="Path_346" data-name="Path 346" d="M482.521,420.95a4.032,4.032,0,0,1-3.3-1.917.353.353,0,0,1,.585-.4,3.375,3.375,0,0,0,2.765,1.607A2.956,2.956,0,0,0,485,418.767a.353.353,0,0,1,.282-.164.341.341,0,0,1,.3.137,3.4,3.4,0,0,0,3.009,1.451,3.507,3.507,0,0,0,2.751-2.073.353.353,0,1,1,.631.315,4.2,4.2,0,0,1-3.314,2.46,4.006,4.006,0,0,1-3.332-1.363,3.567,3.567,0,0,1-2.746,1.419Z" transform="translate(-467.643 -408.79)" fill="#1a1818"/>
      <path id="Path_347" data-name="Path 347" d="M506.275,399.426a.424.424,0,0,1,.214-.207,1.8,1.8,0,0,1,.751-.139,20.337,20.337,0,0,1,2.108.05.728.728,0,0,1,.343.087.465.465,0,0,1,.2.328.844.844,0,0,1-.049.387,2.223,2.223,0,0,1-1.365,1.329,1.456,1.456,0,0,1-.749-.012,2.933,2.933,0,0,1-.889-.541,1.469,1.469,0,0,1-.6-.944A.688.688,0,0,1,506.275,399.426Z" transform="translate(-490.346 -392.985)" fill="#1a1818"/>
    </g>
    <path id="Path_348" data-name="Path 348" d="M643.314,609.169l-4.793,4.356s16.194,1.769,31.165-15.543C669.686,597.982,651.785,611.3,643.314,609.169Z" transform="translate(-285.892 -334.662)" fill="#f2b1d0"/>
    <g id="Group_20" data-name="Group 20" transform="translate(309.14 205.668)">
      <path id="Path_349" data-name="Path 349" d="M394.76,312.367a.357.357,0,0,1-.119-.021c-23.451-8.429-28.6-33.607-23.453-53.433,2.38-9.173,8.473-15.266,17.158-17.155,8.441-1.837,18.4.848,22.676,6.111,9.025,11.563,5.751,31.123,5.717,31.319a.358.358,0,0,1-.408.287.352.352,0,0,1-.287-.408c.033-.193,3.253-19.45-5.574-30.759-4.119-5.068-13.772-7.646-21.974-5.861-8.412,1.83-14.316,7.741-16.625,16.643-5.065,19.526-.026,44.313,23.008,52.591a.353.353,0,0,1-.119.685Z" transform="translate(-369.37 -241.18)" fill="#1a1818"/>
      <path id="Path_350" data-name="Path 350" d="M633.561,489.215c-.21,0-.419,0-.63-.006a.353.353,0,0,1-.346-.36.373.373,0,0,1,.36-.345c11.154.21,21.172-5.884,24.1-8.26.682-.554,1.662-1.547,2.8-2.7,2.155-2.184,4.838-4.9,7.088-6.235,5.251-2.519,7.988-4.507,8.4-6.091a1.825,1.825,0,0,0-.4-1.6,3.072,3.072,0,0,0-2.224-1.187,5.248,5.248,0,0,0-3.353,1.56c-.281.28-1.134,1.132-1.924.647a72.259,72.259,0,0,0-29.96-15.128.353.353,0,1,1,.131-.693,72.922,72.922,0,0,1,30.244,15.253c.237.138.735-.3,1.01-.577a5.905,5.905,0,0,1,3.879-1.766,3.764,3.764,0,0,1,2.752,1.457,2.563,2.563,0,0,1,.527,2.208c-.469,1.824-3.249,3.9-8.747,6.537-2.144,1.272-4.791,3.954-6.918,6.109-1.15,1.166-2.144,2.172-2.855,2.75C654.563,483.166,644.661,489.215,633.561,489.215Z" transform="translate(-590.055 -415.263)" fill="#1a1818"/>
      <path id="Path_351" data-name="Path 351" d="M508.6,650.268c-2.32,0-4.031-.443-5.114-1.324a3.461,3.461,0,0,1-1.3-2.613c-.075-1.463,1.735-3.765,4.724-6.006a12.392,12.392,0,0,0,4.7-5.786.353.353,0,0,1,.669.225,12.889,12.889,0,0,1-4.971,6.141c-3.119,2.339-4.473,4.4-4.422,5.39a2.744,2.744,0,0,0,1.036,2.1c1.454,1.184,4.422,1.471,8.58.829,8.106-1.49,15.709-9.172,16.266-9.952a.353.353,0,1,1,.575.411c-.6.84-8.248,8.679-16.724,10.237A26.779,26.779,0,0,1,508.6,650.268Z" transform="translate(-480.731 -570.777)" fill="#1a1818"/>
      <path id="Path_352" data-name="Path 352" d="M376.631,575.626c-3.578,0-5.369-1.135-6.265-2.251a4.31,4.31,0,0,1-.7-4.24c.889-2.123,4.3-3.756,4.45-3.825l.3.638c-.033.015-3.316,1.586-4.1,3.459a3.637,3.637,0,0,0,.595,3.526c1.075,1.336,3.645,2.7,9.792,1.577l.126.695A23.6,23.6,0,0,1,376.631,575.626Z" transform="translate(-369.388 -512.937)" fill="#1a1818"/>
      <path id="Path_353" data-name="Path 353" d="M542.041,712.275a.353.353,0,0,1-.328-.224,3.48,3.48,0,0,1,.351-3.182,1.45,1.45,0,0,1,.46-.46.353.353,0,1,1,.353.611.818.818,0,0,0-.228.245,2.8,2.8,0,0,0-.279,2.527.353.353,0,0,1-.2.458A.341.341,0,0,1,542.041,712.275Z" transform="translate(-513.67 -632.874)" fill="#1a1818"/>
      <path id="Path_354" data-name="Path 354" d="M516.207,706.607a.353.353,0,0,1-.351-.318,4.825,4.825,0,0,1,.232-2.18,3.121,3.121,0,0,1,1.478-1.713.353.353,0,0,1,.314.633,2.407,2.407,0,0,0-1.131,1.327,4.13,4.13,0,0,0-.191,1.863.352.352,0,0,1-.316.386Z" transform="translate(-492.161 -627.843)" fill="#1a1818"/>
      <path id="Path_355" data-name="Path 355" d="M391.42,607.154a.354.354,0,0,1-.343-.272,2.836,2.836,0,0,1,1.629-3.254.353.353,0,1,1,.282.647,2.131,2.131,0,0,0-1.224,2.445.353.353,0,0,1-.262.425A.33.33,0,0,1,391.42,607.154Z" transform="translate(-387.506 -545.039)" fill="#1a1818"/>
      <path id="Path_356" data-name="Path 356" d="M377.959,596.292a.353.353,0,0,1-.341-.263,4.054,4.054,0,0,1,1.3-4.075.353.353,0,1,1,.453.541,3.382,3.382,0,0,0-1.066,3.353.353.353,0,0,1-.251.432A.342.342,0,0,1,377.959,596.292Z" transform="translate(-376.179 -535.207)" fill="#1a1818"/>
    </g>
  </g>
</svg>
