<svg xmlns="http://www.w3.org/2000/svg" xmlns:xlink="http://www.w3.org/1999/xlink" width="16.508" height="16.507" viewBox="0 0 16.508 16.507">
  <defs>
    <linearGradient id="linear-gradient" x1="0.215" y1="0.141" x2="0.789" y2="0.96" gradientUnits="objectBoundingBox">
      <stop offset="0" stop-color="#ffb871"/>
      <stop offset="1" stop-color="#703d0a"/>
    </linearGradient>
  </defs>
  <g id="Group_103" data-name="Group 103" transform="translate(-406 -483)">
    <g id="youtube-social-badge" transform="translate(406 483)">
      <g id="Group_6" data-name="Group 6" transform="translate(0 0)">
        <path id="Path_275" data-name="Path 275" d="M16.185,7.175,14.843,5.388l-.4-2.2a1.6,1.6,0,0,0-1.355-1.3l-2.212-.314L9.039.3a1.606,1.606,0,0,0-1.88.037L5.373,1.68l-2.2.4a1.606,1.606,0,0,0-1.3,1.355L1.558,5.647.286,7.484a1.6,1.6,0,0,0,.036,1.88l1.342,1.786.4,2.2a1.6,1.6,0,0,0,1.355,1.3l2.212.314,1.837,1.272a1.607,1.607,0,0,0,1.88-.037l1.786-1.342,2.2-.4a1.607,1.607,0,0,0,1.3-1.355l.314-2.212,1.272-1.837A1.6,1.6,0,0,0,16.185,7.175Z" transform="translate(0 -0.014)" fill="url(#linear-gradient)"/>
      </g>
    </g>
    <path id="Path_436" data-name="Path 436" d="M4.653-1.982a2.041,2.041,0,0,1-.178.862,1.9,1.9,0,0,1-.5.664,2.321,2.321,0,0,1-.779.427,3.15,3.15,0,0,1-1,.151A2.909,2.909,0,0,1,.6-.259v-.859a2.551,2.551,0,0,0,1.621.557,2.2,2.2,0,0,0,.662-.093,1.483,1.483,0,0,0,.508-.269,1.193,1.193,0,0,0,.327-.425,1.327,1.327,0,0,0,.115-.562q0-1.372-1.953-1.372H1.3V-3.96h.552q1.729,0,1.729-1.289,0-1.191-1.318-1.191a2.245,2.245,0,0,0-1.392.5v-.776a3.042,3.042,0,0,1,1.592-.4,2.446,2.446,0,0,1,.8.122,1.824,1.824,0,0,1,.61.342,1.515,1.515,0,0,1,.393.527,1.628,1.628,0,0,1,.139.679A1.709,1.709,0,0,1,3-3.672v.02a2.209,2.209,0,0,1,.659.173,1.759,1.759,0,0,1,.522.349,1.556,1.556,0,0,1,.344.505A1.613,1.613,0,0,1,4.653-1.982Z" transform="translate(411.399 495.119)" fill="#111"/>
  </g>
</svg>
