<svg xmlns="http://www.w3.org/2000/svg" width="14.439" height="19.219" viewBox="0 0 14.439 19.219">
  <g id="Group_68" data-name="Group 68" transform="translate(-498 -283.759)">
    <g id="gem_1_" data-name="gem (1)" transform="translate(499.001 285)">
      <path id="Path_267" data-name="Path 267" d="M78.16,4.563v7.579l-6.207,4.563-6.207-4.563V4.563L71.954,0Z" transform="translate(-65.747 0)" fill="#5588bc"/>
      <path id="Path_268" data-name="Path 268" d="M71.954,0V3.817L68.864,6.089,65.747,4.563Z" transform="translate(-65.747)" fill="#23c4ea"/>
      <path id="Path_269" data-name="Path 269" d="M71.954,327.789v3.982l-6.207-4.564,3.117-1.51Z" transform="translate(-65.747 -315.065)" fill="#23c4ea"/>
      <path id="Path_270" data-name="Path 270" d="M262.085,4.563v7.579l-6.207,4.563V0Z" transform="translate(-249.671)" fill="#00aaf1"/>
      <path id="Path_271" data-name="Path 271" d="M153.936,101.65v5.02l-3.56,2.618-3.56-2.618v-5.02l3.56-2.618Z" transform="translate(-144.17 -95.799)" fill="#75e2f8"/>
      <path id="Path_272" data-name="Path 272" d="M350.518,141.323v4.543l3.117,1.51V139.8Z" transform="translate(-341.222 -135.234)" fill="#39689e"/>
      <path id="Path_273" data-name="Path 273" d="M259.438,101.65v5.02l-3.56,2.617V99.032Z" transform="translate(-249.671 -95.799)" fill="#23c4ea"/>
    </g>
    <path id="Path_274" data-name="Path 274" d="M3779.2,301l6.232,4.573v7.563l-6.25,4.6-6.19-4.6v-7.563Z" transform="translate(-3273.997 -16)" fill="none" stroke="#fff" stroke-width="2"/>
  </g>
</svg>
