<svg xmlns="http://www.w3.org/2000/svg" width="54.795" height="55.314" viewBox="0 0 54.795 55.314">
  <g id="Group_222" data-name="Group 222" transform="translate(-5326.995 -324.428)">
    <g id="Group_221" data-name="Group 221">
      <path id="Path_167" data-name="Path 167" d="M5347.469,368.957l-9.791-9.883V345.1l9.791-9.883h13.846l9.791,9.883v13.978l-9.791,9.883Z" fill="#ff859e"/>
      <path id="Path_168" data-name="Path 168" d="M5348.911,365.443l-7.752-7.825V346.552l7.752-7.825h10.962l7.752,7.825v11.067l-7.752,7.825Z" fill="#ff6988"/>
      <path id="Path_169" data-name="Path 169" d="M5343.044,379.742l4.425-10.785h13.846l4.425,10.785Z" fill="#e01d46"/>
      <path id="Path_170" data-name="Path 170" d="M5347.469,368.957l-9.791-9.883-10.684,4.467,16.049,16.2Z" fill="#ff2150"/>
      <path id="Path_171" data-name="Path 171" d="M5365.741,379.742l-4.425-10.785,9.791-9.883,10.684,4.467Z" fill="#c70c33"/>
      <path id="Path_172" data-name="Path 172" d="M5371.106,359.074V345.1l10.684-4.467v22.912Z" fill="#e01d46"/>
      <path id="Path_173" data-name="Path 173" d="M5337.678,359.074V345.1l-10.684-4.467v22.912Z" fill="#ff4d72"/>
      <path id="Path_174" data-name="Path 174" d="M5371.106,345.1l-9.791-9.883,4.425-10.785,16.049,16.2Z" fill="#ff2150"/>
      <path id="Path_175" data-name="Path 175" d="M5347.469,335.213l-4.425-10.785h22.7l-4.425,10.785Z" fill="#ff4d72"/>
      <path id="Path_176" data-name="Path 176" d="M5337.678,345.1l9.791-9.883-4.425-10.785-16.049,16.2Z" fill="#ff6384"/>
    </g>
  </g>
</svg>
