<svg xmlns="http://www.w3.org/2000/svg" width="28" height="22" viewBox="0 0 28 22">
  <g id="quality" transform="translate(-0.05 -6.846)">
    <path id="Path_390" data-name="Path 390" d="M101.271,121H83.518a.767.767,0,0,0-.422.138l.448,5.644,4.009,1.856,4.06-2.175,5.623,2.175,4.035-1.989.422-5.511A.766.766,0,0,0,101.271,121Z" transform="translate(-78.347 -114.154)" fill="#fea832"/>
    <path id="Path_391" data-name="Path 391" d="M261.041,128.638l4.243-1.989.444-5.511a.835.835,0,0,0-.444-.138h-9.335v5.765Z" transform="translate(-242.146 -114.154)" fill="#fe9923"/>
    <path id="Path_393" data-name="Path 393" d="M27.964,128.188l-4.2-6.789a.826.826,0,0,0-.266-.261l-4.532,7.5L14.048,121l-4.923,7.638-4.532-7.5a.826.826,0,0,0-.266.261L.151,128.188a.821.821,0,0,0-.1.45L4.1,131.183H22.9l5.148-2.546A.871.871,0,0,0,27.964,128.188Z" transform="translate(0 -114.154)" fill="#ffd400"/>
    <path id="Path_394" data-name="Path 394" d="M265.107,131.183l5.325-2.546a.845.845,0,0,0-.089-.45L266,121.4a.841.841,0,0,0-.275-.261l-4.687,7.5L255.949,121v10.183Z" transform="translate(-242.382 -114.154)" fill="#fdbf00"/>
    <path id="Path_395" data-name="Path 395" d="M159.327,256H149.144l-1.008,5.728,6.1,8.755,5.7-7.588Z" transform="translate(-140.177 -241.638)" fill="#fea832"/>
    <path id="Path_396" data-name="Path 396" d="M261.041,256h-5.092v14.483l5.7-7.588Z" transform="translate(-242.019 -241.638)" fill="#fe9923"/>
    <path id="Path_397" data-name="Path 397" d="M.057,256a.9.9,0,0,0,.223.6l13.654,13.634a.846.846,0,0,0,.6.249L9.442,256Z" transform="translate(-0.006 -241.638)" fill="#fe8821"/>
    <path id="Path_398" data-name="Path 398" d="M261.041,256l-5.092,14.483a.846.846,0,0,0,.6-.249L270.223,256.6a.848.848,0,0,0,.209-.6Z" transform="translate(-242.382 -241.638)" fill="#e5741a"/>
  </g>
</svg>
