<svg xmlns="http://www.w3.org/2000/svg" xmlns:xlink="http://www.w3.org/1999/xlink" width="661" height="661" viewBox="0 0 661 661">
  <defs>
    <clipPath id="clip-path">
      <circle id="Ellipse_2" data-name="Ellipse 2" cx="330.5" cy="330.5" r="330.5" transform="translate(193.402 192.544)" fill="none"/>
    </clipPath>
  </defs>
  <g id="Group_8" data-name="Group 8" transform="translate(-193.402 -192.544)">
    <circle id="Ellipse_1" data-name="Ellipse 1" cx="330.5" cy="330.5" r="330.5" transform="translate(193.402 192.544)" fill="#f96400"/>
    <g id="Group_5" data-name="Group 5">
      <g id="Group_4" data-name="Group 4" clip-path="url(#clip-path)">
        <g id="Group_3" data-name="Group 3">
          <path id="Path_1" data-name="Path 1" d="M1148.485,1027.369c-6.973,3.017-14.278,1.66-21.482,1.631-29.611-12.492-60.986-19.613-91.333-29.888-46.093-15.607-92.933-28.918-138.308-46.8-13.108-5.165-26.686-9.475-39.515-15.4-14.136-6.531-16.656-14.785-10-28.859,4.63-9.789,11.643-17.916,18.766-25.884C931.3,809.821,994.2,735.939,1056.669,661.684c21.733-25.833,20.778-41.8-4.393-65.1-12.738-11.792-25.788-23.242-40.631-32.548-11.9-7.463-12.614-18.215-2.944-28.375a288.815,288.815,0,0,0,23.932-29.023c15.95-21.911,9.191-32.941-7.805-43.316-23.666-14.447-47.761-28.192-71.644-42.284C802.372,332.055,651.727,242.79,502.434,151.279c-17.523-10.742-33.887-23.388-50.662-35.328-11.623-8.273-13.09-14.448-4.058-25.632,17.161-21.25,35.173-41.813,52.839-62.655,2.235-2.638,5.866-4.348,5.66-8.589h45.2C542.72,35.7,528.459,47.1,514.268,58.562c-6.469,5.224-13.384,9.969-19.408,15.659-12.122,11.452-12.766,21.972-1.247,34.024,21.949,22.962,47.355,42.047,71.607,62.443C630.1,225.248,705.434,262.907,779.167,303,868.4,351.519,955.559,403.169,1037.111,463.92c24.461,18.222,26.287,33.552,5.89,56.68-12.147,13.773-10.254,27.935,7.8,45.116,11.1,10.564,19.414,22.8,26.866,35.864a80.136,80.136,0,0,1,10.172,31.44c1.237,11.558-1.6,21.737-9.517,30.737-62.031,70.514-118.71,145.465-179.809,216.756a51.272,51.272,0,0,0-9.786,16.149c-8.89,24.878-5.489,33.5,18.055,45.182,50.331,24.975,104.806,38.46,157.55,56.745C1092.344,1008.3,1121.209,1015.518,1148.485,1027.369Z" fill="#ffbfa9"/>
          <g id="Group_2" data-name="Group 2">
            <path id="Path_2" data-name="Path 2" d="M739.621-9.833c-1.044,6.475-7.209,6.872-11.46,9.018Q684.1,21.428,641.441,46.223c-20.861,12.182-21.874,19.339-3.351,35.2,20.822,17.831,45.372,30.413,67.787,46.051,55.229,38.531,108.408,80.2,167.27,113.246,52.506,29.479,106.286,56.69,158.79,86.172,58.784,33.008,113.674,72.063,167.865,112.052,3.151,2.325,5.66,5.514,8.495,8.274,14.539,14.151,14.811,18.1,2.3,33.776-9.571,11.989-6.633,30.008,7.822,41.974,15.278,12.649,25.259,29.065,34.856,45.862,6.043,10.577,2.28,20.811-1.951,30.766-8.26,19.433-19.741,37.055-31.831,54.228a1079.059,1079.059,0,0,1-83.045,103.927c-16.905,18.632-38.779,32.562-56.231,51.051-14.142,14.982-28.6,29.711-40.481,46.621-15.879,22.609-12.4,37.723,11.283,51.951,28.313,17.006,60.223,25.739,90.028,39.309,11.851,5.4,23.867,10.426,35.62,16.094-17.566-2.527-34.238-5.955-49.9-16.121-24.387-15.829-53.489-21.364-80.356-31.868-13.252-5.182-26.406-10.685-39.3-16.7-11.427-5.335-13.022-10.2-7.751-21.888,8.787-19.491,22.889-35.173,37.891-49.9,53.359-52.378,98.657-111.491,143.685-170.832,12.558-16.549,22.277-34.679,26.7-55.208,4.622-21.443-.136-39.865-14.1-57.646-7.893-10.047-18.269-16.635-26.337-25.995-9.208-10.684-9.816-15.891-1.6-27.227,12.437-17.16,10.94-34.6-4.528-49.339-11.252-10.721-24.563-18.722-37.423-27.266-105.955-70.393-213.871-137.748-320.79-206.649-70.933-45.711-142.471-90.516-210.1-141.164-7.626-5.711-5.861-8.693.4-12.748,21.059-13.644,44.325-22.9,66.979-33.332,15.827-7.287,32.168-13.454,48.1-20.533,4.454-1.98,10.377-2.29,12.358-8.2Z" fill="#ffbfa9"/>
            <path id="Path_3" data-name="Path 3" d="M917.985,998.475c-7.952,3.259-16.21,1.459-24.361,1.475-42.005-16.605-85.279-29.562-127.885-44.436-19.44-6.787-39.135-12.841-58.584-19.6-17-5.912-32.788-13.916-44.816-27.977-8.3-9.708-10.329-19.846-4.706-31.778,7.4-15.711,18.324-28.522,30.671-40.424,60.759-58.571,117.808-120.737,175.969-181.822A85.725,85.725,0,0,0,877.1,635.432c9.81-18.191,7.426-31.856-7.7-45.789-16.861-15.535-33.367-31.376-48.595-48.567-15.134-17.083-14.206-28.572,5.3-39.852,8.652-5,16.049-11.5,23.973-17.289,15.374-11.228,15.448-35.945.495-48.428-15.9-13.274-34.985-21.617-52.63-32.178C646.365,312.607,494.951,221.614,341.7,133.715A503.148,503.148,0,0,0,246.53,91.1c-18.63-6.05-20.765-15.765-5.593-28.46C263.008,44.168,285.917,26.7,308.1,8.361c6.047-5,14.766-8.309,15.21-18.194h21.41C344-3.252,337.907-1.5,333.793,1.78c-20.431,16.27-42.071,31.057-60.684,49.545-13.315,13.226-12.282,25.563,4.582,32.584,80.764,33.624,149.378,87.69,223.777,131.979C614.8,283.355,727.459,351.953,842.9,415.819c14.871,8.227,31.117,13.969,44.552,24.8,16.894,13.615,16.457,20.154,2.246,36.164-11.465,12.916-27.632,18.14-40.336,28.745-13.488,11.259-14.577,23.416-1.106,34.43,21.542,17.614,39.275,39,59.3,58.083,8.894,8.477,10.274,18.3,6.325,29.329-3.925,10.96-10.233,20.567-17.878,29.226C840.432,719.533,784.75,782.381,725.62,842.052c-7.773,7.845-16.858,14.375-25.054,21.822-21.666,19.686-19.777,39.552,5.452,54.752,23.247,14.006,49.127,21.943,74.5,30.9,42.952,15.154,86.067,29.842,129.084,44.811C912.523,995.35,915.2,997.078,917.985,998.475Z" fill="#ffbfa9"/>
            <path id="Path_4" data-name="Path 4" d="M987.03-9.833c-5.7,6.622-14.38,8.105-21.447,12.392-17.671,10.717-19.55,23.013-4.11,37.034,17,15.433,36.692,28.25,52.01,45.111,59.189,65.15,136.56,104.937,208.9,151.615,79.217,51.118,161.228,97.92,237.617,153.409,20.531,14.913,40.457,30.585,57.005,50.107,6.939,8.185,10.008,14.7-.125,23.825-10.831,9.755-8.6,27.333,3.29,39.214,19.208,19.191,29.216,41.872,28.483,69.287-.306,11.455-3.111,21.761-9.322,31.386-28.285,43.837-63.687,81.849-98.585,120.251-8.563,9.424-16.3,19.117-22.666,30.267-19.37,33.937-43.809,63.046-80.249,80.159a65.912,65.912,0,0,0-19.442,13.521c-11.983,12.339-10.738,30.339,3.413,40.09,7.888,5.436,14.727,11.974,21.959,18.109a48.666,48.666,0,0,1,4.033,4.362c-3.917,3.488-6.158.075-8.423-1.339-18.456-11.52-35.832-24.574-52.774-38.173-10.8-8.667-10.978-12.053-.172-21.389,20.369-17.6,42.834-32.647,62.191-51.527,51.763-50.49,99.551-104.308,139.47-164.784,18.9-28.625,29.359-58.833,16.982-93.182a154.371,154.371,0,0,0-26.035-46.417c-4.874-5.9-6.493-9.986-1.24-17.244,8.576-11.849,5.917-24.96-.827-37.016-11.67-20.862-29.377-36.3-48.071-50.379-60.243-45.353-125.632-82.909-189.032-123.475-77.087-49.324-155.764-96.26-228.793-151.666-19.56-14.839-38.514-30.5-57.379-46.222-14.907-12.424-28.845-26.052-45.522-36.217-6.962-4.243-6-6.913.946-9.841A260.348,260.348,0,0,0,933.879,9.882c9.265-5.113,19.165-9.718,24.6-19.715Z" fill="#ffbfa9"/>
            <path id="Path_5" data-name="Path 5" d="M620.781,1000.209c-20.75-14.768-44.254-24.435-66.917-35.571-26.317-12.932-52.663-25.691-77-42.194-21.589-14.638-25.15-25.261-13.645-48.977,14.745-30.4,35.988-56.748,54.927-84.519,25.493-37.379,55.067-71.442,85.287-105,7.674-8.52,14.718-17.607,22.019-26.46,18.406-22.313,18.793-46.013,5.269-70.677-11.169-20.37-26.633-37.106-44.427-51.822-11.772-9.736-12.85-15.386-5.317-28.479a52.667,52.667,0,0,1,3.156-5.027c21.248-28.818,6.824-50.428-10.237-66.707-10.68-10.189-23.167-18.054-36.333-24.5-69.8-34.164-135.857-74.952-202.795-114.15-55.345-32.409-109.982-66.025-164.948-99.081-3.353-2.017-6.4-4.792-10.658-4.841V168.44c34.039,17.054,66.226,37.362,98.983,56.637,104.488,61.482,208.7,123.435,310.761,188.91,16.995,10.9,33.782,22.241,49.83,34.472,18.295,13.944,17.249,34.365-1.417,47.687-17.6,12.558-17.292,29.3.43,41.513,15.7,10.816,30.281,23.027,42.245,37.99,19.365,24.219,20.057,44.5,1.006,68.854-45.664,58.381-95.47,113.26-144.517,168.765-14.5,16.409-27.884,33.509-37.334,53.347-11.626,24.408-7.485,41.978,14.214,58.335,20.094,15.147,43.388,24.5,66.015,35.013,29.061,13.5,59.807,23.354,87.281,40.279Q633.716,1000.224,620.781,1000.209Z" fill="#ffbfa9"/>
            <path id="Path_6" data-name="Path 6" d="M159.162,905.3c6.99-1.8,10.941-7.639,15.732-12.185q106.438-100.981,212.7-202.156c34.85-33.116,35.3-77.383.71-111.509a260.131,260.131,0,0,0-45.343-36.339c-6.515-4.04-6.572-6.952-.343-10.811,5.386-3.336,10.765-6.689,16.036-10.2,7.573-5.048,15.448-9.752,22.484-15.474,20.606-16.755,21.074-35.565-.6-50.8-23.278-16.362-47.891-30.911-72.452-45.351-44.721-26.292-89.8-51.973-134.834-77.736-4.286-2.452-8.272-6.533-14.088-5.042V311.058c22.025,9.2,41.475,23.007,62.057,34.772,59.109,33.786,116.773,70.116,177.843,100.441a78.51,78.51,0,0,1,22.087,15.873c10.73,11.21,10.923,20.779.371,32.229-7.611,8.259-17.212,13.877-26.853,19.377-4.812,2.745-9.945,5-14.494,8.118-13.822,9.469-13.745,22.358.469,31.1,18.277,11.245,35.984,22.978,50.032,39.617,25.8,30.557,27.331,48.163,3.724,80.486-20.867,28.572-47.639,51.853-73.028,76.221-40.271,38.652-81.312,76.5-122.007,114.714-11.905,11.178-22.572,23.384-29.875,38.129-8.416,16.991-5.429,31.295,9,43.552,11.058,9.394,24.073,15.208,37.789,19.407,31.047,9.507,62.174,18.747,93.245,28.177,4.09,1.241,8.663,1.474,11.841,4.951-21.5,4.205-43.193,1.209-64.793,1.687-22.144-9.262-44.009-19.286-66.513-27.574a143.1,143.1,0,0,0-70.894-7.613Z" fill="#ffbfa9"/>
            <path id="Path_7" data-name="Path 7" d="M761.506,999.787l-21.954.309c-24.126-14.58-50.775-23.966-75.785-36.731-20.038-10.227-41.336-17.732-60.7-29.6-6.968-4.272-15.96-6.147-23.709-9.95-15.658-7.688-19.7-17.166-14.077-33.84,3.6-10.662,9.854-19.775,17.038-28.331,48.874-58.2,99.975-114.566,145.494-175.53,10.174-13.626,19.666-27.788,28.93-42.055,12.825-19.751,12.779-39.024-2.238-58.2-10.083-12.875-22.114-23.734-33.339-35.436-4.932-5.14-10.1-10.1-14.587-15.609-9.418-11.57-7.145-23.384,4.9-32.626,11.68-8.966,21.582-19.2,24.91-34.714,2.519-11.744-.873-19.576-10.35-26.421-34.669-25.043-71.464-46.706-108.209-68.431-65.117-38.5-131.158-75.354-197.8-111.176-46.443-24.965-89.512-55.473-133.545-84.356-38.551-25.288-80.381-44.393-121.6-64.653-1.672-.822-3.8-.715-5.719-1.041v-7.131c82.9,26.335,154.5,74.654,228.489,118.08C505.2,291.333,621.82,361.884,736.819,435.076c10.173,6.475,18.393,14.627,26.246,23.657,5.688,6.541,4.543,11.27-.922,16.152q-15.471,13.818-31.33,27.2c-13.125,11.08-14.109,22.2-3.235,35.639,8.374,10.351,20.757,15.538,30.426,24.282,12.029,10.879,25.457,20.279,34.09,34.478,12.7,20.882,11.6,29.266-4.052,47.6-61.478,72-121.133,145.513-180.793,219.016a91.572,91.572,0,0,0-16.178,30.224c-2.5,7.873-1.626,15.405,4.484,20.851,7.587,6.762,15.242,13.507,24.748,17.955,46.241,21.638,92.329,43.6,138.453,65.489A15.526,15.526,0,0,1,761.506,999.787Z" fill="#ffbfa9"/>
            <path id="Path_8" data-name="Path 8" d="M159.162,244.5c19.852,8.193,37.708,20.078,56.207,30.714,86.561,49.77,173.536,98.85,257.91,152.315a206.893,206.893,0,0,1,32.837,25.392c9.532,9.148,12.478,20.808,14.68,32.8,1.187,6.464-1.829,12.231-6.253,17.249-18.143,20.576-15.294,33.584,7.163,48.312,18.934,12.418,35.026,28.552,45.564,49.18,8.361,16.366,5.339,31.224-6.275,45.1-34.319,41.013-68.312,82.3-102.684,123.266-27.751,33.078-55.93,65.8-83.781,98.79-7.921,9.384-15.535,19.078-20.563,30.428-6.144,13.871-4.521,19.439,8.234,27.907,10.33,6.858,21.845,11.2,33.6,14.855,48.548,15.089,94.267,37.006,140.408,57.908a18.693,18.693,0,0,1-10.672,1.445c-31.7-17.437-65.619-29.4-100.019-40.085-36.037-11.194-70.387-26.382-104.273-42.8-10.043-4.864-9.836-10.461-3.765-18.512,29.1-38.591,60.841-74.99,92.513-111.431,38.426-44.214,77.3-88.044,116-132.02,20.566-23.369,22.689-42.82,4.881-68.685-13.874-20.151-30.1-38.523-51.949-50.92-7-3.973-10-8.651-4.7-17.236,19.722-31.97,14.685-60.019-15-84.929-24.716-20.742-53.178-35.792-81.291-51.17C307.765,344,237.962,304.988,168.977,264.519c-3.035-1.78-5.865-4.222-9.815-3.377Z" fill="#ffbfa9"/>
            <path id="Path_9" data-name="Path 9" d="M799.094-9.833C784.372,6.708,769.181,22.862,755.057,39.9c-14.2,17.127-12.147,25.143,5.771,38.585,138.7,104.051,286.505,194.213,434.1,284.721,37.087,22.742,73.591,46.452,108.051,73.086,6.193,4.787,11.5,10.888,16.564,16.924,6.932,8.254,7.492,16.374.085,25.58-9.508,11.817-8.894,21.408.451,33.355,9.058,11.578,16.631,24.049,24.192,36.628,8.194,13.631,7.691,26.761,1.826,40.791-12.775,30.565-30.95,57.936-49.946,84.786-28.859,40.792-60.1,79.663-94.89,115.624-6.93,7.164-14.164,13.871-23.013,18.577-14.985,7.969-26.71,19.548-37.405,32.508-24.312,29.46-17.15,46.474,14.3,66.971,9.834,6.41,20.31,11.836,29.218,20.128-10.722-5.187-21.56-10.15-32.139-15.613-17.213-8.888-34.581-17.552-51.273-27.349-14.075-8.261-14.756-15.611-3.532-27.365a153.2,153.2,0,0,1,20.345-18.181c80.584-58.647,139.982-135.727,192.858-218.837,20.237-31.808,17.138-61-3.28-90.573a213.142,213.142,0,0,0-25.107-30.035c-4.368-4.348-4.732-7.879-.883-13.261,14.914-20.851,13.112-37.559-6.993-55.2-26.555-23.3-56.1-42.667-85.714-61.816-125.1-80.894-252.075-158.769-379.314-236.238-32.9-20.029-61.77-45.6-90.781-70.845-6.575-5.722-5.035-8.725.463-13.689C736.646,33.233,753.927,16.907,771.2.576c2.969-2.807,7.613-4.914,6.489-10.409Z" fill="#ffbfa9"/>
            <path id="Path_10" data-name="Path 10" d="M889.494-9.833c-8.1,9.376-20.122,13.8-28.636,22.681-17.409,18.164-17.449,31.194.238,48.881,17.718,17.718,38.12,32.2,57.965,47.319,44.414,33.828,88.263,68.473,133.79,100.746,54.283,38.48,110.668,73.851,169.813,104.634,55.14,28.7,104.708,65.483,152.162,105.33,12.728,10.687,26.394,20.262,39.093,30.981,8.5,7.172,12.53,15.512,5.452,26.965-6.6,10.681-4.237,21.285,4.906,30.165a89.563,89.563,0,0,1,6.344,7.078c25.606,30.788,28.088,49.443,8.513,84.115-30.756,54.48-71.361,101.694-112.36,148.519-25.779,29.442-55.017,54.34-90.492,71.939-23.951,11.882-26.968,23.52-13.572,49.272,10.3,19.8,24.017,37.191,39.337,53.352,2.1,2.219,4.94,3.971,5.332,8.285-7.35.68-12.024-4.124-16.674-7.628-25.474-19.2-39.79-46.788-54.5-73.977-2.779-5.135-1.359-10.186,3.158-13.856,3.982-3.235,8.006-6.727,12.59-8.87,49.791-23.287,86.573-62.441,122.341-102.13a715.417,715.417,0,0,0,82.832-111.435,154.249,154.249,0,0,0,11.4-23.467c9.873-25.538,5.983-49.015-12.015-69.822a194.683,194.683,0,0,0-15.709-16.176c-8.257-7.562-19.249-13-6.239-26.793,6.2-6.57,2-16.643-3.659-24.084a249.781,249.781,0,0,0-56.42-54.014c-64.416-44.891-132.268-84.361-198.908-125.729C1031.756,208,931.512,138.657,838.515,59.195c-2.108-1.8-4.27-3.553-6.266-5.473-10.991-10.575-11.173-15.719-.08-26.557,10.772-10.525,22.9-19.41,35.4-27.808,3.334-2.24,8.538-3.3,7.654-9.19Z" fill="#ffbfa9"/>
            <path id="Path_11" data-name="Path 11" d="M1277.016,87.73c.772,10.316,8.938,12.034,16.635,14.076,19.133,5.078,38.459,9.492,57.428,15.116,26.971,8,48.095,23.744,61.045,49.308,21.817,43.072,59.125,71.671,95.147,101.394,40.814,33.676,89.094,56.048,132.12,86.418,7.329,5.174,13.9,11.8,23.011,14.171v35.654c-13.318-5.569-23.282-15.981-34.725-24.228-32.14-23.161-64.661-45.709-99.785-64.191-56.223-29.585-102.995-70.518-143.753-118.757-9.707-11.489-20.27-22.364-28.993-34.554-20.073-28.052-46.772-45.6-80.1-53.437-11.551-2.716-18.808-9.553-21.82-20.97Z" fill="#ffbfa9"/>
            <path id="Path_12" data-name="Path 12" d="M1153.312,87.73c-3.926,7.952-12.349,10.874-18.488,16.349-13.723,12.239-13.39,22.781,1.428,33.839C1290.267,252.85,1445.587,365.91,1607.811,469.2c19.236,12.248,36.444,27.674,54.591,41.628V534.6c-34.889-43.853-80.848-74.371-127.058-104.364-94.378-61.254-189.885-120.894-279.829-188.607-44.624-33.594-88.863-67.644-135.034-99.109-.327-.223-.624-.487-.939-.728-25.57-19.523-25.554-20.974-1.85-41.317,3.974-3.41,9.652-6.043,9.451-12.745Z" fill="#ffbfa9"/>
            <path id="Path_13" data-name="Path 13" d="M159.162,448.922c17.817,12.28,33.675,27.356,53.107,37.32,6.539,3.353,5.2,7.993,2.486,12.884-4.642,8.376-11.163,15.31-17.473,22.412-14.891,16.76-15.037,29.264-.465,45.88,14.345,16.358,28.788,32.582,40.173,51.3,6.627,10.9,6.43,20.147-2.19,30.09-21.575,24.887-45.342,47.469-70.291,68.872-1.391,1.193-3.547,1.5-5.347,2.213V696.127c18.348-10.158,34.428-23.116,46.143-40.562a36.177,36.177,0,0,0,5.4-26.186c-5.608-33.039-25.009-56.917-51.538-75.87v-23.77c8.566-.405,12.314-7.84,17.674-12.61,8.387-7.462,13.627-17.073,9.8-28.541-4.494-13.472-12.656-24.118-27.476-27.781Z" fill="#ffbfa9"/>
            <path id="Path_14" data-name="Path 14" d="M518.314,97.273c9.126.284,16.513,5.477,24.115,9.362,50.439,25.778,97.795,56.795,145.7,86.832Q834.168,285.031,978,380.032c30.966,20.554,62.77,40,91.23,64.139,13.4,11.362,15.086,19.907,7.288,34.8-6.416,12.256-6.848,24.679,2.206,35.542,9.279,11.133,18.463,22.4,31.678,29.79,19.93,11.153,26.384,43.744,13.244,66.93-6.418,11.323-14.186,21.961-22.053,32.372C1054.508,705.92,1002.351,764.074,952.8,824.37c-11.327,13.785-22.354,27.79-31.921,42.874-5.632,8.88-10.258,17.978-5.86,28.993,1.02,2.553,1.437,5.754-1.776,7.292-2.7,1.295-4.191-1.466-5.915-2.809-12.061-9.4-14.721-21.678-7.644-35.95,6.929-13.973,17.017-25.792,26.964-37.577q79.727-94.458,159.908-188.532c18.457-21.588,20.4-44.554,8.8-69.547-9.031-19.466-22.153-35.8-38.146-50.028-13.1-11.653-13.09-13.051-2.634-26.828,10.49-13.823,8.974-39.222-3.54-52.824a56.229,56.229,0,0,0-12.74-10.585c-63.752-37.082-122.979-81.343-186.892-118.1C755.471,255.583,663.3,194.633,572.219,131.933c-17.575-12.1-35.809-23.244-53.739-34.83Z" fill="#ffbfa9"/>
            <path id="Path_15" data-name="Path 15" d="M60.874,909.854c6.99-1.8,10.94-7.638,15.732-12.184Q183.045,796.687,289.3,695.513c34.85-33.116,35.3-77.382.71-111.509a260.179,260.179,0,0,0-45.344-36.338c-6.514-4.04-6.571-6.952-.342-10.811,5.385-3.337,10.765-6.69,16.036-10.2,7.573-5.047,15.447-9.752,22.484-15.473,20.606-16.756,21.073-35.565-.6-50.8-23.278-16.363-47.891-30.912-72.452-45.351-44.721-26.293-89.8-51.973-134.834-77.736-4.286-2.453-8.272-6.534-14.088-5.043V315.612c22.025,9.2,41.475,23.008,62.057,34.772C182.039,384.17,239.7,420.5,300.774,450.826A78.491,78.491,0,0,1,322.861,466.7c10.729,11.209,10.923,20.778.371,32.229-7.611,8.259-17.213,13.877-26.853,19.377-4.812,2.745-9.945,5-14.494,8.118-13.823,9.469-13.745,22.357.468,31.1,18.278,11.245,35.984,22.978,50.033,39.617,25.8,30.556,27.33,48.163,3.724,80.486-20.867,28.572-47.639,51.852-73.029,76.221-40.271,38.651-81.311,76.5-122.006,114.713-11.906,11.179-22.572,23.384-29.875,38.129-8.416,16.991-5.429,31.3,9,43.552,11.059,9.394,24.074,15.208,37.79,19.408,31.046,9.506,62.174,18.747,93.244,28.176,4.091,1.242,8.664,1.474,11.841,4.951-21.5,4.2-43.192,1.209-64.792,1.688-22.145-9.263-44.009-19.286-66.513-27.575a143.1,143.1,0,0,0-70.894-7.612Z" fill="#ffbfa9"/>
          </g>
        </g>
      </g>
    </g>
    <path id="Path_16" data-name="Path 16" d="M701.277,240.654a340.81,340.81,0,0,0-76.256-35.074L209.041,621.56a295,295,0,0,0,45.831,91.53l56.912-57.208c2.441-2.315,4.793-4.72,7.253-7.016-.03-.061-.06-.123-.091-.184L657.425,308.444c19.8-18.521,38.76-37.887,57.339-57.637C710.282,247.4,706.046,243.594,701.277,240.654Z" fill="#fff" opacity="0.19"/>
    <path id="Path_17" data-name="Path 17" d="M282.537,749.863,752.295,280.105a49.933,49.933,0,0,0-15.048-10.534l-64.289,63.622L266.841,731.043A99.116,99.116,0,0,0,282.537,749.863Z" fill="#fff" opacity="0.19"/>
    <path id="Path_18" data-name="Path 18" d="M847.657,448.035c-3.887-16.257-8.962-32.211-14.346-48.083-18.788,16.541-35.5,35.2-53.5,52.548-4.712,4.542-9.561,8.943-14.347,13.409L445.874,785.354l.862.175Q431.91,800.646,417.1,815.777c-4.584,4.7-9,9.556-13.493,14.34a255.267,255.267,0,0,0,46.507,15.463Z" fill="#fff" opacity="0.19"/>
    <path id="Path_19" data-name="Path 19" d="M784.38,348.71c3.974-.491,8.478-1.019,12.973-1.619a29.606,29.606,0,0,0,3.823-.841,13.51,13.51,0,0,0,10.349-11.316c.969-5.24,1.552-10.551,2.214-15.193.451,3.7.929,8.081,1.547,12.447a30.955,30.955,0,0,0,1.229,5.07c1.794,5.6,6.013,8.431,11.514,9.413,5.077.9,10.216,1.46,14.9,2.109-3.476.389-7.412.8-11.338,1.286-1.478.183-2.94.518-4.4.838-7.544,1.652-10.856,6.931-11.881,14.061-.643,4.475-1.117,8.973-1.609,12.989-.551-4.314-.987-9.1-1.8-13.813-1.455-8.425-5.33-12.251-13.8-13.667C793.384,349.686,788.615,349.244,784.38,348.71Z" fill="#fff"/>
    <path id="Path_20" data-name="Path 20" d="M680.872,276.558c8.389-1.036,17.9-2.151,27.38-3.416a62.314,62.314,0,0,0,8.069-1.777c12.3-3.349,19.572-11.6,21.842-23.881,2.044-11.059,3.275-22.268,4.673-32.065.951,7.8,1.96,17.056,3.264,26.269a65.334,65.334,0,0,0,2.593,10.7c3.787,11.828,12.691,17.794,24.3,19.865,10.715,1.912,21.562,3.082,31.44,4.453-7.336.821-15.643,1.683-23.929,2.713-3.119.387-6.2,1.1-9.28,1.768-15.922,3.487-22.913,14.629-25.076,29.677-1.358,9.443-2.358,18.938-3.4,27.412-1.162-9.105-2.083-19.2-3.8-29.151-3.071-17.781-11.249-25.856-29.133-28.846C699.875,278.617,689.811,277.684,680.872,276.558Z" fill="#fff"/>
    <path id="Path_21" data-name="Path 21" d="M747.353,515.372c0,127.792-103.582,231.378-231.373,231.378S284.6,643.164,284.6,515.372,388.184,283.994,515.98,283.994,747.353,387.58,747.353,515.372Z" fill="#b04100"/>
    <path id="Path_22" data-name="Path 22" d="M753.888,525.013c0,126.073-102.194,228.271-228.267,228.271S297.35,651.086,297.35,525.013,399.543,296.741,525.621,296.741,753.888,398.939,753.888,525.013Z" fill="#f8954f"/>
    <g id="Group_6" data-name="Group 6">
      <path id="Path_23" data-name="Path 23" d="M433.264,480.059c21.171-22.739,77.876-74.353,145.89-60.665.286.057.574.106.862.144,6.026.8,77.685,11.647,110.046,78.428a52.7,52.7,0,0,1,1.226,43.519c-11.124,26.294-40.98,65.92-120.588,74.526,0,0-75.5,8.58-138.71-53.033a13.952,13.952,0,0,0-17.859-1.365A127.611,127.611,0,0,1,362.6,583.274a13.976,13.976,0,0,1-16.007-17.135c2.4-9.758,7.835-22.193,19.776-34.589a13.885,13.885,0,0,0-.026-19.408c-6.856-6.936-15.022-18.22-19.348-35.159a13.936,13.936,0,0,1,15.648-17.2c14,2.2,33.833,7.776,51.856,21.772A13.946,13.946,0,0,0,433.264,480.059Z" fill="#dc5100"/>
      <circle id="Ellipse_3" data-name="Ellipse 3" cx="10.5" cy="10.5" r="10.5" transform="translate(633.402 490.544)" fill="#dc5100"/>
    </g>
    <g id="Group_7" data-name="Group 7">
      <path id="Path_24" data-name="Path 24" d="M431.264,468.059c21.171-22.739,77.876-74.353,145.89-60.665.286.057.574.106.862.144,6.026.8,77.685,11.647,110.046,78.428a52.7,52.7,0,0,1,1.226,43.519c-11.124,26.294-40.98,65.92-120.588,74.526,0,0-75.5,8.58-138.71-53.033a13.952,13.952,0,0,0-17.859-1.365A127.611,127.611,0,0,1,360.6,571.274a13.976,13.976,0,0,1-16.007-17.135c2.4-9.758,7.835-22.193,19.776-34.589a13.885,13.885,0,0,0-.026-19.408c-6.856-6.936-15.022-18.22-19.348-35.159a13.936,13.936,0,0,1,15.648-17.2c14,2.2,33.833,7.776,51.856,21.772A13.946,13.946,0,0,0,431.264,468.059Z" fill="#f96400"/>
      <circle id="Ellipse_4" data-name="Ellipse 4" cx="10.5" cy="10.5" r="10.5" transform="translate(631.402 478.544)" fill="#ffbfa9"/>
    </g>
  </g>
</svg>
