<svg xmlns="http://www.w3.org/2000/svg" width="44.739" height="38.745" viewBox="0 0 44.739 38.745">
  <path id="Path_360" data-name="Path 360" d="M28.834,2a7.945,7.945,0,0,1,6.887,11.92l9.018,0v3.973H40.763V37.754a1.987,1.987,0,0,1-1.988,1.986H6.964a1.987,1.987,0,0,1-1.988-1.986V17.891H1V13.918l9.018,0A7.95,7.95,0,0,1,22.869,4.691,7.922,7.922,0,0,1,28.834,2ZM20.881,17.891H8.953V35.768H20.881Zm15.905,0H24.858V35.768H36.786ZM16.905,5.973a3.973,3.973,0,0,0-.3,7.935l.3.01h3.976V9.945a3.974,3.974,0,0,0-3.374-3.927L17.2,5.983Zm11.929,0a3.975,3.975,0,0,0-3.966,3.675l-.01.3v3.973h3.976A3.975,3.975,0,0,0,32.8,10.243l.01-.3A3.974,3.974,0,0,0,28.834,5.973Z" transform="translate(-0.5 -1.496)" fill="#939393" stroke="#f5f5f5" stroke-width="1"/>
</svg>
