<svg xmlns="http://www.w3.org/2000/svg" width="11.147" height="12.767" viewBox="0 0 11.147 12.767">
  <g id="Group_102" data-name="Group 102" transform="translate(-470 -187)">
    <path id="Path_254" data-name="Path 254" d="M44.913,241.463l-1.212-.441a.35.35,0,0,0-.127-.022H35.809a.37.37,0,0,0-.374.374v5.261a1.121,1.121,0,0,0,1.122,1.122h7.481a1.121,1.121,0,0,0,1.122-1.122v-4.82A.371.371,0,0,0,44.913,241.463Z" transform="translate(434.639 -47.989)" fill="#fc1a40"/>
    <path id="Path_255" data-name="Path 255" d="M235.3,241.814v4.82a1.121,1.121,0,0,1-1.122,1.122h-3.74V241h3.277a.35.35,0,0,1,.127.022l1.212.441A.371.371,0,0,1,235.3,241.814Z" transform="translate(244.501 -47.989)" fill="#c60034"/>
    <path id="Path_256" data-name="Path 256" d="M164.417,2.439a1.514,1.514,0,0,0-1.025-1.085,1.49,1.49,0,0,0-1.451.314l-.868.763L160.9,1.287a1.515,1.515,0,0,0-.92-1.174A1.42,1.42,0,0,0,159.69.03a1.488,1.488,0,0,0-1.182.262,1.51,1.51,0,0,0,.374,2.648l.808.292.995.367h.007l1.728.636a1.6,1.6,0,0,0,.524.09,1.524,1.524,0,0,0,1.474-1.885Z" transform="translate(315.247 187)" fill="#fe9923"/>
    <path id="Path_257" data-name="Path 257" d="M234.7,5.092a1.513,1.513,0,0,1-1.01.389,1.605,1.605,0,0,1-.524-.09l-1.728-.636h-.007l-.995-.367v-3.2a1.421,1.421,0,0,1,.292.082,1.515,1.515,0,0,1,.92,1.174l.172,1.145.868-.763a1.49,1.49,0,0,1,1.451-.314,1.516,1.516,0,0,1,.561,2.581Z" transform="translate(244.501 185.843)" fill="#fe8821"/>
    <path id="Path_258" data-name="Path 258" d="M43.56,55,43.051,56.4a.379.379,0,0,1-.352.239.35.35,0,0,1-.127-.022l-3.868-1.406-.352-1.16-.935.209-.823.187-3.868-1.406a.381.381,0,0,1-.224-.479l.516-1.406a1.115,1.115,0,0,1,1.436-.673l2.962,1.077.2.075s.808,1.466.83,1.466.337-.18.651-.352.628-.352.628-.352l3.157,1.152a1.134,1.134,0,0,1,.636.584A1.107,1.107,0,0,1,43.56,55Z" transform="translate(437.518 137.84)" fill="#ff3e75"/>
    <path id="Path_259" data-name="Path 259" d="M236.577,99.833l-.509,1.406a.379.379,0,0,1-.352.239.35.35,0,0,1-.127-.022l-3.868-1.406-.352-1.16-.935.209V96.4l.2.075s.808,1.466.83,1.466.337-.18.651-.352.628-.352.628-.352l3.157,1.152a1.134,1.134,0,0,1,.636.584A1.107,1.107,0,0,1,236.577,99.833Z" transform="translate(244.501 93.005)" fill="#fc1a40"/>
    <path id="Path_260" data-name="Path 260" d="M185.435,241v6.758h2.244V241Z" transform="translate(288.379 -47.989)" fill="#fcbf29"/>
    <path id="Path_261" data-name="Path 261" d="M198.46,99.4l-.2.554-.823,2.259.823.3.935.337.352.127,1.025-2.813Z" transform="translate(276.678 90.081)" fill="#fcbf29"/>
    <rect id="Rectangle_55" data-name="Rectangle 55" width="1.122" height="6.758" transform="translate(474.936 193.01)" fill="#fe9923"/>
    <path id="Path_262" data-name="Path 262" d="M232.747,100.161l-1.025,2.813-.352-.127-.935-.337V99.952l.2-.554Z" transform="translate(244.501 90.081)" fill="#fe9923"/>
  </g>
</svg>
