<svg xmlns="http://www.w3.org/2000/svg" width="44.573" height="38.633" viewBox="0 0 44.573 38.633">
  <g id="Group_101" data-name="Group 101" transform="translate(-9989 -1107)">
    <path id="Path_309" data-name="Path 309" d="M350.435,228.813a3.187,3.187,0,0,0-3.3-3.068c-.072,0-.141.011-.212.019a5.457,5.457,0,0,0-8.61-5.644c0-.035,0-.07,0-.105a7.78,7.78,0,0,0-14.618-3.42,3.563,3.563,0,0,0-6.225,2.5c0,.015,0,.029,0,.044a5.435,5.435,0,0,0-5.8,6.561,3.184,3.184,0,1,0-1,6.279,9.448,9.448,0,0,0,9.387,12.19c.238-.009.473-.029.707-.055A3.557,3.557,0,0,0,326.9,245.8a5.456,5.456,0,0,0,9.473-3.74,3.183,3.183,0,0,0,5.843-1.249,7.72,7.72,0,0,0,6.159-8.9A3.186,3.186,0,0,0,350.435,228.813Z" transform="translate(9681.932 895.475)" fill="#f2b1d0"/>
    <circle id="Ellipse_11" data-name="Ellipse 11" cx="1.181" cy="1.181" r="1.181" transform="translate(10005.113 1107)" fill="#f2b1d0"/>
    <circle id="Ellipse_12" data-name="Ellipse 12" cx="1.125" cy="1.125" r="1.125" transform="translate(10030.802 1118.601)" fill="#f2b1d0"/>
    <circle id="Ellipse_13" data-name="Ellipse 13" cx="1.268" cy="1.268" r="1.268" transform="translate(9989 1127.708)" fill="#f2b1d0"/>
    <ellipse id="Ellipse_14" data-name="Ellipse 14" cx="22.287" cy="2.973" rx="22.287" ry="2.973" transform="translate(9989 1137.258)" fill="#a3a7a8"/>
    <path id="Path_310" data-name="Path 310" d="M408.572,265.4c-1.115-1.3-2.483-.105-2.736.147s-.484.379-.666.267a32.171,32.171,0,0,0-13.46-6.79h0c.21-2.83.171-8.365-2.728-12.079-3.283-4.04-14.94-5.176-17.549,4.882a22.608,22.608,0,0,0,1.227,15.617l-.009-.012s-1.534.725-1.913,1.63-.015,3.38,4.822,2.5l-.017-.024a16.3,16.3,0,0,0,6.209,3.983c-1.057.893-1.548,1.672-1.524,2.134.027.533.3,2.1,4.485,1.459a12.677,12.677,0,0,0,4.945-2.347l0,.018a18.77,18.77,0,0,0,10.886-3.732c.9-.729,2.89-3.086,4.4-3.984C409.042,267.1,409.1,266.133,408.572,265.4Z" transform="translate(9623.68 866.266)" fill="#fff"/>
    <path id="Path_330" data-name="Path 330" d="M675.966,319.876c-.582-1.279-1.953-2.3-.953-3.83,1.015-1.558,3.708-.821,5.026-.144,1.4.718,2.866,2.13,2.158,3.835a2.682,2.682,0,0,1-.851,1.047,6.51,6.51,0,0,1-4.01,1.091c-.373-.007-1.572.007-1.826-.312-.274-.346.67-.666.61-1.152A1.8,1.8,0,0,0,675.966,319.876Z" transform="translate(9341.609 800.287)" fill="#fff"/>
    <path id="Path_331" data-name="Path 331" d="M675.46,320l-.169,0h-.105c-.811-.009-1.6-.061-1.841-.371-.231-.291.05-.557.256-.751.167-.158.341-.322.321-.48a1.659,1.659,0,0,0-.14-.488,7.42,7.42,0,0,0-.551-.943c-.583-.894-1.185-1.819-.391-3.039,1.034-1.587,3.694-.987,5.23-.2,1.557.8,2.96,2.281,2.231,4.036a2.821,2.821,0,0,1-.9,1.11A6.5,6.5,0,0,1,675.46,320Zm-.436-6.75a2.157,2.157,0,0,0-1.92.848c-.682,1.047-.185,1.811.391,2.694a7.638,7.638,0,0,1,.574.985h0a1.961,1.961,0,0,1,.166.58c.039.316-.214.555-.418.748s-.265.275-.226.326c.124.156.661.241,1.6.251h.107a6.27,6.27,0,0,0,3.91-1.058,2.513,2.513,0,0,0,.8-.983c.647-1.556-.652-2.9-2.084-3.633A6.854,6.854,0,0,0,675.024,313.253Z" transform="translate(9343.65 802.318)" fill="#1a1818"/>
    <path id="Path_332" data-name="Path 332" d="M703.232,342.351a.738.738,0,0,1,.565-.678c.425-.058.734.369,1.012.7a.7.7,0,0,0,.281.224c.234.083.485-.069.734-.067a.738.738,0,0,1,.669.7,1.206,1.206,0,0,1-.425.935c-.449.416-1.435,1.061-2,.639A3.975,3.975,0,0,1,703.232,342.351Z" transform="translate(9315.107 775.661)" fill="#f2b1d0"/>
    <path id="Path_333" data-name="Path 333" d="M708.472,339.825a.877.877,0,0,1-.612-.216,4.029,4.029,0,0,1-.623-2.628h0a.854.854,0,0,1,.741-.713c.461-.015.741.406.972.745l.068.1a.6.6,0,0,0,.21.211.675.675,0,0,0,.37.013,1.365,1.365,0,0,1,.329-.017.858.858,0,0,1,.7.881,1.309,1.309,0,0,1-.563.979A3.049,3.049,0,0,1,708.472,339.825Zm-1-2.8a3.914,3.914,0,0,0,.551,2.4c.437.4,1.378-.047,1.9-.445a1.089,1.089,0,0,0,.469-.8.625.625,0,0,0-.491-.639,1.1,1.1,0,0,0-.272.016.87.87,0,0,1-.5-.033.8.8,0,0,1-.3-.29l-.069-.1c-.214-.315-.436-.641-.751-.641h-.016a.625.625,0,0,0-.518.525Z" transform="translate(9311.412 780.67)" fill="#1a1818"/>
    <path id="Path_334" data-name="Path 334" d="M685.987,325.839a1,1,0,0,1,.757-.455.287.287,0,0,1,.288.122.273.273,0,0,1-.078.283,2.863,2.863,0,0,1-.685.409,1.7,1.7,0,0,0-.385.351C685.684,326.405,685.877,326.006,685.987,325.839Z" transform="translate(9331.276 790.768)" fill="#f2b1d0"/>
    <ellipse id="Ellipse_15" data-name="Ellipse 15" cx="1.438" cy="0.782" rx="1.438" ry="0.782" transform="translate(9996.98 1122.01)" fill="#f2b1d0"/>
    <ellipse id="Ellipse_16" data-name="Ellipse 16" cx="0.782" cy="1.438" rx="0.782" ry="1.438" transform="translate(10009.787 1124.268) rotate(-82.714)" fill="#f2b1d0"/>
    <path id="Path_335" data-name="Path 335" d="M488.69,398.817c.025-1.8-2.861-1.789-3.951-1.382a1.628,1.628,0,0,0-1.074,1.169,1.253,1.253,0,0,0,.583,1.2c.6.373,1.17-.094,1.707-.374a.342.342,0,0,1,.134-.048.392.392,0,0,1,.242.116,1.679,1.679,0,0,0,2.051-.045.872.872,0,0,0,.238-.286A.846.846,0,0,0,488.69,398.817Z" transform="translate(9518.807 724.133)" fill="#f2b1d0"/>
    <path id="Path_336" data-name="Path 336" d="M429.353,409.776a.158.158,0,0,1-.152-.114l-.134-.459a.158.158,0,1,1,.3-.088l.134.459a.158.158,0,0,1-.152.2Z" transform="translate(9569.448 713.196)" fill="#fff"/>
    <path id="Path_337" data-name="Path 337" d="M421.338,411.851l-.024,0a.158.158,0,0,1-.132-.18l.073-.473a.158.158,0,1,1,.312.048l-.073.473A.158.158,0,0,1,421.338,411.851Z" transform="translate(9576.76 711.284)" fill="#fff"/>
    <path id="Path_338" data-name="Path 338" d="M598.448,422.792a.163.163,0,0,1-.031,0,.158.158,0,0,1-.123-.186,4.677,4.677,0,0,0,.075-.526.155.155,0,0,1,.171-.144.158.158,0,0,1,.144.171,5.007,5.007,0,0,1-.08.562A.158.158,0,0,1,598.448,422.792Z" transform="translate(9412.455 701.2)" fill="#fff"/>
    <path id="Path_339" data-name="Path 339" d="M608.367,422.49a.158.158,0,0,1-.156-.133l-.075-.473a.158.158,0,0,1,.312-.049l.075.473a.158.158,0,0,1-.132.181Z" transform="translate(9403.323 701.414)" fill="#fff"/>
    <path id="Path_340" data-name="Path 340" d="M577.585,412.892h-.006c-.534-.025-1.075-.029-1.611-.012a.124.124,0,0,1-.122-.115.119.119,0,0,1,.115-.122c.542-.016,1.09-.013,1.63.013a.118.118,0,0,1-.005.237Z" transform="translate(9433.276 709.827)" fill="#1a1818"/>
    <path id="Path_341" data-name="Path 341" d="M574.219,421.9a.113.113,0,0,1-.027,0c-.522-.122-1.054-.225-1.582-.305a.118.118,0,0,1-.1-.135.121.121,0,0,1,.135-.1c.534.082,1.072.186,1.6.309a.119.119,0,0,1-.027.234Z" transform="translate(9436.373 701.738)" fill="#1a1818"/>
    <path id="Path_342" data-name="Path 342" d="M571.16,429.146a.118.118,0,0,1-.084-.035c-.379-.378-.777-.746-1.184-1.093a.118.118,0,1,1,.154-.18c.411.351.814.723,1.2,1.1a.118.118,0,0,1-.084.2Z" transform="translate(9438.839 695.746)" fill="#1a1818"/>
    <path id="Path_343" data-name="Path 343" d="M440.675,401.326a.115.115,0,0,1-.045-.009c-.494-.2-1-.393-1.511-.559a.118.118,0,0,1,.073-.225c.515.168,1.029.358,1.529.565a.118.118,0,0,1-.045.228Z" transform="translate(9560.194 721.057)" fill="#1a1818"/>
    <path id="Path_344" data-name="Path 344" d="M439.773,414.2a.11.11,0,0,1-.025,0c-.524-.112-1.058-.2-1.587-.275a.118.118,0,1,1,.031-.235c.536.071,1.076.165,1.606.278a.118.118,0,0,1-.025.234Z" transform="translate(9561.102 708.853)" fill="#1a1818"/>
    <path id="Path_345" data-name="Path 345" d="M439.669,425.329a.118.118,0,0,1-.049-.227c.493-.221,1-.426,1.512-.609a.118.118,0,0,1,.08.223c-.5.181-1.006.383-1.494.6A.121.121,0,0,1,439.669,425.329Z" transform="translate(9559.718 698.83)" fill="#1a1818"/>
    <circle id="Ellipse_17" data-name="Ellipse 17" cx="1.126" cy="1.126" r="1.126" transform="translate(10000.008 1118.755)" fill="#1a1818"/>
    <circle id="Ellipse_18" data-name="Ellipse 18" cx="0.272" cy="0.272" r="0.272" transform="translate(10001.508 1119.604)" fill="#fff"/>
    <circle id="Ellipse_19" data-name="Ellipse 19" cx="1.067" cy="1.067" r="1.067" transform="translate(10007.726 1119.05)" fill="#1a1818"/>
    <circle id="Ellipse_20" data-name="Ellipse 20" cx="0.263" cy="0.263" r="0.263" transform="translate(10009.103 1119.859)" fill="#fff"/>
    <path id="Path_346" data-name="Path 346" d="M480.662,419.278a1.8,1.8,0,0,1-1.479-.858.158.158,0,0,1,.262-.177,1.51,1.51,0,0,0,1.237.719,1.323,1.323,0,0,0,1.09-.661.158.158,0,0,1,.126-.073.153.153,0,0,1,.133.062,1.52,1.52,0,0,0,1.346.649,1.569,1.569,0,0,0,1.231-.927.158.158,0,1,1,.283.141,1.878,1.878,0,0,1-1.483,1.1,1.793,1.793,0,0,1-1.491-.61,1.6,1.6,0,0,1-1.229.635Z" transform="translate(9522.977 704.919)" fill="#1a1818"/>
    <path id="Path_347" data-name="Path 347" d="M506.252,399.231a.19.19,0,0,1,.1-.092.806.806,0,0,1,.336-.062,9.087,9.087,0,0,1,.943.022.326.326,0,0,1,.154.039.208.208,0,0,1,.087.147.376.376,0,0,1-.022.173.994.994,0,0,1-.611.595.652.652,0,0,1-.335-.006,1.312,1.312,0,0,1-.4-.242.657.657,0,0,1-.267-.423A.308.308,0,0,1,506.252,399.231Z" transform="translate(9497.856 722.406)" fill="#1a1818"/>
    <path id="Path_348" data-name="Path 348" d="M640.666,602.988l-2.145,1.949s7.247.792,13.946-6.955C652.467,597.982,644.456,603.943,640.666,602.988Z" transform="translate(9375.134 537.879)" fill="#f2b1d0"/>
    <path id="Path_349" data-name="Path 349" d="M380.732,273.035a.161.161,0,0,1-.053-.009c-10.494-3.772-12.8-15.038-10.495-23.91a9.941,9.941,0,0,1,7.678-7.677c3.777-.822,8.233.38,10.147,2.735,4.039,5.174,2.573,13.927,2.558,14.015a.16.16,0,0,1-.183.129.158.158,0,0,1-.128-.183c.015-.087,1.456-8.7-2.494-13.764-1.843-2.268-6.163-3.421-9.833-2.623a9.639,9.639,0,0,0-7.44,7.447c-2.267,8.738-.012,19.829,10.3,23.534a.158.158,0,0,1-.053.307Z" transform="translate(9624.824 868.882)" fill="#1a1818"/>
    <path id="Path_350" data-name="Path 350" d="M633.022,466.892l-.282,0a.158.158,0,0,1-.155-.161.167.167,0,0,1,.161-.155,18.6,18.6,0,0,0,10.783-3.7c.3-.248.744-.692,1.252-1.207a18.986,18.986,0,0,1,3.172-2.79c2.35-1.127,3.574-2.017,3.757-2.726a.817.817,0,0,0-.178-.715,1.374,1.374,0,0,0-1-.531,2.348,2.348,0,0,0-1.5.7c-.126.125-.507.507-.861.289a32.333,32.333,0,0,0-13.407-6.77.158.158,0,1,1,.059-.31,32.631,32.631,0,0,1,13.534,6.826c.106.062.329-.135.452-.258a2.643,2.643,0,0,1,1.736-.79,1.684,1.684,0,0,1,1.231.652,1.146,1.146,0,0,1,.236.988c-.21.816-1.454,1.746-3.914,2.925a18.893,18.893,0,0,0-3.1,2.734c-.515.522-.959.972-1.278,1.23A19.005,19.005,0,0,1,633.022,466.892Z" transform="translate(9380.641 676.263)" fill="#1a1818"/>
    <path id="Path_351" data-name="Path 351" d="M505.062,641.444a3.611,3.611,0,0,1-2.289-.593,1.548,1.548,0,0,1-.58-1.169c-.034-.655.776-1.685,2.114-2.687a5.545,5.545,0,0,0,2.105-2.589.158.158,0,0,1,.3.1,5.768,5.768,0,0,1-2.225,2.748c-1.4,1.047-2,1.967-1.979,2.412a1.228,1.228,0,0,0,.463.94c.651.53,1.979.658,3.839.371,3.627-.667,7.03-4.1,7.279-4.453a.158.158,0,1,1,.257.184c-.269.376-3.691,3.884-7.483,4.581A11.993,11.993,0,0,1,505.062,641.444Z" transform="translate(9501.604 504.189)" fill="#1a1818"/>
    <path id="Path_352" data-name="Path 352" d="M372.631,569.926a3.365,3.365,0,0,1-2.8-1.007,1.929,1.929,0,0,1-.311-1.9,4.6,4.6,0,0,1,1.991-1.712l.135.286c-.015.007-1.484.71-1.835,1.548a1.628,1.628,0,0,0,.266,1.578c.481.6,1.631,1.206,4.382.706l.056.311A10.556,10.556,0,0,1,372.631,569.926Z" transform="translate(9624.805 568.188)" fill="#1a1818"/>
    <path id="Path_353" data-name="Path 353" d="M541.731,710.112a.158.158,0,0,1-.147-.1,1.557,1.557,0,0,1,.157-1.424.648.648,0,0,1,.206-.206.158.158,0,1,1,.158.273.367.367,0,0,0-.1.11,1.254,1.254,0,0,0-.125,1.131.158.158,0,0,1-.089.2A.153.153,0,0,1,541.731,710.112Z" transform="translate(9465.159 435.481)" fill="#1a1818"/>
    <path id="Path_354" data-name="Path 354" d="M516,704.261a.158.158,0,0,1-.157-.142,2.158,2.158,0,0,1,.1-.976,1.4,1.4,0,0,1,.661-.766.158.158,0,0,1,.14.283,1.077,1.077,0,0,0-.506.594,1.847,1.847,0,0,0-.085.834.158.158,0,0,1-.141.173Z" transform="translate(9488.959 441.047)" fill="#1a1818"/>
    <path id="Path_355" data-name="Path 355" d="M391.189,605.19a.158.158,0,0,1-.154-.122,1.269,1.269,0,0,1,.729-1.456.158.158,0,1,1,.126.289.953.953,0,0,0-.548,1.094.158.158,0,0,1-.117.19A.145.145,0,0,1,391.189,605.19Z" transform="translate(9604.757 532.667)" fill="#1a1818"/>
    <path id="Path_356" data-name="Path 356" d="M377.7,593.85a.158.158,0,0,1-.153-.117,1.814,1.814,0,0,1,.58-1.823.158.158,0,1,1,.2.242,1.513,1.513,0,0,0-.477,1.5.158.158,0,0,1-.112.193A.153.153,0,0,1,377.7,593.85Z" transform="translate(9617.29 543.546)" fill="#1a1818"/>
  </g>
</svg>
