<svg xmlns="http://www.w3.org/2000/svg" width="29.999" height="27.272" viewBox="0 0 29.999 27.272">
  <g id="money" transform="translate(0 -23.272)">
    <path id="Path_403" data-name="Path 403" d="M28.635,41H1.364A1.368,1.368,0,0,1,0,39.635v-15a1.368,1.368,0,0,1,1.364-1.364H28.635A1.368,1.368,0,0,1,30,24.636v15A1.368,1.368,0,0,1,28.635,41Z" fill="#0e9347"/>
    <path id="Path_404" data-name="Path 404" d="M256.368,232.727a4.563,4.563,0,0,0-3.818,1.977,5.086,5.086,0,0,0-2.318-.614,4.77,4.77,0,0,0-4.7,4.091h14.249a1.387,1.387,0,0,0,1.364-1.159A4.857,4.857,0,0,0,256.368,232.727Z" transform="translate(-231.141 -197.183)" fill="#0d8944"/>
    <path id="Path_405" data-name="Path 405" d="M47.818,61.545H26a2.735,2.735,0,0,0-2.727-2.727V49.273A2.735,2.735,0,0,0,26,46.546H47.818a2.735,2.735,0,0,0,2.727,2.727v9.545A2.735,2.735,0,0,0,47.818,61.545Z" transform="translate(-21.909 -21.91)" fill="#3bb54a"/>
    <g id="Group_97" data-name="Group 97" transform="translate(5.454 25.999)">
      <path id="Path_406" data-name="Path 406" d="M262.94,232.727a4.563,4.563,0,0,0-3.818,1.977,5.086,5.086,0,0,0-2.318-.614,4.683,4.683,0,0,0-4.3,2.727h11.113a2.721,2.721,0,0,1,2.659-2.727A4.929,4.929,0,0,0,262.94,232.727Z" transform="translate(-243.168 -223.182)" fill="#0e9347"/>
      <ellipse id="Ellipse_30" data-name="Ellipse 30" cx="5.454" cy="6.136" rx="5.454" ry="6.136" transform="translate(4.091 0)" fill="#0e9347"/>
      <circle id="Ellipse_31" data-name="Ellipse 31" cx="1.364" cy="1.364" r="1.364" transform="translate(0 4.773)" fill="#0e9347"/>
      <circle id="Ellipse_32" data-name="Ellipse 32" cx="1.364" cy="1.364" r="1.364" transform="translate(16.363 4.773)" fill="#0e9347"/>
    </g>
    <path id="Path_407" data-name="Path 407" d="M212.864,108.138H211.5a.682.682,0,1,1,0-1.364h2.045a.682.682,0,1,0,0-1.364h-.682a.682.682,0,1,0-1.364,0,2.045,2.045,0,1,0,0,4.091h1.364a.682.682,0,0,1,0,1.364h-2.045a.682.682,0,1,0,0,1.364h.682a.682.682,0,1,0,1.364,0,2.045,2.045,0,0,0,0-4.091Z" transform="translate(-197.183 -76.684)" fill="#89c763"/>
    <circle id="Ellipse_33" data-name="Ellipse 33" cx="4.773" cy="4.773" r="4.773" transform="translate(12.954 36.908)" fill="#ffca5d"/>
    <circle id="Ellipse_34" data-name="Ellipse 34" cx="4.773" cy="4.773" r="4.773" transform="translate(19.09 35.544)" fill="#f6b545"/>
    <path id="Path_408" data-name="Path 408" d="M330.591,232.727a4.773,4.773,0,1,0,4.773,4.773A4.743,4.743,0,0,0,330.591,232.727Zm0,8.182A3.409,3.409,0,1,1,334,237.5,3.376,3.376,0,0,1,330.591,240.909Z" transform="translate(-306.728 -197.183)" fill="#ffcb5b"/>
    <path id="Path_409" data-name="Path 409" d="M407.273,318.886h0a4.686,4.686,0,0,0,4.773-4.7h-.068a.725.725,0,0,0-.682.614,4.122,4.122,0,0,1-1.3,2.454,3.863,3.863,0,0,1-2.114,1.023A.611.611,0,0,0,407.273,318.886Z" transform="translate(-383.41 -273.865)" fill="#f6b545"/>
    <path id="Path_410" data-name="Path 410" d="M330.591,233.866h0a4.686,4.686,0,0,0-4.773,4.7h.068a.725.725,0,0,0,.682-.614,4.122,4.122,0,0,1,1.3-2.454,3.863,3.863,0,0,1,2.114-1.023A.611.611,0,0,0,330.591,233.866Z" transform="translate(-306.728 -198.253)" fill="#ffe27a"/>
    <path id="Path_411" data-name="Path 411" d="M349.568,259.886a3.376,3.376,0,0,1,3.409-3.409,3.216,3.216,0,0,1,2.182.818,3.4,3.4,0,0,0-6.068,2.114A3.269,3.269,0,0,0,350.318,262,3.2,3.2,0,0,1,349.568,259.886Z" transform="translate(-328.637 -219.092)" fill="#f19920"/>
    <path id="Path_412" data-name="Path 412" d="M437.253,310.818a.25.25,0,0,1-.2-.068.33.33,0,0,1,0-.477,2.275,2.275,0,0,0,.614-1.568.341.341,0,0,1,.682,0,3.148,3.148,0,0,1-.75,2.045A.741.741,0,0,1,437.253,310.818Z" transform="translate(-411.344 -268.388)" fill="#ffcb5b"/>
    <g id="Group_98" data-name="Group 98" transform="translate(19.158 36.908)">
      <path id="Path_413" data-name="Path 413" d="M396.319,283.365a.644.644,0,0,1-.682-.682v-2.727a.682.682,0,0,1,1.364,0v2.727A.644.644,0,0,1,396.319,283.365Z" transform="translate(-391.614 -277.91)" fill="#f19920"/>
      <path id="Path_414" data-name="Path 414" d="M334.208,263.432a5.54,5.54,0,0,0-3.273-3.682,5.7,5.7,0,0,0-2.591-3.75,4.928,4.928,0,0,0-1.364,3.341,4.743,4.743,0,0,0,4.773,4.773A3.954,3.954,0,0,0,334.208,263.432Z" transform="translate(-326.981 -256)" fill="#f19920"/>
    </g>
    <g id="Group_99" data-name="Group 99" transform="translate(20.454 37.794)">
      <path id="Path_415" data-name="Path 415" d="M350.317,276.241a3.586,3.586,0,0,1-.818-2.182,3.3,3.3,0,0,1,1.091-2.454,2.964,2.964,0,0,0-.409-.477,3.34,3.34,0,0,0-1.091,2.523A3.269,3.269,0,0,0,350.317,276.241Z" transform="translate(-349.09 -271.128)" fill="#e78825"/>
      <path id="Path_416" data-name="Path 416" d="M395.636,321.164v.954a.682.682,0,1,0,1.364,0v-.136A5.57,5.57,0,0,0,395.636,321.164Z" transform="translate(-392.909 -318.232)" fill="#e78825"/>
    </g>
    <path id="Path_417" data-name="Path 417" d="M333.113,264.525a4.358,4.358,0,0,0-.545-1.3,3.3,3.3,0,0,1-1.977.682,3.376,3.376,0,0,1-3.409-3.409,3.34,3.34,0,0,1,1.091-2.523,4.159,4.159,0,0,0-1.091-.818,4.928,4.928,0,0,0-1.364,3.341,4.743,4.743,0,0,0,4.773,4.773A4.571,4.571,0,0,0,333.113,264.525Z" transform="translate(-306.728 -220.186)" fill="#f6b545"/>
    <path id="Path_418" data-name="Path 418" d="M409.59,372.364a4.713,4.713,0,0,1-1.7.682.725.725,0,0,0-.614.682h0a4.572,4.572,0,0,0,2.523-.75Z" transform="translate(-383.409 -328.638)" fill="#f19920"/>
    <path id="Path_419" data-name="Path 419" d="M327.182,257.164a4.928,4.928,0,0,0-1.364,3.341h.068a.725.725,0,0,0,.682-.614A4.243,4.243,0,0,1,327.8,257.5,2.766,2.766,0,0,1,327.182,257.164Z" transform="translate(-306.728 -220.188)" fill="#ffcb5b"/>
    <circle id="Ellipse_35" data-name="Ellipse 35" cx="4.773" cy="4.773" r="4.773" transform="translate(12.954 36.908)" fill="#f6b545"/>
    <path id="Path_420" data-name="Path 420" d="M290.909,318.954a4.726,4.726,0,0,0,.2,1.364h.477a4.756,4.756,0,0,0,4.568-6.136h-.477A4.743,4.743,0,0,0,290.909,318.954Z" transform="translate(-273.864 -273.864)" fill="#f19920"/>
    <path id="Path_421" data-name="Path 421" d="M225.863,256a4.773,4.773,0,1,0,4.773,4.773A4.743,4.743,0,0,0,225.863,256Zm0,8.182a3.409,3.409,0,1,1,3.409-3.409A3.376,3.376,0,0,1,225.863,264.182Z" transform="translate(-208.136 -219.092)" fill="#ffcb5b"/>
    <path id="Path_422" data-name="Path 422" d="M302.545,342.159h0a4.686,4.686,0,0,0,4.773-4.7h-.068a.725.725,0,0,0-.682.614,4.122,4.122,0,0,1-1.3,2.454,3.863,3.863,0,0,1-2.114,1.023A.611.611,0,0,0,302.545,342.159Z" transform="translate(-284.818 -295.774)" fill="#f6b545"/>
    <path id="Path_423" data-name="Path 423" d="M225.863,257.139h0a4.686,4.686,0,0,0-4.773,4.7h.068a.725.725,0,0,0,.682-.614,4.122,4.122,0,0,1,1.3-2.454,3.863,3.863,0,0,1,2.114-1.023A.611.611,0,0,0,225.863,257.139Z" transform="translate(-208.136 -220.163)" fill="#ffe27a"/>
    <path id="Path_424" data-name="Path 424" d="M244.84,283.159a3.376,3.376,0,0,1,3.409-3.409,3.216,3.216,0,0,1,2.182.818,3.4,3.4,0,0,0-6.068,2.114,3.269,3.269,0,0,0,1.227,2.591A3.2,3.2,0,0,1,244.84,283.159Z" transform="translate(-230.045 -241.001)" fill="#f19920"/>
    <path id="Path_425" data-name="Path 425" d="M332.526,334.09a.25.25,0,0,1-.2-.068.33.33,0,0,1,0-.477,2.275,2.275,0,0,0,.614-1.568.341.341,0,0,1,.682,0,3.148,3.148,0,0,1-.75,2.045A.741.741,0,0,1,332.526,334.09Z" transform="translate(-312.753 -290.296)" fill="#ffcb5b"/>
    <path id="Path_426" data-name="Path 426" d="M291.591,306.638a.644.644,0,0,1-.682-.682v-2.727a.682.682,0,1,1,1.364,0v2.727A.644.644,0,0,1,291.591,306.638Z" transform="translate(-273.864 -262.912)" fill="#f19920"/>
    <g id="Group_100" data-name="Group 100" transform="translate(16.363 40.317)">
      <path id="Path_427" data-name="Path 427" d="M294.728,314.249a3.988,3.988,0,0,1,.273,1.3,3.376,3.376,0,0,1-3.409,3.409,2.318,2.318,0,0,1-.682-.068v.068a4.726,4.726,0,0,0,.2,1.364h.477a4.756,4.756,0,0,0,4.568-6.136h-.477A4.507,4.507,0,0,0,294.728,314.249Z" transform="translate(-290.228 -314.181)" fill="#f6b545"/>
      <circle id="Ellipse_36" data-name="Ellipse 36" cx="4.773" cy="4.773" r="4.773" transform="translate(0 0.682)" fill="#f6b545"/>
    </g>
    <path id="Path_428" data-name="Path 428" d="M284.045,325.818a4.773,4.773,0,1,0,4.773,4.773A4.743,4.743,0,0,0,284.045,325.818Zm0,8.182a3.409,3.409,0,1,1,3.409-3.409A3.376,3.376,0,0,1,284.045,334Z" transform="translate(-262.909 -284.819)" fill="#ffcb5b"/>
    <path id="Path_429" data-name="Path 429" d="M360.727,411.977h0a4.686,4.686,0,0,0,4.773-4.7h-.068a.725.725,0,0,0-.682.614,4.122,4.122,0,0,1-1.3,2.454,3.863,3.863,0,0,1-2.114,1.023A.611.611,0,0,0,360.727,411.977Z" transform="translate(-339.591 -361.502)" fill="#f6b545"/>
    <path id="Path_430" data-name="Path 430" d="M284.045,326.957h0a4.686,4.686,0,0,0-4.773,4.7h.068a.725.725,0,0,0,.682-.614,4.122,4.122,0,0,1,1.3-2.454,3.863,3.863,0,0,1,2.114-1.023A.611.611,0,0,0,284.045,326.957Z" transform="translate(-262.909 -285.89)" fill="#ffe27a"/>
    <path id="Path_431" data-name="Path 431" d="M303.022,352.977a3.376,3.376,0,0,1,3.409-3.409,3.216,3.216,0,0,1,2.182.818,3.4,3.4,0,0,0-6.068,2.114,3.269,3.269,0,0,0,1.227,2.591A3.2,3.2,0,0,1,303.022,352.977Z" transform="translate(-284.818 -306.729)" fill="#f19920"/>
    <path id="Path_432" data-name="Path 432" d="M390.707,403.908a.25.25,0,0,1-.2-.068.33.33,0,0,1,0-.477,2.275,2.275,0,0,0,.614-1.568.341.341,0,0,1,.682,0,3.148,3.148,0,0,1-.75,2.045A.741.741,0,0,1,390.707,403.908Z" transform="translate(-367.526 -356.024)" fill="#ffcb5b"/>
    <path id="Path_433" data-name="Path 433" d="M349.773,376.455a.644.644,0,0,1-.682-.682v-2.727a.682.682,0,1,1,1.364,0v2.727A.644.644,0,0,1,349.773,376.455Z" transform="translate(-328.637 -328.638)" fill="#f19920"/>
  </g>
</svg>
