<svg xmlns="http://www.w3.org/2000/svg" xmlns:xlink="http://www.w3.org/1999/xlink" width="16.508" height="16.507" viewBox="0 0 16.508 16.507">
  <defs>
    <linearGradient id="linear-gradient" x1="0.215" y1="0.141" x2="0.789" y2="0.96" gradientUnits="objectBoundingBox">
      <stop offset="0" stop-color="#f3f3f3"/>
      <stop offset="1" stop-color="#808573"/>
    </linearGradient>
  </defs>
  <g id="Group_104" data-name="Group 104" transform="translate(-364 -483)">
    <g id="youtube-social-badge" transform="translate(364 483)">
      <g id="Group_6" data-name="Group 6" transform="translate(0 0)">
        <path id="Path_275" data-name="Path 275" d="M16.185,7.175,14.843,5.388l-.4-2.2a1.6,1.6,0,0,0-1.355-1.3l-2.212-.314L9.039.3a1.606,1.606,0,0,0-1.88.037L5.373,1.68l-2.2.4a1.606,1.606,0,0,0-1.3,1.355L1.558,5.647.286,7.484a1.6,1.6,0,0,0,.036,1.88l1.342,1.786.4,2.2a1.6,1.6,0,0,0,1.355,1.3l2.212.314,1.837,1.272a1.607,1.607,0,0,0,1.88-.037l1.786-1.342,2.2-.4a1.607,1.607,0,0,0,1.3-1.355l.314-2.212,1.272-1.837A1.6,1.6,0,0,0,16.185,7.175Z" transform="translate(0 -0.014)" fill="url(#linear-gradient)"/>
      </g>
    </g>
    <path id="Path_435" data-name="Path 435" d="M3.77-5.166a1.448,1.448,0,0,0-.1-.562,1.112,1.112,0,0,0-.273-.4,1.12,1.12,0,0,0-.408-.237A1.6,1.6,0,0,0,2.48-6.44a1.68,1.68,0,0,0-.459.063,2.231,2.231,0,0,0-.437.176,2.688,2.688,0,0,0-.41.269,2.963,2.963,0,0,0-.369.347v-.859a2.394,2.394,0,0,1,.754-.5,2.656,2.656,0,0,1,1.018-.173,2.458,2.458,0,0,1,.8.125,1.825,1.825,0,0,1,.635.364,1.682,1.682,0,0,1,.422.591,1.993,1.993,0,0,1,.154.806,2.763,2.763,0,0,1-.1.752,2.325,2.325,0,0,1-.288.635,3.063,3.063,0,0,1-.486.571,6.882,6.882,0,0,1-.688.557q-.493.352-.813.6a3.594,3.594,0,0,0-.508.466,1.353,1.353,0,0,0-.264.435,1.519,1.519,0,0,0-.076.5H4.854V0H.532V-.347a2.889,2.889,0,0,1,.1-.791,2.054,2.054,0,0,1,.322-.649A3.6,3.6,0,0,1,1.541-2.4Q1.9-2.71,2.432-3.1a5.634,5.634,0,0,0,.637-.522,2.716,2.716,0,0,0,.413-.5A1.789,1.789,0,0,0,3.7-4.622,2.179,2.179,0,0,0,3.77-5.166Z" transform="translate(369.468 494.119)" fill="#111"/>
  </g>
</svg>
