<svg xmlns="http://www.w3.org/2000/svg" xmlns:xlink="http://www.w3.org/1999/xlink" viewBox="0 0 444.8 714.77">
                            <g xmlns="http://www.w3.org/2000/svg" id="c_vneck" style="display: none;">
                                <path class="cls-25" d="M275.24,439.86l-2-16.19-1.63-13.46-.72-5.95h0l-.44-3.61-.78-6.46-2.47-20.4h0V353a20.1,20.1,0,0,0-2.47-.15h-.85v20.94H191.53v-21a21.35,21.35,0,0,0-3.32.26v21.78L185.89,394l-1.5,12.32h0L184,410l0,.23-1.63,13.46-2,16.19-.35,2.92h95.61Z"></path>
                                <polygon class="cls-25" points="322.83 536.48 134.97 536.48 179.98 442.78 275.6 442.78 322.83 536.48"></polygon>
                                <ellipse class="cls-26" cx="196.71" cy="377.63" rx="13.88" ry="10.54"></ellipse>
                                <ellipse class="cls-26" cx="218.53" cy="377.63" rx="13.88" ry="10.54"></ellipse>
                                <ellipse class="cls-26" cx="241.54" cy="377.63" rx="13.88" ry="10.54"></ellipse>
                                <ellipse class="cls-26" cx="259.26" cy="377.63" rx="13.88" ry="10.54"></ellipse>
                                <path class="cls-27" d="M273.14,377.63c0,5.82-6.21,10.54-13.88,10.54a16.63,16.63,0,0,1-8.86-2.43,16.64,16.64,0,0,1-8.87,2.43,15.39,15.39,0,0,1-11.5-4.65,15.39,15.39,0,0,1-11.5,4.65,15.73,15.73,0,0,1-10.91-4,15.77,15.77,0,0,1-10.91,4c-7.67,0-13.89-4.72-13.89-10.54a2.44,2.44,0,0,1,0-.27c1.39,4.71,6.93,8.23,13.54,8.23a16.25,16.25,0,0,0,9.83-3.1,10.89,10.89,0,0,0,1.09-.93,10.72,10.72,0,0,0,1.51,1.24,16.37,16.37,0,0,0,9.39,2.79,16,16,0,0,0,10.62-3.75,10.68,10.68,0,0,0,.89-.89,10.7,10.7,0,0,0,1.33,1.27,16.1,16.1,0,0,0,10.17,3.37,17.15,17.15,0,0,0,7.11-1.49,14,14,0,0,0,1.76-.94,13.15,13.15,0,0,0,2.21,1.14,17.36,17.36,0,0,0,6.65,1.29c7.55,0,13.69-4.57,13.87-10.27A8.07,8.07,0,0,1,273.14,377.63Z"></path>
                                <ellipse class="cls-26" cx="141.57" cy="532.69" rx="13.88" ry="10.54"></ellipse>
                                <ellipse class="cls-26" cx="163.39" cy="532.69" rx="13.88" ry="10.54"></ellipse>
                                <ellipse class="cls-26" cx="186.4" cy="532.69" rx="13.88" ry="10.54"></ellipse>
                                <ellipse class="cls-26" cx="204.13" cy="532.69" rx="13.88" ry="10.54"></ellipse>
                                <ellipse class="cls-26" cx="226.46" cy="533.98" rx="13.88" ry="10.54"></ellipse>
                                <ellipse class="cls-26" cx="248.28" cy="533.98" rx="13.88" ry="10.54"></ellipse>
                                <ellipse class="cls-26" cx="271.29" cy="533.98" rx="13.88" ry="10.54"></ellipse>
                                <ellipse class="cls-26" cx="289.02" cy="533.98" rx="13.88" ry="10.54"></ellipse>
                                <ellipse class="cls-26" cx="289.25" cy="533.98" rx="13.88" ry="10.54"></ellipse>
                                <ellipse class="cls-26" cx="312.26" cy="533.98" rx="13.88" ry="10.54"></ellipse>
                                <path class="cls-27" d="M326.14,534c0,5.83-6.22,10.54-13.89,10.54a15.42,15.42,0,0,1-11.5-4.64l-.11-.13a15.23,15.23,0,0,1-10.91,4.76h-.48c-.49,0-1,0-1.46,0a16.26,16.26,0,0,1-7.52-2.45l-.12.08a16.74,16.74,0,0,1-8.86,2.42,15.49,15.49,0,0,1-11.51-4.63,15.45,15.45,0,0,1-11.5,4.63,15.78,15.78,0,0,1-10.91-4,15.78,15.78,0,0,1-10.91,4c-5,0-9.35-2-11.79-5a16,16,0,0,1-10.55,3.69,16.63,16.63,0,0,1-8.86-2.43,16.63,16.63,0,0,1-8.86,2.43,15.42,15.42,0,0,1-11.5-4.64,15.46,15.46,0,0,1-11.51,4.64,15.73,15.73,0,0,1-10.91-4,15.74,15.74,0,0,1-10.91,4c-7.67,0-13.89-4.72-13.89-10.54a8.19,8.19,0,0,1,.57-3c.95,5.11,6.74,9,13.74,9a16.77,16.77,0,0,0,8.47-2.2,12.51,12.51,0,0,0,2.44-1.82,12.56,12.56,0,0,0,1.79,1.42A17.27,17.27,0,0,0,173.2,536a12.67,12.67,0,0,0,2.12-1.86,11.12,11.12,0,0,0,1.45,1.37,16.18,16.18,0,0,0,10,3.27,17.69,17.69,0,0,0,5.28-.79,15.5,15.5,0,0,0,3.59-1.64,14.26,14.26,0,0,0,2.91,1.41,17.26,17.26,0,0,0,5.94,1,16.73,16.73,0,0,0,8.46-2.19,12,12,0,0,0,2.09-1.5,11.19,11.19,0,0,0,1.81,1.76h0a16.23,16.23,0,0,0,10,3.21,16.78,16.78,0,0,0,8.48-2.2,12.09,12.09,0,0,0,2.43-1.83,12,12,0,0,0,1.79,1.43,17.28,17.28,0,0,0,18.5-.17,11.66,11.66,0,0,0,2.13-1.87,10.6,10.6,0,0,0,1.46,1.37,16.15,16.15,0,0,0,10,3.27,17.57,17.57,0,0,0,5.27-.79.64.64,0,0,0,.18-.06,15.52,15.52,0,0,0,3.42-1.58A14.65,14.65,0,0,0,283.5,539a17.35,17.35,0,0,0,5.45,1h1.2a16.39,16.39,0,0,0,8.91-2.76,12.73,12.73,0,0,0,2.12-1.87,9.9,9.9,0,0,0,1.28,1.22h0l.17.14A16.18,16.18,0,0,0,312.68,540c6.3,0,11.63-3.19,13.32-7.57A8.6,8.6,0,0,1,326.14,534Z"></path>
                             </g>
                             <g xmlns="http://www.w3.org/2000/svg" id="c_sweater" style="">
                                <polygon class="cls-2" points="278.77 498.22 171.94 498.22 177.55 451.81 181.96 415.33 183.46 403.01 185.77 383.88 185.9 382.81 185.94 382.51 186.25 379.9 188.43 361.87 262.28 361.87 264.51 380.29 264.52 380.39 264.76 382.4 264.81 382.81 267.28 403.21 268.5 413.32 273.16 451.81 278.77 498.22"></polygon>
                                <polygon class="cls-15" points="273.16 451.81 177.55 451.81 185.9 382.81 264.81 382.81 273.16 451.81"></polygon>
                                <path class="cls-15" d="M282.87,517.2v.47l-.62,22H231.86l-.14-21.14H219l-.14,21.14H168.47l-.62-22v-.47l.09-.37q2.13-8.9,4-18.61h0l2-15.48H277.06l1.71,15.49c1.23,6.33,2.54,12.42,3.92,18.23Z"></path>
                                <path class="cls-17" d="M331.71,533.81c-13,3.49-11.17,9.71-24.63,12.64-12.37,2.42-14.52-2.67-25-2.06-1,.06-2,.16-3.14.33-13.31,1.68-12.52,8.08-26.24,9.15-1.19.07-2.28.08-3.29,0-.27,0-.53,0-.78,0l-.49,0-.64-.05-.78-.09-.27,0-.67-.1-.47-.08-.25,0-.61-.13-.58-.14c-.37-.1-.73-.2-1.07-.31s-.91-.29-1.33-.44l-.94-.37-.92-.38c-.81-.35-1.61-.7-2.43-1l-.94-.38-.32-.12-.66-.25-.69-.23c-.59-.19-1.19-.37-1.84-.52-.21-.06-.43-.11-.65-.15l-.19,0-.49-.1h-.05c-.48-.09-1-.17-1.51-.23-.3,0-.61-.08-.94-.1s-.51,0-.77-.06l-.79,0a4.35,4.35,0,0,0-.51,0l-1,0h-.93c-.68,0-1.33,0-1.94,0-.42,0-.83.05-1.22.09s-.64.06-.94.1l-.89.13-.48.08-.65.12-.19,0-.65.15c-.65.15-1.26.33-1.84.52l-.72.24-.66.25a.61.61,0,0,0-.17.07l-.65.25c-1.61.65-3.09,1.36-4.74,2l-.82.28-.9.28c-.21.07-.42.12-.64.18l-.7.17-.69.14c-.51.1-1.06.19-1.63.26l-.6.07-.55,0-.53,0a34,34,0,0,1-4.16,0c-13.71-1.07-12.93-7.47-26.23-9.15-.38-.06-.74-.1-1.1-.14l-1-.11-.5,0-.48,0c-10.46-.61-12.61,4.49-25,2.06C130.16,543.52,132,537.3,119,533.81l9.79-14.61,5.55-8.29,1.58-2.34,0-.05.08-.14,6-8.91,8.66-12.92,5.22-7.79,0,0,19.71-29.42H275.1l21.2,31.63h0v0h0l0,0h0l4.26,6.35,8.62,12.87,12.69,19Z"></path>
                                <path class="cls-18" d="M331.71,533.81c-13,3.49-11.17,9.71-24.63,12.64-12.37,2.42-14.52-2.67-25-2.06-1,.06-2,.16-3.14.33-13.31,1.68-12.52,8.08-26.24,9.15-1.19.07-2.28.08-3.29,0-.27,0-.53,0-.78,0l-.49,0-.64-.05-.78-.09-.27,0-.67-.1-.47-.08-.25,0-.61-.13-.58-.14c-.37-.1-.73-.2-1.07-.31s-.91-.29-1.33-.44l-.94-.37-.92-.38c-.81-.35-1.61-.7-2.43-1l-.94-.38-.32-.12-.66-.25-.69-.23c-.59-.19-1.19-.37-1.84-.52-.21-.06-.43-.11-.65-.15l-.19,0-.49-.1h-.05c-.48-.09-1-.17-1.51-.23-.3,0-.61-.08-.94-.1s-.51,0-.77-.06l-.79,0a4.35,4.35,0,0,0-.51,0l-1,0h-.93c-.68,0-1.33,0-1.94,0-.42,0-.83.05-1.22.09s-.64.06-.94.1l-.89.13-.48.08-.65.12-.19,0-.65.15c-.65.15-1.26.33-1.84.52l-.72.24-.66.25a.61.61,0,0,0-.17.07l-.65.25c-1.61.65-3.09,1.36-4.74,2l-.82.28-.9.28c-.21.07-.42.12-.64.18l-.7.17-.69.14c-.51.1-1.06.19-1.63.26l-.6.07-.55,0-.53,0a34,34,0,0,1-4.16,0c-13.71-1.07-12.93-7.47-26.23-9.15-.38-.06-.74-.1-1.1-.14s-.7-.09-1-.11l-.5,0-.48,0c-10.46-.61-12.61,4.49-25,2.06C130.16,543.52,132,537.3,119,533.81l9.79-14.61c3.9,3,6.31,6.13,14.83,8,12.15,2.38,14.44-2.5,24.44-2.09a35,35,0,0,1,3.66.36c13.3,1.67,12.52,8.07,26.23,9.15a28.17,28.17,0,0,0,8.86-.71c4.34-1.13,7-3.18,11.83-4.2l.28-.06a31.07,31.07,0,0,1,6.42-.54,30.57,30.57,0,0,1,6.45.55l.28.06c4.8,1,7.48,3.07,11.83,4.2a28.64,28.64,0,0,0,8.83.7c13.72-1.07,12.93-7.47,26.24-9.15a35.59,35.59,0,0,1,3.68-.36c10-.4,12.28,4.47,24.43,2.09,8.52-1.85,10.93-5,14.84-8Z"></path>
                                <path class="cls-19" d="M269,430.05H181.69q-3,9.4-6.08,19.26a227.21,227.21,0,0,0,99.49,0Q272,439.46,269,430.05Z"></path>
                                <path class="cls-17" d="M277.86,378.83c0,3.77,0,7.45-.16,11l-.06,1.55q-.13,3.13-.34,6.11h0c-.25,3.7-.57,7.19-.93,10.47-.13,1.19-.26,2.35-.4,3.48-.67,5.44-1.42,10.14-2.1,13.87h0c-1.11,6.09-2,9.62-2,9.62s6.61,3.13,2.52,7a5,5,0,0,1-1.35.85c-.28.12-.58.24-.92.36a44.81,44.81,0,0,1-9.83,1.7c-9.81.91-23.88.91-36.93.91s-27.11,0-36.92-.9a44.71,44.71,0,0,1-9.83-1.71c-.34-.12-.64-.24-.92-.36a5,5,0,0,1-1.35-.85c-4.09-3.83,2.51-7,2.51-7s-.8-3.12-1.81-8.56h0c-.71-3.81-1.53-8.77-2.25-14.6-.11-.85-.21-1.71-.31-2.59-.44-3.86-.83-8.06-1.12-12.52-.09-1.48-.18-3-.25-4.52,0-1-.08-1.95-.11-2.94q-.18-5-.14-10.37l10.2-.71,3.45-.24,1.93-.14,19.44-1.36,1.15-.08,16.33-1.14,17,1.19,1.5.1h0l18.41,1.29,1.94.14,4.08.28Z"></path>
                                <path class="cls-16" d="M334.14,408.12A125.11,125.11,0,0,1,305,413.7c-.7.05-1.39.09-2.08.11a99,99,0,0,1-24.86-1.91c-.71-.14-1.41-.3-2.1-.46-2.77-.64-5.43-1.39-8-2.23l-1.59-.54c-1.41-.49-2.79-1-4.13-1.55a93.4,93.4,0,0,1-25.63-15.59l-.19-.16a86.09,86.09,0,0,1-8.67-8.55c-.67-.77-1.22-1.45-1.67-2-.87-1.08-1.3-1.71-1.3-1.71l1.29-.18h0l16.13-2.25,1.6-.23h0l18.41-2.57,1.43-.2,16.15-2.25,6.5-.91a216.2,216.2,0,0,1,22.52,13.83C328.24,398.06,334.14,408.12,334.14,408.12Z"></path>
                                <path class="cls-16" d="M227.42,379.11s-.43.63-1.3,1.71c-.45.55-1,1.23-1.67,2a87.47,87.47,0,0,1-8.68,8.55c-.3.26-.6.52-.91.77a93.2,93.2,0,0,1-26.43,15.57c-1.18.46-2.4.9-3.64,1.31h0l-2.14.69h0c-2.51.78-5.13,1.47-7.86,2-.51.12-1,.22-1.56.33a99.83,99.83,0,0,1-24.76,1.67l-1.31-.08a124.87,124.87,0,0,1-29.05-5.57s5.54-9.44,23.5-22.5a210.08,210.08,0,0,1,24.28-15.1l5.69.79h0L187,373.47l1.4.2,19.44,2.71,1.23.17,17,2.38h0Z"></path>
                                <path class="cls-18" d="M243.74,351.71H205.89c-40.16,11.43-65.43,32.13-65.43,32.13a19.16,19.16,0,0,0,16.73,9.68c11.86,0,18.46-6.28,18.46-6.28s4.83,6.28,14.85,6.28,15.39-5.91,15.39-5.91c4.51,3.63,11.15,5.91,18.93,5.91s14.42-2.28,18.92-5.91c0,0,5.38,5.91,15.39,5.91S274,387.24,274,387.24s6.6,6.28,18.46,6.28a19.14,19.14,0,0,0,16.73-9.68S283.9,363.14,243.74,351.71Z"></path>
                                <path d="M287.8,512.83a1.16,1.16,0,0,1-1.15-1c-.07-.65-1.88-16.06.63-28.17,3.38-16.37,19.39-17.47,19.55-17.48a1.15,1.15,0,0,1,.13,2.3c-.59,0-14.41,1-17.43,15.64-2.43,11.75-.61,27.28-.59,27.43a1.14,1.14,0,0,1-1,1.28Z"></path>
                                <path class="cls-20" d="M356.1,513.8c0,.37-.41.71-1.18,1-4.14,1.84-18.54,4-35.94,4-20.6,0-37.52-2.69-37.52-5s16.71-4.24,37.31-4.24S356.1,511.45,356.1,513.8Z"></path>
                                <path class="cls-21" d="M356.1,513.8s7.25,39-5.13,55c-10.11,13.05-45.34,15.1-61.36,1.8s-8.15-56.8-8.15-56.8c0,2.32,16.71,4.23,37.31,4.23,17.4,0,32-1.36,36.15-3.2Z"></path>
                                <path class="cls-22" d="M308.65,542.2a6.65,6.65,0,1,1-6.65-6.65A6.65,6.65,0,0,1,308.65,542.2Z"></path>
                                <path class="cls-22" d="M342.19,542.2a6.65,6.65,0,1,1-6.64-6.65A6.64,6.64,0,0,1,342.19,542.2Z"></path>
                                <path class="cls-22" d="M317,545.65c-.59-.67-4.23,3.48-2,4.24C316.63,550.4,318.25,547,317,545.65Z"></path>
                                <path class="cls-22" d="M320.66,545.81c.6-.68,4.23,3.47,2,4.23C321.07,550.55,319.45,547.17,320.66,545.81Z"></path>
                                <path class="cls-22" d="M306.17,552.9c-.72,1.8,4.25,7.69,13.75,7,8.12-.63,11.63-5.6,11-7.41s-5,2-12.09,1.66C310.55,553.66,307.07,550.64,306.17,552.9Z"></path>
                                <path d="M350.05,521.9h0a1.15,1.15,0,0,1-1.14-1.17c0-.27.28-27.16-1.49-35.4-2.87-13.42-11.82-12.56-11.91-12.55a1.15,1.15,0,1,1-.25-2.29c.13,0,11.11-1.08,14.42,14.36,1.81,8.48,1.55,34.79,1.53,35.91A1.15,1.15,0,0,1,350.05,521.9Z"></path>
                             </g>
                             <g xmlns="http://www.w3.org/2000/svg" id="c_hoodie" style="display: none;">
                                <path class="cls-25" d="M275.24,439.86l-2-16.19-1.63-13.46-.72-5.95h0l-.44-3.61-.78-6.46-2.47-20.4h0V353a20.1,20.1,0,0,0-2.47-.15h-.85v20.94H191.53v-21a21.35,21.35,0,0,0-3.32.26v21.78L185.89,394l-1.5,12.32h0L184,410l0,.23-1.63,13.46-2,16.19-.35,2.92h95.61Z"></path>
                                <polygon class="cls-25" points="322.83 536.48 134.97 536.48 179.98 442.78 275.6 442.78 322.83 536.48"></polygon>
                                <ellipse class="cls-26" cx="196.71" cy="377.63" rx="13.88" ry="10.54"></ellipse>
                                <ellipse class="cls-26" cx="218.53" cy="377.63" rx="13.88" ry="10.54"></ellipse>
                                <ellipse class="cls-26" cx="241.54" cy="377.63" rx="13.88" ry="10.54"></ellipse>
                                <ellipse class="cls-26" cx="259.26" cy="377.63" rx="13.88" ry="10.54"></ellipse>
                                <path class="cls-27" d="M273.14,377.63c0,5.82-6.21,10.54-13.88,10.54a16.63,16.63,0,0,1-8.86-2.43,16.64,16.64,0,0,1-8.87,2.43,15.39,15.39,0,0,1-11.5-4.65,15.39,15.39,0,0,1-11.5,4.65,15.73,15.73,0,0,1-10.91-4,15.77,15.77,0,0,1-10.91,4c-7.67,0-13.89-4.72-13.89-10.54a2.44,2.44,0,0,1,0-.27c1.39,4.71,6.93,8.23,13.54,8.23a16.25,16.25,0,0,0,9.83-3.1,10.89,10.89,0,0,0,1.09-.93,10.72,10.72,0,0,0,1.51,1.24,16.37,16.37,0,0,0,9.39,2.79,16,16,0,0,0,10.62-3.75,10.68,10.68,0,0,0,.89-.89,10.7,10.7,0,0,0,1.33,1.27,16.1,16.1,0,0,0,10.17,3.37,17.15,17.15,0,0,0,7.11-1.49,14,14,0,0,0,1.76-.94,13.15,13.15,0,0,0,2.21,1.14,17.36,17.36,0,0,0,6.65,1.29c7.55,0,13.69-4.57,13.87-10.27A8.07,8.07,0,0,1,273.14,377.63Z"></path>
                                <ellipse class="cls-26" cx="141.57" cy="532.69" rx="13.88" ry="10.54"></ellipse>
                                <ellipse class="cls-26" cx="163.39" cy="532.69" rx="13.88" ry="10.54"></ellipse>
                                <ellipse class="cls-26" cx="186.4" cy="532.69" rx="13.88" ry="10.54"></ellipse>
                                <ellipse class="cls-26" cx="204.13" cy="532.69" rx="13.88" ry="10.54"></ellipse>
                                <ellipse class="cls-26" cx="226.46" cy="533.98" rx="13.88" ry="10.54"></ellipse>
                                <ellipse class="cls-26" cx="248.28" cy="533.98" rx="13.88" ry="10.54"></ellipse>
                                <ellipse class="cls-26" cx="271.29" cy="533.98" rx="13.88" ry="10.54"></ellipse>
                                <ellipse class="cls-26" cx="289.02" cy="533.98" rx="13.88" ry="10.54"></ellipse>
                                <ellipse class="cls-26" cx="289.25" cy="533.98" rx="13.88" ry="10.54"></ellipse>
                                <ellipse class="cls-26" cx="312.26" cy="533.98" rx="13.88" ry="10.54"></ellipse>
                                <path class="cls-27" d="M326.14,534c0,5.83-6.22,10.54-13.89,10.54a15.42,15.42,0,0,1-11.5-4.64l-.11-.13a15.23,15.23,0,0,1-10.91,4.76h-.48c-.49,0-1,0-1.46,0a16.26,16.26,0,0,1-7.52-2.45l-.12.08a16.74,16.74,0,0,1-8.86,2.42,15.49,15.49,0,0,1-11.51-4.63,15.45,15.45,0,0,1-11.5,4.63,15.78,15.78,0,0,1-10.91-4,15.78,15.78,0,0,1-10.91,4c-5,0-9.35-2-11.79-5a16,16,0,0,1-10.55,3.69,16.63,16.63,0,0,1-8.86-2.43,16.63,16.63,0,0,1-8.86,2.43,15.42,15.42,0,0,1-11.5-4.64,15.46,15.46,0,0,1-11.51,4.64,15.73,15.73,0,0,1-10.91-4,15.74,15.74,0,0,1-10.91,4c-7.67,0-13.89-4.72-13.89-10.54a8.19,8.19,0,0,1,.57-3c.95,5.11,6.74,9,13.74,9a16.77,16.77,0,0,0,8.47-2.2,12.51,12.51,0,0,0,2.44-1.82,12.56,12.56,0,0,0,1.79,1.42A17.27,17.27,0,0,0,173.2,536a12.67,12.67,0,0,0,2.12-1.86,11.12,11.12,0,0,0,1.45,1.37,16.18,16.18,0,0,0,10,3.27,17.69,17.69,0,0,0,5.28-.79,15.5,15.5,0,0,0,3.59-1.64,14.26,14.26,0,0,0,2.91,1.41,17.26,17.26,0,0,0,5.94,1,16.73,16.73,0,0,0,8.46-2.19,12,12,0,0,0,2.09-1.5,11.19,11.19,0,0,0,1.81,1.76h0a16.23,16.23,0,0,0,10,3.21,16.78,16.78,0,0,0,8.48-2.2,12.09,12.09,0,0,0,2.43-1.83,12,12,0,0,0,1.79,1.43,17.28,17.28,0,0,0,18.5-.17,11.66,11.66,0,0,0,2.13-1.87,10.6,10.6,0,0,0,1.46,1.37,16.15,16.15,0,0,0,10,3.27,17.57,17.57,0,0,0,5.27-.79.64.64,0,0,0,.18-.06,15.52,15.52,0,0,0,3.42-1.58A14.65,14.65,0,0,0,283.5,539a17.35,17.35,0,0,0,5.45,1h1.2a16.39,16.39,0,0,0,8.91-2.76,12.73,12.73,0,0,0,2.12-1.87,9.9,9.9,0,0,0,1.28,1.22h0l.17.14A16.18,16.18,0,0,0,312.68,540c6.3,0,11.63-3.19,13.32-7.57A8.6,8.6,0,0,1,326.14,534Z"></path>
                             </g>
                             <g xmlns="http://www.w3.org/2000/svg" id="c_overall" style="display: none;">
                                <circle class="cls-25" cx="174.13" cy="394.52" r="33.39"></circle>
                                <circle class="cls-25" cx="280.96" cy="394.52" r="33.39"></circle>
                                <path class="cls-26" d="M207.52,394.52a33.39,33.39,0,1,1-66.77,0c0-1.13.06-2.24.16-3.34A33.39,33.39,0,0,0,207,388.49,34.24,34.24,0,0,1,207.52,394.52Z"></path>
                                <path class="cls-26" d="M314.35,394.52a33.39,33.39,0,1,1-66.77,0c0-1.13.06-2.24.16-3.34a33.39,33.39,0,0,0,66.07-2.69A34.24,34.24,0,0,1,314.35,394.52Z"></path>
                                <path class="cls-25" d="M284.07,456.17H170.27l1-8L173,433.66l.25-2,0-.28.54-4.51h0l1.85-15.15.28-2.21,1-8.52.87-7.2h0l-3.29-32.65h24.35v0H199a1.87,1.87,0,0,1,.07.22c.22.66.44,1.32.69,2a33.69,33.69,0,0,0,2.38,4.95,30.32,30.32,0,0,0,3,4.21,30,30,0,0,0,6.32,5.8A27.63,27.63,0,0,0,227,383.19h.3a27.91,27.91,0,0,0,16.23-5.45,30.82,30.82,0,0,0,5.72-5.47h0a29.9,29.9,0,0,0,2.76-4l0,0a33.06,33.06,0,0,0,2.19-4.47c.32-.79.6-1.6.86-2.42,0-.07.05-.15.08-.22h11.54c.36,0,.72,0,1.09,0H280l-3.29,32.65h-.15l.84,7,1,8.49.33,2.71,1,7.94.53,4.44h0l.88,7.31.22,1.83,1.79,14.72Z"></path>
                                <path class="cls-25" d="M267.81,361.1c-.37,0-.73,0-1.09,0H255.61v0Z"></path>
                                <polygon class="cls-25" points="317.65 600.59 133.35 600.59 170.27 456.17 284.07 456.17 317.65 600.59"></polygon>
                                <path class="cls-13" d="M227,383.19c-1.33,10.43-11.35,18.53-23.54,18.53-13.08,0-23.68-9.35-23.68-20.88,0-9.16,6.68-16.93,16-19.74h3.1v0H199a1.87,1.87,0,0,1,.07.22c.22.66.44,1.32.69,2a33.69,33.69,0,0,0,2.38,4.95,30.32,30.32,0,0,0,3,4.21,30,30,0,0,0,6.32,5.8A27.63,27.63,0,0,0,227,383.19Z"></path>
                                <path class="cls-13" d="M274.55,380.84c0,11.53-10.61,20.88-23.69,20.88-12.18,0-22.21-8.1-23.54-18.53a27.91,27.91,0,0,0,16.23-5.45,30.82,30.82,0,0,0,5.72-5.47h0a29.9,29.9,0,0,0,2.76-4l0,0a33.06,33.06,0,0,0,2.19-4.47c.32-.79.6-1.6.86-2.42,0-.07.05-.15.08-.22h.43v0h3a.19.19,0,0,1,.1,0C267.92,364,274.55,371.71,274.55,380.84Z"></path>
                                <path class="cls-26" d="M211.61,448.62c-6.64.51-13.12,1.32-19.69,2.17-4.3.55-8.58,1-12.67,1.74,23.61-1.15,47.35-.55,71-1.51,7.23-.3,14.43,0,21.52-.11C252.57,447.89,232,447.83,211.61,448.62Z"></path>
                             </g>
                             <g xmlns="http://www.w3.org/2000/svg" id="c_blazer" style="display: none;">
                                <path class="cls-26" d="M204.78,434.52S119.52,471.1,93.52,591.06c0,0,8.83,3.28,26.25-2.06,21.37-6.54,56.8,4.9,111.88,4.9L227.5,434.52Z"></path>
                                <path class="cls-26" d="M249.92,434.5s85.25,36.58,111.25,156.55c0,0-10.78,3.75-28-1.92-23.25-7.65-59.23,4.16-105.26,4.77l-.72-159.4Z"></path>
                                <path class="cls-27" d="M214.17,434.5s-42.78,41.75-29.52,86c0,0,3.48,8.66-8.5,6.15C176.15,526.62,154.89,476.38,214.17,434.5Z"></path>
                                <path class="cls-27" d="M132.63,587.05s-19.16-87.13,72.15-152.53c0,0-99.31,46.27-85,154.48Z"></path>
                                <path class="cls-27" d="M241.49,434.51s42.78,41.75,29.52,86c0,0-3.48,8.66,8.5,6.14C279.51,526.62,300.77,476.39,241.49,434.51Z"></path>
                                <path class="cls-27" d="M323,587.06S342.76,501,249.92,434.5c0,0,99.86,47.14,85.57,155.35Z"></path>
                                <path class="cls-27" d="M234,506.57l-7.22-70.35-8.26,70.36A28.59,28.59,0,0,0,234,506.57Z"></path>
                                <path class="cls-27" d="M106,591.85s-5.1-63,55.62-126.63c0,0-58,55.37-68,125.84A41.88,41.88,0,0,0,106,591.85Z"></path>
                                <path class="cls-28" d="M101.52,592.47s-1-33.71,23.82-81.84c0,0-29.15,46.62-31.82,80.43Z"></path>
                                <polygon class="cls-29" points="250.66 434.51 199.07 437.38 204.78 434.51 250.66 434.51"></polygon>
                                <g class="cls-30" style="display: none;">
                                   <path class="cls-31" d="M297.79,550.08c5.86-25.6-14.35-24.76-18.24-23.46a7.59,7.59,0,0,1-5.67-.29c-1.7-.86-3.18-2.55-2.83-5.86.76-7.25-1-13.32-10-16.74-7-2.64-21.39,2.57-34.82,4-17.4-2.42-26.74-5.08-33.69-2.44-9,3.42-8.64,7.93-7.88,15.18.34,3.31-1.14,5-2.83,5.86a7.59,7.59,0,0,1-5.67.29c-3.89-1.3-22.32-2.31-18.24,23.46,4.67,29.55-25.28,37-25.28,37a158.36,158.36,0,0,1,28.42,2c34,5.52,57.94,5.39,66.8,5.07,8.86.32,32.75.45,66.8-5.07a158.36,158.36,0,0,1,28.42-2S290.81,580.58,297.79,550.08Z"></path>
                                   <path class="cls-28" d="M320.84,589s-37.9-6.18-26.36-46.37c1.86-6.5-2.36-13.19-10.57-16.28l-.69-.25s26.07-5.73,29.62,20.13c0,0,1.19,36.22,11,38.34Z"></path>
                                   <path class="cls-28" d="M153.17,564.26s1.18,18.59-15.11,26.23l-14.81-4.43Z"></path>
                                   <g class="cls-32" style="display: none;">
                                      <path d="M172.44,533c17.6-1,12.21-12.5,12.21-12.5.34,3.31-1.14,5-2.83,5.86a7.59,7.59,0,0,1-5.67.29c-3.69-1.23-20.42-2.2-18.7,19.62C157,531,172.44,533,172.44,533Z"></path>
                                      <path d="M323.07,587.05s-32.26-6.47-25.28-37c5.86-25.6-14.35-24.76-18.24-23.46a7.59,7.59,0,0,1-5.67-.29c-1.7-.86-3.18-2.55-2.83-5.86.76-7.25-1-13.32-10-16.74-7-2.64-21.39,2.57-34.82,4-17.4-2.42-26.74-5.08-33.69-2.44-9,3.42-8.64,7.93-7.88,15.18,1.14-12,17.51-9.88,30.62-4.54s18.76.85,18.76.85,22.12-5.24,14.28,10.29,8.76,14,8.76,14c23.58.48,13.7,18.13,13.7,18.13-2.9,14.91,5.68,25.09,14.2,31.3,3.13-.44,6.36-.92,9.68-1.46A158.36,158.36,0,0,1,323.07,587.05Z"></path>
                                      <path d="M157.45,546.28c.1,1.2.25,2.46.46,3.8,4.67,29.55-25.28,37-25.28,37a161.23,161.23,0,0,1,17.18.58C167.61,567.62,157.55,546.48,157.45,546.28Z"></path>
                                   </g>
                                </g>
                                <path class="cls-26" d="M178.72,450.09h48.42V382.28S213.49,355.19,155.46,361l14.59,44.15S177.91,422.11,178.72,450.09Z"></path>
                                <path class="cls-26" d="M275.57,450.09H227.15V382.28s13.66-27.09,71.69-21.31l-14.59,44.15S276.38,422.11,275.57,450.09Z"></path>
                                <polygon class="cls-33" points="276.49 437.17 177.2 437.17 178.72 450.09 275.57 450.09 276.49 437.17"></polygon>
                                <polygon class="cls-34" points="180.8 437.17 173.85 403.99 158.96 360.6 155.46 360.97 170.05 405.13 177.2 437.17 180.8 437.17"></polygon>
                                <path class="cls-27" d="M227.15,382.28v5.06S241.5,362,282.33,360.17C282.33,360.17,241.63,358.77,227.15,382.28Z"></path>
                                <polygon class="cls-35" points="274.91 450.05 178.72 450.09 177.2 437.17 180.8 437.17 182.69 447.56 275.72 448.06 274.91 450.05"></polygon>
                                <polygon class="cls-35" points="187.43 437.17 189 447.59 182.69 447.56 180.8 437.17 187.43 437.17"></polygon>
                                <polygon class="cls-36" points="187.61 438.38 273.6 438.38 273.6 448.06 271.48 439.87 187.61 438.38"></polygon>
                                <polygon class="cls-27" points="276.49 437.17 280.1 417.53 290.13 387.34 275.72 417.45 271.48 437.17 276.49 437.17"></polygon>
                             </g>
</svg>