<svg xmlns="http://www.w3.org/2000/svg" viewBox="0 0 353.95 284.07"><defs><style>.cls-1{fill:#ffe8d5;}.cls-2{fill:#f2b9aa;opacity:0.5;}.cls-3{fill:#6d482f;}</style></defs><g id="Layer_2" data-name="Layer 2"><g id="Work"><path class="cls-1" d="M52.51,165.29A74.13,74.13,0,0,0,48.06,172a146.3,146.3,0,0,1-3-18.06A26.17,26.17,0,0,1,52.51,165.29Z"/><path class="cls-1" d="M292.15,153.79a1,1,0,0,1,0,.25l-.08-.08A1.3,1.3,0,0,1,292.15,153.79Z"/><path class="cls-1" d="M292.15,153.79a1,1,0,0,1,0,.25l-.08-.08A1.3,1.3,0,0,1,292.15,153.79Z"/><path class="cls-1" d="M353.23,183.34c-3.78,23.44-21.49,39-39.54,34.68l-.45-.12a62.93,62.93,0,0,0,1.6-14.11c0-.95,0-1.89-.07-2.83a65.89,65.89,0,0,0-13.12-36.26l-.44-.57a149.72,149.72,0,0,0,2.18-25c6.95-5.62,15.44-8,24-6C345.45,137.42,357,159.9,353.23,183.34Z"/><path class="cls-2" d="M341,180.44c-2.3,14.25-13.36,23.66-24.66,21-.54-.13-1.07-.28-1.59-.46a65.89,65.89,0,0,0-13.12-36.26c4-10.77,13.45-17.25,23.06-15C336,152.41,343.32,166.18,341,180.44Z"/><path class="cls-1" d="M39.22,200.94c-.07,1.23-.11,2.47-.11,3.72A62.91,62.91,0,0,0,40.52,218l-.25.06C22.21,222.3,4.5,206.77.72,183.33s7.78-45.91,25.84-50.19a26.36,26.36,0,0,1,17.76,2c0,1.16,0,2.32,0,3.49A148.94,148.94,0,0,0,45.06,154a26.17,26.17,0,0,1,7.45,11.31A74.13,74.13,0,0,0,48.06,172,64.93,64.93,0,0,0,39.22,200.94Z"/><path class="cls-2" d="M52.51,165.29A74.13,74.13,0,0,0,48.06,172a64.93,64.93,0,0,0-8.84,28.9,15.24,15.24,0,0,1-1.63.48c-11.3,2.68-22.35-6.73-24.66-21s5-28,16.31-30.71A17.67,17.67,0,0,1,45.06,154,26.17,26.17,0,0,1,52.51,165.29Z"/><path class="cls-1" d="M292.15,153.79a1,1,0,0,1,0,.25l-.08-.08A1.3,1.3,0,0,1,292.15,153.79Z"/><path class="cls-1" d="M314.77,201a65.89,65.89,0,0,0-13.12-36.26l-.44-.57a149.72,149.72,0,0,0,2.18-25v-.49A144.39,144.39,0,0,0,276.6,54.22c-19.18-26.71-47.26-45.72-79.48-52a122.2,122.2,0,0,0-46.58,0A126,126,0,0,0,86.9,35.84c-25.43,24.65-41.67,60-42.58,99.33,0,1.16,0,2.32,0,3.49A148.94,148.94,0,0,0,45.06,154a26.17,26.17,0,0,1,7.45,11.31A74.13,74.13,0,0,0,48.06,172a64.93,64.93,0,0,0-8.84,28.9c-.07,1.23-.11,2.47-.11,3.72A62.91,62.91,0,0,0,40.52,218C48.07,253,85,279.68,129.34,279.68c1.48,0,3,0,4.42-.09h0l.47.11a160.86,160.86,0,0,0,22.59,3.46c7.12.62,14.6.91,22.45.91,7.18,0,14-.23,20.54-.73a152.31,152.31,0,0,0,28.24-4.54l.18-.06h0c42.39-1.4,77.26-27.12,85-60.84a62.93,62.93,0,0,0,1.6-14.11C314.84,202.84,314.82,201.9,314.77,201ZM292.15,154l-.08-.08a1.3,1.3,0,0,1,.08-.17A1,1,0,0,1,292.15,154Z"/><path class="cls-3" d="M157.79,218.42,170,227.77c3.37,2.57,7,5.89,11.48,6,4.29.08,7.08-2.7,9.74-5.7l10.23-11.57c3.22-3.65-2.12-9-5.36-5.36l-7.67,8.68c-1.95,2.21-4.76,7.26-8.11,6s-6.27-4.38-9-6.49l-9.69-7.4c-3.87-3-7.65,3.62-3.82,6.54Z"/><path class="cls-3" d="M83.55,167.67c8.59,1.44,17.16,3,25.61,5.15q5.34,1.35,10.6,3c1.87.57,3.73,1.17,5.58,1.78l2.39.8,1.45.5c1.27.51,1.31.46.12-.13l-.69-2.55,0,.76.69-2.55c-1,2.33-6.84,3.46-9.11,4.21-4,1.32-8.09,2.45-12.18,3.55-7.89,2.11-15.87,4-23.58,6.72-6.09,2.14-3.47,11.91,2.68,9.74,9.48-3.35,19.34-5.46,29-8.21a127.48,127.48,0,0,0,13-4.33c4.26-1.72,9.95-4.35,9.62-9.89s-5.92-6.77-10.21-8.2c-4.12-1.37-8.27-2.65-12.46-3.79a302.67,302.67,0,0,0-29.8-6.26c-6.36-1.06-9.1,8.67-2.69,9.75Z"/><path class="cls-3" d="M209.23,166.49c9.45-7.2,21.4-12.82,33.57-10.65,10.12,1.81,19.76,8.77,21,19.58,1.16,10.05-5.29,19.12-15.81,19.15-10.19,0-17.25-8.7-16.12-18.67,1.34-11.79,13.17-17.16,23.77-14.6,6.32,1.53,9-8.21,2.69-9.74C244.12,148.12,229,154,223.46,168.2c-5.26,13.67,1.46,30,15.39,35s29.81-2.57,34-16.93c4.31-14.66-3.6-30-17-36.58-17.35-8.57-37-3.1-51.76,8.13-2.19,1.67-3.28,4.33-1.81,6.91,1.22,2.15,4.74,3.46,6.91,1.81Z"/><path class="cls-3" d="M266.28,165.13a23.09,23.09,0,0,0-14.95-7.85,19.21,19.21,0,0,0-2-.13c-11-.94-23.67,6.23-22.23,18.41a28.14,28.14,0,0,0,8.14,16.27c4.66,4.45,10.9,5.79,17.13,4.73s13.15-5,15.42-11.29a13.79,13.79,0,0,0,.56-2c.23-.46.46-.93.65-1.41A16.33,16.33,0,0,0,266.28,165.13Z"/></g></g></svg>