<svg xmlns="http://www.w3.org/2000/svg" xmlns:xlink="http://www.w3.org/1999/xlink" viewBox="0 0 444.8 714.77" width="162" height="127">
     <g class="h_longhairbob" style="">
                                <path class="cls-4 tinted" d="M387,132.86a129.59,129.59,0,0,0-6.56-16.32A149.28,149.28,0,0,0,342,67.64v-.11l-.72-.49q-3.94-3.32-8.11-6.38a173.68,173.68,0,0,0-22.76-14.22,179.6,179.6,0,0,0-167.91,0A168.29,168.29,0,0,0,119.29,61.1q-3.44,2.58-6.72,5.31h0l-2.63,2.25A149.4,149.4,0,0,0,77.4,108.32,131.4,131.4,0,0,0,60.47,171.7h0v32.23a37.51,37.51,0,0,1,2.62-3.44h0A30.24,30.24,0,0,1,79,190.37c9.53-2.26,19,1,26.31,8a43,43,0,0,1,9.31,13.4c0-.44,0-.87,0-1.31,0-3,.08-6,.18-9,.33-10.17,1.07-20.11,2.25-29.76q1.26-10.55,3.21-20.59a25.23,25.23,0,0,0,15.07,5l5.32-14.62,8.95-24.58,5,24.58,2.94,14.62H316.58A25.39,25.39,0,0,0,338,144.32c1.79,8.8,3.21,18,4.27,27.38q1.26,11.49,1.82,23.51.22,4.95.33,10,.07,2.91.09,5.85l.06-.13V211a44.13,44.13,0,0,1,4.85-8c6.19-8.14,14.69-13.1,23.71-13.33a24.79,24.79,0,0,1,5.63.7,27.39,27.39,0,0,1,10.79,5.46,33.84,33.84,0,0,1,3.59,3.41V171.61A125.44,125.44,0,0,0,387,132.86Z" fill="#bb7748"></path>
                                <path class="cls-4 tinted" d="M344.58,211a.81.81,0,0,1,0,.22.46.46,0,0,1-.07-.07A1,1,0,0,1,344.58,211Z" fill="#bb7748"></path>
                                <path class="cls-4 tinted" d="M228.8,341.29c-7-.05-13.76-.33-20.18-.9A159,159,0,0,1,186.57,337h.56a160.26,160.26,0,0,0,22.15,3.36C215.5,340.94,222,341.22,228.8,341.29Z" fill="#bb7748"></path>
                                <path class="cls-4 tinted" d="M335.28,317.36c-14.89,10.7-34,17.39-55,18.08h0l-.15,0a139.15,139.15,0,0,1-21.23,3.9c-2.26.26-4.56.47-6.91.65q-9.72.73-20.46.72c-7.82,0-15.29-.28-22.37-.91a159.07,159.07,0,0,1-22.07-3.36l-.45-.1-.43-.1h0q-2.21.09-4.44.09a107.71,107.71,0,0,1-17.95-1.49V337h22.8a159,159,0,0,0,22.05,3.36c6.42.57,13.15.85,20.18.9h4.84q9.74,0,18.62-.71c2.36-.18,4.67-.39,6.94-.65a139.88,139.88,0,0,0,21.3-3.9l.16,0h0c21.06-.69,40.27-7.38,55.21-18.08.24-.17.49-.35.73-.54Z" fill="#bb7748"></path>
                                <path class="cls-4 tinted" d="M335.4,317.36c-.24.19-.48.36-.73.54-14.87,10.7-34,17.39-55,18.08h0l-.16,0a138.66,138.66,0,0,1-21.21,3.9c-2.26.26-4.56.47-6.91.65q-8.49.65-17.77.71,9.74,0,18.62-.71c2.36-.18,4.67-.39,6.94-.65a139.88,139.88,0,0,0,21.3-3.9l.16,0h0c21.06-.69,40.27-7.38,55.21-18.08.24-.17.49-.35.73-.54ZM186.12,336.93l-.36-.08-.07,0h0l-2.21.07c-.56,0-1.12,0-1.69,0l-2.31,0a106.3,106.3,0,0,1-15.7-1.4V337h22.8Z" fill="#bb7748"></path>
                                <path class="cls-5 tinted" d="M393.15,264.93V394A25.1,25.1,0,0,1,368,419.09H349.43V305.82a82.3,82.3,0,0,1-12.81,11.54H335.4a82.35,82.35,0,0,0,12.75-11.54,69.11,69.11,0,0,0,16.18-30.68l.44.11C375.24,277.74,385.58,273.52,393.15,264.93Z" fill="#bb7748"></path>
                                <path class="cls-5 tinted" d="M105.3,302V419.63h-1.24l-7.35-31.39L83.43,419.63c-13.05,0-23.64-9.11-23.64-20.33V349.09h0l.66-.34V260c7.65,11.82,19.79,18.17,32.1,15.24l.26-.07a67.74,67.74,0,0,0,12.28,26.53Z" fill="#bb7748"></path>
                                <path class="cls-5 tinted" d="M257.48,419.09a27.42,27.42,0,0,1-5.41.54h97.36v-.54Zm-48.2-78.7A160.26,160.26,0,0,1,187.13,337l-.45-.1-.43-.1h0l-.48,0c-.76,0-1.52,0-2.29,0-.56,0-1.12,0-1.69,0l-2.31,0a107.51,107.51,0,0,1-15.7-1.47c-24.61-4.15-45.58-16.62-58.47-33.72V302c12.85,17,33.64,29.33,58,33.46l.46.07V337h22.8a159,159,0,0,0,22.05,3.36c6.42.57,13.15.85,20.18.9C222,341.22,215.5,340.94,209.28,340.39Z" fill="#bb7748"></path>
                                <path class="cls-5 tinted" d="M349.43,305.82V419.09H257.48a27.42,27.42,0,0,1-5.41.54H105.3V302c12.85,17,33.64,29.33,58,33.46l.46.07V337h22.8a159,159,0,0,0,22.05,3.36c6.42.57,13.15.85,20.18.9h4.84q9.74,0,18.62-.71c2.36-.18,4.67-.39,6.94-.65a139.88,139.88,0,0,0,21.3-3.9l.16,0h0c21.06-.69,40.27-7.38,55.21-18.08.24-.17.49-.35.73-.54A82.3,82.3,0,0,0,349.43,305.82Z" fill="#bb7748"></path>
                                <path class="cls-5 tinted" d="M342.45,112.83v18.23a24.87,24.87,0,0,1-24.87,24.88h-84.3c30.31-2,77.22-7.53,96.59-22.3C337.15,128.09,339.37,122,342.45,112.83Z" fill="#bb7748"></path>
                                <path class="cls-5 tinted" d="M122.69,152.5a12,12,0,0,1-2.29-1.3,23.19,23.19,0,0,1-4.77-4.4,19.43,19.43,0,0,1-2.38-3.55,28.28,28.28,0,0,1-2-4.43,34.63,34.63,0,0,1-1.16-5.32,39.85,39.85,0,0,1,.47-12.65,42.17,42.17,0,0,1,1.7-6.84,47.45,47.45,0,0,1,2.54-6.78c.47-1.1.91-2.16,1.34-3.2.6-1.09,1.14-2.13,1.68-3.13,1.08-2,2-3.82,3.09-5.5s2.06-3.15,2.84-4.35c1.52-2.26,2.45-3.6,2.56-3.76,0,.15-.59,1.4-1.6,3.51-.53,1.12-1.2,2.48-2,4s-1.22,3.18-2,5.05a46,46,0,0,0-2.08,5.84A57.4,57.4,0,0,0,117,112a52.51,52.51,0,0,0-1.2,6.38,35.86,35.86,0,0,0-.53,6.24,35.16,35.16,0,0,0,.08,5.92c.09,1.93.47,3.66.66,5.43.49,1.6.68,3.32,1.21,4.75a40.27,40.27,0,0,0,1.43,4,34,34,0,0,0,2.75,5.7C122.16,151.79,122.69,152.5,122.69,152.5Z" fill="#bb7748"></path>
                                <path class="cls-5 tinted" d="M114.62,210.49c0,.44,0,.87,0,1.31a43,43,0,0,0-9.31-13.4c-7.34-7-16.78-10.29-26.31-8a30.24,30.24,0,0,0-15.91,10.11h0a37.51,37.51,0,0,0-2.62,3.44V171.7h0A131.4,131.4,0,0,1,77.4,108.32c-3,27.64,4.39,56.43,20.89,78.86,4.69,6.37,10.07,12.25,14.1,19.07A46.17,46.17,0,0,1,114.62,210.49Z" fill="#bb7748"></path>
                                <path class="cls-5 tinted" d="M393.15,171.61v27.63a33.84,33.84,0,0,0-3.59-3.41,27.39,27.39,0,0,0-10.79-5.46,24.79,24.79,0,0,0-5.63-.7c-9,.23-17.52,5.19-23.71,13.33a44.13,44.13,0,0,0-4.85,8v-.13l-.06.13q0-2.94-.09-5.85c23.76-25,36.59-56.67,36-88.65A129.59,129.59,0,0,1,387,132.86,125.44,125.44,0,0,1,393.15,171.61Z" fill="#bb7748"></path>
     </g>                       
</svg>