<svg xmlns="http://www.w3.org/2000/svg" xmlns:xlink="http://www.w3.org/1999/xlink" viewBox="0 0 444.8 714.77" width="162" height="127">
     <g class="h_longhair" >
                                <path class="cls-2" d="M343.47,211.44a.81.81,0,0,1,0,.22l-.07-.07A1,1,0,0,1,343.47,211.44Z"></path>
                                <path class="cls-153" d="M453.71,112.79a54.93,54.93,0,0,1-54.8,51.32,53.07,53.07,0,0,1-5.91-.32,8.57,8.57,0,0,1-1.24-.15,122,122,0,0,0-1.63-13.47,125,125,0,0,0-4.22-16.93,130.09,130.09,0,0,0-6.58-16.37A145.1,145.1,0,0,0,353,79.33c.75-1.17,1.56-2.32,2.41-3.43a54.84,54.84,0,0,1,76.87-10.27c.82.63,1.63,1.28,2.41,2a52.23,52.23,0,0,1,6.59,6.71h0a54.31,54.31,0,0,1,7.13,11.15q.42.84.78,1.71c.26.56.49,1.14.73,1.73.34.83.65,1.67.94,2.53s.49,1.46.71,2.21A54.48,54.48,0,0,1,453.71,112.79Z"></path>
                                <path class="cls-154" d="M453.71,112.79a54.93,54.93,0,0,1-54.8,51.32,53.07,53.07,0,0,1-5.91-.32,8.57,8.57,0,0,1-1.24-.15,122,122,0,0,0-1.63-13.47q4.19-1,8.3-2.29a123.2,123.2,0,0,0,55.23-35.21Z"></path>
                                <path class="cls-153" d="M358.45,78.13a40.93,40.93,0,0,1,2.07-5.21c.4-.82.82-1.62,1.27-2.41.06-.09.43-.79.17-.3.09-.16.2-.32.3-.49q.38-.6.78-1.2a42.87,42.87,0,0,1,3.4-4.42c.6-.68,1.23-1.34,1.87-2l.12-.12.13-.12.47-.45,1.06-1A46.7,46.7,0,0,1,374.47,57c.75-.52,1.52-1,2.31-1.49l.62-.38c.08,0,.16-.1.25-.14-.43.22-.12.07,0,0l1.27-.7A46.89,46.89,0,0,1,384,52.05c.86-.33,1.72-.64,2.6-.91l1.32-.4.62-.18s.5-.13.16,0l.23-.06a45.93,45.93,0,0,1,5.48-1q1.36-.16,2.73-.24.78,0,1.56-.06h1.22a41.61,41.61,0,0,1,6,.49c1,.15,2,.33,3.06.55l1.47.34.62.16.46.13h.11A45.72,45.72,0,0,1,417.3,53c.94.42,1.86.88,2.77,1.37.44.24.87.49,1.3.74l.31.19.73.47a38.51,38.51,0,0,1,4.77,3.67c.38.33.74.68,1.1,1l.28.28c-.3-.29-.09-.09,0,0l.6.64c.7.75,1.37,1.54,2,2.35s1.2,1.62,1.75,2.46c.26.4.51.8.76,1.21l.24.41h0c.16.24.28.51.42.76a35.43,35.43,0,0,1,2.41,5.59c.15.45.3.9.43,1.36l.21.76c0,.09.12.37,0-.07a1.92,1.92,0,0,0,.11.46c.24,1,.43,2,.58,3s.25,2,.3,3v1.73h0v.87c-.05,1-.14,2-.29,3a2,2,0,1,0,4,.59,36.71,36.71,0,0,0-5.84-25,40.49,40.49,0,0,0-19.91-15.64,47.56,47.56,0,0,0-25.06-2.26,49.6,49.6,0,0,0-21.37,9.57,44.55,44.55,0,0,0-14.18,18.42c-.34.87-.66,1.76-.94,2.65a2,2,0,0,0,1,2.63,2,2,0,0,0,2.63-1Z"></path>
                                <path class="cls-153" d="M99.73,77.61a145,145,0,0,0-27.6,39.18,131.51,131.51,0,0,0-10.37,31.44A129.79,129.79,0,0,0,59.69,164h-.21c-1.5.12-3,.19-4.56.19A54.83,54.83,0,0,1,2.29,93.63c.22-.75.45-1.49.71-2.21a56.67,56.67,0,0,1,2.44-6,54,54,0,0,1,7.14-11.13h0a54.25,54.25,0,0,1,6.6-6.7h0a54.88,54.88,0,0,1,77.38,6c.39.46.77.92,1.15,1.39A33,33,0,0,1,99.73,77.61Z"></path>
                                <path class="cls-154" d="M61.76,148.2a129.79,129.79,0,0,0-2.07,15.72h-.21c-1.5.12-3,.19-4.56.19A55,55,0,0,1,.15,113.3L.28,113A113.47,113.47,0,0,0,51.06,145.4C54.58,146.5,58.16,147.43,61.76,148.2Z"></path>
                                <path class="cls-153" d="M97.9,73A43.38,43.38,0,0,0,82.72,55.42a49.54,49.54,0,0,0-21.93-8.16A47.7,47.7,0,0,0,36.17,51,41.35,41.35,0,0,0,17,67.56a37.47,37.47,0,0,0-4.88,25.15c.17,1,.4,2,.67,3a2,2,0,0,0,3.85-1.07q-.41-1.48-.66-3a4.08,4.08,0,0,0-.11-.7c-.08-.51,0,.31,0,0v-.39c-.06-.52-.1-1-.14-1.56a33.41,33.41,0,0,1,.16-6,3.75,3.75,0,0,1,0-.47c0,.07-.06.44,0,.07s.07-.47.11-.7c.09-.52.18-1,.29-1.56.21-1,.46-2,.76-3a28,28,0,0,1,1-2.84c.09-.25.18-.5.29-.74-.19.42.09-.19.15-.32.21-.48.43-1,.67-1.44a37.76,37.76,0,0,1,3.07-5.2l.42-.57h0c.06-.09.13-.17.19-.25.33-.42.67-.82,1-1.22.67-.78,1.38-1.53,2.12-2.25s1.5-1.41,2.29-2.07l.49-.4c.09-.08.72-.57.34-.28.42-.32.84-.63,1.28-.94a43.84,43.84,0,0,1,5.22-3.15c.91-.47,1.85-.93,2.8-1.31-.43.17.2-.08.33-.14l.67-.26q.75-.29,1.5-.54A45.24,45.24,0,0,1,47,51.79l1.41-.26.71-.11.39-.06c.13,0,.58-.14.1,0A13,13,0,0,1,51,51.14c.51,0,1-.09,1.55-.12a44.22,44.22,0,0,1,5.64,0c.91.06,1.82.15,2.73.26h.29c-.5-.09-.16,0,0,0l.65.09,1.42.25A47.24,47.24,0,0,1,68.76,53c.87.27,1.74.58,2.6.9l1.21.48.16.07.16.07.66.29a46.59,46.59,0,0,1,5,2.62c.78.47,1.55,1,2.3,1.49.36.24.71.49,1.06.75l.58.43.22.17c-.4-.34,0,0,.11.08A42.27,42.27,0,0,1,86.93,64c.63.64,1.25,1.31,1.84,2l.87,1a3.9,3.9,0,0,0,.4.51c-.28-.25-.14-.19-.05-.07l.3.4a39.19,39.19,0,0,1,3,4.65c.43.8.84,1.62,1.22,2.45a2,2,0,0,0,2.73.72A2.06,2.06,0,0,0,98,73Z"></path>
                                <path class="cls-153" d="M393,163.79c0,2.65-.17,5.31-.38,8L391.8,180c-.05.69-.09,1.38-.15,2.07-.19,2.5-.46,5-.81,7.53-.3,2.21-.64,4.39-1,6.56a28.48,28.48,0,0,0-11.1-5.45c-14.14-3.36-28.06,5.44-35.25,20.67V208q-.11-6.27-.4-12.4c-.5-10.4-1.4-20.55-2.72-30.36a285,285,0,0,0-6.8-35c-.2-.81-.41-1.61-.63-2.41v20.4a23.49,23.49,0,0,1-23.48,23.49h-147L156,140h0l-.3-1.5-.21-1-.39-1.94-2.64,7.25-2.74,7.51-7.81,21.45a23.49,23.49,0,0,1-23-18.94,319.88,319.88,0,0,0-5.22,49.1q-.18,5.13-.19,10.33h0c-.28-.62-.57-1.23-.87-1.82a41.14,41.14,0,0,0-10.15-13.12h0a31.74,31.74,0,0,0-7-4.52h0a27.26,27.26,0,0,0-7.42-2.33,25.12,25.12,0,0,0-4.5-.34,26.43,26.43,0,0,0-5.67.71,30.23,30.23,0,0,0-15.89,10c-.11-.55-.2-1.11-.29-1.67-.52-3.14-1-6.33-1.35-9.55-.28-2.31-.49-4.6-.65-6.87a136.37,136.37,0,0,1-.16-16.3v-2.54a118.22,118.22,0,0,1,9.68-47.38,125.49,125.49,0,0,1,7.27-14.3A138.84,138.84,0,0,1,97.8,74.94a158.14,158.14,0,0,1,20.74-17.49A173.1,173.1,0,0,1,141.8,43.54a189.36,189.36,0,0,1,168.33,0c.34.17.67.36,1,.52,1.67.84,3.29,1.7,4.93,2.57A182.62,182.62,0,0,1,333,57,162.84,162.84,0,0,1,355.43,75.9a138.59,138.59,0,0,1,21.69,28.21,123.21,123.21,0,0,1,6.36,12.56A113.48,113.48,0,0,1,393,163.79Z"></path>
                                <path class="cls-154" d="M332.89,131V148.2a23.49,23.49,0,0,1-23.48,23.49H229.83c28.62-1.85,72.9-7.11,91.18-21.05C327.88,145.4,330,139.69,332.89,131Z"></path>
                                <path class="cls-154" d="M130.55,168.79a11.76,11.76,0,0,1-2.16-1.22,22,22,0,0,1-4.5-4.16,18.52,18.52,0,0,1-2.25-3.35,27.82,27.82,0,0,1-1.85-4.18,33,33,0,0,1-1.09-5,34,34,0,0,1-.27-5.71,35.17,35.17,0,0,1,.71-6.22,39,39,0,0,1,1.61-6.47,44.37,44.37,0,0,1,2.39-6.4c.44-1,.86-2,1.27-3,.56-1,1.07-2,1.58-3,1-1.89,1.91-3.61,2.92-5.19s1.94-3,2.68-4.11c1.43-2.13,2.31-3.4,2.42-3.55a36,36,0,0,1-1.52,3.31c-.5,1.06-1.12,2.34-1.84,3.83s-1.14,3-1.88,4.77a43.16,43.16,0,0,0-2,5.51,58,58,0,0,0-1.64,5.9,51.13,51.13,0,0,0-1.13,6,33.33,33.33,0,0,0-.5,5.9,32.49,32.49,0,0,0,.08,5.58c.08,1.82.44,3.45.62,5.12.46,1.51.64,3.14,1.14,4.49a36.83,36.83,0,0,0,1.35,3.82,32.62,32.62,0,0,0,2.6,5.39A23,23,0,0,0,130.55,168.79Z"></path>
                                <path class="cls-154" d="M112.62,210.37a41.14,41.14,0,0,0-10.15-13.12h0a31.74,31.74,0,0,0-7-4.52h0a27.26,27.26,0,0,0-7.42-2.33,25.12,25.12,0,0,0-4.5-.34,26.43,26.43,0,0,0-5.67.71A30.22,30.22,0,0,0,62,200.87c-.11-.55-.2-1.11-.29-1.67-.52-3.14-1-6.33-1.35-9.55-.28-2.31-.49-4.6-.65-6.87a136.37,136.37,0,0,1-.16-16.3v-2.54a118.22,118.22,0,0,1,9.68-47.38,125.49,125.49,0,0,1,7.27-14.3A96.74,96.74,0,0,0,95,183.07c4.23,5.27,9,10.1,12.71,15.77A33.68,33.68,0,0,1,112.62,210.37Z"></path>
                                <path class="cls-154" d="M393,163.79c0,2.65-.17,5.31-.38,8L391.8,180c-.05.69-.09,1.38-.15,2.07-.19,2.5-.46,5-.81,7.53-.3,2.21-.64,4.39-1,6.56a28.48,28.48,0,0,0-11.1-5.45c-14.14-3.36-28.06,5.44-35.25,20.67V208c3.51-4.46,7.41-8.63,11-13.06a113.79,113.79,0,0,0,22.65-90.83,123.21,123.21,0,0,1,6.36,12.56A113.35,113.35,0,0,1,393,163.79Z"></path>
                                <path class="cls-154" d="M150.17,147.86a12.21,12.21,0,0,1,2.32-5.13l-2.74,7.51C149.87,149.44,150,148.65,150.17,147.86Z"></path>
                                <path class="cls-154" d="M155.55,137.32q.07.57.18,1.14l-.21-1Z"></path>
                            </g>                      
</svg>