<svg xmlns="http://www.w3.org/2000/svg" viewBox="0 0 353.95 284.07"><defs><style>.cls-1{fill:#ffe8d5;}.cls-2{fill:#f2b9aa;opacity:0.5;}.cls-3{fill:#6d482f;}.cls-4{fill:#fd8780;}.cls-5{fill:#fd615d;}</style></defs><g id="Layer_2" data-name="Layer 2"><g id="Work"><path class="cls-1" d="M52.51,165.29A74.13,74.13,0,0,0,48.06,172a146.3,146.3,0,0,1-3-18.06A26.17,26.17,0,0,1,52.51,165.29Z"/><path class="cls-1" d="M292.15,153.79a1,1,0,0,1,0,.25l-.08-.08A1.3,1.3,0,0,1,292.15,153.79Z"/><path class="cls-1" d="M292.15,153.79a1,1,0,0,1,0,.25l-.08-.08A1.3,1.3,0,0,1,292.15,153.79Z"/><path class="cls-1" d="M353.23,183.34c-3.78,23.44-21.49,39-39.54,34.68l-.45-.12a62.93,62.93,0,0,0,1.6-14.11c0-.95,0-1.89-.07-2.83a65.89,65.89,0,0,0-13.12-36.26l-.44-.57a149.72,149.72,0,0,0,2.18-25c6.95-5.62,15.44-8,24-6C345.45,137.42,357,159.9,353.23,183.34Z"/><path class="cls-2" d="M341,180.44c-2.3,14.25-13.36,23.66-24.66,21-.54-.13-1.07-.28-1.59-.46a65.89,65.89,0,0,0-13.12-36.26c4-10.77,13.45-17.25,23.06-15C336,152.41,343.32,166.18,341,180.44Z"/><path class="cls-1" d="M39.22,200.94c-.07,1.23-.11,2.47-.11,3.72A62.91,62.91,0,0,0,40.52,218l-.25.06C22.21,222.3,4.5,206.77.72,183.33s7.78-45.91,25.84-50.19a26.36,26.36,0,0,1,17.76,2c0,1.16,0,2.32,0,3.49A148.94,148.94,0,0,0,45.06,154a26.17,26.17,0,0,1,7.45,11.31A74.13,74.13,0,0,0,48.06,172,64.93,64.93,0,0,0,39.22,200.94Z"/><path class="cls-2" d="M52.51,165.29A74.13,74.13,0,0,0,48.06,172a64.93,64.93,0,0,0-8.84,28.9,15.24,15.24,0,0,1-1.63.48c-11.3,2.68-22.35-6.73-24.66-21s5-28,16.31-30.71A17.67,17.67,0,0,1,45.06,154,26.17,26.17,0,0,1,52.51,165.29Z"/><path class="cls-1" d="M292.15,153.79a1,1,0,0,1,0,.25l-.08-.08A1.3,1.3,0,0,1,292.15,153.79Z"/><path class="cls-1" d="M314.77,201a65.89,65.89,0,0,0-13.12-36.26l-.44-.57a149.72,149.72,0,0,0,2.18-25v-.49A144.39,144.39,0,0,0,276.6,54.22c-19.18-26.71-47.26-45.72-79.48-52a122.2,122.2,0,0,0-46.58,0A126,126,0,0,0,86.9,35.84c-25.43,24.65-41.67,60-42.58,99.33,0,1.16,0,2.32,0,3.49A148.94,148.94,0,0,0,45.06,154a26.17,26.17,0,0,1,7.45,11.31A74.13,74.13,0,0,0,48.06,172a64.93,64.93,0,0,0-8.84,28.9c-.07,1.23-.11,2.47-.11,3.72A62.91,62.91,0,0,0,40.52,218C48.07,253,85,279.68,129.34,279.68c1.48,0,3,0,4.42-.09h0l.47.11a160.86,160.86,0,0,0,22.59,3.46c7.12.62,14.6.91,22.45.91,7.18,0,14-.23,20.54-.73a152.31,152.31,0,0,0,28.24-4.54l.18-.06h0c42.39-1.4,77.26-27.12,85-60.84a62.93,62.93,0,0,0,1.6-14.11C314.84,202.84,314.82,201.9,314.77,201ZM292.15,154l-.08-.08a1.3,1.3,0,0,1,.08-.17A1,1,0,0,1,292.15,154Z"/><path class="cls-3" d="M78,172.87a115.58,115.58,0,0,1,29.13-8.7c10-1.43,20.28-.87,30.31.41,2.76.35,5.09-2.61,5.11-5.12,0-3.05-2.38-4.76-5.11-5.11a120.2,120.2,0,0,0-33,0c-11,1.62-21.4,5.35-31.57,9.73-2.55,1.1-3.08,4.81-1.83,7,1.5,2.64,4.47,2.92,7,1.84Z"/><path class="cls-3" d="M287.29,165.65c-10.17-4.37-20.58-8.1-31.57-9.73a120.59,120.59,0,0,0-33,0c-2.76.36-5.09,2.1-5.12,5.12,0,2.49,2.38,5.46,5.12,5.11,10-1.28,20.26-1.84,30.31-.4a115.36,115.36,0,0,1,29.12,8.69c2.56,1.1,5.46.74,7-1.83,1.28-2.15.7-5.91-1.83-7Z"/><path class="cls-4" d="M208,191.5c-8.49,1.84-17.53.67-26.15.9a71.49,71.49,0,0,0-12.55,1.35c-1.86.38-3.77,1.07-5.7,1.52a32.85,32.85,0,0,0-8.46,0,3.82,3.82,0,0,0-2.41,1.25l-.36.05-.16,0-.06-.05c-.58-.46-1.36.28-1.18.9a2.83,2.83,0,0,0,.24,3.49l1.45,1.42a5,5,0,0,0,1.82,1.76,59.62,59.62,0,0,0,11.87,9.31c5.54,3.08,12.72,3.13,18.88,2.54,12.05-1.16,21.29-8,27.8-18C215.31,194.6,211.6,190.73,208,191.5Z"/><path class="cls-5" d="M211.2,195.21c-4.51-2-9.95-2.06-14.83-2.13-5.23-.06-10.46.17-15.67.53s-10.47.93-15.69,1.54c-4.73.56-10.55.82-14.56,3.63-1.19.83-1.62,3,0,3.75,4.45,2,9.81,1.4,14.56,1.06,5-.37,10-.81,15-1.17s10-.61,15-.59,10.34.88,15.27,0C213.26,201.27,214,196.46,211.2,195.21Z"/><path class="cls-3" d="M149.73,198.19c18.82-.95,37.66-1.55,56.49-2.47,2.34-.11,4.62-.76,3.45,2.34a17.15,17.15,0,0,1-4.36,6.16,31.46,31.46,0,0,1-12.86,7.31,38.64,38.64,0,0,1-23.54-.82c-6.33-2.15-16.35-6.57-16.63-14.45-.11-3.28-5.23-3.3-5.11,0,.3,8.58,8,14.09,15.17,17.31,8.77,4,18.23,5.6,27.76,3.79,9.84-1.88,22.33-8.57,24.89-19.14.46-1.89.6-4.15-.61-5.81-1.52-2.08-3.8-2-6.14-1.9-5.8.29-11.59.54-17.39.79-13.71.57-27.42,1.08-41.12,1.78-3.28.17-3.3,5.28,0,5.11Z"/></g></g></svg>